<?xml version="1.0" encoding="UTF-8" standalone="no"?>
<svg
   viewBox="0 0 600 600"
   version="1.1"
   id="svg28"
   sodipodi:docname="armarria_Villabona.svg"
   width="600"
   height="600"
   inkscape:version="1.3.2 (091e20ef0f, 2023-11-25)"
   xmlns:inkscape="http://www.inkscape.org/namespaces/inkscape"
   xmlns:sodipodi="http://sodipodi.sourceforge.net/DTD/sodipodi-0.dtd"
   xmlns="http://www.w3.org/2000/svg"
   xmlns:svg="http://www.w3.org/2000/svg">
  <defs
     id="defs28" />
  <sodipodi:namedview
     id="namedview28"
     pagecolor="#ffffff"
     bordercolor="#000000"
     borderopacity="0.25"
     inkscape:showpageshadow="2"
     inkscape:pageopacity="0.0"
     inkscape:pagecheckerboard="0"
     inkscape:deskcolor="#d1d1d1"
     inkscape:zoom="0.492"
     inkscape:cx="250"
     inkscape:cy="299.79675"
     inkscape:window-width="1920"
     inkscape:window-height="1008"
     inkscape:window-x="0"
     inkscape:window-y="0"
     inkscape:window-maximized="1"
     inkscape:current-layer="svg28" />
  <path
     d="M 0.5,0.5 V 350 C 0.5,487.724 112.276,599.5 250,599.5 387.724,599.5 499.5,487.724 499.5,350 V 0.5 Z"
     fill="#eac102"
     stroke="#000000"
     stroke-linecap="round"
     stroke-linejoin="round"
     id="path1" />
  <g
     stroke="#000000"
     stroke-linecap="round"
     stroke-linejoin="round"
     transform="translate(-70,-220)"
     id="g28">
    <g
       id="g12">
      <path
         d="m 233.7277,542.322 c -5.8275,2.1313 -9.0137,-7.6587 -15.0128,-6.7218 -5.3205,0.8309 2.7092,-11.5056 -3.7286,-7.4676 -3.9104,2.4527 -3.1477,-1.6786 -3.9245,-5.3392 -0.6528,-3.0761 -6.881,-5.4592 -1.5191,-7.3503 5.6918,-2.0076 -1.6778,-4.2031 -2.1574,-7.4831 -0.3277,-2.2411 -2.6318,3.6609 -7.8553,1.3096 -1.9422,-0.8743 2.5543,-6.8061 -1.668,-4.3088 -5.5753,3.2975 0.2073,-9.1833 -4.4155,-9.2591 -5.7128,-0.0937 -1.7138,-5.8286 1.0586,-7.3791 2.3331,-1.3047 -10.0318,-2.1576 -5.47,-6.2706 3.1759,-2.8635 -0.5074,-2.453 -1.3054,-4.013 -2.5945,-5.0719 10.4619,-3.0294 3.0299,-5.5348 -7.1345,-2.4051 3.0443,-7.4869 6.7988,-6.7696 2.66,0.5082 -4.8496,-4.8564 -1.6216,-5.9173 1.9899,-0.654 -6.4599,-5.1891 -1.4145,-6.9699 2.5345,-0.8946 5.6832,-4.0803 1.8665,-4.393 -5.9183,-0.4849 3.1643,-8.2595 -2.8358,-7.4928 -4.2959,0.549 -3.8237,-1.6817 -0.681,-4.4724 3.9014,-3.4645 7.2817,-5.7252 10.3276,-0.3926 2.0713,3.6263 9.1743,-4.2643 5.6079,-3.7004 -5.1035,0.8069 -1.0508,-5.6596 -3.0717,-5.0254 -5.706,1.7909 -0.9483,-4.237 4.3147,-4.3321 3.5965,-0.065 -0.2015,-7.1274 3.8297,-3.9105 2.5833,2.0614 6.0923,-2.5569 6.8249,-1.0938 3.592,7.1738 10.7492,-1.8506 11.016,5.5978 0.1985,5.5411 2.138,5.5369 3.5495,-0.2318 1.0735,-4.387 -2.4869,-6.2988 1.8887,-5.9437 3.9052,0.317 -1.9798,-8.7125 2.6904,-5.0647 2.2643,1.7686 3.3121,7.8077 4.4901,0.615 0.8394,-5.1252 4.3503,3.139 9.5384,0.6614 4.57,-2.1824 0.4056,22.42 6.7454,14.0432"
         fill="#008f4c"
         fill-rule="evenodd"
         id="path2" />
      <path
         d="m 433.6424,473.2485 c -0.2599,3.9983 11.4409,-2.2977 10.2912,5.16 -1.4791,9.5942 11.2418,-3.7901 9.8382,4.7351 -0.9862,5.9898 -1.943,7.1225 2.6202,7.8385 4.0905,0.6418 0.8342,2.7633 -0.3093,5.0008 -2.0837,4.0774 3.4173,6.8475 3.4173,13.1442 0,5.9104 -5.5245,7.5582 -1.5119,12.2213 1.3773,1.6005 1.5119,4.8366 1.5119,8.2399 0,4.1489 -3.8366,-0.1487 -2.6602,6.6379 0.7585,4.3758 -4.5873,3.9671 -3.6136,6.2564 0.9023,2.1216 4.2018,2.887 4.2018,4.9142 0,2.9935 -2.8916,2.9207 -2.0911,8.6122 0.7184,5.1074 -8.1341,-3.0632 -5.4718,7.078 2.4406,9.2966 -6.3916,0.1242 -5.639,1.9845 2.4271,5.9996 -4.5402,6.2062 -2.2765,7.4691 6.5091,3.6313 -2.9663,8.8763 -2.4384,9.7268 3.3225,5.3531 1.2855,11.4666 -4.3387,8.2117 -2.8396,-1.6434 7.4151,8.597 1.0451,9.1989 -3.2928,0.3111 -3.1666,-2.1719 -2.3753,3.7227 0.7987,5.9499 -8.7115,-1.8637 -7.8546,-0.9925 5.0704,5.1556 0.1329,10.4675 -3.6675,5.2833 -2.013,-2.746 -1.0323,-6.5403 -5.5325,-4.1619 -1.0818,0.5718 -3.5701,-3.6975 -2.4026,2.4885 1.5782,8.362 -10.3467,-6.5287 -7.608,3.0663 2.3564,8.2556 -9.4927,-1.6626 -3.5376,5.8567 1.7274,2.1811 4.54,6.3092 1.7316,6.3092 -3.2151,0 -6.4025,-1.9968 -8.0697,-2.3746 -4.0809,-0.9247 -0.4384,-6.722 -3.5962,-11.1654 -2.8241,-3.974 -7.6456,-0.3693 -2.2171,2.9179 2.9749,1.8015 -6.9706,3.1594 -1.6967,6.3081 2.1812,1.3023 0.2624,4.3139 -2.4012,4.3139 -1.8425,0 -2.3741,-3.6338 -3.3812,-5.1551 -1.4187,-2.1428 -1.1983,5.1551 -3.4031,5.1551 -2.254,0 -1.7204,-1.3904 -2.052,-3.6943 -0.6708,-4.6612 -3.9254,1.8753 -5.4809,-0.7027 -2.1404,-3.5472 0.5129,-7.6153 -3.1088,-9.8877 -5.5872,-3.5056 -9.0751,3.834 -7.5027,-1.2852 2.572,-8.3735 -1.4152,-5.7725 -3.4968,-3.0111 -2.8804,3.8211 1.1873,-12.9234 0.2444,-11.5735 -2.2233,3.1828 -5.4258,5.6484 -5.1426,-1.4094 0.1871,-4.6621 -2.3837,-3.9276 -3.5325,-6.5375 -2.386,-5.4207 12.2973,-11.3986 10.9595,-14.6871 -0.5178,-1.2729 -7.203,-3.6234 -8.3713,-4.2312"
         fill="#008f4c"
         fill-rule="evenodd"
         id="path3" />
      <path
         d="m 194.81,483.5445 c 1.4779,4.0219 -8.3315,0.2381 -7.3373,7.4981 0.4599,3.3581 -6.9727,-1.1746 -6.9727,5.7094 0,5.7345 4.64,6.5322 1.9118,9.6041 -0.9867,1.111 1.5884,2.4814 0.9225,4.0189 -2.5045,5.7821 2.3148,7.572 1.6357,12.0673 -0.8129,5.3812 -0.4219,9.9435 2.0441,8.1157 2.967,-2.1991 3.1294,11.3832 -0.5828,10.6461 -2.496,-0.4956 1.7931,5.5395 3.0605,7.0429 2.9226,3.4667 -2.454,13.2911 3.1763,11.8215 6.8285,-1.7824 -4.4688,10.2726 2.1529,11.1016 3.9055,0.489 -2.3105,9.0526 6.6635,6.9224 4.909,-1.1653 -4.3306,6.291 -2.0078,7.6348 2.1309,1.2328 4.3525,-2.3995 5.8193,-0.2524 1.9802,2.8985 3.5981,-0.4362 0.5495,5.3656 -3.1027,5.9046 5.947,6.4801 5.8569,7.0416 -1.4635,9.1238 3.2998,12.51 6.4867,5.857 1.209,-2.5238 -2.4632,14.3451 1.4959,10.4015 3.9397,-3.9242 8.0146,-2.3865 9.2859,0.5879 2.3582,5.5173 6.4066,-12.6322 4.682,-2.6084 -1.6906,9.8263 6.0895,3.9753 5.7666,-3.0295 -0.1747,-3.791 -0.4569,-2.4297 2.6942,-2.7244 3.2359,-0.3026 -0.3629,2.2251 1.7407,7.7035 1.1264,2.9336 -0.0625,7.1805 3.6416,7.1805 3.6735,0 0.1829,-4.1519 5.0293,-7.4358 5.4685,-3.7053 2.2222,7.4358 5.6117,7.4358 3.9374,0 7.0222,-7.8371 3.7716,-15.0913 -2.3276,-5.1942 3.0235,-14.8881 4.311,-9.4103 0.7781,3.3104 -2.7204,6.7627 0.9988,6.1705 3.5933,-0.5722 -1.6033,4.311 1.605,8.1057 4.9039,5.8002 1.9638,-8.4029 7.1588,-1.3549 1.4952,2.0285 1.4963,-11.5998 6.4742,-9.3386 2.1445,0.9741 5.8532,-3.514 8.0986,-7.9212 3.7393,-7.3394 -1.3316,-11.4017 3.3386,-17.7438 2.3212,-3.1521 -3.2113,11.2241 1.728,9.0095 5.4411,-2.4397 0.31,-2.1109 4.4218,-0.3072 3.3771,1.4815 -5.87,-15.0839 0.251,-10.9111 5.0919,3.4713 -0.0974,-8.4002 2.5963,-12.8373 3.6809,-6.0633 -6.8712,-7.3515 -6.8849,-11.3668 -0.006,-1.4461 1.9,-1.6497 2.7013,-2.9127"
         fill="#008f4c"
         fill-rule="evenodd"
         id="path4" />
      <path
         d="m 342.3518,562.0748 c 2.8345,-0.9164 -0.9482,7.7617 4.4553,5.3586 6.7653,-3.0088 -4.0305,12.908 1.9114,11.7905 4.7503,-0.8934 5.3618,-4.9945 6.1212,1.7699 0.6896,6.1427 1.7887,-7.6325 3.907,-0.1263 1.9768,7.0048 4.2736,-7.2078 7.888,1.9073 1.1688,2.9475 4.3284,-8.6604 8.2688,-3.3519 4.1719,5.6204 7.7042,-4.6678 12.7408,1.3133 2.8544,3.3896 2.4358,-13.7164 5.8919,-4.4536 3.1212,8.3652 4.1804,-4.8278 9.9548,-3.2089 4.4433,1.2458 -5.0301,-10.5954 1.5768,-9.3719 3.0004,0.5556 5.5923,0.0692 2.8102,-4.1854 -2.4722,-3.7807 -1.4051,-2.5833 1.8002,-2.8093 1.7321,-0.1221 0.7026,-8.3372 3.0474,-2.6713 2.3771,5.744 5.9389,-6.6507 6.0608,-6.5271 4.0098,4.0674 8.1177,-0.267 5.5037,-6.7623 -1.6849,-4.1867 6.734,8.7664 6.6715,0.2344 -0.0303,-4.1311 -2.5893,-4.0504 2.4204,-3.6719 4.915,0.3714 -1.9112,-11.0265 -1.3611,-10.2138 4.2702,6.3082 7.4229,-1.2231 3.4775,-5.4963 -2.2141,-2.3981 -4.3802,-1.9839 -3.4602,-6.757 0.8754,-4.5416 -2.0716,-2.4907 1.5696,-3.5034 5.962,-1.6582 -5.0939,-12.7804 1.9488,-9.9686 6.1204,2.4435 0.473,-10.7769 6.4184,-4.5886 5.6436,5.8742 1.0802,-7.0299 0.4272,-10.5371 -1.0253,-5.5069 -5.5179,1.036 -9.364,-2.9118 -2.8059,-2.88 -1.179,-10.5336 1.8344,-3.3445 1.2915,3.0812 0.702,-9.3245 4.6505,-2.5701 1.4765,2.5257 6.798,-4.2294 2.8248,-7.2384 -3.5654,-2.7002 4.4927,-5.6746 -1.1951,-6.7154 -3.0318,-0.5548 -2.2599,-1.6363 -4.3453,-6.0813 -1.5785,-3.3647 -5.2325,2.0882 -7.64,-3.0303 -2.9563,-6.2853 -7.7898,8.4057 -9.0113,2.3727 -0.9315,-4.6006 0.6131,-7.882 4.4191,-9.583 1.695,-0.7575 -4.1023,-3.3396 -0.0322,-6.0744 5.4702,-3.6756 -4.5556,-1.2928 -3.7273,-2.451 2.4206,-3.3846 0.908,-6.5492 -4.0954,-5.2822 -3.2869,0.8323 -2.654,-2.3963 -4.9668,-3.8258 -3.8568,-2.3838 -6.0449,8.8036 -8.4156,7.5733 -1.2801,-0.6644 -0.4513,-3.1681 -1.0001,-4.6336"
         fill="#008f4c"
         fill-rule="evenodd"
         id="path5" />
      <path
         d="m 358.3109,407.8913 c 1.812,1.077 0.8908,-6.4382 4.1945,-4.2392 4.1709,2.7762 -0.9168,-9.7794 3.6557,-9.7357 2.8109,0.0268 2.643,5.3827 4.6315,-0.4854 2.0904,-6.1688 -0.0746,5.9528 2.9679,-0.2821 2.8558,-5.8523 2.1164,6.242 5.7931,-0.8258 1.1689,-2.247 1.1358,7.496 4.6977,3.1478 4.0424,-4.9347 4.9165,3.9021 8.7261,-0.0505 4.7072,-4.8839 -0.1799,10.4914 3.901,3.8283 2.8796,-4.7016 2.3116,-1.1015 3.8328,1.8101 1.0538,2.0169 5.5856,0.6763 1.914,5.0918 -4.6501,5.5923 3.361,2.9048 2.5212,5.1686 -0.9382,2.5291 -5.5308,6.1764 -1.2614,4.6995 1.571,-0.5435 -1.429,7.5931 2.1519,2.1027 2.6515,-4.0653 2.4938,6.2385 2.6905,6.084 4.639,-3.6444 5.4854,2.4622 2.0307,7.0902 -1.1995,1.6069 7.3431,-5.939 4.8159,0.1057 -1.8254,4.3662 -0.6257,1.6676 1.2454,2.6846 3.1148,1.6929 -7.1451,10.6073 -1.8327,6.518 4.6308,-3.5647 1.1085,6.7184 -1.9803,7.5816 -1.6467,0.4602 -1.684,1.4038 -1.803,3.894 -0.1562,3.2693 -3.2791,2.7825 -0.1192,3.0772 2.7748,0.2588 -1.1712,3.761 -2.204,5.9673 -1.4809,3.1637 3.3068,-0.0326 3.6023,1.5491 0.6562,3.5119 -1.8605,7.8775 2.0833,4.8044 4.6584,-3.63 -1.2111,5.958 -2.1233,8.5941 -1.8415,5.3215 -3.5731,-0.7701 -7.3514,2.3285 -2.1329,1.7492 -3.109,8.8419 0.1908,3.3426 2.1572,-3.595 -1.3674,7.7338 3.0018,2.0126 1.7952,-2.3508 3.3332,4.4191 0.1122,6.5197 -2.6635,1.737 2.1632,4.4591 -1.7257,5.0678 -2.4117,0.3775 -2.6315,1.423 -4.4058,4.8721 -1.0268,1.9959 -3.3005,-2.6313 -5.737,1.777 -1.7608,3.1858 -2.6597,0.7161 -3.6751,-2.218 -0.5152,-1.4886 -2.419,-0.7644 -2.1099,2.3225 0.3405,3.4008 1.7852,5.8239 0.7732,6.6057 -3.6764,2.8402 0.119,4.2776 -0.8348,6.2583 -1.4808,3.075 -6.0334,-4.9518 -5.0763,1.6032 0.8577,5.8742 -3.5369,0.401 -6.6213,5.4027 -2.1426,3.4745 -9.5915,-14.1579 -11.4967,-12.3128 -0.8423,0.8157 -0.8235,2.331 -1.4494,3.3681"
         fill="#008f4c"
         fill-rule="evenodd"
         id="path6" />
      <path
         d="m 279.0067,572.1174 c 2.8343,-0.8201 -1.7064,4.3406 3.6235,2.2196 6.8181,-2.7133 -3.95,11.5364 1.9112,10.5499 4.4528,-0.7494 5.3627,-4.4605 6.121,1.5843 0.6911,5.5093 1.7917,-6.8218 3.9071,-0.1153 1.9797,6.2762 4.3424,-6.2953 7.888,1.7073 1.2734,2.874 4.345,-16.3738 8.2688,-11.6437 4.189,5.0498 2.8174,4.6483 7.79,9.932 2.9175,3.1 9.0686,-9.2247 12.5256,-0.9339 3.1201,7.4829 1.7892,8.2144 7.4549,9.6359 4.4642,1.12 -1.7461,-5.7911 4.8448,-4.6989 3.0079,0.4984 5.6067,0.0844 2.8099,-3.7451 -2.4577,-3.3652 -1.377,-2.3133 1.8005,-2.5136 1.6428,-0.1035 0.7328,-7.3943 3.0473,-2.3903 2.4169,5.2255 3.078,-16.5543 3.2018,-16.4419 3.9968,3.6282 16.4106,-2.0965 13.7383,-8.0379 -1.6517,-3.6723 6.7339,7.8593 6.6715,0.2103 -0.0304,-3.7336 -2.3247,-3.6065 2.4207,-3.2856 4.715,0.3189 -1.9472,-9.9144 -1.3612,-9.1399 4.2174,5.5747 7.4534,-1.0645 3.4777,-4.9182 -2.183,-2.116 -6.7546,-7.7243 -3.1251,-10.1676 2.9709,-2 -1.9983,-3.5535 1.6432,-4.4598 5.8413,-1.4537 -7.5261,-10.8019 -0.4043,-8.2578 5.875,2.0987 -5.3596,-11.5834 0.5363,-6.0923 5.6922,5.3014 3.208,-8.6752 0.4272,-9.4292 -15.9719,-4.3312 -5.768,-10.8711 -2.8793,-7.8978 1.9552,2.0124 6.7969,-3.7861 2.8251,-6.4775 -3.567,-2.4171 4.5041,-5.0758 -1.1955,-6.0088 -3.0084,-0.4925 -2.2856,2.7911 -4.345,-1.1366 -1.707,-3.2557 -5.2847,1.7693 -7.6401,-2.7118 -3.0315,-5.7673 -7.7052,3.5915 -9.0114,-2.1818 -0.9806,-4.3339 0.5607,-7.0322 4.4196,-8.5752 1.5408,-0.6161 -4.1771,-2.9434 -0.0322,-5.4353 5.3735,-3.2306 -7.2533,0.0918 -6.3744,-1.0081 2.3673,-2.9621 3.5562,-7.0457 -1.4484,-5.9116 -3.2855,0.7446 -2.7707,-2.2089 -4.9668,-3.4237 -3.9312,-2.1746 -6.0024,7.897 -8.4159,6.7765 -1.1771,-0.5465 -0.4509,-2.8343 -0.9998,-4.1458"
         fill="#008f4c"
         fill-rule="evenodd"
         id="path7" />
      <path
         d="m 200.5231,499.2143 c 0,0 1.0944,0.421 1.0688,0.9263 -0.0911,1.7998 -3.7816,1.0264 -4.1148,2.7896 -0.4674,2.474 7.0633,6.8964 3.8588,6.2213 -4.183,-0.8812 -12.6051,2.3109 -9.2006,3.735 3.056,1.2783 5.1999,0.1822 5.7306,2.3975 0.6208,2.5913 -5.7844,3.9293 -4.5414,6.2191 0.7884,1.4523 3.4472,-2.3795 4.4309,-1.0873 1.1885,1.5611 -2.7183,3.879 -1.9714,5.7552 0.8379,2.1045 5.1063,0.2475 5.7513,2.4364 0.4513,1.5316 -2.8824,2.5905 -2.3208,4.075 0.8425,2.2267 4.8783,-0.3809 6.3263,1.408 1.7888,2.2099 -0.6542,6.4324 0.8151,8.9233 1.0292,1.7446 3.8855,1.2575 4.8953,3.0164 1.1641,2.0277 -1.2112,5.7649 0.499,7.2216 1.8836,1.6043 5.4022,-3.5797 6.9471,-1.5682 1.4914,1.9419 -3.4828,5.0601 -2.2986,7.2542 1.062,1.9676 4.3304,-0.2582 6.0784,0.9369 1.6433,1.1234 1.4072,5.2903 3.3296,5.3021 2.4434,0.0158 1.8498,-6.7189 4.2931,-6.69 2.408,0.0284 1.7019,6.834 4.1066,6.6918 2.2163,-0.1313 0.9812,-6.8291 3.1894,-6.5805 1.3144,0.1479 0.0196,3.5368 1.1735,4.2616 1.4444,0.9074 3.8296,-2.8982 4.805,-1.3942 0.8488,1.3087 -0.8352,1.4946 -2.2994,4.1147 -1.9139,3.4247 4.9568,-0.7476 8.22,0.763 2.9951,1.3865 1.2252,9.6783 3.5109,7.6811 l 3.2295,-2.822 c 2.1313,-1.8624 -1.0521,10.8882 2.134,7.8923 2.0426,-1.9207 3.0499,-4.0459 4.9734,-3.0566 1.1774,0.6056 -0.5982,1.4295 0.3821,2.3811 0.9185,0.8917 2.8682,-0.7071 3.3998,-1.9344 1.7914,-4.1353 2.8234,-1.5514 3.6884,0.6406 0.6538,1.6568 3.0871,-1.6737 3.8665,-3.26 1.3375,-2.7222 -0.1775,-6.1649 2.3475,-7.4276 0.7829,-0.3915 1.2237,2.0402 2.0425,1.7564 1.4093,-0.4886 -0.0757,-4.6366 1.3965,-4.7264 1.4518,-0.0887 0.6128,3.5465 1.8163,4.4651 0.9413,0.7184 3.7891,-5.7679 4.655,-6.5979 1.2158,-1.1655 -0.1995,-2.2928 1.1501,-3.2537 1.0557,-0.7516 2.6349,-0.0212 3.3334,1.1448 0.6466,1.0793 1.1681,2.4445 2.111,3.1983 1.7106,1.3676 2.1427,-1.7525 3.9568,-0.5663 2.1138,1.3823 -2.1987,4.0722 0.1305,4.9069 2.2271,0.7981 5.966,-0.731 7.4718,-2.7434 1.1121,-1.4863 2.6898,1.1426 3.3513,-0.6523 2.795,-7.5843 4.1211,-1.6491 7.6823,-3.1644 1.8337,-0.7803 0.6003,-5.1682 2.3991,-6.0455 1.1461,-0.559 2.6163,2.3244 3.5413,1.3794 1.9927,-2.0356 -3.2653,-6.2357 -1.886,-8.8368 0.5939,-1.1199 3.0436,0.2551 3.3596,-0.9997 0.581,-2.3067 -4.2504,-2.823 -4.4005,-5.2148 -0.0858,-1.3686 1.8508,-2.0156 2.1196,-3.3539 0.3032,-1.5098 0.3526,-3.5953 -0.7125,-4.5744 -0.9991,-0.9184 -2.7383,0.8225 -3.8679,0.1216 -1.2655,-0.7852 -0.6073,-0.3028 -1.7959,-2.5583 -1.4343,-2.7215 2.0267,-3.0856 4.8812,-4.598 7.2363,-3.8341 -2.0566,-3.4581 -1.8474,-6.2004 0.3283,-4.3023 5.7437,-2.1967 6.7882,-4.2868 1.2611,-2.5237 -4.4148,-1.1555 -3.9149,-3.9959 0.1895,-1.0771 2.2201,-1.0465 2.2209,-2.1446 9e-4,-1.1358 -0.1523,-0.1479 -2.2906,-2.2271 -2.5069,-2.4376 -10.2454,0.492 -8.3002,-1.9327 l 3.3706,-4.2015"
         fill="#008f4c"
         fill-rule="evenodd"
         id="path8" />
      <path
         d="m 271.6162,409.2174 c -0.3249,-4.5852 -10.356,-8.8671 -17.1535,-13.282 -2.2466,-1.4591 -3.6068,9.9095 -6.0831,9.7974 -2.5156,-0.114 -4.8526,-7.3591 -6.7685,-6.9516 -3.6585,0.7781 -0.5588,10.0335 -1.9599,9.4892 -4.2921,-1.6674 -6.529,-5.068 -6.9179,-5.0877 -1.5217,-0.0774 -2.3632,-0.0875 -1.9307,3.2516 1.0232,7.8992 -7.4112,-5.4156 -8.9338,0.1991 -1.0839,3.9971 4.0401,7.2662 -1.9523,7.2754 -5.3914,0.008 5.1184,2.95 -0.4119,4.3095 -6.1106,1.5021 4.5857,6.6646 -2.4155,8.7323 -2.7379,0.8086 5.9797,5.2376 1.7339,8.8319 -3.642,3.0832 0.004,6.6267 -0.5845,10.8471 -0.6062,4.3408 -4.6423,6.5286 0.6005,7.9982 6.737,1.8885 -8.0789,4.5023 -1.0962,8.0734 4.1276,2.111 -0.6339,11.9446 5.4014,7.6956 7.068,-4.9761 -0.3243,9.8017 5.2386,5.9467 2.3486,-1.6276 4.4962,-3.0024 2.7227,1.2782 -0.9837,2.3744 6.5743,2.0566 1.5429,4.3973 -4.7011,2.187 4.2663,7.3906 4.1525,7.521 -3.5509,4.0674 -0.9603,9.2149 4.3862,6.9197 3.0196,-1.2963 -7.3251,6.6892 -0.9834,7.4793 3.1726,0.3953 3.2521,-2.0417 2.4249,3.1405 -0.8228,5.1544 8.6073,-1.0547 7.8542,-0.46 -5.1748,4.0863 -0.0231,8.5163 3.7037,4.4928 2.0421,-2.2047 1.5919,-4.8885 5.5103,-3.1637 3.5179,1.5485 2.0577,-2.0703 2.4281,2.1416 0.6337,7.2052 10.3234,-4.8935 7.6398,2.8511 -2.5066,7.2337 7.7043,2.2583 2.0276,8.5356 -4.7206,5.22 5.6713,1.4878 8.2027,1.1538 4.0727,-0.5373 -0.0348,-6.5105 3.248,-10.207 2.6518,-2.986 7.8885,-0.1179 2.2603,2.448 -2.6655,1.2152 6.7496,1.8812 1.3497,5.5075 -2.2691,1.5238 2.3527,8.0893 5.1016,3.9461 2.4702,-3.7231 3.7119,5.6971 5.2006,-0.6457 0.7837,-3.3391 1.3872,-3.06 5.1034,-4.2268 2.7406,-0.8605 -1.213,-6.1666 2.9285,-7.9319 5.6159,-2.3938 -5.1899,-8.9361 -0.2897,-10.8149 2.4976,-0.9576 6.0506,1.9475 6.2659,3.2943 0.8788,5.4975 2.1427,-0.4227 3.8073,0.9893 2.0245,1.7173 2.2984,6.6348 2.9954,1.1998 0.4273,-3.3318 -2.532,-8.7265 1.6087,-4.4067 5.037,5.255 2.0187,-4.7516 6.7406,-7.548 3.9023,-2.311 -5.9037,-7.694 -4.6325,-10.2765 0.5903,-1.1992 5.4177,-11.8778 6.5858,-12.3382"
         fill="#008f4c"
         fill-rule="evenodd"
         id="path9" />
      <path
         d="m 376.4894,444.5152 c -2.1576,-2.2267 5.7777,-2.8282 1.6761,-6.769 -5.2521,-5.0461 9.8549,-1.9583 7.448,-7.3475 -1.6954,-3.7961 -6.9462,-2.3175 -2.3072,-6.4693 4.8412,-4.3328 -5.8534,1.5283 -1.5067,-4.1379 4.0816,-5.3207 -7.4771,-1.3841 -2.6693,-8.1449 1.7069,-2.4002 -8.1034,0.2143 -5.9475,-5.6887 2.4672,-6.7551 -6.8299,-5.8024 -5.2041,-11.982 2.0047,-7.6199 -10.306,2.7907 -6.1419,-4.4334 2.9139,-5.0553 -0.5974,-3.5439 -4.1014,-4.8239 -2.8131,-1.0277 -4.0432,-7.4691 -6.1986,-1.4048 -2.7545,7.7499 -4.8537,-3.9624 -6.6405,-2.2203 -1.944,1.8954 -2.8407,8.7914 -3.8979,2.856 -0.4485,-2.5183 -6.6308,3.7156 -3.3795,-2.4472 2.5406,-4.8156 -7.6845,-1.924 -7.6495,-2.233 0.8202,-7.234 -4.7019,-6.9665 -7.2219,-1.0866 -0.8855,2.0662 -0.8084,-7.2195 -3.0341,-5.3666 -3.6553,3.0432 -1.8925,-2.5662 -4.7078,-2.5662 -3.2693,0 -6.5488,12.4619 -5.7115,4.3636 0.7638,-7.3877 -6.7193,-0.1106 -5.6681,4.533 0.4863,2.1481 -1.5947,-7.2383 -4.6393,-6.2728 -3.0959,0.9818 0.9188,14.5272 -1.1132,10.5782 -1.9943,-3.8758 -2.007,-4.5168 -3.6535,-5.2262 -3.5332,-1.5222 -4.1278,-2.4256 -6.0366,-0.8825 -2.7818,2.2489 -5.2749,10.3186 -4.6164,4.2852 0.8054,-7.3796 -5.1762,3.0895 -7.2394,4.972 -4.1663,3.8014 4.1942,4.8752 3.4416,10.4759 -0.5097,3.7932 -8.1952,6.516 -4.7511,0.7048 2.3497,-3.9647 -6.7829,3.5843 -3.8017,-3.6356 1.3857,-3.3559 -6.3828,-3.6865 -6.5293,1.4078 -0.1124,3.9093 -5.7556,-2.0085 -3.984,3.5811 1.0391,3.2784 0.4063,3.6271 -2.1768,7.2116 -1.8062,2.5065 4.6031,3.8836 1.6927,8.2944 -2.1976,3.3304 1.2639,3.8929 4.411,4.5101 1.9955,0.3914 2.7623,3.0809 -1.0322,3.4501 -3.1908,0.3105 -6.8074,-1.4207 -7.0115,0.5222 -0.642,6.1124 -4.1112,0.6044 -5.7009,2.6448 -2.3125,2.9681 8.7246,7.0829 1.4676,7.3475 -6.1587,0.2246 1.8146,4.8018 -1.3685,10.3766 -2.5344,4.4387 9.7994,1.9442 9.0838,5.1496 -0.2852,1.2772 -1.8141,1.6882 -2.4654,2.7951"
         fill="#008f4c"
         fill-rule="evenodd"
         id="path10" />
      <path
         d="m 365.4864,481.6729 c -1.718,-1.8925 4.5676,-2.4376 1.3347,-5.7533 -4.2159,-4.3239 7.8698,-1.6071 5.9297,-6.245 -1.2902,-3.0843 -5.5174,-1.9818 -1.8366,-5.4984 3.8676,-3.6951 -4.6581,1.2953 -1.1998,-3.5171 3.2524,-4.526 -5.899,-1.2574 -2.1252,-6.9227 1.3926,-2.0906 -6.4503,0.1757 -4.7359,-4.835 1.9666,-5.7475 -5.4379,-4.9305 -4.1431,-10.1839 1.5959,-6.4752 -8.2146,2.3878 -4.8904,-3.7682 2.311,-4.2797 -0.4936,-3.0188 -3.2654,-4.0998 -2.2815,-0.8898 -3.2217,-6.3413 -4.9355,-1.1942 -2.1955,6.5937 -3.8867,-3.3445 -5.2868,-1.8873 -1.5719,1.636 -2.2604,7.4835 -3.1038,2.4276 -0.3518,-2.1091 -5.2458,3.0891 -2.691,-2.0801 2.0477,-4.1432 -6.1183,-1.6353 -6.0905,-1.8978 0.653,-6.1485 -4.5575,-5.93 -6.5683,-0.9235 -0.7086,1.7643 1.1641,-9.7672 -2.392,-5.5927 -2.6275,3.0844 -1.1835,0.8744 -2.7156,-0.9055 -2.6706,-3.1026 -4.93,10.337 -4.2648,3.4646 0.6083,-6.2839 -5.8646,-0.0727 -5.0336,3.8526 0.3879,1.8325 0.2842,2.0516 -2.2083,2.8955 -2.606,0.8823 -0.7345,4.1609 -2.3719,0.764 -1.5602,-3.2367 -2.1455,1.7859 -3.652,3.7848 -1.8732,2.4854 -1.4698,-3.8602 -2.9491,-3.8839 -2.7726,-0.0443 -5.3132,3.6698 -4.7898,-1.4508 0.6415,-6.2764 -4.121,2.6255 -5.7641,4.2259 -3.3167,3.2306 2.2797,4.33 1.6863,9.0446 -0.4045,3.2137 -5.4389,5.3399 -2.7289,0.4585 1.896,-3.4151 -5.3738,2.9765 -3.0269,-3.09 1.1156,-2.8837 -5.0822,-3.1316 -5.1987,1.1964 -0.0893,3.3161 -4.5787,-1.6927 -3.1722,3.044 0.8307,2.7974 0.2449,3.1983 -1.7329,6.1292 -1.4456,2.1423 3.6253,3.3651 1.3476,7.05 -1.7807,2.8808 1.0041,3.3081 3.512,3.8332 1.6412,0.3436 2.2383,2.6146 -0.8216,2.9324 -2.6197,0.2721 -5.4242,-1.1689 -5.5828,0.4438 -0.511,5.1956 -3.3202,0.5783 -4.539,2.2481 -1.8882,2.5869 6.9472,6.0199 1.1686,6.2448 -4.909,0.1911 1.3577,4.2437 -1.0898,8.8195 -2.0515,3.8356 7.8043,1.6429 7.2326,4.3769 -0.2213,1.0581 -1.4444,1.4348 -1.963,2.3755"
         fill="#008f4c"
         fill-rule="evenodd"
         id="path11" />
      <path
         d="m 334.6575,677.1427 c 0.4472,6.3279 -0.2525,39.5051 0.0852,49.7106 0.3831,11.5772 0.2822,14.0371 13.0524,17.9191 6.5959,2.0051 10.91,-1.2939 14.8792,0.5072 6.067,2.753 10.0182,3.6218 16.296,1.9053 -3.0868,3.8997 -6.0002,4.4022 -18.4813,2.1367 -4.3049,-0.7814 -3.8155,2.415 -9.9885,2.1055 -4.449,-0.223 -7.573,-0.3626 -10.7898,-0.2459 -1.7563,-1.5871 -3.7168,-3.5216 -4.8842,-5.2869 1.1787,1.7663 3.1243,3.6949 4.8842,5.2869 11.6534,10.5404 6.3369,11.2418 27.7691,15.0002 -4.5613,1.3477 -9.6828,2.026 -16.8231,-0.4303 -0.1618,5.3247 4.5042,12.5951 -5.9965,17.4668 8.9207,-13.0898 -5.7591,-25.8632 -15.4788,-34.4189 -0.3968,14.8973 14.5459,12.5731 -2.8533,40.4512 1.2993,-13.6364 10.354,-17.0828 -2.4277,-33.7196 -1.4205,-1.849 -2.3158,-4.7189 -3.9004,-7.746 0.5191,5.6477 -2.2884,6.2119 2.9118,15.6917 3.2592,5.9412 -3.7152,7.027 -9.1702,10.1128 -6.1428,3.4748 -0.5333,9.8007 -0.0702,15.661 -2.3293,-4.2119 -15.1295,-16.8728 -0.4893,-22.7308 5.1888,-2.0762 0.9505,-6.6619 -1.1836,-9.1138 -1.8854,-2.1661 -2.5372,-4.3281 -2.7596,-6.0832 -0.2866,-2.2609 1.1493,-4.8007 2.2914,-6.7653 -1.1363,1.9593 -2.5843,4.4892 -2.2914,6.7653 -3.3185,3.2725 -7.3476,7.6498 -9.6365,11.1395 -4.3146,6.5785 -9.9158,15.4691 -6.525,20.7559 -6.7359,-7.4337 -3.7689,-13.5457 2.3367,-22.7693 -6.6321,-2.4472 -14.0648,6.3327 -21.7111,4.9335 -1.7767,-0.3252 -4.8206,-2.7873 -8.1036,-5.7327 12.3968,5.2469 18.5385,-4.1668 24.5856,-4.9488 8.4374,-1.0912 2.148,2.2744 10.6773,-6.0552 -9.4593,2.701 -8.9769,-0.6396 -17.1533,-0.046 -4.0768,0.2962 -6.5793,2.8054 -22.6783,-1.415 10.518,0.2812 17.2228,-3.3149 20.0312,-3.7336 21.2128,-3.1626 23.1912,-1.749 24.196,-16.5975 0.6243,-9.2252 -0.9938,-34.6077 1.1037,-44.5656 0.594,-14.8261 -0.6156,-51.5343 -0.2308,-65.6859 0.1174,-4.3159 -0.3519,-9.0516 -1.0811,-11.3401 -0.9741,-3.0573 -2.0269,-4.2142 -2.747,-6.825 0.1904,-3.3438 -0.5104,-6.7343 -1.221,-11.7889 -1.3831,-9.8376 -11.8116,-16.3611 -21.5842,-19.7366 -8.0077,8.5977 -16.1361,10.8395 -28.0899,13.9162 L 250.5,577.008 c 13.1869,-5.4435 20.4294,-7.2448 22.9478,-17.2504 -2.9385,-6.243 -4.9224,-12.0644 -6.8353,-18.5087 l 3.5476,-1.1008 c 3.9807,4.2269 7.4545,14.2044 10.9133,19.1163 5.9915,1.1857 18.1485,8.3793 21.6722,9.5837 0.6394,-1.0523 1.6528,-12.1866 3.6488,-18.4894 0.8951,-2.8263 -7.794,-9.8479 -9.7748,-11.479 -2.1756,-1.7912 -4.4806,-3.6463 -6.5771,-5.9479 l 2.8068,-1.6817 c 2.7333,2.597 14.5039,10.6186 15.8563,10.47 3.3298,-4.3283 13.686,-10.3738 17.2679,-10.47 l 1.9433,2.7058 c -0.6954,0.51 -13.262,8.3592 -13.6659,11.6436 -0.8061,6.5525 -0.4619,12.3688 -1.8842,14.282 -0.7976,1.0726 -1.6521,12.1323 -0.8271,13.22 2.2164,2.9221 6.0896,6.0198 8.4605,8.1046 -1.52,3.6589 -3.3571,7.3987 -3.1095,12.226 -0.2485,-4.8177 1.5804,-8.5686 3.1095,-12.226 2.1931,-5.245 5.6333,-12.1142 7.3409,-15.0927 1.4952,-2.6082 3.9372,-6.2255 6.6542,-9.917 0.1625,-1.0382 -3.012,-10.2394 -2.9979,-11.6798 l 3.6668,-1.7271 c 1.5119,1.611 3.8808,6.6713 4.8209,6.9775 5.1604,-4.1942 8.4129,-10.1833 11.9915,-12.2978 l 3.7124,3.0041 c -5.9134,5.3056 -19.2285,22.3482 -22.0517,31.0546 -0.9147,2.8208 -0.4299,6.2363 -0.7048,11.1371 2.8416,0.018 12.0524,-5.122 17.5127,-9.4948 1.9035,-1.5244 9.5228,-17.418 19.2059,-21.6196 l 3.9235,1.3973 c -1.5732,1.4658 -14.8458,14.3629 -9.8925,16.1798 3.845,1.4103 24.0549,-0.4376 25.2527,0.6628 l 1.0655,2.967 c -4.3698,1.355 -24.6408,1.2696 -31.6797,4.2995 -9.1546,3.9408 -19.6523,14.53 -22.6279,17.7861 -1.9422,2.1252 -1.3133,3.9864 -1.6975,6.7893 -0.6626,4.8341 0.0723,12.0762 0.2734,14.9692 0.6254,8.9977 -0.3912,42.3978 0.8891,60.541 z"
         fill="#c87137"
         id="path12" />
    </g>
    <g
       id="g15">
      <path
         d="m 313.6429,339.2093 c -4.3943,2.3679 -10.283,4.1772 -15.168,3.7974 5.5765,-4.1772 11.2645,-8.2203 11.2645,-17.312 0,-8.2875 -8.2978,-16.4186 -13.7181,-16.4186 -3.7474,0 -6.4909,4.6686 0.7807,11.9509 -15.391,-1.586 -21.302,-11.3924 -21.302,-19.7693 0,-23.254 38.3659,-14.6315 38.3659,21.5564 h 2.119 c 0,-19.4789 -11.1528,-28.6823 -11.1528,-42.4426 0,-8.6002 3.9258,-17.2005 15.1679,-29.8215 11.2421,12.621 15.1679,21.2213 15.1679,29.8215 0,13.7603 -11.1528,22.9637 -11.1528,42.4426 h 2.119 c 0,-36.1879 38.3659,-44.8104 38.3659,-21.5564 0,8.3769 -5.911,18.1833 -21.302,19.7693 7.2716,-7.2823 4.5281,-11.9509 0.7807,-11.9509 -5.4203,0 -13.7181,8.1311 -13.7181,16.4186 0,9.0917 5.688,13.1348 11.2645,17.312 -4.885,0.3798 -10.7737,-1.4295 -15.168,-3.7974 0,6.5898 -1.4275,14.1177 -6.3571,18.5407 -4.9296,-4.423 -6.3571,-11.9509 -6.3571,-18.5407 z"
         fill="#0071bc"
         id="path13" />
      <path
         d="m 320,250.75 v 107"
         fill="none"
         id="path14" />
      <path
         d="m 300.8171,322.4779 v 6.4334 h 38.3658 v -6.4334 z"
         fill="#0071bc"
         id="path15" />
    </g>
    <g
       id="g18">
      <path
         d="m 133.8929,440.9593 c -4.3943,2.3679 -10.283,4.1772 -15.168,3.7974 5.5765,-4.1772 11.2645,-8.2203 11.2645,-17.312 0,-8.2875 -8.2978,-16.4186 -13.7181,-16.4186 -3.7474,0 -6.4909,4.6686 0.7807,11.9509 -15.391,-1.586 -21.302,-11.3924 -21.302,-19.7693 0,-23.254 38.3659,-14.6315 38.3659,21.5564 h 2.119 c 0,-19.4789 -11.1528,-28.6823 -11.1528,-42.4426 0,-8.6002 3.9258,-17.2005 15.1679,-29.8215 11.2421,12.621 15.1679,21.2213 15.1679,29.8215 0,13.7603 -11.1528,22.9637 -11.1528,42.4426 h 2.119 c 0,-36.1879 38.3659,-44.8104 38.3659,-21.5564 0,8.3769 -5.911,18.1833 -21.302,19.7693 7.2716,-7.2823 4.5281,-11.9509 0.7807,-11.9509 -5.4203,0 -13.7181,8.1311 -13.7181,16.4186 0,9.0917 5.688,13.1348 11.2645,17.312 -4.885,0.3798 -10.7737,-1.4295 -15.168,-3.7974 0,6.5898 -1.4275,14.1177 -6.3571,18.5407 -4.9296,-4.423 -6.3571,-11.9509 -6.3571,-18.5407 z"
         fill="#0071bc"
         id="path16" />
      <path
         d="m 140.25,352.5 v 107"
         fill="none"
         id="path17" />
      <path
         d="m 121.0671,424.2279 v 6.4334 h 38.3658 v -6.4334 z"
         fill="#0071bc"
         id="path18" />
    </g>
    <g
       id="g21">
      <path
         d="m 133.8929,650.9593 c -4.3943,2.3679 -10.283,4.1772 -15.168,3.7974 5.5765,-4.1772 11.2645,-8.2203 11.2645,-17.312 0,-8.2875 -8.2978,-16.4186 -13.7181,-16.4186 -3.7474,0 -6.4909,4.6686 0.7807,11.9509 -15.391,-1.586 -21.302,-11.3924 -21.302,-19.7693 0,-23.254 38.3659,-14.6315 38.3659,21.5564 h 2.119 c 0,-19.4789 -11.1528,-28.6823 -11.1528,-42.4426 0,-8.6002 3.9258,-17.2005 15.1679,-29.8215 11.2421,12.621 15.1679,21.2213 15.1679,29.8215 0,13.7603 -11.1528,22.9637 -11.1528,42.4426 h 2.119 c 0,-36.1879 38.3659,-44.8104 38.3659,-21.5564 0,8.3769 -5.911,18.1833 -21.302,19.7693 7.2716,-7.2823 4.5281,-11.9509 0.7807,-11.9509 -5.4203,0 -13.7181,8.1311 -13.7181,16.4186 0,9.0917 5.688,13.1348 11.2645,17.312 -4.885,0.3798 -10.7737,-1.4295 -15.168,-3.7974 0,6.5898 -1.4275,14.1177 -6.3571,18.5407 -4.9296,-4.423 -6.3571,-11.9509 -6.3571,-18.5407 z"
         fill="#0071bc"
         id="path19" />
      <path
         d="m 140.25,562.5 v 107"
         fill="none"
         id="path20" />
      <path
         d="m 121.0671,634.2279 v 6.4334 h 38.3658 v -6.4334 z"
         fill="#0071bc"
         id="path21" />
    </g>
    <g
       id="g24">
      <path
         d="m 493.3929,650.9593 c -4.3943,2.3679 -10.283,4.1772 -15.168,3.7974 5.5765,-4.1772 11.2645,-8.2203 11.2645,-17.312 0,-8.2875 -8.2978,-16.4186 -13.7181,-16.4186 -3.7474,0 -6.4909,4.6686 0.7807,11.9509 -15.391,-1.586 -21.302,-11.3924 -21.302,-19.7693 0,-23.254 38.3659,-14.6315 38.3659,21.5564 h 2.119 c 0,-19.4789 -11.1528,-28.6823 -11.1528,-42.4426 0,-8.6002 3.9258,-17.2005 15.1679,-29.8215 11.2421,12.621 15.1679,21.2213 15.1679,29.8215 0,13.7603 -11.1528,22.9637 -11.1528,42.4426 h 2.119 c 0,-36.1879 38.3659,-44.8104 38.3659,-21.5564 0,8.3769 -5.911,18.1833 -21.302,19.7693 7.2716,-7.2823 4.5281,-11.9509 0.7807,-11.9509 -5.4203,0 -13.7181,8.1311 -13.7181,16.4186 0,9.0917 5.688,13.1348 11.2645,17.312 -4.885,0.3798 -10.7737,-1.4295 -15.168,-3.7974 0,6.5898 -1.4275,14.1177 -6.3571,18.5407 -4.9296,-4.423 -6.3571,-11.9509 -6.3571,-18.5407 z"
         fill="#0071bc"
         id="path22" />
      <path
         d="m 499.75,562.5 v 107"
         fill="none"
         id="path23" />
      <path
         d="m 480.5671,634.2279 v 6.4334 h 38.3658 v -6.4334 z"
         fill="#0071bc"
         id="path24" />
    </g>
    <g
       id="g27">
      <path
         d="m 493.3929,440.9593 c -4.3943,2.3679 -10.283,4.1772 -15.168,3.7974 5.5765,-4.1772 11.2645,-8.2203 11.2645,-17.312 0,-8.2875 -8.2978,-16.4186 -13.7181,-16.4186 -3.7474,0 -6.4909,4.6686 0.7807,11.9509 -15.391,-1.586 -21.302,-11.3924 -21.302,-19.7693 0,-23.254 38.3659,-14.6315 38.3659,21.5564 h 2.119 c 0,-19.4789 -11.1528,-28.6823 -11.1528,-42.4426 0,-8.6002 3.9258,-17.2005 15.1679,-29.8215 11.2421,12.621 15.1679,21.2213 15.1679,29.8215 0,13.7603 -11.1528,22.9637 -11.1528,42.4426 h 2.119 c 0,-36.1879 38.3659,-44.8104 38.3659,-21.5564 0,8.3769 -5.911,18.1833 -21.302,19.7693 7.2716,-7.2823 4.5281,-11.9509 0.7807,-11.9509 -5.4203,0 -13.7181,8.1311 -13.7181,16.4186 0,9.0917 5.688,13.1348 11.2645,17.312 -4.885,0.3798 -10.7737,-1.4295 -15.168,-3.7974 0,6.5898 -1.4275,14.1177 -6.3571,18.5407 -4.9296,-4.423 -6.3571,-11.9509 -6.3571,-18.5407 z"
         fill="#0071bc"
         id="path25" />
      <path
         d="m 499.75,352.5 v 107"
         fill="none"
         id="path26" />
      <path
         d="m 480.5671,424.2279 v 6.4334 h 38.3658 v -6.4334 z"
         fill="#0071bc"
         id="path27" />
    </g>
  </g>
  <path
     d="M 1.5,1.5 V 350 C 1.5,487.172 112.828,598.5 250,598.5 387.172,598.5 498.5,487.172 498.5,350 V 1.5 Z"
     fill="none"
     stroke="#000000"
     stroke-linecap="round"
     stroke-linejoin="round"
     stroke-width="3"
     id="path28" />
</svg>
