<?xml version="1.0" encoding="UTF-8" standalone="no"?>
<svg
   viewBox="0 0 640 640"
   version="1.1"
   id="svg173"
   sodipodi:docname="armarria_Zestoa.svg"
   width="640"
   height="640"
   inkscape:version="1.3.2 (091e20ef0f, 2023-11-25)"
   xmlns:inkscape="http://www.inkscape.org/namespaces/inkscape"
   xmlns:sodipodi="http://sodipodi.sourceforge.net/DTD/sodipodi-0.dtd"
   xmlns="http://www.w3.org/2000/svg"
   xmlns:svg="http://www.w3.org/2000/svg">
  <defs
     id="defs173" />
  <sodipodi:namedview
     id="namedview173"
     pagecolor="#ffffff"
     bordercolor="#000000"
     borderopacity="0.25"
     inkscape:showpageshadow="2"
     inkscape:pageopacity="0.0"
     inkscape:pagecheckerboard="0"
     inkscape:deskcolor="#d1d1d1"
     inkscape:zoom="0.63359375"
     inkscape:cx="-70.234279"
     inkscape:cy="286.46116"
     inkscape:window-width="1920"
     inkscape:window-height="1008"
     inkscape:window-x="0"
     inkscape:window-y="0"
     inkscape:window-maximized="1"
     inkscape:current-layer="svg173" />
  <g
     stroke="#000000"
     stroke-linecap="round"
     stroke-linejoin="round"
     id="g3">
    <path
       d="m 0.5,0.5 v 474.25 c 0,68.898 55.852,124.75 124.75,124.75 h 62.375 c 27.289,0 50.92,17.163 62.375,40 11.455,-22.837 35.086,-40 62.375,-40 h 62.375 c 68.898,0 124.75,-55.852 124.75,-124.75 V 0.5 Z"
       fill="#0071bc"
       id="path1" />
    <path
       d="M 0.5,0.5 V 300 h 499 V 0.5 Z"
       fill="#ed1c24"
       id="path2" />
    <path
       d="M 250,0.5 V 300"
       fill="none"
       id="path3" />
  </g>
  <g
     stroke-linecap="round"
     stroke-linejoin="round"
     id="g173">
    <g
       stroke="#000000"
       id="g130">
      <path
         d="M 181.978,89.632 V 73.597 c 0,-3.18 -2.555,-5.741 -5.728,-5.741 -3.173,0 -5.728,2.56 -5.728,5.741 V 89.632 Z M 152.75,50.75 h 9.4 v 5.043 h 9.4 V 50.75 h 9.4 v 5.043 h 9.4 V 50.75 h 9.4 v 10.086 l -6.714,4.258 V 129.75 H 159.464 V 65.094 l -6.714,-4.258 z"
         fill="#eac102"
         fill-rule="evenodd"
         id="path4" />
      <path
         d="m 152.75,60.836 h 47"
         fill="none"
         id="path5" />
      <path
         d="m 159.464,65.094 h 33.572"
         fill="none"
         id="path6" />
      <path
         d="m 159.464,92.394 h 33.572"
         fill="none"
         id="path7" />
      <path
         d="m 159.464,101.494 h 33.572"
         fill="none"
         id="path8" />
      <path
         d="m 159.464,74.194 h 11.058"
         fill="none"
         id="path9" />
      <path
         d="m 186.125,74.194 v 9.1"
         fill="none"
         id="path10" />
      <path
         d="m 166.375,74.194 v 9.1"
         fill="none"
         id="path11" />
      <path
         d="m 176.25,65.094 v 2.762"
         fill="none"
         id="path12" />
      <path
         d="m 176.25,89.632 v 2.762"
         fill="none"
         id="path13" />
      <path
         d="m 186.125,92.394 v 9.1"
         fill="none"
         id="path14" />
      <path
         d="m 166.375,92.394 v 9.1"
         fill="none"
         id="path15" />
      <path
         d="m 181.978,74.194 h 11.058"
         fill="none"
         id="path16" />
      <path
         d="m 159.464,83.294 h 11.058"
         fill="none"
         id="path17" />
      <path
         d="m 181.978,83.294 h 11.058"
         fill="none"
         id="path18" />
      <path
         d="m 176.25,101.494 v 9.1"
         fill="none"
         id="path19" />
      <path
         d="m 159.464,110.594 h 33.572"
         fill="none"
         id="path20" />
      <path
         d="m 186.125,110.594 v 9.1"
         fill="none"
         id="path21" />
      <path
         d="m 166.375,110.594 v 9.1"
         fill="none"
         id="path22" />
      <path
         d="M 181.978,89.632 V 73.597 c 0,-3.18 -2.555,-5.741 -5.728,-5.741 -3.173,0 -5.728,2.56 -5.728,5.741 v 16.035 z"
         fill-rule="evenodd"
         id="path23" />
      <path
         d="M 79.978,89.632 V 73.597 c 0,-3.18 -2.555,-5.741 -5.728,-5.741 -3.173,0 -5.728,2.56 -5.728,5.741 V 89.632 Z M 50.75,50.75 h 9.4 v 5.043 h 9.4 V 50.75 h 9.4 v 5.043 h 9.4 V 50.75 h 9.4 v 10.086 l -6.714,4.258 V 129.75 H 57.464 V 65.094 L 50.75,60.836 Z"
         fill="#eac102"
         fill-rule="evenodd"
         id="path24" />
      <path
         d="m 50.75,60.836 h 47"
         fill="none"
         id="path25" />
      <path
         d="M 57.464,65.094 H 91.036"
         fill="none"
         id="path26" />
      <path
         d="M 57.464,92.394 H 91.036"
         fill="none"
         id="path27" />
      <path
         d="M 57.464,101.494 H 91.036"
         fill="none"
         id="path28" />
      <path
         d="M 57.464,74.194 H 68.522"
         fill="none"
         id="path29" />
      <path
         d="m 84.125,74.194 v 9.1"
         fill="none"
         id="path30" />
      <path
         d="m 64.375,74.194 v 9.1"
         fill="none"
         id="path31" />
      <path
         d="m 74.25,65.094 v 2.762"
         fill="none"
         id="path32" />
      <path
         d="m 74.25,89.632 v 2.762"
         fill="none"
         id="path33" />
      <path
         d="m 84.125,92.394 v 9.1"
         fill="none"
         id="path34" />
      <path
         d="m 64.375,92.394 v 9.1"
         fill="none"
         id="path35" />
      <path
         d="M 79.978,74.194 H 91.036"
         fill="none"
         id="path36" />
      <path
         d="M 57.464,83.294 H 68.522"
         fill="none"
         id="path37" />
      <path
         d="M 79.978,83.294 H 91.036"
         fill="none"
         id="path38" />
      <path
         d="m 74.25,101.494 v 9.1"
         fill="none"
         id="path39" />
      <path
         d="M 57.464,110.594 H 91.036"
         fill="none"
         id="path40" />
      <path
         d="m 84.125,110.594 v 9.1"
         fill="none"
         id="path41" />
      <path
         d="m 64.375,110.594 v 9.1"
         fill="none"
         id="path42" />
      <path
         d="M 79.978,89.632 V 73.597 c 0,-3.18 -2.555,-5.741 -5.728,-5.741 -3.173,0 -5.728,2.56 -5.728,5.741 v 16.035 z"
         fill-rule="evenodd"
         id="path43" />
      <path
         d="M 130.978,69.632 V 53.597 c 0,-3.18 -2.555,-5.741 -5.728,-5.741 -3.173,0 -5.728,2.56 -5.728,5.741 V 69.632 Z M 101.75,30.75 h 9.4 v 5.043 h 9.4 V 30.75 h 9.4 v 5.043 h 9.4 V 30.75 h 9.4 v 10.086 l -6.714,4.258 V 109.75 H 108.464 V 45.094 l -6.714,-4.258 z"
         fill="#eac102"
         fill-rule="evenodd"
         id="path44" />
      <path
         d="m 101.75,40.836 h 47"
         fill="none"
         id="path45" />
      <path
         d="m 108.464,45.094 h 33.572"
         fill="none"
         id="path46" />
      <path
         d="m 108.464,72.394 h 33.572"
         fill="none"
         id="path47" />
      <path
         d="m 108.464,81.494 h 33.572"
         fill="none"
         id="path48" />
      <path
         d="m 108.464,54.194 h 11.058"
         fill="none"
         id="path49" />
      <path
         d="m 135.125,54.194 v 9.1"
         fill="none"
         id="path50" />
      <path
         d="m 115.375,54.194 v 9.1"
         fill="none"
         id="path51" />
      <path
         d="m 125.25,45.094 v 2.762"
         fill="none"
         id="path52" />
      <path
         d="m 125.25,69.632 v 2.762"
         fill="none"
         id="path53" />
      <path
         d="m 135.125,72.394 v 9.1"
         fill="none"
         id="path54" />
      <path
         d="m 115.375,72.394 v 9.1"
         fill="none"
         id="path55" />
      <path
         d="m 130.978,54.194 h 11.058"
         fill="none"
         id="path56" />
      <path
         d="m 108.464,63.294 h 11.058"
         fill="none"
         id="path57" />
      <path
         d="m 130.978,63.294 h 11.058"
         fill="none"
         id="path58" />
      <path
         d="m 125.25,81.494 v 9.1"
         fill="none"
         id="path59" />
      <path
         d="m 108.464,90.594 h 33.572"
         fill="none"
         id="path60" />
      <path
         d="m 135.125,90.594 v 9.1"
         fill="none"
         id="path61" />
      <path
         d="m 115.375,90.594 v 9.1"
         fill="none"
         id="path62" />
      <path
         d="M 130.978,69.632 V 53.597 c 0,-3.18 -2.555,-5.741 -5.728,-5.741 -3.173,0 -5.728,2.56 -5.728,5.741 v 16.035 z"
         fill-rule="evenodd"
         id="path63" />
      <path
         d="m 170.2,182.75 v -24.3 c 0,-4.82 -3.88,-8.7 -8.7,-8.7 -4.82,0 -8.7,3.88 -8.7,8.7 v 24.3 z m -72.5,0 v -24.3 c 0,-4.82 -3.88,-8.7 -8.7,-8.7 -4.82,0 -8.7,3.88 -8.7,8.7 v 24.3 z m 117.05,87 v -41.4 l -17,-13.8 v -82.8 l 12,-7.6 v -28 h -29.8 v 14 h -33.8 v -14 h -41.8 v 14 h -33.8 v -14 h -29.8 v 28 l 12,7.6 v 82.8 l -17,13.8 v 41.4 h 73 v -35.1 c 0,-9.141 7.359,-16.5 16.5,-16.5 9.141,0 16.5,7.359 16.5,16.5 v 35.1 z"
         fill="#eac102"
         fill-rule="evenodd"
         id="path64" />
      <path
         d="m 40.75,124.15 h 169"
         fill="none"
         id="path65" />
      <path
         d="m 51.375,255.95 v 13.8"
         fill="none"
         id="path66" />
      <path
         d="m 97.7,159.35 h 55.1"
         fill="none"
         id="path67" />
      <path
         d="m 35.75,242.15 h 62.5"
         fill="none"
         id="path68" />
      <path
         d="m 152.25,255.95 h 62.5"
         fill="none"
         id="path69" />
      <path
         d="m 67,242.15 v 13.8"
         fill="none"
         id="path70" />
      <path
         d="m 51.375,228.35 v 13.8"
         fill="none"
         id="path71" />
      <path
         d="m 82.625,228.35 v 13.8"
         fill="none"
         id="path72" />
      <path
         d="m 82.625,255.95 v 13.8"
         fill="none"
         id="path73" />
      <path
         d="M 152.8,173.15 H 97.7"
         fill="none"
         id="path74" />
      <path
         d="m 197.75,186.95 h -145"
         fill="none"
         id="path75" />
      <path
         d="m 197.75,200.75 h -145"
         fill="none"
         id="path76" />
      <path
         d="m 125.25,145.55 v 13.8"
         fill="none"
         id="path77" />
      <path
         d="m 161.5,182.75 v 4.2"
         fill="none"
         id="path78" />
      <path
         d="m 125.25,173.15 v 13.8"
         fill="none"
         id="path79" />
      <path
         d="m 89,182.75 v 4.2"
         fill="none"
         id="path80" />
      <path
         d="m 70.875,131.75 v 13.8"
         fill="none"
         id="path81" />
      <path
         d="m 179.625,131.75 v 13.8"
         fill="none"
         id="path82" />
      <path
         d="m 107.125,131.75 v 13.8"
         fill="none"
         id="path83" />
      <path
         d="m 143.375,131.75 v 13.8"
         fill="none"
         id="path84" />
      <path
         d="m 125.25,200.75 v 6.9"
         fill="none"
         id="path85" />
      <path
         d="m 199.125,255.95 v 13.8"
         fill="none"
         id="path86" />
      <path
         d="m 183.5,242.15 v 13.8"
         fill="none"
         id="path87" />
      <path
         d="m 199.125,228.35 v 13.8"
         fill="none"
         id="path88" />
      <path
         d="m 167.875,228.35 v 13.8"
         fill="none"
         id="path89" />
      <path
         d="m 167.875,255.95 v 13.8"
         fill="none"
         id="path90" />
      <path
         d="M 106.95,214.55 H 52.75"
         fill="none"
         id="path91" />
      <path
         d="m 35.75,228.35 h 63.1"
         fill="none"
         id="path92" />
      <path
         d="m 152.25,242.15 h 62.5"
         fill="none"
         id="path93" />
      <path
         d="m 35.75,255.95 h 62.5"
         fill="none"
         id="path94" />
      <path
         d="m 143.55,214.55 h 54.2"
         fill="none"
         id="path95" />
      <path
         d="m 214.75,228.35 h -63.1"
         fill="none"
         id="path96" />
      <path
         d="m 98.25,258.05 h 10.5"
         fill="none"
         id="path97" />
      <path
         d="m 98.25,234.65 h 10.5"
         fill="none"
         id="path98" />
      <path
         d="m 141.75,234.65 h 10.5"
         fill="none"
         id="path99" />
      <path
         d="m 103.406,218.78 8.495,6.172"
         fill="none"
         id="path100" />
      <path
         d="m 116.906,208.971 3.245,9.986"
         fill="none"
         id="path101" />
      <path
         d="m 147.094,218.78 -8.495,6.172"
         fill="none"
         id="path102" />
      <path
         d="m 133.594,208.971 -3.245,9.986"
         fill="none"
         id="path103" />
      <path
         d="m 98.25,246.35 h 10.5"
         fill="none"
         id="path104" />
      <path
         d="m 141.75,246.35 h 10.5"
         fill="none"
         id="path105" />
      <path
         d="m 141.75,258.05 h 10.5"
         fill="none"
         id="path106" />
      <path
         d="m 98.25,269.75 v -35.1 c 0,-14.958 12.042,-27 27,-27 14.958,0 27,12.042 27,27 v 35.1"
         fill="none"
         id="path107" />
      <path
         d="m 52.75,131.75 h 145"
         fill="none"
         id="path108" />
      <path
         d="m 52.75,145.55 h 145"
         fill="none"
         id="path109" />
      <path
         d="m 70.875,159.35 v 13.8"
         fill="none"
         id="path110" />
      <path
         d="m 179.625,159.35 v 13.8"
         fill="none"
         id="path111" />
      <path
         d="m 107.125,159.35 v 13.8"
         fill="none"
         id="path112" />
      <path
         d="m 143.375,159.35 v 13.8"
         fill="none"
         id="path113" />
      <path
         d="m 161.5,145.55 v 4.2"
         fill="none"
         id="path114" />
      <path
         d="m 89,145.55 v 4.2"
         fill="none"
         id="path115" />
      <path
         d="m 70.875,186.95 v 13.8"
         fill="none"
         id="path116" />
      <path
         d="m 179.625,186.95 v 13.8"
         fill="none"
         id="path117" />
      <path
         d="m 107.125,186.95 v 13.8"
         fill="none"
         id="path118" />
      <path
         d="m 143.375,186.95 v 13.8"
         fill="none"
         id="path119" />
      <path
         d="m 161.5,200.75 v 13.8"
         fill="none"
         id="path120" />
      <path
         d="m 89,200.75 v 13.8"
         fill="none"
         id="path121" />
      <path
         d="m 70.875,214.55 v 13.8"
         fill="none"
         id="path122" />
      <path
         d="m 179.625,214.55 v 13.8"
         fill="none"
         id="path123" />
      <path
         d="M 52.75,159.35 H 80.3"
         fill="none"
         id="path124" />
      <path
         d="M 80.3,173.15 H 52.75"
         fill="none"
         id="path125" />
      <path
         d="m 170.2,159.35 h 27.55"
         fill="none"
         id="path126" />
      <path
         d="M 197.75,173.15 H 170.2"
         fill="none"
         id="path127" />
      <path
         d="m 108.75,234.65 c 0,-9.141 7.359,-16.5 16.5,-16.5 9.141,0 16.5,7.359 16.5,16.5 v 35.1 h -33 z"
         fill-rule="evenodd"
         id="path128" />
      <path
         d="m 97.7,182.75 v -24.3 c 0,-4.82 -3.88,-8.7 -8.7,-8.7 -4.82,0 -8.7,3.88 -8.7,8.7 v 24.3 z"
         fill-rule="evenodd"
         id="path129" />
      <path
         d="m 170.2,182.75 v -24.3 c 0,-4.82 -3.88,-8.7 -8.7,-8.7 -4.82,0 -8.7,3.88 -8.7,8.7 v 24.3 z"
         fill-rule="evenodd"
         id="path130" />
    </g>
    <g
       id="g162">
      <path
         d="m 439.2773,30.75 c -1.1471,3.1397 1.9888,8.0199 2.1136,9.5 l -4.758,5.4 c -3.0696,-3.4152 -5.6852,-13.5189 2.6444,-14.9 z"
         fill="#eac102"
         stroke="#000000"
         id="path131" />
      <path
         d="m 470.1759,33.45 c -3.6043,0.4176 -8.344,4.8415 -8.7258,8.9 l -6.1827,-5.2 c 1.3694,-2.7475 5.4806,-6.4 9.6155,-6.4 1.8577,0 3.9518,0.8954 5.293,2.7 z"
         fill="#eac102"
         stroke="#000000"
         id="path132" />
      <path
         d="m 473.3501,61.426 c -2.7239,-2.0215 -5.8501,-2.676 -10.4,-2.6919 l 1.4,-6.4 c 3.4754,-0.3317 9.9,2.6318 9.9,6.653 0,0.7808 -0.3,1.5993 -0.9,2.4389 z"
         fill="#eac102"
         stroke="#000000"
         id="path133" />
      <path
         d="m 464.9877,76.3284 c -3.5461,-0.9969 -6.0251,-3.1167 -8.6813,-6.6729 l -5.3994,4.7115 c 2.0263,3.479 11.2184,7.7207 14.0807,1.9614 z"
         fill="#eac102"
         stroke="#000000"
         id="path134" />
      <path
         d="m 397.5571,91.69 c 33.0046,-15.3758 34.1564,-34.1734 43.1104,-36.5726 4.1647,-1.1159 6.6127,-3.4763 6.9924,-6.6909 -0.3763,3.2052 -2.8314,5.576 -6.9924,6.6909 1.6817,-0.4506 4.2524,-1.5513 4.2524,-2.7352 0,-2.8114 -11.9053,-2.5724 -11.9053,-8.1428 0,-2.8117 3.7647,-4.9451 4.5368,-5.1424 0.6785,-0.7763 4.1232,-3.3641 6.9613,-3.3641 4.5292,0 1.0139,6.351 4.2907,9.1086 2.3157,-4.7542 0.8529,-11.3033 6.7048,-11.3033 1.8671,0 4.3093,1.8306 5.2417,3.2113 1.1612,0.7217 3.5831,2.9218 3.5831,4.7739 0,5.8693 -10.4658,4.9926 -10.4658,7.5815 0,1.4852 1.6106,2.0109 2.7588,2.0109 1.9279,0 4.2432,-1.3634 6.2309,-1.3634 4.8641,0 4.7859,11.0684 -0.9438,11.0684 -3.8847,0 -11.2473,-4.246 -11.2473,-1.0196 0,3.4011 -1.1582,6.637 3.7522,6.637 2.7938,0 3.6096,2.1859 3.6096,3.1513 0,1.5653 -2.2284,3.0156 -3.1695,3.8289 -0.6928,1.0368 -1.622,4.7357 -3.9427,4.7357 -2.3053,0 -2.7353,-3.8361 -4.8425,-3.8361 -1.3989,0 -3.0702,2.5803 -3.0702,4.0848 0,2.0732 1.2643,4.3931 1.2643,6.6538 0,2.1296 -1.4508,4.4931 -2.0644,4.4931 -0.6894,0 -2.115,-7.3121 -4.032,-7.3121 -1.3958,0 0.7034,12.5992 -2.7332,12.5992 -2.2351,0 -2.1102,-6.3824 -2.8944,-6.3824 -1.686,0 -0.5735,11.2456 -2.5113,11.2456 -1.1914,0 -3.5714,-4.9391 -4.0677,-4.9391 -0.926,0 -0.4976,10.0445 -2.6926,10.0445 -1.2089,0 -2.8127,-4.043 -3.6805,-4.043 -1.9019,0 1.1378,8.4568 -1.1819,8.4568 -1.2241,0 -3.8943,-4.1678 -4.6326,-4.1678 -0.3444,0 -2.8521,5.2853 -4.1594,8.0459 l -12.0597,-6.6846 z"
         fill="#eac102"
         stroke="#000007"
         id="path135" />
      <path
         d="m 406.9099,44.3365 c 0,-3.3826 -2.4194,-6.3435 -5.9251,-6.3435 -4.0869,0 -6.7474,2.7959 -6.7474,7.0462 0,6.3431 5.9749,3.462 5.9747,-1.5936 0,15.9201 -28.5674,4.6583 -40.9224,19.9467 8.9044,-8.316 47.6202,-1.007 47.6202,-19.0558 z"
         fill="#eac102"
         stroke="#000000"
         id="path136" />
      <path
         d="m 333.479,242.5497 -3.2256,-5.1318 c 2.9367,-3.5966 12.0911,-3.9867 15.3056,1.9626 -4.9066,-1.3571 -11.2824,2.4065 -12.08,3.1692 z"
         fill="#eac102"
         stroke="#000000"
         id="path137" />
      <path
         d="m 338.9894,254.2672 -0.1082,-6.1877 c 3.8956,-1.001 10.504,2.7752 10.8243,8.9417 -2.2137,-2.8969 -9.7718,-2.871 -10.7161,-2.754 z"
         fill="#eac102"
         stroke="#000000"
         id="path138" />
      <path
         d="m 326.621,269.75 c 0.7824,-4.4273 -3.0517,-7.2528 -4.4398,-8.3917 l 6.3239,-3.6858 c 3.3261,2.8477 3.8263,8.7437 -1.8841,12.0775 z"
         fill="#eac102"
         stroke="#000000"
         id="path139" />
      <path
         d="m 309.8363,269.75 c -3.6798,-1.8876 -3.7969,-9.9517 -3.6342,-11.2505 l -7.1676,-0.5393 c 0.3288,8.6993 3.6702,11.7898 10.8018,11.7898 z"
         fill="#eac102"
         stroke="#000000"
         id="path140" />
      <path
         d="m 425.1516,206.7413 -5.0285,-2.633 c 1.5032,-4.362 9.5731,-8.2263 11.7332,-2.0868 -2.5783,-0.3958 -6.2216,2.513 -6.7047,4.7198 z"
         fill="#eac102"
         stroke="#000000"
         id="path141" />
      <path
         d="m 442.7785,221.4056 c -1.9682,-2.4986 -7.8604,-1.1543 -8.9573,-0.59 l -1.3808,-6.0637 c 4.5575,-1.6235 10.4401,-0.08 10.3381,6.6537 z"
         fill="#eac102"
         stroke="#000000"
         id="path142" />
      <path
         d="m 428.3087,232.9458 4.1494,-5.1586 c 4.2262,2.1201 5.7476,4.4057 4.1613,9.5571 -2.3969,-2.4066 -5.69,-4.0302 -8.3107,-4.3985 z"
         fill="#eac102"
         stroke="#000000"
         id="path143" />
      <path
         d="m 409.3308,232.9621 -6.2448,2.1462 c -1.1409,4.4657 2.6331,9.7428 7.6357,7.9497 -1.7349,-2.5438 -2.0679,-8.114 -1.3909,-10.0959 z"
         fill="#eac102"
         stroke="#000000"
         id="path144" />
      <path
         d="m 355.4414,149.7421 c 0,10.8746 3.8013,12.8383 12.073,13.6223 8.2717,0.784 25.4756,5.8486 25.4756,16.4566 7.1764,-0.1581 8.6632,-4.54 12.6647,-4.54 6.7515,0 4.3634,5.6783 13.6608,6.4317 -0.4431,2.2077 -2.5623,3.5613 -4.8724,3.5613 -8.1287,0 -9.342,-3.4242 -12.0239,-3.4242 -2.6342,0 -5.5937,1.655 -9.4455,2.1573 -5.3214,14.5592 -10.818,12.4453 -10.818,18.9083 0,8.5174 7.9673,6.3957 12.0402,7.4667 4.0729,1.0711 9.8546,5.1026 12.8249,6.251 2.3874,0.923 5.7859,1.5856 7.0125,0.9878 -1.2241,0.6008 -4.6167,-0.0725 -7.0125,-0.9878 3.1523,1.2386 7.4338,-4.8526 7.4338,-7.5316 0,-1.3936 -0.3167,-2.4002 -0.3167,-3.3356 0,-1.6846 2.4172,-3.6292 4.2394,-3.6292 1.7834,0 3.5356,1.7513 4.1353,2.3255 1.5602,0.6295 4.3165,0.9507 4.3165,3.762 0,1.1228 -0.1843,2.025 -0.4953,2.7603 -0.8288,1.9598 -2.6301,2.7208 -4.7885,3.2091 2.1223,-0.4722 3.9574,-1.2596 4.7885,-3.2091 3.3894,-1.018 7.2853,0.1976 7.2853,2.68 0,0.7298 0.2043,2.2371 0.2796,3.5397 1.029,2.4738 0.8,4.581 -2.1317,6.2168 -0.9671,-0.6198 -3.8052,-1.5665 -5.512,-2.1037 1.6986,0.5308 4.5459,1.4861 5.512,2.1037 1.538,0.9833 2.1798,2.4268 2.1798,3.8855 0,2.4782 -0.9548,3.0003 -2.6109,3.8423 -0.3464,0.5701 -1.8196,3.0669 -4.1566,3.0669 -4.6392,0 -5.8439,-6.5729 -7.8295,-6.5729 -2.6823,0 -4.1477,-3.3755 -7.5638,-3.3755 -1.8583,0 -3.7109,1.1728 -3.7109,2.1761 0,1.5595 3.351,2.3365 3.351,4.727 0,4.4988 -14.2959,7.939 -14.2959,2.8562 0,-1.3984 0.4152,-2.9525 0.4152,-4.0968 0,-2.3205 -2.7138,-4.2666 -4.6536,-4.2666 -3.4648,0 -3.7163,5.9188 -10.2536,5.9188 -5.0791,0 6.4454,-7.5515 1.3205,-7.5515 -3.2786,0 -6.5783,3.3438 -10.5568,3.3438 -1.6061,0 -2.9424,-0.8809 -2.9424,-1.6982 0,-1.3292 4.0859,-2.517 4.0859,-3.7678 0,-0.3903 -0.7505,-0.8835 -1.9575,-0.8835 -3.8937,0 -6.8204,2.1289 -9.6868,2.1289 -1.0616,0 -2.6871,-0.892 -2.6871,-1.9705 0,-2.0366 5.0084,-2.8326 5.0084,-4.8457 0,-2.9071 -5.8783,-0.5224 -9.7979,-0.5224 -1.9501,0 -3.6738,-1.1961 -3.6738,-2.5547 0,-1.6479 4.2719,-1.8009 4.2719,-3.5382 0,-0.6354 -1.5332,-0.5334 -2.7399,-0.5334 -2.6587,0 -9.0168,-12.654 -6.3955,-12.654 0.8211,0 4.771,3.2193 7.3068,4.543 -1.4786,-2.0599 -1.727,-11.5573 -1.727,-12.2214 0,-3.4209 -8.4236,-4.194 -13.4605,-9.803 -5.0369,-5.609 -7.2138,-8.9533 -8.9899,-15.1371 z"
         fill="#eac102"
         stroke="#000000"
         id="path145" />
      <path
         d="m 334.5754,171.1745 c 7.2542,8.9256 17.5062,3.0763 10.7305,-1.4206 10.4363,-2.7242 9.4734,-6.7163 6.9142,-10.0988 z"
         fill="none"
         stroke="#000000"
         id="path146" />
      <path
         d="m 307.1364,162.2672 c -11.6013,10.9043 -22.5652,10.5362 -22.5652,0.8552 0,-16.1594 30.7002,-33.6932 30.7002,-69.6246 0,-31.4982 -23.5322,-32.4103 -30.1223,-46.2178 -0.7592,5.5564 0.3653,11.5724 4.6838,15.1078 -8.2989,8.1773 11.7733,36.2599 11.7733,56.9492 0,11.9884 -13.7297,21.0183 -20.7074,37.1546 -4.4293,-14.8614 18.8075,-32.3304 5.3989,-44.5526 2.0263,7.9399 -11.0477,24.9019 -11.0477,39.5259 0,4.5017 1.2153,8.8046 4.4563,12.5936 1.8194,12.08 12.6118,15.7973 29.0709,3.4975 z"
         fill="#eac102"
         stroke="#000000"
         id="path147" />
      <path
         d="m 289.8329,62.3878 c 14.3372,11.6236 16.9983,31.3629 18.2883,48.4093"
         fill="none"
         stroke="#000000"
         id="path148" />
      <path
         d="m 403.1927,139.5103 c -32.9323,6.6618 -36.239,13.7594 -45.6113,19.0979 -20.9509,11.9337 -26.4053,16.6784 -26.4053,20.8682 0,4.3663 5.5996,7.9262 5.5996,18.2425 0,1.7759 -1.3001,3.9892 -2.6925,5.6709 -0.3037,3.5087 3.4695,5.0156 3.4695,8.3666 0,3.7123 -4.4104,10.079 0.8737,14.0927 -16.8918,-2.1606 -2.8747,-12.2336 -7.5125,-18.8161 -10.7418,11.182 -22.9895,6.5408 -22.9895,13.0644 0,1.2899 1.47,5.8419 2.1214,9.37 0.6514,3.5281 1.5041,7.5797 3.2708,10.4108 2.1706,3.2706 6.7877,7.3656 10.2858,7.4615 -3.513,-0.092 -8.1183,-4.1936 -10.2858,-7.4615 2.8165,4.3546 10.6772,-4.9673 14.9216,-4.9673 3.0343,0 4.994,1.7122 5.2569,4.3833 0.7135,0.7804 1.5649,1.6955 1.5649,2.549 0,1.8115 -4.4675,3.1221 -7.0473,3.5652 5.4064,0.8508 6.6251,-1.7566 9.7801,-1.7566 3.6768,0 3.0861,4.8325 2.9641,6.6149 0.241,0.6896 0.7489,6.7528 -3.9258,6.7528 -3.4232,0 -4.6273,-3.227 -5.6117,-3.227 -1.0308,0 -4.4629,-1.0965 -6.9067,-2.8349 2.026,3.0935 6.8929,3.9209 6.8929,6.1815 0,2.6556 -5.8632,5.934 -9.5711,5.934 -2.2334,0 -3.0574,-1.1549 -3.0574,-3.1344 0,-4.4109 -1.3383,-5.7856 -3.5066,-5.7856 -1.008,0 -4.72,0.2659 -7.17,-2.2164 -0.2232,2.1152 2.0783,4.0878 2.0783,7.3923 0,4.8656 -14.1936,3.1868 -14.1936,-0.4855 0,-5.6215 5.5429,-7.0758 0.9119,-12.9425 -0.8582,-1.0872 -12.556,-4.2861 -12.556,-7.4034 0,-1.2971 7.3648,-0.4358 7.3648,-1.684 0,-2.8281 -11.0384,-6.8956 -11.0384,-8.565 0,-2.5005 7.3384,-0.019 7.3384,-1.5682 0,-2.2356 -12.5558,-8.0529 -12.5558,-10.0129 0,-2.6933 9.0839,0.2861 9.0839,-2.0341 0,-2.0881 -9.0839,-5.8189 -9.0839,-10.15 0,-2.0441 6.3042,2.9054 6.3042,-0.9863 0,-5.4353 -1.6418,-8.1117 -1.6418,-9.6297 0,-1.8986 4.9762,4.358 5.4268,5.7904 1.3078,-2.9568 11.865,-4.1311 13.4856,-8.2031 1.6206,-4.072 3.1363,-11.1958 3.1363,-18.2275 0,-23.6871 37.8335,-37.5948 53.8442,-69.3537 z"
         fill="#eac102"
         stroke="#000000"
         id="path149" />
      <path
         d="m 464.4333,147.0368 c -3.4824,0.2003 -6.2364,3.5727 -6.7963,4.9337 l -6.5992,-4.1196 c 2.5025,-3.1893 9.7494,-5.5043 13.3955,-0.8141 z"
         fill="#eac102"
         stroke="#000000"
         id="path150" />
      <path
         d="m 474.2501,166.4121 c -2.7653,-2.2165 -6.7418,-0.7331 -8.3219,0.365 l -1.7559,-6.8876 c 4.104,-0.7587 10.0778,0.4922 10.0778,6.5226 z"
         fill="#eac102"
         stroke="#000000"
         id="path151" />
      <path
         d="m 458.4946,174.9868 c 1.562,4.6912 -1.8567,9.477 -6.072,10.2361 0.8596,-2.7745 -0.0587,-7.5539 -0.5965,-9.1434 z"
         fill="#eac102"
         stroke="#000000"
         id="path152" />
      <path
         d="m 432.4621,184.1383 c -0.7976,-2.2015 -1.095,-7.6898 -0.7023,-10.0369 l -6.6955,-1.7082 c -0.9745,6.253 2.0179,11.8644 7.3978,11.7451 z"
         fill="#eac102"
         stroke="#000000"
         id="path153" />
      <path
         d="m 375.7037,107.942 21.5495,-8.0094 c 9.113,20.4054 12.8649,22.717 21.5015,32.0707 8.6366,9.3537 11.6603,19.3831 21.8174,24.3341 2.9197,1.4232 5.6227,2.2329 7.9689,2.4729 -2.3422,-0.2394 -5.0461,-1.0897 -7.9689,-2.4729 3.6471,1.7415 5.6564,-3.156 5.6564,-6.1991 0,-2.8659 1.4251,-4.5058 3.8018,-4.5058 2.59,0 4.9558,2.1972 5.3662,2.5383 7.2292,2.0348 6.3663,8.8121 4.2133,9.6212 -1.083,0.407 -2.7154,0.9641 -4.62,1.9489 1.8997,-0.983 3.5404,-1.5411 4.62,-1.9489 4.604,-1.7389 7.3189,-1.3642 6.41,4.998 1.8832,4.349 0.8135,7.5889 -3.8348,7.5889 -0.9649,0 -1.9053,-0.0465 -2.7909,-0.2778 -1.3271,-0.3466 -3.0726,-1.0768 -4.5319,-2.2976 1.448,1.2 3.1991,1.944 4.5319,2.2976 2.0166,0.535 2.1599,2.0708 2.1599,3.7733 0,3.2919 -5.2009,3.6097 -6.9085,3.4087 -3.6828,0.7968 -7.4333,1.2263 -7.4333,-1.5522 0,-1.5869 0.9443,-3.4349 0.9443,-5.0617 0,-1.6399 -1.8026,-2.4264 -3.5236,-2.4264 -3.7635,0 -4.4875,5.1257 -10.8227,0.1905 0.8199,1.4665 1.8909,3.249 1.8909,4.8134 0,3.7859 -4.971,2.4339 -6.7795,2.2567 -4.2985,0.3692 -6.5145,-1.9706 -6.5145,-3.7926 0,-4.4913 1.9911,-7.0245 1.9911,-8.1963 0,-1.8209 -13.8117,1.2068 -13.8117,-1.5298 0,-1.043 6.3103,-2.8649 6.3103,-3.8516 0,-1.6875 -15.6624,0.9755 -15.6624,-2.1672 0,-1.4911 8.7381,-2.4912 8.7381,-3.5644 0,-2.2513 -15.6005,0.7645 -15.6005,-3.1541 0,-2.0097 8.3686,-1.42 8.3686,-3.3399 0,-2.4035 -17.0447,1.9033 -17.0447,-3.2229 0,-1.3689 7.154,-2.1542 7.154,-2.9346 0,-0.5551 -15.4013,-0.3558 -15.4013,-4.5157 0,-0.9563 4.8274,-0.9192 5.5064,-2.5554 z"
         fill="#eac102"
         stroke="#000000"
         id="path154" />
      <path
         d="m 381.5632,57.188 c 3.3995,0.1859 2.9637,8.0761 2.6971,9.5507 h -4.348 c 0.6689,-1.6503 1.9656,-6.8056 1.6509,-9.5507 z"
         fill="#e5e5e5"
         stroke="#000000"
         id="path155" />
      <path
         d="m 382.8428,48.3539 c 0.8933,4.399 1.0366,8.4567 -2.2077,9.8431 0.0958,-1.6591 -0.8875,-5.5203 -2.6314,-8.3324 z"
         fill="#e5e5e5"
         stroke="#000000"
         id="path156" />
      <path
         d="m 360.5501,32.25 c 12.2329,-0.5615 14.9786,-1.5 16.4,-1.5 2.8573,0 4.1844,2.3699 3.7,4.5 2.8784,2.6015 3.5,9.8012 3.5,12.6 0,2.699 -2.7189,4.3175 -5.0422,4.3175 -2.24,0 -4.5904,-3.1314 -8.8121,-3.1314 -2.1128,0 -3.2673,1.7931 -4.4509,2.6727 -1.1836,0.8796 -2.6526,2.1733 -2.6526,3.873 0,3.3593 6.4092,4.9159 6.4092,8.0536 0,0.336 -0.0514,0.7413 -0.0514,1.1147 0,3.0866 9.6,1 10.6,-1 0.3,-0.6 1.2435,-1.1855 2.2577,-1.1855 2.2414,0 3.2865,3.6907 3.2865,5.9125 0,3.7502 -2.8741,4.6423 -6.2082,4.6423 -4.9753,0 -11.622,-1.9514 -11.622,-0.0477 0,2.7291 12.3016,3.9781 17.7859,3.9781 6.244,0 17.8537,10.7595 24.3,10.8 0.6254,1.0589 0.4679,2.4689 -0.4,3.3 l 10e-5,3e-4 c 10.2553,8.1245 12.3717,14.6966 23.7,14.1 0,4.8895 -4.437,6.1305 -8.9993,6.1305 -8.6843,0 -13.141,-6.0406 -20.7007,-8.1305 12.9368,7.086 15.4216,22.4456 26.3,23 0,3.0185 -2.6848,5.8533 -7.5403,5.8533 -10.5656,0 -17.4471,-13.2193 -26.4597,-19.8533 10.177,9.1333 4.0928,18.2725 14.6,24.9 -1.1946,1.031 -2.4567,1.5357 -3.8774,1.5357 -13.0758,0 -13.9922,-18.7473 -23.6226,-25.0357 5.1018,9.3787 -1.8997,20.9491 9.9,26.1 -12.3141,0 -16.4773,-9.7775 -20.9,-21.9 -2.2932,5.8349 -3.4864,17.3734 -0.4,20.9 -16.2002,-1.9555 -9.0019,-14.4787 -14.3,-22.4 0.3235,7.7914 -7.0674,8.3709 -4,18.4 -13.6833,-3.9553 -5.369,-21.9007 -8,-24.7 -0.0673,6.0015 -6.1695,7.5306 -7.1,15.2 -6.2624,-9.6006 0.169,-10.114 -0.8,-24.7 -1.0547,3.9144 -5.3484,7.0522 -5.8,12.8 -5.9811,-11.1314 2.5079,-18.6249 1.7,-26.7 -1.7102,3.082 -3.7642,4.295 -6,11.2 0,-14.4938 1.9789,-14.4371 4.3,-25.4 -2.1101,1.9264 -2.8277,3.8058 -4.3,6.6 0,-4.5539 1.4412,-10.6044 1.9,-12.4 0,0 -0.2,-2.0411 -0.2,-4.8001 0,-12.737 5.9,-17.4 11.6,-22.6 5.7,-5.2 12.2463,-8.4982 16.2067,-8.4982 1.5441,0 2.8594,0.4582 3.7933,1.4982 z"
         fill="#eac102"
         stroke="#000000"
         id="path157" />
      <path
         d="m 380.6501,35.25 c -1.2996,-1.1436 -3.3414,-0.5359 -4.9,-0.8"
         fill="none"
         stroke="#000000"
         id="path158" />
      <path
         d="m 337.4317,51.5451 c -3.4303,0.1833 -6.7513,0.1009 -10.1816,-0.1706 2.5012,6.0599 5.2972,11.2846 8.9606,15.5251"
         fill="#eac102"
         stroke="#000000"
         id="path159" />
      <path
         d="m 409.5501,91.15 c -0.8553,0.819 -2.4269,1.3118 -4.6882,1.3118 -8.815,0 -12.3095,-5.5498 -20.5638,-6.9706 3.8216,4.5536 6.0187,6.3024 10.0771,8.6623 -10.0393,10.6038 -17.3871,-9.8658 -33.7826,-10.4842 4.2434,3.6695 3.7079,9.9645 8.7715,14.5292 -16.1121,2.2468 -14.6069,-15.8642 -25.6599,-20.0036"
         fill="none"
         stroke="#000000"
         id="path160" />
      <path
         d="m 354.2385,38.1397 c -2.1735,0.6432 -3.8619,1.9863 -5.1612,3.3773 1.1926,3.3193 0.8265,7.4169 4.5244,7.4169 2.6112,0 3.7975,-2.1287 4.3031,-4.6083 z"
         fill="#e5e5e5"
         stroke="#000000"
         id="path161" />
      <path
         d="m 359.6959,35.483 c -1.4987,0.9164 -3.5783,2.1006 -5.4574,2.6567 0.6683,2.1945 2.2893,4.7163 3.6663,6.1859 0.9804,-4.808 2.7972,-4.5629 1.7911,-8.8426 z"
         stroke="#000000"
         id="path162" />
    </g>
    <g
       fill="#ed1c24"
       stroke="#000000"
       id="g172">
      <path
         d="M 96.6748,485.6002 C 97.4064,473.8071 94.9883,460.1376 88.7744,450.25 h 10.2411 c 4.5904,9.4303 6.6008,23.8377 3.2985,35.3502 z"
         id="path163" />
      <path
         d="m 119.4597,470.4195 c 17.7437,0 30.0403,11.6798 30.0403,32.0023 0,31.7676 -30.0314,53.9583 -52.7126,66.8282 C 76.1657,541.3819 50.5,534.1894 50.5,502.4218 c 0,-20.3225 12.2968,-32.0023 30.0403,-32.0023 6.2922,0 11.5218,2.0915 19.4597,6.9052 7.9378,-4.8136 13.1675,-6.9052 19.4597,-6.9052 z"
         id="path164" />
      <path
         d="m 396.6748,485.6002 c 0.7316,-11.7931 -1.6865,-25.4626 -7.9004,-35.3502 h 10.2411 c 4.5904,9.4303 6.6008,23.8377 3.2985,35.3502 z"
         id="path165" />
      <path
         d="m 419.4597,470.4195 c 17.7437,0 30.0403,11.6798 30.0403,32.0023 0,31.7676 -30.0314,53.9583 -52.7126,66.8282 C 376.1657,541.3819 350.5,534.1894 350.5,502.4218 c 0,-20.3225 12.2968,-32.0023 30.0403,-32.0023 6.2922,0 11.5218,2.0915 19.4597,6.9052 7.9378,-4.8136 13.1675,-6.9052 19.4597,-6.9052 z"
         id="path166" />
      <path
         d="m 246.6748,485.6002 c 0.7316,-11.7931 -1.6865,-25.4626 -7.9004,-35.3502 h 10.2411 c 4.5904,9.4303 6.6008,23.8377 3.2985,35.3502 z"
         id="path167" />
      <path
         d="m 269.4597,470.4195 c 17.7437,0 30.0403,11.6798 30.0403,32.0023 0,31.7676 -30.0314,53.9583 -52.7126,66.8282 C 226.1657,541.3819 200.5,534.1894 200.5,502.4218 c 0,-20.3225 12.2968,-32.0023 30.0403,-32.0023 6.2922,0 11.5218,2.0915 19.4597,6.9052 7.9378,-4.8136 13.1675,-6.9052 19.4597,-6.9052 z"
         id="path168" />
      <path
         d="m 171.6748,365.6002 c 0.7316,-11.7931 -1.6865,-25.4626 -7.9004,-35.3502 h 10.2411 c 4.5904,9.4303 6.6008,23.8377 3.2986,35.3502 z"
         id="path169" />
      <path
         d="m 194.4597,350.4195 c 17.7437,0 30.0403,11.6798 30.0403,32.0023 0,31.7676 -30.0314,53.9583 -52.7126,66.8282 C 151.1657,421.3819 125.5,414.1894 125.5,382.4218 c 0,-20.3225 12.2968,-32.0023 30.0403,-32.0023 6.2922,0 11.5218,2.0915 19.4597,6.9052 7.9378,-4.8136 13.1675,-6.9052 19.4597,-6.9052 z"
         id="path170" />
      <path
         d="m 321.6748,365.6002 c 0.7316,-11.7931 -1.6865,-25.4626 -7.9004,-35.3502 h 10.2411 c 4.5904,9.4303 6.6008,23.8377 3.2985,35.3502 z"
         id="path171" />
      <path
         d="m 344.4597,350.4195 c 17.7437,0 30.0403,11.6798 30.0403,32.0023 0,31.7676 -30.0314,53.9583 -52.7126,66.8282 C 301.1657,421.3819 275.5,414.1894 275.5,382.4218 c 0,-20.3225 12.2968,-32.0023 30.0403,-32.0023 6.2922,0 11.5218,2.0915 19.4597,6.9052 7.9378,-4.8136 13.1675,-6.9052 19.4597,-6.9052 z"
         id="path172" />
    </g>
  </g>
  <path
     d="m 1.5,1.5 v 473.25 c 0,68.35 55.4,123.75 123.75,123.75 h 62.375 c 27.18,0 50.966,17.254 62.375,40 11.409,-22.746 35.195,-40 62.375,-40 h 62.375 c 68.35,0 123.75,-55.4 123.75,-123.75 V 1.5 Z"
     fill="none"
     stroke="#000000"
     stroke-linecap="round"
     stroke-linejoin="round"
     stroke-width="3"
     id="path173" />
</svg>
