<?xml version="1.0" encoding="UTF-8" standalone="no"?>
<!-- Created with Inkscape (http://www.inkscape.org/) -->

<svg
   width="602"
   height="602"
   id="svg3194"
   sodipodi:version="0.32"
   inkscape:version="1.3.2 (091e20ef0f, 2023-11-25)"
   version="1.0"
   sodipodi:docname="armarria_Andoain.svg"
   inkscape:output_extension="org.inkscape.output.svg.inkscape"
   xmlns:inkscape="http://www.inkscape.org/namespaces/inkscape"
   xmlns:sodipodi="http://sodipodi.sourceforge.net/DTD/sodipodi-0.dtd"
   xmlns="http://www.w3.org/2000/svg"
   xmlns:svg="http://www.w3.org/2000/svg"
   xmlns:rdf="http://www.w3.org/1999/02/22-rdf-syntax-ns#"
   xmlns:cc="http://creativecommons.org/ns#"
   xmlns:dc="http://purl.org/dc/elements/1.1/">
  <sodipodi:namedview
     id="base"
     pagecolor="#ffffff"
     bordercolor="#666666"
     borderopacity="1.0"
     gridtolerance="10000"
     guidetolerance="10"
     objecttolerance="10"
     inkscape:pageopacity="0.0"
     inkscape:pageshadow="2"
     inkscape:zoom="0.38071125"
     inkscape:cx="274.48624"
     inkscape:cy="316.51284"
     inkscape:document-units="px"
     inkscape:current-layer="layer6"
     inkscape:window-width="1920"
     inkscape:window-height="1008"
     inkscape:window-x="0"
     inkscape:window-y="0"
     showguides="true"
     showgrid="false"
     inkscape:guide-bbox="true"
     height="1023px"
     width="549.99969px"
     inkscape:showpageshadow="2"
     inkscape:pagecheckerboard="0"
     inkscape:deskcolor="#d1d1d1"
     inkscape:window-maximized="1" />
  <defs
     id="defs3196">
    <inkscape:perspective
       sodipodi:type="inkscape:persp3d"
       inkscape:vp_x="0 : 511.5 : 1"
       inkscape:vp_y="0 : 1000 : 0"
       inkscape:vp_z="549.99969 : 511.5 : 1"
       inkscape:persp3d-origin="274.99985 : 341 : 1"
       id="perspective7566" />
    <linearGradient
       id="linearGradient4476">
      <stop
         offset="0"
         style="stop-color:#403800;stop-opacity:1;"
         id="stop4478" />
      <stop
         offset="0.5"
         style="stop-color:#c8af00;stop-opacity:1;"
         id="stop3321" />
      <stop
         offset="1"
         style="stop-color:#403900;stop-opacity:1;"
         id="stop4480" />
    </linearGradient>
    <clipPath
       id="id39">
      <path
         d="m 14684500,13624900 c 0,0 -243780,425750 -674920,593300 -431130,167630 -560790,219540 -1129170,91960 -568300,-127540 -584190,-236860 -801180,-251380 -216950,-14490 -247190,-44950 -247190,-44950 l 6030,-37170 c 490020,-326240 1016750,-518060 1606280,-623120 390030,-69530 681810,180900 1045300,227830 110460,14260 194850,43530 194850,43530 z"
         id="path19701" />
    </clipPath>
    <clipPath
       id="id38">
      <path
         d="m 14684500,13624900 c 0,0 -243780,425750 -674920,593300 -431130,167630 -560790,219540 -1129170,91960 -568300,-127540 -584190,-236860 -801180,-251380 -216950,-14490 -247190,-44950 -247190,-44950 l 6030,-37170 c 490020,-326240 1016750,-518060 1606280,-623120 390030,-69530 681810,180900 1045300,227830 110460,14260 194850,43530 194850,43530 z"
         id="path19698" />
    </clipPath>
    <clipPath
       id="id37">
      <path
         d="m 14450300,12388500 c 327610,-259250 1045990,-74640 1434090,-208150 124920,-42980 306240,-101850 306240,-101850 0,0 -33810,389970 -362550,734080 -328730,344150 -674480,601760 -1104540,670260 -430010,68450 -585950,-24370 -829610,-23850 -243610,520 -766450,15300 -766450,15300 16670,-128960 354970,-288210 439830,-386960 244430,-284550 588630,-465890 882990,-698830 z"
         id="path19695" />
    </clipPath>
    <clipPath
       id="id36">
      <path
         d="m 14450300,12388500 c 327610,-259250 1045990,-74640 1434090,-208150 124920,-42980 306240,-101850 306240,-101850 0,0 -33810,389970 -362550,734080 -328730,344150 -674480,601760 -1104540,670260 -430010,68450 -585950,-24370 -829610,-23850 -243610,520 -766450,15300 -766450,15300 16670,-128960 354970,-288210 439830,-386960 244430,-284550 588630,-465890 882990,-698830 z"
         id="path19692" />
    </clipPath>
    <clipPath
       id="id35">
      <path
         d="m 13692900,11728500 c 0,0 -430870,25650 -730960,298990 -300000,273250 -391540,354850 -512030,850780 -120620,495930 -40580,550970 -113510,726940 -73060,175970 -32910,412610 -32910,412610 l 189460,-193370 180540,-208540 c 0,0 635800,-652690 750820,-808030 206650,-279220 122600,-605800 227060,-909480 31750,-92300 41530,-169900 41530,-169900 z"
         id="path19689" />
    </clipPath>
    <clipPath
       id="id34">
      <path
         d="m 13692900,11728500 c 0,0 -430870,25650 -730960,298990 -300000,273250 -391540,354850 -512030,850780 -120620,495930 -40580,550970 -113510,726940 -73060,175970 -32910,412610 -32910,412610 l 189460,-193370 180540,-208540 c 0,0 635800,-652690 750820,-808030 206650,-279220 122600,-605800 227060,-909480 31750,-92300 41530,-169900 41530,-169900 z"
         id="path19686" />
    </clipPath>
    <clipPath
       id="id33">
      <path
         d="m 11216900,2958840 c 0,0 127080,-36270 253820,-207250 126650,-170900 290870,-343900 518620,-418540 227850,-74720 370180,-104630 634720,-83100 264680,21650 460000,-3910 460000,-3910 0,0 -58930,47010 -188600,243550 -129710,196640 -394600,408100 -666990,499760 -272510,91830 -457710,76700 -643030,61620 -185160,-15040 -368540,-92130 -368540,-92130 z"
         id="path19683" />
    </clipPath>
    <clipPath
       id="id32">
      <path
         d="m 11216900,2958840 c 0,0 127080,-36270 253820,-207250 126650,-170900 290870,-343900 518620,-418540 227850,-74720 370180,-104630 634720,-83100 264680,21650 460000,-3910 460000,-3910 0,0 -58930,47010 -188600,243550 -129710,196640 -394600,408100 -666990,499760 -272510,91830 -457710,76700 -643030,61620 -185160,-15040 -368540,-92130 -368540,-92130 z"
         id="path19680" />
    </clipPath>
    <clipPath
       id="id31">
      <path
         d="m 10942800,1832570 c 0,0 127000,36610 325380,-40910 198330,-77690 429710,-137120 662420,-79710 232620,57540 369140,107730 581820,266250 212720,158560 391710,240460 391710,240460 0,0 -74910,8600 -289490,106360 -214570,97840 -551710,136470 -831330,69740 -279620,-66740 -428460,-177770 -577340,-288680 -148970,-110950 -263170,-273510 -263170,-273510 z"
         id="path19677" />
    </clipPath>
    <clipPath
       id="id30">
      <path
         d="m 10942800,1832570 c 0,0 127000,36610 325380,-40910 198330,-77690 429710,-137120 662420,-79710 232620,57540 369140,107730 581820,266250 212720,158560 391710,240460 391710,240460 0,0 -74910,8600 -289490,106360 -214570,97840 -551710,136470 -831330,69740 -279620,-66740 -428460,-177770 -577340,-288680 -148970,-110950 -263170,-273510 -263170,-273510 z"
         id="path19674" />
    </clipPath>
    <clipPath
       id="id29">
      <path
         d="m 16131400,10733900 c 361900,-208970 1045730,77950 1449170,2190 129790,-24410 317830,-56330 317830,-56330 0,0 -90380,380890 -465810,673650 -375430,292810 -755080,497480 -1190520,502810 -435400,5320 -576180,-109150 -817290,-144000 -241110,-34890 -583500,223880 -583500,223880 35320,-125180 216210,-553640 314520,-638980 283410,-246050 650400,-375480 975600,-563220 z"
         id="path19671" />
    </clipPath>
    <clipPath
       id="id28">
      <path
         d="m 16131400,10733900 c 361900,-208970 1045730,77950 1449170,2190 129790,-24410 317830,-56330 317830,-56330 0,0 -90380,380890 -465810,673650 -375430,292810 -755080,497480 -1190520,502810 -435400,5320 -576180,-109150 -817290,-144000 -241110,-34890 -583500,223880 -583500,223880 35320,-125180 216210,-553640 314520,-638980 283410,-246050 650400,-375480 975600,-563220 z"
         id="path19668" />
    </clipPath>
    <clipPath
       id="id27">
      <path
         d="m 17887700,5978240 c 0,0 1290,925810 -266960,1361400 -268250,435560 -637350,685300 -906810,897320 -269370,212020 -469810,375180 -469810,375180 0,0 -25850,-529310 118290,-1001440 144190,-472120 347860,-666860 624340,-870200 276480,-203300 480980,-405990 602200,-497390 121180,-91360 298750,-264870 298750,-264870 z"
         id="path19665" />
    </clipPath>
    <clipPath
       id="id26">
      <path
         d="m 17887700,5978240 c 0,0 1290,925810 -266960,1361400 -268250,435560 -637350,685300 -906810,897320 -269370,212020 -469810,375180 -469810,375180 0,0 -25850,-529310 118290,-1001440 144190,-472120 347860,-666860 624340,-870200 276480,-203300 480980,-405990 602200,-497390 121180,-91360 298750,-264870 298750,-264870 z"
         id="path19662" />
    </clipPath>
    <clipPath
       id="id25">
      <path
         d="m 16911800,4552070 c 433590,643710 547530,1439870 87670,2095870 -258350,368390 -571400,526870 -634380,622650 -63020,95740 -112310,142490 -112310,142490 0,0 -183510,-492280 -133280,-841630 50190,-349400 179940,-715170 347340,-1114240 167450,-399030 266190,-553120 320940,-688520 54790,-135450 124020,-216620 124020,-216620 z"
         id="path19659" />
    </clipPath>
    <clipPath
       id="id24">
      <path
         d="m 16911800,4552070 c 433590,643710 547530,1439870 87670,2095870 -258350,368390 -571400,526870 -634380,622650 -63020,95740 -112310,142490 -112310,142490 0,0 -183510,-492280 -133280,-841630 50190,-349400 179940,-715170 347340,-1114240 167450,-399030 266190,-553120 320940,-688520 54790,-135450 124020,-216620 124020,-216620 z"
         id="path19656" />
    </clipPath>
    <clipPath
       id="id23">
      <path
         d="m 13618500,13165000 c 0,0 187310,-399500 54190,-673220 -133110,-273730 -330930,-428300 -323220,-1023960 7710,-597170 97880,-1003460 413860,-1568140 79570,447890 485670,767380 590440,1234080 73140,325720 940,714310 -50710,969430 -51610,255080 -105580,543750 -105580,543750 l -177360,279960 -258860,234840 z"
         id="path19653" />
    </clipPath>
    <clipPath
       id="id22">
      <path
         d="m 13618500,13165000 c 0,0 187310,-399500 54190,-673220 -133110,-273730 -330930,-428300 -323220,-1023960 7710,-597170 97880,-1003460 413860,-1568140 79570,447890 485670,767380 590440,1234080 73140,325720 940,714310 -50710,969430 -51610,255080 -105580,543750 -105580,543750 l -177360,279960 -258860,234840 z"
         id="path19650" />
    </clipPath>
    <clipPath
       id="id21">
      <path
         d="m 14636800,8617900 c 0,0 -251150,401650 -273550,760590 -22360,358980 -4570,637600 81120,893660 194540,581490 399080,861830 476060,1534070 l 553350,-964190 c 103340,-401220 -109640,-1177360 -326150,-1548880 -216430,-371530 -510830,-675250 -510830,-675250 z"
         id="path19647" />
    </clipPath>
    <clipPath
       id="id20">
      <path
         d="m 14636800,8617900 c 0,0 -251150,401650 -273550,760590 -22360,358980 -4570,637600 81120,893660 194540,581490 399080,861830 476060,1534070 l 553350,-964190 c 103340,-401220 -109640,-1177360 -326150,-1548880 -216430,-371530 -510830,-675250 -510830,-675250 z"
         id="path19644" />
    </clipPath>
    <clipPath
       id="id19">
      <path
         d="m 16890700,8377910 c 160430,564380 234350,1467590 -95370,1986500 -178350,280730 -553650,675810 -553650,675810 l -283070,195040 -954800,184690 c 0,0 602240,-1346190 960060,-1836230 282680,-387090 591770,-860280 926830,-1205810 z"
         id="path19641" />
    </clipPath>
    <clipPath
       id="id18">
      <path
         d="m 16890700,8377910 c 160430,564380 234350,1467590 -95370,1986500 -178350,280730 -553650,675810 -553650,675810 l -283070,195040 -954800,184690 c 0,0 602240,-1346190 960060,-1836230 282680,-387090 591770,-860280 926830,-1205810 z"
         id="path19638" />
    </clipPath>
    <clipPath
       id="id17">
      <path
         d="m 14817100,7359190 c 0,0 -174940,385370 -194540,749590 -19650,364180 -5040,572500 175760,864790 180840,292330 279880,421120 505910,662700 226000,241540 329820,410930 329820,410930 0,0 288360,-134800 265660,-604690 -22660,-469930 -127300,-694580 -390550,-1119090 -263170,-424420 -476880,-536920 -575880,-665750 -99030,-128780 -116180,-298480 -116180,-298480 z"
         id="path19635" />
    </clipPath>
    <clipPath
       id="id16">
      <path
         d="m 14817100,7359190 c 0,0 -174940,385370 -194540,749590 -19650,364180 -5040,572500 175760,864790 180840,292330 279880,421120 505910,662700 226000,241540 329820,410930 329820,410930 0,0 288360,-134800 265660,-604690 -22660,-469930 -127300,-694580 -390550,-1119090 -263170,-424420 -476880,-536920 -575880,-665750 -99030,-128780 -116180,-298480 -116180,-298480 z"
         id="path19632" />
    </clipPath>
    <clipPath
       id="id15">
      <path
         d="m 14778300,5948840 c 0,0 -34250,633780 84740,1029460 119020,395680 156970,625100 395850,838580 238780,213480 333680,278020 581690,423740 248000,145670 335880,71280 471320,218980 135440,147730 96500,116620 96500,116620 0,0 47860,-416300 -139450,-881640 -187300,-465290 -250720,-698190 -727900,-1064650 -477180,-366450 -762750,-681090 -762750,-681090 z"
         id="path19629" />
    </clipPath>
    <clipPath
       id="id14">
      <path
         d="m 14778300,5948840 c 0,0 -34250,633780 84740,1029460 119020,395680 156970,625100 395850,838580 238780,213480 333680,278020 581690,423740 248000,145670 335880,71280 471320,218980 135440,147730 96500,116620 96500,116620 0,0 47860,-416300 -139450,-881640 -187300,-465290 -250720,-698190 -727900,-1064650 -477180,-366450 -762750,-681090 -762750,-681090 z"
         id="path19626" />
    </clipPath>
    <clipPath
       id="id13">
      <path
         d="m 15415100,2266750 c 0,0 -342600,800500 -374350,1331370 -31750,530820 81030,1008310 343420,1421350 262350,413120 606460,504610 680210,777900 73710,273250 120450,547450 120450,547450 0,0 251370,-775930 265280,-1354870 13960,-578910 25590,-892810 -165030,-1432610 -190580,-539800 -375000,-717570 -543350,-901230 -168400,-183750 -326630,-389360 -326630,-389360 z"
         id="path19623" />
    </clipPath>
    <clipPath
       id="id12">
      <path
         d="m 15415100,2266750 c 0,0 -342600,800500 -374350,1331370 -31750,530820 81030,1008310 343420,1421350 262350,413120 606460,504610 680210,777900 73710,273250 120450,547450 120450,547450 0,0 251370,-775930 265280,-1354870 13960,-578910 25590,-892810 -165030,-1432610 -190580,-539800 -375000,-717570 -543350,-901230 -168400,-183750 -326630,-389360 -326630,-389360 z"
         id="path19620" />
    </clipPath>
    <clipPath
       id="id11">
      <path
         d="m 12394500,3395680 c 0,0 417350,548740 639930,626900 222550,78210 494030,165230 757410,83370 263340,-81860 483000,-123110 666350,-130630 183250,-7440 475150,101360 475150,101360 0,0 -310160,-511520 -653460,-641470 -835120,-316090 -1143820,116800 -1885380,-39530 z"
         id="path19617" />
    </clipPath>
    <clipPath
       id="id10">
      <path
         d="m 12394500,3395680 c 0,0 417350,548740 639930,626900 222550,78210 494030,165230 757410,83370 263340,-81860 483000,-123110 666350,-130630 183250,-7440 475150,101360 475150,101360 0,0 -310160,-511520 -653460,-641470 -835120,-316090 -1143820,116800 -1885380,-39530 z"
         id="path19614" />
    </clipPath>
    <clipPath
       id="id9">
      <path
         d="m 13855800,1063560 c 0,0 288930,172830 540040,456700 251060,283820 613480,605590 506340,1079640 -107220,474100 -248560,480420 -287420,739830 -38850,259420 12070,430490 12070,430490 0,0 -243830,-246700 -420750,-500320 -176890,-253610 -391120,-485220 -350920,-952360 40190,-467180 70780,-600480 64830,-830540 -5940,-230070 -64190,-423440 -64190,-423440 z"
         id="path19611" />
    </clipPath>
    <clipPath
       id="id8">
      <path
         d="m 13855800,1063560 c 0,0 288930,172830 540040,456700 251060,283820 613480,605590 506340,1079640 -107220,474100 -248560,480420 -287420,739830 -38850,259420 12070,430490 12070,430490 0,0 -243830,-246700 -420750,-500320 -176890,-253610 -391120,-485220 -350920,-952360 40190,-467180 70780,-600480 64830,-830540 -5940,-230070 -64190,-423440 -64190,-423440 z"
         id="path19608" />
    </clipPath>
    <clipPath
       id="id7">
      <path
         d="m 12245000,694180 c 0,0 18490,95830 136440,200200 118030,104420 235080,236690 275310,409000 40190,172360 52860,279010 19560,472210 -33340,193150 -27310,338440 -27310,338440 0,0 -30850,-46410 -167580,-154700 -136770,-108280 -275660,-316990 -325500,-523380 -49890,-206310 -26580,-341540 -3230,-476770 23350,-135230 92310,-265000 92310,-265000 z"
         id="path19605" />
    </clipPath>
    <clipPath
       id="id6">
      <path
         d="m 12245000,694180 c 0,0 18490,95830 136440,200200 118030,104420 235080,236690 275310,409000 40190,172360 52860,279010 19560,472210 -33340,193150 -27310,338440 -27310,338440 0,0 -30850,-46410 -167580,-154700 -136770,-108280 -275660,-316990 -325500,-523380 -49890,-206310 -26580,-341540 -3230,-476770 23350,-135230 92310,-265000 92310,-265000 z"
         id="path19602" />
    </clipPath>
    <clipPath
       id="id5">
      <path
         d="m 13581500,896020 c 0,0 -73750,109400 -60270,321510 13530,212190 -380,450120 -126300,653580 -125920,203430 -215530,317730 -431820,471310 -216340,153580 -349200,298600 -349200,298600 0,0 14650,-73730 -13140,-307410 -27780,-233680 38260,-565710 187390,-810950 149100,-245230 300480,-352700 451900,-460220 151460,-107550 341440,-166420 341440,-166420 z"
         id="path19599" />
    </clipPath>
    <clipPath
       id="id4">
      <path
         d="m 13581500,896020 c 0,0 -73750,109400 -60270,321510 13530,212190 -380,450120 -126300,653580 -125920,203430 -215530,317730 -431820,471310 -216340,153580 -349200,298600 -349200,298600 0,0 14650,-73730 -13140,-307410 -27780,-233680 38260,-565710 187390,-810950 149100,-245230 300480,-352700 451900,-460220 151460,-107550 341440,-166420 341440,-166420 z"
         id="path19596" />
    </clipPath>
    <clipPath
       id="id3">
      <path
         d="m 17905000,7712850 c 168520,651560 60740,1647200 -524010,2079400 -361860,267500 -703730,314770 -1004210,391560 -300430,76830 -496090,173470 -496090,173470 0,0 -54450,-75370 -20210,-332640 34250,-257270 476240,-795050 889620,-1200870 413430,-405860 836590,-748460 955830,-881240 119200,-132780 199070,-229680 199070,-229680 z"
         id="path19593" />
    </clipPath>
    <clipPath
       id="id2">
      <path
         d="m 17905000,7712850 c 168520,651560 60740,1647200 -524010,2079400 -361860,267500 -703730,314770 -1004210,391560 -300430,76830 -496090,173470 -496090,173470 0,0 -54450,-75370 -20210,-332640 34250,-257270 476240,-795050 889620,-1200870 413430,-405860 836590,-748460 955830,-881240 119200,-132780 199070,-229680 199070,-229680 z"
         id="path19590" />
    </clipPath>
    <clipPath
       id="id1">
      <path
         d="m 14186300,5152250 c 0,0 192520,531420 469520,807850 276950,276430 478730,433880 662120,497520 183380,63600 243430,71380 468350,106740 224910,35370 538010,235520 538010,235520 0,0 -93220,-443930 -285140,-653670 -191920,-209780 -342300,-390000 -783210,-603570 -440870,-213570 -539180,-210470 -748800,-250180 -209620,-39660 -320850,-140210 -320850,-140210 z"
         id="path19587" />
    </clipPath>
    <clipPath
       id="id0">
      <path
         d="m 14186300,5152250 c 0,0 192520,531420 469520,807850 276950,276430 478730,433880 662120,497520 183380,63600 243430,71380 468350,106740 224910,35370 538010,235520 538010,235520 0,0 -93220,-443930 -285140,-653670 -191920,-209780 -342300,-390000 -783210,-603570 -440870,-213570 -539180,-210470 -748800,-250180 -209620,-39660 -320850,-140210 -320850,-140210 z"
         id="path19584" />
    </clipPath>
    <linearGradient
       id="linearGradient8135">
      <stop
         offset="0"
         style="stop-color:#5d070b;stop-opacity:1;"
         id="stop8137" />
      <stop
         offset="0.5"
         style="stop-color:#ed1c24;stop-opacity:1;"
         id="stop8139" />
      <stop
         offset="1"
         style="stop-color:#5d070a;stop-opacity:1;"
         id="stop8141" />
    </linearGradient>
  </defs>
  <metadata
     id="metadata3199">
    <rdf:RDF>
      <cc:Work
         rdf:about="">
        <dc:format>image/svg+xml</dc:format>
        <dc:type
           rdf:resource="http://purl.org/dc/dcmitype/StillImage" />
      </cc:Work>
    </rdf:RDF>
  </metadata>
  <g
     style="display:inline"
     id="layer3"
     inkscape:groupmode="layer"
     transform="translate(-78.632323,-411.35963)"
     inkscape:label="Timbre">
    <path
       style="display:inline;overflow:visible;visibility:visible;fill:none;fill-opacity:1;fill-rule:evenodd;stroke:none;stroke-width:1;stroke-linecap:butt;stroke-linejoin:miter;stroke-miterlimit:4;stroke-dasharray:none;stroke-dashoffset:0;stroke-opacity:1;marker:none;marker-start:none;marker-mid:none;marker-end:none;enable-background:accumulate"
       id="path4560"
       d="m 97.44172,346.21932 c 0.20428,120.74473 -0.41112,241.50283 0.31223,362.2391 3.84688,108.35657 86.78731,207.32615 192.69986,230.20965 97.98283,23.86995 207.6723,-19.0271 262.97739,-103.62122 33.12209,-47.31073 45.3201,-105.86015 42.58894,-162.85245 0,-108.65836 0,-217.31672 0,-325.97508 -166.19277,0 -332.38555,0 -498.57842,0 z" />
  </g>
  <g
     inkscape:label="Escudo"
     style="display:inline"
     id="layer1"
     transform="translate(-78.632323,-411.35963)"
     inkscape:groupmode="layer" />
  <g
     inkscape:label="Piezas"
     style="display:inline"
     id="layer4"
     transform="translate(-22.203602,-487.99998)"
     inkscape:groupmode="layer" />
  <g
     inkscape:label="Muebles"
     style="display:inline"
     id="layer5"
     transform="translate(-22.203602,-487.99998)"
     inkscape:groupmode="layer" />
  <g
     inkscape:label="Ornamento"
     id="layer2"
     transform="translate(-22.203602,-487.99998)"
     inkscape:groupmode="layer" />
  <g
     inkscape:label="Borde 3px"
     style="display:inline"
     id="layer6"
     transform="translate(-22.203602,-487.99998)"
     inkscape:groupmode="layer">
    <path
       style="display:inline;overflow:visible;visibility:visible;fill:#eac102;fill-opacity:1;fill-rule:evenodd;stroke:none;stroke-width:3;stroke-linecap:butt;stroke-linejoin:miter;stroke-miterlimit:4;stroke-dasharray:none;stroke-dashoffset:0;stroke-opacity:1;marker:none;marker-start:none;marker-mid:none;marker-end:none;enable-background:accumulate"
       id="path11309"
       d="m 28.288112,490.99995 c 0.20428,120.74472 -0.41112,241.50282 0.31223,362.23909 3.84688,108.35657 86.787308,207.32616 192.699858,230.20966 97.98283,23.8699 207.67235,-19.0271 262.97745,-103.62123 33.1221,-47.31073 45.3201,-105.86015 42.5889,-162.85245 0,-108.65836 0,-217.31672 0,-325.97507 -166.1928,0 -332.38557,0 -498.578438,0 z" />
    <path
       style="display:inline;fill:#0071bc;fill-opacity:1;fill-rule:evenodd;stroke:#000000;stroke-width:1;stroke-miterlimit:4;stroke-dasharray:none;stroke-opacity:1"
       d="m 109.50813,616.26266 c -0.1473,0 -0.25,0.13397 -0.25,0.28125 v 48.78125 c 0,0.1473 0.1027,0.28125 0.25,0.28125 h 346.5625 c 0.1473,0 0.28126,-0.13396 0.28125,-0.28125 v -48.78125 c 0,-0.1473 -0.13395,-0.28125 -0.28125,-0.28125 z m 0,97.21875 c -0.1473,0 -0.25,0.13394 -0.25,0.28125 v 48.78125 c 0,0.1473 0.1027,0.28125 0.25,0.28125 h 346.5625 c 0.1473,0 0.28126,-0.13396 0.28125,-0.28125 v -48.78125 c 0,-0.1473 -0.13395,-0.28128 -0.28125,-0.28125 z m 0,97.21875 c -0.1473,0 -0.25,0.13394 -0.25,0.28125 v 48.78125 c 0,0.1473 0.1027,0.28125 0.25,0.28125 h 346.5625 c 0.1473,0 0.28126,-0.13396 0.28125,-0.28125 v -48.78125 c 0,-0.1473 -0.13395,-0.28128 -0.28125,-0.28125 z m 0,97.25 c -0.1473,0 -0.25,0.10269 -0.25,0.25 v 48.78125 c 0,0.1473 0.1027,0.28125 0.25,0.28125 h 346.5625 c 0.1473,0 0.28126,-0.13396 0.28125,-0.28125 v -48.78125 c 0,-0.1473 -0.13395,-0.25003 -0.28125,-0.25 z"
       id="rect3074" />
    <path
       style="display:inline;overflow:visible;visibility:visible;fill:#0071bc;fill-opacity:1;fill-rule:evenodd;stroke:#000000;stroke-width:1;stroke-linecap:butt;stroke-linejoin:miter;stroke-miterlimit:4;stroke-dasharray:none;stroke-dashoffset:0;stroke-opacity:1;marker:none;marker-start:none;marker-mid:none;marker-end:none;enable-background:accumulate"
       d="m 27.600542,488.93747 c 0.20419,120.74707 -0.41089,241.51847 0.31249,362.25697 3.84678,108.3588 86.772248,207.30816 192.681588,230.19206 97.98005,23.8702 207.68873,-19.0311 262.99213,-103.62706 33.121,-47.3116 45.3235,-105.8535 42.5925,-162.8469 -10e-5,-108.6606 0,-217.3147 0,-325.97507 -166.1879,0 -332.39093,0 -498.578708,0 z m 83.309948,80.00197 c 110.68073,0 221.37166,0 332.05246,0 0,72.3799 0,182.7494 0,255.1292 1.8189,37.9639 -6.3155,76.9874 -28.3741,108.5021 -36.832,56.35 -109.86528,84.90186 -175.11968,69.00146 -70.53554,-15.24326 -125.77796,-81.16796 -128.33988,-153.34686 -0.48179,-80.4252 -0.0828,-198.855 -0.2188,-279.2859 z"
       id="path11313"
       sodipodi:nodetypes="cccccccccccccc" />
    <path
       style="display:inline;overflow:visible;visibility:visible;fill:none;fill-opacity:1;fill-rule:evenodd;stroke:#000000;stroke-width:3;stroke-linecap:butt;stroke-linejoin:miter;stroke-miterlimit:4;stroke-dasharray:none;stroke-dashoffset:0;stroke-opacity:1;marker:none;marker-start:none;marker-mid:none;marker-end:none;enable-background:accumulate"
       id="path11503"
       d="m 28.288192,489.49998 c 0.20428,120.74471 -0.41112,241.50281 0.31223,362.23908 3.84688,108.35657 86.787308,207.32614 192.699858,230.20964 97.98283,23.87 207.67227,-19.0271 262.97737,-103.62121 33.1221,-47.31073 45.3201,-105.86015 42.5889,-162.85245 0,-108.65836 0,-217.31672 0,-325.97506 -166.1928,0 -332.38549,0 -498.578358,0 z" />
    <path
       style="opacity:1;fill:#eac102;fill-opacity:1;stroke:#4d4d4d;stroke-width:1.06969;stroke-miterlimit:4;stroke-dasharray:none;stroke-opacity:1"
       d="m 107.29418,1009.5674 16.71674,-17.04863 17.04997,16.71543 14.77077,-15.06403 -17.04999,-16.7151 16.71675,-17.04864 -15.0652,-14.7694 -16.71674,17.0485 -17.04437,-16.7098 -14.77076,15.0639 17.04437,16.70974 -16.71674,17.0485 z"
       id="rect9592" />
    <path
       style="display:inline;opacity:1;fill:#eac102;fill-opacity:1;stroke:#4d4d4d;stroke-width:1.06969;stroke-miterlimit:4;stroke-dasharray:none;stroke-opacity:1"
       d="m 53.88528,559.85932 16.71674,-17.0486 17.04997,16.7154 14.77077,-15.064 -17.04999,-16.7151 16.71675,-17.0486 -15.0652,-14.7694 -16.71674,17.0485 -17.04437,-16.7098 -14.770766,15.0639 17.044376,16.7097 -16.716746,17.0485 z"
       id="path9597" />
    <path
       style="display:inline;opacity:1;fill:#eac102;fill-opacity:1;stroke:#4d4d4d;stroke-width:1.06969;stroke-miterlimit:4;stroke-dasharray:none;stroke-opacity:1"
       d="m 260.07831,559.85932 16.71674,-17.0486 17.04997,16.7154 14.77077,-15.064 -17.04999,-16.7151 16.71675,-17.0486 -15.0652,-14.7694 -16.71674,17.0485 -17.04437,-16.7098 -14.77077,15.0639 17.04438,16.7097 -16.71675,17.0485 z"
       id="path9599" />
    <path
       style="display:inline;opacity:1;fill:#eac102;fill-opacity:1;stroke:#4d4d4d;stroke-width:1.06969;stroke-miterlimit:4;stroke-dasharray:none;stroke-opacity:1"
       d="m 260.51609,1079.9385 16.71675,-17.0486 17.04997,16.7154 14.77077,-15.064 -17.04999,-16.7151 16.71675,-17.0486 -15.0652,-14.7694 -16.71675,17.0485 -17.04437,-16.7098 -14.77077,15.0639 17.04438,16.7097 -16.71675,17.0485 z"
       id="path9601" />
    <path
       style="display:inline;opacity:1;fill:#eac102;fill-opacity:1;stroke:#4d4d4d;stroke-width:1.06969;stroke-miterlimit:4;stroke-dasharray:none;stroke-opacity:1"
       d="m 466.27132,559.85932 16.71674,-17.0486 17.04997,16.7154 14.77077,-15.064 -17.04999,-16.7151 16.71675,-17.0486 -15.0652,-14.7694 -16.71674,17.0485 -17.04437,-16.7098 -14.77077,15.0639 17.04438,16.7097 -16.71675,17.0485 z"
       id="path9603" />
    <path
       style="display:inline;opacity:1;fill:#eac102;fill-opacity:1;stroke:#4d4d4d;stroke-width:1.06969;stroke-miterlimit:4;stroke-dasharray:none;stroke-opacity:1"
       d="m 55.1986,701.6991 16.71674,-17.0486 17.04997,16.7154 14.77077,-15.064 -17.04999,-16.7151 16.71675,-17.0486 -15.0652,-14.7694 -16.71674,17.0485 -17.04437,-16.7098 -14.770771,15.0639 17.044381,16.7097 -16.716751,17.0485 z"
       id="path9605" />
    <path
       style="display:inline;opacity:1;fill:#eac102;fill-opacity:1;stroke:#4d4d4d;stroke-width:1.06969;stroke-miterlimit:4;stroke-dasharray:none;stroke-opacity:1"
       d="m 467.58464,701.6991 16.7168,-17.0486 17.0499,16.7154 14.7708,-15.064 -17.05,-16.7151 16.7168,-17.0486 -15.0652,-14.7694 -16.7168,17.0485 -17.0443,-16.7098 -14.7708,15.0639 17.0444,16.7097 -16.7168,17.0485 z"
       id="path9607" />
    <path
       style="display:inline;opacity:1;fill:#eac102;fill-opacity:1;stroke:#4d4d4d;stroke-width:1.06969;stroke-miterlimit:4;stroke-dasharray:none;stroke-opacity:1"
       d="m 52.57193,861.92551 16.71674,-17.0486 17.04997,16.7154 14.77077,-15.064 -17.04999,-16.7151 16.71675,-17.0486 -15.0652,-14.7694 -16.71674,17.0485 -17.044365,-16.7098 -14.77077,15.0639 17.044375,16.7097 -16.716745,17.0485 z"
       id="path9609" />
    <path
       style="display:inline;opacity:1;fill:#eac102;fill-opacity:1;stroke:#4d4d4d;stroke-width:1.06969;stroke-miterlimit:4;stroke-dasharray:none;stroke-opacity:1"
       d="m 470.21129,856.67218 16.7168,-17.0486 17.0499,16.7154 14.7708,-15.064 -17.05,-16.7151 16.7168,-17.0486 -15.0652,-14.7694 -16.7168,17.0485 -17.0443,-16.7098 -14.7708,15.0639 17.0444,16.7097 -16.7168,17.0485 z"
       id="path9611" />
    <path
       style="display:inline;opacity:1;fill:#eac102;fill-opacity:1;stroke:#4d4d4d;stroke-width:1.06969;stroke-miterlimit:4;stroke-dasharray:none;stroke-opacity:1"
       d="m 418.99138,1009.0187 16.71674,-17.04863 17.04997,16.71543 14.77077,-15.06403 -17.04999,-16.7151 16.71675,-17.04864 -15.0652,-14.76943 -16.71674,17.04853 -17.04437,-16.70983 -14.77077,15.06393 17.04438,16.70974 -16.71675,17.0485 z"
       id="path9613" />
  </g>
</svg>
