<?xml version="1.0" encoding="UTF-8" standalone="no"?>
<!-- Created with Inkscape (http://www.inkscape.org/) -->

<svg
   width="653"
   height="653"
   id="svg3194"
   sodipodi:version="0.32"
   inkscape:version="1.3.2 (091e20ef0f, 2023-11-25)"
   version="1.0"
   sodipodi:docname="armarria_Berriz.svg"
   inkscape:output_extension="org.inkscape.output.svg.inkscape"
   xmlns:inkscape="http://www.inkscape.org/namespaces/inkscape"
   xmlns:sodipodi="http://sodipodi.sourceforge.net/DTD/sodipodi-0.dtd"
   xmlns:xlink="http://www.w3.org/1999/xlink"
   xmlns="http://www.w3.org/2000/svg"
   xmlns:svg="http://www.w3.org/2000/svg"
   xmlns:rdf="http://www.w3.org/1999/02/22-rdf-syntax-ns#"
   xmlns:cc="http://creativecommons.org/ns#"
   xmlns:dc="http://purl.org/dc/elements/1.1/">
  <defs
     id="defs3196">
    <linearGradient
       id="linearGradient8135">
      <stop
         style="stop-color:#5d070b;stop-opacity:1;"
         offset="0"
         id="stop8137" />
      <stop
         id="stop8139"
         offset="0.5"
         style="stop-color:#ed1c24;stop-opacity:1;" />
      <stop
         style="stop-color:#5d070a;stop-opacity:1;"
         offset="1"
         id="stop8141" />
    </linearGradient>
    <linearGradient
       inkscape:collect="always"
       xlink:href="#linearGradient8135"
       id="linearGradient11920"
       gradientUnits="userSpaceOnUse"
       gradientTransform="matrix(1.1773172,0,0,1.1773172,657.8819,-545.55183)"
       x1="-418.38882"
       y1="700.10571"
       x2="-136.18279"
       y2="700.10571" />
    <linearGradient
       y2="700.10571"
       x2="-136.18279"
       y1="700.10571"
       x1="-418.38882"
       gradientTransform="matrix(1.1773172,0,0,1.1773172,657.8819,-545.55183)"
       gradientUnits="userSpaceOnUse"
       id="linearGradient5484"
       xlink:href="#linearGradient8135"
       inkscape:collect="always" />
    <linearGradient
       id="linearGradient5476">
      <stop
         id="stop5478"
         offset="0"
         style="stop-color:#5d070b;stop-opacity:1;" />
      <stop
         style="stop-color:#ed1c24;stop-opacity:1;"
         offset="0.5"
         id="stop5480" />
      <stop
         id="stop5482"
         offset="1"
         style="stop-color:#5d070a;stop-opacity:1;" />
    </linearGradient>
    <clipPath
       id="id8">
      <path
         id="path12958"
         d="m 4900000,12100000 c -101120,-216290 -351940,-577050 -625300,-577050 -941580,0 -1883160,0 -2824750,0 -742420,0 -1349950,-604920 -1349950,-1344330 V 100020 h 4800000 4800000 v 10078600 c 0,739410 -607530,1344330 -1349950,1344330 -941590,0 -1883170,0 -2824750,0 -273360,0 -524180,360760 -625300,577050 z" />
    </clipPath>
    <clipPath
       id="id3">
      <path
         id="path12943"
         d="m 3178550,6435350 c 573250,0 1147180,-10 1720770,-10 573580,0 1147850,10 1722130,10 l 18810,117380 c 51780,29200 90690,297330 57010,355710 l 8130,50730 c 50190,33960 87460,289970 56450,352150 l 8380,52310 c 51360,30500 89850,295450 56880,354870 l 8250,51470 c 49980,34470 87060,289020 56410,351690 l 8470,52900 c 50900,31870 88910,293300 56720,353840 l 8160,50900 670,4170 c 22750,10520 38660,33620 38660,60220 v 181040 l 17690,110340 7850,48990 c 52720,26240 92610,301600 57310,357560 l 7550,47140 c 53890,22260 95070,307000 57680,359710 l 61540,383760 c -771960,0 -1543960,0 -2314990,0 -771040,0 -1542560,0 -2313150,0 l 62490,-389580 c -30390,-63030 6520,-316250 56320,-351260 l 7650,-47700 c -38170,-51440 3450,-339680 57780,-360440 l 7360,-45940 c -36590,-53950 4090,-335230 57540,-359000 l 7630,-47540 c -35020,-56380 4700,-330540 57260,-357260 l 7900,-49280 c -33470,-58690 5340,-326030 57010,-355490 l 7690,-47980 c -35800,-55190 4390,-332850 57390,-358140 l 45050,-281090 v -59100 c 0,-16630 6220,-31900 16450,-43580 l 10930,-68180 c -36520,-54060 4110,-334960 57520,-358910 z" />
    </clipPath>
    <linearGradient
       y2="343.1196"
       x2="416.20303"
       y1="343.1196"
       x1="133.79698"
       gradientTransform="matrix(1.1401119,0,0,1.1401119,-479.50036,1178.7304)"
       gradientUnits="userSpaceOnUse"
       id="linearGradient9130"
       xlink:href="#linearGradient8929"
       inkscape:collect="always" />
    <linearGradient
       y2="343.1196"
       x2="416.20303"
       y1="343.1196"
       x1="133.79698"
       gradientTransform="matrix(1.1401119,0,0,1.1401119,-479.50036,1178.7304)"
       gradientUnits="userSpaceOnUse"
       id="linearGradient9094"
       xlink:href="#linearGradient8929"
       inkscape:collect="always" />
    <linearGradient
       id="linearGradient8215">
      <stop
         id="stop8217"
         offset="0"
         style="stop-color:#5d070b;stop-opacity:1;" />
      <stop
         style="stop-color:#ed1c24;stop-opacity:1;"
         offset="0.5"
         id="stop8219" />
      <stop
         id="stop8221"
         offset="1"
         style="stop-color:#5d070a;stop-opacity:1;" />
    </linearGradient>
    <linearGradient
       gradientTransform="matrix(1.1401119,0,0,1.1401119,-508.53099,1753.7756)"
       y2="343.1196"
       x2="416.20303"
       y1="343.1196"
       x1="133.79698"
       gradientUnits="userSpaceOnUse"
       id="linearGradient7861"
       xlink:href="#linearGradient8929"
       inkscape:collect="always" />
    <linearGradient
       id="linearGradient8929">
      <stop
         style="stop-color:#776201;stop-opacity:1;"
         offset="0"
         id="stop8931" />
      <stop
         id="stop8933"
         offset="0.5"
         style="stop-color:#eac102;stop-opacity:1;" />
      <stop
         style="stop-color:#776201;stop-opacity:1;"
         offset="1"
         id="stop8935" />
    </linearGradient>
    <linearGradient
       inkscape:collect="always"
       xlink:href="#linearGradient8929"
       id="linearGradient8287"
       gradientUnits="userSpaceOnUse"
       gradientTransform="matrix(1.1401119,0,0,1.1401119,-479.50036,1178.7304)"
       x1="133.79698"
       y1="343.1196"
       x2="416.20303"
       y2="343.1196" />
    <linearGradient
       inkscape:collect="always"
       xlink:href="#linearGradient8929"
       id="linearGradient8315"
       gradientUnits="userSpaceOnUse"
       gradientTransform="matrix(1.1401119,0,0,1.1401119,614.12874,703.27798)"
       x1="133.79698"
       y1="343.1196"
       x2="416.20303"
       y2="343.1196" />
    <linearGradient
       inkscape:collect="always"
       xlink:href="#linearGradient8929"
       id="linearGradient8351"
       gradientUnits="userSpaceOnUse"
       gradientTransform="matrix(1.1401119,0,0,1.1401119,614.12874,703.27798)"
       x1="133.79698"
       y1="343.1196"
       x2="416.20303"
       y2="343.1196" />
    <linearGradient
       inkscape:collect="always"
       xlink:href="#linearGradient8929"
       id="linearGradient8379"
       gradientUnits="userSpaceOnUse"
       gradientTransform="matrix(1.1401119,0,0,1.1401119,614.12874,703.27798)"
       x1="133.79698"
       y1="343.1196"
       x2="416.20303"
       y2="343.1196" />
    <linearGradient
       inkscape:collect="always"
       xlink:href="#linearGradient8929"
       id="linearGradient9103"
       gradientUnits="userSpaceOnUse"
       gradientTransform="matrix(1.1401119,0,0,1.1401119,614.12874,703.27798)"
       x1="133.79698"
       y1="343.1196"
       x2="416.20303"
       y2="343.1196" />
    <linearGradient
       id="linearGradient5424">
      <stop
         id="stop5426"
         offset="0"
         style="stop-color:#5d070b;stop-opacity:1;" />
      <stop
         style="stop-color:#ed1c24;stop-opacity:1;"
         offset="0.5"
         id="stop5428" />
      <stop
         id="stop5430"
         offset="1"
         style="stop-color:#5d070a;stop-opacity:1;" />
    </linearGradient>
    <clipPath
       id="id0">
      <path
         id="path19584"
         d="m 14186300,5152250 c 0,0 192520,531420 469520,807850 276950,276430 478730,433880 662120,497520 183380,63600 243430,71380 468350,106740 224910,35370 538010,235520 538010,235520 0,0 -93220,-443930 -285140,-653670 -191920,-209780 -342300,-390000 -783210,-603570 -440870,-213570 -539180,-210470 -748800,-250180 -209620,-39660 -320850,-140210 -320850,-140210 z" />
    </clipPath>
    <clipPath
       id="id1">
      <path
         id="path19587"
         d="m 14186300,5152250 c 0,0 192520,531420 469520,807850 276950,276430 478730,433880 662120,497520 183380,63600 243430,71380 468350,106740 224910,35370 538010,235520 538010,235520 0,0 -93220,-443930 -285140,-653670 -191920,-209780 -342300,-390000 -783210,-603570 -440870,-213570 -539180,-210470 -748800,-250180 -209620,-39660 -320850,-140210 -320850,-140210 z" />
    </clipPath>
    <clipPath
       id="id2">
      <path
         id="path19590"
         d="m 17905000,7712850 c 168520,651560 60740,1647200 -524010,2079400 -361860,267500 -703730,314770 -1004210,391560 -300430,76830 -496090,173470 -496090,173470 0,0 -54450,-75370 -20210,-332640 34250,-257270 476240,-795050 889620,-1200870 413430,-405860 836590,-748460 955830,-881240 119200,-132780 199070,-229680 199070,-229680 z" />
    </clipPath>
    <clipPath
       id="clipPath5415">
      <path
         id="path19593"
         d="m 17905000,7712850 c 168520,651560 60740,1647200 -524010,2079400 -361860,267500 -703730,314770 -1004210,391560 -300430,76830 -496090,173470 -496090,173470 0,0 -54450,-75370 -20210,-332640 34250,-257270 476240,-795050 889620,-1200870 413430,-405860 836590,-748460 955830,-881240 119200,-132780 199070,-229680 199070,-229680 z" />
    </clipPath>
    <clipPath
       id="id4">
      <path
         id="path19596"
         d="m 13581500,896020 c 0,0 -73750,109400 -60270,321510 13530,212190 -380,450120 -126300,653580 -125920,203430 -215530,317730 -431820,471310 -216340,153580 -349200,298600 -349200,298600 0,0 14650,-73730 -13140,-307410 -27780,-233680 38260,-565710 187390,-810950 149100,-245230 300480,-352700 451900,-460220 151460,-107550 341440,-166420 341440,-166420 z" />
    </clipPath>
    <clipPath
       id="id5">
      <path
         id="path19599"
         d="m 13581500,896020 c 0,0 -73750,109400 -60270,321510 13530,212190 -380,450120 -126300,653580 -125920,203430 -215530,317730 -431820,471310 -216340,153580 -349200,298600 -349200,298600 0,0 14650,-73730 -13140,-307410 -27780,-233680 38260,-565710 187390,-810950 149100,-245230 300480,-352700 451900,-460220 151460,-107550 341440,-166420 341440,-166420 z" />
    </clipPath>
    <clipPath
       id="id6">
      <path
         id="path19602"
         d="m 12245000,694180 c 0,0 18490,95830 136440,200200 118030,104420 235080,236690 275310,409000 40190,172360 52860,279010 19560,472210 -33340,193150 -27310,338440 -27310,338440 0,0 -30850,-46410 -167580,-154700 -136770,-108280 -275660,-316990 -325500,-523380 -49890,-206310 -26580,-341540 -3230,-476770 23350,-135230 92310,-265000 92310,-265000 z" />
    </clipPath>
    <clipPath
       id="id7">
      <path
         id="path19605"
         d="m 12245000,694180 c 0,0 18490,95830 136440,200200 118030,104420 235080,236690 275310,409000 40190,172360 52860,279010 19560,472210 -33340,193150 -27310,338440 -27310,338440 0,0 -30850,-46410 -167580,-154700 -136770,-108280 -275660,-316990 -325500,-523380 -49890,-206310 -26580,-341540 -3230,-476770 23350,-135230 92310,-265000 92310,-265000 z" />
    </clipPath>
    <clipPath
       id="clipPath5404">
      <path
         id="path19608"
         d="m 13855800,1063560 c 0,0 288930,172830 540040,456700 251060,283820 613480,605590 506340,1079640 -107220,474100 -248560,480420 -287420,739830 -38850,259420 12070,430490 12070,430490 0,0 -243830,-246700 -420750,-500320 -176890,-253610 -391120,-485220 -350920,-952360 40190,-467180 70780,-600480 64830,-830540 -5940,-230070 -64190,-423440 -64190,-423440 z" />
    </clipPath>
    <clipPath
       id="id9">
      <path
         id="path19611"
         d="m 13855800,1063560 c 0,0 288930,172830 540040,456700 251060,283820 613480,605590 506340,1079640 -107220,474100 -248560,480420 -287420,739830 -38850,259420 12070,430490 12070,430490 0,0 -243830,-246700 -420750,-500320 -176890,-253610 -391120,-485220 -350920,-952360 40190,-467180 70780,-600480 64830,-830540 -5940,-230070 -64190,-423440 -64190,-423440 z" />
    </clipPath>
    <clipPath
       id="id10">
      <path
         id="path19614"
         d="m 12394500,3395680 c 0,0 417350,548740 639930,626900 222550,78210 494030,165230 757410,83370 263340,-81860 483000,-123110 666350,-130630 183250,-7440 475150,101360 475150,101360 0,0 -310160,-511520 -653460,-641470 -835120,-316090 -1143820,116800 -1885380,-39530 z" />
    </clipPath>
    <clipPath
       id="id11">
      <path
         id="path19617"
         d="m 12394500,3395680 c 0,0 417350,548740 639930,626900 222550,78210 494030,165230 757410,83370 263340,-81860 483000,-123110 666350,-130630 183250,-7440 475150,101360 475150,101360 0,0 -310160,-511520 -653460,-641470 -835120,-316090 -1143820,116800 -1885380,-39530 z" />
    </clipPath>
    <clipPath
       id="id12">
      <path
         id="path19620"
         d="m 15415100,2266750 c 0,0 -342600,800500 -374350,1331370 -31750,530820 81030,1008310 343420,1421350 262350,413120 606460,504610 680210,777900 73710,273250 120450,547450 120450,547450 0,0 251370,-775930 265280,-1354870 13960,-578910 25590,-892810 -165030,-1432610 -190580,-539800 -375000,-717570 -543350,-901230 -168400,-183750 -326630,-389360 -326630,-389360 z" />
    </clipPath>
    <clipPath
       id="id13">
      <path
         id="path19623"
         d="m 15415100,2266750 c 0,0 -342600,800500 -374350,1331370 -31750,530820 81030,1008310 343420,1421350 262350,413120 606460,504610 680210,777900 73710,273250 120450,547450 120450,547450 0,0 251370,-775930 265280,-1354870 13960,-578910 25590,-892810 -165030,-1432610 -190580,-539800 -375000,-717570 -543350,-901230 -168400,-183750 -326630,-389360 -326630,-389360 z" />
    </clipPath>
    <clipPath
       id="id14">
      <path
         id="path19626"
         d="m 14778300,5948840 c 0,0 -34250,633780 84740,1029460 119020,395680 156970,625100 395850,838580 238780,213480 333680,278020 581690,423740 248000,145670 335880,71280 471320,218980 135440,147730 96500,116620 96500,116620 0,0 47860,-416300 -139450,-881640 -187300,-465290 -250720,-698190 -727900,-1064650 -477180,-366450 -762750,-681090 -762750,-681090 z" />
    </clipPath>
    <clipPath
       id="id15">
      <path
         id="path19629"
         d="m 14778300,5948840 c 0,0 -34250,633780 84740,1029460 119020,395680 156970,625100 395850,838580 238780,213480 333680,278020 581690,423740 248000,145670 335880,71280 471320,218980 135440,147730 96500,116620 96500,116620 0,0 47860,-416300 -139450,-881640 -187300,-465290 -250720,-698190 -727900,-1064650 -477180,-366450 -762750,-681090 -762750,-681090 z" />
    </clipPath>
    <clipPath
       id="id16">
      <path
         id="path19632"
         d="m 14817100,7359190 c 0,0 -174940,385370 -194540,749590 -19650,364180 -5040,572500 175760,864790 180840,292330 279880,421120 505910,662700 226000,241540 329820,410930 329820,410930 0,0 288360,-134800 265660,-604690 -22660,-469930 -127300,-694580 -390550,-1119090 -263170,-424420 -476880,-536920 -575880,-665750 -99030,-128780 -116180,-298480 -116180,-298480 z" />
    </clipPath>
    <clipPath
       id="id17">
      <path
         id="path19635"
         d="m 14817100,7359190 c 0,0 -174940,385370 -194540,749590 -19650,364180 -5040,572500 175760,864790 180840,292330 279880,421120 505910,662700 226000,241540 329820,410930 329820,410930 0,0 288360,-134800 265660,-604690 -22660,-469930 -127300,-694580 -390550,-1119090 -263170,-424420 -476880,-536920 -575880,-665750 -99030,-128780 -116180,-298480 -116180,-298480 z" />
    </clipPath>
    <clipPath
       id="id18">
      <path
         id="path19638"
         d="m 16890700,8377910 c 160430,564380 234350,1467590 -95370,1986500 -178350,280730 -553650,675810 -553650,675810 l -283070,195040 -954800,184690 c 0,0 602240,-1346190 960060,-1836230 282680,-387090 591770,-860280 926830,-1205810 z" />
    </clipPath>
    <clipPath
       id="id19">
      <path
         id="path19641"
         d="m 16890700,8377910 c 160430,564380 234350,1467590 -95370,1986500 -178350,280730 -553650,675810 -553650,675810 l -283070,195040 -954800,184690 c 0,0 602240,-1346190 960060,-1836230 282680,-387090 591770,-860280 926830,-1205810 z" />
    </clipPath>
    <clipPath
       id="id20">
      <path
         id="path19644"
         d="m 14636800,8617900 c 0,0 -251150,401650 -273550,760590 -22360,358980 -4570,637600 81120,893660 194540,581490 399080,861830 476060,1534070 l 553350,-964190 c 103340,-401220 -109640,-1177360 -326150,-1548880 -216430,-371530 -510830,-675250 -510830,-675250 z" />
    </clipPath>
    <clipPath
       id="id21">
      <path
         id="path19647"
         d="m 14636800,8617900 c 0,0 -251150,401650 -273550,760590 -22360,358980 -4570,637600 81120,893660 194540,581490 399080,861830 476060,1534070 l 553350,-964190 c 103340,-401220 -109640,-1177360 -326150,-1548880 -216430,-371530 -510830,-675250 -510830,-675250 z" />
    </clipPath>
    <clipPath
       id="id22">
      <path
         id="path19650"
         d="m 13618500,13165000 c 0,0 187310,-399500 54190,-673220 -133110,-273730 -330930,-428300 -323220,-1023960 7710,-597170 97880,-1003460 413860,-1568140 79570,447890 485670,767380 590440,1234080 73140,325720 940,714310 -50710,969430 -51610,255080 -105580,543750 -105580,543750 l -177360,279960 -258860,234840 z" />
    </clipPath>
    <clipPath
       id="id23">
      <path
         id="path19653"
         d="m 13618500,13165000 c 0,0 187310,-399500 54190,-673220 -133110,-273730 -330930,-428300 -323220,-1023960 7710,-597170 97880,-1003460 413860,-1568140 79570,447890 485670,767380 590440,1234080 73140,325720 940,714310 -50710,969430 -51610,255080 -105580,543750 -105580,543750 l -177360,279960 -258860,234840 z" />
    </clipPath>
    <clipPath
       id="id24">
      <path
         id="path19656"
         d="m 16911800,4552070 c 433590,643710 547530,1439870 87670,2095870 -258350,368390 -571400,526870 -634380,622650 -63020,95740 -112310,142490 -112310,142490 0,0 -183510,-492280 -133280,-841630 50190,-349400 179940,-715170 347340,-1114240 167450,-399030 266190,-553120 320940,-688520 54790,-135450 124020,-216620 124020,-216620 z" />
    </clipPath>
    <clipPath
       id="id25">
      <path
         id="path19659"
         d="m 16911800,4552070 c 433590,643710 547530,1439870 87670,2095870 -258350,368390 -571400,526870 -634380,622650 -63020,95740 -112310,142490 -112310,142490 0,0 -183510,-492280 -133280,-841630 50190,-349400 179940,-715170 347340,-1114240 167450,-399030 266190,-553120 320940,-688520 54790,-135450 124020,-216620 124020,-216620 z" />
    </clipPath>
    <clipPath
       id="id26">
      <path
         id="path19662"
         d="m 17887700,5978240 c 0,0 1290,925810 -266960,1361400 -268250,435560 -637350,685300 -906810,897320 -269370,212020 -469810,375180 -469810,375180 0,0 -25850,-529310 118290,-1001440 144190,-472120 347860,-666860 624340,-870200 276480,-203300 480980,-405990 602200,-497390 121180,-91360 298750,-264870 298750,-264870 z" />
    </clipPath>
    <clipPath
       id="id27">
      <path
         id="path19665"
         d="m 17887700,5978240 c 0,0 1290,925810 -266960,1361400 -268250,435560 -637350,685300 -906810,897320 -269370,212020 -469810,375180 -469810,375180 0,0 -25850,-529310 118290,-1001440 144190,-472120 347860,-666860 624340,-870200 276480,-203300 480980,-405990 602200,-497390 121180,-91360 298750,-264870 298750,-264870 z" />
    </clipPath>
    <clipPath
       id="id28">
      <path
         id="path19668"
         d="m 16131400,10733900 c 361900,-208970 1045730,77950 1449170,2190 129790,-24410 317830,-56330 317830,-56330 0,0 -90380,380890 -465810,673650 -375430,292810 -755080,497480 -1190520,502810 -435400,5320 -576180,-109150 -817290,-144000 -241110,-34890 -583500,223880 -583500,223880 35320,-125180 216210,-553640 314520,-638980 283410,-246050 650400,-375480 975600,-563220 z" />
    </clipPath>
    <clipPath
       id="id29">
      <path
         id="path19671"
         d="m 16131400,10733900 c 361900,-208970 1045730,77950 1449170,2190 129790,-24410 317830,-56330 317830,-56330 0,0 -90380,380890 -465810,673650 -375430,292810 -755080,497480 -1190520,502810 -435400,5320 -576180,-109150 -817290,-144000 -241110,-34890 -583500,223880 -583500,223880 35320,-125180 216210,-553640 314520,-638980 283410,-246050 650400,-375480 975600,-563220 z" />
    </clipPath>
    <clipPath
       id="id30">
      <path
         id="path19674"
         d="m 10942800,1832570 c 0,0 127000,36610 325380,-40910 198330,-77690 429710,-137120 662420,-79710 232620,57540 369140,107730 581820,266250 212720,158560 391710,240460 391710,240460 0,0 -74910,8600 -289490,106360 -214570,97840 -551710,136470 -831330,69740 -279620,-66740 -428460,-177770 -577340,-288680 -148970,-110950 -263170,-273510 -263170,-273510 z" />
    </clipPath>
    <clipPath
       id="id31">
      <path
         id="path19677"
         d="m 10942800,1832570 c 0,0 127000,36610 325380,-40910 198330,-77690 429710,-137120 662420,-79710 232620,57540 369140,107730 581820,266250 212720,158560 391710,240460 391710,240460 0,0 -74910,8600 -289490,106360 -214570,97840 -551710,136470 -831330,69740 -279620,-66740 -428460,-177770 -577340,-288680 -148970,-110950 -263170,-273510 -263170,-273510 z" />
    </clipPath>
    <clipPath
       id="id32">
      <path
         id="path19680"
         d="m 11216900,2958840 c 0,0 127080,-36270 253820,-207250 126650,-170900 290870,-343900 518620,-418540 227850,-74720 370180,-104630 634720,-83100 264680,21650 460000,-3910 460000,-3910 0,0 -58930,47010 -188600,243550 -129710,196640 -394600,408100 -666990,499760 -272510,91830 -457710,76700 -643030,61620 -185160,-15040 -368540,-92130 -368540,-92130 z" />
    </clipPath>
    <clipPath
       id="id33">
      <path
         id="path19683"
         d="m 11216900,2958840 c 0,0 127080,-36270 253820,-207250 126650,-170900 290870,-343900 518620,-418540 227850,-74720 370180,-104630 634720,-83100 264680,21650 460000,-3910 460000,-3910 0,0 -58930,47010 -188600,243550 -129710,196640 -394600,408100 -666990,499760 -272510,91830 -457710,76700 -643030,61620 -185160,-15040 -368540,-92130 -368540,-92130 z" />
    </clipPath>
    <clipPath
       id="id34">
      <path
         id="path19686"
         d="m 13692900,11728500 c 0,0 -430870,25650 -730960,298990 -300000,273250 -391540,354850 -512030,850780 -120620,495930 -40580,550970 -113510,726940 -73060,175970 -32910,412610 -32910,412610 l 189460,-193370 180540,-208540 c 0,0 635800,-652690 750820,-808030 206650,-279220 122600,-605800 227060,-909480 31750,-92300 41530,-169900 41530,-169900 z" />
    </clipPath>
    <clipPath
       id="id35">
      <path
         id="path19689"
         d="m 13692900,11728500 c 0,0 -430870,25650 -730960,298990 -300000,273250 -391540,354850 -512030,850780 -120620,495930 -40580,550970 -113510,726940 -73060,175970 -32910,412610 -32910,412610 l 189460,-193370 180540,-208540 c 0,0 635800,-652690 750820,-808030 206650,-279220 122600,-605800 227060,-909480 31750,-92300 41530,-169900 41530,-169900 z" />
    </clipPath>
    <clipPath
       id="id36">
      <path
         id="path19692"
         d="m 14450300,12388500 c 327610,-259250 1045990,-74640 1434090,-208150 124920,-42980 306240,-101850 306240,-101850 0,0 -33810,389970 -362550,734080 -328730,344150 -674480,601760 -1104540,670260 -430010,68450 -585950,-24370 -829610,-23850 -243610,520 -766450,15300 -766450,15300 16670,-128960 354970,-288210 439830,-386960 244430,-284550 588630,-465890 882990,-698830 z" />
    </clipPath>
    <clipPath
       id="id37">
      <path
         id="path19695"
         d="m 14450300,12388500 c 327610,-259250 1045990,-74640 1434090,-208150 124920,-42980 306240,-101850 306240,-101850 0,0 -33810,389970 -362550,734080 -328730,344150 -674480,601760 -1104540,670260 -430010,68450 -585950,-24370 -829610,-23850 -243610,520 -766450,15300 -766450,15300 16670,-128960 354970,-288210 439830,-386960 244430,-284550 588630,-465890 882990,-698830 z" />
    </clipPath>
    <clipPath
       id="id38">
      <path
         id="path19698"
         d="m 14684500,13624900 c 0,0 -243780,425750 -674920,593300 -431130,167630 -560790,219540 -1129170,91960 -568300,-127540 -584190,-236860 -801180,-251380 -216950,-14490 -247190,-44950 -247190,-44950 l 6030,-37170 c 490020,-326240 1016750,-518060 1606280,-623120 390030,-69530 681810,180900 1045300,227830 110460,14260 194850,43530 194850,43530 z" />
    </clipPath>
    <clipPath
       id="id39">
      <path
         id="path19701"
         d="m 14684500,13624900 c 0,0 -243780,425750 -674920,593300 -431130,167630 -560790,219540 -1129170,91960 -568300,-127540 -584190,-236860 -801180,-251380 -216950,-14490 -247190,-44950 -247190,-44950 l 6030,-37170 c 490020,-326240 1016750,-518060 1606280,-623120 390030,-69530 681810,180900 1045300,227830 110460,14260 194850,43530 194850,43530 z" />
    </clipPath>
    <linearGradient
       id="linearGradient4476">
      <stop
         id="stop4478"
         offset="0"
         style="stop-color:#403800;stop-opacity:1;" />
      <stop
         style="stop-color:#c8af00;stop-opacity:1;"
         offset="0.5"
         id="stop3321" />
      <stop
         id="stop4480"
         offset="1"
         style="stop-color:#403900;stop-opacity:1;" />
    </linearGradient>
    <linearGradient
       y2="343.1196"
       x2="416.20303"
       y1="343.1196"
       x1="133.79698"
       gradientTransform="matrix(1.139822,0,0,1.139822,-148.07549,614.27196)"
       gradientUnits="userSpaceOnUse"
       id="linearGradient7738"
       xlink:href="#linearGradient4476"
       inkscape:collect="always" />
    <linearGradient
       id="linearGradient2892">
      <stop
         style="stop-color:#403800;stop-opacity:1;"
         offset="0"
         id="stop2894" />
      <stop
         id="stop2896"
         offset="0.5"
         style="stop-color:#c8af00;stop-opacity:1;" />
      <stop
         style="stop-color:#403900;stop-opacity:1;"
         offset="1"
         id="stop2898" />
    </linearGradient>
  </defs>
  <sodipodi:namedview
     id="base"
     pagecolor="#ffffff"
     bordercolor="#666666"
     borderopacity="1.0"
     gridtolerance="10000"
     guidetolerance="10"
     objecttolerance="10"
     inkscape:pageopacity="0.0"
     inkscape:pageshadow="2"
     inkscape:zoom="0.62098009"
     inkscape:cx="-37.843403"
     inkscape:cy="289.05919"
     inkscape:document-units="px"
     inkscape:current-layer="layer2"
     inkscape:window-width="1920"
     inkscape:window-height="1008"
     inkscape:window-x="0"
     inkscape:window-y="0"
     showgrid="false"
     height="650px"
     width="550px"
     showguides="true"
     inkscape:guide-bbox="true"
     inkscape:showpageshadow="2"
     inkscape:pagecheckerboard="0"
     inkscape:deskcolor="#d1d1d1"
     inkscape:window-maximized="1" />
  <metadata
     id="metadata3199">
    <rdf:RDF>
      <cc:Work
         rdf:about="">
        <dc:format>image/svg+xml</dc:format>
        <dc:type
           rdf:resource="http://purl.org/dc/dcmitype/StillImage" />
      </cc:Work>
    </rdf:RDF>
  </metadata>
  <g
     inkscape:groupmode="layer"
     id="layer3"
     inkscape:label="Timbre"
     transform="translate(-76.771656,30.168432)"
     style="display:inline" />
  <g
     inkscape:label="Escudo"
     inkscape:groupmode="layer"
     id="layer1"
     transform="translate(-76.771656,30.168432)"
     style="display:inline" />
  <g
     inkscape:groupmode="layer"
     id="layer4"
     inkscape:label="Piezas"
     style="display:inline"
     transform="translate(-20.342934,-46.471914)">
    <g
       id="g5818"
       inkscape:label="Piezas"
       transform="translate(873.00016,-55.320157)" />
    <g
       id="g5820"
       inkscape:label="Muebles"
       transform="translate(873.00016,-55.320157)" />
    <g
       id="g5822"
       inkscape:label="Ornamentos"
       transform="translate(873.00016,-55.320157)" />
  </g>
  <g
     inkscape:groupmode="layer"
     id="layer5"
     inkscape:label="Muebles"
     style="display:inline"
     transform="translate(-20.342934,-46.471914)">
    <g
       inkscape:label="Escudo"
       id="g5438"
       transform="translate(-582.73933,640.16742)"
       style="display:inline" />
    <g
       id="g5440"
       inkscape:label="Piezas"
       style="display:inline"
       transform="translate(-526.31061,563.52708)" />
    <g
       id="g5559"
       inkscape:label="Ornamento"
       transform="translate(-526.31061,563.52708)" />
    <g
       id="g5561"
       inkscape:label="Borde 3px"
       style="display:inline"
       transform="translate(-526.31061,563.52708)" />
  </g>
  <g
     inkscape:groupmode="layer"
     id="layer6"
     inkscape:label="Ornamentos"
     style="display:inline"
     transform="translate(-20.342934,-46.471914)" />
  <g
     inkscape:groupmode="layer"
     id="layer2"
     inkscape:label="Borde 3px"
     style="display:inline"
     transform="translate(-20.342934,-46.471914)">
    <path
       style="display:inline;fill:#e3e4e5;fill-opacity:1;fill-rule:evenodd;stroke:none;stroke-width:3;stroke-linecap:butt;stroke-linejoin:miter;stroke-miterlimit:4;stroke-dasharray:none;stroke-opacity:1"
       id="path7156"
       sodipodi:nodetypes="cccccccccc"
       d="m 25.842934,47.971914 c 0,0 0.722936,513.909346 0.539226,520.904816 -0.760536,29.40605 2.62299,58.59435 126.0547,70.65832 45.16727,3.55406 100.13357,24.77277 123.13647,58.05984 0.0967,0.12985 0.19032,0.25134 0.28547,0.37701 l 0.25376,-0.37701 c 23.00292,-33.28707 77.9692,-54.50578 123.13646,-58.05984 123.4317,-12.06397 126.81522,-41.25227 126.05468,-70.65832 -0.18368,-6.99549 0.53924,-520.904816 0.53924,-520.904816 z" />
    <path
       style="display:inline;fill:#ed1c24;fill-opacity:1;fill-rule:evenodd;stroke:#000000;stroke-width:1;stroke-linecap:butt;stroke-linejoin:miter;stroke-miterlimit:4;stroke-dasharray:none;stroke-opacity:1"
       d="m 25.660058,349.21424 c 0.13046,111.77414 0.26796,215.65494 0.1875,218.71875 -0.76054,29.40606 2.599542,58.59228 126.031252,70.65625 45.16727,3.55407 100.15335,24.77543 123.15625,58.0625 0.0967,0.12985 0.1861,0.24933 0.28125,0.375 l 0.25,-0.375 c 23.00292,-33.28707 77.95774,-54.50844 123.125,-58.0625 123.43169,-12.06396 126.82304,-41.2502 126.0625,-70.65625 -0.0804,-3.0635 0.0258,-106.92681 0.15625,-218.6875 -165.49632,0.0821 -334.20065,0.40223 -499.250002,-0.0312 z"
       id="path31236" />
    <path
       id="path4560"
       d="m 37.56729,86.80287 c 0.20428,120.74473 -0.41112,241.50283 0.31223,362.2391 3.84688,108.35657 86.78731,207.32615 192.69986,230.20965 97.98283,23.86998 207.6723,-19.0271 262.97739,-103.62122 33.12209,-47.31073 45.3201,-105.86015 42.58894,-162.85245 0,-108.65836 0,-217.31672 0,-325.97508 -166.19277,0 -332.38555,0 -498.57842,0 z"
       style="color:#000000;display:inline;overflow:visible;visibility:visible;fill:none;fill-opacity:1;fill-rule:evenodd;stroke:none;stroke-width:1;stroke-linecap:butt;stroke-linejoin:miter;stroke-miterlimit:4;stroke-dasharray:none;stroke-dashoffset:0;stroke-opacity:1;marker:none;marker-start:none;marker-mid:none;marker-end:none;enable-background:accumulate" />
    <path
       style="display:inline;fill:#0071bc;fill-opacity:1;fill-rule:evenodd;stroke:#000000;stroke-width:1;stroke-linecap:butt;stroke-linejoin:miter;stroke-miterlimit:4;stroke-dasharray:none;stroke-opacity:1"
       d="m 25.616742,349.43242 c 0.03655,31.31723 0.06104,56.09093 0.09375,84.125 h 93.812498 v -83.96875 c -31.38892,-0.0348 -62.73187,-0.0744 -93.906248,-0.15625 z m 499.249998,0.0312 c -29.93966,0.0149 -60.26599,0.0379 -90.375,0.0625 v 84.03125 h 90.28125 c 0.0292,-28.02643 0.0572,-52.7854 0.0937,-84.09375 z m -196,0.125 c -34.64683,0.0241 -69.12011,0.029 -103.75,0.0312 v 83.9375 h 103.75 z m -207.6875,85 v 80.71875 h 103.78125 v -80.71875 z m 209.40625,0 v 80.71875 h 103.75 v -80.7187 z m -304.781248,81.7188 c 0.02548,29.2667 0.03333,50.57451 0,51.84375 -0.25476,9.85011 -0.02795,19.67824 4.999998,28.84375 h 88.6875 v -80.6875 z m 199.312498,0 v 80.6875 h 103.78125 v -80.6875 z m 209.375,0 v 80.6875 h 85.21875 c 5.03569,-9.16715 5.25481,-18.99158 5,-28.84375 -0.0333,-1.26911 -0.0192,-22.58156 0,-51.84375 z m -313.3125,81.9375 v 36.84375 c 9.3053,1.3631 19.4624,2.62469 30.65625,3.71875 23.68665,1.86383 50.06655,8.60145 73.125,19.375 v -59.9375 z m 209.40625,0 v 57.65625 c 21.80315,-9.44941 46.08559,-15.36446 68.0625,-17.09375 13.25177,-1.2952 25.05959,-2.79975 35.6875,-4.46875 v -36.09375 z"
       id="path32211" />
    <g
       transform="matrix(0.09061429,0,0,0.08221781,243.00963,605.80958)"
       id="g16393"
       style="display:inline;fill:#eac102;fill-opacity:1;stroke:#000000;stroke-width:12.448;stroke-miterlimit:4;stroke-dasharray:none;stroke-opacity:1">
      <path
         d="m 407.02914,608.69929 c 1.42457,-61.95601 16.75116,-119.53947 45.28957,-174.1086 74.71442,-157.1858 302.92034,-153.43174 252.61522,38.81131 -18.53686,70.83937 -81.50861,112.47386 -156.31886,119.61501 5.39959,-18.66537 35.10029,-84.65245 11.12447,-97.56156 -38.33816,1.4484 -85.94434,67.7051 -97.39282,99.30072 -1.6527,4.5361 -1.19041,9.77801 -3.03584,14.24007"
         style="display:inline;opacity:1;fill:#eac102;fill-opacity:1;fill-rule:evenodd;stroke:#000000;stroke-width:12.448;stroke-linecap:butt;stroke-linejoin:miter;stroke-miterlimit:4;stroke-dasharray:none;stroke-opacity:1"
         id="path16395"
         sodipodi:nodetypes="ccscscc" />
      <g
         transform="translate(-38.53215,-48.5769)"
         style="display:inline;opacity:1;fill:#eac102;fill-opacity:1;stroke:#000000;stroke-width:12.448;stroke-miterlimit:4;stroke-dasharray:none;stroke-opacity:1"
         id="g16397">
        <g
           transform="translate(0,4)"
           style="fill:#eac102;fill-opacity:1;stroke:#000000;stroke-width:12.448;stroke-miterlimit:4;stroke-dasharray:none;stroke-opacity:1"
           id="g16399">
          <path
             d="M 350.52292,657.37224 C 349.09835,595.41623 333.77176,537.83277 305.23335,483.26364 230.51893,326.07784 2.3130139,329.8319 52.618133,522.07495 71.154997,592.91432 134.12674,634.54881 208.93699,641.68996 203.5374,623.02459 173.8367,557.03751 197.81252,544.1284 c 38.33816,1.4484 85.94434,67.7051 97.39282,99.30072 1.6527,4.5361 1.19041,9.77801 3.03584,14.24007"
             style="fill:#eac102;fill-opacity:1;fill-rule:evenodd;stroke:#000000;stroke-width:12.448;stroke-linecap:butt;stroke-linejoin:miter;stroke-miterlimit:4;stroke-dasharray:none;stroke-opacity:1"
             id="path16401"
             sodipodi:nodetypes="ccscscc" />
          <path
             d="m 393.6259,57.12017 c -78.7143,84.84944 -131.56461,182.96158 -108.78125,298.03125 12.56957,63.48391 43.04182,122.27973 64.53125,183.4375 13.43648,38.36985 16.87223,78.45173 15.28125,118.78125 h 66.78125 c -3.19651,-40.62617 3.80671,-79.99824 15.28125,-118.78125 20.47419,-61.5383 51.62579,-119.90553 64.53125,-183.4375 C 535.37892,236.37223 478.74399,146.7919 402.8134,57.49517 l -4.64043,-5.918268 z"
             style="fill:#eac102;fill-opacity:1;fill-rule:nonzero;stroke:#000000;stroke-width:12.448;stroke-linecap:butt;stroke-linejoin:miter;stroke-miterlimit:4;stroke-dasharray:none;stroke-opacity:1"
             id="path16403"
             sodipodi:nodetypes="csccccsccc" />
          <path
             d="m 331.34465,704.40142 c -13.96166,39.13002 -70.88818,110.79207 -101.125,131.21875 -7.84217,5.29785 37.48637,-3.05157 57.78125,-7.5 26.61901,-5.83464 61.21745,-34.19759 60.40625,-24.1875 -0.0756,45.83826 12.81104,122.32424 46.40625,157.46875 l 3.18208,3.3876 3.28667,-3.3876 c 33.57769,-39.17095 46.23761,-108.04198 46.40625,-157.46875 -0.8112,-10.01009 33.78725,18.35286 60.40625,24.1875 20.29488,4.44843 65.62342,12.79785 57.78125,7.5 -30.23682,-20.42668 -87.13207,-92.08873 -101.09375,-131.21875 z"
             style="fill:#eac102;fill-opacity:1;fill-rule:evenodd;stroke:#000000;stroke-width:12.448;stroke-linecap:butt;stroke-linejoin:miter;stroke-miterlimit:4;stroke-dasharray:none;stroke-opacity:1"
             id="path16405"
             sodipodi:nodetypes="cssscccssscc" />
          <rect
             width="317.88773"
             height="51.503345"
             x="239.3521"
             y="655.37946"
             style="fill:#eac102;fill-opacity:1;stroke:#000000;stroke-width:12.448;stroke-miterlimit:4;stroke-dasharray:none;stroke-opacity:1"
             id="rect16407" />
        </g>
      </g>
    </g>
    <g
       id="g17889"
       transform="matrix(0.9948616,0,0,1.0206119,658.05493,-186.9128)"
       style="stroke:#000000;stroke-width:1.15887;stroke-miterlimit:4;stroke-dasharray:none;stroke-opacity:1">
      <path
         sodipodi:nodetypes="ccsscscccccccssssscccsccsssscscccccccscsscccsscscccccccsssssccscccsssscccccccscsscc"
         id="path2661"
         d="m -384.47457,237.95822 c -8.50479,4.01637 -13.78583,17.41205 -13.78581,25.44424 -3.00438,-2.02281 -6.76923,-3.10487 -10.661,-3.10487 -9.27006,0 -16.72672,6.11917 -16.72672,13.70023 0,4.10316 2.19285,8.02637 6.06573,10.63415 0,-4.13852 4.12963,-7.49049 9.1905,-7.49049 5.0601,0 9.19054,3.35197 9.19052,7.49049 v 77.29988 h -74.19815 c -4.94605,0 -8.94983,-3.24809 -9.12924,-7.25763 0.17941,-4.01007 4.18319,-7.21883 9.12924,-7.21881 -0.18247,-0.18128 -0.42022,-0.33212 -0.61268,-0.50453 0.20774,-0.0115 0.4014,-0.0388 0.61268,-0.0388 -3.18853,-3.16737 -7.97234,-5.00659 -12.98926,-5.00658 -8.89342,0 -16.0905,5.69065 -16.66548,12.84638 -0.0243,0.30247 -0.0613,0.624 -0.0613,0.93146 0,0.0662 -10e-4,0.1279 0,0.19405 -0.002,0.0916 0,0.17962 0,0.27167 0.0101,0.23809 0.0363,0.46221 0.0613,0.69861 0.16731,2.7277 1.24824,5.38069 3.2473,7.56812 -9.63095,0.14064 -18.45391,4.37636 -23.28265,11.21633 0.0645,0.0913 0.11791,0.18129 0.1838,0.27165 -0.0578,0.0797 -0.12703,0.1525 -0.1838,0.23289 4.82874,6.83997 13.6517,11.07566 23.28265,11.21632 -1.99906,2.1874 -3.07999,4.84041 -3.2473,7.56812 -0.0141,0.23014 -0.0613,0.46739 -0.0613,0.69859 0,0.0921 -0.002,0.18004 0,0.27167 -10e-4,0.0662 0,0.12781 0,0.19405 0.0129,0.31344 0.0231,0.62375 0.0613,0.93146 0.58997,7.14385 7.78251,12.80756 16.66548,12.80756 5.01692,0 9.80073,-1.80038 12.98926,-4.96777 -0.21128,0 -0.40494,-0.0273 -0.61268,-0.0388 0.19246,-0.17243 0.43021,-0.32326 0.61268,-0.50455 -4.94605,5e-5 -8.94983,-3.20877 -9.12924,-7.21881 0.15871,-4.02489 4.16965,-7.25764 9.12924,-7.25764 h 74.19815 v 82.07296 c 2e-5,4.13854 -4.13042,7.49051 -9.19052,7.49051 -5.06087,0 -9.1905,-3.35197 -9.1905,-7.49051 -3.87288,2.60786 -6.06573,6.53093 -6.06573,10.63425 0,7.581 7.45666,13.70006 16.72672,13.70006 3.89177,0 7.65662,-1.08203 10.661,-3.10483 -2e-5,8.0322 5.28102,21.428 13.78581,25.44424 8.50555,-4.01635 13.72451,-17.41204 13.72451,-25.44424 3.00442,2.0228 6.76855,3.10483 10.66101,3.10483 9.26935,0 16.84928,-6.11906 16.84928,-13.70006 0,-4.10324 -2.31554,-8.02639 -6.18829,-10.63425 0,4.13854 -4.06837,7.49051 -9.12925,7.49051 -5.06017,0 -9.12926,-3.35197 -9.12926,-7.49051 v -82.07296 h 74.13691 c 4.95956,0 8.97046,3.23278 9.12922,7.25764 -0.17945,4.01004 -4.18321,7.21881 -9.12922,7.21881 0.18249,0.18129 0.42018,0.33212 0.61269,0.50455 -0.20778,0.0115 -0.4014,0.0388 -0.61269,0.0388 3.18853,3.16738 7.91104,4.96777 12.92796,4.96777 9.26934,0 16.84932,-6.15796 16.84932,-13.73902 0,-0.106 0.003,-0.20474 0,-0.31048 -0.002,-0.0529 0.002,-0.10243 0,-0.15524 0,-0.2312 -0.0469,-0.46845 -0.0613,-0.69859 -0.17082,-2.72772 -1.30582,-5.38072 -3.30862,-7.56812 9.63193,-0.14066 18.51523,-4.37634 23.34393,-11.21632 -0.0561,-0.0795 -0.12657,-0.15408 -0.18379,-0.23289 0.0651,-0.0892 0.12013,-0.18149 0.18379,-0.27165 -4.8287,-6.83999 -13.712,-11.07568 -23.34393,-11.21633 2.0028,-2.18743 3.1378,-4.84039 3.30862,-7.56812 0.0255,-0.2364 0.051,-0.46052 0.0613,-0.69861 0,-0.0656 10e-4,-0.12866 0,-0.19404 0.002,-0.0926 0,-0.17893 0,-0.27168 0,-7.58105 -7.57998,-13.77785 -16.84932,-13.77784 -5.01692,0 -9.73943,1.83921 -12.92796,5.00658 0.21129,0 0.40491,0.0273 0.61269,0.0388 -0.19251,0.17241 -0.4302,0.32325 -0.61269,0.50453 4.94601,0 8.94977,3.20879 9.12922,7.21881 -0.17945,4.00954 -4.18321,7.25763 -9.12922,7.25763 h -74.13691 v -77.29988 c 0,-4.13852 4.06909,-7.49049 9.12926,-7.49049 5.06088,0 9.12925,3.35197 9.12925,7.49049 3.87275,-2.60778 6.18829,-6.531 6.18829,-10.63415 0,-7.58103 -7.57993,-13.70023 -16.84928,-13.70023 -3.89246,0 -7.65659,1.08206 -10.66101,3.10487 0,-8.03219 -5.21896,-21.42785 -13.72451,-25.44424 z"
         style="display:inline;fill:#ed1c24;fill-opacity:1;stroke:#000000;stroke-width:1.15887;stroke-miterlimit:4;stroke-dasharray:none;stroke-opacity:1" />
      <path
         sodipodi:nodetypes="ccccccccccccc"
         id="rect31748"
         d="m -390.14875,279.97639 v 89.55587 h -87.71964 v 13.83587 h 87.71964 v 89.69327 h 11.96177 v -89.69327 h 89.04872 v -13.83587 h -89.04872 v -89.55587 z"
         style="fill:#e3e4e5;fill-opacity:1;stroke:#000000;stroke-width:1.15887;stroke-miterlimit:4;stroke-dasharray:none;stroke-opacity:1" />
    </g>
    <path
       style="display:inline;fill:none;fill-opacity:1;fill-rule:evenodd;stroke:#000000;stroke-width:3;stroke-linecap:butt;stroke-linejoin:miter;stroke-miterlimit:4;stroke-dasharray:none;stroke-opacity:1"
       id="path6563"
       sodipodi:nodetypes="cccccccccc"
       d="m 25.842934,47.971914 c 0,0 0.722946,513.909356 0.539236,520.904826 -0.760546,29.40605 2.62298,58.59435 126.05469,70.65832 45.16727,3.55405 100.13356,24.77277 123.13647,58.05984 0.0967,0.12984 0.19032,0.25133 0.28548,0.37701 l 0.25376,-0.37701 c 23.00291,-33.28707 77.96919,-54.50579 123.13646,-58.05984 123.43169,-12.06397 126.81522,-41.25227 126.05467,-70.65832 -0.18368,-6.99549 0.53924,-520.904826 0.53924,-520.904826 z" />
    <g
       transform="matrix(0.09061429,0,0,0.08221781,449.06578,436.89647)"
       id="g32221"
       style="display:inline;fill:#eac102;fill-opacity:1;stroke:#000000;stroke-width:12.448;stroke-miterlimit:4;stroke-dasharray:none;stroke-opacity:1">
      <path
         d="m 407.02914,608.69929 c 1.42457,-61.95601 16.75116,-119.53947 45.28957,-174.1086 74.71442,-157.1858 302.92034,-153.43174 252.61522,38.81131 -18.53686,70.83937 -81.50861,112.47386 -156.31886,119.61501 5.39959,-18.66537 35.10029,-84.65245 11.12447,-97.56156 -38.33816,1.4484 -85.94434,67.7051 -97.39282,99.30072 -1.6527,4.5361 -1.19041,9.77801 -3.03584,14.24007"
         style="display:inline;opacity:1;fill:#eac102;fill-opacity:1;fill-rule:evenodd;stroke:#000000;stroke-width:12.448;stroke-linecap:butt;stroke-linejoin:miter;stroke-miterlimit:4;stroke-dasharray:none;stroke-opacity:1"
         id="path32223"
         sodipodi:nodetypes="ccscscc" />
      <g
         transform="translate(-38.53215,-48.5769)"
         style="display:inline;opacity:1;fill:#eac102;fill-opacity:1;stroke:#000000;stroke-width:12.448;stroke-miterlimit:4;stroke-dasharray:none;stroke-opacity:1"
         id="g32225">
        <g
           transform="translate(0,4)"
           style="fill:#eac102;fill-opacity:1;stroke:#000000;stroke-width:12.448;stroke-miterlimit:4;stroke-dasharray:none;stroke-opacity:1"
           id="g32227">
          <path
             d="M 350.52292,657.37224 C 349.09835,595.41623 333.77176,537.83277 305.23335,483.26364 230.51893,326.07784 2.3130139,329.8319 52.618133,522.07495 71.154997,592.91432 134.12674,634.54881 208.93699,641.68996 203.5374,623.02459 173.8367,557.03751 197.81252,544.1284 c 38.33816,1.4484 85.94434,67.7051 97.39282,99.30072 1.6527,4.5361 1.19041,9.77801 3.03584,14.24007"
             style="fill:#eac102;fill-opacity:1;fill-rule:evenodd;stroke:#000000;stroke-width:12.448;stroke-linecap:butt;stroke-linejoin:miter;stroke-miterlimit:4;stroke-dasharray:none;stroke-opacity:1"
             id="path32229"
             sodipodi:nodetypes="ccscscc" />
          <path
             d="m 393.6259,57.12017 c -78.7143,84.84944 -131.56461,182.96158 -108.78125,298.03125 12.56957,63.48391 43.04182,122.27973 64.53125,183.4375 13.43648,38.36985 16.87223,78.45173 15.28125,118.78125 h 66.78125 c -3.19651,-40.62617 3.80671,-79.99824 15.28125,-118.78125 20.47419,-61.5383 51.62579,-119.90553 64.53125,-183.4375 C 535.37892,236.37223 478.74399,146.7919 402.8134,57.49517 l -4.64043,-5.918268 z"
             style="fill:#eac102;fill-opacity:1;fill-rule:nonzero;stroke:#000000;stroke-width:12.448;stroke-linecap:butt;stroke-linejoin:miter;stroke-miterlimit:4;stroke-dasharray:none;stroke-opacity:1"
             id="path32231"
             sodipodi:nodetypes="csccccsccc" />
          <path
             d="m 331.34465,704.40142 c -13.96166,39.13002 -70.88818,110.79207 -101.125,131.21875 -7.84217,5.29785 37.48637,-3.05157 57.78125,-7.5 26.61901,-5.83464 61.21745,-34.19759 60.40625,-24.1875 -0.0756,45.83826 12.81104,122.32424 46.40625,157.46875 l 3.18208,3.3876 3.28667,-3.3876 c 33.57769,-39.17095 46.23761,-108.04198 46.40625,-157.46875 -0.8112,-10.01009 33.78725,18.35286 60.40625,24.1875 20.29488,4.44843 65.62342,12.79785 57.78125,7.5 -30.23682,-20.42668 -87.13207,-92.08873 -101.09375,-131.21875 z"
             style="fill:#eac102;fill-opacity:1;fill-rule:evenodd;stroke:#000000;stroke-width:12.448;stroke-linecap:butt;stroke-linejoin:miter;stroke-miterlimit:4;stroke-dasharray:none;stroke-opacity:1"
             id="path32233"
             sodipodi:nodetypes="cssscccssscc" />
          <rect
             width="317.88773"
             height="51.503345"
             x="239.3521"
             y="655.37946"
             style="fill:#eac102;fill-opacity:1;stroke:#000000;stroke-width:12.448;stroke-miterlimit:4;stroke-dasharray:none;stroke-opacity:1"
             id="rect32235" />
        </g>
      </g>
    </g>
    <g
       transform="matrix(0.09061429,0,0,0.08221781,243.73775,352.97907)"
       id="g32237"
       style="display:inline;fill:#eac102;fill-opacity:1;stroke:#000000;stroke-width:12.448;stroke-miterlimit:4;stroke-dasharray:none;stroke-opacity:1">
      <path
         d="m 407.02914,608.69929 c 1.42457,-61.95601 16.75116,-119.53947 45.28957,-174.1086 74.71442,-157.1858 302.92034,-153.43174 252.61522,38.81131 -18.53686,70.83937 -81.50861,112.47386 -156.31886,119.61501 5.39959,-18.66537 35.10029,-84.65245 11.12447,-97.56156 -38.33816,1.4484 -85.94434,67.7051 -97.39282,99.30072 -1.6527,4.5361 -1.19041,9.77801 -3.03584,14.24007"
         style="display:inline;opacity:1;fill:#eac102;fill-opacity:1;fill-rule:evenodd;stroke:#000000;stroke-width:12.448;stroke-linecap:butt;stroke-linejoin:miter;stroke-miterlimit:4;stroke-dasharray:none;stroke-opacity:1"
         id="path32239"
         sodipodi:nodetypes="ccscscc" />
      <g
         transform="translate(-38.53215,-48.5769)"
         style="display:inline;opacity:1;fill:#eac102;fill-opacity:1;stroke:#000000;stroke-width:12.448;stroke-miterlimit:4;stroke-dasharray:none;stroke-opacity:1"
         id="g32241">
        <g
           transform="translate(0,4)"
           style="fill:#eac102;fill-opacity:1;stroke:#000000;stroke-width:12.448;stroke-miterlimit:4;stroke-dasharray:none;stroke-opacity:1"
           id="g32243">
          <path
             d="M 350.52292,657.37224 C 349.09835,595.41623 333.77176,537.83277 305.23335,483.26364 230.51893,326.07784 2.3130139,329.8319 52.618133,522.07495 71.154997,592.91432 134.12674,634.54881 208.93699,641.68996 203.5374,623.02459 173.8367,557.03751 197.81252,544.1284 c 38.33816,1.4484 85.94434,67.7051 97.39282,99.30072 1.6527,4.5361 1.19041,9.77801 3.03584,14.24007"
             style="fill:#eac102;fill-opacity:1;fill-rule:evenodd;stroke:#000000;stroke-width:12.448;stroke-linecap:butt;stroke-linejoin:miter;stroke-miterlimit:4;stroke-dasharray:none;stroke-opacity:1"
             id="path32245"
             sodipodi:nodetypes="ccscscc" />
          <path
             d="m 393.6259,57.12017 c -78.7143,84.84944 -131.56461,182.96158 -108.78125,298.03125 12.56957,63.48391 43.04182,122.27973 64.53125,183.4375 13.43648,38.36985 16.87223,78.45173 15.28125,118.78125 h 66.78125 c -3.19651,-40.62617 3.80671,-79.99824 15.28125,-118.78125 20.47419,-61.5383 51.62579,-119.90553 64.53125,-183.4375 C 535.37892,236.37223 478.74399,146.7919 402.8134,57.49517 l -4.64043,-5.918268 z"
             style="fill:#eac102;fill-opacity:1;fill-rule:nonzero;stroke:#000000;stroke-width:12.448;stroke-linecap:butt;stroke-linejoin:miter;stroke-miterlimit:4;stroke-dasharray:none;stroke-opacity:1"
             id="path32247"
             sodipodi:nodetypes="csccccsccc" />
          <path
             d="m 331.34465,704.40142 c -13.96166,39.13002 -70.88818,110.79207 -101.125,131.21875 -7.84217,5.29785 37.48637,-3.05157 57.78125,-7.5 26.61901,-5.83464 61.21745,-34.19759 60.40625,-24.1875 -0.0756,45.83826 12.81104,122.32424 46.40625,157.46875 l 3.18208,3.3876 3.28667,-3.3876 c 33.57769,-39.17095 46.23761,-108.04198 46.40625,-157.46875 -0.8112,-10.01009 33.78725,18.35286 60.40625,24.1875 20.29488,4.44843 65.62342,12.79785 57.78125,7.5 -30.23682,-20.42668 -87.13207,-92.08873 -101.09375,-131.21875 z"
             style="fill:#eac102;fill-opacity:1;fill-rule:evenodd;stroke:#000000;stroke-width:12.448;stroke-linecap:butt;stroke-linejoin:miter;stroke-miterlimit:4;stroke-dasharray:none;stroke-opacity:1"
             id="path32249"
             sodipodi:nodetypes="cssscccssscc" />
          <rect
             width="317.88773"
             height="51.503345"
             x="239.3521"
             y="655.37946"
             style="fill:#eac102;fill-opacity:1;stroke:#000000;stroke-width:12.448;stroke-miterlimit:4;stroke-dasharray:none;stroke-opacity:1"
             id="rect32251" />
        </g>
      </g>
    </g>
    <g
       transform="matrix(0.09061429,0,0,0.08221781,41.32216,437.44025)"
       id="g32253"
       style="display:inline;fill:#eac102;fill-opacity:1;stroke:#000000;stroke-width:12.448;stroke-miterlimit:4;stroke-dasharray:none;stroke-opacity:1">
      <path
         d="m 407.02914,608.69929 c 1.42457,-61.95601 16.75116,-119.53947 45.28957,-174.1086 74.71442,-157.1858 302.92034,-153.43174 252.61522,38.81131 -18.53686,70.83937 -81.50861,112.47386 -156.31886,119.61501 5.39959,-18.66537 35.10029,-84.65245 11.12447,-97.56156 -38.33816,1.4484 -85.94434,67.7051 -97.39282,99.30072 -1.6527,4.5361 -1.19041,9.77801 -3.03584,14.24007"
         style="display:inline;opacity:1;fill:#eac102;fill-opacity:1;fill-rule:evenodd;stroke:#000000;stroke-width:12.448;stroke-linecap:butt;stroke-linejoin:miter;stroke-miterlimit:4;stroke-dasharray:none;stroke-opacity:1"
         id="path32255"
         sodipodi:nodetypes="ccscscc" />
      <g
         transform="translate(-38.53215,-48.5769)"
         style="display:inline;opacity:1;fill:#eac102;fill-opacity:1;stroke:#000000;stroke-width:12.448;stroke-miterlimit:4;stroke-dasharray:none;stroke-opacity:1"
         id="g32257">
        <g
           transform="translate(0,4)"
           style="fill:#eac102;fill-opacity:1;stroke:#000000;stroke-width:12.448;stroke-miterlimit:4;stroke-dasharray:none;stroke-opacity:1"
           id="g32259">
          <path
             d="M 350.52292,657.37224 C 349.09835,595.41623 333.77176,537.83277 305.23335,483.26364 230.51893,326.07784 2.3130139,329.8319 52.618133,522.07495 71.154997,592.91432 134.12674,634.54881 208.93699,641.68996 203.5374,623.02459 173.8367,557.03751 197.81252,544.1284 c 38.33816,1.4484 85.94434,67.7051 97.39282,99.30072 1.6527,4.5361 1.19041,9.77801 3.03584,14.24007"
             style="fill:#eac102;fill-opacity:1;fill-rule:evenodd;stroke:#000000;stroke-width:12.448;stroke-linecap:butt;stroke-linejoin:miter;stroke-miterlimit:4;stroke-dasharray:none;stroke-opacity:1"
             id="path32261"
             sodipodi:nodetypes="ccscscc" />
          <path
             d="m 393.6259,57.12017 c -78.7143,84.84944 -131.56461,182.96158 -108.78125,298.03125 12.56957,63.48391 43.04182,122.27973 64.53125,183.4375 13.43648,38.36985 16.87223,78.45173 15.28125,118.78125 h 66.78125 c -3.19651,-40.62617 3.80671,-79.99824 15.28125,-118.78125 20.47419,-61.5383 51.62579,-119.90553 64.53125,-183.4375 C 535.37892,236.37223 478.74399,146.7919 402.8134,57.49517 l -4.64043,-5.918268 z"
             style="fill:#eac102;fill-opacity:1;fill-rule:nonzero;stroke:#000000;stroke-width:12.448;stroke-linecap:butt;stroke-linejoin:miter;stroke-miterlimit:4;stroke-dasharray:none;stroke-opacity:1"
             id="path32263"
             sodipodi:nodetypes="csccccsccc" />
          <path
             d="m 331.34465,704.40142 c -13.96166,39.13002 -70.88818,110.79207 -101.125,131.21875 -7.84217,5.29785 37.48637,-3.05157 57.78125,-7.5 26.61901,-5.83464 61.21745,-34.19759 60.40625,-24.1875 -0.0756,45.83826 12.81104,122.32424 46.40625,157.46875 l 3.18208,3.3876 3.28667,-3.3876 c 33.57769,-39.17095 46.23761,-108.04198 46.40625,-157.46875 -0.8112,-10.01009 33.78725,18.35286 60.40625,24.1875 20.29488,4.44843 65.62342,12.79785 57.78125,7.5 -30.23682,-20.42668 -87.13207,-92.08873 -101.09375,-131.21875 z"
             style="fill:#eac102;fill-opacity:1;fill-rule:evenodd;stroke:#000000;stroke-width:12.448;stroke-linecap:butt;stroke-linejoin:miter;stroke-miterlimit:4;stroke-dasharray:none;stroke-opacity:1"
             id="path32265"
             sodipodi:nodetypes="cssscccssscc" />
          <rect
             width="317.88773"
             height="51.503345"
             x="239.3521"
             y="655.37946"
             style="fill:#eac102;fill-opacity:1;stroke:#000000;stroke-width:12.448;stroke-miterlimit:4;stroke-dasharray:none;stroke-opacity:1"
             id="rect32267" />
        </g>
      </g>
    </g>
  </g>
</svg>
