<?xml version="1.0" encoding="UTF-8" standalone="no"?>
<svg
   viewBox="0 0 640 640"
   version="1.1"
   id="svg43"
   sodipodi:docname="armarria_Lezo.svg"
   width="640"
   height="640"
   inkscape:version="1.3.2 (091e20ef0f, 2023-11-25)"
   xmlns:inkscape="http://www.inkscape.org/namespaces/inkscape"
   xmlns:sodipodi="http://sodipodi.sourceforge.net/DTD/sodipodi-0.dtd"
   xmlns="http://www.w3.org/2000/svg"
   xmlns:svg="http://www.w3.org/2000/svg">
  <defs
     id="defs43" />
  <sodipodi:namedview
     id="namedview43"
     pagecolor="#ffffff"
     bordercolor="#000000"
     borderopacity="0.25"
     inkscape:showpageshadow="2"
     inkscape:pageopacity="0.0"
     inkscape:pagecheckerboard="0"
     inkscape:deskcolor="#d1d1d1"
     inkscape:zoom="1.2671875"
     inkscape:cx="249.76572"
     inkscape:cy="320"
     inkscape:window-width="1920"
     inkscape:window-height="1008"
     inkscape:window-x="0"
     inkscape:window-y="0"
     inkscape:window-maximized="1"
     inkscape:current-layer="svg43" />
  <g
     stroke="#000000"
     stroke-linecap="round"
     stroke-linejoin="round"
     id="g2">
    <path
       d="m 0.5,0.5 v 474.25 c 0,68.898 55.852,124.75 124.75,124.75 h 62.375 c 27.289,0 50.92,17.163 62.375,40 11.455,-22.837 35.086,-40 62.375,-40 h 62.375 c 68.898,0 124.75,-55.852 124.75,-124.75 V 0.5 Z"
       fill="#008f4c"
       id="path1" />
    <path
       d="m 0.5,0.5 v 449.25 h 499 V 0.5 Z"
       fill="#eac102"
       id="path2" />
  </g>
  <g
     stroke="#000000"
     stroke-linecap="round"
     stroke-linejoin="round"
     id="g43">
    <g
       id="g6">
      <path
         d="m 107.4297,488.3945 c -13.9212,0 -26.5235,4.3056 -35.6445,11.2715 -9.121,6.9659 -21.7226,11.2734 -35.6426,11.2734 -12.4875,0 -23.9045,-3.4745 -32.709,-9.2168 12.3284,55.9301 62.1806,97.7773 121.8164,97.7773 h 62.375 c 27.289,0 50.92,17.163 62.375,40 11.455,-22.837 35.086,-40 62.375,-40 h 62.375 c 59.6358,0 109.488,-41.8472 121.8164,-97.7773 -8.8051,5.7423 -20.2215,9.2168 -32.709,9.2168 -13.92,0 -26.5216,-4.3075 -35.6426,-11.2734 -9.121,-6.9659 -21.7245,-11.2715 -35.6445,-11.2715 -13.92,0 -26.5186,4.3056 -35.6406,11.2715 -9.122,6.9659 -21.7245,11.2734 -35.6445,11.2734 -13.919,0 -26.5216,-4.3075 -35.6426,-11.2734 -9.121,-6.9659 -21.7236,-11.2715 -35.6426,-11.2715 -13.92,0 -26.5206,4.3056 -35.6426,11.2715 -9.122,6.9659 -21.7226,11.2734 -35.6426,11.2734 -13.921,0 -26.5225,-4.3075 -35.6445,-11.2734 -9.122,-6.9659 -21.7196,-11.2715 -35.6406,-11.2715 z"
         fill="#e5e5e5"
         id="path3" />
      <path
         d="m 250,599.5 c -11.6346,0 -22.3386,3.0151 -30.8691,8.0703 7.2717,3.9197 13.8063,9.1027 19.334,15.1738 3.7062,-0.6627 7.5641,-1.0234 11.5352,-1.0234 3.9708,0 7.8289,0.3607 11.5352,1.0234 5.5281,-6.0716 12.0636,-11.254 19.3359,-15.1738 C 272.3408,602.515 261.6339,599.5 250.0001,599.5 Z"
         fill="#0071bc"
         id="path4" />
      <path
         d="m 107.4297,555.0586 c -13.9212,0 -26.5235,4.3056 -35.6445,11.2715 -5.5099,4.2081 -12.2955,7.4359 -19.8691,9.3398 6.4768,4.7145 13.4244,8.8204 20.7598,12.2344 9.0432,-6.5795 21.2748,-10.625 34.7539,-10.625 13.921,0 26.5186,4.3056 35.6406,11.2715 7.6896,5.8721 17.8567,9.8434 29.1973,10.9492 h 12.8926 c 11.3401,-1.1058 21.5076,-5.0771 29.1973,-10.9492 9.122,-6.9659 21.7226,-11.2715 35.6426,-11.2715 13.919,0 26.5216,4.3056 35.6426,11.2715 7.6888,5.8721 17.8573,9.8434 29.1973,10.9492 h 12.8926 c 11.3402,-1.1058 21.5076,-5.0771 29.1973,-10.9492 9.122,-6.9659 21.7206,-11.2715 35.6406,-11.2715 13.4779,0 25.7106,4.0455 34.7539,10.625 7.3354,-3.414 14.2829,-7.5199 20.7598,-12.2344 -7.5737,-1.9039 -14.3592,-5.1318 -19.8691,-9.3398 -9.121,-6.9659 -21.7245,-11.2715 -35.6445,-11.2715 -13.92,0 -26.5186,4.3056 -35.6406,11.2715 -9.122,6.9659 -21.7245,11.2715 -35.6445,11.2715 -13.919,0 -26.5216,-4.3056 -35.6426,-11.2715 -9.121,-6.9659 -21.7236,-11.2715 -35.6426,-11.2715 -13.92,0 -26.5206,4.3056 -35.6426,11.2715 -9.122,6.9659 -21.7226,11.2715 -35.6426,11.2715 -13.921,0 -26.5225,-4.3056 -35.6445,-11.2715 -9.122,-6.9659 -21.7196,-11.2715 -35.6406,-11.2715 z"
         fill="#0071bc"
         id="path5" />
      <path
         d="m 107.4297,510.6152 c -13.9211,0 -26.5235,4.3075 -35.6445,11.2734 -9.121,6.9659 -21.7226,11.2715 -35.6426,11.2715 -8.4374,0 -16.3838,-1.5911 -23.3711,-4.3887 4.5691,9.496 10.3119,18.3201 17.0293,26.2949 2.0789,0.1994 4.1921,0.3145 6.3418,0.3145 13.92,0 26.5216,-4.3056 35.6426,-11.2715 9.121,-6.9659 21.7234,-11.2734 35.6445,-11.2734 13.9211,0 26.5186,4.3075 35.6406,11.2734 9.122,6.9659 21.724,11.2715 35.6445,11.2715 13.9205,0 26.5206,-4.3056 35.6426,-11.2715 9.122,-6.9659 21.7231,-11.2734 35.6426,-11.2734 13.9195,0 26.5216,4.3075 35.6426,11.2734 9.121,6.9659 21.7231,11.2715 35.6426,11.2715 13.9195,0 26.5225,-4.3056 35.6445,-11.2715 9.122,-6.9659 21.7206,-11.2734 35.6406,-11.2734 13.92,0 26.5236,4.3075 35.6445,11.2734 9.1209,6.9659 21.7226,11.2715 35.6426,11.2715 2.1497,0 4.2629,-0.1151 6.3418,-0.3145 6.7174,-7.9748 12.4602,-16.7989 17.0293,-26.2949 -6.9872,2.7976 -14.9337,4.3887 -23.3711,4.3887 -13.92,0 -26.5216,-4.3056 -35.6426,-11.2715 -9.121,-6.9659 -21.7245,-11.2734 -35.6445,-11.2734 -13.92,0 -26.5186,4.3075 -35.6406,11.2734 -9.122,6.9659 -21.725,11.2715 -35.6445,11.2715 -13.9195,0 -26.5216,-4.3056 -35.6426,-11.2715 -9.121,-6.9659 -21.7231,-11.2734 -35.6426,-11.2734 -13.9195,0 -26.5206,4.3075 -35.6426,11.2734 -9.122,6.9659 -21.7221,11.2715 -35.6426,11.2715 -13.9205,0 -26.5225,-4.3056 -35.6445,-11.2715 -9.122,-6.9659 -21.7195,-11.2734 -35.6406,-11.2734 z"
         fill="#0071bc"
         id="path6" />
    </g>
    <g
       fill="#008f4c"
       id="g8">
      <path
         d="M 87.4285,55.7948 C 88.0493,45.7855 85.9975,34.1837 80.7251,25.7917 h 8.6894 c 3.8949,8.0039 5.6007,20.232 2.7987,30.0031 z"
         id="path7" />
      <path
         d="m 106.7612,42.9104 c 15.0553,0 25.4888,9.9131 25.4888,27.1616 0,26.9624 -25.4812,45.7965 -44.7258,56.7197 C 70.027,103.1389 48.25,97.0344 48.25,70.072 c 0,-17.2485 10.4337,-27.1616 25.4887,-27.1616 5.3388,0 9.7761,1.7751 16.5113,5.8607 6.7351,-4.0855 11.1724,-5.8607 16.5113,-5.8607 z"
         id="path8" />
    </g>
    <g
       id="g18">
      <path
         d="m 399.8476,172.3079 c -2.332,8.1877 -4.5726,14.3143 -3.243,22.5018 -2.618,3.1545 -5.0322,4.9477 -6.4371,0 -3.8909,6.649 -2.7843,10.1283 -3.2185,14.5848 -2.8354,5.8868 -5.6709,4.0831 -8.5063,4.222 -0.3155,6.521 0.7183,11.7584 -1.0938,16.5037 -2.6971,0.8921 -2.763,6.5555 -8.7361,4.6056 -0.068,4.9892 -0.3698,15.7356 3.2184,20.725 -3.8564,2.7522 -6.8259,8.5398 -13.0089,5.4664 0.387,8.0417 1.5286,9.0449 3.1234,11.0373 -3.4485,5.5794 -6.5717,3.9244 -10.0203,2.7796 l 6.2073,17.2709 c -5.5175,3.3346 -4.368,7.028 -9.8857,4.2219 1.5545,5.79 -0.5328,4.4836 4.0619,11.2886 -0.6336,4.2208 -1.3518,8.6183 -2.9746,10.9906 -2.2167,3.2401 0.7227,4.6905 -4.0843,10.0761 1.3632,6.4417 3.8068,5.824 7.9201,8.6838 1.6545,6.6954 -4.0191,9.361 -7.9201,16.4103 6.9882,5.4171 9.7744,6.0549 16.1639,4.4745 l -11.6176,8.9928 c 2.7572,0.3081 6.5516,6.5993 9.0763,9.978 2.6972,3.421 7.4974,3.8288 11.7364,-0.042 3.6824,2.0161 3.589,4.0107 3.909,8.7367 6.3865,-8.5745 11.1944,-1.1106 17.0126,-3.9939 5.3898,1.6076 11.8971,3.9939 16.9418,3.9939 6.8112,0 10.7772,-0.3381 13.8359,-4.1038 8.2988,3.9119 8.6191,-4.9486 15.4408,-2.4681 2.9442,4.3365 6.7753,4.2546 14.5565,6.5719 -1.6632,-7.2239 2.4192,-7.0694 4.2598,-10.3943 4.5978,4.7739 8.425,4.1618 13.023,0.7678 -2.1037,-2.4571 -1.6131,-7.9553 -1.6796,-15.2022 -1.7021,-0.1396 -2.6697,-5.0826 -2.7837,-8.6734 2.7775,-3.6321 5.2814,-2.642 9.1249,-9.8991 -2.3669,-2.0213 -3.3638,-3.3088 -5.127,-12.3841 4.1371,5.1004 1.5561,-4.7594 5.127,-9.1088 -5.3643,-2.1636 -2.1008,-9.382 -7.4649,-17.586 4.2105,-5.9253 2.1952,-6.5183 2.2445,-16.4132 -4.7513,-6.8024 -8.1231,-3.9173 -12.8744,-20.7255 2.0301,1.6946 7.153,-8.8469 3.2187,-9.9785 -1.3619,-0.392 -8.2763,-6.0424 -8.2763,-9.979 -2.6056,-0.9004 -5.211,1.4984 -7.8166,-9.9789 4.5091,0.4789 4.1963,-4.792 4.5981,-9.2111 -3.9768,0.8234 -4.1569,-7.2294 -9.2194,-11.2891 l 3.6785,-4.6057 c -3.1146,-2.3973 -5.6556,-4.2773 -8.3166,-12.1485 1.5152,-4.1113 1.9689,-6.025 0.092,-9.6368 -0.4703,-0.9047 -10.3969,-4.5561 -11.6548,-10.6221 -1.5148,-3.0958 -0.2464,-6.021 -1.312,-9.9786 -5.6056,-1.0719 -4.5664,-9.4529 -10.3082,-9.4529 -8.0284,0 -5.676,13.0799 -10.9906,12.9914 z"
         fill="#008f4c"
         id="path9" />
      <path
         d="m 421.9917,296.8983 c -0.1791,2.1225 0.3207,1.4352 -0.9522,4.699 -0.9348,2.397 4.1002,9.2064 4.2366,9.3835 2.4001,3.1167 3.1188,-1.1909 5.9382,1.81 1.6041,1.7073 1.7836,1.2679 3.0166,2.4427 1.5825,1.5074 2.2559,-0.2602 3.661,-0.7371 1.961,-0.6657 2.5367,-0.3868 2.866,-0.3539 2.2627,0.2261 2.5128,1.0511 4.8659,2.1861 2.0416,0.9847 0.8589,-0.7033 2.6502,0.9137 1.694,1.5291 1.6953,-2.6563 3.5489,-2.0804 3.6427,1.1318 -0.4821,-2.8278 3.2866,-3.1943 2.092,-0.2033 1.7,-2.1571 3.334,-1.3145 4.1169,2.1227 -0.2831,-4.1476 0.6835,-5.2938 1.6224,-1.924 4.1098,1.7022 4.6862,-2.8445 0.3043,-2.3997 -3.832,-1.9603 -3.8052,-5.4175 0.027,-3.534 2.6788,0.1209 2.0762,-5.2026 -0.5551,-4.9043 -7.3616,-2.1235 -7.7755,-2.4767"
         fill="#008f4c"
         fill-rule="evenodd"
         id="path10" />
      <path
         d="m 368.793,268.7595 c -2.2652,1.9648 -1.4255,4.5976 -4.707,4.9614 -2.4136,0.2677 0.9544,4.3121 0.9396,8.532 -0.018,5.2505 2.6575,5.7098 6.0196,7.9697 3.3372,2.2429 0.9005,2.4422 4.1702,3.4055 2.3158,0.6822 2.9039,1.4384 4.8651,0.8001 3.1735,-1.0328 3.9709,0.9715 6.383,2.5271 2.2886,1.4758 1.5205,-2.0043 3.1679,1.8947 1.7888,4.2339 4.6727,1.6673 6.6256,-0.2057 1.7894,-1.7162 2.3257,-2.9673 4.1366,-3.7478 3.2132,-1.385 3.6886,3.791 5.7599,-0.3413 0.6313,-1.2595 3.2784,-1.9714 4.0483,-2.445 1.7973,-1.1055 2.9571,-5.8854 3.2347,-6.5794 1.3996,-3.5003 -2.2688,-5.9658 -1.4583,-7.1895 1.5016,-2.2677 2.7626,2.2576 4.159,-3.1423 2.2654,-8.7607 -5.3132,-3.3775 -2.1021,-4.8336"
         fill="#008f4c"
         fill-rule="evenodd"
         id="path11" />
      <path
         d="m 398.4938,263.1502 c -2.4672,1.8545 2.1838,2.4698 -2.1751,2.8516 -1.9932,0.1747 -0.4653,-0.4452 -0.5527,3.1553 -0.083,3.4428 0.4016,-0.2987 2.9472,2.31 1.4534,1.4895 2.1647,1.5153 2.8946,3.7971 1.0699,3.3446 3.9686,-1.2645 4.944,3.0026 0.9236,4.0404 2.1248,3.9825 3.7357,3.1124 2.3538,-1.2714 2.9929,0.1476 4.7948,-1.1712 3.3232,-2.4319 1.5412,1.1687 5.2413,2.1347 1.5441,0.4032 3.4116,-0.4733 3.7401,1.0719 0.5387,2.535 4.8777,-2.7645 5.9692,-0.3239 1.1908,2.6628 2.1793,0.9701 2.7668,-1.3013 0.9209,-3.5606 2.2716,-0.6723 4.7148,-1.2711 2.1416,-0.5249 2.7278,1.6547 4.2712,2.4572 3.283,1.7068 1.3458,-1.4005 1.5128,-4.8451 0.1952,-4.0261 1.5511,-1.328 3.366,0.3007 1.6796,1.5073 5.8772,-1.9364 4.5498,-2.0394 -3.2036,-0.2483 -2.1379,-4.4999 1.1435,-5.1035 0.8833,-0.1624 -4.9016,0.1857 1.6822,-3.8547 1.3558,-0.832 -8.6264,-2.6742 -4.3197,-5.2124"
         fill="#008f4c"
         fill-rule="evenodd"
         id="path12" />
      <path
         d="m 422.176,229.0709 c 1.5921,1.1453 1.3023,0.1344 4.1893,3.3819 1.7961,2.0203 -0.6926,3.4601 -3.3536,8.9049 -1.2507,2.5589 -2.6536,5.2104 -2.6066,6.0315 0.1546,2.702 -3.5553,1.2535 -5.1344,2.2123 -2.0325,1.2337 -3.7047,-1.951 -4.4131,1.5267 -0.2923,1.4345 -2.4079,3.4032 -3.5789,3.2092 -3.7747,-0.6254 0.6134,1.578 -3.1852,1.0625 -2.1082,-0.2861 -5.1259,0.782 -5.9502,-1.0696 -0.5136,-1.1537 -2.1279,-0.5851 -3.521,-0.9015 -1.5626,-0.3546 -3.4254,1.1867 -4.4254,0.5173 -1.0072,-0.6744 -3.6756,0.6702 -3.154,-3.5489 0.5401,-4.3686 -2.8485,0.7199 -6.3979,-2.8872 -2.1914,-2.2272 -3.8169,-1.2085 -4.9285,-3.6806 -1.6135,-3.5878 -4.9114,-1.0281 -2.5339,-3.8115 2.1934,-2.5679 2.7224,-5.5877 4.1506,-6.2133"
         fill="#008f4c"
         fill-rule="evenodd"
         id="path13" />
      <path
         d="m 435.3202,219.5561 c 1.7811,-1.0063 3.9172,-0.3223 4.6221,1.4793 1.529,3.9082 -0.8955,6.9349 -0.9284,10.4691 -0.022,2.3436 -0.6849,1.1091 -1.078,3.7104 -0.4333,2.8676 -2.0442,1.5024 -3.2088,1.1111 -2.8173,-0.9466 -1.3553,-1.6579 -3.2074,1.2575 -1.6643,2.62 -2.156,-2.1072 -1.221,2.517 0.5345,2.6437 -2.3161,-1.155 -2.9484,-0.4362 -1.4023,1.5941 -1.7931,-1.7411 -4.059,-2.1311 -2.7008,-0.4647 -2.2393,4.6411 -4.2491,-0.4029 -0.7061,-1.7721 -0.1866,-5.1797 -1.9812,-2.4317 -2.0694,3.1689 -2.1725,-6.7892 -3.2146,-7.6162 -2.2082,-1.7527 -1.9971,-1.5268 -3.138,-2.7902 -2.5648,-2.8407 1.2885,-4.5375 -0.1765,-5.0685"
         fill="#008f4c"
         fill-rule="evenodd"
         id="path14" />
      <path
         d="m 424.8101,193.3111 c 0.6958,0.943 0.1122,1.714 1.7471,2.3024 0.4504,0.1622 -1.3716,1.0454 -0.079,1.7809 0.8256,0.4697 -0.7837,1.6322 -1.2405,1.7687 -1.8723,0.5592 -1.5647,1.6178 -3.6777,3.8065 -1.3095,1.3564 -1.9369,1.0915 -2.6484,1.2458 -1.3211,0.2863 -1.3892,-0.3511 -2.5159,0.6458 -2.0461,1.8104 -2.1563,1.6974 -3.7813,1.7284 -1.0759,0.021 -1.5247,-0.077 -2.4568,0 -0.6296,0.053 -0.8339,-1.7645 -2.3395,-1.9534 -1.4752,-0.1849 -1.1519,-1.3207 -2.2354,-0.5311 -1.7703,1.2905 -1.1119,-0.9558 -1.6231,-2.6188 -0.5704,-1.8552 -1.9468,2.7979 -3.2713,0.4509 -0.8634,-1.5296 1.0504,-2.8672 0.5602,-4.6918 -0.5794,-2.1569 -1.5046,0.4195 -2.2327,-1.7073 -1.049,-3.0639 0.639,-3.2233 1.0748,-3.1673"
         fill="#008f4c"
         fill-rule="evenodd"
         id="path15" />
      <path
         d="m 410.532,319.671 c -1.7399,1.777 -1.7917,0.7972 -4.5783,5.2464 -2.2386,3.5742 1.2043,6.667 3.6652,13.8138 1.2901,3.7467 2.8991,8.1032 2.8486,9.3563 -0.1675,4.1553 3.9183,1.9725 5.6112,3.4314 2.5869,2.2291 4.1104,-2.5975 4.823,2.3688 0.3014,2.1004 2.2896,5.1431 3.911,4.9783 2.9296,-0.298 2.6478,2.4953 6.811,0.7905 3.6735,-1.5043 3.7441,-3.8052 7.0209,-2.1996 2.1589,1.0579 3.7321,1.8515 4.8361,0.8023 1.3985,-1.3293 3.8768,-0.5697 3.447,-5.5055 -0.5242,-6.0185 3.1577,1.0523 6.992,-4.4788 2.4412,-3.5214 4.2745,-2.1997 5.3863,-5.7092 1.3972,-4.4106 2.6235,-4.4268 4.6029,-7.4804 2.7673,-4.2692 -3.0553,-6.1745 -5.2793,-12.452"
         fill="#008f4c"
         fill-rule="evenodd"
         id="path16" />
      <path
         d="m 360.9141,308.5934 c -7.2486,0.4897 -7.341,8.2639 -4.2517,11.8363 1.375,1.59 1.6531,9.7026 2.6541,10.6998 1.6036,1.5975 2.7625,1.5538 4.9463,4.6351 2.6321,3.7135 4.9432,3.7977 6.2934,6.7206 2.7006,5.8464 5.2171,-1.7483 7.901,1.7469 2.2232,2.8951 4.5832,-2.3806 6.6352,1.3203 2.3176,4.1797 1.5564,1.8987 3.7425,3.132 1.8386,1.037 2.1507,-2.562 4.1727,-1.4809 2.2846,1.2216 0.4994,-3.8943 4.839,-3.8064 2.2793,0.047 4.9612,1.4279 5.8568,1.455 4.3,0.1303 1.5401,-7.0176 2.6101,-8.3824 2.2696,-2.8955 2.8654,6.0688 6.4964,1.6806 2.588,-3.1278 0.9249,-7.1482 -0.077,-11.2879 -0.7061,-2.9181 4.5705,0.9986 2.5183,-5.814 -0.4601,-1.5273 2.3954,0.3907 0.7324,-5.6455"
         fill="#008f4c"
         fill-rule="evenodd"
         id="path17" />
      <path
         d="m 418.4376,394.5335 c 1.2284,-4.0927 5.5609,-9.6144 8.6874,-12.3966 l -3.7219,-4.4239 -9.8116,8.4103 -0.6315,-8.3922 -7.5112,-0.665 -0.4646,8.408 -9.2104,-7.6412 -3.3988,4.4851 c 2.825,2.4757 7.4927,6.2085 8.6876,12.2155 1.9972,10.0391 1.2716,25.6574 0.6436,46.9022 -0.1768,5.9825 -2.1639,8.1061 -7.0784,9.3804 h 8.5465 c 1.0033,0 2.0047,-0.8548 3.0071,-1.0666 0.1685,0.1867 0.5523,1.0666 1.1982,1.0666 h 6.3044 c 0.8827,0 1.232,-0.8661 1.8366,-1.0666 0.7383,0.3332 2.1859,1.0666 3.5093,1.0666 h 5.8437 c -4.3626,-1.2095 -6.8304,-3.5193 -7.0794,-9.3803 -0.8204,-19.3208 -1.3461,-40.2735 0.6434,-46.9023 z"
         fill="#c87137"
         id="path18" />
    </g>
    <g
       fill="#008f4c"
       id="g20">
      <path
         d="m 406.9285,55.7948 c 0.6208,-10.0093 -1.431,-21.6111 -6.7034,-30.0031 h 8.6894 c 3.8949,8.0039 5.6007,20.232 2.7987,30.0031 z"
         id="path19" />
      <path
         d="m 426.2613,42.9104 c 15.0553,0 25.4888,9.9131 25.4888,27.1616 0,26.9624 -25.4812,45.7965 -44.7259,56.7197 C 389.527,103.1389 367.75,97.0344 367.75,70.072 c 0,-17.2485 10.4337,-27.1616 25.4888,-27.1616 5.3388,0 9.7761,1.7751 16.5113,5.8607 6.7351,-4.0855 11.1724,-5.8607 16.5113,-5.8607 z"
         id="path20" />
    </g>
    <g
       fill="#008f4c"
       id="g22">
      <path
         d="m 247.1786,55.7948 c 0.6208,-10.0093 -1.431,-21.6111 -6.7034,-30.0031 h 8.6894 c 3.8949,8.0039 5.6007,20.232 2.7987,30.0031 z"
         id="path21" />
      <path
         d="m 266.5113,42.9104 c 15.0553,0 25.4888,9.9131 25.4888,27.1616 0,26.9624 -25.4812,45.7965 -44.7259,56.7197 C 229.777,103.1389 208,97.0344 208,70.072 c 0,-17.2485 10.4337,-27.1616 25.4888,-27.1616 5.3388,0 9.7761,1.7751 16.5113,5.8607 6.7351,-4.0855 11.1724,-5.8607 16.5113,-5.8607 z"
         id="path22" />
    </g>
    <g
       id="g32">
      <path
         d="m 240.0976,172.3079 c -2.332,8.1877 -4.5726,14.3143 -3.243,22.5018 -2.618,3.1545 -5.0322,4.9477 -6.4371,0 -3.8909,6.649 -2.7843,10.1283 -3.2185,14.5848 -2.8354,5.8868 -5.6709,4.0831 -8.5063,4.222 -0.3155,6.521 0.7183,11.7584 -1.0938,16.5037 -2.6971,0.8921 -2.763,6.5555 -8.7361,4.6056 -0.068,4.9892 -0.3698,15.7356 3.2184,20.725 -3.8564,2.7522 -6.8259,8.5398 -13.0089,5.4664 0.387,8.0417 1.5286,9.0449 3.1234,11.0373 -3.4485,5.5794 -6.5717,3.9244 -10.0203,2.7796 l 6.2073,17.2709 c -5.5175,3.3346 -4.368,7.028 -9.8857,4.2219 1.5545,5.79 -0.5328,4.4836 4.0619,11.2886 -0.6336,4.2208 -1.3518,8.6183 -2.9746,10.9906 -2.2167,3.2401 0.7227,4.6905 -4.0843,10.0761 1.3632,6.4417 3.8068,5.824 7.9201,8.6838 1.6545,6.6954 -4.0191,9.361 -7.9201,16.4103 6.9882,5.4171 9.7744,6.0549 16.1639,4.4745 l -11.6176,8.9928 c 2.7572,0.3081 6.5516,6.5993 9.0763,9.978 2.6972,3.421 7.4974,3.8288 11.7364,-0.042 3.6824,2.0161 3.589,4.0107 3.909,8.7367 6.3865,-8.5745 11.1944,-1.1106 17.0126,-3.9939 5.3898,1.6076 11.8971,3.9939 16.9418,3.9939 6.8112,0 10.7772,-0.3381 13.8359,-4.1038 8.2988,3.9119 8.6191,-4.9486 15.4408,-2.4681 2.9442,4.3365 6.7753,4.2546 14.5565,6.5719 -1.6632,-7.2239 2.4192,-7.0694 4.2598,-10.3943 4.5978,4.7739 8.425,4.1618 13.023,0.7678 -2.1037,-2.4571 -1.6131,-7.9553 -1.6796,-15.2022 -1.7021,-0.1396 -2.6697,-5.0826 -2.7837,-8.6734 2.7775,-3.6321 5.2814,-2.642 9.1249,-9.8991 -2.3669,-2.0213 -3.3638,-3.3088 -5.127,-12.3841 4.1371,5.1004 1.5561,-4.7594 5.127,-9.1088 -5.3643,-2.1636 -2.1008,-9.382 -7.4649,-17.586 4.2105,-5.9253 2.1952,-6.5183 2.2445,-16.4132 -4.7513,-6.8024 -8.1231,-3.9173 -12.8744,-20.7255 2.0301,1.6946 7.153,-8.8469 3.2187,-9.9785 -1.3619,-0.392 -8.2763,-6.0424 -8.2763,-9.979 -2.6056,-0.9004 -5.211,1.4984 -7.8166,-9.9789 4.5091,0.4789 4.1963,-4.792 4.5981,-9.2111 -3.9768,0.8234 -4.1569,-7.2294 -9.2194,-11.2891 l 3.6785,-4.6057 c -3.1146,-2.3973 -5.6556,-4.2773 -8.3166,-12.1485 1.5152,-4.1113 1.9689,-6.025 0.092,-9.6368 -0.4703,-0.9047 -10.3969,-4.5561 -11.6548,-10.6221 -1.5148,-3.0958 -0.2464,-6.021 -1.312,-9.9786 -5.6056,-1.0719 -4.5664,-9.4529 -10.3082,-9.4529 -8.0284,0 -5.676,13.0799 -10.9906,12.9914 z"
         fill="#008f4c"
         id="path23" />
      <path
         d="m 262.2417,296.8983 c -0.1791,2.1225 0.3207,1.4352 -0.9522,4.699 -0.9348,2.397 4.1002,9.2064 4.2366,9.3835 2.4001,3.1167 3.1188,-1.1909 5.9382,1.81 1.6041,1.7073 1.7836,1.2679 3.0166,2.4427 1.5825,1.5074 2.2559,-0.2602 3.661,-0.7371 1.961,-0.6657 2.5367,-0.3868 2.866,-0.3539 2.2627,0.2261 2.5128,1.0511 4.8659,2.1861 2.0416,0.9847 0.8589,-0.7033 2.6502,0.9137 1.694,1.5291 1.6953,-2.6563 3.5489,-2.0804 3.6427,1.1318 -0.4821,-2.8278 3.2866,-3.1943 2.092,-0.2033 1.7,-2.1571 3.334,-1.3145 4.1169,2.1227 -0.2831,-4.1476 0.6835,-5.2938 1.6224,-1.924 4.1098,1.7022 4.6862,-2.8445 0.3043,-2.3997 -3.832,-1.9603 -3.8052,-5.4175 0.027,-3.534 2.6788,0.1209 2.0762,-5.2026 -0.5551,-4.9043 -7.3616,-2.1235 -7.7755,-2.4767"
         fill="#008f4c"
         fill-rule="evenodd"
         id="path24" />
      <path
         d="m 209.043,268.7595 c -2.2652,1.9648 -1.4255,4.5976 -4.707,4.9614 -2.4136,0.2677 0.9544,4.3121 0.9396,8.532 -0.018,5.2505 2.6575,5.7098 6.0196,7.9697 3.3372,2.2429 0.9005,2.4422 4.1702,3.4055 2.3158,0.6822 2.9039,1.4384 4.8651,0.8001 3.1735,-1.0328 3.9709,0.9715 6.383,2.5271 2.2886,1.4758 1.5205,-2.0043 3.1679,1.8947 1.7888,4.2339 4.6727,1.6673 6.6256,-0.2057 1.7894,-1.7162 2.3257,-2.9673 4.1366,-3.7478 3.2132,-1.385 3.6886,3.791 5.7599,-0.3413 0.6313,-1.2595 3.2784,-1.9714 4.0483,-2.445 1.7973,-1.1055 2.9571,-5.8854 3.2347,-6.5794 1.3996,-3.5003 -2.2688,-5.9658 -1.4583,-7.1895 1.5016,-2.2677 2.7626,2.2576 4.159,-3.1423 2.2654,-8.7607 -5.3132,-3.3775 -2.1021,-4.8336"
         fill="#008f4c"
         fill-rule="evenodd"
         id="path25" />
      <path
         d="m 238.7438,263.1502 c -2.4672,1.8545 2.1838,2.4698 -2.1751,2.8516 -1.9932,0.1747 -0.4653,-0.4452 -0.5527,3.1553 -0.083,3.4428 0.4016,-0.2987 2.9472,2.31 1.4534,1.4895 2.1647,1.5153 2.8946,3.7971 1.0699,3.3446 3.9686,-1.2645 4.944,3.0026 0.9236,4.0404 2.1248,3.9825 3.7357,3.1124 2.3538,-1.2714 2.9929,0.1476 4.7948,-1.1712 3.3232,-2.4319 1.5412,1.1687 5.2413,2.1347 1.5441,0.4032 3.4116,-0.4733 3.7401,1.0719 0.5387,2.535 4.8777,-2.7645 5.9692,-0.3239 1.1908,2.6628 2.1793,0.9701 2.7668,-1.3013 0.9209,-3.5606 2.2716,-0.6723 4.7148,-1.2711 2.1416,-0.5249 2.7278,1.6547 4.2712,2.4572 3.283,1.7068 1.3458,-1.4005 1.5128,-4.8451 0.1952,-4.0261 1.5511,-1.328 3.366,0.3007 1.6796,1.5073 5.8772,-1.9364 4.5498,-2.0394 -3.2036,-0.2483 -2.1379,-4.4999 1.1435,-5.1035 0.8833,-0.1624 -4.9016,0.1857 1.6822,-3.8547 1.3558,-0.832 -8.6264,-2.6742 -4.3197,-5.2124"
         fill="#008f4c"
         fill-rule="evenodd"
         id="path26" />
      <path
         d="m 262.426,229.0709 c 1.5921,1.1453 1.3023,0.1344 4.1893,3.3819 1.7961,2.0203 -0.6926,3.4601 -3.3536,8.9049 -1.2507,2.5589 -2.6536,5.2104 -2.6066,6.0315 0.1546,2.702 -3.5553,1.2535 -5.1344,2.2123 -2.0325,1.2337 -3.7047,-1.951 -4.4131,1.5267 -0.2923,1.4345 -2.4079,3.4032 -3.5789,3.2092 -3.7747,-0.6254 0.6134,1.578 -3.1852,1.0625 -2.1082,-0.2861 -5.1259,0.782 -5.9502,-1.0696 -0.5136,-1.1537 -2.1279,-0.5851 -3.521,-0.9015 -1.5626,-0.3546 -3.4254,1.1867 -4.4254,0.5173 -1.0072,-0.6744 -3.6756,0.6702 -3.154,-3.5489 0.5401,-4.3686 -2.8485,0.7199 -6.3979,-2.8872 -2.1914,-2.2272 -3.8169,-1.2085 -4.9285,-3.6806 -1.6135,-3.5878 -4.9114,-1.0281 -2.5339,-3.8115 2.1934,-2.5679 2.7224,-5.5877 4.1506,-6.2133"
         fill="#008f4c"
         fill-rule="evenodd"
         id="path27" />
      <path
         d="m 275.5702,219.5561 c 1.7811,-1.0063 3.9172,-0.3223 4.6221,1.4793 1.529,3.9082 -0.8955,6.9349 -0.9284,10.4691 -0.022,2.3436 -0.6849,1.1091 -1.078,3.7104 -0.4333,2.8676 -2.0442,1.5024 -3.2088,1.1111 -2.8173,-0.9466 -1.3553,-1.6579 -3.2074,1.2575 -1.6643,2.62 -2.156,-2.1072 -1.221,2.517 0.5345,2.6437 -2.3161,-1.155 -2.9484,-0.4362 -1.4023,1.5941 -1.7931,-1.7411 -4.059,-2.1311 -2.7008,-0.4647 -2.2393,4.6411 -4.2491,-0.4029 -0.7061,-1.7721 -0.1866,-5.1797 -1.9812,-2.4317 -2.0694,3.1689 -2.1725,-6.7892 -3.2146,-7.6162 -2.2082,-1.7527 -1.9971,-1.5268 -3.138,-2.7902 -2.5648,-2.8407 1.2885,-4.5375 -0.1765,-5.0685"
         fill="#008f4c"
         fill-rule="evenodd"
         id="path28" />
      <path
         d="m 265.0601,193.3111 c 0.6958,0.943 0.1122,1.714 1.7471,2.3024 0.4504,0.1622 -1.3716,1.0454 -0.079,1.7809 0.8256,0.4697 -0.7837,1.6322 -1.2405,1.7687 -1.8723,0.5592 -1.5647,1.6178 -3.6777,3.8065 -1.3095,1.3564 -1.9369,1.0915 -2.6484,1.2458 -1.3211,0.2863 -1.3892,-0.3511 -2.5159,0.6458 -2.0461,1.8104 -2.1563,1.6974 -3.7813,1.7284 -1.0759,0.021 -1.5247,-0.077 -2.4568,0 -0.6296,0.053 -0.8339,-1.7645 -2.3395,-1.9534 -1.4752,-0.1849 -1.1519,-1.3207 -2.2354,-0.5311 -1.7703,1.2905 -1.1119,-0.9558 -1.6231,-2.6188 -0.5704,-1.8552 -1.9468,2.7979 -3.2713,0.4509 -0.8634,-1.5296 1.0504,-2.8672 0.5602,-4.6918 -0.5794,-2.1569 -1.5046,0.4195 -2.2327,-1.7073 -1.049,-3.0639 0.639,-3.2233 1.0748,-3.1673"
         fill="#008f4c"
         fill-rule="evenodd"
         id="path29" />
      <path
         d="m 250.782,319.671 c -1.7399,1.777 -1.7917,0.7972 -4.5783,5.2464 -2.2386,3.5742 1.2043,6.667 3.6652,13.8138 1.2901,3.7467 2.8991,8.1032 2.8486,9.3563 -0.1675,4.1553 3.9183,1.9725 5.6112,3.4314 2.5869,2.2291 4.1104,-2.5975 4.823,2.3688 0.3014,2.1004 2.2896,5.1431 3.911,4.9783 2.9296,-0.298 2.6478,2.4953 6.811,0.7905 3.6735,-1.5043 3.7441,-3.8052 7.0209,-2.1996 2.1589,1.0579 3.7321,1.8515 4.8361,0.8023 1.3985,-1.3293 3.8768,-0.5697 3.447,-5.5055 -0.5242,-6.0185 3.1577,1.0523 6.992,-4.4788 2.4412,-3.5214 4.2745,-2.1997 5.3863,-5.7092 1.3972,-4.4106 2.6235,-4.4268 4.6029,-7.4804 2.7673,-4.2692 -3.0553,-6.1745 -5.2793,-12.452"
         fill="#008f4c"
         fill-rule="evenodd"
         id="path30" />
      <path
         d="m 201.1641,308.5934 c -7.2486,0.4897 -7.341,8.2639 -4.2517,11.8363 1.375,1.59 1.6531,9.7026 2.6541,10.6998 1.6036,1.5975 2.7625,1.5538 4.9463,4.6351 2.6321,3.7135 4.9432,3.7977 6.2934,6.7206 2.7006,5.8464 5.2171,-1.7483 7.901,1.7469 2.2232,2.8951 4.5832,-2.3806 6.6352,1.3203 2.3176,4.1797 1.5564,1.8987 3.7425,3.132 1.8386,1.037 2.1507,-2.562 4.1727,-1.4809 2.2846,1.2216 0.4994,-3.8943 4.839,-3.8064 2.2793,0.047 4.9612,1.4279 5.8568,1.455 4.3,0.1303 1.5401,-7.0176 2.6101,-8.3824 2.2696,-2.8955 2.8654,6.0688 6.4964,1.6806 2.588,-3.1278 0.9249,-7.1482 -0.077,-11.2879 -0.7061,-2.9181 4.5705,0.9986 2.5183,-5.814 -0.4601,-1.5273 2.3954,0.3907 0.7324,-5.6455"
         fill="#008f4c"
         fill-rule="evenodd"
         id="path31" />
      <path
         d="m 258.6876,394.5335 c 1.2284,-4.0927 5.5609,-9.6144 8.6874,-12.3966 l -3.7219,-4.4239 -9.8116,8.4103 -0.6315,-8.3922 -7.5112,-0.665 -0.4646,8.408 -9.2104,-7.6412 -3.3988,4.4851 c 2.825,2.4757 7.4927,6.2085 8.6876,12.2155 1.9972,10.0391 1.2716,25.6574 0.6436,46.9022 -0.1768,5.9825 -2.1639,8.1061 -7.0784,9.3804 h 8.5465 c 1.0033,0 2.0047,-0.8548 3.0071,-1.0666 0.1685,0.1867 0.5523,1.0666 1.1982,1.0666 h 6.3044 c 0.8827,0 1.232,-0.8661 1.8366,-1.0666 0.7383,0.3332 2.1859,1.0666 3.5093,1.0666 h 5.8437 c -4.3626,-1.2095 -6.8304,-3.5193 -7.0794,-9.3803 -0.8204,-19.3208 -1.3461,-40.2735 0.6434,-46.9023 z"
         fill="#c87137"
         id="path32" />
    </g>
    <g
       id="g42">
      <path
         d="m 80.3476,172.3079 c -2.332,8.1877 -4.5726,14.3143 -3.243,22.5018 -2.618,3.1545 -5.0322,4.9477 -6.4371,0 -3.8909,6.649 -2.7843,10.1283 -3.2185,14.5848 -2.8354,5.8868 -5.6709,4.0831 -8.5063,4.222 -0.3155,6.521 0.7183,11.7584 -1.0938,16.5037 -2.6971,0.8921 -2.763,6.5555 -8.7361,4.6056 -0.068,4.9892 -0.3698,15.7356 3.2184,20.725 -3.8564,2.7522 -6.8259,8.5398 -13.0089,5.4664 0.387,8.0417 1.5286,9.0449 3.1234,11.0373 -3.4485,5.5794 -6.5717,3.9244 -10.0203,2.7796 l 6.2073,17.2709 c -5.5175,3.3346 -4.368,7.028 -9.8857,4.2219 1.5545,5.79 -0.5328,4.4836 4.0619,11.2886 -0.6336,4.2208 -1.3518,8.6183 -2.9746,10.9906 -2.2167,3.2401 0.7227,4.6905 -4.0843,10.0761 1.3632,6.4417 3.8068,5.824 7.9201,8.6838 1.6545,6.6954 -4.0191,9.361 -7.9201,16.4103 6.9882,5.4171 9.7744,6.0549 16.1639,4.4745 l -11.6176,8.9928 c 2.7572,0.3081 6.5516,6.5993 9.0763,9.978 2.6972,3.421 7.4974,3.8288 11.7364,-0.042 3.6824,2.0161 3.589,4.0107 3.909,8.7367 6.3865,-8.5745 11.1944,-1.1106 17.0126,-3.9939 5.3898,1.6076 11.8971,3.9939 16.9418,3.9939 6.8112,0 10.7772,-0.3381 13.8359,-4.1038 8.2988,3.9119 8.6191,-4.9486 15.4408,-2.4681 2.9442,4.3365 6.7753,4.2546 14.5565,6.5719 -1.6632,-7.2239 2.4192,-7.0694 4.2598,-10.3943 4.5978,4.7739 8.425,4.1618 13.023,0.7678 -2.1037,-2.4571 -1.6131,-7.9553 -1.6796,-15.2022 -1.7021,-0.1396 -2.6697,-5.0826 -2.7837,-8.6734 2.7775,-3.6321 5.2814,-2.642 9.1249,-9.8991 -2.3669,-2.0213 -3.3638,-3.3088 -5.127,-12.3841 4.1371,5.1004 1.5561,-4.7594 5.127,-9.1088 -5.3643,-2.1636 -2.1008,-9.382 -7.4649,-17.586 4.2105,-5.9253 2.1952,-6.5183 2.2445,-16.4132 -4.7513,-6.8024 -8.1231,-3.9173 -12.8744,-20.7255 2.0301,1.6946 7.153,-8.8469 3.2187,-9.9785 -1.3619,-0.392 -8.2763,-6.0424 -8.2763,-9.979 -2.6056,-0.9004 -5.211,1.4984 -7.8166,-9.9789 4.5091,0.4789 4.1963,-4.792 4.5981,-9.2111 -3.9768,0.8234 -4.1569,-7.2294 -9.2194,-11.2891 l 3.6785,-4.6057 c -3.1146,-2.3973 -5.6556,-4.2773 -8.3166,-12.1485 1.5152,-4.1113 1.9689,-6.025 0.092,-9.6368 -0.4703,-0.9047 -10.3969,-4.5561 -11.6548,-10.6221 -1.5148,-3.0958 -0.2464,-6.021 -1.312,-9.9786 -5.6056,-1.0719 -4.5664,-9.4529 -10.3082,-9.4529 -8.0284,0 -5.676,13.0799 -10.9906,12.9914 z"
         fill="#008f4c"
         id="path33" />
      <path
         d="m 102.4917,296.8983 c -0.1791,2.1225 0.3207,1.4352 -0.9522,4.699 -0.9348,2.397 4.1002,9.2064 4.2366,9.3835 2.4001,3.1167 3.1188,-1.1909 5.9382,1.81 1.6041,1.7073 1.7836,1.2679 3.0166,2.4427 1.5825,1.5074 2.2559,-0.2602 3.661,-0.7371 1.961,-0.6657 2.5367,-0.3868 2.866,-0.3539 2.2627,0.2261 2.5128,1.0511 4.8659,2.1861 2.0416,0.9847 0.8589,-0.7033 2.6502,0.9137 1.694,1.5291 1.6953,-2.6563 3.5489,-2.0804 3.6427,1.1318 -0.4821,-2.8278 3.2866,-3.1943 2.092,-0.2033 1.7,-2.1571 3.334,-1.3145 4.1169,2.1227 -0.2831,-4.1476 0.6835,-5.2938 1.6224,-1.924 4.1098,1.7022 4.6862,-2.8445 0.3043,-2.3997 -3.832,-1.9603 -3.8052,-5.4175 0.027,-3.534 2.6788,0.1209 2.0762,-5.2026 -0.5551,-4.9043 -7.3616,-2.1235 -7.7755,-2.4767"
         fill="#008f4c"
         fill-rule="evenodd"
         id="path34" />
      <path
         d="m 49.293,268.7595 c -2.2652,1.9648 -1.4255,4.5976 -4.707,4.9614 -2.4136,0.2677 0.9544,4.3121 0.9396,8.532 -0.018,5.2505 2.6575,5.7098 6.0196,7.9697 3.3372,2.2429 0.9005,2.4422 4.1702,3.4055 2.3158,0.6822 2.9039,1.4384 4.8651,0.8001 3.1735,-1.0328 3.9709,0.9715 6.383,2.5271 2.2886,1.4758 1.5205,-2.0043 3.1679,1.8947 1.7888,4.2339 4.6727,1.6673 6.6256,-0.2057 1.7894,-1.7162 2.3257,-2.9673 4.1366,-3.7478 3.2132,-1.385 3.6886,3.791 5.7599,-0.3413 0.6313,-1.2595 3.2784,-1.9714 4.0483,-2.445 1.7973,-1.1055 2.9571,-5.8854 3.2347,-6.5794 1.3996,-3.5003 -2.2688,-5.9658 -1.4583,-7.1895 1.5016,-2.2677 2.7626,2.2576 4.159,-3.1423 2.2654,-8.7607 -5.3132,-3.3775 -2.1021,-4.8336"
         fill="#008f4c"
         fill-rule="evenodd"
         id="path35" />
      <path
         d="m 78.9938,263.1502 c -2.4672,1.8545 2.1838,2.4698 -2.1751,2.8516 -1.9932,0.1747 -0.4653,-0.4452 -0.5527,3.1553 -0.083,3.4428 0.4016,-0.2987 2.9472,2.31 1.4534,1.4895 2.1647,1.5153 2.8946,3.7971 1.0699,3.3446 3.9686,-1.2645 4.944,3.0026 0.9236,4.0404 2.1248,3.9825 3.7357,3.1124 2.3538,-1.2714 2.9929,0.1476 4.7948,-1.1712 3.3232,-2.4319 1.5412,1.1687 5.2413,2.1347 1.5441,0.4032 3.4116,-0.4733 3.7401,1.0719 0.5387,2.535 4.8777,-2.7645 5.9692,-0.3239 1.1908,2.6628 2.1793,0.9701 2.7668,-1.3013 0.9209,-3.5606 2.2716,-0.6723 4.7148,-1.2711 2.1416,-0.5249 2.7278,1.6547 4.2712,2.4572 3.283,1.7068 1.3458,-1.4005 1.5128,-4.8451 0.1952,-4.0261 1.5511,-1.328 3.366,0.3007 1.6796,1.5073 5.8772,-1.9364 4.5498,-2.0394 -3.2036,-0.2483 -2.1379,-4.4999 1.1435,-5.1035 0.8833,-0.1624 -4.9016,0.1857 1.6822,-3.8547 1.3558,-0.832 -8.6264,-2.6742 -4.3197,-5.2124"
         fill="#008f4c"
         fill-rule="evenodd"
         id="path36" />
      <path
         d="m 102.676,229.0709 c 1.5921,1.1453 1.3023,0.1344 4.1893,3.3819 1.7961,2.0203 -0.6926,3.4601 -3.3536,8.9049 -1.2507,2.5589 -2.6536,5.2104 -2.6066,6.0315 0.1546,2.702 -3.5553,1.2535 -5.1344,2.2123 -2.0325,1.2337 -3.7047,-1.951 -4.4131,1.5267 -0.2923,1.4345 -2.4079,3.4032 -3.5789,3.2092 -3.7747,-0.6254 0.6134,1.578 -3.1852,1.0625 -2.1082,-0.2861 -5.1259,0.782 -5.9502,-1.0696 -0.5136,-1.1537 -2.1279,-0.5851 -3.521,-0.9015 -1.5626,-0.3546 -3.4254,1.1867 -4.4254,0.5173 -1.0072,-0.6744 -3.6756,0.6702 -3.154,-3.5489 0.5401,-4.3686 -2.8485,0.7199 -6.3979,-2.8872 -2.1914,-2.2272 -3.8169,-1.2085 -4.9285,-3.6806 -1.6135,-3.5878 -4.9114,-1.0281 -2.5339,-3.8115 2.1934,-2.5679 2.7224,-5.5877 4.1506,-6.2133"
         fill="#008f4c"
         fill-rule="evenodd"
         id="path37" />
      <path
         d="m 115.8202,219.5561 c 1.7811,-1.0063 3.9172,-0.3223 4.6221,1.4793 1.529,3.9082 -0.8955,6.9349 -0.9284,10.4691 -0.022,2.3436 -0.6849,1.1091 -1.078,3.7104 -0.4333,2.8676 -2.0442,1.5024 -3.2088,1.1111 -2.8173,-0.9466 -1.3553,-1.6579 -3.2074,1.2575 -1.6643,2.62 -2.156,-2.1072 -1.221,2.517 0.5345,2.6437 -2.3161,-1.155 -2.9484,-0.4362 -1.4023,1.5941 -1.7931,-1.7411 -4.059,-2.1311 -2.7008,-0.4647 -2.2393,4.6411 -4.2491,-0.4029 -0.7061,-1.7721 -0.1866,-5.1797 -1.9812,-2.4317 -2.0694,3.1689 -2.1725,-6.7892 -3.2146,-7.6162 -2.2082,-1.7527 -1.9971,-1.5268 -3.138,-2.7902 -2.5648,-2.8407 1.2885,-4.5375 -0.1765,-5.0685"
         fill="#008f4c"
         fill-rule="evenodd"
         id="path38" />
      <path
         d="m 105.3101,193.3111 c 0.6958,0.943 0.1122,1.714 1.7471,2.3024 0.4504,0.1622 -1.3716,1.0454 -0.079,1.7809 0.8256,0.4697 -0.7837,1.6322 -1.2405,1.7687 -1.8723,0.5592 -1.5647,1.6178 -3.6777,3.8065 -1.3095,1.3564 -1.9369,1.0915 -2.6484,1.2458 -1.3211,0.2863 -1.3892,-0.3511 -2.5159,0.6458 -2.0461,1.8104 -2.1563,1.6974 -3.7813,1.7284 -1.0759,0.021 -1.5247,-0.077 -2.4568,0 -0.6296,0.053 -0.8339,-1.7645 -2.3395,-1.9534 -1.4752,-0.1849 -1.1519,-1.3207 -2.2354,-0.5311 -1.7703,1.2905 -1.1119,-0.9558 -1.6231,-2.6188 -0.5704,-1.8552 -1.9468,2.7979 -3.2713,0.4509 -0.8634,-1.5296 1.0504,-2.8672 0.5602,-4.6918 -0.5794,-2.1569 -1.5046,0.4195 -2.2327,-1.7073 -1.049,-3.0639 0.639,-3.2233 1.0748,-3.1673"
         fill="#008f4c"
         fill-rule="evenodd"
         id="path39" />
      <path
         d="m 91.032,319.671 c -1.7399,1.777 -1.7917,0.7972 -4.5783,5.2464 -2.2386,3.5742 1.2043,6.667 3.6652,13.8138 1.2901,3.7467 2.8991,8.1032 2.8486,9.3563 -0.1675,4.1553 3.9183,1.9725 5.6112,3.4314 2.5869,2.2291 4.1104,-2.5975 4.823,2.3688 0.3014,2.1004 2.2896,5.1431 3.911,4.9783 2.9296,-0.298 2.6478,2.4953 6.811,0.7905 3.6735,-1.5043 3.7441,-3.8052 7.0209,-2.1996 2.1589,1.0579 3.7321,1.8515 4.8361,0.8023 1.3985,-1.3293 3.8768,-0.5697 3.447,-5.5055 -0.5242,-6.0185 3.1577,1.0523 6.992,-4.4788 2.4412,-3.5214 4.2745,-2.1997 5.3863,-5.7092 1.3972,-4.4106 2.6235,-4.4268 4.6029,-7.4804 2.7673,-4.2692 -3.0553,-6.1745 -5.2793,-12.452"
         fill="#008f4c"
         fill-rule="evenodd"
         id="path40" />
      <path
         d="m 41.4141,308.5934 c -7.2486,0.4897 -7.341,8.2639 -4.2517,11.8363 1.375,1.59 1.6531,9.7026 2.6541,10.6998 1.6036,1.5975 2.7625,1.5538 4.9463,4.6351 2.6321,3.7135 4.9432,3.7977 6.2934,6.7206 2.7006,5.8464 5.2171,-1.7483 7.901,1.7469 2.2232,2.8951 4.5832,-2.3806 6.6352,1.3203 2.3176,4.1797 1.5564,1.8987 3.7425,3.132 1.8386,1.037 2.1507,-2.562 4.1727,-1.4809 2.2846,1.2216 0.4994,-3.8943 4.839,-3.8064 2.2793,0.047 4.9612,1.4279 5.8568,1.455 4.3,0.1303 1.5401,-7.0176 2.6101,-8.3824 2.2696,-2.8955 2.8654,6.0688 6.4964,1.6806 2.588,-3.1278 0.9249,-7.1482 -0.077,-11.2879 -0.7061,-2.9181 4.5705,0.9986 2.5183,-5.814 -0.4601,-1.5273 2.3954,0.3907 0.7324,-5.6455"
         fill="#008f4c"
         fill-rule="evenodd"
         id="path41" />
      <path
         d="m 98.9376,394.5335 c 1.2284,-4.0927 5.5609,-9.6144 8.6874,-12.3966 l -3.7219,-4.4239 -9.8116,8.4103 -0.6315,-8.3922 -7.5112,-0.665 -0.4646,8.408 -9.2104,-7.6412 -3.3988,4.4851 c 2.825,2.4757 7.4927,6.2085 8.6876,12.2155 1.9972,10.0391 1.2716,25.6574 0.6436,46.9022 -0.1768,5.9825 -2.1639,8.1061 -7.0784,9.3804 h 8.5465 c 1.0033,0 2.0047,-0.8548 3.0071,-1.0666 0.1685,0.1867 0.5523,1.0666 1.1982,1.0666 h 6.3044 c 0.8827,0 1.232,-0.8661 1.8366,-1.0666 0.7383,0.3332 2.1859,1.0666 3.5093,1.0666 h 5.8437 c -4.3626,-1.2095 -6.8304,-3.5193 -7.0794,-9.3803 -0.8204,-19.3208 -1.3461,-40.2735 0.6434,-46.9023 z"
         fill="#c87137"
         id="path42" />
    </g>
  </g>
  <path
     d="m 1.5,1.5 v 473.25 c 0,68.35 55.4,123.75 123.75,123.75 h 62.375 c 27.18,0 50.966,17.254 62.375,40 11.409,-22.746 35.195,-40 62.375,-40 h 62.375 c 68.35,0 123.75,-55.4 123.75,-123.75 V 1.5 Z"
     fill="none"
     stroke="#000000"
     stroke-linecap="round"
     stroke-linejoin="round"
     stroke-width="3"
     id="path43" />
</svg>
