<?xml version="1.0" encoding="UTF-8" standalone="no"?>
<!-- Creator: CorelDRAW -->

<svg
   xml:space="preserve"
   width="11in"
   height="11in"
   style="fill-rule:evenodd;image-rendering:optimizeQuality;shape-rendering:geometricPrecision;text-rendering:geometricPrecision"
   viewBox="0 0 11000 11000"
   id="svg2"
   sodipodi:version="0.32"
   inkscape:version="1.3.2 (091e20ef0f, 2023-11-25)"
   sodipodi:docname="armarria_Zumaia.svg"
   version="1.1"
   xmlns:inkscape="http://www.inkscape.org/namespaces/inkscape"
   xmlns:sodipodi="http://sodipodi.sourceforge.net/DTD/sodipodi-0.dtd"
   xmlns="http://www.w3.org/2000/svg"
   xmlns:svg="http://www.w3.org/2000/svg"
   xmlns:rdf="http://www.w3.org/1999/02/22-rdf-syntax-ns#"
   xmlns:cc="http://creativecommons.org/ns#"
   xmlns:dc="http://purl.org/dc/elements/1.1/"><metadata
   id="metadata86"><rdf:RDF><cc:Work
       rdf:about=""><dc:format>image/svg+xml</dc:format><dc:type
         rdf:resource="http://purl.org/dc/dcmitype/StillImage" /></cc:Work></rdf:RDF></metadata><sodipodi:namedview
   inkscape:window-height="1008"
   inkscape:window-width="1920"
   inkscape:pageshadow="2"
   inkscape:pageopacity="0.0"
   borderopacity="1.0"
   bordercolor="#666666"
   pagecolor="#ffffff"
   id="base"
   inkscape:zoom="0.25082593"
   inkscape:cx="-645.86624"
   inkscape:cy="261.13728"
   inkscape:window-x="0"
   inkscape:window-y="0"
   inkscape:current-layer="svg2"
   showguides="true"
   inkscape:guide-bbox="true"
   showborder="false"
   inkscape:showpageshadow="2"
   inkscape:pagecheckerboard="0"
   inkscape:deskcolor="#d1d1d1"
   inkscape:document-units="in"
   inkscape:window-maximized="1" />
 <defs
   id="defs4">
  <style
   type="text/css"
   id="style6">
   
    .fil1 {fill:#00923F}
    .fil0 {fill:#0093DD}
    .fil4 {fill:#1F1A17}
    .fil3 {fill:#71625B}
    .fil2 {fill:#FFF500}
    .fil5 {fill:#FFFFFF}
   
  </style>
 
  
 
   
   
   
   
   
   
  
    
    
   </defs>
 
<g
   id="g1"
   transform="matrix(0.98290188,0,0,0.98290188,-1.5198871,42.325753)"><g
     id="g11">
    <g
   id="g13">
     <path
   style="fill:#0093dd"
   id="path15"
   d="m 8515,9271 c -472,59 -1045,-43 -1578,-468 -1044,-831 -2323,-341 -2792,0 -469,341 -1577,767 -2856,0 C 814,8518 376,8445 15,8466 v -395 c 364,-23 803,49 1274,332 1279,767 2387,341 2856,0 469,-341 1748,-831 2792,0 533,425 1106,527 1578,468 z"
   class="fil0" />
     <path
   style="fill:#0093dd"
   id="path17"
   d="m 8515,10071 c -472,59 -1045,-43 -1578,-468 -1044,-831 -2323,-341 -2792,0 -469,341 -1577,767 -2856,0 C 814,9318 376,9245 15,9266 v -395 c 364,-23 803,49 1274,332 1279,767 2387,341 2856,0 469,-341 1748,-831 2792,0 533,425 1106,527 1578,468 z"
   class="fil0" />
     <path
   style="fill:#0093dd"
   id="path19"
   d="m 8515,10871 c -472,59 -1045,-43 -1578,-468 -1044,-831 -2323,-341 -2792,0 -469,341 -1577,767 -2856,0 -475,-285 -913,-358 -1274,-337 v -395 c 364,-23 803,49 1274,332 1279,767 2387,341 2856,0 469,-341 1748,-831 2792,0 533,425 1106,527 1578,468 z"
   class="fil0" />
     <path
   style="fill:#0093dd"
   id="path21"
   d="m 6714,10998 c -839,-512 -1777,-277 -2313,0 h -703 c 182,-75 333,-162 447,-245 469,-341 1748,-831 2792,0 123,98 248,179 374,245 z m -5725,0 C 630,10841 299,10799 15,10816 v -395 c 364,-23 803,49 1274,332 170,102 336,182 498,245 z"
   class="fil0" />
    </g>
    <path
   style="fill:#0093dd"
   id="path23"
   d="m 8515,8521 c -472,59 -1045,-43 -1578,-468 -1044,-831 -2323,-341 -2792,0 -469,341 -1577,767 -2856,0 C 814,7768 376,7695 15,7716 V 2 h 8500 z"
   class="fil0" />
   </g><g
     id="g10152"><path
       style="fill:#00923f"
       id="path31"
       d="M 1414.7296,5253.6339 4186.1663,8024.338 c -134.628,96.2274 -280.2542,176.3192 -440.2943,253.4806 C 3429.4213,8430.3915 3129.7529,8590.64 2667.4805,8435.3282 1980.299,8203.0931 1522.4222,7912.9823 1414.7296,7984.0448 L 827.91476,6686.6051 v -845.4237 z"
       class="fil1"
       sodipodi:nodetypes="ccsccccc" /><path
       style="fill:#009213;fill-opacity:1"
       id="path33"
       d="M 15,5109 4064,9159 C 3557,9486 2500,9829 1289,9103 817,8820 379,8748 15,8771 Z"
       class="fil1" /></g><g
     transform="translate(250.5879,-53.5457)"
     id="g35">
    <g
   id="g37">
     <path
   style="fill:#fff500"
   id="path39"
   d="m 2760,3769 239,-239 -51,-51 83,-84 1505,1505 c 181,-153 398,-194 504,-88 115,115 55,364 -134,553 -189,189 -437,249 -553,133 -108,-108 -62,-332 98,-515 l -1071,-1071 -239,239 -89,-90 69,-69 -198,-198 -69,69 z m 1788,1237 c 134,-134 310,-176 392,-94 82,82 39,258 -95,392 -134,134 -310,176 -392,94 -82,-82 -39,-258 95,-392 z"
   class="fil2" />
     <path
   style="fill:#fff500"
   id="path41"
   d="m 5177,3812 -239,-238 51,-52 -84,-83 -1504,1504 c -181,-153 -398,-194 -504,-88 -115,115 -55,364 134,553 189,189 437,249 553,133 108,-108 62,-332 -98,-515 l 1071,-1071 239,239 89,-90 -70,-69 199,-198 69,69 z M 3389,5049 c -134,-134 -310,-176 -392,-94 -82,82 -39,258 95,392 134,134 310,176 392,94 82,-81 39,-258 -95,-392 z"
   class="fil2" />
    </g>
    <path
   style="fill:#fff500"
   id="path43"
   d="m 3982,3684 h -477 c 0,-87 6,-172 16,-252 h 922 c 11,80 17,165 17,252 z m -26,-1187 h 56 v 54 h 43 v 56 h -43 v 106 c 109,14 207,102 284,240 h -628 c 78,-140 178,-228 288,-240 v -106 h -46 v -56 h 46 z m -412,804 c 16,-78 38,-151 63,-217 h 750 c 26,66 47,139 64,217 z"
   class="fil2" />
   </g><g
     id="g45">
    <g
   id="g47">
     <path
   style="fill:#71625b"
   id="path49"
   d="m 6491,6833 c 0,0 -64,750 -643,1682 -578,932 -107,1082 611,1135 718,54 1467,-53 1467,-53 l 589,-21 V 7428 l -139,-49 -32,-418 -396,-224 H 6502 Z"
   class="fil3" />
     <path
   style="fill:#1f1a17"
   id="path51"
   d="m 6480,9639 193,-803 600,-482 -257,1307 z"
   class="fil4" />
     <path
   style="fill:#1f1a17"
   id="path53"
   d="m 6357,7423 h 1779 v 0 0 l 379,129 v 57 L 8127,7476 H 6339 Z"
   class="fil4" />
     <path
   style="fill:#1f1a17"
   id="path55"
   d="m 6165,7923 h 1804 v 0 0 l 546,187 v 57 L 7960,7977 H 6140 Z"
   class="fil4" />
     <path
   style="fill:#1f1a17"
   id="path57"
   d="m 6555,7593 h 204 v 204 h -204 z"
   class="fil4" />
     <path
   style="fill:#1f1a17"
   id="path59"
   d="m 7389,7593 h 204 v 204 h -204 z"
   class="fil4" />
    </g>
    <path
   style="fill:#71625b"
   id="path61"
   d="m 7198,6501 h 396 v 375 h -396 z"
   class="fil3" />
    <path
   style="fill:#71625b"
   id="path63"
   d="m 7564,6833 h 296 V 2173 h -296 z"
   class="fil3" />
    <g
   id="g65">
     <path
   style="fill:#1f1a17"
   id="path67"
   d="m 5165,1270 3350,2341 v 70 L 5132,1317 Z"
   class="fil4" />
     <path
   style="fill:#ffffff"
   id="path69"
   d="m 6299,2131 c -90,129 -425,50 -746,-174 -322,-225 -510,-512 -420,-641 z"
   class="fil5" />
     <path
   style="fill:#ffffff"
   id="path71"
   d="m 7479,2956 c -89,128 -425,50 -746,-174 -321,-225 -510,-513 -420,-641 z"
   class="fil5" />
     <path
   style="fill:#ffffff"
   id="path73"
   d="m 8515,4006 c -68,-34 -138,-76 -208,-125 -321,-224 -510,-512 -420,-640 l 628,438 z"
   class="fil5" />
    </g>
    <g
   id="g75">
     <path
   style="fill:#1f1a17"
   id="path77"
   d="m 5165,2772 3350,2341 v 69 L 5132,2818 Z"
   class="fil4" />
     <path
   style="fill:#ffffff"
   id="path79"
   d="m 6299,3632 c -90,129 -425,51 -746,-174 -322,-224 -510,-512 -420,-641 z"
   class="fil5" />
     <path
   style="fill:#ffffff"
   id="path81"
   d="m 7479,4457 c -89,129 -425,51 -746,-174 -321,-224 -510,-512 -420,-641 z"
   class="fil5" />
     <path
   style="fill:#ffffff"
   id="path83"
   d="m 8515,5507 c -68,-34 -138,-76 -208,-124 -321,-225 -510,-512 -420,-641 l 628,439 z"
   class="fil5" />
    </g>
   </g><path
     id="rect4982"
     d="M -88.892116,-43.062033 V 11148.289 H 8638.742 V -43.062033 Z M 4260.9007,13.321717 C 6600.4681,13.321726 8499.152,2469.7681 8499.152,5496.3945 8499.1519,8523.0207 6600.4681,10979.138 4260.9007,10979.138 1921.3332,10979.138 22.323246,8523.0209 22.323246,5496.3945 22.323247,2469.7681 1921.3332,13.321717 4260.9007,13.321717 Z"
     style="fill:#ffffff;fill-opacity:1;stroke:none" /></g></svg>
