<?xml version="1.0" encoding="UTF-8" standalone="no"?>
<!-- Created with Inkscape (http://www.inkscape.org/) -->

<svg
   width="602"
   height="602"
   id="svg3194"
   sodipodi:version="0.32"
   inkscape:version="1.3.2 (091e20ef0f, 2023-11-25)"
   version="1.0"
   sodipodi:docname="armarria_Usurbil.svg"
   inkscape:output_extension="org.inkscape.output.svg.inkscape"
   xmlns:inkscape="http://www.inkscape.org/namespaces/inkscape"
   xmlns:sodipodi="http://sodipodi.sourceforge.net/DTD/sodipodi-0.dtd"
   xmlns="http://www.w3.org/2000/svg"
   xmlns:svg="http://www.w3.org/2000/svg"
   xmlns:rdf="http://www.w3.org/1999/02/22-rdf-syntax-ns#"
   xmlns:cc="http://creativecommons.org/ns#"
   xmlns:dc="http://purl.org/dc/elements/1.1/">
  <sodipodi:namedview
     id="base"
     pagecolor="#ffffff"
     bordercolor="#666666"
     borderopacity="1.0"
     gridtolerance="10000"
     guidetolerance="10"
     objecttolerance="10"
     inkscape:pageopacity="0.0"
     inkscape:pageshadow="2"
     inkscape:zoom="0.38071125"
     inkscape:cx="294.18621"
     inkscape:cy="478.05259"
     inkscape:document-units="px"
     inkscape:current-layer="layer6"
     inkscape:window-width="1280"
     inkscape:window-height="753"
     inkscape:window-x="0"
     inkscape:window-y="0"
     showguides="true"
     showgrid="false"
     inkscape:guide-bbox="true"
     height="1023px"
     width="549.99969px"
     inkscape:showpageshadow="2"
     inkscape:pagecheckerboard="0"
     inkscape:deskcolor="#d1d1d1"
     inkscape:window-maximized="0" />
  <defs
     id="defs3196">
    <inkscape:perspective
       sodipodi:type="inkscape:persp3d"
       inkscape:vp_x="0 : 511.5 : 1"
       inkscape:vp_y="0 : 1000 : 0"
       inkscape:vp_z="549.99969 : 511.5 : 1"
       inkscape:persp3d-origin="274.99985 : 341 : 1"
       id="perspective7566" />
    <linearGradient
       id="linearGradient4476">
      <stop
         offset="0"
         style="stop-color:#403800;stop-opacity:1;"
         id="stop4478" />
      <stop
         offset="0.5"
         style="stop-color:#c8af00;stop-opacity:1;"
         id="stop3321" />
      <stop
         offset="1"
         style="stop-color:#403900;stop-opacity:1;"
         id="stop4480" />
    </linearGradient>
    <clipPath
       id="id39">
      <path
         d="m 14684500,13624900 c 0,0 -243780,425750 -674920,593300 -431130,167630 -560790,219540 -1129170,91960 -568300,-127540 -584190,-236860 -801180,-251380 -216950,-14490 -247190,-44950 -247190,-44950 l 6030,-37170 c 490020,-326240 1016750,-518060 1606280,-623120 390030,-69530 681810,180900 1045300,227830 110460,14260 194850,43530 194850,43530 z"
         id="path19701" />
    </clipPath>
    <clipPath
       id="id38">
      <path
         d="m 14684500,13624900 c 0,0 -243780,425750 -674920,593300 -431130,167630 -560790,219540 -1129170,91960 -568300,-127540 -584190,-236860 -801180,-251380 -216950,-14490 -247190,-44950 -247190,-44950 l 6030,-37170 c 490020,-326240 1016750,-518060 1606280,-623120 390030,-69530 681810,180900 1045300,227830 110460,14260 194850,43530 194850,43530 z"
         id="path19698" />
    </clipPath>
    <clipPath
       id="id37">
      <path
         d="m 14450300,12388500 c 327610,-259250 1045990,-74640 1434090,-208150 124920,-42980 306240,-101850 306240,-101850 0,0 -33810,389970 -362550,734080 -328730,344150 -674480,601760 -1104540,670260 -430010,68450 -585950,-24370 -829610,-23850 -243610,520 -766450,15300 -766450,15300 16670,-128960 354970,-288210 439830,-386960 244430,-284550 588630,-465890 882990,-698830 z"
         id="path19695" />
    </clipPath>
    <clipPath
       id="id36">
      <path
         d="m 14450300,12388500 c 327610,-259250 1045990,-74640 1434090,-208150 124920,-42980 306240,-101850 306240,-101850 0,0 -33810,389970 -362550,734080 -328730,344150 -674480,601760 -1104540,670260 -430010,68450 -585950,-24370 -829610,-23850 -243610,520 -766450,15300 -766450,15300 16670,-128960 354970,-288210 439830,-386960 244430,-284550 588630,-465890 882990,-698830 z"
         id="path19692" />
    </clipPath>
    <clipPath
       id="id35">
      <path
         d="m 13692900,11728500 c 0,0 -430870,25650 -730960,298990 -300000,273250 -391540,354850 -512030,850780 -120620,495930 -40580,550970 -113510,726940 -73060,175970 -32910,412610 -32910,412610 l 189460,-193370 180540,-208540 c 0,0 635800,-652690 750820,-808030 206650,-279220 122600,-605800 227060,-909480 31750,-92300 41530,-169900 41530,-169900 z"
         id="path19689" />
    </clipPath>
    <clipPath
       id="id34">
      <path
         d="m 13692900,11728500 c 0,0 -430870,25650 -730960,298990 -300000,273250 -391540,354850 -512030,850780 -120620,495930 -40580,550970 -113510,726940 -73060,175970 -32910,412610 -32910,412610 l 189460,-193370 180540,-208540 c 0,0 635800,-652690 750820,-808030 206650,-279220 122600,-605800 227060,-909480 31750,-92300 41530,-169900 41530,-169900 z"
         id="path19686" />
    </clipPath>
    <clipPath
       id="id33">
      <path
         d="m 11216900,2958840 c 0,0 127080,-36270 253820,-207250 126650,-170900 290870,-343900 518620,-418540 227850,-74720 370180,-104630 634720,-83100 264680,21650 460000,-3910 460000,-3910 0,0 -58930,47010 -188600,243550 -129710,196640 -394600,408100 -666990,499760 -272510,91830 -457710,76700 -643030,61620 -185160,-15040 -368540,-92130 -368540,-92130 z"
         id="path19683" />
    </clipPath>
    <clipPath
       id="id32">
      <path
         d="m 11216900,2958840 c 0,0 127080,-36270 253820,-207250 126650,-170900 290870,-343900 518620,-418540 227850,-74720 370180,-104630 634720,-83100 264680,21650 460000,-3910 460000,-3910 0,0 -58930,47010 -188600,243550 -129710,196640 -394600,408100 -666990,499760 -272510,91830 -457710,76700 -643030,61620 -185160,-15040 -368540,-92130 -368540,-92130 z"
         id="path19680" />
    </clipPath>
    <clipPath
       id="id31">
      <path
         d="m 10942800,1832570 c 0,0 127000,36610 325380,-40910 198330,-77690 429710,-137120 662420,-79710 232620,57540 369140,107730 581820,266250 212720,158560 391710,240460 391710,240460 0,0 -74910,8600 -289490,106360 -214570,97840 -551710,136470 -831330,69740 -279620,-66740 -428460,-177770 -577340,-288680 -148970,-110950 -263170,-273510 -263170,-273510 z"
         id="path19677" />
    </clipPath>
    <clipPath
       id="id30">
      <path
         d="m 10942800,1832570 c 0,0 127000,36610 325380,-40910 198330,-77690 429710,-137120 662420,-79710 232620,57540 369140,107730 581820,266250 212720,158560 391710,240460 391710,240460 0,0 -74910,8600 -289490,106360 -214570,97840 -551710,136470 -831330,69740 -279620,-66740 -428460,-177770 -577340,-288680 -148970,-110950 -263170,-273510 -263170,-273510 z"
         id="path19674" />
    </clipPath>
    <clipPath
       id="id29">
      <path
         d="m 16131400,10733900 c 361900,-208970 1045730,77950 1449170,2190 129790,-24410 317830,-56330 317830,-56330 0,0 -90380,380890 -465810,673650 -375430,292810 -755080,497480 -1190520,502810 -435400,5320 -576180,-109150 -817290,-144000 -241110,-34890 -583500,223880 -583500,223880 35320,-125180 216210,-553640 314520,-638980 283410,-246050 650400,-375480 975600,-563220 z"
         id="path19671" />
    </clipPath>
    <clipPath
       id="id28">
      <path
         d="m 16131400,10733900 c 361900,-208970 1045730,77950 1449170,2190 129790,-24410 317830,-56330 317830,-56330 0,0 -90380,380890 -465810,673650 -375430,292810 -755080,497480 -1190520,502810 -435400,5320 -576180,-109150 -817290,-144000 -241110,-34890 -583500,223880 -583500,223880 35320,-125180 216210,-553640 314520,-638980 283410,-246050 650400,-375480 975600,-563220 z"
         id="path19668" />
    </clipPath>
    <clipPath
       id="id27">
      <path
         d="m 17887700,5978240 c 0,0 1290,925810 -266960,1361400 -268250,435560 -637350,685300 -906810,897320 -269370,212020 -469810,375180 -469810,375180 0,0 -25850,-529310 118290,-1001440 144190,-472120 347860,-666860 624340,-870200 276480,-203300 480980,-405990 602200,-497390 121180,-91360 298750,-264870 298750,-264870 z"
         id="path19665" />
    </clipPath>
    <clipPath
       id="id26">
      <path
         d="m 17887700,5978240 c 0,0 1290,925810 -266960,1361400 -268250,435560 -637350,685300 -906810,897320 -269370,212020 -469810,375180 -469810,375180 0,0 -25850,-529310 118290,-1001440 144190,-472120 347860,-666860 624340,-870200 276480,-203300 480980,-405990 602200,-497390 121180,-91360 298750,-264870 298750,-264870 z"
         id="path19662" />
    </clipPath>
    <clipPath
       id="id25">
      <path
         d="m 16911800,4552070 c 433590,643710 547530,1439870 87670,2095870 -258350,368390 -571400,526870 -634380,622650 -63020,95740 -112310,142490 -112310,142490 0,0 -183510,-492280 -133280,-841630 50190,-349400 179940,-715170 347340,-1114240 167450,-399030 266190,-553120 320940,-688520 54790,-135450 124020,-216620 124020,-216620 z"
         id="path19659" />
    </clipPath>
    <clipPath
       id="id24">
      <path
         d="m 16911800,4552070 c 433590,643710 547530,1439870 87670,2095870 -258350,368390 -571400,526870 -634380,622650 -63020,95740 -112310,142490 -112310,142490 0,0 -183510,-492280 -133280,-841630 50190,-349400 179940,-715170 347340,-1114240 167450,-399030 266190,-553120 320940,-688520 54790,-135450 124020,-216620 124020,-216620 z"
         id="path19656" />
    </clipPath>
    <clipPath
       id="id23">
      <path
         d="m 13618500,13165000 c 0,0 187310,-399500 54190,-673220 -133110,-273730 -330930,-428300 -323220,-1023960 7710,-597170 97880,-1003460 413860,-1568140 79570,447890 485670,767380 590440,1234080 73140,325720 940,714310 -50710,969430 -51610,255080 -105580,543750 -105580,543750 l -177360,279960 -258860,234840 z"
         id="path19653" />
    </clipPath>
    <clipPath
       id="id22">
      <path
         d="m 13618500,13165000 c 0,0 187310,-399500 54190,-673220 -133110,-273730 -330930,-428300 -323220,-1023960 7710,-597170 97880,-1003460 413860,-1568140 79570,447890 485670,767380 590440,1234080 73140,325720 940,714310 -50710,969430 -51610,255080 -105580,543750 -105580,543750 l -177360,279960 -258860,234840 z"
         id="path19650" />
    </clipPath>
    <clipPath
       id="id21">
      <path
         d="m 14636800,8617900 c 0,0 -251150,401650 -273550,760590 -22360,358980 -4570,637600 81120,893660 194540,581490 399080,861830 476060,1534070 l 553350,-964190 c 103340,-401220 -109640,-1177360 -326150,-1548880 -216430,-371530 -510830,-675250 -510830,-675250 z"
         id="path19647" />
    </clipPath>
    <clipPath
       id="id20">
      <path
         d="m 14636800,8617900 c 0,0 -251150,401650 -273550,760590 -22360,358980 -4570,637600 81120,893660 194540,581490 399080,861830 476060,1534070 l 553350,-964190 c 103340,-401220 -109640,-1177360 -326150,-1548880 -216430,-371530 -510830,-675250 -510830,-675250 z"
         id="path19644" />
    </clipPath>
    <clipPath
       id="id19">
      <path
         d="m 16890700,8377910 c 160430,564380 234350,1467590 -95370,1986500 -178350,280730 -553650,675810 -553650,675810 l -283070,195040 -954800,184690 c 0,0 602240,-1346190 960060,-1836230 282680,-387090 591770,-860280 926830,-1205810 z"
         id="path19641" />
    </clipPath>
    <clipPath
       id="id18">
      <path
         d="m 16890700,8377910 c 160430,564380 234350,1467590 -95370,1986500 -178350,280730 -553650,675810 -553650,675810 l -283070,195040 -954800,184690 c 0,0 602240,-1346190 960060,-1836230 282680,-387090 591770,-860280 926830,-1205810 z"
         id="path19638" />
    </clipPath>
    <clipPath
       id="id17">
      <path
         d="m 14817100,7359190 c 0,0 -174940,385370 -194540,749590 -19650,364180 -5040,572500 175760,864790 180840,292330 279880,421120 505910,662700 226000,241540 329820,410930 329820,410930 0,0 288360,-134800 265660,-604690 -22660,-469930 -127300,-694580 -390550,-1119090 -263170,-424420 -476880,-536920 -575880,-665750 -99030,-128780 -116180,-298480 -116180,-298480 z"
         id="path19635" />
    </clipPath>
    <clipPath
       id="id16">
      <path
         d="m 14817100,7359190 c 0,0 -174940,385370 -194540,749590 -19650,364180 -5040,572500 175760,864790 180840,292330 279880,421120 505910,662700 226000,241540 329820,410930 329820,410930 0,0 288360,-134800 265660,-604690 -22660,-469930 -127300,-694580 -390550,-1119090 -263170,-424420 -476880,-536920 -575880,-665750 -99030,-128780 -116180,-298480 -116180,-298480 z"
         id="path19632" />
    </clipPath>
    <clipPath
       id="id15">
      <path
         d="m 14778300,5948840 c 0,0 -34250,633780 84740,1029460 119020,395680 156970,625100 395850,838580 238780,213480 333680,278020 581690,423740 248000,145670 335880,71280 471320,218980 135440,147730 96500,116620 96500,116620 0,0 47860,-416300 -139450,-881640 -187300,-465290 -250720,-698190 -727900,-1064650 -477180,-366450 -762750,-681090 -762750,-681090 z"
         id="path19629" />
    </clipPath>
    <clipPath
       id="id14">
      <path
         d="m 14778300,5948840 c 0,0 -34250,633780 84740,1029460 119020,395680 156970,625100 395850,838580 238780,213480 333680,278020 581690,423740 248000,145670 335880,71280 471320,218980 135440,147730 96500,116620 96500,116620 0,0 47860,-416300 -139450,-881640 -187300,-465290 -250720,-698190 -727900,-1064650 -477180,-366450 -762750,-681090 -762750,-681090 z"
         id="path19626" />
    </clipPath>
    <clipPath
       id="id13">
      <path
         d="m 15415100,2266750 c 0,0 -342600,800500 -374350,1331370 -31750,530820 81030,1008310 343420,1421350 262350,413120 606460,504610 680210,777900 73710,273250 120450,547450 120450,547450 0,0 251370,-775930 265280,-1354870 13960,-578910 25590,-892810 -165030,-1432610 -190580,-539800 -375000,-717570 -543350,-901230 -168400,-183750 -326630,-389360 -326630,-389360 z"
         id="path19623" />
    </clipPath>
    <clipPath
       id="id12">
      <path
         d="m 15415100,2266750 c 0,0 -342600,800500 -374350,1331370 -31750,530820 81030,1008310 343420,1421350 262350,413120 606460,504610 680210,777900 73710,273250 120450,547450 120450,547450 0,0 251370,-775930 265280,-1354870 13960,-578910 25590,-892810 -165030,-1432610 -190580,-539800 -375000,-717570 -543350,-901230 -168400,-183750 -326630,-389360 -326630,-389360 z"
         id="path19620" />
    </clipPath>
    <clipPath
       id="id11">
      <path
         d="m 12394500,3395680 c 0,0 417350,548740 639930,626900 222550,78210 494030,165230 757410,83370 263340,-81860 483000,-123110 666350,-130630 183250,-7440 475150,101360 475150,101360 0,0 -310160,-511520 -653460,-641470 -835120,-316090 -1143820,116800 -1885380,-39530 z"
         id="path19617" />
    </clipPath>
    <clipPath
       id="id10">
      <path
         d="m 12394500,3395680 c 0,0 417350,548740 639930,626900 222550,78210 494030,165230 757410,83370 263340,-81860 483000,-123110 666350,-130630 183250,-7440 475150,101360 475150,101360 0,0 -310160,-511520 -653460,-641470 -835120,-316090 -1143820,116800 -1885380,-39530 z"
         id="path19614" />
    </clipPath>
    <clipPath
       id="id9">
      <path
         d="m 13855800,1063560 c 0,0 288930,172830 540040,456700 251060,283820 613480,605590 506340,1079640 -107220,474100 -248560,480420 -287420,739830 -38850,259420 12070,430490 12070,430490 0,0 -243830,-246700 -420750,-500320 -176890,-253610 -391120,-485220 -350920,-952360 40190,-467180 70780,-600480 64830,-830540 -5940,-230070 -64190,-423440 -64190,-423440 z"
         id="path19611" />
    </clipPath>
    <clipPath
       id="id8">
      <path
         d="m 13855800,1063560 c 0,0 288930,172830 540040,456700 251060,283820 613480,605590 506340,1079640 -107220,474100 -248560,480420 -287420,739830 -38850,259420 12070,430490 12070,430490 0,0 -243830,-246700 -420750,-500320 -176890,-253610 -391120,-485220 -350920,-952360 40190,-467180 70780,-600480 64830,-830540 -5940,-230070 -64190,-423440 -64190,-423440 z"
         id="path19608" />
    </clipPath>
    <clipPath
       id="id7">
      <path
         d="m 12245000,694180 c 0,0 18490,95830 136440,200200 118030,104420 235080,236690 275310,409000 40190,172360 52860,279010 19560,472210 -33340,193150 -27310,338440 -27310,338440 0,0 -30850,-46410 -167580,-154700 -136770,-108280 -275660,-316990 -325500,-523380 -49890,-206310 -26580,-341540 -3230,-476770 23350,-135230 92310,-265000 92310,-265000 z"
         id="path19605" />
    </clipPath>
    <clipPath
       id="id6">
      <path
         d="m 12245000,694180 c 0,0 18490,95830 136440,200200 118030,104420 235080,236690 275310,409000 40190,172360 52860,279010 19560,472210 -33340,193150 -27310,338440 -27310,338440 0,0 -30850,-46410 -167580,-154700 -136770,-108280 -275660,-316990 -325500,-523380 -49890,-206310 -26580,-341540 -3230,-476770 23350,-135230 92310,-265000 92310,-265000 z"
         id="path19602" />
    </clipPath>
    <clipPath
       id="id5">
      <path
         d="m 13581500,896020 c 0,0 -73750,109400 -60270,321510 13530,212190 -380,450120 -126300,653580 -125920,203430 -215530,317730 -431820,471310 -216340,153580 -349200,298600 -349200,298600 0,0 14650,-73730 -13140,-307410 -27780,-233680 38260,-565710 187390,-810950 149100,-245230 300480,-352700 451900,-460220 151460,-107550 341440,-166420 341440,-166420 z"
         id="path19599" />
    </clipPath>
    <clipPath
       id="id4">
      <path
         d="m 13581500,896020 c 0,0 -73750,109400 -60270,321510 13530,212190 -380,450120 -126300,653580 -125920,203430 -215530,317730 -431820,471310 -216340,153580 -349200,298600 -349200,298600 0,0 14650,-73730 -13140,-307410 -27780,-233680 38260,-565710 187390,-810950 149100,-245230 300480,-352700 451900,-460220 151460,-107550 341440,-166420 341440,-166420 z"
         id="path19596" />
    </clipPath>
    <clipPath
       id="id3">
      <path
         d="m 17905000,7712850 c 168520,651560 60740,1647200 -524010,2079400 -361860,267500 -703730,314770 -1004210,391560 -300430,76830 -496090,173470 -496090,173470 0,0 -54450,-75370 -20210,-332640 34250,-257270 476240,-795050 889620,-1200870 413430,-405860 836590,-748460 955830,-881240 119200,-132780 199070,-229680 199070,-229680 z"
         id="path19593" />
    </clipPath>
    <clipPath
       id="id2">
      <path
         d="m 17905000,7712850 c 168520,651560 60740,1647200 -524010,2079400 -361860,267500 -703730,314770 -1004210,391560 -300430,76830 -496090,173470 -496090,173470 0,0 -54450,-75370 -20210,-332640 34250,-257270 476240,-795050 889620,-1200870 413430,-405860 836590,-748460 955830,-881240 119200,-132780 199070,-229680 199070,-229680 z"
         id="path19590" />
    </clipPath>
    <clipPath
       id="id1">
      <path
         d="m 14186300,5152250 c 0,0 192520,531420 469520,807850 276950,276430 478730,433880 662120,497520 183380,63600 243430,71380 468350,106740 224910,35370 538010,235520 538010,235520 0,0 -93220,-443930 -285140,-653670 -191920,-209780 -342300,-390000 -783210,-603570 -440870,-213570 -539180,-210470 -748800,-250180 -209620,-39660 -320850,-140210 -320850,-140210 z"
         id="path19587" />
    </clipPath>
    <clipPath
       id="id0">
      <path
         d="m 14186300,5152250 c 0,0 192520,531420 469520,807850 276950,276430 478730,433880 662120,497520 183380,63600 243430,71380 468350,106740 224910,35370 538010,235520 538010,235520 0,0 -93220,-443930 -285140,-653670 -191920,-209780 -342300,-390000 -783210,-603570 -440870,-213570 -539180,-210470 -748800,-250180 -209620,-39660 -320850,-140210 -320850,-140210 z"
         id="path19584" />
    </clipPath>
    <linearGradient
       id="linearGradient8135">
      <stop
         offset="0"
         style="stop-color:#5d070b;stop-opacity:1;"
         id="stop8137" />
      <stop
         offset="0.5"
         style="stop-color:#ed1c24;stop-opacity:1;"
         id="stop8139" />
      <stop
         offset="1"
         style="stop-color:#5d070a;stop-opacity:1;"
         id="stop8141" />
    </linearGradient>
  </defs>
  <metadata
     id="metadata3199">
    <rdf:RDF>
      <cc:Work
         rdf:about="">
        <dc:format>image/svg+xml</dc:format>
        <dc:type
           rdf:resource="http://purl.org/dc/dcmitype/StillImage" />
      </cc:Work>
    </rdf:RDF>
  </metadata>
  <g
     style="display:inline"
     id="layer3"
     inkscape:groupmode="layer"
     transform="translate(-78.632323,-411.35963)"
     inkscape:label="Timbre">
    <path
       style="display:inline;overflow:visible;visibility:visible;fill:none;fill-opacity:1;fill-rule:evenodd;stroke:none;stroke-width:1;stroke-linecap:butt;stroke-linejoin:miter;stroke-miterlimit:4;stroke-dasharray:none;stroke-dashoffset:0;stroke-opacity:1;marker:none;marker-start:none;marker-mid:none;marker-end:none;enable-background:accumulate"
       id="path4560"
       d="m 92.90847,346.21932 c 0.20428,120.74473 -0.41112,241.50283 0.31223,362.2391 3.84688,108.35657 86.78731,207.32615 192.69986,230.20965 97.98283,23.86995 207.6723,-19.0271 262.97739,-103.62122 33.12209,-47.31073 45.3201,-105.86015 42.58894,-162.85245 0,-108.65836 0,-217.31672 0,-325.97508 -166.19277,0 -332.38555,0 -498.57842,0 z" />
  </g>
  <g
     inkscape:label="Escudo"
     style="display:inline"
     id="layer1"
     transform="translate(-78.632323,-411.35963)"
     inkscape:groupmode="layer" />
  <g
     inkscape:label="Piezas"
     style="display:inline"
     id="layer4"
     transform="translate(-22.203602,-487.99998)"
     inkscape:groupmode="layer" />
  <g
     inkscape:label="Muebles"
     style="display:inline"
     id="layer5"
     transform="translate(-22.203602,-487.99998)"
     inkscape:groupmode="layer" />
  <g
     inkscape:label="Ornamento"
     id="layer2"
     transform="translate(-22.203602,-487.99998)"
     inkscape:groupmode="layer" />
  <g
     inkscape:label="Borde 3px"
     style="display:inline"
     id="layer6"
     transform="translate(-22.203602,-487.99998)"
     inkscape:groupmode="layer">
    <path
       style="display:inline;overflow:visible;visibility:visible;fill:#ed1c24;fill-opacity:1;fill-rule:evenodd;stroke:none;stroke-width:3;stroke-linecap:butt;stroke-linejoin:miter;stroke-miterlimit:4;stroke-dasharray:none;stroke-dashoffset:0;stroke-opacity:1;marker:none;marker-start:none;marker-mid:none;marker-end:none;enable-background:accumulate"
       id="path11309"
       d="m 23.75486,490.99995 c 0.20428,120.74472 -0.41112,241.50282 0.31223,362.23909 3.84688,108.35657 86.78731,207.32616 192.69986,230.20966 97.98283,23.8699 207.67235,-19.0271 262.97745,-103.62123 33.1221,-47.31073 45.3201,-105.86015 42.5889,-162.85245 0,-108.65836 0,-217.31672 0,-325.97507 -166.1928,0 -332.38557,0 -498.57844,0 z" />
    <path
       style="display:inline;overflow:visible;visibility:visible;fill:none;fill-opacity:1;fill-rule:evenodd;stroke:#000000;stroke-width:3;stroke-linecap:butt;stroke-linejoin:miter;stroke-miterlimit:4;stroke-dasharray:none;stroke-dashoffset:0;stroke-opacity:1;marker:none;marker-start:none;marker-mid:none;marker-end:none;enable-background:accumulate"
       id="path11503"
       d="m 23.75494,489.49998 c 0.20428,120.74471 -0.41112,241.50281 0.31223,362.23908 3.84688,108.35657 86.78731,207.32614 192.69986,230.20964 97.98283,23.87 207.67227,-19.0271 262.97737,-103.62121 33.1221,-47.31073 45.3201,-105.86015 42.5889,-162.85245 0,-108.65836 0,-217.31672 0,-325.97506 -166.1928,0 -332.38549,0 -498.57836,0 z" />
    <g
       style="display:inline;stroke:#000000;stroke-width:0.316495;stroke-miterlimit:4;stroke-dasharray:none;stroke-opacity:1"
       id="g29419"
       transform="matrix(3.0585721,0,0,3.2639711,766.38037,-1863.5473)">
      <path
         id="path29421"
         style="fill:#008f4c;fill-opacity:1;fill-rule:evenodd;stroke:#000000;stroke-width:0.316495;stroke-linecap:butt;stroke-linejoin:miter;stroke-miterlimit:4;stroke-dasharray:none;stroke-opacity:1"
         d="m -175.19422,818.80268 16.54949,9.94811 19.2602,-7.31478 -19.97354,-9.65553 z" />
      <path
         id="path29423"
         style="fill:#784421;fill-opacity:1;fill-rule:evenodd;stroke:#000000;stroke-width:0.316495;stroke-linecap:butt;stroke-linejoin:miter;stroke-miterlimit:4;stroke-dasharray:none;stroke-opacity:1"
         d="m -170.11599,816.85381 -2.97616,5.88569 6.59007,6.32166 1.48808,30.95434 -2.97616,5.6677 -10.41656,5.44971 c -5.82901,3.59866 -6.62783,5.79057 -8.50331,8.28358 l 7.86556,-4.79576 -0.63775,2.61584 c 2.81283,-2.80093 5.64067,-5.58867 11.05431,-6.10366 l 3.18874,-1.74391 c -1.35493,1.10109 -3.30825,1.15395 -4.46424,4.79575 l -3.6139,2.39788 -1.06292,3.2698 c 1.2755,-1.76591 2.551,-2.78841 3.82649,-2.83386 1.35697,2.94727 -2.41974,7.17482 -8.29073,10.46345 1.68978,0.0995 3.54469,0.23286 3.61391,0 4.10078,-1.29285 6.33522,-4.55878 7.65299,-6.75763 0.24337,-1.81655 -0.12742,-3.63315 -0.63776,-5.4497 0.68537,-2.53448 2.69248,-3.54152 4.46424,-3.48782 0.52033,0.1604 1.49191,2.17496 0.63776,5.88568 0.51634,2.80259 2.08211,3.60383 3.6139,5.23172 1.26604,2.50129 -0.95643,6.66235 -3.6139,9.15554 3.7035,-2.06075 9.95006,-4.43831 3.18874,-13.2973 l 4.03907,1.08992 c -0.76965,-1.08992 -2.17376,-2.17988 -4.46424,-3.2698 -0.71653,-3.87273 1.84444,-3.82446 3.18875,-5.23173 l -0.63776,1.52592 c 2.53838,-0.13239 2.64073,2.23319 2.97616,4.35975 l 2.97617,3.70582 -1.06292,6.10369 c 0.64142,-1.1163 1.13288,-1.15618 2.12583,-4.79578 1.77153,3.18059 3.54305,4.11265 5.31457,5.88569 l -3.18874,-4.79573 -2.33841,-5.44972 2.97616,0.87197 c -3.23421,-1.96368 -5.5542,-3.38846 -4.67682,-7.6296 l 0.63774,1.08994 1.91325,-0.218 4.46424,3.92381 5.73974,1.74389 2.76357,2.39787 -0.63774,-1.96189 h 3.82649 l -6.1649,-1.96188 -5.73975,-3.26983 -4.25165,-5.44972 1.91325,1.74392 7.4404,1.96189 8.07814,2.61586 -5.52715,-3.92379 10.84173,1.52592 -6.37749,-2.39788 -10.20398,-1.30792 -8.92848,-5.44971 2.33841,1.74391 c -1.75848,-10.97208 -1.82677,-21.94417 -2.12582,-32.91625 2.88408,-2.91391 5.34645,-4.53053 7.86556,-6.32166 l -4.46424,-5.23172 -4.03907,3.92379 0.21258,-6.97562 -4.67683,5.88568 -3.6139,-7.4116 -1.91325,8.50154 z" />
      <path
         id="path29425"
         style="fill:#008f4c;fill-opacity:1;fill-rule:evenodd;stroke:#000000;stroke-width:0.316495;stroke-linecap:butt;stroke-linejoin:miter;stroke-miterlimit:4;stroke-dasharray:none;stroke-opacity:1"
         d="m -167.67061,818.8698 -1.81587,-0.20689 1.21058,4.55165 -2.62292,-0.62068 -1.21058,2.89651 -2.42116,-0.20689 -1.41234,2.68961 -2.62292,1.24137 -2.2194,-1.44826 -3.22821,2.48272 -0.40352,-2.48272 -1.61411,1.65515 -0.60528,-1.24136 c -0.53902,1.65111 -1.52027,1.48832 -2.42116,1.65515 l -0.40353,-1.86205 c -0.94131,0.96602 -1.91286,1.87002 -3.22821,2.06894 l -0.20176,-1.65515 -2.2194,1.65515 -0.20176,-2.48272 h -1.6141 v -2.06894 l -1.00882,-0.41379 c -0.19986,-1.34431 0.91827,-2.35076 2.21939,-3.31029 h -2.42115 l 2.21939,-2.68962 c -1.54685,0.56715 -3.0937,1.34603 -4.64055,2.68962 l -1.00882,-1.65515 -1.00881,0.82758 -2.2194,0.20689 c -0.90998,-1.1724 -0.43078,-2.34479 0.80706,-3.51719 -0.58604,-1.03446 0.31103,-2.06893 1.21057,-3.1034 l -1.6141,-0.2069 c 0.3377,-0.89653 0.51006,-1.79307 3.42997,-2.68961 l -2.42115,-1.65515 c 1.92309,0.18086 3.89095,0.1781 5.4476,1.86204 l 0.20176,-2.06893 2.01763,1.65515 0.60529,-1.03447 1.41235,-1.24136 -2.2194,-0.62068 1.81587,-2.06894 -3.42998,1.65515 -1.00881,-2.06893 -2.01763,2.27582 -1.41234,-2.27582 -3.42998,0.62068 1.61411,-2.06894 -2.42116,-0.82757 1.6141,-0.82757 -0.60528,-1.03447 3.02644,0.41378 -0.40352,-1.86204 2.82468,-0.62067 h -3.8335 l 0.40353,-1.44826 h -3.42997 l 1.6141,-2.68962 -1.21058,-1.03446 2.2194,-1.44826 v -2.27583 l 2.42115,0.62068 -0.40352,-2.27582 3.42997,1.24136 -0.80705,-2.48273 h 3.22821 l 0.20176,-1.03446 -1.41234,-0.41379 0.60529,-1.24136 -2.42116,1.24136 -0.60529,-1.65515 -2.21939,1.03447 -1.41234,-1.44825 -2.01764,0.20689 v -1.44826 h 2.01764 l 0.40352,-1.65514 1.81587,0.82757 2.82468,-0.82757 -2.21939,-1.44826 3.02644,-1.03447 -1.41234,-1.24136 1.00882,-1.86204 -2.21939,-0.82757 -0.80706,-1.86204 2.82469,-0.82758 -1.41235,-1.65514 2.2194,-0.62068 -1.00882,-1.03447 1.00882,-1.03447 -1.21058,-1.86204 2.01763,-0.62068 -0.40352,-2.27583 2.01763,-0.2069 c 0,0 -0.60529,-2.48271 1.00881,-1.44825 1.61411,1.03447 5.85113,-0.20689 5.85113,-0.20689 l -0.20176,2.27583 2.62292,-0.62069 0.60529,2.27584 0.80705,-1.03447 1.41234,1.86204 1.61411,-1.03447 c -0.75906,-0.32506 -1.00212,-1.17926 -1.41234,-1.86204 l 1.81586,-0.2069 1.00882,1.44826 c 0.7398,-1.40977 1.4796,-0.90697 2.21939,-0.41378 l 0.60529,-0.82758 -1.21058,-4.75855 1.61411,-1.03447 1.21058,3.51719 1.6141,-2.06893 1.00882,1.65515 c 0.7314,-1.3836 1.54523,-2.72493 3.02645,-3.72409 0.63738,1.6191 0.72513,2.67458 0.60529,3.51719 l 1.41234,-0.62068 1.6141,1.86204 -1.00881,-3.93097 c 1.92375,-0.17959 2.60425,0.91567 3.42997,1.86204 -0.36472,-1.1724 0.25849,-2.34479 1.41234,-3.51719 l 0.60529,3.1034 0.80705,-2.06893 3.02645,-0.41379 v 2.68961 c 1.12186,-2.088 2.53564,-2.97865 4.03526,-3.51719 l 0.60529,4.13787 2.62292,-2.48272 2.01763,-0.20689 -1.21057,3.3103 2.62292,-0.2069 2.42115,-2.27582 1.21058,3.93097 c 0.47356,-0.94062 0.66584,-2.07352 2.2194,-2.27583 v 1.86204 c 1.03611,-1.19936 2.44003,-1.83301 4.23703,-1.86204 l 2.01762,1.44826 -2.42115,1.86203 2.82468,-0.62067 1.00881,1.44825 2.2194,-2.06893 c 0.59869,0.72582 -0.10533,1.78559 -1.00881,2.8965 l 4.23702,-0.62067 1.6141,1.44825 -2.42115,0.62068 1.6141,1.03447 h 1.21058 l 2.01763,-1.03447 -2.82468,3.31029 c 1.25214,0.79147 1.85621,1.71584 1.21058,2.89651 l -3.22821,-0.41378 -0.40353,0.41378 1.61411,1.65515 -2.2194,1.44826 1.00882,1.24136 -1.41235,2.68961 2.2194,-1.24136 0.60529,2.06894 c 0.63657,-1.07136 1.06723,-2.35386 2.42116,-2.68962 l 1.21058,-0.41378 0.20176,1.24135 3.22821,0.2069 -1.21058,2.48272 c 1.56548,-1.38674 2.6173,-0.66657 3.8335,-0.62068 l -2.01763,1.24136 1.41234,1.24136 -1.6141,0.41379 c 0.62568,1.19486 0.078,2.08893 -0.80706,2.8965 h 1.81587 l 0.80705,-1.44825 1.61411,0.62068 0.60529,1.44826 2.62292,-0.62069 -0.40353,1.44826 3.22821,1.03447 -1.21058,1.03447 1.41235,2.06893 -1.81587,1.44826 -1.00881,-1.44826 -0.80706,2.27583 -1.41234,-1.65515 -0.40353,2.06894 2.21939,1.03446 2.01763,-0.62068 0.80705,2.06894 0.80706,2.8965 -2.82468,-1.24136 -0.40352,2.68962 -1.21059,-0.82758 -1.21058,1.03447 1.61411,1.24137 -0.80705,1.24136 -1.81587,-0.2069 1.21058,1.44825 -1.00882,0.41379 2.82468,2.06894 0.20177,2.06893 -1.21058,0.2069 -1.41234,-1.24137 1.6141,2.27583 -0.60529,1.44825 -1.41234,-0.82757 0.40353,2.68962 c -1.59792,0.72541 -2.11796,-0.75976 -3.02645,-1.44826 l 0.80705,2.89651 c -0.83752,0.90949 -2.01643,0.41872 -3.22821,-0.20689 0.0489,1.52034 -0.54557,2.54589 -2.01763,2.89651 l -0.80705,-1.65515 -0.60529,2.06893 -1.61411,-0.41378 1.41235,2.48272 -3.02645,0.20689 1.21058,2.89651 -2.42116,0.2069 -1.6141,2.06893 -1.81587,-2.27583 -1.00882,2.89651 -2.42116,-1.24136 -2.01763,1.24136 -3.02644,-1.44826 -1.81587,2.06894 -0.80705,-1.65514 -2.01763,1.65514 -1.41235,-1.86204 -0.60528,1.86204 -1.00882,-2.89651 -2.01763,1.65515 c -0.71432,-1.37929 -0.38042,-2.75858 0.80705,-4.13787 l -2.82468,0.20689 v -2.06893 l -5.04408,2.06893 -2.2194,-2.06893 -2.21939,1.65514 -0.80706,-2.48271 -1.41234,0.62068 -1.21057,-1.65515 z" />
    </g>
    <g
       style="display:inline;stroke-width:0.844285"
       id="g19970"
       transform="matrix(1.1275344,0,0,1.2442059,-236.49868,-233.21836)">
      <path
         style="fill:#000000;fill-opacity:1;fill-rule:evenodd;stroke:#333333;stroke-width:0.844285;stroke-linecap:butt;stroke-linejoin:miter;stroke-miterlimit:4;stroke-dasharray:none;stroke-opacity:1"
         d="m 491.9482,1004.451 c -2.61073,0.232 -5.84807,2.5381 -6.22795,5.4252 0.79899,0.6113 3.75288,0.3015 4.63846,-0.238 0.24925,-1.7306 1.83592,-3.5951 1.58949,-5.1872 z"
         id="path15988"
         sodipodi:nodetypes="cccc" />
      <path
         style="fill:#000000;fill-opacity:1;fill-rule:evenodd;stroke:#333333;stroke-width:0.844285;stroke-linecap:butt;stroke-linejoin:miter;stroke-miterlimit:4;stroke-dasharray:none;stroke-opacity:1"
         d="m 378.9642,900.03798 c 0.0983,-4.09822 6.32312,-14.65512 6.59257,-11.0723 0.6862,1.72371 0.44948,3.48496 0.42957,5.2883 -1.05394,2.49882 -2.41579,4.96681 -3.90218,7.32242 l -3.51791,0.964 c 0.14675,-1.07269 0.31743,-2.05676 0.39795,-2.50242 z"
         id="path15990"
         sodipodi:nodetypes="cccccc" />
      <path
         style="fill:#000000;fill-opacity:1;fill-rule:evenodd;stroke:#333333;stroke-width:0.844285;stroke-linecap:butt;stroke-linejoin:miter;stroke-miterlimit:4;stroke-dasharray:none;stroke-opacity:1"
         d="m 383.3581,992.35041 c -2.37654,-0.50365 -5.91212,0.77446 -7.09003,3.39091 0.52832,0.79734 3.23101,1.3227 4.17154,1.05916 0.72512,-1.56241 2.67212,-2.88104 2.91849,-4.45007 z"
         id="path15992"
         sodipodi:nodetypes="cccc" />
      <path
         style="fill:#000000;fill-opacity:1;fill-rule:evenodd;stroke:#333333;stroke-width:0.844285;stroke-linecap:butt;stroke-linejoin:miter;stroke-miterlimit:4;stroke-dasharray:none;stroke-opacity:1"
         d="m 382.74779,989.87968 c 2.53117,-5.53664 3.53706,-9.97973 4.32377,-14.27887 4.99992,-7.38792 15.98422,-16.1016 25.72707,-19.57763 -0.88905,3.22138 -0.75423,6.63435 -0.0106,10.93191 0.13806,0.79791 -0.45388,1.5609 -0.8331,2.31629 -0.002,1.3389 -11.8647,7.2397 -15.39962,10.57952 -3.35655,5.48446 -7.37869,11.84051 -4.59547,16.66721 -1.24892,0.41185 -2.65415,0.46247 -3.97043,0.37172 -1.60992,-0.11763 -3.19691,0.11722 -4.7908,0.23689 -5.75889,2.89168 -4.28042,2.6506 -0.45078,-7.24704 z"
         id="path15994"
         sodipodi:nodetypes="cccscccccc" />
      <path
         style="fill:#000000;fill-opacity:1;fill-rule:evenodd;stroke:#333333;stroke-width:0.844285;stroke-linecap:butt;stroke-linejoin:miter;stroke-miterlimit:4;stroke-dasharray:none;stroke-opacity:1"
         d="m 525.98859,997.24843 c 1.39242,-4.34096 1.87682,-10.53187 0.28913,-12.78077 -0.0978,-2.00991 0.58966,-4.20483 -0.60758,-5.98843 -1.01889,-2.13368 -2.51642,-4.0572 -4.08071,-5.81858 -1.30267,-3.83155 -6.90659,-6.92557 -6.12263,-11.10733 2.54048,-1.302 7.87855,-13.9193 8.37841,-10.73952 1.01063,8.35292 5.60852,10.33686 9.37509,15.98679 0.64904,1.71439 2.78033,2.37492 3.13722,4.15596 -0.50173,2.08681 -1.04794,4.17245 -1.03656,6.33931 -0.14848,6.68884 0.85257,13.50544 1.68508,19.58741 -0.25138,2.26372 -2.92612,1.02829 -4.36592,1.33894 -1.81193,0.0912 -5.03171,-0.0387 -6.65153,-0.97378 z"
         id="path15996"
         sodipodi:nodetypes="cccccccccccc" />
      <path
         style="fill:#000000;fill-opacity:1;fill-rule:evenodd;stroke:#333333;stroke-width:0.844285;stroke-linecap:butt;stroke-linejoin:miter;stroke-miterlimit:4;stroke-dasharray:none;stroke-opacity:1"
         d="m 348.19909,959.90285 c -1.12171,-0.0183 -1.3456,-1.28621 -1.4918,-1.89355 -0.26328,-1.09368 2.06383,0.86071 3.14936,0.86071 1.43313,0 0.91109,1.20498 -0.33151,1.20498 -0.6095,0 -0.68879,-0.007 -1.32605,-0.17214 z"
         id="path15998" />
      <path
         sodipodi:nodetypes="cccc"
         id="path16000"
         d="m 409.68149,1005.769 c -2.56071,0.5768 -5.4875,3.2939 -5.50873,6.2078 0.8677,0.5001 3.75919,-0.1994 4.57107,-0.8521 0.0341,-1.7495 1.37814,-3.8094 0.93766,-5.3557 z"
         style="fill:#000000;fill-opacity:1;fill-rule:evenodd;stroke:#333333;stroke-width:0.844285;stroke-linecap:butt;stroke-linejoin:miter;stroke-miterlimit:4;stroke-dasharray:none;stroke-opacity:1" />
      <path
         sodipodi:nodetypes="cccc"
         id="path16002"
         d="m 525.74639,997.00499 c -2.56072,0.57687 -5.48751,3.29401 -5.50873,6.20781 0.86769,0.5002 3.75919,-0.1993 4.57107,-0.852 0.0341,-1.7495 1.37814,-3.80949 0.93766,-5.35581 z"
         style="fill:#000000;fill-opacity:1;fill-rule:evenodd;stroke:#333333;stroke-width:0.844285;stroke-linecap:butt;stroke-linejoin:miter;stroke-miterlimit:4;stroke-dasharray:none;stroke-opacity:1" />
      <path
         style="fill:#000000;fill-opacity:1;fill-rule:evenodd;stroke:#333333;stroke-width:0.844285;stroke-linecap:butt;stroke-linejoin:miter;stroke-miterlimit:4;stroke-dasharray:none;stroke-opacity:1"
         d="m 542.52407,925.74333 c -1.50907,-2.99074 -4.47746,-5.77713 -8.06412,-5.66646 0.19582,1.59197 0.18906,3.20437 0.26096,4.80257 3.6878,1.67356 4.56443,2.23406 4.14158,6.9323 0.0314,7.55841 6.61352,8.37238 9.03494,5.33507 1.54424,-2.53319 2.63545,-6.61859 2.08116,-9.37142 -0.91617,-4.55012 -5.45992,-3.54909 -7.20982,-2.32142 -4.20049,3.93109 -2.53116,7.16835 1.86279,9.12047 0.26273,0.22847 0.46354,-0.21404 0.71926,0.0115 0.61514,-0.71985 0.64422,-0.8312 0.9692,-1.88895 -0.45704,-0.33364 -2.40004,-1.39598 -2.7519,-1.89558 -0.98155,-1.39361 1.43418,-4.58318 2.7169,-3.02298 1.08394,1.54766 0.29358,3.56446 -0.0292,5.3072 -0.32626,1.76197 -3.41699,4.05647 -3.77439,0.49263 l -0.063,-0.11202 c -2.03963,-1.91191 -3.05162,-4.93607 0.10562,-7.72292 z m 5.57362,11.21051 c 0.14396,-0.46479 0.63483,-1.53002 1.24497,-2.80172 2.97828,2.38231 4.81933,5.66997 7.621,9.7822 1.10906,1.00654 2.6357,1.99056 3.67979,3.14617 0.88959,1.62614 3.48516,2.28049 4.26663,3.96231 -2.50761,-1.6578 -2.66675,1.02448 -2.3205,0.19483 -0.71114,-1.93565 -2.84309,-4.97905 -4.31719,-4.8328 1.5012,0.89816 4.6512,4.96846 4.30856,7.02208 -0.73997,-0.75026 -1.45291,-4.36334 -3.00725,-4.92269 0.4711,1.35953 0.85917,1.95736 0.67173,2.48996 -0.10566,0.6714 -0.007,2.30872 0.19846,3.94677 -1.54986,-1.52988 -0.78492,-5.22785 -2.52479,-7.05758 0.0808,2.36944 0.99671,6.32156 0.62538,8.81528 -1.05639,-2.03078 -0.97817,-3.8058 -1.11434,-4.48444 -0.1097,-1.44791 -0.073,-3.01644 -0.76465,-4.27062 -0.24727,1.69408 -0.0397,3.50326 -0.10815,5.24158 0.0554,0.89006 1.41544,3.41407 0.33305,5.15232 -0.61804,-2.16359 -0.72443,-6.80068 -1.21706,-9.14595 0.003,2.21792 0.58499,4.47259 -0.23926,6.55437 -0.22068,-0.36221 0.39126,1.1036 -0.7966,2.73867 -0.0787,-3.27451 0.65826,-6.53592 -0.15244,-9.17413 -0.0996,-0.66328 -0.83432,0.0775 0.30411,-1.18789 -0.23324,2.11922 -0.70254,4.30819 -1.44986,6.33569 -0.16225,0.92843 -1.2449,1.47054 -0.76376,3.07537 1.83447,-2.39768 3.50494,-7.91973 3.18331,-10.79216 -0.20015,3.12157 -1.75868,5.20018 -3.19044,6.7324 -0.60783,1.32889 -0.003,1.33413 -2.51995,1.90231 1.7228,-1.64898 4.55095,-4.96514 4.30537,-7.33374 0.14102,-0.61414 -0.37985,-1.25183 -0.43905,-1.90561 -0.26827,-2.96227 -3.03373,-6.25476 -5.81707,-9.18298 z"
         id="path16004"
         sodipodi:nodetypes="cccccsccccscscccccccccccccccccccccccccccccscsc" />
      <path
         style="fill:#000000;fill-opacity:1;fill-rule:evenodd;stroke:#333333;stroke-width:0.844285;stroke-linecap:butt;stroke-linejoin:miter;stroke-miterlimit:4;stroke-dasharray:none;stroke-opacity:1"
         d="m 340.00788,945.36816 c -0.85898,0.45163 -1.10256,1.91958 -1.08946,3.67828 0.0116,1.55817 0.31673,3.34457 0.82891,4.85461 0.39713,1.17083 0.80154,2.17552 1.40736,2.77884 1.00679,-0.0265 2.72272,0.56794 3.7046,0.51658 1.92973,-1.51548 4.70811,-0.41805 6.52006,-1.94432 3.15097,-9.50665 6.86145,-4.03938 8.56095,-5.57687 3.38923,-1.82375 6.43575,-3.53623 7.83563,-5.7259 0.86269,-1.34941 0.9287,2.63361 -3.93928,6.031 -2.2339,1.55906 -5.15953,4.24826 -9.27427,6.7632 -1.00737,1.31163 -2.90164,1.46093 -4.62686,2.12639 -1.34245,0.51782 -2.94448,0.79541 -2.51393,1.98776 0.39206,1.08574 1.41961,1.82447 3.41353,1.91479 8.97297,2.21226 23.87726,-2.84068 33.00289,-3.31558 3.26779,-0.83124 6.06837,2.28315 8.79623,3.60911 4.15713,2.0207 8.14535,3.07492 13.36084,4.74727 2.77737,-0.15999 4.07543,1.23658 4.4703,3.85044 0.95799,6.3415 2.33902,8.13843 2.9272,12.50374 1.57975,6.49645 -1.22834,15.9332 -4.34458,21.18 2.11285,4.5626 7.90212,0.8212 12.53527,1.894 -1.8e-4,-2.0859 -0.88627,-3.8631 -0.74826,-5.8349 0.48479,-6.92632 2.97392,-13.49266 7.09664,-19.91719 1.38465,-5.90442 4.24635,-11.04631 11.06169,-9.18037 7.61999,-3.99589 20.25737,-2.81859 28.17582,-1.90562 1.13267,0.22937 2.73707,1.26228 2.03585,1.87473 -1.5163,1.32438 -1.99354,2.64101 4.1,1.94897 4.79726,-0.54483 11.10328,-6.91714 19.3847,-5.79744 5.21578,4.14932 8.30885,6.09759 11.75295,12.30925 -1.80653,10.37455 -9.07795,14.86435 -11.44145,23.40407 l 8.14844,2.748 c 1.48787,-1.1219 3.83206,-1.896 3.71601,-3.481 -0.42925,-5.86164 6.00132,-13.16031 10.01939,-18.88319 1.49646,-2.13881 2.12192,-2.72891 3.13218,-7.27108 -0.62021,-2.61803 -1.45573,-5.42522 -1.93451,-8.29006 -0.39663,-2.37332 1.29429,-4.986 3.26737,-7.33846 3.74906,-8.33162 11.00883,-12.22021 14.29438,-23.53021 2.7027,-7.46854 2.40298,-17.66618 -1.38364,-23.72704 -3.9484,-5.03923 -7.32158,-6.23492 -11.84363,-8.73788 -17.13086,-9.48196 -21.50123,-10.71707 -34.35192,-9.59336 -8.51888,1.91471 -16.58693,-2.46109 -24.20391,-5.51575 -8.05949,-3.46545 -22.72532,-5.68489 -31.32729,-7.22265 -10.21628,-0.40299 -20.68083,0.48257 -30.02806,5.14195 -7.96882,-0.13383 -17.32009,6.58608 -22.12342,12.21655 -3.83035,6.8219 -2.49539,14.01625 -6.85757,20.51242 -3.09251,7.04254 -14.32723,9.73643 -19.6756,13.86548 -2.59037,1.99983 -3.97391,4.1876 -5.86617,5.93781 -1.63758,1.51466 -3.77386,2.57937 -5.97538,4.39363 z"
         id="path16006"
         sodipodi:nodetypes="cssccccsscssccscscccscccssccccsccscccsccccccssc" />
      <path
         style="fill:#e3e4e5;fill-opacity:1;fill-rule:evenodd;stroke:#333333;stroke-width:0.844285;stroke-linecap:butt;stroke-linejoin:miter;stroke-miterlimit:4;stroke-dasharray:none;stroke-opacity:1"
         d="m 375.57426,927.13672 c 0.78648,-0.25471 1.10965,-1.13646 1.23917,-1.9054 0.25991,-2.71449 2.15577,-5.99167 4.34483,-3.77877 1.97936,2.00092 2.17877,1.77116 6.10544,1.54563 -2.49253,-0.19077 -5.96939,0.76827 -6.57985,0.91766 -1.08004,0.46931 -2.66729,0.93056 -3.57506,1.75295 -0.72289,0.5432 -0.77293,0.98775 -1.53453,1.46793 z"
         id="path16008"
         sodipodi:nodetypes="ccscccc" />
      <path
         style="fill:#000000;fill-opacity:1;stroke:none;stroke-width:0.844285;stroke-miterlimit:4;stroke-dasharray:none;stroke-opacity:1"
         d="m 381.16747,922.78719 c 0,0.78753 -0.61545,1.42668 -1.37377,1.42668 -0.75831,0 -1.37376,-0.63915 -1.37376,-1.42668 0,-0.78752 0.61545,-1.42668 1.37376,-1.42668 0.75832,0 1.37377,0.63916 1.37377,1.42668 z"
         id="path16010" />
      <path
         style="fill:#000000;fill-opacity:1;fill-rule:evenodd;stroke:#333333;stroke-width:0.844285;stroke-linecap:butt;stroke-linejoin:miter;stroke-miterlimit:4;stroke-dasharray:none;stroke-opacity:1"
         d="m 492.57638,1004.2108 c -2.32186,1.737 -4.02912,3.9741 -4.39218,6.772 -0.30497,1.3006 1.43917,0.9362 2.41881,0.8824 2.51411,-0.063 4.6014,-0.3423 6.95333,-0.9649 1.11446,-0.2276 2.23802,-1.8355 3.13062,-2.509 0.65733,-0.4667 0.56475,-1.3969 1.00699,-1.9116 0.65686,0.8246 1.47429,1.5045 2.47625,1.9717 2.10139,1.4961 0.67023,-3.5981 0.42887,-4.5656 -2.93178,1.4787 -6.65047,0.9668 -10.05589,0.2136 -1.01915,-0.607 -1.99122,0.6008 -2.74195,-0.2514"
         id="path16012"
         sodipodi:nodetypes="cccccccccc" />
      <path
         sodipodi:nodetypes="cccccccccc"
         id="path16014"
         d="m 525.84018,997.49189 c -2.10661,1.74841 -3.65563,4.00021 -3.98505,6.81641 -0.27669,1.3091 1.30579,0.9423 2.1946,0.8881 2.28106,-0.063 4.17489,-0.3445 6.30879,-0.9712 1.01114,-0.229 2.03055,-1.8475 2.84041,-2.5254 0.59641,-0.4697 0.51242,-1.4061 0.91368,-1.92409 0.59596,0.82999 1.33759,1.51439 2.24668,1.98469 1.9066,1.5058 0.60812,-3.62173 0.38913,-4.5956 -2.66002,1.48841 -6.034,0.97317 -9.12374,0.21497 -0.92469,-0.61096 -1.80664,0.60475 -2.48778,-0.25305"
         style="fill:#000000;fill-opacity:1;fill-rule:evenodd;stroke:#333333;stroke-width:0.844285;stroke-linecap:butt;stroke-linejoin:miter;stroke-miterlimit:4;stroke-dasharray:none;stroke-opacity:1" />
      <path
         sodipodi:nodetypes="cccccccccc"
         id="path16016"
         d="m 410.15036,1005.8907 c -2.10662,1.7484 -3.65564,4.0002 -3.98506,6.8164 -0.27668,1.3091 1.30579,0.9423 2.19461,0.8881 2.28105,-0.063 4.17488,-0.3445 6.30878,-0.9712 1.01114,-0.229 2.03055,-1.8475 2.84041,-2.5254 0.59641,-0.4697 0.51242,-1.4061 0.91368,-1.9241 0.59597,0.83 1.33759,1.5144 2.24668,1.9847 1.90661,1.5058 0.60813,-3.6217 0.38914,-4.5956 -2.66003,1.4884 -6.03401,0.9732 -9.12375,0.215 -0.92469,-0.611 -1.80664,0.6047 -2.48778,-0.2531"
         style="fill:#000000;fill-opacity:1;fill-rule:evenodd;stroke:#333333;stroke-width:0.844285;stroke-linecap:butt;stroke-linejoin:miter;stroke-miterlimit:4;stroke-dasharray:none;stroke-opacity:1" />
      <path
         style="fill:#000000;fill-opacity:1;fill-rule:evenodd;stroke:#333333;stroke-width:0.844285;stroke-linecap:butt;stroke-linejoin:miter;stroke-miterlimit:4;stroke-dasharray:none;stroke-opacity:1"
         d="m 382.73897,993.06109 c -2.22291,0.94618 -4.12996,2.49433 -5.19482,4.8858 -0.59644,1.07667 0.80639,1.20109 1.55148,1.40493 1.89076,0.59018 3.52517,0.87808 5.45409,0.92928 0.89486,0.084 2.18843,-1.0552 3.04461,-1.424 0.6222,-0.24557 0.81736,-1.0955 1.29295,-1.43894 0.25523,0.90106 0.67115,1.71481 1.28495,2.38711 1.14078,1.86833 1.5209,-3.02319 1.61578,-3.94444 -2.60398,0.56012 -5.22902,-0.84972 -7.55215,-2.39344 -0.58695,-0.80083 -1.65403,0.0221 -1.97135,-0.9276"
         id="path16018"
         sodipodi:nodetypes="cccccccccc" />
      <path
         style="fill:#000000;fill-opacity:1;fill-rule:evenodd;stroke:#333333;stroke-width:0.844285;stroke-linecap:butt;stroke-linejoin:miter;stroke-miterlimit:4;stroke-dasharray:none;stroke-opacity:1"
         d="m 429.02066,978.13812 c 0.61002,-1.36722 1.43163,-2.63174 2.28196,-3.96793 2.71307,-4.26328 5.00937,-8.31767 6.10192,-11.71812 -0.21771,-5.09547 -1.82296,-10.18429 -3.78319,-14.80931 -1.52163,-2.95795 -1.51352,-10.05857 -1.4361,-10.52486"
         id="path16020"
         sodipodi:nodetypes="csccc" />
      <path
         style="fill:#000000;fill-opacity:1;fill-rule:evenodd;stroke:#333333;stroke-width:0.844285;stroke-linecap:butt;stroke-linejoin:miter;stroke-miterlimit:4;stroke-dasharray:none;stroke-opacity:1"
         d="m 409.56428,969.49589 c -0.0745,-0.89262 -0.9452,-1.47674 -1.09394,-2.37217 -2.0022,-3.48617 -3.82854,-7.11563 -5.44473,-10.83495 -0.58003,-1.76825 -1.54123,-3.56539 -1.1677,-5.4766 0.2572,-1.02025 0.72708,-3.74321 0.79117,-4.07825"
         id="path16022"
         sodipodi:nodetypes="ccccc" />
      <path
         style="fill:#000000;fill-opacity:1;fill-rule:evenodd;stroke:#333333;stroke-width:0.844285;stroke-linecap:butt;stroke-linejoin:miter;stroke-miterlimit:4;stroke-dasharray:none;stroke-opacity:1"
         d="m 495.47706,970.83482 c -1.42155,-1.33065 -2.94159,-2.64638 -4.9843,-4.06993 -2.83333,-1.97459 -5.21045,-5.37041 -5.67473,-9.01821 -0.52193,-4.38923 -0.15039,-8.85788 -0.24764,-13.28192 -0.26056,-1.65705 -2.7772,-6.25591 -2.68935,-7.34686"
         id="path16024"
         sodipodi:nodetypes="csccc" />
      <path
         style="fill:#000000;fill-opacity:1;fill-rule:evenodd;stroke:#333333;stroke-width:0.844285;stroke-linecap:butt;stroke-linejoin:miter;stroke-miterlimit:4;stroke-dasharray:none;stroke-opacity:1"
         d="m 394.21018,939.55235 c 0.006,1.31054 0.68397,2.45991 0.70324,3.80379 0.0747,5.2076 0.60459,8.28143 -3.66133,11.57448 -2.64872,2.04466 -6.19019,4.23671 -9.49261,4.58932 -2.15009,0.22956 -3.4194,1.36491 -5.8336,0.90589"
         id="path16026"
         sodipodi:nodetypes="csssc" />
      <path
         id="path16028"
         style="fill:#000000;fill-opacity:1;fill-rule:evenodd;stroke:#333333;stroke-width:0.844285;stroke-linecap:butt;stroke-linejoin:miter;stroke-miterlimit:4;stroke-dasharray:none;stroke-opacity:1"
         d="m 384.5992,918.61621 c -2.55216,-5.97268 -2.27794,-13.00133 -0.95957,-19.36628 0.488,-2.35601 2.57197,-7.75954 4.63404,-10.72513 2.35466,-3.38639 1.88848,-2.61389 2.77191,-1.55624 0.49749,1.65465 2.06264,4.25579 2.57856,5.35575 l 2.33984,2.66456 c 5.55313,5.31872 7.04974,9.16182 6.1722,17.51723 -0.38781,2.36557 -1.23501,4.77371 -3.09474,6.27085"
         sodipodi:nodetypes="cssccccc" />
      <path
         style="fill:#000000;fill-opacity:1;fill-rule:evenodd;stroke:#333333;stroke-width:0.844285;stroke-linecap:butt;stroke-linejoin:miter;stroke-miterlimit:4;stroke-dasharray:none;stroke-opacity:1"
         d="m 344.56901,954.81976 c 0.52962,-2.82987 0.13107,-6.49911 -1.04635,-9.09973 -1.42003,-2.71314 -3.92865,-0.48983 -4.2854,1.84586 -0.41537,2.71953 0.67166,4.98207 1.48676,7.68983 1.02928,3.41922 3.0164,1.56811 3.84499,-0.43596 z"
         id="path16030"
         sodipodi:nodetypes="ccssc" />
      <g
         id="g16032"
         transform="matrix(0.3651511,-0.04608011,0.03919461,0.4292986,72.102527,717.55877)"
         style="fill:#000000;fill-opacity:1;stroke:#333333;stroke-width:2.12024;stroke-miterlimit:4;stroke-dasharray:none;stroke-opacity:1">
        <ellipse
           transform="matrix(0.69389,-0.07370525,0.04996102,1.023665,217.4268,91.3914)"
           id="path16103"
           style="fill:#000000;fill-opacity:1;stroke:#333333;stroke-width:2.50922;stroke-miterlimit:4;stroke-dasharray:none;stroke-opacity:1"
           cx="612.60638"
           cy="554.5213"
           rx="2.0744681"
           ry="5.9042554" />
        <ellipse
           style="fill:#000000;fill-opacity:1;stroke:#333333;stroke-width:2.49212;stroke-miterlimit:4;stroke-dasharray:none;stroke-opacity:1"
           id="path16105"
           transform="matrix(0.699376,-0.138473,0.09531181,1.016085,194.3433,134.9528)"
           cx="612.60638"
           cy="554.5213"
           rx="2.0744681"
           ry="5.9042554" />
      </g>
      <path
         style="fill:#e3e4e5;fill-opacity:1;fill-rule:evenodd;stroke:#333333;stroke-width:0.844285;stroke-linecap:butt;stroke-linejoin:miter;stroke-miterlimit:4;stroke-dasharray:none;stroke-opacity:1"
         d="m 355.26831,956.24757 c -2.06121,3.02918 -7.11841,-8.35081 -5.28421,-14.11173 0.83879,-2.63451 3.15585,-5.46837 4.7426,-6.65765 -3.57615,11.37682 -0.88871,15.82986 3.36855,18.70025 -1.65418,1.45488 -1.77534,1.46582 -2.82694,2.06913 z"
         id="path16107"
         sodipodi:nodetypes="csccc" />
      <path
         style="fill:#e3e4e5;fill-opacity:1;fill-rule:evenodd;stroke:#333333;stroke-width:0.844285;stroke-linecap:butt;stroke-linejoin:miter;stroke-miterlimit:4;stroke-dasharray:none;stroke-opacity:1"
         d="m 355.31324,949.34938 c 0.48807,2.30728 1.98349,4.39855 2.54123,6.6668 0.21686,-2.02962 1.01028,-4.56625 0.97034,-6.66558 -0.66386,-2.4467 -2.14477,-0.89624 -3.51157,-10e-4 z"
         id="path16109"
         sodipodi:nodetypes="cccc" />
      <path
         id="path16111"
         d="m 391.41375,918.50288 c 0.55028,-2.15508 1.03535,-5.94026 -0.64187,-7.98936 -3.03474,-3.70762 -3.93701,-5.89346 -3.8774,-10.62385 0.0859,-3.70617 0.55903,-7.76699 2.17867,-11.14629 0.45057,-0.94011 0.98987,-1.82747 1.63425,-2.63977"
         style="fill:#000000;fill-opacity:1;fill-rule:evenodd;stroke:#333333;stroke-width:0.844285;stroke-linecap:butt;stroke-linejoin:miter;stroke-miterlimit:4;stroke-dasharray:none;stroke-opacity:1"
         sodipodi:nodetypes="cscsc" />
    </g>
    <path
       style="display:inline;fill:#eac102;fill-opacity:1;stroke:#000000;stroke-width:1;stroke-miterlimit:4;stroke-dasharray:none;stroke-opacity:1"
       d="m 114.43541,504.30297 c -3.24642,0.0958 -9.51768,-1.25475 -9.83928,0.4261 -0.8578,4.48246 -2.39304,6.29031 -2.46622,12.10598 -0.13024,10.33708 2.91442,20.51921 4.5446,27.4265 -8.935411,-11.4215 -24.528679,-12.07324 -28.542884,-11.56587 -9.422768,-0.50737 -29.941574,6.79947 -27.346592,27.84402 4.597259,37.28116 58.712136,57.34831 55.598976,93.80842 43.6874,-36.43615 59.93941,-74.87641 60.84713,-91.86581 0.17596,-7.79263 -0.61492,-26.30313 -19.34733,-30.294 -13.80505,-0.88255 -27.33106,0.41672 -36.31891,10.78335 -1.23509,-5.10504 -2.88346,-11.69445 -0.54527,-22.50196 0.2306,-0.56427 1.9679,-10.90175 3.41578,-16.16673 z"
       id="path4340"
       sodipodi:nodetypes="cssccscccccc" />
    <path
       style="display:inline;fill:#eac102;fill-opacity:1;stroke:#000000;stroke-width:1;stroke-miterlimit:4;stroke-dasharray:none;stroke-opacity:1"
       d="m 445.35308,504.30297 c -3.24649,0.0958 -9.51769,-1.25475 -9.83925,0.4261 -0.8579,4.48246 -2.3931,6.29031 -2.46629,12.10598 -0.13019,10.33708 2.91443,20.51921 4.54462,27.4265 -8.93537,-11.4215 -24.5287,-12.07324 -28.54289,-11.56587 -9.42281,-0.50737 -29.94157,6.79947 -27.34659,27.84402 4.59726,37.28116 58.71213,57.34831 55.59902,93.80842 43.68738,-36.43615 59.93932,-74.87641 60.84711,-91.86581 0.17597,-7.79263 -0.61493,-26.30313 -19.34736,-30.294 -13.80505,-0.88255 -27.33104,0.41672 -36.31891,10.78335 -1.23504,-5.10504 -2.88343,-11.69445 -0.54523,-22.50196 0.23057,-0.56427 1.96785,-10.90175 3.41577,-16.16673 z"
       id="path9917"
       sodipodi:nodetypes="cssccscccccc" />
  </g>
</svg>
