<?xml version="1.0" encoding="UTF-8" standalone="no"?>
<svg
   width="770"
   height="770"
   version="1.0"
   id="svg125"
   sodipodi:docname="armarria_Azpeitia.svg"
   inkscape:version="1.3.2 (091e20ef0f, 2023-11-25)"
   xmlns:inkscape="http://www.inkscape.org/namespaces/inkscape"
   xmlns:sodipodi="http://sodipodi.sourceforge.net/DTD/sodipodi-0.dtd"
   xmlns="http://www.w3.org/2000/svg"
   xmlns:svg="http://www.w3.org/2000/svg">
  <defs
     id="defs125" />
  <sodipodi:namedview
     id="namedview125"
     pagecolor="#ffffff"
     bordercolor="#000000"
     borderopacity="0.25"
     inkscape:showpageshadow="2"
     inkscape:pageopacity="0.0"
     inkscape:pagecheckerboard="0"
     inkscape:deskcolor="#d1d1d1"
     inkscape:zoom="0.67567568"
     inkscape:cx="421.06"
     inkscape:cy="354.46"
     inkscape:window-width="1920"
     inkscape:window-height="1008"
     inkscape:window-x="0"
     inkscape:window-y="0"
     inkscape:window-maximized="1"
     inkscape:current-layer="svg125" />
  <g
     stroke="#000000"
     stroke-linecap="round"
     stroke-linejoin="round"
     id="g45"
     transform="translate(-0.999936)">
    <path
       fill="#eac102"
       d="m 142.788,283.855 -19.293,7.736 -8.104,19.667 c -7.614,0 -48.614,0.897 -79.232,-1.678 -15.231,-5.994 -29.173,-5.541 -32.977,-4.97 l -8.728,1.242 -7.854,3.604 -44.54,122.26 c 25.873,31.287 43.313,88.127 48.187,123.004 2.503,17.166 -5.387,22.496 -12.032,28.367 l -23.657,0.714 -17.517,-17.74 c 2.246,21.434 -0.334,37.738 -0.873,59.187 -0.11,4.405 1.667,7.43 4.863,10.968 6.735,7.457 28.134,17.257 45.195,20.164 -17.061,2.907 -38.46,12.738 -45.195,20.196 -3.196,3.538 -4.973,6.563 -4.863,10.967 0.539,21.45 3.12,37.754 0.873,59.188 l 17.517,-17.74 23.657,0.714 c 6.645,5.871 14.535,11.17 12.032,28.335 -4.874,26.8 -24.87,28.397 -48.718,41.51 -3.37,81.345 34.904,111.949 68.946,147.83 5.794,5.803 13.019,15.08 14.837,23.55 l -2.213,17.088 -23.564,10.098 c 25.42,9.353 46.6,22.178 64.115,33.369 14.419,9.213 41.581,-4.675 43.076,-23.085 l 12.467,5.375 -1.496,10.222 13.714,16.84 142.63,-42.659 142.661,42.659 13.715,-16.84 -1.496,-10.222 12.467,-5.375 c 1.494,18.41 28.657,32.298 43.076,23.085 17.515,-11.19 38.696,-24.016 64.115,-33.369 l -23.564,-10.098 -2.213,-17.088 c 1.818,-8.47 9.012,-17.747 14.805,-23.55 34.043,-35.881 72.347,-66.485 68.978,-147.83 -23.848,-13.113 -43.844,-14.71 -48.718,-41.51 -2.504,-17.165 5.386,-22.464 12.032,-28.335 l 23.657,-0.715 17.517,17.741 c -2.246,-21.434 0.334,-37.738 0.873,-59.188 0.11,-4.404 -1.667,-7.429 -4.863,-10.967 -6.735,-7.458 -28.134,-17.29 -45.195,-20.196 17.06,-2.907 38.46,-12.707 45.195,-20.164 3.196,-3.538 4.973,-6.563 4.863,-10.968 -0.54,-21.449 -3.12,-37.753 -0.873,-59.187 l -17.517,17.74 -23.657,-0.714 c -6.646,-5.871 -14.536,-11.201 -12.032,-28.367 4.874,-34.877 22.314,-91.717 48.188,-123.005 l -44.572,-122.259 -7.824,-3.604 -8.727,-1.243 c -3.805,-0.57 -17.746,-1.023 -32.977,4.971 -30.618,2.575 -71.618,1.678 -79.232,1.678 l -8.104,-19.667 -19.325,-7.736 c -5.673,1.57 -10.462,4.512 -14.96,7.922 L 274.04,317.223 157.78,291.777 c -4.5,-3.41 -9.32,-6.353 -14.993,-7.922 z"
       color="#000000"
       overflow="visible"
       style="marker:none"
       transform="translate(95.946,-277.5)"
       id="path1" />
    <path
       fill="none"
       d="m 149.403,294.285 c -13.537,-13.06 -23.257,3.592 -22.216,24.957 -25.625,1.126 -79.461,0.452 -93.802,-1.406 -15.511,-6.131 -45.276,-13.542 -51.485,1.406 m 77.864,709.77 c 12.226,5.276 43.795,-9.639 40.323,-31.61 l 27.428,11.433 c -1.301,10.791 0.435,33.145 22.193,23.364"
       color="#000000"
       overflow="visible"
       style="marker:none"
       transform="translate(95.946,-277.5)"
       id="path2" />
    <path
       fill="#eac102"
       d="m 142.85,281.058 10.598,23.862 -13.216,22.215 c 45.892,7.724 120.92,9.476 133.81,9.476 12.89,0 87.948,-1.752 133.84,-9.476 l -13.216,-22.215 10.597,-23.862 c -32.855,11.734 -116.78,15.193 -131.222,15.193 -14.441,0 -98.335,-3.459 -131.19,-15.193 z"
       color="#000000"
       overflow="visible"
       style="marker:none"
       transform="translate(95.946,-277.5)"
       id="path3" />
    <path
       fill="none"
       d="m -62.055,581.116 c 3.615,13.627 30.343,15.506 42.844,11.312 C -5.406,587.797 0.085,577.533 -0.365,562.216 -1.204,533.603 -21.32,461.494 -52.099,426.333"
       color="#000000"
       overflow="visible"
       style="marker:none"
       transform="translate(95.946,-277.5)"
       id="path4" />
    <path
       fill="#eac102"
       d="m -19.826,315.307 c -20.63,47.515 -49.771,71.788 -65.72,88.562 -17.21,18.103 15.15,44.81 31.788,26.854 23.16,-22.31 49.672,-50.683 72.832,-92.983 L -1.74,339.61 -16.424,328.9 Z"
       color="#000000"
       overflow="visible"
       style="marker:none"
       transform="translate(95.946,-277.5)"
       id="path5" />
    <path
       fill="#eac102"
       fill-rule="evenodd"
       d="m 66.046,306.433 4.506,-27.261 -14.148,-6.063 -17.972,4.53 1.422,22.95 z"
       id="path6" />
    <path
       fill="#c2a002"
       d="m -41.708,566.131 2.341,6.57 -1.02,10.966 -3.173,-0.008 z"
       color="#000000"
       overflow="visible"
       style="marker:none"
       transform="translate(95.946,-277.5)"
       id="path7" />
    <path
       fill="#eac102"
       fill-rule="evenodd"
       d="m 56.558,295.214 -1,10.953 15.993,-1.873 3.166,-18.603 z"
       id="path8" />
    <path
       fill="#c2a002"
       fill-rule="evenodd"
       d="m 86.196,277.233 c 1.437,10.23 -3.17,20.303 -9.044,22.96 -5.874,2.657 -13.081,3.531 -22.062,2.49 -4.603,-0.534 -7.91,-2.43 -10.354,-5.236 -2.444,-2.804 -4.507,-6.528 -4.453,-10.02 0.054,-3.493 2.09,-6.872 4.742,-8.66 4.04,-2.725 9.231,-2.72 13.043,-2.168 6.511,0.943 10.438,4.364 8.27,8.418 -0.9,1.681 -8.375,3.795 -12.1,3.614 l 2.341,6.57 c 6.561,-0.537 11.321,-1.975 14.484,-4.219 3.163,-2.243 4.165,-5.389 3.727,-8.375 -1.03,-7.033 -7.65,-11.52 -16.296,-12.76 -7.895,-1.132 -15.258,1.253 -19.43,4.51 -4.173,3.258 -6.043,7.858 -6.115,12.541 -0.073,4.683 1.64,9.543 5.196,13.624 3.556,4.08 8.84,7.868 15.924,8.69 10.337,1.198 17.926,0.452 25.772,-4.22 8.8,-5.239 7.698,-19.4 6.355,-27.759 z"
       id="path9" />
    <path
       fill="#eac102"
       fill-rule="evenodd"
       d="m 66.046,451.356 4.506,27.261 -14.148,6.063 -17.972,-4.53 1.422,-22.95 z"
       id="path10" />
    <path
       fill="#c2a002"
       d="m -41.708,746.658 2.341,-6.57 -1.02,-10.966 -3.173,0.008 z"
       color="#000000"
       overflow="visible"
       style="marker:none"
       transform="translate(95.946,-277.5)"
       id="path11" />
    <path
       fill="#eac102"
       fill-rule="evenodd"
       d="m 56.558,462.575 -1,-10.953 15.993,1.874 3.166,18.602 z"
       id="path12" />
    <path
       fill="#c2a002"
       fill-rule="evenodd"
       d="m 86.196,480.556 c 1.437,-10.23 -3.17,-20.303 -9.044,-22.96 -5.874,-2.657 -13.081,-3.531 -22.062,-2.49 -4.603,0.535 -7.91,2.431 -10.354,5.236 -2.444,2.805 -4.507,6.528 -4.453,10.02 0.054,3.494 2.09,6.872 4.742,8.66 4.04,2.726 9.231,2.72 13.043,2.169 6.511,-0.943 10.438,-4.365 8.27,-8.418 -0.9,-1.682 -8.375,-3.796 -12.1,-3.615 l 2.341,-6.57 c 6.561,0.538 11.321,1.976 14.484,4.22 3.163,2.243 4.165,5.388 3.727,8.374 -1.03,7.033 -7.65,11.52 -16.296,12.76 -7.895,1.133 -15.258,-1.252 -19.43,-4.51 -4.173,-3.257 -6.043,-7.858 -6.115,-12.54 -0.073,-4.684 1.64,-9.543 5.196,-13.624 3.556,-4.081 10.212,-8.614 17.296,-9.436 10.336,-1.198 16.964,-0.33 24.4,4.965 8.42,5.996 7.698,19.4 6.355,27.759 z"
       id="path13" />
    <path
       fill="#eac102"
       fill-rule="evenodd"
       d="M 111.14,53.95 107.622,62.528 90.017,59.39 98.329,45.74 Z"
       id="path14" />
    <path
       fill="#c2a002"
       fill-rule="evenodd"
       d="m 93.248,29.074 c -6.134,1.258 -10.03,5.478 -11.266,9.084 -1.171,3.413 -1.128,7.895 0.74,10.842 2.648,4.18 7.898,7.206 11.765,8.834 6.607,2.782 11.975,2.05 12.808,-1.783 0.66,-3.032 -5.407,-8.42 -8.966,-10.31 l 6.159,-4.26 c 5.747,4.046 9.275,7.856 10.832,11.464 1.557,3.608 0.56,6.784 -1.671,9.038 -5.257,5.309 -14.132,5.427 -22.897,1.724 -8.004,-3.382 -13.364,-9.41 -15.236,-14.418 -1.87,-5.008 -0.788,-9.876 2.01,-13.827 2.796,-3.95 7.288,-7.37 13.145,-8.53 15.033,-2.974 34.375,1.955 41.438,5.152 -9.16,-3.853 -24.653,-5.923 -38.86,-3.01 z"
       id="path15" />
    <path
       fill="#eac102"
       d="m 137.092,304.17 -3.455,14.593 15.758,1.193 1.6,-11.767 z"
       color="#000000"
       overflow="visible"
       style="marker:none"
       transform="translate(95.946,-277.5)"
       id="path16" />
    <path
       fill="#c2a002"
       fill-rule="evenodd"
       d="m 215.2,33.75 c 0.074,-14.15 9.606,-24.46 19.691,-22.573 8.847,1.655 10.218,14.508 8.59,19.894 -2.09,6.915 -4.67,10.258 -7.46,9.12 -2.478,-1.01 -3.328,-9.402 -2.983,-13.522 l -6.387,2.163 c 0.217,7.303 0.869,12.06 2.887,15.686 2.017,3.626 5.52,5.5 8.419,5.172 6.826,-0.77 11.455,-7.871 13.046,-17.39 1.453,-8.694 -0.509,-16.984 -3.458,-21.783 -2.949,-4.798 -7.298,-7.115 -11.809,-7.444 -4.51,-0.328 -10.567,0.191 -16.643,7.027 -6.259,7.04 -7.86,13.853 -7.77,23.65 z"
       id="path17" />
    <path
       fill="#eac102"
       d="m 274.041,988.391 c -12.89,0 -87.917,1.752 -133.809,9.476 l 13.216,22.215 -10.597,23.83 c 32.855,-11.733 116.749,-15.161 131.19,-15.161 14.442,0 98.367,3.428 131.222,15.162 l -10.597,-23.83 13.215,-22.216 c -45.891,-7.724 -120.95,-9.476 -133.84,-9.476 z"
       color="#000000"
       overflow="visible"
       style="marker:none"
       transform="translate(95.946,-277.5)"
       id="path18" />
    <path
       fill="#eac102"
       d="m 137.092,1020.83 -3.455,-14.593 15.758,-1.193 1.6,11.767 z"
       color="#000000"
       overflow="visible"
       style="marker:none"
       transform="translate(95.946,-277.5)"
       id="path19" />
    <path
       fill="#c2a002"
       fill-rule="evenodd"
       d="m 215.14,736.275 c 0.073,14.149 9.666,24.435 19.751,22.548 8.847,-1.655 10.218,-14.508 8.59,-19.894 -2.09,-6.915 -4.67,-10.258 -7.46,-9.12 -2.478,1.01 -3.328,9.402 -2.983,13.522 l -6.387,-2.163 c 0.217,-7.303 0.869,-12.06 2.887,-15.686 2.017,-3.626 5.52,-5.5 8.419,-5.172 6.826,0.77 11.455,7.871 13.046,17.39 1.453,8.694 -0.509,16.984 -3.458,21.783 -2.949,4.798 -7.298,7.115 -11.809,7.444 -4.51,0.328 -10.567,-0.191 -16.643,-7.027 -6.259,-7.04 -7.86,-15.43 -7.77,-25.228 z"
       id="path20" />
    <path
       fill="#eac102"
       fill-rule="evenodd"
       d="m 122.38,701.306 -20.299,-15.872 -10.556,8.856 -3.495,16.72 19.167,9.097 z"
       id="path21" />
    <path
       fill="#c2a002"
       d="m 7.296,980.5 6.259,1.024 8.48,5.737 -1.273,2.59 z"
       color="#000000"
       overflow="visible"
       style="marker:none"
       transform="translate(95.946,-277.5)"
       id="path22" />
    <path
       fill="#eac102"
       fill-rule="evenodd"
       d="m 109.503,704.047 8.479,5.714 4.86,-13.913 -13.816,-10.905 z"
       id="path23" />
    <path
       fill="#c2a002"
       fill-rule="evenodd"
       d="m 106.435,669.889 c 4.567,4.648 11.089,14.363 12.272,20.707 1.33,7.126 0.242,12.363 -3.736,17.99 -2.42,3.423 -5.125,5.381 -8.373,6.125 -3.248,0.744 -7.088,0.766 -9.898,-0.84 -2.809,-1.605 -4.735,-4.78 -5.127,-7.748 -0.598,-4.522 1.476,-8.764 3.444,-11.633 3.361,-4.902 7.7,-6.583 10.12,-2.998 1.005,1.487 -0.263,8.544 -1.895,11.509 l 6.259,1.023 c 2.18,-5.605 2.913,-10.14 2.356,-13.728 -0.556,-3.59 -2.707,-5.815 -5.301,-6.792 -6.111,-2.301 -12.388,1.105 -16.841,7.619 -4.067,5.948 -5.07,13.035 -4.094,17.902 0.977,4.868 3.96,8.454 7.726,10.607 3.767,2.153 8.389,2.925 13.114,1.842 4.726,-1.082 9.005,-3.066 12.857,-8.242 5.094,-6.844 4.919,-15.435 3.187,-21.797 -2.513,-9.23 -9.833,-14.98 -16.07,-21.546 z"
       id="path24" />
    <path
       fill="none"
       d="m 12.442,1003.29 c 23.185,-1.546 29.454,-34.774 12.276,-51.782 -55.535,-54.985 -77.647,-83.36 -75.613,-146.213 18.108,-9.393 50.335,-15.553 50.166,-57.973 -0.156,-39.163 -54.725,-36.135 -61.34,-14.85 m -1.435,-36.279 c 2.19,-20.912 45.185,-31.793 70.586,-35.687 6.882,-1.055 6.079,-6.221 -0.394,-7.418 -28.839,-5.331 -68.57,-19.333 -70.06,-38.597 M 398.705,294.285 c 13.537,-13.06 23.257,3.592 22.216,24.957 25.625,1.126 79.461,0.452 93.802,-1.406 15.511,-6.131 45.276,-13.542 51.485,1.406 m -77.864,709.77 c -12.226,5.276 -43.795,-9.639 -40.322,-31.61 l -27.43,11.433 c 1.303,10.791 -0.434,33.145 -22.192,23.364 M 610.163,581.116 c -3.615,13.627 -30.343,15.506 -42.843,11.312 -13.806,-4.631 -19.296,-14.895 -18.847,-30.212 0.839,-28.613 20.955,-100.722 51.734,-135.883"
       color="#000000"
       overflow="visible"
       style="marker:none"
       transform="translate(95.946,-277.5)"
       id="path25" />
    <path
       fill="#eac102"
       d="m 567.935,315.307 c 20.63,47.515 49.77,71.788 65.718,88.562 17.212,18.103 -15.149,44.81 -31.787,26.854 -23.16,-22.31 -49.672,-50.683 -72.832,-92.983 l 20.814,1.87 14.684,-10.71 z"
       color="#000000"
       overflow="visible"
       style="marker:none"
       transform="translate(95.946,-277.5)"
       id="path26" />
    <path
       fill="#eac102"
       fill-rule="evenodd"
       d="m 673.954,306.433 -4.506,-27.261 14.148,-6.063 17.972,4.53 -1.422,22.95 z"
       id="path27" />
    <path
       fill="#c2a002"
       d="m 589.816,566.131 -2.341,6.57 1.02,10.966 3.174,-0.008 z"
       color="#000000"
       overflow="visible"
       style="marker:none"
       transform="translate(95.946,-277.5)"
       id="path28" />
    <path
       fill="#eac102"
       fill-rule="evenodd"
       d="m 683.442,295.214 1,10.953 -15.993,-1.873 -3.166,-18.603 z"
       id="path29" />
    <path
       fill="#c2a002"
       fill-rule="evenodd"
       d="m 653.804,277.233 c -1.437,10.23 3.17,20.303 9.044,22.96 5.874,2.657 13.081,3.531 22.062,2.49 4.603,-0.534 7.91,-2.43 10.354,-5.236 2.444,-2.804 4.507,-6.528 4.453,-10.02 -0.054,-3.493 -2.09,-6.872 -4.742,-8.66 -4.04,-2.725 -9.231,-2.72 -13.043,-2.168 -6.511,0.943 -10.438,4.364 -8.27,8.418 0.9,1.681 8.375,3.795 12.1,3.614 l -2.341,6.57 c -6.561,-0.537 -11.321,-1.975 -14.484,-4.219 -3.163,-2.243 -4.165,-5.389 -3.727,-8.375 1.03,-7.033 7.65,-11.52 16.296,-12.76 7.895,-1.132 15.258,1.253 19.43,4.51 4.173,3.258 6.042,7.858 6.115,12.541 0.073,4.683 -1.64,9.543 -5.196,13.624 -3.556,4.08 -8.84,7.868 -15.924,8.69 -10.337,1.198 -17.926,0.452 -25.772,-4.22 -8.8,-5.239 -7.698,-19.4 -6.355,-27.759 z"
       id="path30" />
    <path
       fill="#eac102"
       fill-rule="evenodd"
       d="m 673.954,451.356 -4.506,27.261 14.148,6.063 17.972,-4.53 -1.422,-22.95 z"
       id="path31" />
    <path
       fill="#c2a002"
       d="m 589.816,746.658 -2.341,-6.57 1.02,-10.966 3.174,0.008 z"
       color="#000000"
       overflow="visible"
       style="marker:none"
       transform="translate(95.946,-277.5)"
       id="path32" />
    <path
       fill="#eac102"
       fill-rule="evenodd"
       d="m 683.442,462.575 1,-10.953 -15.993,1.874 -3.166,18.602 z"
       id="path33" />
    <path
       fill="#c2a002"
       fill-rule="evenodd"
       d="m 653.804,480.556 c -1.437,-10.23 3.17,-20.303 9.044,-22.96 5.874,-2.657 13.081,-3.531 22.062,-2.49 4.603,0.535 7.91,2.431 10.354,5.236 2.444,2.805 4.507,6.528 4.453,10.02 -0.054,3.494 -2.09,6.872 -4.742,8.66 -4.04,2.726 -9.231,2.72 -13.043,2.169 -6.511,-0.943 -10.438,-4.365 -8.27,-8.418 0.9,-1.682 8.375,-3.796 12.1,-3.615 l -2.341,-6.57 c -6.561,0.538 -11.321,1.976 -14.484,4.22 -3.163,2.243 -4.165,5.388 -3.727,8.374 1.03,7.033 7.65,11.52 16.296,12.76 7.895,1.133 15.258,-1.252 19.43,-4.51 4.173,-3.257 6.042,-7.858 6.115,-12.54 0.073,-4.684 -1.64,-9.543 -5.196,-13.624 -3.556,-4.081 -10.212,-8.614 -17.296,-9.436 -10.336,-1.198 -16.964,-0.33 -24.4,4.965 -8.42,5.996 -7.698,19.4 -6.355,27.759 z"
       id="path34" />
    <path
       fill="#eac102"
       fill-rule="evenodd"
       d="m 628.86,53.95 3.518,8.578 17.605,-3.138 -8.312,-13.65 z"
       id="path35" />
    <path
       fill="#c2a002"
       fill-rule="evenodd"
       d="m 646.752,29.074 c 6.134,1.258 10.03,5.478 11.266,9.084 1.171,3.413 1.128,7.895 -0.74,10.842 -2.648,4.18 -7.898,7.206 -11.765,8.834 -6.607,2.782 -11.975,2.05 -12.808,-1.783 -0.66,-3.032 5.407,-8.42 8.966,-10.31 l -6.159,-4.26 c -5.747,4.046 -9.275,7.856 -10.832,11.464 -1.557,3.608 -0.56,6.784 1.671,9.038 5.257,5.309 14.132,5.427 22.897,1.724 8.004,-3.382 13.364,-9.41 15.236,-14.418 1.87,-5.008 0.788,-9.876 -2.01,-13.827 -2.796,-3.95 -7.288,-7.37 -13.145,-8.53 -15.033,-2.974 -34.375,1.955 -41.438,5.152 9.16,-3.853 24.653,-5.923 38.86,-3.01 z"
       id="path36" />
    <path
       fill="#eac102"
       d="m 411.016,304.17 3.455,14.593 -15.758,1.193 -1.6,-11.767 z"
       color="#000000"
       overflow="visible"
       style="marker:none"
       transform="translate(95.946,-277.5)"
       id="path37" />
    <path
       fill="#c2a002"
       fill-rule="evenodd"
       d="M 524.8,33.75 C 524.726,19.6 515.194,9.29 505.109,11.177 c -8.847,1.655 -10.218,14.508 -8.59,19.894 2.09,6.915 4.67,10.258 7.46,9.12 2.478,-1.01 3.328,-9.402 2.983,-13.522 l 6.387,2.163 c -0.217,7.303 -0.869,12.06 -2.887,15.686 -2.017,3.626 -5.52,5.5 -8.419,5.172 -6.827,-0.77 -11.455,-7.871 -13.046,-17.39 -1.453,-8.694 0.509,-16.984 3.458,-21.783 2.949,-4.798 7.298,-7.115 11.809,-7.444 4.51,-0.328 10.567,0.191 16.643,7.027 6.258,7.04 7.86,13.853 7.77,23.65 z"
       id="path38" />
    <path
       fill="#eac102"
       d="m 411.016,1020.83 3.455,-14.593 -15.758,-1.193 -1.6,11.767 z"
       color="#000000"
       overflow="visible"
       style="marker:none"
       transform="translate(95.946,-277.5)"
       id="path39" />
    <path
       fill="#c2a002"
       fill-rule="evenodd"
       d="m 524.86,736.275 c -0.073,14.149 -9.666,24.435 -19.751,22.548 -8.847,-1.655 -10.218,-14.508 -8.59,-19.894 2.09,-6.915 4.67,-10.258 7.46,-9.12 2.478,1.01 3.328,9.402 2.983,13.522 l 6.387,-2.163 c -0.217,-7.303 -0.869,-12.06 -2.887,-15.686 -2.017,-3.626 -5.52,-5.5 -8.419,-5.172 -6.827,0.77 -11.455,7.871 -13.046,17.39 -1.453,8.694 0.509,16.984 3.458,21.783 2.949,4.798 7.298,7.115 11.809,7.444 4.51,0.328 10.567,-0.191 16.643,-7.027 6.258,-7.04 7.86,-15.43 7.77,-25.228 z"
       id="path40" />
    <path
       fill="#eac102"
       fill-rule="evenodd"
       d="m 617.62,701.306 20.299,-15.872 10.556,8.856 3.495,16.72 -19.167,9.097 z"
       id="path41" />
    <path
       fill="#c2a002"
       d="m 540.812,980.5 -6.259,1.024 -8.48,5.737 1.273,2.59 z"
       color="#000000"
       overflow="visible"
       style="marker:none"
       transform="translate(95.946,-277.5)"
       id="path42" />
    <path
       fill="#eac102"
       fill-rule="evenodd"
       d="m 630.497,704.047 -8.479,5.714 -4.86,-13.913 13.816,-10.905 z"
       id="path43" />
    <path
       fill="#c2a002"
       fill-rule="evenodd"
       d="m 633.565,669.889 c -4.567,4.648 -11.089,14.363 -12.272,20.707 -1.33,7.126 -0.242,12.363 3.736,17.99 2.42,3.423 5.125,5.381 8.373,6.125 3.248,0.744 7.088,0.766 9.898,-0.84 2.809,-1.605 4.735,-4.78 5.127,-7.748 0.598,-4.522 -1.476,-8.764 -3.444,-11.633 -3.361,-4.902 -7.7,-6.583 -10.121,-2.998 -1.004,1.487 0.264,8.544 1.896,11.509 l -6.259,1.023 c -2.18,-5.605 -2.913,-10.14 -2.356,-13.728 0.556,-3.59 2.707,-5.815 5.301,-6.792 6.111,-2.301 12.388,1.105 16.841,7.619 4.067,5.948 5.07,13.035 4.094,17.902 -0.977,4.868 -3.96,8.454 -7.726,10.607 -3.767,2.153 -8.389,2.925 -13.114,1.842 -4.726,-1.082 -9.005,-3.066 -12.857,-8.242 -5.094,-6.844 -4.919,-15.435 -3.187,-21.797 2.513,-9.23 9.833,-14.98 16.07,-21.546 z"
       id="path44" />
    <path
       fill="none"
       d="m 535.667,1003.29 c -23.186,-1.546 -29.455,-34.774 -12.277,-51.782 55.535,-54.985 77.647,-83.36 75.613,-146.213 -18.108,-9.393 -50.335,-15.553 -50.166,-57.973 0.157,-39.162 54.725,-36.135 61.34,-14.85 m 1.435,-36.279 c -2.19,-20.912 -45.185,-31.793 -70.586,-35.687 -6.882,-1.055 -6.079,-6.221 0.394,-7.418 28.839,-5.331 68.57,-19.333 70.06,-38.597"
       color="#000000"
       overflow="visible"
       style="marker:none"
       transform="translate(95.946,-277.5)"
       id="path45" />
  </g>
  <g
     font-family="'Times New Roman'"
     font-size="50px"
     font-weight="400"
     letter-spacing="0"
     word-spacing="0"
     id="g49"
     transform="translate(-0.999936)">
    <g
       aria-label="AZPEITIA"
       style="line-height:0.01%"
       id="g46">
      <path
         d="m 279.41,92.88 h -12.818 l -2.246,5.224 q -0.83,1.928 -0.83,2.88 0,0.757 0.708,1.343 0.732,0.562 3.125,0.733 v 0.903 h -10.425 v -0.903 q 2.075,-0.366 2.685,-0.952 1.245,-1.172 2.76,-4.761 L 274.013,70.1 h 0.854 l 11.524,27.539 q 1.391,3.32 2.514,4.321 1.148,0.977 3.174,1.099 v 0.903 H 279.02 v -0.903 q 1.977,-0.098 2.66,-0.66 0.709,-0.561 0.709,-1.367 0,-1.074 -0.977,-3.393 z m -0.684,-1.808 -5.616,-13.378 -5.761,13.378 z m 42.7,-20.214 -21.753,31.103 h 13.574 q 3.125,0 4.785,-1.367 1.685,-1.367 2.979,-5.542 l 0.805,0.146 -1.562,8.765 H 293.3 v -0.903 l 21.24,-30.225 h -10.596 q -2.636,0 -3.833,0.586 -1.172,0.562 -1.806,1.66 -0.61,1.074 -1.123,4.053 h -0.928 l 0.683,-8.276 z m 12.06,17.602 v 9.644 q 0,3.125 0.684,3.882 0.928,1.074 2.808,1.074 h 1.27 v 0.903 h -14.185 v -0.903 h 1.245 q 2.1,0 3.003,-1.367 0.488,-0.757 0.488,-3.59 V 76.718 q 0,-3.125 -0.66,-3.882 -0.952,-1.074 -2.831,-1.074 h -1.246 v -0.903 h 12.134 q 4.444,0 7.007,0.927 2.564,0.904 4.321,3.077 1.758,2.172 1.758,5.15 0,4.054 -2.685,6.593 -2.661,2.539 -7.544,2.539 -1.197,0 -2.588,-0.171 -1.392,-0.171 -2.979,-0.513 z m 0,-1.391 q 1.294,0.244 2.295,0.366 1.001,0.122 1.71,0.122 2.538,0 4.37,-1.953 1.855,-1.978 1.855,-5.103 0,-2.148 -0.88,-3.98 -0.878,-1.855 -2.49,-2.758 -1.61,-0.928 -3.661,-0.928 -1.246,0 -3.199,0.464 z M 361.514,72.664 V 85.75 h 7.275 q 2.832,0 3.784,-0.854 1.27,-1.123 1.416,-3.955 h 0.904 v 11.523 h -0.904 q -0.342,-2.417 -0.683,-3.1 -0.44,-0.855 -1.44,-1.343 -1.002,-0.489 -3.077,-0.489 h -7.275 v 10.913 q 0,2.198 0.195,2.686 0.195,0.464 0.684,0.757 0.488,0.268 1.855,0.268 h 5.615 q 2.808,0 4.077,-0.39 1.27,-0.39 2.442,-1.538 1.514,-1.514 3.1,-4.566 h 0.977 l -2.856,8.301 H 352.09 v -0.903 h 1.172 q 1.172,0 2.221,-0.562 0.782,-0.39 1.05,-1.172 0.293,-0.78 0.293,-3.198 V 76.62 q 0,-3.15 -0.635,-3.882 -0.878,-0.976 -2.93,-0.976 h -1.171 v -0.903 h 25.513 l 0.366,7.25 h -0.952 q -0.513,-2.612 -1.148,-3.588 -0.61,-0.977 -1.83,-1.49 -0.977,-0.366 -3.443,-0.366 z m 35.546,30.396 v 0.903 h -14.184 v -0.903 h 1.172 q 2.05,0 2.978,-1.197 0.586,-0.78 0.586,-3.76 V 76.718 q 0,-2.515 -0.317,-3.32 -0.244,-0.61 -1.001,-1.05 -1.074,-0.586 -2.246,-0.586 h -1.172 v -0.903 h 14.185 v 0.903 h -1.197 q -2.026,0 -2.954,1.196 -0.61,0.781 -0.61,3.76 v 21.387 q 0,2.514 0.317,3.32 0.244,0.61 1.026,1.05 1.05,0.586 2.221,0.586 z m 30.2,-32.202 0.367,7.763 h -0.928 q -0.268,-2.05 -0.732,-2.93 -0.757,-1.415 -2.027,-2.075 -1.245,-0.683 -3.295,-0.683 h -4.664 v 25.293 q 0,3.052 0.66,3.808 0.927,1.026 2.856,1.026 h 1.148 v 0.903 h -14.039 v -0.903 h 1.172 q 2.1,0 2.979,-1.27 0.537,-0.781 0.537,-3.564 V 72.933 h -3.98 q -2.319,0 -3.295,0.342 -1.27,0.463 -2.173,1.782 -0.904,1.318 -1.075,3.564 h -0.927 l 0.39,-7.763 z m 17.066,32.202 v 0.903 h -14.184 v -0.903 h 1.171 q 2.051,0 2.979,-1.197 0.586,-0.78 0.586,-3.76 V 76.718 q 0,-2.515 -0.317,-3.32 -0.245,-0.61 -1.001,-1.05 -1.075,-0.586 -2.247,-0.586 h -1.171 v -0.903 h 14.184 v 0.903 h -1.196 q -2.026,0 -2.954,1.196 -0.61,0.781 -0.61,3.76 v 21.387 q 0,2.514 0.317,3.32 0.244,0.61 1.025,1.05 1.05,0.586 2.222,0.586 z m 24.146,-10.18 h -12.818 l -2.246,5.224 q -0.83,1.928 -0.83,2.88 0,0.757 0.708,1.343 0.733,0.562 3.125,0.733 v 0.903 h -10.425 v -0.903 q 2.076,-0.366 2.686,-0.952 1.245,-1.172 2.759,-4.761 L 463.076,70.1 h 0.855 l 11.523,27.539 q 1.392,3.32 2.515,4.321 1.147,0.977 3.174,1.099 v 0.903 H 468.08 v -0.903 q 1.978,-0.098 2.661,-0.66 0.708,-0.561 0.708,-1.367 0,-1.074 -0.976,-3.393 z m -0.684,-1.808 -5.615,-13.378 -5.762,13.378 z"
         style="line-height:1.25;-inkscape-font-specification:'Times New Roman, '"
         transform="translate(1.268,33.911)"
         id="path46" />
    </g>
    <g
       aria-label="ETA LEIALA"
       style="line-height:0.01%"
       id="g47">
      <path
         d="M 266.982,72.664 V 85.75 h 7.276 q 2.832,0 3.784,-0.854 1.27,-1.123 1.416,-3.955 h 0.903 v 11.523 h -0.903 q -0.342,-2.417 -0.684,-3.1 -0.439,-0.855 -1.44,-1.343 -1.001,-0.489 -3.076,-0.489 h -7.276 v 10.913 q 0,2.198 0.196,2.686 0.195,0.464 0.683,0.757 0.489,0.268 1.856,0.268 h 5.615 q 2.808,0 4.077,-0.39 1.27,-0.39 2.442,-1.538 1.513,-1.514 3.1,-4.566 h 0.977 l -2.857,8.301 H 257.56 v -0.903 h 1.171 q 1.172,0 2.222,-0.562 0.781,-0.39 1.05,-1.172 0.293,-0.78 0.293,-3.198 V 76.62 q 0,-3.15 -0.635,-3.882 -0.879,-0.976 -2.93,-0.976 h -1.171 v -0.903 h 25.512 l 0.367,7.25 h -0.953 q -0.512,-2.612 -1.147,-3.588 -0.61,-0.977 -1.831,-1.49 -0.977,-0.366 -3.443,-0.366 z m 49.048,-1.806 0.366,7.763 h -0.927 q -0.269,-2.05 -0.733,-2.93 -0.757,-1.415 -2.026,-2.075 -1.245,-0.683 -3.296,-0.683 h -4.663 v 25.293 q 0,3.052 0.66,3.808 0.927,1.026 2.856,1.026 h 1.147 v 0.903 h -14.038 v -0.903 h 1.172 q 2.1,0 2.978,-1.27 0.537,-0.781 0.537,-3.564 V 72.933 h -3.979 q -2.32,0 -3.296,0.342 -1.27,0.463 -2.173,1.782 -0.903,1.318 -1.074,3.564 h -0.928 l 0.39,-7.763 z m 20.508,22.022 h -12.817 l -2.246,5.224 q -0.83,1.928 -0.83,2.88 0,0.757 0.708,1.343 0.732,0.562 3.125,0.733 v 0.903 h -10.425 v -0.903 q 2.075,-0.366 2.685,-0.952 1.245,-1.172 2.76,-4.761 L 331.142,70.1 h 0.854 l 11.524,27.539 q 1.391,3.32 2.514,4.321 1.148,0.977 3.174,1.099 v 0.903 h -13.062 v -0.903 q 1.978,-0.098 2.662,-0.66 0.708,-0.561 0.708,-1.367 0,-1.074 -0.977,-3.393 z m -0.684,-1.808 -5.615,-13.378 -5.761,13.378 z m 52.369,3.736 0.805,0.17 -2.832,8.985 h -25.634 v -0.903 h 1.245 q 2.1,0 3.003,-1.367 0.512,-0.782 0.512,-3.614 V 76.717 q 0,-3.1 -0.683,-3.882 -0.952,-1.074 -2.832,-1.074 h -1.245 v -0.903 h 14.99 v 0.903 q -2.637,-0.024 -3.711,0.488 -1.05,0.513 -1.44,1.294 -0.391,0.781 -0.391,3.736 v 20.8 q 0,2.027 0.39,2.783 0.293,0.513 0.904,0.757 0.61,0.244 3.808,0.244 h 2.417 q 3.809,0 5.347,-0.561 1.538,-0.562 2.808,-1.978 1.27,-1.44 2.539,-4.516 z M 400.576,72.664 V 85.75 h 7.276 q 2.832,0 3.784,-0.854 1.27,-1.123 1.416,-3.955 h 0.903 v 11.523 h -0.903 q -0.342,-2.417 -0.684,-3.1 -0.44,-0.855 -1.44,-1.343 -1.001,-0.489 -3.076,-0.489 h -7.276 v 10.913 q 0,2.198 0.195,2.686 0.196,0.464 0.684,0.757 0.488,0.268 1.856,0.268 h 5.615 q 2.807,0 4.077,-0.39 1.27,-0.39 2.441,-1.538 1.514,-1.514 3.1,-4.566 h 0.977 l -2.856,8.301 h -25.513 v -0.903 h 1.172 q 1.172,0 2.222,-0.562 0.781,-0.39 1.05,-1.172 0.293,-0.78 0.293,-3.198 V 76.62 q 0,-3.15 -0.635,-3.882 -0.879,-0.976 -2.93,-0.976 h -1.172 v -0.903 h 25.513 l 0.366,7.25 h -0.952 q -0.513,-2.612 -1.147,-3.588 -0.61,-0.977 -1.831,-1.49 -0.977,-0.366 -3.443,-0.366 z m 35.547,30.396 v 0.903 h -14.185 v -0.903 h 1.172 q 2.051,0 2.979,-1.197 0.586,-0.78 0.586,-3.76 V 76.718 q 0,-2.515 -0.318,-3.32 -0.244,-0.61 -1,-1.05 -1.075,-0.586 -2.247,-0.586 h -1.172 v -0.903 h 14.185 v 0.903 h -1.196 q -2.027,0 -2.954,1.196 -0.61,0.781 -0.61,3.76 v 21.387 q 0,2.514 0.317,3.32 0.244,0.61 1.025,1.05 1.05,0.586 2.222,0.586 z M 460.269,92.88 H 447.45 l -2.246,5.224 q -0.83,1.928 -0.83,2.88 0,0.757 0.708,1.343 0.732,0.562 3.125,0.733 v 0.903 h -10.425 v -0.903 q 2.075,-0.366 2.686,-0.952 1.245,-1.172 2.759,-4.761 L 454.873,70.1 h 0.855 l 11.522,27.54 q 1.392,3.32 2.515,4.321 1.147,0.977 3.173,1.099 v 0.903 h -13.061 v -0.903 q 1.977,-0.098 2.661,-0.66 0.708,-0.561 0.708,-1.367 0,-1.074 -0.976,-3.393 z m -0.684,-1.808 -5.615,-13.378 -5.762,13.378 z m 42.603,3.736 0.805,0.17 -2.832,8.985 h -25.635 v -0.903 h 1.245 q 2.1,0 3.003,-1.367 0.513,-0.782 0.513,-3.614 V 76.717 q 0,-3.1 -0.683,-3.882 -0.953,-1.074 -2.833,-1.074 h -1.245 v -0.903 h 14.99 v 0.903 q -2.636,-0.024 -3.71,0.488 -1.05,0.513 -1.44,1.294 -0.391,0.781 -0.391,3.736 v 20.8 q 0,2.027 0.39,2.783 0.293,0.513 0.904,0.757 0.61,0.244 3.808,0.244 h 2.417 q 3.809,0 5.347,-0.561 1.538,-0.562 2.807,-1.978 1.27,-1.44 2.54,-4.516 z m 24.78,-1.928 H 514.15 l -2.246,5.224 q -0.83,1.928 -0.83,2.88 0,0.757 0.708,1.343 0.733,0.562 3.125,0.733 v 0.903 h -10.425 v -0.903 q 2.076,-0.366 2.686,-0.952 1.245,-1.172 2.759,-4.761 L 521.572,70.1 h 0.855 l 11.523,27.54 q 1.392,3.32 2.515,4.321 1.147,0.977 3.174,1.099 v 0.903 h -13.062 v -0.903 q 1.978,-0.098 2.661,-0.66 0.708,-0.561 0.708,-1.367 0,-1.074 -0.976,-3.393 z m -0.684,-1.808 -5.615,-13.378 -5.762,13.378 z"
         style="line-height:1.25;-inkscape-font-specification:'Times New Roman, '"
         transform="rotate(-90,407.586,365.224)"
         id="path47" />
    </g>
    <g
       aria-label="HIRI ZINTZO"
       style="line-height:0.01%"
       id="g48">
      <path
         d="m 266.812,86.214 h 15.38 v -9.473 q 0,-2.539 -0.317,-3.344 -0.244,-0.61 -1.025,-1.05 -1.05,-0.586 -2.222,-0.586 h -1.172 v -0.903 h 14.16 v 0.903 h -1.172 q -1.172,0 -2.221,0.561 -0.782,0.391 -1.075,1.197 -0.268,0.781 -0.268,3.222 v 21.363 q 0,2.514 0.317,3.32 0.244,0.61 1.001,1.05 1.074,0.586 2.246,0.586 h 1.172 v 0.903 h -14.16 v -0.903 h 1.172 q 2.026,0 2.954,-1.197 0.61,-0.78 0.61,-3.76 V 88.022 h -15.38 v 10.083 q 0,2.514 0.317,3.32 0.244,0.61 1.025,1.05 1.05,0.586 2.222,0.586 h 1.196 v 0.903 h -14.184 v -0.903 h 1.172 q 2.05,0 2.978,-1.197 0.586,-0.78 0.586,-3.76 V 76.742 q 0,-2.539 -0.317,-3.344 -0.245,-0.61 -1.001,-1.05 -1.075,-0.586 -2.246,-0.586 h -1.172 v -0.903 h 14.184 v 0.903 h -1.196 q -1.172,0 -2.222,0.561 -0.757,0.391 -1.05,1.197 -0.292,0.781 -0.292,3.222 z m 41.284,16.846 v 0.903 H 293.91 v -0.903 h 1.172 q 2.05,0 2.979,-1.197 0.585,-0.78 0.585,-3.76 V 76.718 q 0,-2.515 -0.317,-3.32 -0.244,-0.61 -1,-1.05 -1.075,-0.586 -2.247,-0.586 h -1.172 v -0.903 h 14.185 v 0.903 h -1.197 q -2.026,0 -2.954,1.196 -0.61,0.781 -0.61,3.76 v 21.387 q 0,2.514 0.317,3.32 0.244,0.61 1.026,1.05 1.05,0.586 2.221,0.586 z m 35.058,0.903 h -8.838 L 323.11,88.485 q -1.245,0.048 -2.026,0.048 H 320.4 l -0.756,-0.048 v 9.619 q 0,3.125 0.683,3.882 0.928,1.074 2.783,1.074 h 1.294 v 0.903 H 310.22 v -0.903 h 1.245 q 2.1,0 3.003,-1.367 0.512,-0.757 0.512,-3.59 V 76.718 q 0,-3.125 -0.683,-3.882 -0.952,-1.074 -2.832,-1.074 h -1.245 v -0.903 h 12.06 q 5.274,0 7.764,0.78 2.515,0.758 4.248,2.833 1.758,2.05 1.758,4.907 0,3.052 -2.002,5.298 -1.978,2.246 -6.152,3.174 l 6.835,9.497 q 2.344,3.271 4.029,4.346 1.684,1.074 4.394,1.367 z m -23.51,-17.017 q 0.463,0 0.805,0.025 h 0.562 q 4.736,0 7.129,-2.05 2.417,-2.052 2.417,-5.226 0,-3.1 -1.953,-5.029 -1.93,-1.953 -5.127,-1.953 -1.416,0 -3.833,0.464 z m 38.549,16.114 v 0.903 H 344.01 v -0.903 h 1.172 q 2.05,0 2.978,-1.197 0.586,-0.78 0.586,-3.76 V 76.718 q 0,-2.515 -0.317,-3.32 -0.244,-0.61 -1.001,-1.05 -1.074,-0.586 -2.246,-0.586 h -1.172 v -0.903 h 14.184 v 0.903 h -1.196 q -2.026,0 -2.954,1.196 -0.61,0.781 -0.61,3.76 v 21.387 q 0,2.514 0.317,3.32 0.244,0.61 1.025,1.05 1.05,0.586 2.222,0.586 z m 42.53,-32.202 -21.753,31.102 h 13.574 q 3.125,0 4.785,-1.367 1.685,-1.367 2.979,-5.542 l 0.805,0.146 -1.562,8.765 h -26.953 v -0.903 l 21.24,-30.225 h -10.596 q -2.637,0 -3.833,0.586 -1.172,0.562 -1.806,1.66 -0.61,1.074 -1.124,4.053 h -0.927 l 0.683,-8.276 z m 17.236,32.202 v 0.903 h -14.185 v -0.903 h 1.172 q 2.051,0 2.979,-1.197 0.586,-0.78 0.586,-3.76 V 76.718 q 0,-2.515 -0.318,-3.32 -0.244,-0.61 -1,-1.05 -1.075,-0.586 -2.247,-0.586 h -1.172 v -0.903 h 14.185 v 0.903 h -1.196 q -2.027,0 -2.954,1.196 -0.61,0.781 -0.61,3.76 v 21.387 q 0,2.514 0.317,3.32 0.244,0.61 1.025,1.05 1.05,0.586 2.222,0.586 z m 0.611,-32.202 h 8.984 l 20.239,24.829 V 76.595 q 0,-3.052 -0.684,-3.809 -0.903,-1.025 -2.856,-1.025 h -1.148 v -0.903 h 11.524 v 0.903 h -1.172 q -2.1,0 -2.978,1.27 -0.538,0.78 -0.538,3.564 V 104.5 h -0.878 L 427.236,77.84 v 20.386 q 0,3.052 0.66,3.808 0.927,1.026 2.856,1.026 h 1.172 v 0.903 H 420.4 v -0.903 h 1.148 q 2.124,0 3.003,-1.27 0.537,-0.781 0.537,-3.564 V 75.203 q -1.44,-1.684 -2.197,-2.221 -0.733,-0.537 -2.173,-1.001 -0.708,-0.22 -2.149,-0.22 z m 65.722,0 0.366,7.763 h -0.928 q -0.268,-2.05 -0.732,-2.93 -0.757,-1.415 -2.026,-2.075 -1.245,-0.683 -3.296,-0.683 h -4.663 v 25.293 q 0,3.052 0.659,3.808 0.928,1.026 2.856,1.026 h 1.148 v 0.903 h -14.038 v -0.903 h 1.172 q 2.1,0 2.978,-1.27 0.537,-0.781 0.537,-3.564 V 72.933 h -3.98 q -2.319,0 -3.295,0.342 -1.27,0.463 -2.173,1.782 -0.903,1.318 -1.074,3.564 h -0.928 l 0.39,-7.763 z m 30.396,0 -21.753,31.103 h 13.574 q 3.125,0 4.785,-1.367 1.685,-1.367 2.978,-5.542 l 0.806,0.146 -1.562,8.765 h -26.953 v -0.903 l 21.24,-30.225 h -10.596 q -2.637,0 -3.833,0.586 -1.172,0.562 -1.807,1.66 -0.61,1.074 -1.123,4.053 h -0.927 L 490.2,70.858 Z M 534.78,70.1 q 6.446,0 11.158,4.908 4.736,4.883 4.736,12.207 0,7.544 -4.76,12.524 -4.762,4.98 -11.524,4.98 -6.836,0 -11.5,-4.857 -4.638,-4.859 -4.638,-12.574 0,-7.885 5.371,-12.866 4.663,-4.321 11.157,-4.321 z m -0.464,1.783 q -4.443,0 -7.129,3.296 -3.344,4.101 -3.344,12.012 0,8.105 3.467,12.475 2.66,3.32 7.03,3.32 4.664,0 7.691,-3.637 3.052,-3.638 3.052,-11.475 0,-8.496 -3.345,-12.67 -2.685,-3.321 -7.422,-3.321 z"
         style="line-height:1.25;-inkscape-font-specification:'Times New Roman, '"
         transform="rotate(90,362.13,336.592)"
         id="path48" />
    </g>
  </g>
  <path
     fill="#e3e4e5"
     fill-rule="evenodd"
     d="m 167.99306,160.855 c 0,0 0.547,416.46 0.426,422.113 -0.608,23.826 2.127,47.47 102.17,57.255 36.59,2.918 81.14,20.057 99.74,47.043 0.12,0.121 0.182,0.243 0.242,0.304 l 0.244,-0.304 c 18.598,-26.986 63.15,-44.125 99.739,-47.043 100.043,-9.785 102.778,-33.429 102.17,-57.255 -0.121,-5.652 0.426,-422.113 0.426,-422.113 h -405.156 z"
     id="path49" />
  <path
     fill="none"
     stroke="#000000"
     stroke-width="2.431"
     d="m 167.69006,160.308 c 0,0 0.607,416.46 0.425,422.113 -0.608,23.826 2.127,47.53 102.17,57.255 36.59,2.918 81.14,20.118 99.8,47.104 0.061,0.06 0.122,0.182 0.243,0.304 l 0.183,-0.304 c 18.66,-26.986 63.21,-44.186 99.8,-47.104 100.043,-9.725 102.778,-33.429 102.17,-57.255 -0.182,-5.652 0.425,-422.113 0.425,-422.113 z"
     id="path50" />
  <path
     stroke="#313131"
     stroke-width="1.398"
     d="m 409.58606,409.686 -4.193,-2.796 c 9.907,-6.32 17.079,-12.763 17.079,-22.245 0,-18.72 -25.528,-34.462 -54.277,-34.462 -28.749,0 -53.668,15.134 -53.668,33.854 0,8.57 6.504,16.41 14.587,22.367 l -4.497,2.553 c -8.996,-6.625 -14.466,-15.377 -14.466,-24.92 0,-20.787 26.074,-38.048 58.044,-38.048 32.031,0 58.592,17.808 58.592,38.656 0,10.576 -6.625,18.295 -17.2,25.041 z"
     id="path51" />
  <path
     fill-rule="evenodd"
     stroke="#313131"
     stroke-width="1.398"
     d="m 324.13006,463.658 c -3.707,1.824 -6.868,18.66 -8.083,20.726 -3.525,5.957 -6.564,3.83 4.74,4.316 4.194,0.182 1.885,-7.598 4.68,-10.272 4.68,-4.437 10.758,-4.62 16.593,-1.824 3.95,-3.343 -8.023,-6.017 -12.46,-8.934 -2.674,-3.04 -2.127,-4.012 -5.47,-4.012 z m 88.435,0.243 c 4.862,1.641 6.746,16.046 8.266,20.483 3.586,5.957 6.807,3.465 -4.68,3.95 -4.255,0.244 -1.945,-7.232 -4.741,-9.906 -4.68,-4.437 -10.758,-4.923 -16.532,-2.188 -4.012,-3.343 7.415,-5.47 11.79,-8.449 5.897,-3.95 0.913,-9.846 5.897,-3.89 z m -49.232,11.974 c 1.64,3.83 2.431,7.294 2.613,12.764 1.824,0.121 3.647,0 5.47,0 -0.486,-5.835 1.216,-8.996 2.128,-12.764 z"
     id="path52" />
  <path
     stroke="#313131"
     stroke-width="1.398"
     d="m 326.68306,401.907 0.851,0.85 c 0.608,0.547 0.669,1.398 0.183,1.945 l -4.863,5.167 c -0.547,0.547 -1.398,0.486 -2.006,-0.061 l -0.85,-0.851 c -0.608,-0.547 -0.67,-1.459 -0.183,-1.945 l 4.863,-5.166 c 0.486,-0.547 1.398,-0.487 2.005,0.06 z m 81.572,0 -0.851,0.85 c -0.608,0.547 -0.669,1.398 -0.121,1.945 l 4.801,5.167 c 0.547,0.547 1.398,0.486 2.006,-0.061 l 0.912,-0.851 c 0.547,-0.547 0.668,-1.398 0.121,-1.945 l -4.862,-5.166 c -0.487,-0.547 -1.398,-0.487 -2.006,0.06 z"
     id="path53" />
  <path
     stroke="#313131"
     stroke-width="1.398"
     d="m 423.62706,434.97 c 0,26.318 -24.738,47.712 -55.128,47.712 -30.45,0 -55.187,-21.394 -55.187,-47.712 0,-12.277 5.41,-23.46 14.283,-31.909 -4.498,-14.77 24.676,-15.499 40.904,-15.742 18.842,-0.304 45.707,-0.607 39.993,14.891 9.36,8.51 15.135,20.058 15.135,32.76 z"
     id="path54" />
  <path
     stroke="#313131"
     stroke-width="1.398"
     d="m 413.47606,392.425 c 0,7.05 -20.179,12.703 -44.977,12.703 -24.859,0 -45.037,-5.653 -45.037,-12.703 0,-6.99 20.178,-12.703 45.037,-12.703 24.798,0 44.977,5.713 44.977,12.703 z"
     id="path55" />
  <path
     stroke="#313131"
     stroke-width="1.398"
     d="m 403.20406,392.425 c 0,4.437 -15.56,8.023 -34.705,8.023 -19.206,0 -34.766,-3.586 -34.766,-8.023 0,-4.376 15.56,-7.962 34.766,-7.962 19.146,0 34.705,3.586 34.705,7.962 z"
     id="path56" />
  <path
     fill-rule="evenodd"
     stroke="#313131"
     stroke-width="0.972"
     d="m 464.89206,442.318 c -8.388,13.554 -24.98,18.78 -25.163,30.025 -0.182,7.78 12.885,8.144 13.007,14.283 0.121,4.133 -8.327,14.405 -14.466,16.835 -1.033,0.426 -2.796,0.365 -3.95,0.365 -1.58,0.061 -6.565,-2.006 -7.78,-1.823 -0.79,0.425 -1.216,0.73 -1.945,1.033 -1.094,0.73 -1.58,2.796 -2.006,4.011 -0.243,0.79 0.547,2.37 1.398,2.614 1.58,0.486 2.674,0.243 4.072,-0.365 0.973,-0.364 2.067,0.061 3.1,-0.243 1.884,-0.547 5.956,-0.243 9.3,0.426 1.397,-3.161 4.436,-5.592 6.077,-6.382 0.547,0.243 0.73,1.155 0.73,1.52 2.249,-1.156 2.127,-3.344 2.553,-4.072 0.911,-1.58 2.43,-3.95 4.497,-5.531 0.608,0.182 1.398,0.668 1.702,1.459 0.851,-1.52 1.216,-3.83 1.033,-5.653 1.459,-2.674 4.133,-5.106 7.355,-6.625 -2.796,-3.768 -8.145,-1.58 -8.388,-8.57 -0.243,-7.172 8.51,-11.305 13.007,-26.743 0.912,-2.006 4.862,-3.04 -4.133,-6.564 z"
     id="path57" />
  <path
     fill-rule="evenodd"
     stroke="#313131"
     stroke-width="0.972"
     d="m 426.47906,502.003 c -0.669,0.486 -1.094,0.972 -1.884,1.033 -0.061,-0.972 -2.188,-2.795 -3.646,-3.16 2.066,-0.608 4.132,0.608 5.53,2.127 z m -2.189,1.215 c -0.607,0.73 -0.85,1.398 -1.154,2.188 -0.73,-0.668 -3.646,-0.425 -4.922,0.304 0.972,-1.823 4.071,-2.552 6.077,-2.492 z m -1.458,3.161 c -0.243,0.972 -0.243,1.58 0.061,2.188 -0.85,-0.425 -4.132,0.365 -5.226,1.398 0.547,-2.067 3.16,-3.221 5.165,-3.586 z m 8.206,2.674 c -0.912,-0.06 -1.824,-0.182 -2.857,0.243 -0.122,0.851 -1.58,1.641 -2.857,1.945 1.702,0.608 4.376,-0.85 5.714,-2.188 z m 25.041,-113.414 c -5.106,-5.713 -0.486,-10.88 -22.489,1.823 -2.978,-3.586 -5.774,-7.232 -8.448,-11.122 -1.641,-2.431 -5.105,-6.929 -6.077,-7.658 -2.188,-1.641 -9.421,-2.492 -9.664,-2.492 -1.338,-1.277 -2.553,-2.614 -4.498,-2.31 -0.79,0.122 -1.763,0.304 -2.249,0.912 0,0.547 0,0.85 0.121,1.337 0.183,0.973 -0.85,2.006 -1.397,2.553 1.094,0.85 0.79,1.762 0.547,2.613 0.243,0.851 0.668,1.398 1.154,1.945 1.945,0 3.222,-0.243 4.802,-1.276 1.823,-0.061 4.194,0.304 4.74,1.155 1.703,-0.243 2.675,-0.73 4.62,1.033 2.006,1.823 3.404,3.404 4.376,6.807 -1.458,-0.668 -2.127,-0.364 -3.1,-0.911 1.58,2.065 6.078,6.745 7.293,8.933 1.337,2.37 3.1,7.476 3.222,7.598 -1.034,1.641 -2.553,3.039 -3.283,4.984 1.216,-1.398 2.857,-2.127 4.377,-2.249 -1.034,3.04 -3.16,6.625 -3.343,9.239 2.735,-4.376 9.481,-8.449 11.913,-9.421 z"
     id="path58" />
  <path
     fill-rule="evenodd"
     stroke="#313131"
     stroke-width="0.972"
     d="m 402.59306,374.792 c 0.183,0.79 0.426,1.459 0.061,2.188 -0.85,-0.425 -3.404,0.669 -4.376,1.823 0.365,-2.127 2.37,-3.403 4.315,-4.011 z m -1.215,3.89 c 0.911,0.73 0.85,1.398 0.668,2.188 -0.911,-0.182 -3.403,1.276 -4.194,2.553 0,-2.067 1.702,-3.83 3.526,-4.741 z m 0.608,2.613 c 0.303,0.973 0.668,1.398 1.094,1.945 -0.973,0.061 -3.283,2.492 -3.708,3.951 -0.608,-2.006 1.094,-4.498 2.613,-5.896 z m 10.636,1.824 c -0.486,-0.608 -1.094,-0.79 -1.884,-0.973 -0.365,0.851 -2.006,1.277 -3.343,1.216 1.459,1.094 3.586,0.608 5.227,-0.243 z m 40.053,57.132 c 10.15,5.227 8.692,3.768 12.035,11.184 -2.006,0.607 -0.973,4.072 1.52,5.166 1.64,0.668 2.977,-2.31 2.491,-4.133 -2.796,-9.846 -5.896,-11.488 -16.046,-12.217 z"
     id="path59" />
  <path
     fill-rule="evenodd"
     stroke="#313131"
     stroke-width="0.972"
     d="m 506.10006,355.646 c -7.658,7.476 -13.857,11.427 -16.288,19.328 -3.1,8.51 -1.034,22.549 7.719,40.904 5.956,15.195 3.039,16.958 4.62,25.467 -8.57,24.92 -19.147,2.918 -26.501,5.288 -0.06,-0.06 -0.182,-0.122 -0.304,-0.182 -0.304,-4.377 -1.033,-9.36 -0.73,-13.493 0.426,-6.565 6.443,-29.357 4.985,-34.827 -3.526,-13.128 -4.255,-17.626 -13.737,-17.565 l -21.516,6.26 c -1.64,10.818 -4.437,14.526 -11.609,19.753 -4.558,-1.033 -8.995,-2.188 -13.492,-3.586 -2.796,-0.912 -8.266,-2.37 -9.482,-2.37 -2.735,0.06 -8.995,3.829 -9.177,3.95 -1.824,-0.121 -3.647,-0.425 -4.924,0.973 -0.607,0.608 -1.215,1.337 -1.276,2.127 0.365,0.425 0.547,0.608 0.912,0.972 0.79,0.67 0.607,2.067 0.486,2.918 1.337,-0.061 1.702,0.85 2.066,1.641 0.669,0.547 1.398,0.73 2.067,0.85 1.52,-1.154 2.37,-2.126 2.978,-3.95 1.459,-1.155 3.525,-2.37 4.437,-2.006 1.276,-1.215 1.702,-2.188 4.316,-2.005 2.735,0.182 4.801,0.547 7.658,2.674 -1.58,0.365 -1.884,1.033 -2.978,1.216 2.492,0.607 8.873,1.58 11.182,2.552 2.492,1.034 7.05,4.012 7.233,4.073 0.182,1.884 -0.182,3.95 0.486,5.895 0.122,-1.823 0.912,-3.403 2.067,-4.437 1.033,3.04 1.58,7.172 2.978,9.36 -0.486,-5.105 2.31,-12.52 3.647,-14.83 l 1.762,-7.293 c -0.121,19.085 21.152,34.401 21.395,47.043 0.243,13.858 -2.127,16.107 -4.315,26.561 -0.973,4.741 2.917,12.886 7.962,14.223 6.99,1.762 11.062,-2.432 15.681,-1.277 3.282,0.851 8.205,7.962 7.598,10.028 -0.851,3.222 -4.316,7.598 -5.957,9.056 -4.376,3.769 -7.05,3.708 -11.427,2.37 -1.762,-0.546 -2.005,-1.032 -2.735,-2.248 -0.85,-1.459 -2.43,1.337 -2.796,2.066 -0.12,0.183 -0.243,0.365 -0.303,0.547 -0.608,1.095 -0.912,2.796 -1.216,3.951 -0.304,1.337 2.067,1.337 2.978,1.155 2.492,-0.547 2.918,-1.094 5.714,-0.365 2.188,0.547 3.586,2.006 5.47,3.04 0.182,0.12 0.364,0.182 0.547,0.303 4.497,0.122 4.74,-6.868 9.36,-9.968 0.304,0.669 0.547,1.52 0.73,2.37 1.762,-1.276 1.883,-4.01 2.37,-5.713 1.215,-1.215 2.37,-2.674 3.95,-3.039 0.608,0.547 0.851,0.851 1.094,1.702 0.912,-1.094 1.277,-3.16 0.79,-3.95 -1.276,-2.066 -4.193,-6.929 -4.983,-8.205 -1.216,-2.188 -1.641,-4.62 -2.128,-6.99 -0.364,-1.58 -0.79,-3.16 0.061,-4.74 -3.829,0.243 -6.625,2.248 -10.697,1.58 -1.945,-0.547 -5.106,-1.763 -4.315,-5.47 0.486,-2.735 1.458,-4.62 2.248,-5.957 0.547,0.608 1.398,1.459 2.006,2.978 0.304,-1.884 0.426,-4.133 -0.06,-5.47 0.182,-0.73 0.607,-2.37 1.093,-2.613 0.365,0.425 0.669,0.911 0.73,1.52 0.243,-1.642 0,-4.802 -0.973,-8.085 -1.033,-3.22 -3.221,-6.503 -5.53,-8.63 l 0.06,-0.183 c 12.52,8.449 24.494,2.188 26.865,-4.862 1.033,-2.31 1.762,-2.796 2.613,-4.133 l -1.52,-0.365 c 0.852,-3.343 0.73,-3.89 1.034,-5.53 l 2.249,-0.973 c -1.094,0 -1.945,-1.459 -3.039,-2.492 0.669,-2.918 0.608,-6.321 2.127,-8.753 -0.85,0.608 -1.823,1.702 -2.249,1.338 0.183,-4.437 3.161,-5.896 3.586,-10.82 -0.972,1.277 -1.58,3.161 -2.978,3.77 -0.73,-3.648 2.614,-6.079 1.52,-9.24 l -1.945,2.979 c -2.37,-3.708 3.1,-2.918 2.37,-10.09 -3.95,2.006 -0.79,4.68 -3.343,4.802 -0.304,-2.006 0.122,-4.315 -1.64,-5.592 0.485,-2.127 2.613,-1.459 4.01,-1.094 -0.182,-3.16 -2.248,-3.1 -3.768,-3.89 3.708,-2.978 2.432,-5.227 0.669,-7.414 -0.304,2.126 0.668,4.861 -2.067,5.834 -1.033,-2.188 0.79,-3.464 0.487,-5.773 -0.365,-3.951 3.768,-5.592 -0.061,-8.449 0.243,2.006 0.364,3.343 -1.702,4.62 -0.851,-3.1 0.425,-6.869 1.094,-10.394 -1.033,1.641 -1.823,3.708 -3.1,4.741 -0.121,-3.1 0.851,-6.382 1.884,-9.725 -1.276,2.067 -2.492,4.255 -3.829,5.774 -0.608,-4.315 1.884,-6.442 3.222,-9.42 l -3.83,3.038 c 0.426,-3.282 2.796,-3.1 4.255,-7.415 -1.398,1.155 -2.735,2.067 -3.83,2.675 0.852,-3.404 6.018,-4.012 6.93,-10.394 z"
     id="path60" />
  <path
     fill-rule="evenodd"
     stroke="#313131"
     stroke-width="0.972"
     d="m 396.38806,407.673 c 0.608,0.547 1.216,0.912 1.398,1.702 -0.973,0.182 -2.31,2.613 -2.37,4.133 -0.973,-1.884 -0.244,-4.194 0.972,-5.835 z"
     id="path61" />
  <path
     fill-rule="evenodd"
     stroke="#313131"
     stroke-width="0.972"
     d="m 395.78606,411.502 c 1.155,0 1.52,0.608 1.884,1.337 -0.85,0.365 -1.945,3.1 -1.763,4.62 -1.276,-1.702 -0.972,-4.133 -0.12,-5.957 z m 2.066,1.702 c 0.851,0.547 1.398,0.669 2.067,0.85 -0.73,0.67 -1.033,4.012 -0.486,5.41 -1.702,-1.276 -1.884,-4.254 -1.58,-6.26 z m 9.543,-5.106 c -0.73,-0.121 -1.398,0.061 -2.067,0.426 0.183,0.85 -0.85,2.249 -1.945,2.978 1.824,0 3.222,-1.702 4.012,-3.404 z"
     id="path62" />
  <path
     stroke="#313131"
     stroke-linecap="round"
     stroke-linejoin="round"
     stroke-width="0.972"
     d="m 447.08306,359.354 c 0,0 -7.476,-0.122 -14.04,1.762 -6.625,1.885 -11.06,5.896 -15.072,5.106 -4.012,-0.73 -2.857,-6.747 -2.006,-7.172 0,0 -4.255,0.304 -5.896,5.956 -0.73,2.492 1.641,7.05 6.321,6.99 4.62,-0.06 6.26,-3.586 11.487,-6.017 4.74,-2.25 7.962,-3.647 19.51,-4.559 z"
     id="path63" />
  <path
     stroke="#313131"
     stroke-linecap="round"
     stroke-linejoin="round"
     stroke-width="0.972"
     d="m 428.91006,368.41 c 0,0 -0.911,-1.641 0.365,-3.708 0,0 0.85,2.614 2.796,4.133 0,0 -2.31,1.52 -3.16,-0.425 z m 3.708,0.365 0.486,-3.526 c 0,0 1.641,2.492 2.492,2.857 z m 3.403,-0.608 0.244,-4.072 2.735,3.16 -2.978,0.912 z"
     id="path64" />
  <path
     d="m 439.36406,366.283 c 0,0 -0.425,-1.52 0.244,-2.128 a 3.29,3.29 0 0 0 0.972,-1.458 c 0,0 1.823,1.52 1.763,2.492 l -2.857,1.094 z"
     id="path65" />
  <path
     fill="none"
     stroke="#313131"
     stroke-linecap="round"
     stroke-linejoin="round"
     stroke-width="0.972"
     d="m 439.36406,366.283 c 0,0 -0.425,-1.52 0.244,-2.128 a 3.29,3.29 0 0 0 0.972,-1.458 c 0,0 1.823,1.52 1.763,2.492 l -2.857,1.094"
     id="path66" />
  <path
     stroke="#313131"
     stroke-linecap="round"
     stroke-linejoin="round"
     stroke-width="0.972"
     d="m 424.47306,360.326 c 0,0 0.243,1.824 2.553,2.614 0,0 -0.972,-2.553 -0.365,-4.923 0,0 -2.796,0.243 -2.188,2.31 z m 2.979,-2.796 2.552,2.979 c 0,0 0.183,-3.343 0.73,-4.133 z"
     id="path67" />
  <path
     d="m 436.99406,355.22 c 0,0 0.486,1.581 1.398,1.703 a 3.52,3.52 0 0 1 1.64,0.668 c 0,0 0.609,-2.31 0.062,-3.1 l -2.978,0.73 z"
     id="path68" />
  <path
     fill="none"
     stroke="#313131"
     stroke-linecap="round"
     stroke-linejoin="round"
     stroke-width="0.972"
     d="m 436.99406,355.22 c 0,0 0.486,1.581 1.398,1.703 a 3.52,3.52 0 0 1 1.64,0.668 c 0,0 0.609,-2.31 0.062,-3.1 l -2.978,0.73"
     id="path69" />
  <path
     stroke="#313131"
     stroke-linecap="round"
     stroke-linejoin="round"
     stroke-width="0.972"
     d="m 430.67306,356.862 2.553,2.735 0.668,-3.768 z m 3.221,-0.912 2.614,2.735 0.607,-3.768 z"
     id="path70" />
  <path
     fill-rule="evenodd"
     stroke="#313131"
     stroke-width="0.972"
     d="m 450.79106,335.953 c -2.492,1.52 -4.012,4.134 -4.802,5.957 -0.243,-0.061 -0.486,-0.121 -0.79,-0.182 0.486,-4.194 -1.094,-5.531 -1.094,-5.531 0,0 -0.304,0.486 -1.094,2.127 -0.79,1.64 -2.127,3.525 -2.127,3.525 l -1.459,0.365 c -6.443,1.762 -6.929,6.929 -8.813,8.144 -1.884,1.216 -5.956,1.459 -8.51,1.885 -2.551,0.425 -2.916,2.917 -1.761,3.403 -0.182,0.304 -0.85,1.337 -0.486,2.553 0.547,2.066 4.618,2.37 4.861,1.763 0.73,-1.763 14.588,-5.106 17.687,-3.951 8.449,5.166 -6.746,11.73 -12.52,12.764 -1.52,0.304 -1.216,-0.608 -1.216,-0.608 0,0 -0.608,-0.122 -0.608,0.668 -0.06,4.133 4.498,4.437 4.498,4.437 -1.216,-1.276 2.492,-2.978 4.498,-3.829 2.066,-0.911 4.619,0.304 7.78,-1.094 0.182,-0.06 0.425,-0.06 0.607,-0.06 -0.243,1.944 -0.486,3.89 -1.398,5.713 -1.884,2.978 -4.011,6.017 -6.868,8.144 1.337,0.122 4.012,-0.243 5.714,-0.79 -2.979,3.525 -3.89,6.625 -8.327,8.935 2.674,0.425 5.592,-0.061 7.962,-2.37 -0.243,1.762 -5.41,10.939 -6.443,12.154 5.896,-1.64 12.946,-2.978 13.433,-7.293 0.668,5.105 1.033,6.2 -0.122,8.205 3.89,-1.215 6.93,-4.68 7.962,-8.63 0.851,2.917 1.702,4.68 1.763,7.536 2.553,-2.249 4.559,-9.177 3.282,-13.188 1.824,2.43 4.984,4.862 8.752,6.077 -1.884,-2.734 -3.768,-7.293 -4.315,-10.271 1.945,0.912 8.327,1.884 11.974,0.486 -3.708,-1.52 -7.294,-6.747 -7.659,-10.393 1.702,1.458 2.614,1.823 4.194,2.37 -1.884,-2.492 -4.194,-6.382 -4.984,-8.448 2.37,1.823 3.404,2.674 5.774,3.221 -2.856,-3.221 -4.619,-6.382 -6.625,-9.117 0.851,0.182 2.432,0.79 3.283,1.276 -5.228,-6.2 -10.88,-17.626 -20.058,-18.416 0.486,-4.255 -1.945,-7.537 -1.945,-7.537 z"
     id="path71" />
  <path
     d="m 440.88406,341.85 c 1.884,-0.366 3.343,-0.305 4.315,-0.122 z"
     id="path72" />
  <path
     fill="none"
     stroke="#313131"
     stroke-linecap="round"
     stroke-linejoin="round"
     stroke-width="0.972"
     d="m 440.88406,341.85 c 1.884,-0.366 3.343,-0.305 4.315,-0.122"
     id="path73" />
  <path
     d="m 422.65006,354.066 c 0,0 -1.093,2.066 -2.309,1.58 z"
     id="path74" />
  <path
     fill="none"
     stroke="#313131"
     stroke-linecap="round"
     stroke-linejoin="round"
     stroke-width="0.972"
     d="m 422.65006,354.066 c 0,0 -1.093,2.066 -2.309,1.58"
     id="path75" />
  <path
     d="m 450.42606,340.39 c 0,0 0.73,2.796 -0.304,5.106 z"
     id="path76" />
  <path
     fill="none"
     stroke="#313131"
     stroke-linecap="round"
     stroke-linejoin="round"
     stroke-width="0.972"
     d="m 450.42606,340.39 c 0,0 0.73,2.796 -0.304,5.106"
     id="path77" />
  <path
     d="m 445.13806,344.098 c 0,0 0.244,-0.912 0.851,-2.188 z"
     id="path78" />
  <path
     fill="none"
     stroke="#313131"
     stroke-linecap="round"
     stroke-linejoin="round"
     stroke-width="0.972"
     d="m 445.13806,344.098 c 0,0 0.244,-0.912 0.851,-2.188"
     id="path79" />
  <path
     d="m 444.83506,368.35 c 3.525,-1.46 7.354,-3.465 8.873,-7.902 z"
     id="path80" />
  <path
     fill="none"
     stroke="#313131"
     stroke-linecap="round"
     stroke-linejoin="round"
     stroke-width="0.972"
     d="m 444.83506,368.35 c 3.525,-1.46 7.354,-3.465 8.873,-7.902"
     id="path81" />
  <path
     d="m 452.73606,343.49 a 9.738,9.738 0 0 1 -0.973,3.222 z"
     id="path82" />
  <path
     fill="none"
     stroke="#313131"
     stroke-linecap="round"
     stroke-linejoin="round"
     stroke-width="0.972"
     d="m 452.73606,343.49 a 9.738,9.738 0 0 1 -0.973,3.222"
     id="path83" />
  <path
     fill-rule="evenodd"
     stroke="#313131"
     stroke-width="0.972"
     d="m 434.74506,348.231 c 2.796,2.614 4.376,-4.376 7.233,-0.972 -1.702,0.547 -2.614,3.16 -4.437,3.403 -1.094,-0.182 -2.006,-1.398 -2.796,-2.431 z"
     id="path84" />
  <path
     stroke="#313131"
     stroke-width="0.972"
     d="m 439.91106,348.657 c 0,0.547 -0.607,0.972 -1.337,0.972 -0.79,0 -1.398,-0.425 -1.398,-0.972 0,-0.487 0.608,-0.912 1.337,-0.912 0.73,-0.061 1.338,0.364 1.398,0.912 h -1.398 z"
     id="path85" />
  <path
     fill-rule="evenodd"
     stroke="#313131"
     stroke-width="0.972"
     d="m 470.54406,508.142 c -0.972,0.364 -1.337,1.337 -1.64,1.58 -0.487,-0.79 -3.283,-1.216 -4.741,-0.851 1.458,-1.52 4.437,-1.337 6.381,-0.73 z m -2.188,2.613 c -0.121,0.365 -0.729,1.459 -0.85,2.249 -0.548,-0.851 -3.343,-1.58 -4.741,-1.155 1.337,-1.58 3.707,-1.641 5.591,-1.094 z m -1.094,3.282 c 0,1.033 0.122,1.459 0.669,2.188 -0.851,-0.425 -4.012,0.486 -5.045,1.58 0.486,-2.066 2.431,-3.282 4.376,-3.768 z m 9.421,2.127 c -0.668,-0.243 -1.458,-0.486 -2.005,-0.547 -0.244,0.851 -1.763,1.58 -3.04,1.763 1.58,0.79 3.647,0 5.045,-1.216 z m -205.978,-73.232 c 8.388,13.554 24.98,18.781 25.163,30.086 0.182,7.78 -12.885,8.145 -13.007,14.223 -0.121,4.133 8.327,14.405 14.466,16.836 1.033,0.425 2.795,0.365 3.95,0.425 1.58,0 6.504,-2.066 7.78,-1.884 0.79,0.426 1.216,0.73 1.945,1.033 1.094,0.79 1.58,2.796 1.945,4.012 0.304,0.79 -0.486,2.37 -1.337,2.613 -1.58,0.487 -2.674,0.244 -4.072,-0.303 -0.973,-0.426 -2.128,0 -3.1,-0.244 -1.884,-0.547 -5.957,-0.304 -9.3,0.365 -1.397,-3.16 -4.497,-5.592 -6.077,-6.382 -0.548,0.243 -0.73,1.155 -0.73,1.52 -2.249,-1.155 -2.127,-3.283 -2.553,-4.073 -0.911,-1.58 -2.43,-3.89 -4.497,-5.53 -0.608,0.182 -1.398,0.729 -1.702,1.519 -0.851,-1.58 -1.216,-3.89 -1.033,-5.713 -1.52,-2.675 -4.133,-5.106 -7.355,-6.565 2.796,-3.768 8.145,-1.64 8.388,-8.63 0.243,-7.173 -8.51,-11.245 -13.007,-26.744 -0.912,-2.005 -4.862,-3.039 4.133,-6.564 z"
     id="path86" />
  <path
     fill-rule="evenodd"
     stroke="#313131"
     stroke-width="0.972"
     d="m 309.11806,502.618 c 0.668,0.486 1.094,0.973 1.884,1.033 0.06,-0.972 2.188,-2.735 3.586,-3.16 -2.006,-0.547 -4.072,0.668 -5.47,2.127 z m 2.188,1.216 c 0.608,0.79 0.85,1.458 1.155,2.188 0.668,-0.608 3.647,-0.426 4.923,0.364 -1.033,-1.884 -4.072,-2.613 -6.078,-2.552 z m 1.459,3.16 c 0.243,1.034 0.243,1.58 -0.061,2.25 0.85,-0.487 4.133,0.303 5.227,1.336 -0.608,-2.005 -3.16,-3.16 -5.166,-3.586 z m -8.205,2.675 c 0.85,0 1.823,-0.183 2.856,0.243 0.121,0.85 1.58,1.64 2.857,1.945 -1.702,0.668 -4.376,-0.851 -5.714,-2.188 z m -25.042,-113.354 c 5.106,-5.774 0.486,-10.94 22.489,1.762 2.978,-3.586 5.774,-7.232 8.448,-11.122 1.641,-2.37 5.106,-6.93 6.017,-7.659 2.25,-1.64 9.482,-2.492 9.664,-2.492 1.398,-1.276 2.614,-2.613 4.498,-2.248 0.85,0.06 1.823,0.303 2.309,0.85 0,0.608 0,0.851 -0.122,1.338 -0.182,1.033 0.851,2.005 1.398,2.613 -1.094,0.79 -0.79,1.702 -0.607,2.553 -0.183,0.85 -0.669,1.459 -1.094,1.945 -1.945,0 -3.221,-0.182 -4.801,-1.277 -1.824,-0.06 -4.194,0.304 -4.741,1.155 -1.702,-0.243 -2.674,-0.729 -4.62,1.034 -2.066,1.823 -3.464,3.403 -4.376,6.868 1.46,-0.73 2.067,-0.426 3.1,-0.973 -1.58,2.067 -6.078,6.747 -7.293,8.935 -1.338,2.37 -3.1,7.476 -3.222,7.658 0.973,1.58 2.553,3.04 3.282,4.984 -1.276,-1.398 -2.856,-2.127 -4.376,-2.249 1.034,2.978 3.16,6.625 3.343,9.178 -2.735,-4.315 -9.482,-8.448 -11.973,-9.42 z"
     id="path87" />
  <path
     fill-rule="evenodd"
     stroke="#313131"
     stroke-width="0.972"
     d="m 333.00406,375.467 c -0.183,0.79 -0.425,1.398 -0.122,2.128 0.912,-0.365 3.465,0.729 4.437,1.823 -0.365,-2.067 -2.37,-3.404 -4.315,-3.95 z m 1.216,3.829 c -0.912,0.73 -0.852,1.46 -0.67,2.188 0.912,-0.182 3.404,1.338 4.194,2.614 0,-2.127 -1.762,-3.83 -3.525,-4.802 z m -0.609,2.614 c -0.364,0.972 -0.668,1.398 -1.093,1.945 0.972,0.06 3.281,2.553 3.707,3.95 0.608,-2.005 -1.094,-4.497 -2.614,-5.895 z m -10.635,1.823 c 0.486,-0.547 1.094,-0.79 1.884,-0.911 0.365,0.79 2.006,1.215 3.343,1.154 -1.459,1.094 -3.586,0.669 -5.227,-0.243 z m -40.054,57.133 c -10.15,5.288 -8.692,3.768 -12.095,11.244 2.066,0.608 1.033,4.011 -1.46,5.105 -1.64,0.67 -2.977,-2.31 -2.491,-4.133 2.796,-9.846 5.895,-11.487 16.046,-12.216 z"
     id="path88" />
  <path
     fill-rule="evenodd"
     stroke="#313131"
     stroke-width="0.972"
     d="m 229.49606,356.26 c 7.659,7.477 13.858,11.427 16.229,19.39 3.16,8.448 1.094,22.488 -7.659,40.905 -5.956,15.134 -3.1,16.956 -4.619,25.405 8.57,24.92 19.146,2.978 26.44,5.288 l 0.364,-0.183 c 0.243,-4.376 1.033,-9.36 0.73,-13.493 -0.426,-6.503 -6.444,-29.295 -4.985,-34.826 3.525,-13.129 4.255,-17.626 13.676,-17.565 l 21.577,6.26 c 1.64,10.819 4.436,14.526 11.609,19.753 4.558,-1.033 8.995,-2.127 13.493,-3.586 2.796,-0.911 8.266,-2.37 9.481,-2.31 2.735,0 8.995,3.83 9.177,3.951 1.824,-0.182 3.586,-0.486 4.924,0.912 0.607,0.608 1.215,1.337 1.276,2.127 -0.365,0.426 -0.547,0.669 -0.912,0.973 -0.79,0.668 -0.608,2.127 -0.486,2.917 -1.398,-0.06 -1.702,0.851 -2.067,1.702 -0.668,0.486 -1.398,0.669 -2.066,0.79 -1.52,-1.155 -2.37,-2.127 -2.978,-3.95 -1.458,-1.155 -3.525,-2.31 -4.497,-1.945 -1.216,-1.277 -1.641,-2.25 -4.255,-2.067 -2.735,0.182 -4.801,0.608 -7.658,2.735 1.58,0.304 1.884,0.973 2.978,1.155 -2.492,0.608 -8.874,1.58 -11.183,2.553 -2.492,1.094 -7.05,4.011 -7.233,4.072 -0.183,1.884 0.121,3.95 -0.486,5.957 -0.122,-1.885 -0.973,-3.465 -2.067,-4.498 -1.033,3.039 -1.58,7.233 -2.978,9.36 0.486,-5.106 -2.31,-12.46 -3.647,-14.77 l -1.763,-7.354 c 0.122,19.085 -21.151,34.461 -21.394,47.043 -0.243,13.918 2.127,16.107 4.315,26.56 0.973,4.742 -2.917,12.947 -7.962,14.223 -6.99,1.763 -11.062,-2.431 -15.68,-1.215 -3.283,0.79 -8.206,7.901 -7.598,9.968 0.85,3.22 4.315,7.658 5.956,9.117 4.376,3.768 7.05,3.646 11.426,2.31 1.763,-0.548 2.006,-1.034 2.675,-2.25 0.911,-1.458 2.492,1.398 2.856,2.067 0.122,0.182 0.183,0.365 0.304,0.547 0.608,1.094 0.912,2.796 1.216,4.011 0.304,1.277 -2.067,1.277 -3.04,1.094 -2.43,-0.547 -2.856,-1.094 -5.652,-0.364 -2.188,0.547 -3.586,2.005 -5.47,3.039 -0.182,0.121 -0.365,0.243 -0.547,0.304 -4.497,0.182 -4.74,-6.808 -9.36,-9.968 -0.304,0.668 -0.547,1.52 -0.73,2.43 -1.822,-1.336 -1.883,-4.071 -2.37,-5.773 -1.215,-1.155 -2.37,-2.675 -3.95,-3.04 -0.608,0.548 -0.851,0.913 -1.094,1.703 -0.973,-1.094 -1.277,-3.1 -0.79,-3.89 1.276,-2.128 4.193,-6.99 4.923,-8.266 1.276,-2.128 1.64,-4.62 2.188,-6.99 0.365,-1.58 0.79,-3.16 -0.061,-4.74 3.83,0.242 6.625,2.248 10.697,1.58 1.945,-0.487 5.045,-1.763 4.315,-5.47 -0.547,-2.736 -1.458,-4.62 -2.249,-5.957 -0.547,0.608 -1.397,1.458 -2.005,2.978 -0.304,-1.823 -0.426,-4.133 0.06,-5.41 -0.182,-0.729 -0.607,-2.43 -1.093,-2.674 -0.365,0.426 -0.669,0.912 -0.73,1.58 -0.243,-1.701 0,-4.862 0.973,-8.083 0.972,-3.282 3.221,-6.504 5.53,-8.692 l -0.06,-0.182 c -12.52,8.51 -24.494,2.188 -26.865,-4.863 -1.033,-2.31 -1.762,-2.795 -2.613,-4.133 l 1.52,-0.364 c -0.912,-3.343 -0.73,-3.83 -1.034,-5.531 l -2.249,-0.912 c 1.094,-0.06 1.885,-1.52 3.04,-2.492 -0.73,-2.978 -0.67,-6.381 -2.128,-8.812 0.79,0.668 1.763,1.702 2.249,1.337 -0.182,-4.437 -3.16,-5.835 -3.586,-10.819 0.972,1.337 1.58,3.16 2.978,3.83 0.73,-3.708 -2.613,-6.14 -1.52,-9.3 l 1.946,2.978 c 2.37,-3.647 -3.1,-2.856 -2.432,-10.09 4.012,2.006 0.851,4.68 3.404,4.802 0.304,-2.005 -0.121,-4.315 1.641,-5.53 -0.486,-2.189 -2.613,-1.52 -4.011,-1.155 0.182,-3.161 2.248,-3.1 3.768,-3.89 -3.708,-2.979 -2.431,-5.227 -0.669,-7.355 0.304,2.067 -0.668,4.802 2.067,5.835 1.033,-2.249 -0.79,-3.525 -0.486,-5.835 0.364,-3.95 -3.769,-5.53 0.06,-8.448 -0.243,2.066 -0.364,3.404 1.702,4.62 0.851,-3.1 -0.486,-6.808 -1.094,-10.333 1.034,1.58 1.824,3.646 3.1,4.74 0.06,-3.16 -0.85,-6.442 -1.884,-9.724 1.276,2.005 2.492,4.193 3.829,5.774 0.608,-4.376 -1.884,-6.504 -3.221,-9.482 l 3.829,3.039 c -0.426,-3.282 -2.796,-3.1 -4.316,-7.415 1.46,1.155 2.796,2.127 3.89,2.674 -0.911,-3.404 -6.017,-3.95 -6.929,-10.393 z"
     id="path89" />
  <path
     fill-rule="evenodd"
     stroke="#313131"
     stroke-width="0.972"
     d="m 341.20906,408.35 c -0.608,0.485 -1.216,0.85 -1.398,1.64 0.912,0.243 2.249,2.675 2.37,4.133 0.973,-1.884 0.244,-4.133 -0.972,-5.774 z m -1.398,3.768 c -1.155,0.06 -1.58,0.607 -1.884,1.337 0.85,0.425 1.884,3.1 1.762,4.619 1.277,-1.641 0.973,-4.072 0.122,-5.956 z m -2.067,1.762 c -0.85,0.486 -1.398,0.608 -2.066,0.851 0.73,0.608 1.033,3.95 0.486,5.349 1.702,-1.216 1.884,-4.255 1.58,-6.2 z m -9.541,-5.166 c 0.73,-0.122 1.398,0.06 2.066,0.486 -0.182,0.851 0.851,2.188 1.884,2.978 -1.762,-0.06 -3.16,-1.762 -3.95,-3.464 z"
     id="path90" />
  <path
     stroke="#313131"
     stroke-linecap="round"
     stroke-linejoin="round"
     stroke-width="0.972"
     d="m 288.51306,359.968 c 0,0 7.476,-0.06 14.04,1.763 6.565,1.884 11.002,5.896 15.074,5.166 4.012,-0.79 2.857,-6.746 2.006,-7.233 0,0 4.254,0.365 5.895,5.957 0.73,2.492 -1.701,7.05 -6.32,6.99 -4.62,-0.061 -6.261,-3.526 -11.488,-6.018 -4.74,-2.248 -7.962,-3.646 -19.51,-4.558 z"
     id="path91" />
  <path
     stroke="#313131"
     stroke-linecap="round"
     stroke-linejoin="round"
     stroke-width="0.972"
     d="m 306.68706,369.025 c 0,0 0.911,-1.58 -0.365,-3.647 0,0 -0.85,2.553 -2.796,4.133 0,0 2.31,1.458 3.16,-0.486 z m -3.707,0.365 -0.487,-3.526 c 0,0 -1.641,2.492 -2.492,2.857 z m -3.405,-0.609 -0.243,-4.072 -2.735,3.222 z"
     id="path92" />
  <path
     d="m 296.23306,366.958 c 0,0 0.425,-1.58 -0.244,-2.188 -0.729,-0.608 -0.972,-1.459 -0.972,-1.459 0,0 -1.824,1.52 -1.763,2.492 l 2.857,1.094 z"
     id="path93" />
  <path
     fill="none"
     stroke="#313131"
     stroke-linecap="round"
     stroke-linejoin="round"
     stroke-width="0.972"
     d="m 296.23306,366.958 c 0,0 0.425,-1.58 -0.244,-2.188 -0.729,-0.608 -0.972,-1.459 -0.972,-1.459 0,0 -1.824,1.52 -1.763,2.492 l 2.857,1.094"
     id="path94" />
  <path
     stroke="#313131"
     stroke-linecap="round"
     stroke-linejoin="round"
     stroke-width="0.972"
     d="m 311.12406,360.94 c 0,0 -0.304,1.824 -2.553,2.675 0,0 0.972,-2.553 0.365,-4.984 0,0 2.795,0.243 2.188,2.31 z m -3.039,-2.734 -2.492,2.917 c 0,0 -0.183,-3.343 -0.73,-4.072 z"
     id="path95" />
  <path
     d="m 298.60306,355.896 c 0,0 -0.486,1.52 -1.398,1.641 a 3.519,3.519 0 0 0 -1.641,0.669 c 0,0 -0.608,-2.25 -0.06,-3.04 l 2.977,0.67 z"
     id="path96" />
  <path
     fill="none"
     stroke="#313131"
     stroke-linecap="round"
     stroke-linejoin="round"
     stroke-width="0.972"
     d="m 298.60306,355.896 c 0,0 -0.486,1.52 -1.398,1.641 a 3.519,3.519 0 0 0 -1.641,0.669 c 0,0 -0.608,-2.25 -0.06,-3.04 l 2.977,0.67"
     id="path97" />
  <path
     stroke="#313131"
     stroke-linecap="round"
     stroke-linejoin="round"
     stroke-width="0.972"
     d="m 304.92406,357.476 -2.553,2.735 -0.668,-3.707 z m -3.221,-0.911 -2.614,2.735 -0.608,-3.769 z"
     id="path98" />
  <path
     fill-rule="evenodd"
     stroke="#313131"
     stroke-width="0.972"
     d="m 284.80606,336.568 c 2.492,1.58 4.011,4.133 4.802,5.956 0.243,-0.06 0.486,-0.12 0.79,-0.182 -0.487,-4.133 1.094,-5.53 1.094,-5.53 0,0 0.304,0.485 1.094,2.126 0.79,1.642 2.127,3.586 2.127,3.586 0.486,0.061 0.972,0.183 1.459,0.304 6.442,1.763 6.929,6.99 8.813,8.206 1.884,1.215 5.956,1.398 8.51,1.823 2.552,0.426 2.916,2.978 1.762,3.465 0.182,0.243 0.85,1.276 0.486,2.552 -0.547,2.006 -4.62,2.31 -4.863,1.702 -0.729,-1.702 -14.647,-5.105 -17.686,-3.89 -8.449,5.106 6.746,11.67 12.52,12.703 1.52,0.304 1.216,-0.547 1.216,-0.547 0,0 0.608,-0.182 0.608,0.608 0.06,4.133 -4.498,4.437 -4.498,4.437 1.215,-1.276 -2.492,-2.918 -4.559,-3.83 -2.005,-0.91 -4.558,0.305 -7.719,-1.093 -0.182,0 -0.425,-0.061 -0.607,-0.061 0.243,1.945 0.486,3.95 1.397,5.713 1.885,3.04 4.012,6.078 6.869,8.145 -1.398,0.121 -4.012,-0.183 -5.714,-0.73 2.979,3.465 3.89,6.625 8.327,8.874 -2.674,0.486 -5.592,-0.06 -7.962,-2.37 0.243,1.823 5.41,10.94 6.443,12.156 -5.896,-1.58 -13.007,-2.978 -13.433,-7.294 -0.668,5.106 -1.033,6.2 0.122,8.205 -3.89,-1.215 -6.99,-4.68 -7.962,-8.63 -0.912,2.917 -1.702,4.68 -1.763,7.536 -2.553,-2.188 -4.559,-9.177 -3.282,-13.189 -1.884,2.431 -4.984,4.863 -8.753,6.078 1.885,-2.735 3.769,-7.293 4.316,-10.272 -1.945,0.973 -8.327,1.945 -11.974,0.487 3.708,-1.52 7.294,-6.747 7.658,-10.394 -1.701,1.459 -2.613,1.824 -4.254,2.431 1.945,-2.492 4.254,-6.442 5.045,-8.509 -2.37,1.884 -3.404,2.675 -5.775,3.222 2.857,-3.161 4.62,-6.382 6.625,-9.057 -0.85,0.122 -2.43,0.73 -3.282,1.216 5.227,-6.2 10.88,-17.626 20.058,-18.356 -0.486,-4.254 1.945,-7.597 1.945,-7.597 z"
     id="path99" />
  <path
     d="m 294.71306,342.524 c -1.945,-0.364 -3.343,-0.364 -4.315,-0.182 z"
     id="path100" />
  <path
     fill="none"
     stroke="#313131"
     stroke-linecap="round"
     stroke-linejoin="round"
     stroke-width="0.972"
     d="m 294.71306,342.524 c -1.945,-0.364 -3.343,-0.364 -4.315,-0.182"
     id="path101" />
  <path
     d="m 312.94706,354.68 c 0,0 1.094,2.067 2.31,1.58 z"
     id="path102" />
  <path
     fill="none"
     stroke="#313131"
     stroke-linecap="round"
     stroke-linejoin="round"
     stroke-width="0.972"
     d="m 312.94706,354.68 c 0,0 1.094,2.067 2.31,1.58"
     id="path103" />
  <path
     d="m 285.17006,341.005 c 0,0 -0.729,2.796 0.304,5.106 z"
     id="path104" />
  <path
     fill="none"
     stroke="#313131"
     stroke-linecap="round"
     stroke-linejoin="round"
     stroke-width="0.972"
     d="m 285.17006,341.005 c 0,0 -0.729,2.796 0.304,5.106"
     id="path105" />
  <path
     d="m 290.45806,344.773 c 0,0 -0.243,-0.972 -0.85,-2.249 z"
     id="path106" />
  <path
     fill="none"
     stroke="#313131"
     stroke-linecap="round"
     stroke-linejoin="round"
     stroke-width="0.972"
     d="m 290.45806,344.773 c 0,0 -0.243,-0.972 -0.85,-2.249"
     id="path107" />
  <path
     d="m 290.76206,368.964 c -3.525,-1.459 -7.354,-3.465 -8.874,-7.84 z"
     id="path108" />
  <path
     fill="none"
     stroke="#313131"
     stroke-linecap="round"
     stroke-linejoin="round"
     stroke-width="0.972"
     d="m 290.76206,368.964 c -3.525,-1.459 -7.354,-3.465 -8.874,-7.84"
     id="path109" />
  <path
     d="m 282.86006,344.166 c 0.122,1.033 0.426,2.066 0.913,3.22 z"
     id="path110" />
  <path
     fill="none"
     stroke="#313131"
     stroke-linecap="round"
     stroke-linejoin="round"
     stroke-width="0.972"
     d="m 282.86006,344.166 c 0.122,1.033 0.426,2.066 0.913,3.22"
     id="path111" />
  <path
     fill-rule="evenodd"
     stroke="#313131"
     stroke-width="0.972"
     d="m 300.79106,348.846 c -2.735,2.613 -4.315,-4.377 -7.172,-0.973 1.702,0.547 2.614,3.221 4.437,3.404 1.094,-0.183 2.006,-1.398 2.735,-2.431 z"
     id="path112" />
  <path
     stroke="#313131"
     stroke-width="0.972"
     d="m 295.68506,349.332 c 0,0.486 0.608,0.912 1.338,0.912 0.79,0 1.398,-0.426 1.398,-0.912 0,-0.547 -0.608,-0.973 -1.338,-0.973 -0.729,0 -1.337,0.426 -1.398,0.912 l 1.398,0.061 z"
     id="path113" />
  <path
     fill-rule="evenodd"
     stroke="#313131"
     stroke-width="0.972"
     d="m 265.05206,508.757 c 0.973,0.365 1.338,1.337 1.58,1.641 0.548,-0.79 3.344,-1.276 4.802,-0.851 -1.458,-1.58 -4.437,-1.337 -6.382,-0.79 z m 2.188,2.674 c 0.122,0.304 0.73,1.398 0.851,2.188 0.547,-0.79 3.343,-1.52 4.741,-1.155 -1.337,-1.58 -3.707,-1.64 -5.592,-1.033 z m 1.095,3.222 c 0,1.033 -0.122,1.52 -0.669,2.188 0.85,-0.426 3.95,0.486 5.045,1.58 -0.487,-2.067 -2.432,-3.282 -4.376,-3.768 z m -9.482,2.187 a 8.067,8.067 0 0 1 2.066,-0.546 c 0.244,0.85 1.763,1.52 3.04,1.701 -1.58,0.79 -3.647,0 -5.106,-1.154 z"
     id="path114" />
  <path
     fill-rule="evenodd"
     stroke="#313131"
     stroke-width="1.945"
     d="m 366.12906,168.21 c -11.366,-0.122 -17.444,17.929 -16.532,26.134 0.668,6.504 8.023,11.366 19.51,11.366 11.427,0 18.902,-6.99 19.024,-13.554 0.121,-6.807 -7.111,-24.98 -18.963,-23.947 -0.547,0 -0.973,-0.06 -1.52,0 -0.486,0 -1.033,-0.06 -1.52,0 z m 1.094,4.618 h 1.945 c 9.724,-1.64 14.283,16.107 13.067,21.03 -0.972,3.89 -5.895,7.172 -13.128,7.172 -7.233,0 -13.129,-3.16 -13.129,-7.172 -1.337,-5.105 0.973,-22.245 11.245,-21.03 z"
     id="path115" />
  <path
     stroke="#313131"
     stroke-width="2.553"
     d="m 449.45706,162.374 c 0,5.045 -36.102,9.178 -80.532,9.178 -44.49,0 -80.594,-4.133 -80.594,-9.178 z"
     id="path116" />
  <path
     stroke="#313131"
     stroke-width="2.067"
     d="m 359.32106,161.341 c 6.321,-2.917 12.46,-2.431 18.477,0 2.979,5.956 2.553,11.852 0,17.748 -6.017,1.945 -12.156,2.31 -18.477,0 -1.52,-5.896 -2.127,-11.792 0,-17.748 z"
     id="path117" />
  <path
     fill-rule="evenodd"
     stroke="#313131"
     stroke-width="1.945"
     d="m 367.10106,264.727 c -5.835,0.85 -10.332,6.078 -10.332,12.095 0,6.686 5.409,12.035 12.095,12.035 6.686,0 12.095,-5.35 12.095,-12.035 0,-6.625 -5.41,-12.095 -12.095,-12.095 -0.304,0 -0.608,-0.061 -0.912,0 -0.304,0 -0.608,-0.061 -0.85,0 z m 0.608,4.68 c 0.304,0 0.669,0.06 1.033,0 h 0.122 c 4.194,0 7.658,3.404 7.658,7.415 0,4.072 -3.464,7.294 -7.658,7.294 -4.255,0 -7.72,-3.222 -7.72,-7.294 0,-3.647 2.857,-6.868 6.565,-7.415 z m 1.155,-55.492 c -3.83,0 -7.598,1.337 -9.178,4.073 v 24.372 c 3.1,5.47 15.317,5.47 18.295,0.06 v -24.554 c -1.52,-2.613 -5.349,-3.95 -9.117,-3.95 z m 0,6.443 c 1.823,0 3.586,0.79 4.315,2.31 v 15.012 c -1.398,3.1 -7.233,3.1 -8.691,-0.06 v -14.893 c 0.729,-1.58 2.552,-2.37 4.376,-2.37 z"
     id="path118" />
  <path
     stroke="#313131"
     stroke-linecap="round"
     stroke-linejoin="round"
     stroke-width="1.945"
     d="m 371.59906,200.3 v 0 a 2.74,2.74 0 0 0 -2.735,-2.613 c -1.52,0 -2.735,1.155 -2.735,2.614 v 0 20.969 0 0.06 c 0,1.398 1.215,2.553 2.735,2.553 1.52,0 2.735,-1.155 2.735,-2.553 v -0.06 0 z m -0.122,39.75 v 0 c 0,-1.884 -1.215,-3.464 -2.613,-3.464 -1.459,0 -2.614,1.58 -2.614,3.464 h -0.06 v 28.02 0 0.06 c 0,1.946 1.215,3.465 2.674,3.465 1.458,0 2.613,-1.52 2.613,-3.464 v -0.061 0 z"
     id="path119" />
  <path
     fill-rule="evenodd"
     stroke="#313131"
     stroke-width="2.006"
     d="m 368.86406,295.968 c -3.83,0 -7.598,1.337 -9.178,4.072 v 24.373 c 3.1,5.47 15.317,5.53 18.295,0.12 V 299.98 c -1.52,-2.674 -5.349,-4.011 -9.117,-4.011 z m 0,6.443 c 1.823,0 3.586,0.79 4.315,2.31 v 15.012 c -1.398,3.16 -7.233,3.099 -8.691,0 V 304.78 c 0.729,-1.58 2.552,-2.37 4.376,-2.37 z"
     id="path120" />
  <path
     stroke="#313131"
     stroke-linecap="round"
     stroke-linejoin="round"
     stroke-width="2.006"
     d="m 371.59906,282.353 v 0 c -0.061,-1.398 -1.276,-2.553 -2.735,-2.553 -1.52,0 -2.735,1.155 -2.735,2.553 v 0 20.969 0 0.061 c 0,1.398 1.215,2.614 2.735,2.614 1.52,0 2.735,-1.216 2.735,-2.614 v -0.06 0 -20.909 z m -0.122,39.75 v 0 c 0,-1.884 -1.215,-3.403 -2.613,-3.403 -1.459,0 -2.614,1.519 -2.614,3.403 h -0.06 v 28.08 0 c 0,0 0,0 0,0 0,1.945 1.215,3.464 2.674,3.464 1.458,0 2.613,-1.52 2.613,-3.464 0,0 0,0 0,0 v 0 -28.079 z"
     id="path121" />
  <path
     fill="#784421"
     fill-rule="evenodd"
     stroke="#000000"
     stroke-width="0.972"
     d="m 310.61406,578.254 55.267,-28.329 -40.638,33.256 -14.63,9.854 z m 112.189,0.857 -55.267,-28.329 40.637,33.256 14.63,9.853 z m -25.963,6.952 -29.71,-29.71 14.31,37.426 6.437,10.816 z"
     id="path122" />
  <path
     fill="#784421"
     fill-rule="evenodd"
     stroke="#000000"
     stroke-width="0.972"
     d="m 341.05806,582.693 29.71,-26.397 -14.311,35.83 -6.436,10.1 z"
     id="path123" />
  <path
     fill="#ed1c24"
     stroke="#000000"
     stroke-width="1.259"
     d="m 400.11706,554.285 c 0.932,-6.177 -2.686,-8.716 0.11,-14.682 -2.357,0.889 -4.385,2.581 -5.427,4.02 -1.589,-6.432 -2.576,-13.286 -1.808,-19.379 -3.508,0.677 -5.92,5.416 -7.4,7.659 -3.946,-9.14 -4.987,-17.39 -2.192,-22.298 -3.563,0.296 -5.646,3.512 -8.057,7.15 -2.357,-2.411 -1.973,-7.404 -1.973,-12.566 -0.384,-2.454 -0.932,-5.204 -2.905,-6.516 -1.919,11.551 -9.263,10.578 -13.374,23.44 -1.48,-2.538 -1.754,-5.288 -1.37,-8.758 -4.823,2.158 -9.044,10.24 -11.291,21.79 -2.138,-0.846 -3.124,-4.104 -3.946,-7.785 -4.66,5.12 -6.303,11.508 -3.947,19.124 1.206,2.158 1.974,4.358 1.59,6.812 -1.973,-0.93 -2.631,-3.173 -3.782,-5.035 -0.822,2.75 -1.644,6.009 -0.932,8.378 2.357,13.709 22.701,16.03 35.555,15.961 7.197,-0.04 28.563,-3.141 31.149,-17.315 z"
     id="path124" />
  <path
     fill="#ed1c24"
     stroke="#000000"
     stroke-width="0.902"
     d="m 389.56306,558.79 c 0.637,-4.631 -1.838,-6.534 0.075,-11.006 -1.613,0.666 -3,1.935 -3.712,3.013 -1.088,-4.82 -1.763,-9.958 -1.238,-14.525 -2.4,0.508 -4.05,4.06 -5.061,5.74 -2.7,-6.85 -3.412,-13.034 -1.5,-16.713 -2.437,0.222 -3.862,2.632 -5.512,5.36 -1.612,-1.808 -1.35,-5.55 -1.35,-9.42 -0.262,-1.839 -0.637,-3.9 -1.987,-4.883 -1.312,8.658 -6.337,7.928 -9.149,17.57 -1.012,-1.903 -1.2,-3.965 -0.937,-6.565 -3.3,1.617 -6.187,7.674 -7.724,16.332 -1.462,-0.634 -2.137,-3.076 -2.7,-5.835 -3.187,3.837 -4.311,8.626 -2.7,14.335 0.826,1.617 1.35,3.266 1.088,5.106 -1.35,-0.698 -1.8,-2.379 -2.587,-3.774 -0.562,2.061 -1.125,4.503 -0.637,6.279 1.612,10.275 15.53,12.015 24.322,11.963 4.923,-0.03 19.54,-2.354 21.309,-12.978 z"
     id="path125" />
</svg>
