<?xml version="1.0" encoding="UTF-8" standalone="no"?>
<svg
   viewBox="0 0 600 600"
   version="1.1"
   id="svg16"
   sodipodi:docname="armarria_Ibarra.svg"
   width="600"
   height="600"
   inkscape:version="1.3.2 (091e20ef0f, 2023-11-25)"
   xmlns:inkscape="http://www.inkscape.org/namespaces/inkscape"
   xmlns:sodipodi="http://sodipodi.sourceforge.net/DTD/sodipodi-0.dtd"
   xmlns="http://www.w3.org/2000/svg"
   xmlns:svg="http://www.w3.org/2000/svg">
  <defs
     id="defs16" />
  <sodipodi:namedview
     id="namedview16"
     pagecolor="#ffffff"
     bordercolor="#000000"
     borderopacity="0.25"
     inkscape:showpageshadow="2"
     inkscape:pageopacity="0.0"
     inkscape:pagecheckerboard="0"
     inkscape:deskcolor="#d1d1d1"
     inkscape:zoom="0.492"
     inkscape:cx="250"
     inkscape:cy="299.79675"
     inkscape:window-width="1920"
     inkscape:window-height="1008"
     inkscape:window-x="0"
     inkscape:window-y="0"
     inkscape:window-maximized="1"
     inkscape:current-layer="svg16" />
  <path
     d="M 0.5,0.5 V 350 C 0.5,487.724 112.276,599.5 250,599.5 387.724,599.5 499.5,487.724 499.5,350 V 0.5 Z"
     fill="#eac102"
     stroke="#000000"
     stroke-linecap="round"
     stroke-linejoin="round"
     id="path1" />
  <g
     stroke="#000000"
     stroke-linecap="round"
     stroke-linejoin="round"
     transform="translate(-70,-220)"
     id="g12">
    <path
       d="M 569.5,570 C 569.5,707.724 457.724,819.5 320,819.5 182.276,819.5 70.5,707.724 70.5,570 v -38.7 c 23.1455,-26.3532 49.4133,-30.1251 63.829,-46.5741 17.0812,-19.4905 27.533,-23.155 37.0257,-25.8642 2.8655,-11.6066 31.2554,-31.7247 57.1402,-61.6299 13.6191,-15.7344 39.9326,-22.699 53.2007,-22.699 13.7952,0 25.5403,23.3138 41.1419,37.5952 15.9585,14.6081 26.7134,32.0412 49.654,43.2699 6.9068,-7.1304 17.0466,-16.3315 30.016,-23.9001 17.21,-10.0434 20.9619,-32.8473 28.1501,-32.8473 11.1854,0 59.8081,25.7589 64.7579,41.2992 7.9781,25.0477 24.0631,22.243 33.1313,33.1818 5.1471,6.2088 25.7402,23.9074 40.9533,33.6185 z"
       fill="#008f4c"
       id="path2" />
    <path
       d="m 372.4914,455.3979 c -10.7234,10.6045 -29.9685,21.7725 -43.3966,40.5263 -13.769,19.23 -45.417,31.5825 -62.4398,47.9555"
       fill="none"
       id="path3" />
    <path
       d="m 171.3546,458.8617 c 17.7105,-5.195 40.9504,-11.8828 55.4247,-20.5648"
       fill="none"
       id="path4" />
    <path
       d="m 282.3183,402.9066 c 16.6763,12.7851 29.301,49.7467 39.0139,63.1315"
       fill="none"
       id="path5" />
    <path
       d="m 272.3875,467.4568 c 7.7671,13.6783 13.6302,43.1861 22.699,56.0381"
       fill="none"
       id="path6" />
    <path
       d="m 252.6477,442.1638 c -21.0053,13.8099 -42.4607,40.9623 -65.5029,54.4768"
       fill="none"
       id="path7" />
    <path
       d="m 203.1301,528.3029 c -11.5718,4.1361 -24.3136,20.8881 -35.8218,41.0089"
       fill="none"
       id="path8" />
    <path
       d="m 403.6159,463.91 c -14.8417,19.6252 -24.4211,39.2503 -32.6298,58.8754"
       fill="none"
       id="path9" />
    <path
       d="m 436.2457,415.6747 c 6.6202,3.0693 13.3452,7.5012 21.2803,27.6644"
       fill="none"
       id="path10" />
    <path
       d="m 444.7578,485.1903 c 13.474,21.2809 11.4255,44.3964 19.1522,67.3875"
       fill="none"
       id="path11" />
    <path
       d="m 512.8547,527.7509 c 13.1456,5.5042 28.4341,32.5754 44.6886,45.3979"
       fill="none"
       id="path12" />
  </g>
  <g
     stroke="#000000"
     stroke-linecap="round"
     stroke-linejoin="round"
     transform="translate(-70,-220)"
     id="g15">
    <path
       d="m 177.4297,568.627 c -13.9212,0 -26.5235,4.3075 -35.6445,11.2734 -9.121,6.9659 -21.7226,11.2715 -35.6426,11.2715 -13.811,0 -26.3203,-4.2415 -35.4238,-11.1113 1.9183,48.2679 17.5603,93.0227 43.1426,130.4629 10.8299,-1.2702 20.5224,-5.1716 27.9238,-10.8242 9.121,-6.9659 21.7233,-11.2715 35.6445,-11.2715 13.921,0 26.5186,4.3056 35.6406,11.2715 9.122,6.9659 21.7235,11.2734 35.6445,11.2734 13.92,0 26.5206,-4.3075 35.6426,-11.2734 9.122,-6.9659 21.7226,-11.2715 35.6426,-11.2715 13.919,0 26.5216,4.3056 35.6426,11.2715 9.121,6.9659 21.7236,11.2734 35.6426,11.2734 13.92,0 26.5225,-4.3075 35.6445,-11.2734 9.122,-6.9659 21.7206,-11.2715 35.6406,-11.2715 13.92,0 26.5235,4.3056 35.6445,11.2715 7.4013,5.6526 17.0939,9.5541 27.9238,10.8242 25.5823,-37.4402 41.2242,-82.195 43.1426,-130.4629 -9.1045,6.8699 -21.6128,11.1113 -35.4238,11.1113 -13.92,0 -26.5216,-4.3056 -35.6426,-11.2715 -9.121,-6.9659 -21.7245,-11.2734 -35.6445,-11.2734 -13.92,0 -26.5186,4.3075 -35.6406,11.2734 -9.122,6.9659 -21.725,11.2715 -35.6445,11.2715 -13.9195,0 -26.5216,-4.3056 -35.6426,-11.2715 C 346.5216,572.9345 333.919,568.627 320,568.627 c -13.92,0 -26.5206,4.3075 -35.6426,11.2734 -9.122,6.9659 -21.7226,11.2715 -35.6426,11.2715 -13.921,0 -26.5225,-4.3056 -35.6445,-11.2715 -9.122,-6.9659 -21.7196,-11.2734 -35.6406,-11.2734 z"
       fill="#0071bc"
       id="path13" />
    <path
       d="m 177.4297,592.5879 c -13.9211,0 -26.5235,4.3056 -35.6445,11.2715 -9.121,6.9659 -21.7226,11.2734 -35.6426,11.2734 -12.6686,0 -24.2351,-3.5764 -33.0898,-9.4688 1.3199,9.2075 3.13,18.2562 5.4277,27.1113 7.9421,3.9895 17.444,6.3164 27.6621,6.3164 13.92,0 26.5216,-4.3056 35.6426,-11.2715 9.121,-6.9659 21.7234,-11.2734 35.6445,-11.2734 13.9211,0 26.5186,4.3075 35.6406,11.2734 9.122,6.9659 21.724,11.2715 35.6445,11.2715 13.9205,0 26.5206,-4.3056 35.6426,-11.2715 9.122,-6.9659 21.7231,-11.2734 35.6426,-11.2734 13.9195,0 26.5216,4.3075 35.6426,11.2734 9.121,6.9659 21.7231,11.2715 35.6426,11.2715 13.9195,0 26.5225,-4.3056 35.6445,-11.2715 9.122,-6.9659 21.7206,-11.2734 35.6406,-11.2734 13.92,0 26.5236,4.3075 35.6445,11.2734 9.1209,6.9659 21.7226,11.2715 35.6426,11.2715 10.2191,0 19.7194,-2.3282 27.6621,-6.3184 2.2975,-8.8546 4.108,-17.9026 5.4277,-27.1094 -8.8553,5.8923 -20.4212,9.4688 -33.0899,9.4688 -13.92,0 -26.5216,-4.3075 -35.6426,-11.2734 -9.121,-6.9659 -21.7245,-11.2715 -35.6445,-11.2715 -13.92,0 -26.5186,4.3056 -35.6406,11.2715 -9.122,6.9659 -21.725,11.2734 -35.6445,11.2734 -13.9195,0 -26.5216,-4.3075 -35.6426,-11.2734 -9.121,-6.9659 -21.7231,-11.2715 -35.6426,-11.2715 -13.9195,0 -26.5206,4.3056 -35.6426,11.2715 -9.122,6.9659 -21.7221,11.2734 -35.6426,11.2734 -13.9205,0 -26.5225,-4.3075 -35.6445,-11.2734 -9.122,-6.9659 -21.7195,-11.2715 -35.6406,-11.2715 z"
       fill="#e5e5e5"
       id="path14" />
    <path
       d="m 177.4297,640.5078 c -13.9212,0 -26.5235,4.3056 -35.6445,11.2715 -9.121,6.9659 -21.7226,11.2734 -35.6426,11.2734 -6.6379,0 -12.9695,-0.9896 -18.7734,-2.7695 3.523,9.0633 7.5638,17.8661 12.0801,26.3809 2.1915,0.2221 4.4223,0.3477 6.6934,0.3477 13.92,0 26.5216,-4.3056 35.6426,-11.2715 9.121,-6.9659 21.7233,-11.2734 35.6445,-11.2734 13.921,0 26.5186,4.3075 35.6406,11.2734 9.122,6.9659 21.7235,11.2715 35.6445,11.2715 13.92,0 26.5206,-4.3056 35.6426,-11.2715 9.122,-6.9659 21.7226,-11.2734 35.6426,-11.2734 13.919,0 26.5216,4.3075 35.6426,11.2734 9.121,6.9659 21.7236,11.2715 35.6426,11.2715 13.92,0 26.5225,-4.3056 35.6445,-11.2715 9.122,-6.9659 21.7206,-11.2734 35.6406,-11.2734 13.92,0 26.5235,4.3075 35.6445,11.2734 9.1209,6.9659 21.7226,11.2715 35.6426,11.2715 2.271,0 4.5019,-0.1256 6.6934,-0.3477 4.5163,-8.5147 8.5571,-17.3176 12.0801,-26.3809 -5.8038,1.78 -12.1355,2.7695 -18.7734,2.7695 -13.92,0 -26.5217,-4.3076 -35.6426,-11.2734 -9.121,-6.9659 -21.7245,-11.2715 -35.6445,-11.2715 -13.92,0 -26.5186,4.3056 -35.6406,11.2715 -9.122,6.9659 -21.7245,11.2734 -35.6445,11.2734 -13.919,0 -26.5216,-4.3075 -35.6426,-11.2734 -9.121,-6.9659 -21.7236,-11.2715 -35.6426,-11.2715 -13.92,0 -26.5206,4.3056 -35.6426,11.2715 -9.122,6.9659 -21.7226,11.2734 -35.6426,11.2734 -13.921,0 -26.5225,-4.3075 -35.6445,-11.2734 -9.122,-6.9659 -21.7196,-11.2715 -35.6406,-11.2715 z"
       fill="#e5e5e5"
       id="path15" />
  </g>
  <path
     d="M 1.5,1.5 V 350 C 1.5,487.172 112.828,598.5 250,598.5 387.172,598.5 498.5,487.172 498.5,350 V 1.5 Z"
     fill="none"
     stroke="#000000"
     stroke-linecap="round"
     stroke-linejoin="round"
     stroke-width="3"
     id="path16" />
</svg>
