<?xml version="1.0" encoding="UTF-8" standalone="no"?>
<svg
   viewBox="0 0 600 600"
   version="1.1"
   id="svg4"
   sodipodi:docname="armarria_Iruña Oka.svg"
   width="600"
   height="600"
   inkscape:version="1.3.2 (091e20ef0f, 2023-11-25)"
   xmlns:inkscape="http://www.inkscape.org/namespaces/inkscape"
   xmlns:sodipodi="http://sodipodi.sourceforge.net/DTD/sodipodi-0.dtd"
   xmlns="http://www.w3.org/2000/svg"
   xmlns:svg="http://www.w3.org/2000/svg">
  <defs
     id="defs4" />
  <sodipodi:namedview
     id="namedview4"
     pagecolor="#ffffff"
     bordercolor="#000000"
     borderopacity="0.25"
     inkscape:showpageshadow="2"
     inkscape:pageopacity="0.0"
     inkscape:pagecheckerboard="0"
     inkscape:deskcolor="#d1d1d1"
     inkscape:zoom="1.3516667"
     inkscape:cx="249.69174"
     inkscape:cy="300"
     inkscape:window-width="1920"
     inkscape:window-height="1008"
     inkscape:window-x="0"
     inkscape:window-y="0"
     inkscape:window-maximized="1"
     inkscape:current-layer="svg4" />
  <path
     d="M 0.5,0.5 V 350 C 0.5,487.724 112.276,599.5 250,599.5 387.724,599.5 499.5,487.724 499.5,350 V 0.5 Z"
     fill="#0071bc"
     stroke="#000000"
     stroke-linecap="round"
     stroke-linejoin="round"
     id="path1" />
  <g
     fill="#eac102"
     stroke="#000000"
     stroke-linecap="round"
     stroke-linejoin="round"
     id="g3">
    <path
       d="m 249.9063,60.5005 c -2.6179,0.0411 -4.9029,2.4725 -4.9032,5.0931 l -0.0156,120.0157 c 1.6529,-0.0709 3.3422,-0.125 5.0125,-0.125 1.6703,0 3.3128,0.0541 4.9657,0.125 V 65.5936 c 0,-2.6727 -2.3895,-5.135 -5.0594,-5.0931 z m 5.0594,125.1087 c 3.3491,0.1436 6.6786,0.4336 9.947,0.8593 l 8.6353,-98.5028 c 0.2469,-2.8161 -2.2988,-5.5514 -5.1218,-5.468 -2.4445,0.0721 -4.6274,2.186 -4.8408,4.6244 z M 230.8868,82.4976 c -2.5906,0.2647 -4.6611,2.8714 -4.4348,5.468 l 8.5885,98.5184 c 3.2708,-0.4271 6.5953,-0.7302 9.947,-0.8749 l -8.6353,-98.4872 c -0.2174,-2.4794 -2.4791,-4.6146 -4.9657,-4.6244 -0.1666,-7e-4 -0.3339,-0.0169 -0.4997,0 z m 4.1537,103.9865 -14.2725,-80.927 c -0.4324,-2.4516 -2.8622,-4.3973 -5.3405,-4.187 -2.7822,0.2361 -4.9516,3.1846 -4.466,5.9367 l 14.2725,80.8957 c 3.2184,-0.7101 6.4926,-1.2858 9.8065,-1.7185 z m -9.8065,1.7185 -17.8952,-66.8038 c -0.563,-2.1018 -2.5733,-3.7444 -4.7471,-3.7808 -1.5458,-0.0259 -3.0848,0.7204 -4.0271,1.9471 -0.9423,1.2268 -1.2443,2.901 -0.8449,4.3958 l 17.8484,66.8038 c 3.1605,-0.9957 6.3936,-1.8402 9.6659,-2.5622 z m 58.6826,-86.8325 c -2.2731,0.0922 -4.3199,1.9447 -4.7158,4.187 l -14.2881,80.9114 c 3.3153,0.4328 6.6023,1.0237 9.8221,1.7342 l 14.2725,-80.8957 c 0.2604,-1.476 -0.1347,-3.064 -1.11,-4.2014 -0.9753,-1.1374 -2.4844,-1.796 -3.9807,-1.7353 z m 18.3637,22.5908 c 0.4096,-1.5318 0.0839,-3.2515 -0.9082,-4.4877 -0.9922,-1.2362 -2.6011,-1.952 -4.1824,-1.8552 -2.0995,0.1285 -3.9828,1.7475 -4.5285,3.7808 l -17.9264,66.8038 c 3.2709,0.7217 6.4911,1.567 9.6659,2.5622 z m -17.864,66.8038 c 3.1929,1.0067 6.3352,2.1412 9.4004,3.4136 l 20.0814,-55.2506 c 0.5685,-1.5642 0.3361,-3.4053 -0.6541,-4.7426 -0.9901,-1.3373 -2.6836,-2.1173 -4.3429,-2.0065 -1.9311,0.1289 -3.71,1.4918 -4.3723,3.3121 z m 39.9753,-38.5887 c 0.7028,-1.5098 0.6279,-3.3661 -0.2448,-4.7842 -0.8728,-1.4182 -2.4949,-2.3413 -4.1587,-2.3711 -1.9251,-0.0345 -3.8084,1.1593 -4.6222,2.9059 l -21.5492,46.2518 c 3.0766,1.2931 6.0994,2.7102 9.0491,4.2416 z m -21.5258,46.244 c 2.9477,1.5394 5.8375,3.2175 8.6275,4.9994 l 22.5486,-39.0887 c 0.9162,-1.5882 0.9185,-3.6757 -0.0593,-5.2267 -0.9777,-1.551 -2.8639,-2.4784 -4.6878,-2.3036 -1.5959,0.153 -3.0708,1.1414 -3.8726,2.5309 z m 8.6275,4.9994 c 2.8121,1.796 5.5137,3.7213 8.1512,5.7493 l 23.3606,-33.3707 c 1.0451,-1.493 1.2249,-3.56 0.3973,-5.1839 -0.8276,-1.6239 -2.6047,-2.719 -4.4261,-2.7213 -1.6186,-0.002 -3.1931,0.8609 -4.1225,2.1872 z m 8.1512,5.7493 c 2.6429,2.0321 5.1983,4.1626 7.6515,6.4132 l 24.2975,-29.004 c 1.2228,-1.4596 1.5516,-3.6254 0.7529,-5.3544 -0.7986,-1.7291 -2.66,-2.9128 -4.5631,-2.8945 -1.4568,0.014 -2.8732,0.7268 -3.8102,1.8435 z m 14.7097,13.467 25.4218,-25.4029 c 1.4107,-1.4096 1.892,-3.684 1.1146,-5.5211 -0.7774,-1.8372 -2.7449,-3.0967 -4.7374,-3.0403 -1.2803,0.0362 -2.5291,0.5939 -3.4354,1.4998 L 327.296,215.582 c 2.4447,2.2592 4.8162,4.6075 7.0582,7.0538 z m -118.7861,-31.8709 -20.097,-55.2741 c -0.6816,-1.8747 -2.6194,-3.916 -4.5285,-3.3433 -0.1699,0.051 -0.354,0.0181 -0.5309,0.0312 -1.5443,0.1148 -3.0172,0.9834 -3.8511,2.2894 -0.8339,1.306 -0.9884,3.0033 -0.4587,4.4597 l 20.0892,55.2428 c 3.0685,-1.2661 6.1975,-2.4032 9.377,-3.4058 z m -9.377,3.4058 -21.557,-46.244 c -0.8412,-1.8045 -2.8231,-3.0151 -4.8095,-2.9059 -1.6321,0.0898 -3.1936,1.0375 -4.0239,2.4467 -0.8304,1.4092 -0.8817,3.2253 -0.1922,4.7086 l 21.5024,46.2596 c 2.9453,-1.5379 5.9915,-2.9831 9.0803,-4.2651 z m -36.173,-37.3701 c -1.7211,0.0611 -3.3795,1.0766 -4.2071,2.5883 -0.8276,1.5117 -0.7765,3.4492 0.0846,4.942 l 22.5486,39.0887 -23.2981,-33.3394 c -0.9578,-1.3706 -2.6083,-2.2358 -4.2786,-2.1872 -1.8004,0.0523 -3.5326,1.1596 -4.3307,2.7757 -0.7981,1.6161 -0.6067,3.6531 0.4269,5.1295 l 23.3606,33.3707 c 5.2487,-4.0366 10.8745,-7.6433 16.7865,-10.733 l -22.5642,-39.1043 c -0.9094,-1.576 -2.7113,-2.5955 -4.5285,-2.5309 z m -17.9577,21.5285 c -1.8875,0.0173 -3.713,1.2148 -4.489,2.937 -0.776,1.7223 -0.4414,3.8651 0.7725,5.3119 l 24.3288,28.9962 c 2.4448,-2.243 4.9871,-4.3794 7.6203,-6.4054 l -24.3288,-28.9962 c -0.957,-1.1406 -2.4158,-1.8571 -3.9039,-1.8435 z m 20.6123,37.2452 -25.4218,-25.4029 c -0.9462,-0.9455 -2.2545,-1.5323 -3.5915,-1.5311 -1.9741,0.002 -3.8846,1.3002 -4.618,3.1346 -0.7334,1.8344 -0.2135,4.0612 1.1826,5.458 l 25.3906,25.4029 c 2.2493,-2.455 4.6048,-4.8108 7.0582,-7.0616 z M 134.821,198.7326 c -1.9608,0.1722 -3.744,1.6315 -4.3166,3.5164 -0.5725,1.885 0.1238,4.0588 1.6307,5.3262 l 27.0458,22.747 c 2.0324,-2.6484 4.1821,-5.197 6.4335,-7.6553 l -27.0771,-22.747 c -0.8936,-0.7507 -2.0501,-1.1779 -3.2168,-1.1873 -0.1666,-0.001 -0.3337,-0.0146 -0.4997,0 z m 24.36,31.5896 -29.3881,-20.5598 c -0.8247,-0.577 -1.805,-0.9382 -2.8108,-0.9686 -2.1421,-0.0649 -4.2406,1.4146 -4.8976,3.4563 -0.657,2.0417 0.2046,4.4396 1.9619,5.6675 l 29.2008,20.4036 -32.1364,-18.5288 c -0.8663,-0.4995 -1.8758,-0.7551 -2.8732,-0.6874 -2.1179,0.1438 -4.0453,1.7945 -4.5177,3.866 -0.4725,2.0715 0.5558,4.3827 2.3941,5.4453 l 32.3238,18.6851 -36.54,-17.0603 c -0.7497,-0.35 -1.5786,-0.5417 -2.4048,-0.4999 -2.2117,0.1118 -4.2284,1.8854 -4.6354,4.0641 -0.407,2.1788 0.8497,4.5261 2.8552,5.4659 l 36.54,17.1228 c 3.8516,-9.2943 8.8894,-18.0023 14.9283,-25.8716 z m 205.311,-31.5896 c -1.1039,0.0422 -2.1828,0.477 -3.0294,1.1873 l -27.1083,22.747 c 2.2482,2.454 4.4193,4.9961 6.4491,7.6396 l 27.0302,-22.7314 c 1.5847,-1.3326 2.2352,-3.6852 1.5029,-5.6229 -0.7323,-1.9377 -2.7764,-3.2989 -4.8446,-3.2197 z m 8.3386,10.0924 c -0.9398,0.0484 -1.8517,0.3982 -2.6234,0.9374 l -29.4038,20.5442 c 4.028,5.2498 7.6138,10.8827 10.6965,16.7947 l 32.3238,-18.6851 c 1.9208,-1.1104 2.931,-3.5967 2.3092,-5.7279 -0.6219,-2.1312 -2.8112,-3.7012 -5.0262,-3.5834 -0.7798,0.0415 -1.5407,0.2972 -2.2174,0.6874 l -32.2926,18.6226 29.2945,-20.4973 c 1.7611,-1.2323 2.586,-3.6648 1.8999,-5.703 -0.6861,-2.0382 -2.8146,-3.5001 -4.9605,-3.3895 z M 351.5,247.1013 c 1.5307,2.9356 2.9549,5.9833 4.2318,9.0613 l 36.5556,-17.0915 c 2.1201,-0.9913 3.399,-3.547 2.8121,-5.8143 -0.5869,-2.2673 -2.9492,-3.9313 -5.2793,-3.7157 -0.6071,0.0562 -1.1963,0.2421 -1.7489,0.4999 z m -251.1577,-6.4679 c -2.3129,0.0833 -4.4323,1.9777 -4.7639,4.2703 -0.3316,2.2926 1.183,4.6567 3.3585,5.4472 l 41.8804,15.2168 c 0.9996,-3.1766 2.1731,-6.3234 3.4354,-9.3738 l -41.9429,-15.248 c -0.6284,-0.2284 -1.2994,-0.3365 -1.9675,-0.3125 z m 40.4751,24.9343 -48.6263,-12.9983 c -0.4884,-0.1306 -0.9936,-0.194 -1.4991,-0.1875 -2.4088,0.0312 -4.6377,2.04 -4.9039,4.4364 -0.2662,2.3965 1.4836,4.783 3.8108,5.406 l 48.5098,12.9769 -56.7859,-10.1023 c -0.33,-0.0587 -0.6643,-0.0856 -0.9994,-0.0937 -2.5307,-0.0617 -4.9207,2.0836 -5.1112,4.6102 -0.1906,2.5265 1.8692,4.8837 4.3617,5.3261 l 56.9493,10.1081 c 0.8724,-6.6759 2.3234,-13.2191 4.2942,-19.4818 z m 258.6531,-24.9343 c -0.6162,-8e-4 -1.2321,0.1022 -1.8114,0.3125 l -41.9273,15.2168 c 1.2667,3.0588 2.4173,6.2193 3.4198,9.405 l 41.9117,-15.2168 c 2.2023,-0.7996 3.715,-3.2233 3.3357,-5.5373 -0.3793,-2.314 -2.5857,-4.1771 -4.9285,-4.1802 z m -40.3189,24.9343 c 1.9707,6.2626 3.4218,12.8062 4.2942,19.4819 l 56.918,-10.1081 c 2.5696,-0.4563 4.748,-2.82 4.5109,-5.4214 -0.2371,-2.6014 -2.8162,-4.7356 -5.4166,-4.5148 -0.2821,0.024 -0.5644,0.0443 -0.8432,0.0937 l -56.8133,10.0573 48.5684,-12.932 c 2.3546,-0.6269 4.1129,-3.0653 3.8059,-5.4846 -0.3071,-2.4193 -2.619,-4.4048 -5.0551,-4.3579 -0.4533,0.009 -0.9049,0.0704 -1.3429,0.1875 z M 68.7368,279.1909 c -2.4739,0.0969 -4.6742,2.3187 -4.7676,4.795 -0.0934,2.4763 1.9264,4.9256 4.3928,5.1412 l 66.8338,5.843 H 55.6823 c -2.6756,0 -5.1823,2.3057 -5.1823,4.9837 0,2.678 2.5067,4.9837 5.1823,4.9837 h 79.857 l -67.1773,5.8742 c -2.7315,0.2389 -5.1644,2.6928 -4.923,5.4266 0.2414,2.7338 3.0655,4.7137 5.7975,4.4784 l 67.2866,-5.7961 c -0.633,-4.8751 -0.9525,-9.9035 -0.9525,-14.9512 0,-5.0465 0.3198,-10.046 0.9525,-14.9199 l -67.2866,-5.8274 c -0.1663,-0.0144 -0.3329,-0.0378 -0.4997,-0.0312 z m 362.3392,0 c -0.115,-0.002 -0.229,0.0213 -0.3435,0.0312 l -67.2866,5.8274 c 0.6328,4.8742 0.9838,9.8733 0.9838,14.9199 0,5.0478 -0.3507,10.0759 -0.9838,14.9512 l 67.2866,5.7961 c 2.7319,0.2353 5.5561,-1.7446 5.7975,-4.4784 0.2414,-2.7338 -2.1915,-5.1877 -4.923,-5.4266 l -67.1774,-5.8742 h 79.8883 c 2.6756,0 5.1823,-2.3057 5.1823,-4.9837 0,-2.678 -2.5067,-4.9837 -5.1823,-4.9837 l -79.9942,0.0449 67.2832,-5.8879 c 2.4821,-0.2172 4.4915,-2.7254 4.3584,-5.2156 -0.1331,-2.4902 -2.3981,-4.6853 -4.8894,-4.7206 z m -294.5528,35.7297 -56.9493,10.1081 c -2.6395,0.4685 -4.7134,3.1779 -4.2425,5.8194 0.4709,2.6415 3.3515,4.4582 5.9915,3.9918 l 56.8308,-10.071 -48.5547,12.9769 c -2.5854,0.691 -4.4055,3.5763 -3.7089,6.1624 0.6966,2.5861 3.7154,4.1517 6.301,3.4613 l 48.6263,-12.9827 c -1.9664,-6.2538 -3.4229,-12.8006 -4.2942,-19.4662 z m 226.9227,0 c -0.8713,6.6654 -2.3279,13.197 -4.2942,19.4506 l 48.6263,12.9983 c 2.5855,0.6911 5.6045,-0.8752 6.301,-3.4613 0.6966,-2.5861 -1.1238,-5.4704 -3.7089,-6.1624 l -48.6446,-12.9769 56.8895,10.071 c 2.6398,0.4673 5.5206,-1.3503 5.9915,-3.9918 0.4709,-2.6415 -1.603,-5.3507 -4.2425,-5.8194 z m -4.2942,19.4506 c -1.0035,3.1915 -2.1355,6.3409 -3.4042,9.405 l 41.9117,15.2168 c 2.501,0.908 5.6201,-0.4282 6.5289,-2.9308 0.9088,-2.5026 -0.6245,-5.5334 -3.1248,-6.443 z m -260.2146,15.248 c -2.3668,0.8608 -3.5976,3.9128 -2.7443,6.2841 0.8533,2.3714 3.7506,3.9504 6.1172,3.0897 l 41.9273,-15.248 c -1.2586,-3.0429 -2.4226,-6.1897 -3.4198,-9.3582 z m 8.7758,11.2486 c -2.4607,1.1536 -3.8656,4.2831 -2.7221,6.7504 1.1435,2.4673 4.4431,3.4268 6.9071,2.2797 l 36.5088,-16.9978 -32.2926,18.6226 c -2.3113,1.3329 -3.3019,4.5925 -1.9636,6.9021 1.3383,2.3097 4.65,3.0562 6.9606,1.7218 l 32.1364,-18.5601 -29.2008,20.4348 c -2.1447,1.5009 -2.7207,4.8259 -1.2163,6.9691 1.5044,2.1432 4.8169,2.7166 6.9627,1.2174 l 29.4038,-20.5443 c -6.0442,-7.8743 -11.1058,-16.6171 -14.9595,-25.9184 z m 248.0346,-17.0916 c -1.2813,3.0903 -2.7102,6.1458 -4.2474,9.0925 l 36.5712,17.029 c 2.4259,1.1296 5.67,0.107 6.8027,-2.3191 1.1327,-2.4261 -0.1628,-5.5773 -2.5865,-6.711 z m -14.9439,25.856 c 0,0 19.6077,13.7118 29.4038,20.5756 2.1856,1.5314 5.5561,1.0465 7.0786,-1.1463 1.5225,-2.1928 0.7919,-5.5103 -1.3946,-7.0402 l -29.2945,-20.4973 32.2926,18.6226 c 2.3856,1.3757 5.7972,0.7723 7.1654,-1.6188 1.3682,-2.3911 0.1539,-5.6288 -2.2309,-7.0051 l -32.3238,-18.6539 c -3.0789,5.9023 -6.6753,11.5213 -10.6965,16.7634 z m 0,0 c -2.0328,2.6479 -4.1974,5.2288 -6.4491,7.6865 l 27.1083,22.7002 c 2.064,1.7284 5.4805,1.5914 7.2029,-0.4781 1.7224,-2.0695 1.2284,-5.4446 -0.8318,-7.1772 z m -181.6068,0.0312 -27.0615,22.7001 c -2.0014,1.6788 -2.2991,5.0276 -0.623,7.0317 1.6761,2.0041 5.0238,2.3022 7.0253,0.6235 l 27.0849,-22.7158 c -2.2394,-2.445 -4.403,-5.0064 -6.4257,-7.6396 z m -18.9727,33.0737 c -1.9368,1.9395 -2.2243,5.3814 -0.2865,7.3202 1.9378,1.9388 5.3742,1.6479 7.3134,-0.2899 l 25.4218,-25.4029 c -2.4518,-2.2495 -4.7868,-4.6081 -7.0503,-7.0616 z m 8.12,10.6236 c -1.6156,1.9255 -1.1305,5.1815 0.7932,6.7985 1.9237,1.617 5.2117,1.5322 6.8271,-0.3931 l 24.3288,-28.9962 c -2.6312,-2.0248 -5.1773,-4.1638 -7.6203,-6.4054 z m 178.9678,-28.9961 25.4062,25.403 c 1.8953,1.895 5.2926,2.0598 7.1914,0.1684 1.8988,-1.8913 1.7624,-5.3045 -0.1333,-7.1988 l -25.4218,-25.4186 c -2.2398,2.4437 -4.6005,4.8047 -7.0425,7.046 z m 0,0 c -2.4563,2.2535 -5.0207,4.4022 -7.6671,6.4367 l 24.3288,28.965 c 1.6164,1.9244 4.9035,2.01 6.8271,0.393 1.9236,-1.617 2.4076,-4.8719 0.7932,-6.7984 z m -7.6671,6.4367 c -2.6241,2.0173 -5.3388,3.9459 -8.1356,5.7336 l 23.345,33.355 c 1.4975,2.1396 4.8131,2.7081 6.9466,1.2033 2.1335,-1.5048 2.7033,-4.8137 1.2046,-6.9525 z m -139.3204,0 -23.3606,33.3394 c -1.5029,2.1449 -0.9233,5.4647 1.219,6.97 2.1423,1.5052 5.4623,0.9254 6.9635,-1.2207 l 23.2981,-33.3082 -22.5486,39.0262 c -1.3121,2.2709 -0.4562,5.5311 1.81,6.849 2.2662,1.3179 5.5298,0.4531 6.8409,-1.8184 l 22.5955,-39.1043 c -5.9216,-3.0923 -11.5612,-6.691 -16.8178,-10.733 z m 131.1848,5.7336 c -2.8005,1.7886 -5.7149,3.4707 -8.6743,5.015 l 22.5876,39.0887 c 1.3079,2.2633 4.5662,3.1155 6.8229,1.7985 2.2566,-1.317 3.1038,-4.5653 1.7968,-6.8291 z m -17.7078,9.2332 21.5649,46.244 c 1.1114,2.3834 4.2788,3.5565 6.6567,2.437 2.3779,-1.1195 3.4804,-4.3031 2.369,-6.6864 L 302.8349,401.55 c -2.9426,1.5265 -5.9649,2.9444 -9.0335,4.2182 z m -118.1928,41.9945 c -1.1104,2.3838 -0.009,5.5669 2.369,6.6864 2.3779,1.1195 5.5459,-0.0533 6.6567,-2.437 l 21.5492,-46.2518 c -3.0734,-1.2915 -6.11,-2.6966 -9.0413,-4.226 z m 30.5749,-42.0023 -20.0814,55.2506 c -0.9022,2.4823 0.4623,5.5733 2.9402,6.4823 2.4779,0.909 5.5266,-0.5629 6.429,-3.0452 l 20.097,-55.2428 c -3.1888,-1.0055 -6.3233,-2.1743 -9.3848,-3.4449 z m 87.6179,0.008 c -3.0568,1.268 -6.209,2.4333 -9.3927,3.4371 l 20.1204,55.2428 c 0.8858,2.4321 3.9462,3.7874 6.3745,2.8965 2.4284,-0.8908 3.8802,-3.9013 2.9947,-6.3336 z m -19.0508,5.9992 17.9109,66.8038 c 0.689,2.5699 3.5771,4.354 6.144,3.6619 2.5669,-0.6921 4.1627,-3.6851 3.4751,-6.2553 l -17.8718,-66.7726 c -3.1665,0.9925 -6.3961,1.8416 -9.6581,2.5622 z m -59.1823,-2.5622 -17.8484,66.7726 c -0.6871,2.5704 0.9081,5.5634 3.475,6.2555 2.5669,0.6921 5.4556,-1.092 6.144,-3.6621 l 17.8952,-66.8038 c -3.2736,-0.7222 -6.5041,-1.5661 -9.6659,-2.5622 z m 9.6659,2.5622 -14.2725,80.8957 c -0.4631,2.6248 1.3786,5.4766 4.0003,5.9444 2.6217,0.4678 5.3432,-1.5697 5.8061,-4.1946 l 14.2725,-80.927 c -3.3127,-0.4325 -6.5891,-1.0088 -9.8065,-1.7185 z m 9.8065,1.7185 -8.5885,98.4872 c -0.2381,2.7309 1.7655,5.5465 4.4944,5.779 2.7289,0.2326 5.1667,-2.2045 5.4058,-4.9354 l 8.6353,-98.456 c -3.3516,-0.1446 -6.6762,-0.4478 -9.947,-0.8749 z m 39.7099,-1.7185 c -3.2285,0.7122 -6.5288,1.2855 -9.8533,1.7185 l 14.3037,80.927 c 0.4639,2.6248 3.1844,4.6624 5.8061,4.1946 2.6217,-0.4678 4.4634,-3.3196 4.0003,-5.9444 z m -9.8533,1.7185 c -3.2698,0.4259 -6.581,0.7312 -9.9314,0.8749 l 8.6197,98.456 c 0.2287,2.6122 2.7928,4.792 5.4033,4.571 2.6105,-0.2211 4.7887,-2.8024 4.5593,-5.4146 z m -9.9314,0.8749 c -1.6528,0.0709 -3.2954,0.0936 -4.9657,0.0936 -1.6703,0 -3.3597,-0.0229 -5.0125,-0.0936 l 0.0156,120.0156 c 4e-4,2.6568 2.3269,5.1235 4.9813,5.1235 2.6544,0 4.9813,-2.4667 4.9813,-5.1235 z"
       fill-rule="evenodd"
       id="path2" />
    <path
       d="m 347,300 c 0,53.5716 -43.4283,97 -97,97 -53.5716,0 -97,-43.4284 -97,-97 0,-53.5716 43.4284,-97 97,-97 53.5717,0 97,43.4284 97,97 z"
       id="path3" />
  </g>
  <path
     d="M 1.5,1.5 V 350 C 1.5,487.172 112.828,598.5 250,598.5 387.172,598.5 498.5,487.172 498.5,350 V 1.5 Z"
     fill="none"
     stroke="#000000"
     stroke-linecap="round"
     stroke-linejoin="round"
     stroke-width="3"
     id="path4" />
</svg>
