<?xml version="1.0" encoding="UTF-8" standalone="no"?>
<svg
   viewBox="0 0 640 640"
   version="1.1"
   id="svg131"
   sodipodi:docname="armarria_Urretxu.svg"
   width="640"
   height="640"
   inkscape:version="1.3.2 (091e20ef0f, 2023-11-25)"
   xmlns:inkscape="http://www.inkscape.org/namespaces/inkscape"
   xmlns:sodipodi="http://sodipodi.sourceforge.net/DTD/sodipodi-0.dtd"
   xmlns="http://www.w3.org/2000/svg"
   xmlns:svg="http://www.w3.org/2000/svg">
  <defs
     id="defs131" />
  <sodipodi:namedview
     id="namedview131"
     pagecolor="#ffffff"
     bordercolor="#000000"
     borderopacity="0.25"
     inkscape:showpageshadow="2"
     inkscape:pageopacity="0.0"
     inkscape:pagecheckerboard="0"
     inkscape:deskcolor="#d1d1d1"
     inkscape:zoom="1.2671875"
     inkscape:cx="249.76572"
     inkscape:cy="320"
     inkscape:window-width="1920"
     inkscape:window-height="1008"
     inkscape:window-x="0"
     inkscape:window-y="0"
     inkscape:window-maximized="1"
     inkscape:current-layer="svg131" />
  <path
     d="m 0.5,0.5 v 474.25 c 0,68.898 55.852,124.75 124.75,124.75 h 62.375 c 27.289,0 50.92,17.163 62.375,40 11.455,-22.837 35.086,-40 62.375,-40 h 62.375 c 68.898,0 124.75,-55.852 124.75,-124.75 V 0.5 Z"
     fill="#0071bc"
     stroke="#000000"
     stroke-linecap="round"
     stroke-linejoin="round"
     id="path1" />
  <g
     stroke="#000000"
     stroke-linecap="round"
     stroke-linejoin="round"
     id="g131">
    <path
       d="m 386.0677,134.3799 33.6825,-24.4645 33.6829,24.4645 -12.8657,-39.5832 33.6827,-24.4645 h -41.634 L 419.7504,30.7499 406.8847,70.3322 h -41.6348 l 33.6836,24.4645 z"
       fill="#eac102"
       fill-rule="evenodd"
       id="path2" />
    <path
       d="m 25.75,94.8334 c 0,-30.0455 24.4,-54.4015 54.5,-54.4015 30.1,0 54.5,24.3558 54.5,54.4013 0,11.0261 -3.2907,21.2938 -8.9384,29.8649 0.9514,-3.7222 1.4626,-7.6289 1.4626,-11.6467 0,-25.9218 -21.0555,-46.9293 -47.0242,-46.9293 -25.9685,0 -47.0239,21.0075 -47.0239,46.9293 0,4.0212 0.5096,7.9217 1.4628,11.6467 C 29.0371,116.1252 25.75,105.8635 25.75,94.8334 Z"
       fill="#e5e5e5"
       id="path3" />
    <g
       id="g130">
      <path
         d="m 351.1461,218.9752 v -28.6327 c 0,-5.6783 -4.5557,-10.2513 -10.2131,-10.2513 -5.6574,0 -10.213,4.5712 -10.213,10.2513 v 28.6327 z m -52.1135,-69.4291 h 16.7601 v 9.005 h 16.7602 v -9.005 h 16.7602 v 9.005 h 16.7602 v -9.005 h 16.7602 v 18.0099 l -11.971,7.6032 V 290.6113 H 311.0036 V 175.1592 l -11.971,-7.6032 z"
         fill="#eac102"
         fill-rule="evenodd"
         id="path4" />
      <path
         d="m 299.0326,167.556 h 83.8009"
         fill="none"
         id="path5" />
      <path
         d="m 311.0036,175.1592 h 59.8589"
         fill="none"
         id="path6" />
      <path
         d="m 311.0036,223.9071 h 59.8589"
         fill="none"
         id="path7" />
      <path
         d="m 311.0036,240.1564 h 59.8589"
         fill="none"
         id="path8" />
      <path
         d="M 311.0036,191.4085 H 330.72"
         fill="none"
         id="path9" />
      <path
         d="m 358.5401,191.4085 v 16.2493"
         fill="none"
         id="path10" />
      <path
         d="m 323.3259,191.4085 v 16.2493"
         fill="none"
         id="path11" />
      <path
         d="m 340.933,175.1592 v 4.9319"
         fill="none"
         id="path12" />
      <path
         d="m 340.933,218.9752 v 4.9319"
         fill="none"
         id="path13" />
      <path
         d="m 358.5401,223.9071 v 16.2493"
         fill="none"
         id="path14" />
      <path
         d="m 323.3259,223.9071 v 16.2493"
         fill="none"
         id="path15" />
      <path
         d="m 351.1461,191.4085 h 19.7164"
         fill="none"
         id="path16" />
      <path
         d="M 311.0036,207.6578 H 330.72"
         fill="none"
         id="path17" />
      <path
         d="m 351.1461,207.6578 h 19.7164"
         fill="none"
         id="path18" />
      <path
         d="m 340.933,240.1564 v 16.2493"
         fill="none"
         id="path19" />
      <path
         d="m 311.0036,256.4057 h 59.8589"
         fill="none"
         id="path20" />
      <path
         d="M 358.5401,256.4057 V 272.655"
         fill="none"
         id="path21" />
      <path
         d="M 323.3259,256.4057 V 272.655"
         fill="none"
         id="path22" />
      <path
         d="m 351.1461,218.9752 v -28.6327 c 0,-5.6783 -4.5557,-10.2513 -10.2131,-10.2513 -5.6574,0 -10.213,4.5712 -10.213,10.2513 v 28.6327 z"
         fill-rule="evenodd"
         id="path23" />
      <path
         d="m 169.2801,218.9752 v -28.6327 c 0,-5.6783 -4.5556,-10.2513 -10.2131,-10.2513 -5.6573,0 -10.213,4.5712 -10.213,10.2513 v 28.6327 z m -52.1135,-69.4291 h 16.7602 v 9.005 h 16.7602 v -9.005 h 16.7602 v 9.005 h 16.7602 v -9.005 h 16.7601 v 18.0099 l -11.971,7.6032 V 290.6113 H 129.1376 V 175.1592 l -11.971,-7.6032 z"
         fill="#eac102"
         fill-rule="evenodd"
         id="path24" />
      <path
         d="m 117.1666,167.556 h 83.8009"
         fill="none"
         id="path25" />
      <path
         d="m 129.1376,175.1592 h 59.8589"
         fill="none"
         id="path26" />
      <path
         d="m 129.1376,223.9071 h 59.8589"
         fill="none"
         id="path27" />
      <path
         d="m 129.1376,240.1564 h 59.8589"
         fill="none"
         id="path28" />
      <path
         d="M 129.1376,191.4085 H 148.854"
         fill="none"
         id="path29" />
      <path
         d="m 176.6742,191.4085 v 16.2493"
         fill="none"
         id="path30" />
      <path
         d="m 141.46,191.4085 v 16.2493"
         fill="none"
         id="path31" />
      <path
         d="m 159.067,175.1592 v 4.9319"
         fill="none"
         id="path32" />
      <path
         d="m 159.067,218.9752 v 4.9319"
         fill="none"
         id="path33" />
      <path
         d="m 176.6742,223.9071 v 16.2493"
         fill="none"
         id="path34" />
      <path
         d="m 141.46,223.9071 v 16.2493"
         fill="none"
         id="path35" />
      <path
         d="m 169.2801,191.4085 h 19.7164"
         fill="none"
         id="path36" />
      <path
         d="M 129.1376,207.6578 H 148.854"
         fill="none"
         id="path37" />
      <path
         d="m 169.2801,207.6578 h 19.7164"
         fill="none"
         id="path38" />
      <path
         d="m 159.067,240.1564 v 16.2493"
         fill="none"
         id="path39" />
      <path
         d="m 129.1376,256.4057 h 59.8589"
         fill="none"
         id="path40" />
      <path
         d="M 176.6742,256.4057 V 272.655"
         fill="none"
         id="path41" />
      <path
         d="M 141.46,256.4057 V 272.655"
         fill="none"
         id="path42" />
      <path
         d="m 169.2801,218.9752 v -28.6327 c 0,-5.6783 -4.5556,-10.2513 -10.2131,-10.2513 -5.6573,0 -10.213,4.5712 -10.213,10.2513 v 28.6327 z"
         fill-rule="evenodd"
         id="path43" />
      <path
         d="m 260.2131,183.2625 v -28.6327 c 0,-5.6783 -4.5556,-10.2514 -10.2131,-10.2514 -5.6574,0 -10.213,4.5712 -10.213,10.2514 v 28.6327 z m -52.1135,-69.4291 h 16.7602 v 9.005 h 16.7601 v -9.005 h 16.7603 v 9.005 h 16.7601 v -9.005 h 16.7602 v 18.0099 l -11.971,7.6032 V 254.8986 H 220.0706 V 139.4465 l -11.971,-7.6032 z"
         fill="#eac102"
         fill-rule="evenodd"
         id="path44" />
      <path
         d="m 208.0996,131.8433 h 83.8009"
         fill="none"
         id="path45" />
      <path
         d="m 220.0706,139.4465 h 59.8589"
         fill="none"
         id="path46" />
      <path
         d="m 220.0706,188.1944 h 59.8589"
         fill="none"
         id="path47" />
      <path
         d="m 220.0706,204.4437 h 59.8589"
         fill="none"
         id="path48" />
      <path
         d="M 220.0706,155.6958 H 239.787"
         fill="none"
         id="path49" />
      <path
         d="m 267.6072,155.6958 v 16.2493"
         fill="none"
         id="path50" />
      <path
         d="m 232.3929,155.6958 v 16.2493"
         fill="none"
         id="path51" />
      <path
         d="m 250,139.4465 v 4.9319"
         fill="none"
         id="path52" />
      <path
         d="m 250,183.2625 v 4.9319"
         fill="none"
         id="path53" />
      <path
         d="m 267.6072,188.1944 v 16.2493"
         fill="none"
         id="path54" />
      <path
         d="m 232.3929,188.1944 v 16.2493"
         fill="none"
         id="path55" />
      <path
         d="m 260.2131,155.6958 h 19.7164"
         fill="none"
         id="path56" />
      <path
         d="M 220.0706,171.9451 H 239.787"
         fill="none"
         id="path57" />
      <path
         d="m 260.2131,171.9451 h 19.7164"
         fill="none"
         id="path58" />
      <path
         d="M 250,204.4437 V 220.693"
         fill="none"
         id="path59" />
      <path
         d="m 220.0706,220.693 h 59.8589"
         fill="none"
         id="path60" />
      <path
         d="m 267.6072,220.693 v 16.2493"
         fill="none"
         id="path61" />
      <path
         d="m 232.3929,220.693 v 16.2493"
         fill="none"
         id="path62" />
      <path
         d="m 260.2131,183.2625 v -28.6327 c 0,-5.6783 -4.5556,-10.2514 -10.2131,-10.2514 -5.6574,0 -10.213,4.5712 -10.213,10.2514 v 28.6327 z"
         fill-rule="evenodd"
         id="path63" />
      <path
         d="m 330.1064,384.4435 v -43.3089 c 0,-8.5905 -6.9146,-15.5056 -15.5044,-15.5056 -8.5899,0 -15.5045,6.9152 -15.5045,15.5056 v 43.3089 z m -129.2039,0 v -43.3089 c 0,-8.5905 -6.9146,-15.5056 -15.5045,-15.5056 -8.5898,0 -15.5044,6.9152 -15.5044,15.5056 v 43.3089 z M 409.5,539.5 v -73.7855 l -30.2961,-24.5952 v -147.571 l 21.3855,-13.5452 v -49.9032 h -53.1073 v 24.9516 h -60.2357 v -24.9516 h -74.4928 v 24.9516 H 152.5179 V 230.0999 H 99.4106 v 49.9032 l 21.3855,13.5452 v 147.571 L 90.5,465.7145 V 539.5 h 130.095 v -62.5573 c 0,-16.2916 13.1146,-29.4073 29.405,-29.4073 16.2904,0 29.405,13.1157 29.405,29.4073 V 539.5 Z"
         fill="#eac102"
         fill-rule="evenodd"
         id="path64" />
      <path
         d="M 99.4106,280.0032 H 400.5894"
         fill="none"
         id="path65" />
      <path
         d="M 118.3457,514.9048 V 539.5"
         fill="none"
         id="path66" />
      <path
         d="m 200.9025,342.7387 h 98.195"
         fill="none"
         id="path67" />
      <path
         d="M 90.5,490.3097 H 201.8827"
         fill="none"
         id="path68" />
      <path
         d="M 298.1173,514.9048 H 409.5"
         fill="none"
         id="path69" />
      <path
         d="m 146.1913,490.3097 v 24.5951"
         fill="none"
         id="path70" />
      <path
         d="m 118.3457,465.7145 v 24.5952"
         fill="none"
         id="path71" />
      <path
         d="m 174.037,465.7145 v 24.5952"
         fill="none"
         id="path72" />
      <path
         d="M 174.037,514.9048 V 539.5"
         fill="none"
         id="path73" />
      <path
         d="m 299.0975,367.3339 h -98.195"
         fill="none"
         id="path74" />
      <path
         d="M 379.2039,391.929 H 120.7961"
         fill="none"
         id="path75" />
      <path
         d="M 379.2039,416.5242 H 120.7961"
         fill="none"
         id="path76" />
      <path
         d="m 250,318.1436 v 24.5952"
         fill="none"
         id="path77" />
      <path
         d="m 314.602,384.4435 v 7.4855"
         fill="none"
         id="path78" />
      <path
         d="m 250,367.3339 v 24.5952"
         fill="none"
         id="path79" />
      <path
         d="m 185.398,384.4435 v 7.4855"
         fill="none"
         id="path80" />
      <path
         d="m 153.0971,293.5484 v 24.5952"
         fill="none"
         id="path81" />
      <path
         d="m 346.9029,293.5484 v 24.5952"
         fill="none"
         id="path82" />
      <path
         d="m 217.699,293.5484 v 24.5952"
         fill="none"
         id="path83" />
      <path
         d="m 282.301,293.5484 v 24.5952"
         fill="none"
         id="path84" />
      <path
         d="m 250,416.5242 v 12.2976"
         fill="none"
         id="path85" />
      <path
         d="M 381.6543,514.9048 V 539.5"
         fill="none"
         id="path86" />
      <path
         d="m 353.8087,490.3097 v 24.5951"
         fill="none"
         id="path87" />
      <path
         d="m 381.6543,465.7145 v 24.5952"
         fill="none"
         id="path88" />
      <path
         d="m 325.963,465.7145 v 24.5952"
         fill="none"
         id="path89" />
      <path
         d="M 325.963,514.9048 V 539.5"
         fill="none"
         id="path90" />
      <path
         d="M 217.3872,441.1194 H 120.7961"
         fill="none"
         id="path91" />
      <path
         d="M 90.5,465.7145 H 202.952"
         fill="none"
         id="path92" />
      <path
         d="M 298.1173,490.3097 H 409.5"
         fill="none"
         id="path93" />
      <path
         d="M 90.5,514.9048 H 201.8827"
         fill="none"
         id="path94" />
      <path
         d="m 282.6129,441.1194 h 96.591"
         fill="none"
         id="path95" />
      <path
         d="M 409.5,465.7145 H 297.048"
         fill="none"
         id="path96" />
      <path
         d="M 201.8827,518.6476 H 220.595"
         fill="none"
         id="path97" />
      <path
         d="M 201.8827,476.9427 H 220.595"
         fill="none"
         id="path98" />
      <path
         d="m 279.405,476.9427 h 18.7123"
         fill="none"
         id="path99" />
      <path
         d="m 211.0713,448.6583 15.1391,11.0001"
         fill="none"
         id="path100" />
      <path
         d="m 235.13,431.1761 5.783,17.7976"
         fill="none"
         id="path101" />
      <path
         d="m 288.9287,448.6583 -15.1391,11.0001"
         fill="none"
         id="path102" />
      <path
         d="m 264.87,431.1761 -5.783,17.7976"
         fill="none"
         id="path103" />
      <path
         d="M 201.8827,497.7952 H 220.595"
         fill="none"
         id="path104" />
      <path
         d="m 279.405,497.7952 h 18.7123"
         fill="none"
         id="path105" />
      <path
         d="m 279.405,518.6476 h 18.7123"
         fill="none"
         id="path106" />
      <path
         d="m 201.8827,539.5 v -62.5573 c 0,-26.659 21.4603,-48.121 48.1173,-48.121 26.657,0 48.1173,21.462 48.1173,48.121 V 539.5"
         fill="none"
         id="path107" />
      <path
         d="M 120.7961,293.5484 H 379.2039"
         fill="none"
         id="path108" />
      <path
         d="M 120.7961,318.1436 H 379.2039"
         fill="none"
         id="path109" />
      <path
         d="m 153.0971,342.7387 v 24.5952"
         fill="none"
         id="path110" />
      <path
         d="m 346.9029,342.7387 v 24.5952"
         fill="none"
         id="path111" />
      <path
         d="m 217.699,342.7387 v 24.5952"
         fill="none"
         id="path112" />
      <path
         d="m 282.301,342.7387 v 24.5952"
         fill="none"
         id="path113" />
      <path
         d="m 314.602,318.1436 v 7.4855"
         fill="none"
         id="path114" />
      <path
         d="m 185.398,318.1436 v 7.4855"
         fill="none"
         id="path115" />
      <path
         d="m 153.0971,391.929 v 24.5952"
         fill="none"
         id="path116" />
      <path
         d="m 346.9029,391.929 v 24.5952"
         fill="none"
         id="path117" />
      <path
         d="m 217.699,391.929 v 24.5952"
         fill="none"
         id="path118" />
      <path
         d="m 282.301,391.929 v 24.5952"
         fill="none"
         id="path119" />
      <path
         d="m 314.602,416.5242 v 24.5952"
         fill="none"
         id="path120" />
      <path
         d="m 185.398,416.5242 v 24.5952"
         fill="none"
         id="path121" />
      <path
         d="m 153.0971,441.1194 v 24.5952"
         fill="none"
         id="path122" />
      <path
         d="m 346.9029,441.1194 v 24.5952"
         fill="none"
         id="path123" />
      <path
         d="m 120.7961,342.7387 h 49.0975"
         fill="none"
         id="path124" />
      <path
         d="M 169.8936,367.3339 H 120.7961"
         fill="none"
         id="path125" />
      <path
         d="m 330.1064,342.7387 h 49.0975"
         fill="none"
         id="path126" />
      <path
         d="M 379.2039,367.3339 H 330.1064"
         fill="none"
         id="path127" />
      <path
         d="m 220.595,476.9427 c 0,-16.2916 13.1146,-29.4073 29.405,-29.4073 16.2904,0 29.405,13.1157 29.405,29.4073 V 539.5 h -58.81 z"
         fill-rule="evenodd"
         id="path128" />
      <path
         d="m 200.9025,384.4435 v -43.3089 c 0,-8.5905 -6.9146,-15.5056 -15.5045,-15.5056 -8.5898,0 -15.5044,6.9152 -15.5044,15.5056 v 43.3089 z"
         fill-rule="evenodd"
         id="path129" />
      <path
         d="m 330.1064,384.4435 v -43.3089 c 0,-8.5905 -6.9146,-15.5056 -15.5044,-15.5056 -8.5899,0 -15.5045,6.9152 -15.5045,15.5056 v 43.3089 z"
         fill-rule="evenodd"
         id="path130" />
    </g>
  </g>
  <path
     d="m 1.5,1.5 v 473.25 c 0,68.35 55.4,123.75 123.75,123.75 h 62.375 c 27.18,0 50.966,17.254 62.375,40 11.409,-22.746 35.195,-40 62.375,-40 h 62.375 c 68.35,0 123.75,-55.4 123.75,-123.75 V 1.5 Z"
     fill="none"
     stroke="#000000"
     stroke-linecap="round"
     stroke-linejoin="round"
     stroke-width="3"
     id="path131" />
</svg>
