<?xml version="1.0" encoding="UTF-8" standalone="no"?>
<!-- Created with Inkscape (http://www.inkscape.org/) -->

<svg
   width="653"
   height="653"
   id="svg3194"
   sodipodi:version="0.32"
   inkscape:version="1.3.2 (091e20ef0f, 2023-11-25)"
   version="1.0"
   sodipodi:docname="armarria_Derio.svg"
   inkscape:output_extension="org.inkscape.output.svg.inkscape"
   xmlns:inkscape="http://www.inkscape.org/namespaces/inkscape"
   xmlns:sodipodi="http://sodipodi.sourceforge.net/DTD/sodipodi-0.dtd"
   xmlns:xlink="http://www.w3.org/1999/xlink"
   xmlns="http://www.w3.org/2000/svg"
   xmlns:svg="http://www.w3.org/2000/svg"
   xmlns:rdf="http://www.w3.org/1999/02/22-rdf-syntax-ns#"
   xmlns:cc="http://creativecommons.org/ns#"
   xmlns:dc="http://purl.org/dc/elements/1.1/">
  <defs
     id="defs3196">
    <linearGradient
       id="linearGradient8135">
      <stop
         style="stop-color:#5d070b;stop-opacity:1;"
         offset="0"
         id="stop8137" />
      <stop
         id="stop8139"
         offset="0.5"
         style="stop-color:#ed1c24;stop-opacity:1;" />
      <stop
         style="stop-color:#5d070a;stop-opacity:1;"
         offset="1"
         id="stop8141" />
    </linearGradient>
    <linearGradient
       inkscape:collect="always"
       xlink:href="#linearGradient8135"
       id="linearGradient11920"
       gradientUnits="userSpaceOnUse"
       gradientTransform="matrix(1.1773172,0,0,1.1773172,657.8819,-545.55183)"
       x1="-418.38882"
       y1="700.10571"
       x2="-136.18279"
       y2="700.10571" />
    <linearGradient
       y2="700.10571"
       x2="-136.18279"
       y1="700.10571"
       x1="-418.38882"
       gradientTransform="matrix(1.1773172,0,0,1.1773172,657.8819,-545.55183)"
       gradientUnits="userSpaceOnUse"
       id="linearGradient5484"
       xlink:href="#linearGradient8135"
       inkscape:collect="always" />
    <linearGradient
       id="linearGradient5476">
      <stop
         id="stop5478"
         offset="0"
         style="stop-color:#5d070b;stop-opacity:1;" />
      <stop
         style="stop-color:#ed1c24;stop-opacity:1;"
         offset="0.5"
         id="stop5480" />
      <stop
         id="stop5482"
         offset="1"
         style="stop-color:#5d070a;stop-opacity:1;" />
    </linearGradient>
    <clipPath
       id="id8">
      <path
         id="path12958"
         d="m 4900000,12100000 c -101120,-216290 -351940,-577050 -625300,-577050 -941580,0 -1883160,0 -2824750,0 -742420,0 -1349950,-604920 -1349950,-1344330 V 100020 h 4800000 4800000 v 10078600 c 0,739410 -607530,1344330 -1349950,1344330 -941590,0 -1883170,0 -2824750,0 -273360,0 -524180,360760 -625300,577050 z" />
    </clipPath>
    <clipPath
       id="id3">
      <path
         id="path12943"
         d="m 3178550,6435350 c 573250,0 1147180,-10 1720770,-10 573580,0 1147850,10 1722130,10 l 18810,117380 c 51780,29200 90690,297330 57010,355710 l 8130,50730 c 50190,33960 87460,289970 56450,352150 l 8380,52310 c 51360,30500 89850,295450 56880,354870 l 8250,51470 c 49980,34470 87060,289020 56410,351690 l 8470,52900 c 50900,31870 88910,293300 56720,353840 l 8160,50900 670,4170 c 22750,10520 38660,33620 38660,60220 v 181040 l 17690,110340 7850,48990 c 52720,26240 92610,301600 57310,357560 l 7550,47140 c 53890,22260 95070,307000 57680,359710 l 61540,383760 c -771960,0 -1543960,0 -2314990,0 -771040,0 -1542560,0 -2313150,0 l 62490,-389580 c -30390,-63030 6520,-316250 56320,-351260 l 7650,-47700 c -38170,-51440 3450,-339680 57780,-360440 l 7360,-45940 c -36590,-53950 4090,-335230 57540,-359000 l 7630,-47540 c -35020,-56380 4700,-330540 57260,-357260 l 7900,-49280 c -33470,-58690 5340,-326030 57010,-355490 l 7690,-47980 c -35800,-55190 4390,-332850 57390,-358140 l 45050,-281090 v -59100 c 0,-16630 6220,-31900 16450,-43580 l 10930,-68180 c -36520,-54060 4110,-334960 57520,-358910 z" />
    </clipPath>
    <linearGradient
       y2="343.1196"
       x2="416.20303"
       y1="343.1196"
       x1="133.79698"
       gradientTransform="matrix(1.1401119,0,0,1.1401119,-479.50036,1178.7304)"
       gradientUnits="userSpaceOnUse"
       id="linearGradient9130"
       xlink:href="#linearGradient8929"
       inkscape:collect="always" />
    <linearGradient
       y2="343.1196"
       x2="416.20303"
       y1="343.1196"
       x1="133.79698"
       gradientTransform="matrix(1.1401119,0,0,1.1401119,-479.50036,1178.7304)"
       gradientUnits="userSpaceOnUse"
       id="linearGradient9094"
       xlink:href="#linearGradient8929"
       inkscape:collect="always" />
    <linearGradient
       id="linearGradient8215">
      <stop
         id="stop8217"
         offset="0"
         style="stop-color:#5d070b;stop-opacity:1;" />
      <stop
         style="stop-color:#ed1c24;stop-opacity:1;"
         offset="0.5"
         id="stop8219" />
      <stop
         id="stop8221"
         offset="1"
         style="stop-color:#5d070a;stop-opacity:1;" />
    </linearGradient>
    <linearGradient
       gradientTransform="matrix(1.1401119,0,0,1.1401119,-508.53099,1753.7756)"
       y2="343.1196"
       x2="416.20303"
       y1="343.1196"
       x1="133.79698"
       gradientUnits="userSpaceOnUse"
       id="linearGradient7861"
       xlink:href="#linearGradient8929"
       inkscape:collect="always" />
    <linearGradient
       id="linearGradient8929">
      <stop
         style="stop-color:#776201;stop-opacity:1;"
         offset="0"
         id="stop8931" />
      <stop
         id="stop8933"
         offset="0.5"
         style="stop-color:#eac102;stop-opacity:1;" />
      <stop
         style="stop-color:#776201;stop-opacity:1;"
         offset="1"
         id="stop8935" />
    </linearGradient>
    <linearGradient
       inkscape:collect="always"
       xlink:href="#linearGradient8929"
       id="linearGradient8287"
       gradientUnits="userSpaceOnUse"
       gradientTransform="matrix(1.1401119,0,0,1.1401119,-479.50036,1178.7304)"
       x1="133.79698"
       y1="343.1196"
       x2="416.20303"
       y2="343.1196" />
    <linearGradient
       inkscape:collect="always"
       xlink:href="#linearGradient8929"
       id="linearGradient8315"
       gradientUnits="userSpaceOnUse"
       gradientTransform="matrix(1.1401119,0,0,1.1401119,614.12874,703.27798)"
       x1="133.79698"
       y1="343.1196"
       x2="416.20303"
       y2="343.1196" />
    <linearGradient
       inkscape:collect="always"
       xlink:href="#linearGradient8929"
       id="linearGradient8351"
       gradientUnits="userSpaceOnUse"
       gradientTransform="matrix(1.1401119,0,0,1.1401119,614.12874,703.27798)"
       x1="133.79698"
       y1="343.1196"
       x2="416.20303"
       y2="343.1196" />
    <linearGradient
       inkscape:collect="always"
       xlink:href="#linearGradient8929"
       id="linearGradient8379"
       gradientUnits="userSpaceOnUse"
       gradientTransform="matrix(1.1401119,0,0,1.1401119,614.12874,703.27798)"
       x1="133.79698"
       y1="343.1196"
       x2="416.20303"
       y2="343.1196" />
    <linearGradient
       inkscape:collect="always"
       xlink:href="#linearGradient8929"
       id="linearGradient9103"
       gradientUnits="userSpaceOnUse"
       gradientTransform="matrix(1.1401119,0,0,1.1401119,614.12874,703.27798)"
       x1="133.79698"
       y1="343.1196"
       x2="416.20303"
       y2="343.1196" />
    <linearGradient
       id="linearGradient5424">
      <stop
         id="stop5426"
         offset="0"
         style="stop-color:#5d070b;stop-opacity:1;" />
      <stop
         style="stop-color:#ed1c24;stop-opacity:1;"
         offset="0.5"
         id="stop5428" />
      <stop
         id="stop5430"
         offset="1"
         style="stop-color:#5d070a;stop-opacity:1;" />
    </linearGradient>
    <clipPath
       id="id0">
      <path
         id="path19584"
         d="m 14186300,5152250 c 0,0 192520,531420 469520,807850 276950,276430 478730,433880 662120,497520 183380,63600 243430,71380 468350,106740 224910,35370 538010,235520 538010,235520 0,0 -93220,-443930 -285140,-653670 -191920,-209780 -342300,-390000 -783210,-603570 -440870,-213570 -539180,-210470 -748800,-250180 -209620,-39660 -320850,-140210 -320850,-140210 z" />
    </clipPath>
    <clipPath
       id="id1">
      <path
         id="path19587"
         d="m 14186300,5152250 c 0,0 192520,531420 469520,807850 276950,276430 478730,433880 662120,497520 183380,63600 243430,71380 468350,106740 224910,35370 538010,235520 538010,235520 0,0 -93220,-443930 -285140,-653670 -191920,-209780 -342300,-390000 -783210,-603570 -440870,-213570 -539180,-210470 -748800,-250180 -209620,-39660 -320850,-140210 -320850,-140210 z" />
    </clipPath>
    <clipPath
       id="id2">
      <path
         id="path19590"
         d="m 17905000,7712850 c 168520,651560 60740,1647200 -524010,2079400 -361860,267500 -703730,314770 -1004210,391560 -300430,76830 -496090,173470 -496090,173470 0,0 -54450,-75370 -20210,-332640 34250,-257270 476240,-795050 889620,-1200870 413430,-405860 836590,-748460 955830,-881240 119200,-132780 199070,-229680 199070,-229680 z" />
    </clipPath>
    <clipPath
       id="clipPath5415">
      <path
         id="path19593"
         d="m 17905000,7712850 c 168520,651560 60740,1647200 -524010,2079400 -361860,267500 -703730,314770 -1004210,391560 -300430,76830 -496090,173470 -496090,173470 0,0 -54450,-75370 -20210,-332640 34250,-257270 476240,-795050 889620,-1200870 413430,-405860 836590,-748460 955830,-881240 119200,-132780 199070,-229680 199070,-229680 z" />
    </clipPath>
    <clipPath
       id="id4">
      <path
         id="path19596"
         d="m 13581500,896020 c 0,0 -73750,109400 -60270,321510 13530,212190 -380,450120 -126300,653580 -125920,203430 -215530,317730 -431820,471310 -216340,153580 -349200,298600 -349200,298600 0,0 14650,-73730 -13140,-307410 -27780,-233680 38260,-565710 187390,-810950 149100,-245230 300480,-352700 451900,-460220 151460,-107550 341440,-166420 341440,-166420 z" />
    </clipPath>
    <clipPath
       id="id5">
      <path
         id="path19599"
         d="m 13581500,896020 c 0,0 -73750,109400 -60270,321510 13530,212190 -380,450120 -126300,653580 -125920,203430 -215530,317730 -431820,471310 -216340,153580 -349200,298600 -349200,298600 0,0 14650,-73730 -13140,-307410 -27780,-233680 38260,-565710 187390,-810950 149100,-245230 300480,-352700 451900,-460220 151460,-107550 341440,-166420 341440,-166420 z" />
    </clipPath>
    <clipPath
       id="id6">
      <path
         id="path19602"
         d="m 12245000,694180 c 0,0 18490,95830 136440,200200 118030,104420 235080,236690 275310,409000 40190,172360 52860,279010 19560,472210 -33340,193150 -27310,338440 -27310,338440 0,0 -30850,-46410 -167580,-154700 -136770,-108280 -275660,-316990 -325500,-523380 -49890,-206310 -26580,-341540 -3230,-476770 23350,-135230 92310,-265000 92310,-265000 z" />
    </clipPath>
    <clipPath
       id="id7">
      <path
         id="path19605"
         d="m 12245000,694180 c 0,0 18490,95830 136440,200200 118030,104420 235080,236690 275310,409000 40190,172360 52860,279010 19560,472210 -33340,193150 -27310,338440 -27310,338440 0,0 -30850,-46410 -167580,-154700 -136770,-108280 -275660,-316990 -325500,-523380 -49890,-206310 -26580,-341540 -3230,-476770 23350,-135230 92310,-265000 92310,-265000 z" />
    </clipPath>
    <clipPath
       id="clipPath5404">
      <path
         id="path19608"
         d="m 13855800,1063560 c 0,0 288930,172830 540040,456700 251060,283820 613480,605590 506340,1079640 -107220,474100 -248560,480420 -287420,739830 -38850,259420 12070,430490 12070,430490 0,0 -243830,-246700 -420750,-500320 -176890,-253610 -391120,-485220 -350920,-952360 40190,-467180 70780,-600480 64830,-830540 -5940,-230070 -64190,-423440 -64190,-423440 z" />
    </clipPath>
    <clipPath
       id="id9">
      <path
         id="path19611"
         d="m 13855800,1063560 c 0,0 288930,172830 540040,456700 251060,283820 613480,605590 506340,1079640 -107220,474100 -248560,480420 -287420,739830 -38850,259420 12070,430490 12070,430490 0,0 -243830,-246700 -420750,-500320 -176890,-253610 -391120,-485220 -350920,-952360 40190,-467180 70780,-600480 64830,-830540 -5940,-230070 -64190,-423440 -64190,-423440 z" />
    </clipPath>
    <clipPath
       id="id10">
      <path
         id="path19614"
         d="m 12394500,3395680 c 0,0 417350,548740 639930,626900 222550,78210 494030,165230 757410,83370 263340,-81860 483000,-123110 666350,-130630 183250,-7440 475150,101360 475150,101360 0,0 -310160,-511520 -653460,-641470 -835120,-316090 -1143820,116800 -1885380,-39530 z" />
    </clipPath>
    <clipPath
       id="id11">
      <path
         id="path19617"
         d="m 12394500,3395680 c 0,0 417350,548740 639930,626900 222550,78210 494030,165230 757410,83370 263340,-81860 483000,-123110 666350,-130630 183250,-7440 475150,101360 475150,101360 0,0 -310160,-511520 -653460,-641470 -835120,-316090 -1143820,116800 -1885380,-39530 z" />
    </clipPath>
    <clipPath
       id="id12">
      <path
         id="path19620"
         d="m 15415100,2266750 c 0,0 -342600,800500 -374350,1331370 -31750,530820 81030,1008310 343420,1421350 262350,413120 606460,504610 680210,777900 73710,273250 120450,547450 120450,547450 0,0 251370,-775930 265280,-1354870 13960,-578910 25590,-892810 -165030,-1432610 -190580,-539800 -375000,-717570 -543350,-901230 -168400,-183750 -326630,-389360 -326630,-389360 z" />
    </clipPath>
    <clipPath
       id="id13">
      <path
         id="path19623"
         d="m 15415100,2266750 c 0,0 -342600,800500 -374350,1331370 -31750,530820 81030,1008310 343420,1421350 262350,413120 606460,504610 680210,777900 73710,273250 120450,547450 120450,547450 0,0 251370,-775930 265280,-1354870 13960,-578910 25590,-892810 -165030,-1432610 -190580,-539800 -375000,-717570 -543350,-901230 -168400,-183750 -326630,-389360 -326630,-389360 z" />
    </clipPath>
    <clipPath
       id="id14">
      <path
         id="path19626"
         d="m 14778300,5948840 c 0,0 -34250,633780 84740,1029460 119020,395680 156970,625100 395850,838580 238780,213480 333680,278020 581690,423740 248000,145670 335880,71280 471320,218980 135440,147730 96500,116620 96500,116620 0,0 47860,-416300 -139450,-881640 -187300,-465290 -250720,-698190 -727900,-1064650 -477180,-366450 -762750,-681090 -762750,-681090 z" />
    </clipPath>
    <clipPath
       id="id15">
      <path
         id="path19629"
         d="m 14778300,5948840 c 0,0 -34250,633780 84740,1029460 119020,395680 156970,625100 395850,838580 238780,213480 333680,278020 581690,423740 248000,145670 335880,71280 471320,218980 135440,147730 96500,116620 96500,116620 0,0 47860,-416300 -139450,-881640 -187300,-465290 -250720,-698190 -727900,-1064650 -477180,-366450 -762750,-681090 -762750,-681090 z" />
    </clipPath>
    <clipPath
       id="id16">
      <path
         id="path19632"
         d="m 14817100,7359190 c 0,0 -174940,385370 -194540,749590 -19650,364180 -5040,572500 175760,864790 180840,292330 279880,421120 505910,662700 226000,241540 329820,410930 329820,410930 0,0 288360,-134800 265660,-604690 -22660,-469930 -127300,-694580 -390550,-1119090 -263170,-424420 -476880,-536920 -575880,-665750 -99030,-128780 -116180,-298480 -116180,-298480 z" />
    </clipPath>
    <clipPath
       id="id17">
      <path
         id="path19635"
         d="m 14817100,7359190 c 0,0 -174940,385370 -194540,749590 -19650,364180 -5040,572500 175760,864790 180840,292330 279880,421120 505910,662700 226000,241540 329820,410930 329820,410930 0,0 288360,-134800 265660,-604690 -22660,-469930 -127300,-694580 -390550,-1119090 -263170,-424420 -476880,-536920 -575880,-665750 -99030,-128780 -116180,-298480 -116180,-298480 z" />
    </clipPath>
    <clipPath
       id="id18">
      <path
         id="path19638"
         d="m 16890700,8377910 c 160430,564380 234350,1467590 -95370,1986500 -178350,280730 -553650,675810 -553650,675810 l -283070,195040 -954800,184690 c 0,0 602240,-1346190 960060,-1836230 282680,-387090 591770,-860280 926830,-1205810 z" />
    </clipPath>
    <clipPath
       id="id19">
      <path
         id="path19641"
         d="m 16890700,8377910 c 160430,564380 234350,1467590 -95370,1986500 -178350,280730 -553650,675810 -553650,675810 l -283070,195040 -954800,184690 c 0,0 602240,-1346190 960060,-1836230 282680,-387090 591770,-860280 926830,-1205810 z" />
    </clipPath>
    <clipPath
       id="id20">
      <path
         id="path19644"
         d="m 14636800,8617900 c 0,0 -251150,401650 -273550,760590 -22360,358980 -4570,637600 81120,893660 194540,581490 399080,861830 476060,1534070 l 553350,-964190 c 103340,-401220 -109640,-1177360 -326150,-1548880 -216430,-371530 -510830,-675250 -510830,-675250 z" />
    </clipPath>
    <clipPath
       id="id21">
      <path
         id="path19647"
         d="m 14636800,8617900 c 0,0 -251150,401650 -273550,760590 -22360,358980 -4570,637600 81120,893660 194540,581490 399080,861830 476060,1534070 l 553350,-964190 c 103340,-401220 -109640,-1177360 -326150,-1548880 -216430,-371530 -510830,-675250 -510830,-675250 z" />
    </clipPath>
    <clipPath
       id="id22">
      <path
         id="path19650"
         d="m 13618500,13165000 c 0,0 187310,-399500 54190,-673220 -133110,-273730 -330930,-428300 -323220,-1023960 7710,-597170 97880,-1003460 413860,-1568140 79570,447890 485670,767380 590440,1234080 73140,325720 940,714310 -50710,969430 -51610,255080 -105580,543750 -105580,543750 l -177360,279960 -258860,234840 z" />
    </clipPath>
    <clipPath
       id="id23">
      <path
         id="path19653"
         d="m 13618500,13165000 c 0,0 187310,-399500 54190,-673220 -133110,-273730 -330930,-428300 -323220,-1023960 7710,-597170 97880,-1003460 413860,-1568140 79570,447890 485670,767380 590440,1234080 73140,325720 940,714310 -50710,969430 -51610,255080 -105580,543750 -105580,543750 l -177360,279960 -258860,234840 z" />
    </clipPath>
    <clipPath
       id="id24">
      <path
         id="path19656"
         d="m 16911800,4552070 c 433590,643710 547530,1439870 87670,2095870 -258350,368390 -571400,526870 -634380,622650 -63020,95740 -112310,142490 -112310,142490 0,0 -183510,-492280 -133280,-841630 50190,-349400 179940,-715170 347340,-1114240 167450,-399030 266190,-553120 320940,-688520 54790,-135450 124020,-216620 124020,-216620 z" />
    </clipPath>
    <clipPath
       id="id25">
      <path
         id="path19659"
         d="m 16911800,4552070 c 433590,643710 547530,1439870 87670,2095870 -258350,368390 -571400,526870 -634380,622650 -63020,95740 -112310,142490 -112310,142490 0,0 -183510,-492280 -133280,-841630 50190,-349400 179940,-715170 347340,-1114240 167450,-399030 266190,-553120 320940,-688520 54790,-135450 124020,-216620 124020,-216620 z" />
    </clipPath>
    <clipPath
       id="id26">
      <path
         id="path19662"
         d="m 17887700,5978240 c 0,0 1290,925810 -266960,1361400 -268250,435560 -637350,685300 -906810,897320 -269370,212020 -469810,375180 -469810,375180 0,0 -25850,-529310 118290,-1001440 144190,-472120 347860,-666860 624340,-870200 276480,-203300 480980,-405990 602200,-497390 121180,-91360 298750,-264870 298750,-264870 z" />
    </clipPath>
    <clipPath
       id="id27">
      <path
         id="path19665"
         d="m 17887700,5978240 c 0,0 1290,925810 -266960,1361400 -268250,435560 -637350,685300 -906810,897320 -269370,212020 -469810,375180 -469810,375180 0,0 -25850,-529310 118290,-1001440 144190,-472120 347860,-666860 624340,-870200 276480,-203300 480980,-405990 602200,-497390 121180,-91360 298750,-264870 298750,-264870 z" />
    </clipPath>
    <clipPath
       id="id28">
      <path
         id="path19668"
         d="m 16131400,10733900 c 361900,-208970 1045730,77950 1449170,2190 129790,-24410 317830,-56330 317830,-56330 0,0 -90380,380890 -465810,673650 -375430,292810 -755080,497480 -1190520,502810 -435400,5320 -576180,-109150 -817290,-144000 -241110,-34890 -583500,223880 -583500,223880 35320,-125180 216210,-553640 314520,-638980 283410,-246050 650400,-375480 975600,-563220 z" />
    </clipPath>
    <clipPath
       id="id29">
      <path
         id="path19671"
         d="m 16131400,10733900 c 361900,-208970 1045730,77950 1449170,2190 129790,-24410 317830,-56330 317830,-56330 0,0 -90380,380890 -465810,673650 -375430,292810 -755080,497480 -1190520,502810 -435400,5320 -576180,-109150 -817290,-144000 -241110,-34890 -583500,223880 -583500,223880 35320,-125180 216210,-553640 314520,-638980 283410,-246050 650400,-375480 975600,-563220 z" />
    </clipPath>
    <clipPath
       id="id30">
      <path
         id="path19674"
         d="m 10942800,1832570 c 0,0 127000,36610 325380,-40910 198330,-77690 429710,-137120 662420,-79710 232620,57540 369140,107730 581820,266250 212720,158560 391710,240460 391710,240460 0,0 -74910,8600 -289490,106360 -214570,97840 -551710,136470 -831330,69740 -279620,-66740 -428460,-177770 -577340,-288680 -148970,-110950 -263170,-273510 -263170,-273510 z" />
    </clipPath>
    <clipPath
       id="id31">
      <path
         id="path19677"
         d="m 10942800,1832570 c 0,0 127000,36610 325380,-40910 198330,-77690 429710,-137120 662420,-79710 232620,57540 369140,107730 581820,266250 212720,158560 391710,240460 391710,240460 0,0 -74910,8600 -289490,106360 -214570,97840 -551710,136470 -831330,69740 -279620,-66740 -428460,-177770 -577340,-288680 -148970,-110950 -263170,-273510 -263170,-273510 z" />
    </clipPath>
    <clipPath
       id="id32">
      <path
         id="path19680"
         d="m 11216900,2958840 c 0,0 127080,-36270 253820,-207250 126650,-170900 290870,-343900 518620,-418540 227850,-74720 370180,-104630 634720,-83100 264680,21650 460000,-3910 460000,-3910 0,0 -58930,47010 -188600,243550 -129710,196640 -394600,408100 -666990,499760 -272510,91830 -457710,76700 -643030,61620 -185160,-15040 -368540,-92130 -368540,-92130 z" />
    </clipPath>
    <clipPath
       id="id33">
      <path
         id="path19683"
         d="m 11216900,2958840 c 0,0 127080,-36270 253820,-207250 126650,-170900 290870,-343900 518620,-418540 227850,-74720 370180,-104630 634720,-83100 264680,21650 460000,-3910 460000,-3910 0,0 -58930,47010 -188600,243550 -129710,196640 -394600,408100 -666990,499760 -272510,91830 -457710,76700 -643030,61620 -185160,-15040 -368540,-92130 -368540,-92130 z" />
    </clipPath>
    <clipPath
       id="id34">
      <path
         id="path19686"
         d="m 13692900,11728500 c 0,0 -430870,25650 -730960,298990 -300000,273250 -391540,354850 -512030,850780 -120620,495930 -40580,550970 -113510,726940 -73060,175970 -32910,412610 -32910,412610 l 189460,-193370 180540,-208540 c 0,0 635800,-652690 750820,-808030 206650,-279220 122600,-605800 227060,-909480 31750,-92300 41530,-169900 41530,-169900 z" />
    </clipPath>
    <clipPath
       id="id35">
      <path
         id="path19689"
         d="m 13692900,11728500 c 0,0 -430870,25650 -730960,298990 -300000,273250 -391540,354850 -512030,850780 -120620,495930 -40580,550970 -113510,726940 -73060,175970 -32910,412610 -32910,412610 l 189460,-193370 180540,-208540 c 0,0 635800,-652690 750820,-808030 206650,-279220 122600,-605800 227060,-909480 31750,-92300 41530,-169900 41530,-169900 z" />
    </clipPath>
    <clipPath
       id="id36">
      <path
         id="path19692"
         d="m 14450300,12388500 c 327610,-259250 1045990,-74640 1434090,-208150 124920,-42980 306240,-101850 306240,-101850 0,0 -33810,389970 -362550,734080 -328730,344150 -674480,601760 -1104540,670260 -430010,68450 -585950,-24370 -829610,-23850 -243610,520 -766450,15300 -766450,15300 16670,-128960 354970,-288210 439830,-386960 244430,-284550 588630,-465890 882990,-698830 z" />
    </clipPath>
    <clipPath
       id="id37">
      <path
         id="path19695"
         d="m 14450300,12388500 c 327610,-259250 1045990,-74640 1434090,-208150 124920,-42980 306240,-101850 306240,-101850 0,0 -33810,389970 -362550,734080 -328730,344150 -674480,601760 -1104540,670260 -430010,68450 -585950,-24370 -829610,-23850 -243610,520 -766450,15300 -766450,15300 16670,-128960 354970,-288210 439830,-386960 244430,-284550 588630,-465890 882990,-698830 z" />
    </clipPath>
    <clipPath
       id="id38">
      <path
         id="path19698"
         d="m 14684500,13624900 c 0,0 -243780,425750 -674920,593300 -431130,167630 -560790,219540 -1129170,91960 -568300,-127540 -584190,-236860 -801180,-251380 -216950,-14490 -247190,-44950 -247190,-44950 l 6030,-37170 c 490020,-326240 1016750,-518060 1606280,-623120 390030,-69530 681810,180900 1045300,227830 110460,14260 194850,43530 194850,43530 z" />
    </clipPath>
    <clipPath
       id="id39">
      <path
         id="path19701"
         d="m 14684500,13624900 c 0,0 -243780,425750 -674920,593300 -431130,167630 -560790,219540 -1129170,91960 -568300,-127540 -584190,-236860 -801180,-251380 -216950,-14490 -247190,-44950 -247190,-44950 l 6030,-37170 c 490020,-326240 1016750,-518060 1606280,-623120 390030,-69530 681810,180900 1045300,227830 110460,14260 194850,43530 194850,43530 z" />
    </clipPath>
    <linearGradient
       id="linearGradient4476">
      <stop
         id="stop4478"
         offset="0"
         style="stop-color:#403800;stop-opacity:1;" />
      <stop
         style="stop-color:#c8af00;stop-opacity:1;"
         offset="0.5"
         id="stop3321" />
      <stop
         id="stop4480"
         offset="1"
         style="stop-color:#403900;stop-opacity:1;" />
    </linearGradient>
    <linearGradient
       y2="343.1196"
       x2="416.20303"
       y1="343.1196"
       x1="133.79698"
       gradientTransform="matrix(1.139822,0,0,1.139822,-148.07549,614.27196)"
       gradientUnits="userSpaceOnUse"
       id="linearGradient7738"
       xlink:href="#linearGradient4476"
       inkscape:collect="always" />
    <linearGradient
       id="linearGradient2892">
      <stop
         style="stop-color:#403800;stop-opacity:1;"
         offset="0"
         id="stop2894" />
      <stop
         id="stop2896"
         offset="0.5"
         style="stop-color:#c8af00;stop-opacity:1;" />
      <stop
         style="stop-color:#403900;stop-opacity:1;"
         offset="1"
         id="stop2898" />
    </linearGradient>
  </defs>
  <sodipodi:namedview
     id="base"
     pagecolor="#ffffff"
     bordercolor="#666666"
     borderopacity="1.0"
     gridtolerance="10000"
     guidetolerance="10"
     objecttolerance="10"
     inkscape:pageopacity="0.0"
     inkscape:pageshadow="2"
     inkscape:zoom="0.4855745"
     inkscape:cx="287.28856"
     inkscape:cy="155.48592"
     inkscape:document-units="px"
     inkscape:current-layer="layer2"
     inkscape:window-width="1920"
     inkscape:window-height="1008"
     inkscape:window-x="0"
     inkscape:window-y="0"
     showgrid="false"
     height="650px"
     width="550px"
     showguides="true"
     inkscape:guide-bbox="true"
     inkscape:showpageshadow="2"
     inkscape:pagecheckerboard="0"
     inkscape:deskcolor="#d1d1d1"
     inkscape:window-maximized="1" />
  <metadata
     id="metadata3199">
    <rdf:RDF>
      <cc:Work
         rdf:about="">
        <dc:format>image/svg+xml</dc:format>
        <dc:type
           rdf:resource="http://purl.org/dc/dcmitype/StillImage" />
      </cc:Work>
    </rdf:RDF>
  </metadata>
  <g
     inkscape:groupmode="layer"
     id="layer3"
     inkscape:label="Timbre"
     transform="translate(-76.890493,26.049596)"
     style="display:inline" />
  <g
     inkscape:label="Escudo"
     inkscape:groupmode="layer"
     id="layer1"
     transform="translate(-76.890493,26.049596)"
     style="display:inline" />
  <g
     inkscape:groupmode="layer"
     id="layer4"
     inkscape:label="Piezas"
     style="display:inline"
     transform="translate(-20.461771,-50.59075)">
    <g
       id="g5818"
       inkscape:label="Piezas"
       transform="translate(873.00016,-55.320157)" />
    <g
       id="g5820"
       inkscape:label="Muebles"
       transform="translate(873.00016,-55.320157)" />
    <g
       id="g5822"
       inkscape:label="Ornamentos"
       transform="translate(873.00016,-55.320157)" />
  </g>
  <g
     inkscape:groupmode="layer"
     id="layer5"
     inkscape:label="Muebles"
     style="display:inline"
     transform="translate(-20.461771,-50.59075)">
    <g
       inkscape:label="Escudo"
       id="g5438"
       transform="translate(-582.73933,640.16742)"
       style="display:inline" />
    <g
       id="g5440"
       inkscape:label="Piezas"
       style="display:inline"
       transform="translate(-526.31061,563.52708)" />
    <g
       id="g5559"
       inkscape:label="Ornamento"
       transform="translate(-526.31061,563.52708)" />
    <g
       id="g5561"
       inkscape:label="Borde 3px"
       style="display:inline"
       transform="translate(-526.31061,563.52708)" />
  </g>
  <g
     inkscape:groupmode="layer"
     id="layer6"
     inkscape:label="Ornamentos"
     style="display:inline"
     transform="translate(-20.461771,-50.59075)" />
  <g
     inkscape:groupmode="layer"
     id="layer2"
     inkscape:label="Borde 3px"
     style="display:inline"
     transform="translate(-20.461771,-50.59075)">
    <path
       style="display:inline;fill:#e3e4e5;fill-opacity:1;fill-rule:evenodd;stroke:none;stroke-width:3;stroke-linecap:butt;stroke-linejoin:miter;stroke-miterlimit:4;stroke-dasharray:none;stroke-opacity:1"
       id="path7156"
       sodipodi:nodetypes="cccccccccc"
       d="m 25.902351,52.09075 c 0,0 0.72294,513.90935 0.53923,520.90482 -0.76054,29.40605 2.62299,58.59435 126.054699,70.65832 45.16727,3.55406 100.13357,24.77277 123.13647,58.05984 0.0967,0.12985 0.19032,0.25134 0.28547,0.37701 l 0.25376,-0.37701 c 23.00292,-33.28707 77.9692,-54.50578 123.13646,-58.05984 123.4317,-12.06397 126.81522,-41.25227 126.05468,-70.65832 -0.18368,-6.99549 0.53924,-520.90482 0.53924,-520.90482 z" />
    <path
       style="display:inline;fill:#eac102;fill-opacity:1;fill-rule:evenodd;stroke:none;stroke-width:3;stroke-linecap:butt;stroke-linejoin:miter;stroke-miterlimit:4;stroke-dasharray:none;stroke-opacity:1"
       id="path6563"
       sodipodi:nodetypes="cccccccccc"
       d="m 25.902351,52.09075 c 0,0 0.72295,513.90936 0.53924,520.90483 -0.76055,29.40605 2.62298,58.59435 126.054689,70.65832 45.16727,3.55405 100.13356,24.77277 123.13647,58.05984 0.0967,0.12984 0.19032,0.25133 0.28548,0.37701 l 0.25376,-0.37701 c 23.00291,-33.28707 77.96919,-54.50579 123.13646,-58.05984 123.43169,-12.06397 126.81522,-41.25227 126.05467,-70.65832 -0.18368,-6.99549 0.53924,-520.90483 0.53924,-520.90483 z" />
    <path
       style="display:inline;fill:#008f4c;fill-opacity:1;fill-rule:evenodd;stroke:#000000;stroke-width:1;stroke-linecap:butt;stroke-linejoin:miter;stroke-miterlimit:4;stroke-dasharray:none;stroke-opacity:1"
       d="m 75.41738,52.705277 -49.375001,56.875003 49.656251,58.25 49.40625,-58.25 z m 399.59375,0 -49.375,56.875003 49.65625,58.25 49.40625,-58.25 z m -99.3125,0.03125 -49.375,56.843753 49.6875,58.25 49.375,-58.25 -49.625,-56.843753 c -0.0209,3.9e-5 -0.0416,-4e-5 -0.0625,0 z m -200.15625,0.21875 -49.15625,56.625003 49.65625,58.25 49.40625,-58.25 -49.46875,-56.625003 c -0.14642,-9.8e-5 -0.29111,1.1e-4 -0.4375,0 z m 100.09375,0 -49.09375,56.625003 49.65625,58.25 49.34375,-58.25 -49.46875,-56.625003 c -0.1466,1.92e-4 -0.29091,-1.8e-4 -0.4375,0 z M 75.41738,168.98653 l -49.375001,56.8125 49.656251,58.28125 49.40625,-58.28125 z m 100.34375,0 -49.375,56.8125 49.65625,58.28125 49.40625,-58.28125 z m 100.09375,0 -49.3125,56.8125 49.65625,58.28125 49.34375,-58.28125 z m 99.875,0 -49.40625,56.8125 49.6875,58.28125 49.375,-58.28125 z m 99.28125,0 -49.375,56.8125 49.65625,58.28125 49.40625,-58.28125 z M 75.41738,285.26778 26.167379,341.92403 c 1.3e-4,0.1123 -1.3e-4,0.20021 0,0.3125 l 49.531251,58.09375 49.40625,-58.25 z m 100.34375,0 -49.375,56.8125 49.65625,58.25 49.40625,-58.25 z m 100.09375,0 -49.3125,56.8125 49.65625,58.25 49.34375,-58.25 z m 99.875,0 -49.40625,56.8125 49.6875,58.25 49.375,-58.25 z m 99.28125,0 -49.375,56.8125 49.65625,58.25 49.34375,-58.1875 c 1.5e-4,-0.0482 -1.5e-4,-0.0767 0,-0.125 z m -399.59375,116.25 -49.125001,56.5 c 1.6e-4,0.17013 -1.6e-4,0.39263 0,0.5625 l 49.406251,57.96875 49.40625,-58.25 z m 100.34375,0 -49.375,56.78125 49.65625,58.25 49.40625,-58.25 z m 100.09375,0 -49.3125,56.78125 49.65625,58.25 49.34375,-58.25 z m 99.875,0 -49.40625,56.78125 49.6875,58.25 49.375,-58.25 z m 99.28125,0 -49.375,56.78125 49.65625,58.25 48.96875,-57.75 c 10e-4,-0.40348 -0.002,-0.62536 0,-1.03125 z m -399.15625,116.375 -48.218751,50.90625 45.468751,60.46875 c 1.58214,0.50562 3.21667,1.00958 4.90625,1.5 l 47.53125,-56.0625 z m 100.34375,0 -49.34375,56.8125 49.65625,58.25 49.375,-58.25 z m 100.125,0 -49.34375,56.8125 49.65625,58.25 49.34375,-58.25 z m 99.875,0 -49.40625,56.8125 49.6875,58.25 49.375,-58.25 z m 99.25,0 -49.34375,56.8125 46.625,54.6875 c 0.19149,-0.91396 51.90727,-61.46845 51.65625,-64.71875 z m -299.25,116.25 -9.5625,11.03125 c 7.74279,1.18321 15.64601,2.81092 23.5,4.90625 z m 100.125,0 -33.1875,38.21875 c 13.33461,8.23924 24.65813,18.02057 32.375,29.1875 0.0967,0.12984 0.18609,0.24932 0.28125,0.375 l 0.25,-0.375 c 7.76914,-11.24257 19.20385,-21.10137 32.65625,-29.375 -0.0744,-0.42986 -0.13853,-0.87638 -0.25,-1.3125 z m 99.875,0 -13.625,15.625 c 7.75256,-2.02538 15.52721,-3.58336 23.15625,-4.71875 z"
       id="path34275" />
    <path
       id="path4560"
       d="m 37.56729,86.80287 c 0.20428,120.74473 -0.41112,241.50283 0.31223,362.2391 3.84688,108.35657 86.78731,207.32615 192.69986,230.20965 97.98283,23.86998 207.6723,-19.0271 262.97739,-103.62122 33.12209,-47.31073 45.3201,-105.86015 42.58894,-162.85245 0,-108.65836 0,-217.31672 0,-325.97508 -166.19277,0 -332.38555,0 -498.57842,0 z"
       style="color:#000000;display:inline;overflow:visible;visibility:visible;fill:none;fill-opacity:1;fill-rule:evenodd;stroke:none;stroke-width:1;stroke-linecap:butt;stroke-linejoin:miter;stroke-miterlimit:4;stroke-dasharray:none;stroke-dashoffset:0;stroke-opacity:1;marker:none;marker-start:none;marker-mid:none;marker-end:none;enable-background:accumulate" />
    <g
       transform="matrix(0.09613734,0,0,0.09787181,39.51724,66.824501)"
       id="g24192"
       style="display:inline;fill:#e3e4e5;fill-opacity:1;stroke:#000000;stroke-width:8.37844;stroke-miterlimit:4;stroke-dasharray:none;stroke-opacity:1">
      <path
         d="m 407.02914,608.69929 c 1.42457,-61.95601 16.75116,-119.53947 45.28957,-174.1086 74.71442,-157.1858 302.92034,-153.43174 252.61522,38.81131 -18.53686,70.83937 -81.50861,112.47386 -156.31886,119.61501 5.39959,-18.66537 35.10029,-84.65245 11.12447,-97.56156 -38.33816,1.4484 -85.94434,67.7051 -97.39282,99.30072 -1.6527,4.5361 -1.19041,9.77801 -3.03584,14.24007"
         style="display:inline;opacity:1;fill:#e3e4e5;fill-opacity:1;fill-rule:evenodd;stroke:#000000;stroke-width:8.37844;stroke-linecap:butt;stroke-linejoin:miter;stroke-miterlimit:4;stroke-dasharray:none;stroke-opacity:1"
         id="path24194"
         sodipodi:nodetypes="ccscscc" />
      <g
         transform="translate(-38.53215,-48.5769)"
         style="display:inline;opacity:1;fill:#e3e4e5;fill-opacity:1;stroke:#000000;stroke-width:8.37844;stroke-miterlimit:4;stroke-dasharray:none;stroke-opacity:1"
         id="g24196">
        <g
           transform="translate(0,4)"
           style="fill:#e3e4e5;fill-opacity:1;stroke:#000000;stroke-width:8.37844;stroke-miterlimit:4;stroke-dasharray:none;stroke-opacity:1"
           id="g24198">
          <path
             d="M 350.52292,657.37224 C 349.09835,595.41623 333.77176,537.83277 305.23335,483.26364 230.51893,326.07784 2.3130139,329.8319 52.618133,522.07495 71.154997,592.91432 134.12674,634.54881 208.93699,641.68996 203.5374,623.02459 173.8367,557.03751 197.81252,544.1284 c 38.33816,1.4484 85.94434,67.7051 97.39282,99.30072 1.6527,4.5361 1.19041,9.77801 3.03584,14.24007"
             style="fill:#e3e4e5;fill-opacity:1;fill-rule:evenodd;stroke:#000000;stroke-width:8.37844;stroke-linecap:butt;stroke-linejoin:miter;stroke-miterlimit:4;stroke-dasharray:none;stroke-opacity:1"
             id="path24200"
             sodipodi:nodetypes="ccscscc" />
          <path
             d="m 393.6259,57.12017 c -78.7143,84.84944 -131.56461,182.96158 -108.78125,298.03125 12.56957,63.48391 43.04182,122.27973 64.53125,183.4375 13.43648,38.36985 16.87223,78.45173 15.28125,118.78125 h 66.78125 c -3.19651,-40.62617 3.80671,-79.99824 15.28125,-118.78125 20.47419,-61.5383 51.62579,-119.90553 64.53125,-183.4375 C 535.37892,236.37223 478.74399,146.7919 402.8134,57.49517 l -4.64043,-5.918268 z"
             style="fill:#e3e4e5;fill-opacity:1;fill-rule:nonzero;stroke:#000000;stroke-width:8.37844;stroke-linecap:butt;stroke-linejoin:miter;stroke-miterlimit:4;stroke-dasharray:none;stroke-opacity:1"
             id="path24202"
             sodipodi:nodetypes="csccccsccc" />
          <path
             d="m 331.34465,704.40142 c -13.96166,39.13002 -70.88818,110.79207 -101.125,131.21875 -7.84217,5.29785 37.48637,-3.05157 57.78125,-7.5 26.61901,-5.83464 61.21745,-34.19759 60.40625,-24.1875 -0.0756,45.83826 12.81104,122.32424 46.40625,157.46875 l 3.18208,3.3876 3.28667,-3.3876 c 33.57769,-39.17095 46.23761,-108.04198 46.40625,-157.46875 -0.8112,-10.01009 33.78725,18.35286 60.40625,24.1875 20.29488,4.44843 65.62342,12.79785 57.78125,7.5 -30.23682,-20.42668 -87.13207,-92.08873 -101.09375,-131.21875 z"
             style="fill:#e3e4e5;fill-opacity:1;fill-rule:evenodd;stroke:#000000;stroke-width:8.37844;stroke-linecap:butt;stroke-linejoin:miter;stroke-miterlimit:4;stroke-dasharray:none;stroke-opacity:1"
             id="path24204"
             sodipodi:nodetypes="cssscccssscc" />
          <rect
             width="317.88773"
             height="51.503345"
             x="239.3521"
             y="655.37946"
             style="fill:#e3e4e5;fill-opacity:1;stroke:#000000;stroke-width:8.37844;stroke-miterlimit:4;stroke-dasharray:none;stroke-opacity:1"
             id="rect24206" />
        </g>
      </g>
    </g>
    <g
       transform="matrix(0.09613734,0,0,0.09787181,241.34003,66.824508)"
       id="g5661"
       style="display:inline;fill:#e3e4e5;fill-opacity:1;stroke:#000000;stroke-width:8.37844;stroke-miterlimit:4;stroke-dasharray:none;stroke-opacity:1">
      <path
         d="m 407.02914,608.69929 c 1.42457,-61.95601 16.75116,-119.53947 45.28957,-174.1086 74.71442,-157.1858 302.92034,-153.43174 252.61522,38.81131 -18.53686,70.83937 -81.50861,112.47386 -156.31886,119.61501 5.39959,-18.66537 35.10029,-84.65245 11.12447,-97.56156 -38.33816,1.4484 -85.94434,67.7051 -97.39282,99.30072 -1.6527,4.5361 -1.19041,9.77801 -3.03584,14.24007"
         style="display:inline;opacity:1;fill:#e3e4e5;fill-opacity:1;fill-rule:evenodd;stroke:#000000;stroke-width:8.37844;stroke-linecap:butt;stroke-linejoin:miter;stroke-miterlimit:4;stroke-dasharray:none;stroke-opacity:1"
         id="path5663"
         sodipodi:nodetypes="ccscscc" />
      <g
         transform="translate(-38.53215,-48.5769)"
         style="display:inline;opacity:1;fill:#e3e4e5;fill-opacity:1;stroke:#000000;stroke-width:8.37844;stroke-miterlimit:4;stroke-dasharray:none;stroke-opacity:1"
         id="g5665">
        <g
           transform="translate(0,4)"
           style="fill:#e3e4e5;fill-opacity:1;stroke:#000000;stroke-width:8.37844;stroke-miterlimit:4;stroke-dasharray:none;stroke-opacity:1"
           id="g5667">
          <path
             d="M 350.52292,657.37224 C 349.09835,595.41623 333.77176,537.83277 305.23335,483.26364 230.51893,326.07784 2.3130139,329.8319 52.618133,522.07495 71.154997,592.91432 134.12674,634.54881 208.93699,641.68996 203.5374,623.02459 173.8367,557.03751 197.81252,544.1284 c 38.33816,1.4484 85.94434,67.7051 97.39282,99.30072 1.6527,4.5361 1.19041,9.77801 3.03584,14.24007"
             style="fill:#e3e4e5;fill-opacity:1;fill-rule:evenodd;stroke:#000000;stroke-width:8.37844;stroke-linecap:butt;stroke-linejoin:miter;stroke-miterlimit:4;stroke-dasharray:none;stroke-opacity:1"
             id="path5669"
             sodipodi:nodetypes="ccscscc" />
          <path
             d="m 393.6259,57.12017 c -78.7143,84.84944 -131.56461,182.96158 -108.78125,298.03125 12.56957,63.48391 43.04182,122.27973 64.53125,183.4375 13.43648,38.36985 16.87223,78.45173 15.28125,118.78125 h 66.78125 c -3.19651,-40.62617 3.80671,-79.99824 15.28125,-118.78125 20.47419,-61.5383 51.62579,-119.90553 64.53125,-183.4375 C 535.37892,236.37223 478.74399,146.7919 402.8134,57.49517 l -4.64043,-5.918268 z"
             style="fill:#e3e4e5;fill-opacity:1;fill-rule:nonzero;stroke:#000000;stroke-width:8.37844;stroke-linecap:butt;stroke-linejoin:miter;stroke-miterlimit:4;stroke-dasharray:none;stroke-opacity:1"
             id="path5671"
             sodipodi:nodetypes="csccccsccc" />
          <path
             d="m 331.34465,704.40142 c -13.96166,39.13002 -70.88818,110.79207 -101.125,131.21875 -7.84217,5.29785 37.48637,-3.05157 57.78125,-7.5 26.61901,-5.83464 61.21745,-34.19759 60.40625,-24.1875 -0.0756,45.83826 12.81104,122.32424 46.40625,157.46875 l 3.18208,3.3876 3.28667,-3.3876 c 33.57769,-39.17095 46.23761,-108.04198 46.40625,-157.46875 -0.8112,-10.01009 33.78725,18.35286 60.40625,24.1875 20.29488,4.44843 65.62342,12.79785 57.78125,7.5 -30.23682,-20.42668 -87.13207,-92.08873 -101.09375,-131.21875 z"
             style="fill:#e3e4e5;fill-opacity:1;fill-rule:evenodd;stroke:#000000;stroke-width:8.37844;stroke-linecap:butt;stroke-linejoin:miter;stroke-miterlimit:4;stroke-dasharray:none;stroke-opacity:1"
             id="path5673"
             sodipodi:nodetypes="cssscccssscc" />
          <rect
             width="317.88773"
             height="51.503345"
             x="239.3521"
             y="655.37946"
             style="fill:#e3e4e5;fill-opacity:1;stroke:#000000;stroke-width:8.37844;stroke-miterlimit:4;stroke-dasharray:none;stroke-opacity:1"
             id="rect5675" />
        </g>
      </g>
    </g>
    <g
       transform="matrix(0.09613734,0,0,0.09787181,440.98457,66.824508)"
       id="g5677"
       style="display:inline;fill:#e3e4e5;fill-opacity:1;stroke:#000000;stroke-width:8.37844;stroke-miterlimit:4;stroke-dasharray:none;stroke-opacity:1">
      <path
         d="m 407.02914,608.69929 c 1.42457,-61.95601 16.75116,-119.53947 45.28957,-174.1086 74.71442,-157.1858 302.92034,-153.43174 252.61522,38.81131 -18.53686,70.83937 -81.50861,112.47386 -156.31886,119.61501 5.39959,-18.66537 35.10029,-84.65245 11.12447,-97.56156 -38.33816,1.4484 -85.94434,67.7051 -97.39282,99.30072 -1.6527,4.5361 -1.19041,9.77801 -3.03584,14.24007"
         style="display:inline;opacity:1;fill:#e3e4e5;fill-opacity:1;fill-rule:evenodd;stroke:#000000;stroke-width:8.37844;stroke-linecap:butt;stroke-linejoin:miter;stroke-miterlimit:4;stroke-dasharray:none;stroke-opacity:1"
         id="path5679"
         sodipodi:nodetypes="ccscscc" />
      <g
         transform="translate(-38.53215,-48.5769)"
         style="display:inline;opacity:1;fill:#e3e4e5;fill-opacity:1;stroke:#000000;stroke-width:8.37844;stroke-miterlimit:4;stroke-dasharray:none;stroke-opacity:1"
         id="g5681">
        <g
           transform="translate(0,4)"
           style="fill:#e3e4e5;fill-opacity:1;stroke:#000000;stroke-width:8.37844;stroke-miterlimit:4;stroke-dasharray:none;stroke-opacity:1"
           id="g5683">
          <path
             d="M 350.52292,657.37224 C 349.09835,595.41623 333.77176,537.83277 305.23335,483.26364 230.51893,326.07784 2.3130139,329.8319 52.618133,522.07495 71.154997,592.91432 134.12674,634.54881 208.93699,641.68996 203.5374,623.02459 173.8367,557.03751 197.81252,544.1284 c 38.33816,1.4484 85.94434,67.7051 97.39282,99.30072 1.6527,4.5361 1.19041,9.77801 3.03584,14.24007"
             style="fill:#e3e4e5;fill-opacity:1;fill-rule:evenodd;stroke:#000000;stroke-width:8.37844;stroke-linecap:butt;stroke-linejoin:miter;stroke-miterlimit:4;stroke-dasharray:none;stroke-opacity:1"
             id="path5685"
             sodipodi:nodetypes="ccscscc" />
          <path
             d="m 393.6259,57.12017 c -78.7143,84.84944 -131.56461,182.96158 -108.78125,298.03125 12.56957,63.48391 43.04182,122.27973 64.53125,183.4375 13.43648,38.36985 16.87223,78.45173 15.28125,118.78125 h 66.78125 c -3.19651,-40.62617 3.80671,-79.99824 15.28125,-118.78125 20.47419,-61.5383 51.62579,-119.90553 64.53125,-183.4375 C 535.37892,236.37223 478.74399,146.7919 402.8134,57.49517 l -4.64043,-5.918268 z"
             style="fill:#e3e4e5;fill-opacity:1;fill-rule:nonzero;stroke:#000000;stroke-width:8.37844;stroke-linecap:butt;stroke-linejoin:miter;stroke-miterlimit:4;stroke-dasharray:none;stroke-opacity:1"
             id="path5687"
             sodipodi:nodetypes="csccccsccc" />
          <path
             d="m 331.34465,704.40142 c -13.96166,39.13002 -70.88818,110.79207 -101.125,131.21875 -7.84217,5.29785 37.48637,-3.05157 57.78125,-7.5 26.61901,-5.83464 61.21745,-34.19759 60.40625,-24.1875 -0.0756,45.83826 12.81104,122.32424 46.40625,157.46875 l 3.18208,3.3876 3.28667,-3.3876 c 33.57769,-39.17095 46.23761,-108.04198 46.40625,-157.46875 -0.8112,-10.01009 33.78725,18.35286 60.40625,24.1875 20.29488,4.44843 65.62342,12.79785 57.78125,7.5 -30.23682,-20.42668 -87.13207,-92.08873 -101.09375,-131.21875 z"
             style="fill:#e3e4e5;fill-opacity:1;fill-rule:evenodd;stroke:#000000;stroke-width:8.37844;stroke-linecap:butt;stroke-linejoin:miter;stroke-miterlimit:4;stroke-dasharray:none;stroke-opacity:1"
             id="path5689"
             sodipodi:nodetypes="cssscccssscc" />
          <rect
             width="317.88773"
             height="51.503345"
             x="239.3521"
             y="655.37946"
             style="fill:#e3e4e5;fill-opacity:1;stroke:#000000;stroke-width:8.37844;stroke-miterlimit:4;stroke-dasharray:none;stroke-opacity:1"
             id="rect5691" />
        </g>
      </g>
    </g>
    <g
       transform="matrix(0.09613734,0,0,0.09787181,140.48805,181.91415)"
       id="g5693"
       style="display:inline;fill:#e3e4e5;fill-opacity:1;stroke:#000000;stroke-width:8.37844;stroke-miterlimit:4;stroke-dasharray:none;stroke-opacity:1">
      <path
         d="m 407.02914,608.69929 c 1.42457,-61.95601 16.75116,-119.53947 45.28957,-174.1086 74.71442,-157.1858 302.92034,-153.43174 252.61522,38.81131 -18.53686,70.83937 -81.50861,112.47386 -156.31886,119.61501 5.39959,-18.66537 35.10029,-84.65245 11.12447,-97.56156 -38.33816,1.4484 -85.94434,67.7051 -97.39282,99.30072 -1.6527,4.5361 -1.19041,9.77801 -3.03584,14.24007"
         style="display:inline;opacity:1;fill:#e3e4e5;fill-opacity:1;fill-rule:evenodd;stroke:#000000;stroke-width:8.37844;stroke-linecap:butt;stroke-linejoin:miter;stroke-miterlimit:4;stroke-dasharray:none;stroke-opacity:1"
         id="path5695"
         sodipodi:nodetypes="ccscscc" />
      <g
         transform="translate(-38.53215,-48.5769)"
         style="display:inline;opacity:1;fill:#e3e4e5;fill-opacity:1;stroke:#000000;stroke-width:8.37844;stroke-miterlimit:4;stroke-dasharray:none;stroke-opacity:1"
         id="g5697">
        <g
           transform="translate(0,4)"
           style="fill:#e3e4e5;fill-opacity:1;stroke:#000000;stroke-width:8.37844;stroke-miterlimit:4;stroke-dasharray:none;stroke-opacity:1"
           id="g5699">
          <path
             d="M 350.52292,657.37224 C 349.09835,595.41623 333.77176,537.83277 305.23335,483.26364 230.51893,326.07784 2.3130139,329.8319 52.618133,522.07495 71.154997,592.91432 134.12674,634.54881 208.93699,641.68996 203.5374,623.02459 173.8367,557.03751 197.81252,544.1284 c 38.33816,1.4484 85.94434,67.7051 97.39282,99.30072 1.6527,4.5361 1.19041,9.77801 3.03584,14.24007"
             style="fill:#e3e4e5;fill-opacity:1;fill-rule:evenodd;stroke:#000000;stroke-width:8.37844;stroke-linecap:butt;stroke-linejoin:miter;stroke-miterlimit:4;stroke-dasharray:none;stroke-opacity:1"
             id="path5701"
             sodipodi:nodetypes="ccscscc" />
          <path
             d="m 393.6259,57.12017 c -78.7143,84.84944 -131.56461,182.96158 -108.78125,298.03125 12.56957,63.48391 43.04182,122.27973 64.53125,183.4375 13.43648,38.36985 16.87223,78.45173 15.28125,118.78125 h 66.78125 c -3.19651,-40.62617 3.80671,-79.99824 15.28125,-118.78125 20.47419,-61.5383 51.62579,-119.90553 64.53125,-183.4375 C 535.37892,236.37223 478.74399,146.7919 402.8134,57.49517 l -4.64043,-5.918268 z"
             style="fill:#e3e4e5;fill-opacity:1;fill-rule:nonzero;stroke:#000000;stroke-width:8.37844;stroke-linecap:butt;stroke-linejoin:miter;stroke-miterlimit:4;stroke-dasharray:none;stroke-opacity:1"
             id="path5703"
             sodipodi:nodetypes="csccccsccc" />
          <path
             d="m 331.34465,704.40142 c -13.96166,39.13002 -70.88818,110.79207 -101.125,131.21875 -7.84217,5.29785 37.48637,-3.05157 57.78125,-7.5 26.61901,-5.83464 61.21745,-34.19759 60.40625,-24.1875 -0.0756,45.83826 12.81104,122.32424 46.40625,157.46875 l 3.18208,3.3876 3.28667,-3.3876 c 33.57769,-39.17095 46.23761,-108.04198 46.40625,-157.46875 -0.8112,-10.01009 33.78725,18.35286 60.40625,24.1875 20.29488,4.44843 65.62342,12.79785 57.78125,7.5 -30.23682,-20.42668 -87.13207,-92.08873 -101.09375,-131.21875 z"
             style="fill:#e3e4e5;fill-opacity:1;fill-rule:evenodd;stroke:#000000;stroke-width:8.37844;stroke-linecap:butt;stroke-linejoin:miter;stroke-miterlimit:4;stroke-dasharray:none;stroke-opacity:1"
             id="path5705"
             sodipodi:nodetypes="cssscccssscc" />
          <rect
             width="317.88773"
             height="51.503345"
             x="239.3521"
             y="655.37946"
             style="fill:#e3e4e5;fill-opacity:1;stroke:#000000;stroke-width:8.37844;stroke-miterlimit:4;stroke-dasharray:none;stroke-opacity:1"
             id="rect5707" />
        </g>
      </g>
    </g>
    <g
       transform="matrix(0.09613734,0,0,0.09787181,342.19201,179.91415)"
       id="g5709"
       style="display:inline;fill:#e3e4e5;fill-opacity:1;stroke:#000000;stroke-width:8.37844;stroke-miterlimit:4;stroke-dasharray:none;stroke-opacity:1">
      <path
         d="m 407.02914,608.69929 c 1.42457,-61.95601 16.75116,-119.53947 45.28957,-174.1086 74.71442,-157.1858 302.92034,-153.43174 252.61522,38.81131 -18.53686,70.83937 -81.50861,112.47386 -156.31886,119.61501 5.39959,-18.66537 35.10029,-84.65245 11.12447,-97.56156 -38.33816,1.4484 -85.94434,67.7051 -97.39282,99.30072 -1.6527,4.5361 -1.19041,9.77801 -3.03584,14.24007"
         style="display:inline;opacity:1;fill:#e3e4e5;fill-opacity:1;fill-rule:evenodd;stroke:#000000;stroke-width:8.37844;stroke-linecap:butt;stroke-linejoin:miter;stroke-miterlimit:4;stroke-dasharray:none;stroke-opacity:1"
         id="path5711"
         sodipodi:nodetypes="ccscscc" />
      <g
         transform="translate(-38.53215,-48.5769)"
         style="display:inline;opacity:1;fill:#e3e4e5;fill-opacity:1;stroke:#000000;stroke-width:8.37844;stroke-miterlimit:4;stroke-dasharray:none;stroke-opacity:1"
         id="g5713">
        <g
           transform="translate(0,4)"
           style="fill:#e3e4e5;fill-opacity:1;stroke:#000000;stroke-width:8.37844;stroke-miterlimit:4;stroke-dasharray:none;stroke-opacity:1"
           id="g5715">
          <path
             d="M 350.52292,657.37224 C 349.09835,595.41623 333.77176,537.83277 305.23335,483.26364 230.51893,326.07784 2.3130139,329.8319 52.618133,522.07495 71.154997,592.91432 134.12674,634.54881 208.93699,641.68996 203.5374,623.02459 173.8367,557.03751 197.81252,544.1284 c 38.33816,1.4484 85.94434,67.7051 97.39282,99.30072 1.6527,4.5361 1.19041,9.77801 3.03584,14.24007"
             style="fill:#e3e4e5;fill-opacity:1;fill-rule:evenodd;stroke:#000000;stroke-width:8.37844;stroke-linecap:butt;stroke-linejoin:miter;stroke-miterlimit:4;stroke-dasharray:none;stroke-opacity:1"
             id="path5717"
             sodipodi:nodetypes="ccscscc" />
          <path
             d="m 393.6259,57.12017 c -78.7143,84.84944 -131.56461,182.96158 -108.78125,298.03125 12.56957,63.48391 43.04182,122.27973 64.53125,183.4375 13.43648,38.36985 16.87223,78.45173 15.28125,118.78125 h 66.78125 c -3.19651,-40.62617 3.80671,-79.99824 15.28125,-118.78125 20.47419,-61.5383 51.62579,-119.90553 64.53125,-183.4375 C 535.37892,236.37223 478.74399,146.7919 402.8134,57.49517 l -4.64043,-5.918268 z"
             style="fill:#e3e4e5;fill-opacity:1;fill-rule:nonzero;stroke:#000000;stroke-width:8.37844;stroke-linecap:butt;stroke-linejoin:miter;stroke-miterlimit:4;stroke-dasharray:none;stroke-opacity:1"
             id="path5719"
             sodipodi:nodetypes="csccccsccc" />
          <path
             d="m 331.34465,704.40142 c -13.96166,39.13002 -70.88818,110.79207 -101.125,131.21875 -7.84217,5.29785 37.48637,-3.05157 57.78125,-7.5 26.61901,-5.83464 61.21745,-34.19759 60.40625,-24.1875 -0.0756,45.83826 12.81104,122.32424 46.40625,157.46875 l 3.18208,3.3876 3.28667,-3.3876 c 33.57769,-39.17095 46.23761,-108.04198 46.40625,-157.46875 -0.8112,-10.01009 33.78725,18.35286 60.40625,24.1875 20.29488,4.44843 65.62342,12.79785 57.78125,7.5 -30.23682,-20.42668 -87.13207,-92.08873 -101.09375,-131.21875 z"
             style="fill:#e3e4e5;fill-opacity:1;fill-rule:evenodd;stroke:#000000;stroke-width:8.37844;stroke-linecap:butt;stroke-linejoin:miter;stroke-miterlimit:4;stroke-dasharray:none;stroke-opacity:1"
             id="path5721"
             sodipodi:nodetypes="cssscccssscc" />
          <rect
             width="317.88773"
             height="51.503345"
             x="239.3521"
             y="655.37946"
             style="fill:#e3e4e5;fill-opacity:1;stroke:#000000;stroke-width:8.37844;stroke-miterlimit:4;stroke-dasharray:none;stroke-opacity:1"
             id="rect5723" />
        </g>
      </g>
    </g>
    <g
       transform="matrix(0.09613734,0,0,0.09787181,40.48753,299.00379)"
       id="g5725"
       style="display:inline;fill:#e3e4e5;fill-opacity:1;stroke:#000000;stroke-width:8.37844;stroke-miterlimit:4;stroke-dasharray:none;stroke-opacity:1">
      <path
         d="m 407.02914,608.69929 c 1.42457,-61.95601 16.75116,-119.53947 45.28957,-174.1086 74.71442,-157.1858 302.92034,-153.43174 252.61522,38.81131 -18.53686,70.83937 -81.50861,112.47386 -156.31886,119.61501 5.39959,-18.66537 35.10029,-84.65245 11.12447,-97.56156 -38.33816,1.4484 -85.94434,67.7051 -97.39282,99.30072 -1.6527,4.5361 -1.19041,9.77801 -3.03584,14.24007"
         style="display:inline;opacity:1;fill:#e3e4e5;fill-opacity:1;fill-rule:evenodd;stroke:#000000;stroke-width:8.37844;stroke-linecap:butt;stroke-linejoin:miter;stroke-miterlimit:4;stroke-dasharray:none;stroke-opacity:1"
         id="path5727"
         sodipodi:nodetypes="ccscscc" />
      <g
         transform="translate(-38.53215,-48.5769)"
         style="display:inline;opacity:1;fill:#e3e4e5;fill-opacity:1;stroke:#000000;stroke-width:8.37844;stroke-miterlimit:4;stroke-dasharray:none;stroke-opacity:1"
         id="g5729">
        <g
           transform="translate(0,4)"
           style="fill:#e3e4e5;fill-opacity:1;stroke:#000000;stroke-width:8.37844;stroke-miterlimit:4;stroke-dasharray:none;stroke-opacity:1"
           id="g5731">
          <path
             d="M 350.52292,657.37224 C 349.09835,595.41623 333.77176,537.83277 305.23335,483.26364 230.51893,326.07784 2.3130139,329.8319 52.618133,522.07495 71.154997,592.91432 134.12674,634.54881 208.93699,641.68996 203.5374,623.02459 173.8367,557.03751 197.81252,544.1284 c 38.33816,1.4484 85.94434,67.7051 97.39282,99.30072 1.6527,4.5361 1.19041,9.77801 3.03584,14.24007"
             style="fill:#e3e4e5;fill-opacity:1;fill-rule:evenodd;stroke:#000000;stroke-width:8.37844;stroke-linecap:butt;stroke-linejoin:miter;stroke-miterlimit:4;stroke-dasharray:none;stroke-opacity:1"
             id="path5733"
             sodipodi:nodetypes="ccscscc" />
          <path
             d="m 393.6259,57.12017 c -78.7143,84.84944 -131.56461,182.96158 -108.78125,298.03125 12.56957,63.48391 43.04182,122.27973 64.53125,183.4375 13.43648,38.36985 16.87223,78.45173 15.28125,118.78125 h 66.78125 c -3.19651,-40.62617 3.80671,-79.99824 15.28125,-118.78125 20.47419,-61.5383 51.62579,-119.90553 64.53125,-183.4375 C 535.37892,236.37223 478.74399,146.7919 402.8134,57.49517 l -4.64043,-5.918268 z"
             style="fill:#e3e4e5;fill-opacity:1;fill-rule:nonzero;stroke:#000000;stroke-width:8.37844;stroke-linecap:butt;stroke-linejoin:miter;stroke-miterlimit:4;stroke-dasharray:none;stroke-opacity:1"
             id="path5735"
             sodipodi:nodetypes="csccccsccc" />
          <path
             d="m 331.34465,704.40142 c -13.96166,39.13002 -70.88818,110.79207 -101.125,131.21875 -7.84217,5.29785 37.48637,-3.05157 57.78125,-7.5 26.61901,-5.83464 61.21745,-34.19759 60.40625,-24.1875 -0.0756,45.83826 12.81104,122.32424 46.40625,157.46875 l 3.18208,3.3876 3.28667,-3.3876 c 33.57769,-39.17095 46.23761,-108.04198 46.40625,-157.46875 -0.8112,-10.01009 33.78725,18.35286 60.40625,24.1875 20.29488,4.44843 65.62342,12.79785 57.78125,7.5 -30.23682,-20.42668 -87.13207,-92.08873 -101.09375,-131.21875 z"
             style="fill:#e3e4e5;fill-opacity:1;fill-rule:evenodd;stroke:#000000;stroke-width:8.37844;stroke-linecap:butt;stroke-linejoin:miter;stroke-miterlimit:4;stroke-dasharray:none;stroke-opacity:1"
             id="path5737"
             sodipodi:nodetypes="cssscccssscc" />
          <rect
             width="317.88773"
             height="51.503345"
             x="239.3521"
             y="655.37946"
             style="fill:#e3e4e5;fill-opacity:1;stroke:#000000;stroke-width:8.37844;stroke-miterlimit:4;stroke-dasharray:none;stroke-opacity:1"
             id="rect5739" />
        </g>
      </g>
    </g>
    <g
       transform="matrix(0.09613734,0,0,0.09787181,242.31032,299.0038)"
       id="g5741"
       style="display:inline;fill:#e3e4e5;fill-opacity:1;stroke:#000000;stroke-width:8.37844;stroke-miterlimit:4;stroke-dasharray:none;stroke-opacity:1">
      <path
         d="m 407.02914,608.69929 c 1.42457,-61.95601 16.75116,-119.53947 45.28957,-174.1086 74.71442,-157.1858 302.92034,-153.43174 252.61522,38.81131 -18.53686,70.83937 -81.50861,112.47386 -156.31886,119.61501 5.39959,-18.66537 35.10029,-84.65245 11.12447,-97.56156 -38.33816,1.4484 -85.94434,67.7051 -97.39282,99.30072 -1.6527,4.5361 -1.19041,9.77801 -3.03584,14.24007"
         style="display:inline;opacity:1;fill:#e3e4e5;fill-opacity:1;fill-rule:evenodd;stroke:#000000;stroke-width:8.37844;stroke-linecap:butt;stroke-linejoin:miter;stroke-miterlimit:4;stroke-dasharray:none;stroke-opacity:1"
         id="path5743"
         sodipodi:nodetypes="ccscscc" />
      <g
         transform="translate(-38.53215,-48.5769)"
         style="display:inline;opacity:1;fill:#e3e4e5;fill-opacity:1;stroke:#000000;stroke-width:8.37844;stroke-miterlimit:4;stroke-dasharray:none;stroke-opacity:1"
         id="g5745">
        <g
           transform="translate(0,4)"
           style="fill:#e3e4e5;fill-opacity:1;stroke:#000000;stroke-width:8.37844;stroke-miterlimit:4;stroke-dasharray:none;stroke-opacity:1"
           id="g5747">
          <path
             d="M 350.52292,657.37224 C 349.09835,595.41623 333.77176,537.83277 305.23335,483.26364 230.51893,326.07784 2.3130139,329.8319 52.618133,522.07495 71.154997,592.91432 134.12674,634.54881 208.93699,641.68996 203.5374,623.02459 173.8367,557.03751 197.81252,544.1284 c 38.33816,1.4484 85.94434,67.7051 97.39282,99.30072 1.6527,4.5361 1.19041,9.77801 3.03584,14.24007"
             style="fill:#e3e4e5;fill-opacity:1;fill-rule:evenodd;stroke:#000000;stroke-width:8.37844;stroke-linecap:butt;stroke-linejoin:miter;stroke-miterlimit:4;stroke-dasharray:none;stroke-opacity:1"
             id="path5749"
             sodipodi:nodetypes="ccscscc" />
          <path
             d="m 393.6259,57.12017 c -78.7143,84.84944 -131.56461,182.96158 -108.78125,298.03125 12.56957,63.48391 43.04182,122.27973 64.53125,183.4375 13.43648,38.36985 16.87223,78.45173 15.28125,118.78125 h 66.78125 c -3.19651,-40.62617 3.80671,-79.99824 15.28125,-118.78125 20.47419,-61.5383 51.62579,-119.90553 64.53125,-183.4375 C 535.37892,236.37223 478.74399,146.7919 402.8134,57.49517 l -4.64043,-5.918268 z"
             style="fill:#e3e4e5;fill-opacity:1;fill-rule:nonzero;stroke:#000000;stroke-width:8.37844;stroke-linecap:butt;stroke-linejoin:miter;stroke-miterlimit:4;stroke-dasharray:none;stroke-opacity:1"
             id="path5751"
             sodipodi:nodetypes="csccccsccc" />
          <path
             d="m 331.34465,704.40142 c -13.96166,39.13002 -70.88818,110.79207 -101.125,131.21875 -7.84217,5.29785 37.48637,-3.05157 57.78125,-7.5 26.61901,-5.83464 61.21745,-34.19759 60.40625,-24.1875 -0.0756,45.83826 12.81104,122.32424 46.40625,157.46875 l 3.18208,3.3876 3.28667,-3.3876 c 33.57769,-39.17095 46.23761,-108.04198 46.40625,-157.46875 -0.8112,-10.01009 33.78725,18.35286 60.40625,24.1875 20.29488,4.44843 65.62342,12.79785 57.78125,7.5 -30.23682,-20.42668 -87.13207,-92.08873 -101.09375,-131.21875 z"
             style="fill:#e3e4e5;fill-opacity:1;fill-rule:evenodd;stroke:#000000;stroke-width:8.37844;stroke-linecap:butt;stroke-linejoin:miter;stroke-miterlimit:4;stroke-dasharray:none;stroke-opacity:1"
             id="path5753"
             sodipodi:nodetypes="cssscccssscc" />
          <rect
             width="317.88773"
             height="51.503345"
             x="239.3521"
             y="655.37946"
             style="fill:#e3e4e5;fill-opacity:1;stroke:#000000;stroke-width:8.37844;stroke-miterlimit:4;stroke-dasharray:none;stroke-opacity:1"
             id="rect5755" />
        </g>
      </g>
    </g>
    <g
       transform="matrix(0.09613734,0,0,0.09787181,439.95486,299.0038)"
       id="g5757"
       style="display:inline;fill:#e3e4e5;fill-opacity:1;stroke:#000000;stroke-width:8.37844;stroke-miterlimit:4;stroke-dasharray:none;stroke-opacity:1">
      <path
         d="m 407.02914,608.69929 c 1.42457,-61.95601 16.75116,-119.53947 45.28957,-174.1086 74.71442,-157.1858 302.92034,-153.43174 252.61522,38.81131 -18.53686,70.83937 -81.50861,112.47386 -156.31886,119.61501 5.39959,-18.66537 35.10029,-84.65245 11.12447,-97.56156 -38.33816,1.4484 -85.94434,67.7051 -97.39282,99.30072 -1.6527,4.5361 -1.19041,9.77801 -3.03584,14.24007"
         style="display:inline;opacity:1;fill:#e3e4e5;fill-opacity:1;fill-rule:evenodd;stroke:#000000;stroke-width:8.37844;stroke-linecap:butt;stroke-linejoin:miter;stroke-miterlimit:4;stroke-dasharray:none;stroke-opacity:1"
         id="path5759"
         sodipodi:nodetypes="ccscscc" />
      <g
         transform="translate(-38.53215,-48.5769)"
         style="display:inline;opacity:1;fill:#e3e4e5;fill-opacity:1;stroke:#000000;stroke-width:8.37844;stroke-miterlimit:4;stroke-dasharray:none;stroke-opacity:1"
         id="g5761">
        <g
           transform="translate(0,4)"
           style="fill:#e3e4e5;fill-opacity:1;stroke:#000000;stroke-width:8.37844;stroke-miterlimit:4;stroke-dasharray:none;stroke-opacity:1"
           id="g5763">
          <path
             d="M 350.52292,657.37224 C 349.09835,595.41623 333.77176,537.83277 305.23335,483.26364 230.51893,326.07784 2.3130139,329.8319 52.618133,522.07495 71.154997,592.91432 134.12674,634.54881 208.93699,641.68996 203.5374,623.02459 173.8367,557.03751 197.81252,544.1284 c 38.33816,1.4484 85.94434,67.7051 97.39282,99.30072 1.6527,4.5361 1.19041,9.77801 3.03584,14.24007"
             style="fill:#e3e4e5;fill-opacity:1;fill-rule:evenodd;stroke:#000000;stroke-width:8.37844;stroke-linecap:butt;stroke-linejoin:miter;stroke-miterlimit:4;stroke-dasharray:none;stroke-opacity:1"
             id="path5765"
             sodipodi:nodetypes="ccscscc" />
          <path
             d="m 393.6259,57.12017 c -78.7143,84.84944 -131.56461,182.96158 -108.78125,298.03125 12.56957,63.48391 43.04182,122.27973 64.53125,183.4375 13.43648,38.36985 16.87223,78.45173 15.28125,118.78125 h 66.78125 c -3.19651,-40.62617 3.80671,-79.99824 15.28125,-118.78125 20.47419,-61.5383 51.62579,-119.90553 64.53125,-183.4375 C 535.37892,236.37223 478.74399,146.7919 402.8134,57.49517 l -4.64043,-5.918268 z"
             style="fill:#e3e4e5;fill-opacity:1;fill-rule:nonzero;stroke:#000000;stroke-width:8.37844;stroke-linecap:butt;stroke-linejoin:miter;stroke-miterlimit:4;stroke-dasharray:none;stroke-opacity:1"
             id="path5767"
             sodipodi:nodetypes="csccccsccc" />
          <path
             d="m 331.34465,704.40142 c -13.96166,39.13002 -70.88818,110.79207 -101.125,131.21875 -7.84217,5.29785 37.48637,-3.05157 57.78125,-7.5 26.61901,-5.83464 61.21745,-34.19759 60.40625,-24.1875 -0.0756,45.83826 12.81104,122.32424 46.40625,157.46875 l 3.18208,3.3876 3.28667,-3.3876 c 33.57769,-39.17095 46.23761,-108.04198 46.40625,-157.46875 -0.8112,-10.01009 33.78725,18.35286 60.40625,24.1875 20.29488,4.44843 65.62342,12.79785 57.78125,7.5 -30.23682,-20.42668 -87.13207,-92.08873 -101.09375,-131.21875 z"
             style="fill:#e3e4e5;fill-opacity:1;fill-rule:evenodd;stroke:#000000;stroke-width:8.37844;stroke-linecap:butt;stroke-linejoin:miter;stroke-miterlimit:4;stroke-dasharray:none;stroke-opacity:1"
             id="path5769"
             sodipodi:nodetypes="cssscccssscc" />
          <rect
             width="317.88773"
             height="51.503345"
             x="239.3521"
             y="655.37946"
             style="fill:#e3e4e5;fill-opacity:1;stroke:#000000;stroke-width:8.37844;stroke-miterlimit:4;stroke-dasharray:none;stroke-opacity:1"
             id="rect5771" />
        </g>
      </g>
    </g>
    <g
       transform="matrix(0.09613734,0,0,0.09787181,143.45834,414.09344)"
       id="g5773"
       style="display:inline;fill:#e3e4e5;fill-opacity:1;stroke:#000000;stroke-width:8.37844;stroke-miterlimit:4;stroke-dasharray:none;stroke-opacity:1">
      <path
         d="m 407.02914,608.69929 c 1.42457,-61.95601 16.75116,-119.53947 45.28957,-174.1086 74.71442,-157.1858 302.92034,-153.43174 252.61522,38.81131 -18.53686,70.83937 -81.50861,112.47386 -156.31886,119.61501 5.39959,-18.66537 35.10029,-84.65245 11.12447,-97.56156 -38.33816,1.4484 -85.94434,67.7051 -97.39282,99.30072 -1.6527,4.5361 -1.19041,9.77801 -3.03584,14.24007"
         style="display:inline;opacity:1;fill:#e3e4e5;fill-opacity:1;fill-rule:evenodd;stroke:#000000;stroke-width:8.37844;stroke-linecap:butt;stroke-linejoin:miter;stroke-miterlimit:4;stroke-dasharray:none;stroke-opacity:1"
         id="path5775"
         sodipodi:nodetypes="ccscscc" />
      <g
         transform="translate(-38.53215,-48.5769)"
         style="display:inline;opacity:1;fill:#e3e4e5;fill-opacity:1;stroke:#000000;stroke-width:8.37844;stroke-miterlimit:4;stroke-dasharray:none;stroke-opacity:1"
         id="g5777">
        <g
           transform="translate(0,4)"
           style="fill:#e3e4e5;fill-opacity:1;stroke:#000000;stroke-width:8.37844;stroke-miterlimit:4;stroke-dasharray:none;stroke-opacity:1"
           id="g5779">
          <path
             d="M 350.52292,657.37224 C 349.09835,595.41623 333.77176,537.83277 305.23335,483.26364 230.51893,326.07784 2.3130139,329.8319 52.618133,522.07495 71.154997,592.91432 134.12674,634.54881 208.93699,641.68996 203.5374,623.02459 173.8367,557.03751 197.81252,544.1284 c 38.33816,1.4484 85.94434,67.7051 97.39282,99.30072 1.6527,4.5361 1.19041,9.77801 3.03584,14.24007"
             style="fill:#e3e4e5;fill-opacity:1;fill-rule:evenodd;stroke:#000000;stroke-width:8.37844;stroke-linecap:butt;stroke-linejoin:miter;stroke-miterlimit:4;stroke-dasharray:none;stroke-opacity:1"
             id="path5781"
             sodipodi:nodetypes="ccscscc" />
          <path
             d="m 393.6259,57.12017 c -78.7143,84.84944 -131.56461,182.96158 -108.78125,298.03125 12.56957,63.48391 43.04182,122.27973 64.53125,183.4375 13.43648,38.36985 16.87223,78.45173 15.28125,118.78125 h 66.78125 c -3.19651,-40.62617 3.80671,-79.99824 15.28125,-118.78125 20.47419,-61.5383 51.62579,-119.90553 64.53125,-183.4375 C 535.37892,236.37223 478.74399,146.7919 402.8134,57.49517 l -4.64043,-5.918268 z"
             style="fill:#e3e4e5;fill-opacity:1;fill-rule:nonzero;stroke:#000000;stroke-width:8.37844;stroke-linecap:butt;stroke-linejoin:miter;stroke-miterlimit:4;stroke-dasharray:none;stroke-opacity:1"
             id="path5783"
             sodipodi:nodetypes="csccccsccc" />
          <path
             d="m 331.34465,704.40142 c -13.96166,39.13002 -70.88818,110.79207 -101.125,131.21875 -7.84217,5.29785 37.48637,-3.05157 57.78125,-7.5 26.61901,-5.83464 61.21745,-34.19759 60.40625,-24.1875 -0.0756,45.83826 12.81104,122.32424 46.40625,157.46875 l 3.18208,3.3876 3.28667,-3.3876 c 33.57769,-39.17095 46.23761,-108.04198 46.40625,-157.46875 -0.8112,-10.01009 33.78725,18.35286 60.40625,24.1875 20.29488,4.44843 65.62342,12.79785 57.78125,7.5 -30.23682,-20.42668 -87.13207,-92.08873 -101.09375,-131.21875 z"
             style="fill:#e3e4e5;fill-opacity:1;fill-rule:evenodd;stroke:#000000;stroke-width:8.37844;stroke-linecap:butt;stroke-linejoin:miter;stroke-miterlimit:4;stroke-dasharray:none;stroke-opacity:1"
             id="path5785"
             sodipodi:nodetypes="cssscccssscc" />
          <rect
             width="317.88773"
             height="51.503345"
             x="239.3521"
             y="655.37946"
             style="fill:#e3e4e5;fill-opacity:1;stroke:#000000;stroke-width:8.37844;stroke-miterlimit:4;stroke-dasharray:none;stroke-opacity:1"
             id="rect5787" />
        </g>
      </g>
    </g>
    <g
       transform="matrix(0.09613734,0,0,0.09787181,341.1623,414.09344)"
       id="g5789"
       style="display:inline;fill:#e3e4e5;fill-opacity:1;stroke:#000000;stroke-width:8.37844;stroke-miterlimit:4;stroke-dasharray:none;stroke-opacity:1">
      <path
         d="m 407.02914,608.69929 c 1.42457,-61.95601 16.75116,-119.53947 45.28957,-174.1086 74.71442,-157.1858 302.92034,-153.43174 252.61522,38.81131 -18.53686,70.83937 -81.50861,112.47386 -156.31886,119.61501 5.39959,-18.66537 35.10029,-84.65245 11.12447,-97.56156 -38.33816,1.4484 -85.94434,67.7051 -97.39282,99.30072 -1.6527,4.5361 -1.19041,9.77801 -3.03584,14.24007"
         style="display:inline;opacity:1;fill:#e3e4e5;fill-opacity:1;fill-rule:evenodd;stroke:#000000;stroke-width:8.37844;stroke-linecap:butt;stroke-linejoin:miter;stroke-miterlimit:4;stroke-dasharray:none;stroke-opacity:1"
         id="path5791"
         sodipodi:nodetypes="ccscscc" />
      <g
         transform="translate(-38.53215,-48.5769)"
         style="display:inline;opacity:1;fill:#e3e4e5;fill-opacity:1;stroke:#000000;stroke-width:8.37844;stroke-miterlimit:4;stroke-dasharray:none;stroke-opacity:1"
         id="g5793">
        <g
           transform="translate(0,4)"
           style="fill:#e3e4e5;fill-opacity:1;stroke:#000000;stroke-width:8.37844;stroke-miterlimit:4;stroke-dasharray:none;stroke-opacity:1"
           id="g5795">
          <path
             d="M 350.52292,657.37224 C 349.09835,595.41623 333.77176,537.83277 305.23335,483.26364 230.51893,326.07784 2.3130139,329.8319 52.618133,522.07495 71.154997,592.91432 134.12674,634.54881 208.93699,641.68996 203.5374,623.02459 173.8367,557.03751 197.81252,544.1284 c 38.33816,1.4484 85.94434,67.7051 97.39282,99.30072 1.6527,4.5361 1.19041,9.77801 3.03584,14.24007"
             style="fill:#e3e4e5;fill-opacity:1;fill-rule:evenodd;stroke:#000000;stroke-width:8.37844;stroke-linecap:butt;stroke-linejoin:miter;stroke-miterlimit:4;stroke-dasharray:none;stroke-opacity:1"
             id="path5797"
             sodipodi:nodetypes="ccscscc" />
          <path
             d="m 393.6259,57.12017 c -78.7143,84.84944 -131.56461,182.96158 -108.78125,298.03125 12.56957,63.48391 43.04182,122.27973 64.53125,183.4375 13.43648,38.36985 16.87223,78.45173 15.28125,118.78125 h 66.78125 c -3.19651,-40.62617 3.80671,-79.99824 15.28125,-118.78125 20.47419,-61.5383 51.62579,-119.90553 64.53125,-183.4375 C 535.37892,236.37223 478.74399,146.7919 402.8134,57.49517 l -4.64043,-5.918268 z"
             style="fill:#e3e4e5;fill-opacity:1;fill-rule:nonzero;stroke:#000000;stroke-width:8.37844;stroke-linecap:butt;stroke-linejoin:miter;stroke-miterlimit:4;stroke-dasharray:none;stroke-opacity:1"
             id="path5799"
             sodipodi:nodetypes="csccccsccc" />
          <path
             d="m 331.34465,704.40142 c -13.96166,39.13002 -70.88818,110.79207 -101.125,131.21875 -7.84217,5.29785 37.48637,-3.05157 57.78125,-7.5 26.61901,-5.83464 61.21745,-34.19759 60.40625,-24.1875 -0.0756,45.83826 12.81104,122.32424 46.40625,157.46875 l 3.18208,3.3876 3.28667,-3.3876 c 33.57769,-39.17095 46.23761,-108.04198 46.40625,-157.46875 -0.8112,-10.01009 33.78725,18.35286 60.40625,24.1875 20.29488,4.44843 65.62342,12.79785 57.78125,7.5 -30.23682,-20.42668 -87.13207,-92.08873 -101.09375,-131.21875 z"
             style="fill:#e3e4e5;fill-opacity:1;fill-rule:evenodd;stroke:#000000;stroke-width:8.37844;stroke-linecap:butt;stroke-linejoin:miter;stroke-miterlimit:4;stroke-dasharray:none;stroke-opacity:1"
             id="path5801"
             sodipodi:nodetypes="cssscccssscc" />
          <rect
             width="317.88773"
             height="51.503345"
             x="239.3521"
             y="655.37946"
             style="fill:#e3e4e5;fill-opacity:1;stroke:#000000;stroke-width:8.37844;stroke-miterlimit:4;stroke-dasharray:none;stroke-opacity:1"
             id="rect5803" />
        </g>
      </g>
    </g>
    <g
       transform="matrix(0.09613734,0,0,0.09787181,40.48753,527.12366)"
       id="g5805"
       style="display:inline;fill:#e3e4e5;fill-opacity:1;stroke:#000000;stroke-width:8.37844;stroke-miterlimit:4;stroke-dasharray:none;stroke-opacity:1">
      <path
         d="m 407.02914,608.69929 c 1.42457,-61.95601 16.75116,-119.53947 45.28957,-174.1086 74.71442,-157.1858 302.92034,-153.43174 252.61522,38.81131 -18.53686,70.83937 -81.50861,112.47386 -156.31886,119.61501 5.39959,-18.66537 35.10029,-84.65245 11.12447,-97.56156 -38.33816,1.4484 -85.94434,67.7051 -97.39282,99.30072 -1.6527,4.5361 -1.19041,9.77801 -3.03584,14.24007"
         style="display:inline;opacity:1;fill:#e3e4e5;fill-opacity:1;fill-rule:evenodd;stroke:#000000;stroke-width:8.37844;stroke-linecap:butt;stroke-linejoin:miter;stroke-miterlimit:4;stroke-dasharray:none;stroke-opacity:1"
         id="path5807"
         sodipodi:nodetypes="ccscscc" />
      <g
         transform="translate(-38.53215,-48.5769)"
         style="display:inline;opacity:1;fill:#e3e4e5;fill-opacity:1;stroke:#000000;stroke-width:8.37844;stroke-miterlimit:4;stroke-dasharray:none;stroke-opacity:1"
         id="g5809">
        <g
           transform="translate(0,4)"
           style="fill:#e3e4e5;fill-opacity:1;stroke:#000000;stroke-width:8.37844;stroke-miterlimit:4;stroke-dasharray:none;stroke-opacity:1"
           id="g5811">
          <path
             d="M 350.52292,657.37224 C 349.09835,595.41623 333.77176,537.83277 305.23335,483.26364 230.51893,326.07784 2.3130139,329.8319 52.618133,522.07495 71.154997,592.91432 134.12674,634.54881 208.93699,641.68996 203.5374,623.02459 173.8367,557.03751 197.81252,544.1284 c 38.33816,1.4484 85.94434,67.7051 97.39282,99.30072 1.6527,4.5361 1.19041,9.77801 3.03584,14.24007"
             style="fill:#e3e4e5;fill-opacity:1;fill-rule:evenodd;stroke:#000000;stroke-width:8.37844;stroke-linecap:butt;stroke-linejoin:miter;stroke-miterlimit:4;stroke-dasharray:none;stroke-opacity:1"
             id="path5813"
             sodipodi:nodetypes="ccscscc" />
          <path
             d="m 393.6259,57.12017 c -78.7143,84.84944 -131.56461,182.96158 -108.78125,298.03125 12.56957,63.48391 43.04182,122.27973 64.53125,183.4375 13.43648,38.36985 16.87223,78.45173 15.28125,118.78125 h 66.78125 c -3.19651,-40.62617 3.80671,-79.99824 15.28125,-118.78125 20.47419,-61.5383 51.62579,-119.90553 64.53125,-183.4375 C 535.37892,236.37223 478.74399,146.7919 402.8134,57.49517 l -4.64043,-5.918268 z"
             style="fill:#e3e4e5;fill-opacity:1;fill-rule:nonzero;stroke:#000000;stroke-width:8.37844;stroke-linecap:butt;stroke-linejoin:miter;stroke-miterlimit:4;stroke-dasharray:none;stroke-opacity:1"
             id="path5815"
             sodipodi:nodetypes="csccccsccc" />
          <path
             d="m 331.34465,704.40142 c -13.96166,39.13002 -70.88818,110.79207 -101.125,131.21875 -7.84217,5.29785 37.48637,-3.05157 57.78125,-7.5 26.61901,-5.83464 61.21745,-34.19759 60.40625,-24.1875 -0.0756,45.83826 12.81104,122.32424 46.40625,157.46875 l 3.18208,3.3876 3.28667,-3.3876 c 33.57769,-39.17095 46.23761,-108.04198 46.40625,-157.46875 -0.8112,-10.01009 33.78725,18.35286 60.40625,24.1875 20.29488,4.44843 65.62342,12.79785 57.78125,7.5 -30.23682,-20.42668 -87.13207,-92.08873 -101.09375,-131.21875 z"
             style="fill:#e3e4e5;fill-opacity:1;fill-rule:evenodd;stroke:#000000;stroke-width:8.37844;stroke-linecap:butt;stroke-linejoin:miter;stroke-miterlimit:4;stroke-dasharray:none;stroke-opacity:1"
             id="path5817"
             sodipodi:nodetypes="cssscccssscc" />
          <rect
             width="317.88773"
             height="51.503345"
             x="239.3521"
             y="655.37946"
             style="fill:#e3e4e5;fill-opacity:1;stroke:#000000;stroke-width:8.37844;stroke-miterlimit:4;stroke-dasharray:none;stroke-opacity:1"
             id="rect5819" />
        </g>
      </g>
    </g>
    <g
       transform="matrix(0.09613734,0,0,0.09787181,242.31033,531.12367)"
       id="g5821"
       style="display:inline;fill:#e3e4e5;fill-opacity:1;stroke:#000000;stroke-width:8.37844;stroke-miterlimit:4;stroke-dasharray:none;stroke-opacity:1">
      <path
         d="m 407.02914,608.69929 c 1.42457,-61.95601 16.75116,-119.53947 45.28957,-174.1086 74.71442,-157.1858 302.92034,-153.43174 252.61522,38.81131 -18.53686,70.83937 -81.50861,112.47386 -156.31886,119.61501 5.39959,-18.66537 35.10029,-84.65245 11.12447,-97.56156 -38.33816,1.4484 -85.94434,67.7051 -97.39282,99.30072 -1.6527,4.5361 -1.19041,9.77801 -3.03584,14.24007"
         style="display:inline;opacity:1;fill:#e3e4e5;fill-opacity:1;fill-rule:evenodd;stroke:#000000;stroke-width:8.37844;stroke-linecap:butt;stroke-linejoin:miter;stroke-miterlimit:4;stroke-dasharray:none;stroke-opacity:1"
         id="path5823"
         sodipodi:nodetypes="ccscscc" />
      <g
         transform="translate(-38.53215,-48.5769)"
         style="display:inline;opacity:1;fill:#e3e4e5;fill-opacity:1;stroke:#000000;stroke-width:8.37844;stroke-miterlimit:4;stroke-dasharray:none;stroke-opacity:1"
         id="g5825">
        <g
           transform="translate(0,4)"
           style="fill:#e3e4e5;fill-opacity:1;stroke:#000000;stroke-width:8.37844;stroke-miterlimit:4;stroke-dasharray:none;stroke-opacity:1"
           id="g5827">
          <path
             d="M 350.52292,657.37224 C 349.09835,595.41623 333.77176,537.83277 305.23335,483.26364 230.51893,326.07784 2.3130139,329.8319 52.618133,522.07495 71.154997,592.91432 134.12674,634.54881 208.93699,641.68996 203.5374,623.02459 173.8367,557.03751 197.81252,544.1284 c 38.33816,1.4484 85.94434,67.7051 97.39282,99.30072 1.6527,4.5361 1.19041,9.77801 3.03584,14.24007"
             style="fill:#e3e4e5;fill-opacity:1;fill-rule:evenodd;stroke:#000000;stroke-width:8.37844;stroke-linecap:butt;stroke-linejoin:miter;stroke-miterlimit:4;stroke-dasharray:none;stroke-opacity:1"
             id="path5829"
             sodipodi:nodetypes="ccscscc" />
          <path
             d="m 393.6259,57.12017 c -78.7143,84.84944 -131.56461,182.96158 -108.78125,298.03125 12.56957,63.48391 43.04182,122.27973 64.53125,183.4375 13.43648,38.36985 16.87223,78.45173 15.28125,118.78125 h 66.78125 c -3.19651,-40.62617 3.80671,-79.99824 15.28125,-118.78125 20.47419,-61.5383 51.62579,-119.90553 64.53125,-183.4375 C 535.37892,236.37223 478.74399,146.7919 402.8134,57.49517 l -4.64043,-5.918268 z"
             style="fill:#e3e4e5;fill-opacity:1;fill-rule:nonzero;stroke:#000000;stroke-width:8.37844;stroke-linecap:butt;stroke-linejoin:miter;stroke-miterlimit:4;stroke-dasharray:none;stroke-opacity:1"
             id="path5831"
             sodipodi:nodetypes="csccccsccc" />
          <path
             d="m 331.34465,704.40142 c -13.96166,39.13002 -70.88818,110.79207 -101.125,131.21875 -7.84217,5.29785 37.48637,-3.05157 57.78125,-7.5 26.61901,-5.83464 61.21745,-34.19759 60.40625,-24.1875 -0.0756,45.83826 12.81104,122.32424 46.40625,157.46875 l 3.18208,3.3876 3.28667,-3.3876 c 33.57769,-39.17095 46.23761,-108.04198 46.40625,-157.46875 -0.8112,-10.01009 33.78725,18.35286 60.40625,24.1875 20.29488,4.44843 65.62342,12.79785 57.78125,7.5 -30.23682,-20.42668 -87.13207,-92.08873 -101.09375,-131.21875 z"
             style="fill:#e3e4e5;fill-opacity:1;fill-rule:evenodd;stroke:#000000;stroke-width:8.37844;stroke-linecap:butt;stroke-linejoin:miter;stroke-miterlimit:4;stroke-dasharray:none;stroke-opacity:1"
             id="path5833"
             sodipodi:nodetypes="cssscccssscc" />
          <rect
             width="317.88773"
             height="51.503345"
             x="239.3521"
             y="655.37946"
             style="fill:#e3e4e5;fill-opacity:1;stroke:#000000;stroke-width:8.37844;stroke-miterlimit:4;stroke-dasharray:none;stroke-opacity:1"
             id="rect5835" />
        </g>
      </g>
    </g>
    <g
       transform="matrix(0.09613734,0,0,0.09787181,439.95487,527.12367)"
       id="g5837"
       style="display:inline;fill:#e3e4e5;fill-opacity:1;stroke:#000000;stroke-width:8.37844;stroke-miterlimit:4;stroke-dasharray:none;stroke-opacity:1">
      <path
         d="m 407.02914,608.69929 c 1.42457,-61.95601 16.75116,-119.53947 45.28957,-174.1086 74.71442,-157.1858 302.92034,-153.43174 252.61522,38.81131 -18.53686,70.83937 -81.50861,112.47386 -156.31886,119.61501 5.39959,-18.66537 35.10029,-84.65245 11.12447,-97.56156 -38.33816,1.4484 -85.94434,67.7051 -97.39282,99.30072 -1.6527,4.5361 -1.19041,9.77801 -3.03584,14.24007"
         style="display:inline;opacity:1;fill:#e3e4e5;fill-opacity:1;fill-rule:evenodd;stroke:#000000;stroke-width:8.37844;stroke-linecap:butt;stroke-linejoin:miter;stroke-miterlimit:4;stroke-dasharray:none;stroke-opacity:1"
         id="path5839"
         sodipodi:nodetypes="ccscscc" />
      <g
         transform="translate(-38.53215,-48.5769)"
         style="display:inline;opacity:1;fill:#e3e4e5;fill-opacity:1;stroke:#000000;stroke-width:8.37844;stroke-miterlimit:4;stroke-dasharray:none;stroke-opacity:1"
         id="g5841">
        <g
           transform="translate(0,4)"
           style="fill:#e3e4e5;fill-opacity:1;stroke:#000000;stroke-width:8.37844;stroke-miterlimit:4;stroke-dasharray:none;stroke-opacity:1"
           id="g5843">
          <path
             d="M 350.52292,657.37224 C 349.09835,595.41623 333.77176,537.83277 305.23335,483.26364 230.51893,326.07784 2.3130139,329.8319 52.618133,522.07495 71.154997,592.91432 134.12674,634.54881 208.93699,641.68996 203.5374,623.02459 173.8367,557.03751 197.81252,544.1284 c 38.33816,1.4484 85.94434,67.7051 97.39282,99.30072 1.6527,4.5361 1.19041,9.77801 3.03584,14.24007"
             style="fill:#e3e4e5;fill-opacity:1;fill-rule:evenodd;stroke:#000000;stroke-width:8.37844;stroke-linecap:butt;stroke-linejoin:miter;stroke-miterlimit:4;stroke-dasharray:none;stroke-opacity:1"
             id="path5845"
             sodipodi:nodetypes="ccscscc" />
          <path
             d="m 393.6259,57.12017 c -78.7143,84.84944 -131.56461,182.96158 -108.78125,298.03125 12.56957,63.48391 43.04182,122.27973 64.53125,183.4375 13.43648,38.36985 16.87223,78.45173 15.28125,118.78125 h 66.78125 c -3.19651,-40.62617 3.80671,-79.99824 15.28125,-118.78125 20.47419,-61.5383 51.62579,-119.90553 64.53125,-183.4375 C 535.37892,236.37223 478.74399,146.7919 402.8134,57.49517 l -4.64043,-5.918268 z"
             style="fill:#e3e4e5;fill-opacity:1;fill-rule:nonzero;stroke:#000000;stroke-width:8.37844;stroke-linecap:butt;stroke-linejoin:miter;stroke-miterlimit:4;stroke-dasharray:none;stroke-opacity:1"
             id="path5847"
             sodipodi:nodetypes="csccccsccc" />
          <path
             d="m 331.34465,704.40142 c -13.96166,39.13002 -70.88818,110.79207 -101.125,131.21875 -7.84217,5.29785 37.48637,-3.05157 57.78125,-7.5 26.61901,-5.83464 61.21745,-34.19759 60.40625,-24.1875 -0.0756,45.83826 12.81104,122.32424 46.40625,157.46875 l 3.18208,3.3876 3.28667,-3.3876 c 33.57769,-39.17095 46.23761,-108.04198 46.40625,-157.46875 -0.8112,-10.01009 33.78725,18.35286 60.40625,24.1875 20.29488,4.44843 65.62342,12.79785 57.78125,7.5 -30.23682,-20.42668 -87.13207,-92.08873 -101.09375,-131.21875 z"
             style="fill:#e3e4e5;fill-opacity:1;fill-rule:evenodd;stroke:#000000;stroke-width:8.37844;stroke-linecap:butt;stroke-linejoin:miter;stroke-miterlimit:4;stroke-dasharray:none;stroke-opacity:1"
             id="path5849"
             sodipodi:nodetypes="cssscccssscc" />
          <rect
             width="317.88773"
             height="51.503345"
             x="239.3521"
             y="655.37946"
             style="fill:#e3e4e5;fill-opacity:1;stroke:#000000;stroke-width:8.37844;stroke-miterlimit:4;stroke-dasharray:none;stroke-opacity:1"
             id="rect5851" />
        </g>
      </g>
    </g>
    <path
       style="display:inline;fill:none;fill-opacity:1;fill-rule:evenodd;stroke:#000000;stroke-width:3;stroke-linecap:butt;stroke-linejoin:miter;stroke-miterlimit:4;stroke-dasharray:none;stroke-opacity:1"
       id="path35249"
       sodipodi:nodetypes="cccccccccc"
       d="m 25.961771,52.09075 c 0,0 0.72295,513.90936 0.53924,520.90483 -0.76055,29.40605 2.62298,58.59435 126.054689,70.65832 45.16727,3.55405 100.13356,24.77277 123.13647,58.05984 0.0967,0.12984 0.19032,0.25133 0.28548,0.37701 l 0.25376,-0.37701 c 23.00291,-33.28707 77.96919,-54.50579 123.13646,-58.05984 123.43169,-12.06397 126.81522,-41.25227 126.05467,-70.65832 -0.18368,-6.99549 0.53924,-520.90483 0.53924,-520.90483 z" />
  </g>
</svg>
