<?xml version="1.0" encoding="UTF-8" standalone="no"?>
<!-- Created with Inkscape (http://www.inkscape.org/) -->

<svg
   width="653"
   height="653"
   id="svg3194"
   sodipodi:version="0.32"
   inkscape:version="1.3.2 (091e20ef0f, 2023-11-25)"
   version="1.0"
   sodipodi:docname="armarria_Sopela.svg"
   inkscape:output_extension="org.inkscape.output.svg.inkscape"
   xmlns:inkscape="http://www.inkscape.org/namespaces/inkscape"
   xmlns:sodipodi="http://sodipodi.sourceforge.net/DTD/sodipodi-0.dtd"
   xmlns:xlink="http://www.w3.org/1999/xlink"
   xmlns="http://www.w3.org/2000/svg"
   xmlns:svg="http://www.w3.org/2000/svg"
   xmlns:rdf="http://www.w3.org/1999/02/22-rdf-syntax-ns#"
   xmlns:cc="http://creativecommons.org/ns#"
   xmlns:dc="http://purl.org/dc/elements/1.1/">
  <defs
     id="defs3196">
    <inkscape:perspective
       sodipodi:type="inkscape:persp3d"
       inkscape:vp_x="0 : 326.5 : 1"
       inkscape:vp_y="0 : 1000 : 0"
       inkscape:vp_z="503 : 326.5 : 1"
       inkscape:persp3d-origin="251.5 : 217.66667 : 1"
       id="perspective148" />
    <linearGradient
       id="linearGradient8135">
      <stop
         style="stop-color:#5d070b;stop-opacity:1;"
         offset="0"
         id="stop8137" />
      <stop
         id="stop8139"
         offset="0.5"
         style="stop-color:#ed1c24;stop-opacity:1;" />
      <stop
         style="stop-color:#5d070a;stop-opacity:1;"
         offset="1"
         id="stop8141" />
    </linearGradient>
    <linearGradient
       inkscape:collect="always"
       xlink:href="#linearGradient8135"
       id="linearGradient11920"
       gradientUnits="userSpaceOnUse"
       gradientTransform="matrix(1.1773172,0,0,1.1773172,657.8819,-545.55183)"
       x1="-418.38882"
       y1="700.10571"
       x2="-136.18279"
       y2="700.10571" />
    <linearGradient
       y2="700.10571"
       x2="-136.18279"
       y1="700.10571"
       x1="-418.38882"
       gradientTransform="matrix(1.1773172,0,0,1.1773172,657.8819,-545.55183)"
       gradientUnits="userSpaceOnUse"
       id="linearGradient5484"
       xlink:href="#linearGradient8135"
       inkscape:collect="always" />
    <linearGradient
       id="linearGradient5476">
      <stop
         id="stop5478"
         offset="0"
         style="stop-color:#5d070b;stop-opacity:1;" />
      <stop
         style="stop-color:#ed1c24;stop-opacity:1;"
         offset="0.5"
         id="stop5480" />
      <stop
         id="stop5482"
         offset="1"
         style="stop-color:#5d070a;stop-opacity:1;" />
    </linearGradient>
    <clipPath
       id="id8">
      <path
         id="path12958"
         d="m 4900000,12100000 c -101120,-216290 -351940,-577050 -625300,-577050 -941580,0 -1883160,0 -2824750,0 -742420,0 -1349950,-604920 -1349950,-1344330 V 100020 h 4800000 4800000 v 10078600 c 0,739410 -607530,1344330 -1349950,1344330 -941590,0 -1883170,0 -2824750,0 -273360,0 -524180,360760 -625300,577050 z" />
    </clipPath>
    <clipPath
       id="id3">
      <path
         id="path12943"
         d="m 3178550,6435350 c 573250,0 1147180,-10 1720770,-10 573580,0 1147850,10 1722130,10 l 18810,117380 c 51780,29200 90690,297330 57010,355710 l 8130,50730 c 50190,33960 87460,289970 56450,352150 l 8380,52310 c 51360,30500 89850,295450 56880,354870 l 8250,51470 c 49980,34470 87060,289020 56410,351690 l 8470,52900 c 50900,31870 88910,293300 56720,353840 l 8160,50900 670,4170 c 22750,10520 38660,33620 38660,60220 v 181040 l 17690,110340 7850,48990 c 52720,26240 92610,301600 57310,357560 l 7550,47140 c 53890,22260 95070,307000 57680,359710 l 61540,383760 c -771960,0 -1543960,0 -2314990,0 -771040,0 -1542560,0 -2313150,0 l 62490,-389580 c -30390,-63030 6520,-316250 56320,-351260 l 7650,-47700 c -38170,-51440 3450,-339680 57780,-360440 l 7360,-45940 c -36590,-53950 4090,-335230 57540,-359000 l 7630,-47540 c -35020,-56380 4700,-330540 57260,-357260 l 7900,-49280 c -33470,-58690 5340,-326030 57010,-355490 l 7690,-47980 c -35800,-55190 4390,-332850 57390,-358140 l 45050,-281090 v -59100 c 0,-16630 6220,-31900 16450,-43580 l 10930,-68180 c -36520,-54060 4110,-334960 57520,-358910 z" />
    </clipPath>
    <linearGradient
       y2="343.1196"
       x2="416.20303"
       y1="343.1196"
       x1="133.79698"
       gradientTransform="matrix(1.1401119,0,0,1.1401119,-479.50036,1178.7304)"
       gradientUnits="userSpaceOnUse"
       id="linearGradient9130"
       xlink:href="#linearGradient8929"
       inkscape:collect="always" />
    <linearGradient
       y2="343.1196"
       x2="416.20303"
       y1="343.1196"
       x1="133.79698"
       gradientTransform="matrix(1.1401119,0,0,1.1401119,-479.50036,1178.7304)"
       gradientUnits="userSpaceOnUse"
       id="linearGradient9094"
       xlink:href="#linearGradient8929"
       inkscape:collect="always" />
    <linearGradient
       id="linearGradient8215">
      <stop
         id="stop8217"
         offset="0"
         style="stop-color:#5d070b;stop-opacity:1;" />
      <stop
         style="stop-color:#ed1c24;stop-opacity:1;"
         offset="0.5"
         id="stop8219" />
      <stop
         id="stop8221"
         offset="1"
         style="stop-color:#5d070a;stop-opacity:1;" />
    </linearGradient>
    <linearGradient
       gradientTransform="matrix(1.1401119,0,0,1.1401119,-508.53099,1753.7756)"
       y2="343.1196"
       x2="416.20303"
       y1="343.1196"
       x1="133.79698"
       gradientUnits="userSpaceOnUse"
       id="linearGradient7861"
       xlink:href="#linearGradient8929"
       inkscape:collect="always" />
    <linearGradient
       id="linearGradient8929">
      <stop
         style="stop-color:#776201;stop-opacity:1;"
         offset="0"
         id="stop8931" />
      <stop
         id="stop8933"
         offset="0.5"
         style="stop-color:#eac102;stop-opacity:1;" />
      <stop
         style="stop-color:#776201;stop-opacity:1;"
         offset="1"
         id="stop8935" />
    </linearGradient>
    <linearGradient
       inkscape:collect="always"
       xlink:href="#linearGradient8929"
       id="linearGradient8287"
       gradientUnits="userSpaceOnUse"
       gradientTransform="matrix(1.1401119,0,0,1.1401119,-479.50036,1178.7304)"
       x1="133.79698"
       y1="343.1196"
       x2="416.20303"
       y2="343.1196" />
    <linearGradient
       inkscape:collect="always"
       xlink:href="#linearGradient8929"
       id="linearGradient8315"
       gradientUnits="userSpaceOnUse"
       gradientTransform="matrix(1.1401119,0,0,1.1401119,614.12874,703.27798)"
       x1="133.79698"
       y1="343.1196"
       x2="416.20303"
       y2="343.1196" />
    <linearGradient
       inkscape:collect="always"
       xlink:href="#linearGradient8929"
       id="linearGradient8351"
       gradientUnits="userSpaceOnUse"
       gradientTransform="matrix(1.1401119,0,0,1.1401119,614.12874,703.27798)"
       x1="133.79698"
       y1="343.1196"
       x2="416.20303"
       y2="343.1196" />
    <linearGradient
       inkscape:collect="always"
       xlink:href="#linearGradient8929"
       id="linearGradient8379"
       gradientUnits="userSpaceOnUse"
       gradientTransform="matrix(1.1401119,0,0,1.1401119,614.12874,703.27798)"
       x1="133.79698"
       y1="343.1196"
       x2="416.20303"
       y2="343.1196" />
    <linearGradient
       inkscape:collect="always"
       xlink:href="#linearGradient8929"
       id="linearGradient9103"
       gradientUnits="userSpaceOnUse"
       gradientTransform="matrix(1.1401119,0,0,1.1401119,614.12874,703.27798)"
       x1="133.79698"
       y1="343.1196"
       x2="416.20303"
       y2="343.1196" />
    <linearGradient
       id="linearGradient5424">
      <stop
         id="stop5426"
         offset="0"
         style="stop-color:#5d070b;stop-opacity:1;" />
      <stop
         style="stop-color:#ed1c24;stop-opacity:1;"
         offset="0.5"
         id="stop5428" />
      <stop
         id="stop5430"
         offset="1"
         style="stop-color:#5d070a;stop-opacity:1;" />
    </linearGradient>
    <clipPath
       id="id0">
      <path
         id="path19584"
         d="m 14186300,5152250 c 0,0 192520,531420 469520,807850 276950,276430 478730,433880 662120,497520 183380,63600 243430,71380 468350,106740 224910,35370 538010,235520 538010,235520 0,0 -93220,-443930 -285140,-653670 -191920,-209780 -342300,-390000 -783210,-603570 -440870,-213570 -539180,-210470 -748800,-250180 -209620,-39660 -320850,-140210 -320850,-140210 z" />
    </clipPath>
    <clipPath
       id="id1">
      <path
         id="path19587"
         d="m 14186300,5152250 c 0,0 192520,531420 469520,807850 276950,276430 478730,433880 662120,497520 183380,63600 243430,71380 468350,106740 224910,35370 538010,235520 538010,235520 0,0 -93220,-443930 -285140,-653670 -191920,-209780 -342300,-390000 -783210,-603570 -440870,-213570 -539180,-210470 -748800,-250180 -209620,-39660 -320850,-140210 -320850,-140210 z" />
    </clipPath>
    <clipPath
       id="id2">
      <path
         id="path19590"
         d="m 17905000,7712850 c 168520,651560 60740,1647200 -524010,2079400 -361860,267500 -703730,314770 -1004210,391560 -300430,76830 -496090,173470 -496090,173470 0,0 -54450,-75370 -20210,-332640 34250,-257270 476240,-795050 889620,-1200870 413430,-405860 836590,-748460 955830,-881240 119200,-132780 199070,-229680 199070,-229680 z" />
    </clipPath>
    <clipPath
       id="clipPath5415">
      <path
         id="path19593"
         d="m 17905000,7712850 c 168520,651560 60740,1647200 -524010,2079400 -361860,267500 -703730,314770 -1004210,391560 -300430,76830 -496090,173470 -496090,173470 0,0 -54450,-75370 -20210,-332640 34250,-257270 476240,-795050 889620,-1200870 413430,-405860 836590,-748460 955830,-881240 119200,-132780 199070,-229680 199070,-229680 z" />
    </clipPath>
    <clipPath
       id="id4">
      <path
         id="path19596"
         d="m 13581500,896020 c 0,0 -73750,109400 -60270,321510 13530,212190 -380,450120 -126300,653580 -125920,203430 -215530,317730 -431820,471310 -216340,153580 -349200,298600 -349200,298600 0,0 14650,-73730 -13140,-307410 -27780,-233680 38260,-565710 187390,-810950 149100,-245230 300480,-352700 451900,-460220 151460,-107550 341440,-166420 341440,-166420 z" />
    </clipPath>
    <clipPath
       id="id5">
      <path
         id="path19599"
         d="m 13581500,896020 c 0,0 -73750,109400 -60270,321510 13530,212190 -380,450120 -126300,653580 -125920,203430 -215530,317730 -431820,471310 -216340,153580 -349200,298600 -349200,298600 0,0 14650,-73730 -13140,-307410 -27780,-233680 38260,-565710 187390,-810950 149100,-245230 300480,-352700 451900,-460220 151460,-107550 341440,-166420 341440,-166420 z" />
    </clipPath>
    <clipPath
       id="id6">
      <path
         id="path19602"
         d="m 12245000,694180 c 0,0 18490,95830 136440,200200 118030,104420 235080,236690 275310,409000 40190,172360 52860,279010 19560,472210 -33340,193150 -27310,338440 -27310,338440 0,0 -30850,-46410 -167580,-154700 -136770,-108280 -275660,-316990 -325500,-523380 -49890,-206310 -26580,-341540 -3230,-476770 23350,-135230 92310,-265000 92310,-265000 z" />
    </clipPath>
    <clipPath
       id="id7">
      <path
         id="path19605"
         d="m 12245000,694180 c 0,0 18490,95830 136440,200200 118030,104420 235080,236690 275310,409000 40190,172360 52860,279010 19560,472210 -33340,193150 -27310,338440 -27310,338440 0,0 -30850,-46410 -167580,-154700 -136770,-108280 -275660,-316990 -325500,-523380 -49890,-206310 -26580,-341540 -3230,-476770 23350,-135230 92310,-265000 92310,-265000 z" />
    </clipPath>
    <clipPath
       id="clipPath5404">
      <path
         id="path19608"
         d="m 13855800,1063560 c 0,0 288930,172830 540040,456700 251060,283820 613480,605590 506340,1079640 -107220,474100 -248560,480420 -287420,739830 -38850,259420 12070,430490 12070,430490 0,0 -243830,-246700 -420750,-500320 -176890,-253610 -391120,-485220 -350920,-952360 40190,-467180 70780,-600480 64830,-830540 -5940,-230070 -64190,-423440 -64190,-423440 z" />
    </clipPath>
    <clipPath
       id="id9">
      <path
         id="path19611"
         d="m 13855800,1063560 c 0,0 288930,172830 540040,456700 251060,283820 613480,605590 506340,1079640 -107220,474100 -248560,480420 -287420,739830 -38850,259420 12070,430490 12070,430490 0,0 -243830,-246700 -420750,-500320 -176890,-253610 -391120,-485220 -350920,-952360 40190,-467180 70780,-600480 64830,-830540 -5940,-230070 -64190,-423440 -64190,-423440 z" />
    </clipPath>
    <clipPath
       id="id10">
      <path
         id="path19614"
         d="m 12394500,3395680 c 0,0 417350,548740 639930,626900 222550,78210 494030,165230 757410,83370 263340,-81860 483000,-123110 666350,-130630 183250,-7440 475150,101360 475150,101360 0,0 -310160,-511520 -653460,-641470 -835120,-316090 -1143820,116800 -1885380,-39530 z" />
    </clipPath>
    <clipPath
       id="id11">
      <path
         id="path19617"
         d="m 12394500,3395680 c 0,0 417350,548740 639930,626900 222550,78210 494030,165230 757410,83370 263340,-81860 483000,-123110 666350,-130630 183250,-7440 475150,101360 475150,101360 0,0 -310160,-511520 -653460,-641470 -835120,-316090 -1143820,116800 -1885380,-39530 z" />
    </clipPath>
    <clipPath
       id="id12">
      <path
         id="path19620"
         d="m 15415100,2266750 c 0,0 -342600,800500 -374350,1331370 -31750,530820 81030,1008310 343420,1421350 262350,413120 606460,504610 680210,777900 73710,273250 120450,547450 120450,547450 0,0 251370,-775930 265280,-1354870 13960,-578910 25590,-892810 -165030,-1432610 -190580,-539800 -375000,-717570 -543350,-901230 -168400,-183750 -326630,-389360 -326630,-389360 z" />
    </clipPath>
    <clipPath
       id="id13">
      <path
         id="path19623"
         d="m 15415100,2266750 c 0,0 -342600,800500 -374350,1331370 -31750,530820 81030,1008310 343420,1421350 262350,413120 606460,504610 680210,777900 73710,273250 120450,547450 120450,547450 0,0 251370,-775930 265280,-1354870 13960,-578910 25590,-892810 -165030,-1432610 -190580,-539800 -375000,-717570 -543350,-901230 -168400,-183750 -326630,-389360 -326630,-389360 z" />
    </clipPath>
    <clipPath
       id="id14">
      <path
         id="path19626"
         d="m 14778300,5948840 c 0,0 -34250,633780 84740,1029460 119020,395680 156970,625100 395850,838580 238780,213480 333680,278020 581690,423740 248000,145670 335880,71280 471320,218980 135440,147730 96500,116620 96500,116620 0,0 47860,-416300 -139450,-881640 -187300,-465290 -250720,-698190 -727900,-1064650 -477180,-366450 -762750,-681090 -762750,-681090 z" />
    </clipPath>
    <clipPath
       id="id15">
      <path
         id="path19629"
         d="m 14778300,5948840 c 0,0 -34250,633780 84740,1029460 119020,395680 156970,625100 395850,838580 238780,213480 333680,278020 581690,423740 248000,145670 335880,71280 471320,218980 135440,147730 96500,116620 96500,116620 0,0 47860,-416300 -139450,-881640 -187300,-465290 -250720,-698190 -727900,-1064650 -477180,-366450 -762750,-681090 -762750,-681090 z" />
    </clipPath>
    <clipPath
       id="id16">
      <path
         id="path19632"
         d="m 14817100,7359190 c 0,0 -174940,385370 -194540,749590 -19650,364180 -5040,572500 175760,864790 180840,292330 279880,421120 505910,662700 226000,241540 329820,410930 329820,410930 0,0 288360,-134800 265660,-604690 -22660,-469930 -127300,-694580 -390550,-1119090 -263170,-424420 -476880,-536920 -575880,-665750 -99030,-128780 -116180,-298480 -116180,-298480 z" />
    </clipPath>
    <clipPath
       id="id17">
      <path
         id="path19635"
         d="m 14817100,7359190 c 0,0 -174940,385370 -194540,749590 -19650,364180 -5040,572500 175760,864790 180840,292330 279880,421120 505910,662700 226000,241540 329820,410930 329820,410930 0,0 288360,-134800 265660,-604690 -22660,-469930 -127300,-694580 -390550,-1119090 -263170,-424420 -476880,-536920 -575880,-665750 -99030,-128780 -116180,-298480 -116180,-298480 z" />
    </clipPath>
    <clipPath
       id="id18">
      <path
         id="path19638"
         d="m 16890700,8377910 c 160430,564380 234350,1467590 -95370,1986500 -178350,280730 -553650,675810 -553650,675810 l -283070,195040 -954800,184690 c 0,0 602240,-1346190 960060,-1836230 282680,-387090 591770,-860280 926830,-1205810 z" />
    </clipPath>
    <clipPath
       id="id19">
      <path
         id="path19641"
         d="m 16890700,8377910 c 160430,564380 234350,1467590 -95370,1986500 -178350,280730 -553650,675810 -553650,675810 l -283070,195040 -954800,184690 c 0,0 602240,-1346190 960060,-1836230 282680,-387090 591770,-860280 926830,-1205810 z" />
    </clipPath>
    <clipPath
       id="id20">
      <path
         id="path19644"
         d="m 14636800,8617900 c 0,0 -251150,401650 -273550,760590 -22360,358980 -4570,637600 81120,893660 194540,581490 399080,861830 476060,1534070 l 553350,-964190 c 103340,-401220 -109640,-1177360 -326150,-1548880 -216430,-371530 -510830,-675250 -510830,-675250 z" />
    </clipPath>
    <clipPath
       id="id21">
      <path
         id="path19647"
         d="m 14636800,8617900 c 0,0 -251150,401650 -273550,760590 -22360,358980 -4570,637600 81120,893660 194540,581490 399080,861830 476060,1534070 l 553350,-964190 c 103340,-401220 -109640,-1177360 -326150,-1548880 -216430,-371530 -510830,-675250 -510830,-675250 z" />
    </clipPath>
    <clipPath
       id="id22">
      <path
         id="path19650"
         d="m 13618500,13165000 c 0,0 187310,-399500 54190,-673220 -133110,-273730 -330930,-428300 -323220,-1023960 7710,-597170 97880,-1003460 413860,-1568140 79570,447890 485670,767380 590440,1234080 73140,325720 940,714310 -50710,969430 -51610,255080 -105580,543750 -105580,543750 l -177360,279960 -258860,234840 z" />
    </clipPath>
    <clipPath
       id="id23">
      <path
         id="path19653"
         d="m 13618500,13165000 c 0,0 187310,-399500 54190,-673220 -133110,-273730 -330930,-428300 -323220,-1023960 7710,-597170 97880,-1003460 413860,-1568140 79570,447890 485670,767380 590440,1234080 73140,325720 940,714310 -50710,969430 -51610,255080 -105580,543750 -105580,543750 l -177360,279960 -258860,234840 z" />
    </clipPath>
    <clipPath
       id="id24">
      <path
         id="path19656"
         d="m 16911800,4552070 c 433590,643710 547530,1439870 87670,2095870 -258350,368390 -571400,526870 -634380,622650 -63020,95740 -112310,142490 -112310,142490 0,0 -183510,-492280 -133280,-841630 50190,-349400 179940,-715170 347340,-1114240 167450,-399030 266190,-553120 320940,-688520 54790,-135450 124020,-216620 124020,-216620 z" />
    </clipPath>
    <clipPath
       id="id25">
      <path
         id="path19659"
         d="m 16911800,4552070 c 433590,643710 547530,1439870 87670,2095870 -258350,368390 -571400,526870 -634380,622650 -63020,95740 -112310,142490 -112310,142490 0,0 -183510,-492280 -133280,-841630 50190,-349400 179940,-715170 347340,-1114240 167450,-399030 266190,-553120 320940,-688520 54790,-135450 124020,-216620 124020,-216620 z" />
    </clipPath>
    <clipPath
       id="id26">
      <path
         id="path19662"
         d="m 17887700,5978240 c 0,0 1290,925810 -266960,1361400 -268250,435560 -637350,685300 -906810,897320 -269370,212020 -469810,375180 -469810,375180 0,0 -25850,-529310 118290,-1001440 144190,-472120 347860,-666860 624340,-870200 276480,-203300 480980,-405990 602200,-497390 121180,-91360 298750,-264870 298750,-264870 z" />
    </clipPath>
    <clipPath
       id="id27">
      <path
         id="path19665"
         d="m 17887700,5978240 c 0,0 1290,925810 -266960,1361400 -268250,435560 -637350,685300 -906810,897320 -269370,212020 -469810,375180 -469810,375180 0,0 -25850,-529310 118290,-1001440 144190,-472120 347860,-666860 624340,-870200 276480,-203300 480980,-405990 602200,-497390 121180,-91360 298750,-264870 298750,-264870 z" />
    </clipPath>
    <clipPath
       id="id28">
      <path
         id="path19668"
         d="m 16131400,10733900 c 361900,-208970 1045730,77950 1449170,2190 129790,-24410 317830,-56330 317830,-56330 0,0 -90380,380890 -465810,673650 -375430,292810 -755080,497480 -1190520,502810 -435400,5320 -576180,-109150 -817290,-144000 -241110,-34890 -583500,223880 -583500,223880 35320,-125180 216210,-553640 314520,-638980 283410,-246050 650400,-375480 975600,-563220 z" />
    </clipPath>
    <clipPath
       id="id29">
      <path
         id="path19671"
         d="m 16131400,10733900 c 361900,-208970 1045730,77950 1449170,2190 129790,-24410 317830,-56330 317830,-56330 0,0 -90380,380890 -465810,673650 -375430,292810 -755080,497480 -1190520,502810 -435400,5320 -576180,-109150 -817290,-144000 -241110,-34890 -583500,223880 -583500,223880 35320,-125180 216210,-553640 314520,-638980 283410,-246050 650400,-375480 975600,-563220 z" />
    </clipPath>
    <clipPath
       id="id30">
      <path
         id="path19674"
         d="m 10942800,1832570 c 0,0 127000,36610 325380,-40910 198330,-77690 429710,-137120 662420,-79710 232620,57540 369140,107730 581820,266250 212720,158560 391710,240460 391710,240460 0,0 -74910,8600 -289490,106360 -214570,97840 -551710,136470 -831330,69740 -279620,-66740 -428460,-177770 -577340,-288680 -148970,-110950 -263170,-273510 -263170,-273510 z" />
    </clipPath>
    <clipPath
       id="id31">
      <path
         id="path19677"
         d="m 10942800,1832570 c 0,0 127000,36610 325380,-40910 198330,-77690 429710,-137120 662420,-79710 232620,57540 369140,107730 581820,266250 212720,158560 391710,240460 391710,240460 0,0 -74910,8600 -289490,106360 -214570,97840 -551710,136470 -831330,69740 -279620,-66740 -428460,-177770 -577340,-288680 -148970,-110950 -263170,-273510 -263170,-273510 z" />
    </clipPath>
    <clipPath
       id="id32">
      <path
         id="path19680"
         d="m 11216900,2958840 c 0,0 127080,-36270 253820,-207250 126650,-170900 290870,-343900 518620,-418540 227850,-74720 370180,-104630 634720,-83100 264680,21650 460000,-3910 460000,-3910 0,0 -58930,47010 -188600,243550 -129710,196640 -394600,408100 -666990,499760 -272510,91830 -457710,76700 -643030,61620 -185160,-15040 -368540,-92130 -368540,-92130 z" />
    </clipPath>
    <clipPath
       id="id33">
      <path
         id="path19683"
         d="m 11216900,2958840 c 0,0 127080,-36270 253820,-207250 126650,-170900 290870,-343900 518620,-418540 227850,-74720 370180,-104630 634720,-83100 264680,21650 460000,-3910 460000,-3910 0,0 -58930,47010 -188600,243550 -129710,196640 -394600,408100 -666990,499760 -272510,91830 -457710,76700 -643030,61620 -185160,-15040 -368540,-92130 -368540,-92130 z" />
    </clipPath>
    <clipPath
       id="id34">
      <path
         id="path19686"
         d="m 13692900,11728500 c 0,0 -430870,25650 -730960,298990 -300000,273250 -391540,354850 -512030,850780 -120620,495930 -40580,550970 -113510,726940 -73060,175970 -32910,412610 -32910,412610 l 189460,-193370 180540,-208540 c 0,0 635800,-652690 750820,-808030 206650,-279220 122600,-605800 227060,-909480 31750,-92300 41530,-169900 41530,-169900 z" />
    </clipPath>
    <clipPath
       id="id35">
      <path
         id="path19689"
         d="m 13692900,11728500 c 0,0 -430870,25650 -730960,298990 -300000,273250 -391540,354850 -512030,850780 -120620,495930 -40580,550970 -113510,726940 -73060,175970 -32910,412610 -32910,412610 l 189460,-193370 180540,-208540 c 0,0 635800,-652690 750820,-808030 206650,-279220 122600,-605800 227060,-909480 31750,-92300 41530,-169900 41530,-169900 z" />
    </clipPath>
    <clipPath
       id="id36">
      <path
         id="path19692"
         d="m 14450300,12388500 c 327610,-259250 1045990,-74640 1434090,-208150 124920,-42980 306240,-101850 306240,-101850 0,0 -33810,389970 -362550,734080 -328730,344150 -674480,601760 -1104540,670260 -430010,68450 -585950,-24370 -829610,-23850 -243610,520 -766450,15300 -766450,15300 16670,-128960 354970,-288210 439830,-386960 244430,-284550 588630,-465890 882990,-698830 z" />
    </clipPath>
    <clipPath
       id="id37">
      <path
         id="path19695"
         d="m 14450300,12388500 c 327610,-259250 1045990,-74640 1434090,-208150 124920,-42980 306240,-101850 306240,-101850 0,0 -33810,389970 -362550,734080 -328730,344150 -674480,601760 -1104540,670260 -430010,68450 -585950,-24370 -829610,-23850 -243610,520 -766450,15300 -766450,15300 16670,-128960 354970,-288210 439830,-386960 244430,-284550 588630,-465890 882990,-698830 z" />
    </clipPath>
    <clipPath
       id="id38">
      <path
         id="path19698"
         d="m 14684500,13624900 c 0,0 -243780,425750 -674920,593300 -431130,167630 -560790,219540 -1129170,91960 -568300,-127540 -584190,-236860 -801180,-251380 -216950,-14490 -247190,-44950 -247190,-44950 l 6030,-37170 c 490020,-326240 1016750,-518060 1606280,-623120 390030,-69530 681810,180900 1045300,227830 110460,14260 194850,43530 194850,43530 z" />
    </clipPath>
    <clipPath
       id="id39">
      <path
         id="path19701"
         d="m 14684500,13624900 c 0,0 -243780,425750 -674920,593300 -431130,167630 -560790,219540 -1129170,91960 -568300,-127540 -584190,-236860 -801180,-251380 -216950,-14490 -247190,-44950 -247190,-44950 l 6030,-37170 c 490020,-326240 1016750,-518060 1606280,-623120 390030,-69530 681810,180900 1045300,227830 110460,14260 194850,43530 194850,43530 z" />
    </clipPath>
    <linearGradient
       id="linearGradient4476">
      <stop
         id="stop4478"
         offset="0"
         style="stop-color:#403800;stop-opacity:1;" />
      <stop
         style="stop-color:#c8af00;stop-opacity:1;"
         offset="0.5"
         id="stop3321" />
      <stop
         id="stop4480"
         offset="1"
         style="stop-color:#403900;stop-opacity:1;" />
    </linearGradient>
    <linearGradient
       y2="343.1196"
       x2="416.20303"
       y1="343.1196"
       x1="133.79698"
       gradientTransform="matrix(1.139822,0,0,1.139822,-148.07549,614.27196)"
       gradientUnits="userSpaceOnUse"
       id="linearGradient7738"
       xlink:href="#linearGradient4476"
       inkscape:collect="always" />
    <linearGradient
       id="linearGradient2892">
      <stop
         style="stop-color:#403800;stop-opacity:1;"
         offset="0"
         id="stop2894" />
      <stop
         id="stop2896"
         offset="0.5"
         style="stop-color:#c8af00;stop-opacity:1;" />
      <stop
         style="stop-color:#403900;stop-opacity:1;"
         offset="1"
         id="stop2898" />
    </linearGradient>
  </defs>
  <sodipodi:namedview
     id="base"
     pagecolor="#ffffff"
     bordercolor="#666666"
     borderopacity="1.0"
     gridtolerance="10000"
     guidetolerance="10"
     objecttolerance="10"
     inkscape:pageopacity="0.0"
     inkscape:pageshadow="2"
     inkscape:zoom="0.24278725"
     inkscape:cx="271.84294"
     inkscape:cy="438.65565"
     inkscape:document-units="px"
     inkscape:current-layer="layer1"
     inkscape:window-width="1920"
     inkscape:window-height="1008"
     inkscape:window-x="0"
     inkscape:window-y="0"
     showgrid="false"
     height="650px"
     width="550px"
     showguides="true"
     inkscape:guide-bbox="true"
     inkscape:showpageshadow="2"
     inkscape:pagecheckerboard="0"
     inkscape:deskcolor="#d1d1d1"
     inkscape:window-maximized="1" />
  <metadata
     id="metadata3199">
    <rdf:RDF>
      <cc:Work
         rdf:about="">
        <dc:format>image/svg+xml</dc:format>
        <dc:type
           rdf:resource="http://purl.org/dc/dcmitype/StillImage" />
      </cc:Work>
    </rdf:RDF>
  </metadata>
  <g
     inkscape:groupmode="layer"
     id="layer3"
     inkscape:label="Timbre"
     transform="translate(915.86695,-2.7822333)"
     style="display:inline" />
  <g
     inkscape:label="Escudo"
     inkscape:groupmode="layer"
     id="layer1"
     transform="translate(915.86695,-2.7822333)"
     style="display:inline">
    <path
       style="display:inline;fill:#0071bc;fill-opacity:1;fill-rule:evenodd;stroke:none;stroke-width:3;stroke-linecap:butt;stroke-linejoin:miter;stroke-miterlimit:4;stroke-dasharray:none;stroke-opacity:1"
       d="m -915.39588,4.0620903 c 0,0 0.72294,513.9093397 0.53923,520.9048097 -0.76054,29.40605 2.62299,58.59435 126.05469,70.65832 45.16727,3.55406 100.13357,24.77277 123.13647,58.05984 0.0967,0.12985 0.19032,0.25134 0.28547,0.37701 l 0.25376,-0.37701 c 23.00292,-33.28707 77.9692,-54.50578 123.13646,-58.05984 123.43169,-12.06397 126.81521,-41.25227 126.05467,-70.65832 -0.18368,-6.99549 0.53924,-520.9048097 0.53924,-520.9048097 z"
       id="path7156"
       sodipodi:nodetypes="cccccccccc" />
    <path
       style="display:inline;fill:#eac102;fill-opacity:1;stroke:#000000;stroke-width:1.05079;stroke-miterlimit:4;stroke-dasharray:none;stroke-opacity:1"
       d="m -656.15569,412.47777 c -3.82223,0.1173 -11.20577,-1.5348 -11.5844,0.52113 -1.00996,5.48287 -2.8175,7.69422 -2.90366,14.80788 -0.15332,12.64379 3.43134,25.09838 5.35067,33.54691 -10.52024,-13.97028 -28.87917,-14.76756 -33.60536,-14.14679 -11.09399,-0.62077 -35.2522,8.31675 -32.19694,34.05788 5.4128,45.60109 69.12559,70.14685 65.46027,114.74355 51.43593,-44.56776 70.57044,-91.58667 71.63915,-112.36717 0.20716,-9.53178 -0.72401,-32.17349 -22.77885,-37.05503 -16.25355,-1.07928 -32.17857,0.50965 -42.76052,13.19012 -1.45416,-6.24436 -3.39486,-14.30452 -0.642,-27.5238 0.27152,-0.69036 2.31694,-13.33493 4.02164,-19.77468 z"
       id="path65588"
       sodipodi:nodetypes="cssccscccccc" />
    <path
       style="display:inline;fill:#eac102;fill-opacity:1;fill-rule:evenodd;stroke:#000000;stroke-width:1;stroke-linecap:butt;stroke-linejoin:miter;stroke-miterlimit:4;stroke-dasharray:none;stroke-opacity:1"
       d="m -722.75541,203.44838 -188.59375,302.78125 c -0.002,9.30618 -0.0134,18.25813 -0.0312,18.9375 -0.61145,23.63995 1.47418,47.14411 66.4375,61.71875 l 180.5,-289.78125 181.09375,290.75 c 69.33279,-14.48777 71.53133,-38.51771 70.90625,-62.6875 -0.0102,-0.38901 0.005,-7.49517 0,-10.84375 l -193.65625,-310.875 -58.34375,-93.65625 z"
       id="path2533"
       sodipodi:nodetypes="ccscccscccc" />
    <path
       style="display:inline;fill:none;fill-opacity:1;fill-rule:evenodd;stroke:#000000;stroke-width:3;stroke-linecap:butt;stroke-linejoin:miter;stroke-miterlimit:4;stroke-dasharray:none;stroke-opacity:1"
       d="m -914.36695,4.2822333 c 0,0 0.72295,513.9093567 0.53924,520.9048267 -0.76055,29.40605 2.62298,58.59435 126.05468,70.65832 45.16727,3.55405 100.13356,24.77277 123.13647,58.05984 0.0967,0.12984 0.19032,0.25133 0.28548,0.37701 l 0.25376,-0.37701 c 23.00291,-33.28707 77.96919,-54.50579 123.13646,-58.05984 123.43168,-12.06397 126.81521,-41.25227 126.05466,-70.65832 -0.18368,-6.99549 0.53924,-520.9048267 0.53924,-520.9048267 z"
       id="path6563"
       sodipodi:nodetypes="cccccccccc" />
    <g
       id="g2549"
       transform="matrix(1.1066752,0,0,1.1033035,62.664692,-45.75827)"
       style="stroke:#000000;stroke-width:0.904987;stroke-opacity:1">
      <path
         sodipodi:nodetypes="ccccccccccc"
         id="path12617"
         transform="translate(-915.86695,2.7822333)"
         d="M 396.6875,74.15625 383.90471,139.42573 315.28125,133 l 61.1086,33.03279 -30.01485,62.18596 51.28125,-46.8125 49.34375,46.8125 -28.90625,-63 60,-32.21875 -68.09529,9.41956 z"
         style="display:inline;fill:#eac102;fill-opacity:1;fill-rule:evenodd;stroke:#000000;stroke-width:0.904987;stroke-miterlimit:4;stroke-dasharray:none;stroke-opacity:1" />
      <path
         sodipodi:nodetypes="cc"
         transform="translate(-915.86695,2.7822333)"
         id="path2539"
         d="m 396.95247,76.87831 0.51486,104.00052"
         style="fill:none;fill-rule:evenodd;stroke:#000000;stroke-width:0.904987;stroke-linecap:butt;stroke-linejoin:miter;stroke-opacity:1" />
      <path
         sodipodi:nodetypes="cc"
         transform="translate(-915.86695,2.7822333)"
         id="path2541"
         d="m 474.69544,134.02711 -99.88169,31.92095"
         style="fill:none;fill-rule:evenodd;stroke:#000000;stroke-width:0.904987;stroke-linecap:butt;stroke-linejoin:miter;stroke-opacity:1" />
      <path
         sodipodi:nodetypes="cc"
         transform="translate(-915.86695,2.7822333)"
         id="path2543"
         d="M 445.86361,226.18599 384.08113,139.69051"
         style="fill:none;fill-rule:evenodd;stroke:#000000;stroke-width:0.904987;stroke-linecap:butt;stroke-linejoin:miter;stroke-opacity:1" />
      <path
         sodipodi:nodetypes="cc"
         transform="translate(-915.86695,2.7822333)"
         id="path2545"
         d="m 348.04135,226.18599 61.78248,-84.95093"
         style="fill:none;fill-rule:evenodd;stroke:#000000;stroke-width:0.904987;stroke-linecap:butt;stroke-linejoin:miter;stroke-opacity:1" />
      <path
         transform="translate(-915.86695,2.7822333)"
         id="path2547"
         d="m 316.63525,133.51226 101.9411,31.40609"
         style="fill:none;fill-rule:evenodd;stroke:#000000;stroke-width:0.904987;stroke-linecap:butt;stroke-linejoin:miter;stroke-opacity:1" />
    </g>
    <g
       style="display:inline;stroke:#000000;stroke-width:0.904987;stroke-opacity:1"
       id="g2557"
       transform="matrix(1.1066752,0,0,1.1033035,-239.36803,-49.984715)">
      <path
         sodipodi:nodetypes="ccccccccccc"
         id="path2559"
         transform="translate(-915.86695,2.7822333)"
         d="M 396.6875,74.15625 383.90471,139.42573 315.28125,133 l 61.1086,33.03279 -30.01485,62.18596 51.28125,-46.8125 49.34375,46.8125 -28.90625,-63 60,-32.21875 -68.09529,9.41956 z"
         style="display:inline;fill:#eac102;fill-opacity:1;fill-rule:evenodd;stroke:#000000;stroke-width:0.904987;stroke-miterlimit:4;stroke-dasharray:none;stroke-opacity:1" />
      <path
         sodipodi:nodetypes="cc"
         transform="translate(-915.86695,2.7822333)"
         id="path2561"
         d="m 396.95247,76.87831 0.51486,104.00052"
         style="fill:none;fill-rule:evenodd;stroke:#000000;stroke-width:0.904987;stroke-linecap:butt;stroke-linejoin:miter;stroke-opacity:1" />
      <path
         sodipodi:nodetypes="cc"
         transform="translate(-915.86695,2.7822333)"
         id="path2563"
         d="m 474.69544,134.02711 -99.88169,31.92095"
         style="fill:none;fill-rule:evenodd;stroke:#000000;stroke-width:0.904987;stroke-linecap:butt;stroke-linejoin:miter;stroke-opacity:1" />
      <path
         sodipodi:nodetypes="cc"
         transform="translate(-915.86695,2.7822333)"
         id="path2565"
         d="M 445.86361,226.18599 384.08113,139.69051"
         style="fill:none;fill-rule:evenodd;stroke:#000000;stroke-width:0.904987;stroke-linecap:butt;stroke-linejoin:miter;stroke-opacity:1" />
      <path
         sodipodi:nodetypes="cc"
         transform="translate(-915.86695,2.7822333)"
         id="path2567"
         d="m 348.04135,226.18599 61.78248,-84.95093"
         style="fill:none;fill-rule:evenodd;stroke:#000000;stroke-width:0.904987;stroke-linecap:butt;stroke-linejoin:miter;stroke-opacity:1" />
      <path
         transform="translate(-915.86695,2.7822333)"
         id="path2569"
         d="m 316.63525,133.51226 101.9411,31.40609"
         style="fill:none;fill-rule:evenodd;stroke:#000000;stroke-width:0.904987;stroke-linecap:butt;stroke-linejoin:miter;stroke-opacity:1" />
    </g>
  </g>
  <g
     inkscape:groupmode="layer"
     id="layer4"
     inkscape:label="Piezas"
     style="display:inline"
     transform="translate(972.29567,-79.422579)">
    <g
       id="g5818"
       inkscape:label="Piezas"
       transform="translate(873.00016,-55.320157)" />
    <g
       id="g5820"
       inkscape:label="Muebles"
       transform="translate(873.00016,-55.320157)" />
    <g
       id="g5822"
       inkscape:label="Ornamentos"
       transform="translate(873.00016,-55.320157)" />
  </g>
  <g
     inkscape:groupmode="layer"
     id="layer5"
     inkscape:label="Muebles"
     style="display:inline"
     transform="translate(972.29567,-79.422579)">
    <g
       inkscape:label="Escudo"
       id="g5438"
       transform="translate(-582.73933,640.16742)"
       style="display:inline" />
    <g
       id="g5440"
       inkscape:label="Piezas"
       style="display:inline"
       transform="translate(-526.31061,563.52708)" />
    <g
       id="g5559"
       inkscape:label="Ornamento"
       transform="translate(-526.31061,563.52708)" />
    <g
       id="g5561"
       inkscape:label="Borde 3px"
       style="display:inline"
       transform="translate(-526.31061,563.52708)" />
  </g>
  <g
     inkscape:groupmode="layer"
     id="layer6"
     inkscape:label="Ornamentos"
     style="display:inline"
     transform="translate(972.29567,-79.422579)" />
  <g
     inkscape:groupmode="layer"
     id="layer2"
     inkscape:label="Borde 3px"
     style="display:inline"
     transform="translate(972.29567,-79.422579)" />
</svg>
