<?xml version="1.0" encoding="UTF-8" standalone="no"?>
<svg
   viewBox="0 0 640 640"
   version="1.1"
   id="svg109"
   sodipodi:docname="armarria_Lasarte-Oria.svg"
   width="640"
   height="640"
   inkscape:version="1.3.2 (091e20ef0f, 2023-11-25)"
   xmlns:inkscape="http://www.inkscape.org/namespaces/inkscape"
   xmlns:sodipodi="http://sodipodi.sourceforge.net/DTD/sodipodi-0.dtd"
   xmlns="http://www.w3.org/2000/svg"
   xmlns:svg="http://www.w3.org/2000/svg">
  <defs
     id="defs109" />
  <sodipodi:namedview
     id="namedview109"
     pagecolor="#ffffff"
     bordercolor="#000000"
     borderopacity="0.25"
     inkscape:showpageshadow="2"
     inkscape:pageopacity="0.0"
     inkscape:pagecheckerboard="0"
     inkscape:deskcolor="#d1d1d1"
     inkscape:zoom="1.2671875"
     inkscape:cx="249.76572"
     inkscape:cy="320"
     inkscape:window-width="1920"
     inkscape:window-height="1008"
     inkscape:window-x="0"
     inkscape:window-y="0"
     inkscape:window-maximized="1"
     inkscape:current-layer="svg109" />
  <g
     stroke="#000000"
     stroke-linecap="round"
     stroke-linejoin="round"
     id="g3">
    <path
       d="m 0.5,0.5 v 474.25 c 0,68.898 55.852,124.75 124.75,124.75 h 62.375 c 27.289,0 50.92,17.163 62.375,40 11.455,-22.837 35.086,-40 62.375,-40 h 62.375 c 68.898,0 124.75,-55.852 124.75,-124.75 V 0.5 Z"
       fill="#e5e5e5"
       id="path1" />
    <path
       d="m 0.5,0.5 v 474.25 c 0,68.898 55.852,124.75 124.75,124.75 h 62.375 c 27.289,0 50.92,17.163 62.375,40 V 0.5 Z"
       fill="#eac102"
       id="path2" />
    <path
       d="m 0.5,0.5 v 474.25 c 0,68.898 55.852,124.75 124.75,124.75 h 62.375 c 27.289,0 50.92,17.163 62.375,40 11.455,-22.837 35.086,-40 62.375,-40 h 62.375 c 68.898,0 124.75,-55.852 124.75,-124.75 V 0.5 Z m 83.167,83.167 v 370.291 c 0,34.45 27.925,62.375 62.375,62.375 h 62.375 c 18.193,0 33.948,10.778 41.583,26 7.635,-15.222 23.39,-26 41.583,-26 h 62.375 c 34.45,0 62.375,-27.925 62.375,-62.375 V 83.667 Z"
       fill="#ed1c24"
       fill-rule="evenodd"
       id="path3" />
  </g>
  <g
     stroke-linecap="round"
     stroke-linejoin="round"
     id="g108">
    <g
       fill-rule="evenodd"
       stroke="#000000"
       id="g8">
      <path
         d="m 100.583,127 h 132.5 v 65.75 h -132.5 z"
         fill="#eac102"
         id="path4" />
      <path
         d="M 109.9046,164.5239 H 162.172 V 183.452 H 109.9046 Z"
         fill="#ed1c24"
         id="path5" />
      <path
         d="m 109.9046,136.298 h 52.2674 v 18.9279 h -52.2674 z"
         fill="#ed1c24"
         id="path6" />
      <path
         d="m 171.4936,164.5239 h 52.2678 v 18.9281 h -52.2678 z"
         fill="#ed1c24"
         id="path7" />
      <path
         d="m 171.4936,136.298 h 52.2678 v 18.9279 h -52.2678 z"
         fill="#ed1c24"
         id="path8" />
    </g>
    <g
       fill-rule="evenodd"
       stroke="#000000"
       id="g13">
      <path
         d="m 100.583,407.25 h 132.5 V 473 h -132.5 z"
         fill="#eac102"
         id="path9" />
      <path
         d="M 109.9046,444.7739 H 162.172 V 463.702 H 109.9046 Z"
         fill="#ed1c24"
         id="path10" />
      <path
         d="m 109.9046,416.548 h 52.2674 v 18.9279 h -52.2674 z"
         fill="#ed1c24"
         id="path11" />
      <path
         d="m 171.4936,444.7739 h 52.2678 v 18.9281 h -52.2678 z"
         fill="#ed1c24"
         id="path12" />
      <path
         d="m 171.4936,416.548 h 52.2678 v 18.9279 h -52.2678 z"
         fill="#ed1c24"
         id="path13" />
    </g>
    <g
       fill-rule="evenodd"
       stroke="#000000"
       id="g18">
      <path
         d="m 100.583,267.125 h 132.5 v 65.75 h -132.5 z"
         fill="#eac102"
         id="path14" />
      <path
         d="M 109.9046,304.6489 H 162.172 V 323.577 H 109.9046 Z"
         fill="#ed1c24"
         id="path15" />
      <path
         d="m 109.9046,276.423 h 52.2674 v 18.9279 h -52.2674 z"
         fill="#ed1c24"
         id="path16" />
      <path
         d="m 171.4936,304.6489 h 52.2678 v 18.9281 h -52.2678 z"
         fill="#ed1c24"
         id="path17" />
      <path
         d="m 171.4936,276.423 h 52.2678 v 18.9279 h -52.2678 z"
         fill="#ed1c24"
         id="path18" />
    </g>
    <g
       id="g59">
      <path
         d="m 306.7536,196.2207 c -2.5426,0.7878 -5.2673,1.7435 -8.4998,2.0431 -6.4658,0.5997 -15.8752,-2.7579 -21.4692,-0.4682 -1.5056,0.6162 -2.4433,2.4532 -4.6646,4.0758 -1.0586,0.7733 -3.6869,0.9013 -3.973,2.6636 l 1.1031,1.8996 1.5776,1.706 1.6151,1.3913 c 1.4596,0.4384 1.671,-2.3196 2.1651,-2.6863 0.4182,-0.3453 1.0097,-0.7894 1.5721,-1.2699 1.2035,-1.0369 2.5382,-2.5321 3.4727,-3.0574 0.8091,-0.4549 4.674,-0.414 7.0609,0.7057 -0.1576,0.5192 -0.4104,1.1865 -0.7736,1.8343 1.7755,-1.2846 4.3524,-0.2367 6.1404,0.1121 1.9409,0.3786 7.6321,2.0984 7.7751,2.0997 0.4507,1.3724 0.5413,2.9725 1.3228,4.3307 0.0878,-1.2578 0.4054,-2.7777 0.8641,-3.9257 0.4166,1.2019 1.3925,3.9238 2.7714,5.3088 -0.2956,-1.3572 -0.7383,-3.71 -0.529,-5.3256 1.7469,0.2527 3.6477,0.3424 5.4796,-0.033"
         fill-rule="evenodd"
         stroke="#000000"
         id="path19" />
      <path
         d="m 274.6078,206.8456 c 0.4472,0.5105 0.6098,2.053 0.1628,2.9576 1.5537,-1.1857 1.8621,-3.6145 1.4094,-4.2276 -0.4217,-0.088 -1.3466,0.5246 -1.5721,1.27 z"
         fill="#e5e5e5"
         fill-rule="evenodd"
         stroke="#000000"
         id="path20" />
      <path
         d="m 272.4428,209.5319 c -0.6023,0.7763 -0.7679,2.6617 -0.4162,3.8149 -1.6115,-1.1233 -1.8035,-3.8271 -1.1989,-5.2062 0.8442,0.1211 1.3592,0.9588 1.6151,1.3913 z"
         fill="#e5e5e5"
         fill-rule="evenodd"
         stroke="#000000"
         id="path21" />
      <path
         d="m 270.8277,208.1406 c -0.78,0.2624 -1.9808,2.64 -1.7888,3.8199 -1.2207,-1.8453 -0.5101,-4.1261 0.2112,-5.5259 0.6992,0.1546 1.3472,1.0056 1.5776,1.706 z"
         fill="#e5e5e5"
         fill-rule="evenodd"
         stroke="#000000"
         id="path22" />
      <path
         d="m 268.1471,204.535 c 0.6998,0.2772 1.1258,1.2736 1.1031,1.8996 -0.6286,0.3565 -1.6951,1.5371 -2.3331,3.4467 0,-2.1417 0.0924,-4.5921 1.23,-5.3463 z"
         fill="#e5e5e5"
         fill-rule="evenodd"
         stroke="#000000"
         id="path23" />
      <path
         d="m 363.8803,209.3693 c -1.278,1.1495 -2.8226,2.2721 -4.1795,3.5566 -4.2573,4.03 0.8403,7.5337 2.7011,11.6666 0.6063,1.3467 0.178,2.853 -0.2533,4.0216 -0.1582,-0.4636 -0.4272,-0.9533 -0.8308,-1.3657 -1.1491,0.2374 -2.2328,1.3485 -2.8272,2.3116 -0.7228,1.1714 -0.3001,3.1032 -2.0186,4.3778 -0.0658,-0.6949 -0.2099,-1.3413 -0.3644,-1.8454 -3.4569,2.3097 -3.4353,6.7059 -5.7429,7.0687 -2.262,0.3557 -4.4036,-0.3651 -5.9897,-0.2709 l -2.0205,0.056 c -0.6152,-0.01 -2.9716,2.2008 -3.7623,0.4759 l -0.1501,-2.101 0.0325,-2.1395 1.1499,-1.8416 c 1.1751,-0.9453 2.4623,0.081 3.772,0.1435 1.887,0.089 3.6849,0.013 4.3093,-0.2236 1.3207,-0.5013 5.1536,-6.0525 5.909,-8.6956 0.6304,-2.2056 -1.4399,-5.9432 -4.1301,-7.1507 -2.0229,-0.9081 -3.6277,-2.2952 -4.8665,-5.1923 -3.5432,-8.2858 4.6919,-18.1635 10.5873,-22.5113"
         stroke="#000000"
         id="path24" />
      <path
         d="m 340.6883,241.3955 c 1.9548,0 3.6743,-1.7435 3.6867,-2.5054 -0.2817,-0.3259 -1.3889,-0.3998 -2.0205,0.056 0.045,0.677 -0.7617,2.0016 -1.6661,2.4495 z"
         fill="#e5e5e5"
         fill-rule="evenodd"
         stroke="#000000"
         id="path25" />
      <path
         d="m 338.5921,239.4218 c -0.9786,0.091 -2.3181,0.9287 -2.9198,1.9737 -0.2813,-1.9437 1.5373,-3.3724 2.7696,-4.0746 0.4886,0.6988 0.2909,1.6187 0.1502,2.1009 z"
         fill="#e5e5e5"
         fill-rule="evenodd"
         stroke="#000000"
         id="path26" />
      <path
         d="m 338.4748,235.1814 c 0.4385,0.7127 0.2603,1.5272 -0.0325,2.1395 -0.5987,-0.5643 -2.9561,-0.6245 -3.9073,0.1005 0.6639,-2.2217 3.2915,-2.2961 3.9398,-2.24 z"
         fill="#e5e5e5"
         fill-rule="evenodd"
         stroke="#000000"
         id="path27" />
      <path
         d="m 366.2695,190.2322 c 1.0595,-1.5711 3.4816,-5.0025 6.3615,-3.2011 0.1131,-0.5109 0.3779,-1.0383 0.5932,-1.6029 1.465,0.2218 2.8923,1.0516 4.0159,3.075 0.1378,-0.3606 0.4108,-0.805 0.7382,-1.3509 1.2491,1.5577 2.8231,4.551 3.6847,6.1554 0.1097,-0.7643 0.4432,-2.0484 0.8504,-2.724 0.8812,1.9902 1.7209,4.9116 2.1552,7.2722 0.3237,-0.585 0.8221,-1.2231 1.2271,-1.8694 0.178,2.3233 0.3647,5.6765 1.3431,8.758 0.1984,-0.9974 0.6569,-2.3383 1.1041,-3.373 0.1364,2.4148 0.824,7.0546 1.5132,9.3401 0.3162,-1.214 0.838,-2.6022 1.396,-3.4 -0.148,1.8001 0.0708,6.3143 0.5022,8.1266 0.2357,-0.5899 0.5463,-1.3363 1.0721,-2.0685 0.0577,1.3373 0.3454,3.3176 1.1185,4.9643 0.1184,-0.9663 0.4483,-1.7702 0.8702,-2.3888 0.4269,1.0568 1.0889,2.42 2.0389,3.413 0.4412,-1.9529 0.2155,-4.6215 -0.0567,-6.3505 0.6425,1.1601 1.6044,2.4419 1.9373,3.0718 0.1378,-1.1724 -0.772,-5.1906 -0.9476,-5.8786 0.5188,0.2264 1.144,0.5929 1.6304,0.8245 -0.328,-1.6974 -2.0989,-4.8953 -3.1147,-6.4787 0.8172,0.3709 2.0525,0.9313 3.1147,1.6305 -0.4736,-1.3224 -3.2123,-5.3332 -4.3376,-6.6828 0.8389,0.077 1.7011,0.3698 2.285,0.6844 -1.724,-2.7825 -3.5892,-4.1515 -5.8368,-5.8489 1.1781,0.057 2.7041,0.2294 3.9108,0.442 -1.6117,-1.7432 -4.2724,-3.9431 -6.038,-4.7359 0.4627,-0.1651 1.335,-0.3538 2.216,-0.4192 -1.1375,-1.0846 -3.8316,-2.6665 -5.328,-3.1732 0.6375,-0.3306 1.1897,-0.5282 1.9222,-0.7236 -0.8059,-0.4368 -4.2983,-1.7902 -5.612,-1.8058 0.4871,-0.3395 1.2115,-0.6514 1.866,-0.854 -2.1857,-0.4315 -4.1734,-0.2952 -6.0944,0.1314 0.4614,-0.5117 1.134,-1.2657 1.9045,-1.6043 -2.0792,0.125 -4.3671,0.4135 -6.5771,0.8189 0.6696,-0.5267 1.2542,-1.1439 1.9884,-1.551 -6.2378,0.8734 -10.6707,4.9712 -11.918,7.3869 z"
         fill-rule="evenodd"
         stroke="#000000"
         id="path28" />
      <path
         d="m 356.5744,207.0259 -0.2134,1.5729 c -0.2168,0.8901 -2.9866,2.1333 -4.2482,2.1333 -0.8894,0 -0.8138,-0.9871 -0.3073,-1.3656 -4.5128,1.1773 -5.6731,-1.1432 -3.9932,-2.376 z"
         fill="none"
         stroke="#e5e5e5"
         id="path29" />
      <path
         d="m 371.9642,202.1323 c 0.4926,0.324 1.2371,0.7523 1.9713,1.7276 -0.1599,-2.155 -1.1688,-4.4277 -2.2631,-6.1348 0.6006,0.2842 1.534,0.6728 2.0481,0.9328 -2.1123,-10.9771 -9.5101,-16.6761 -22.0011,-16.6761 -12.9167,0 -25.0929,1.5412 -36.7801,-9.2935 l -15.5764,6.339 c -2.1647,5.1243 -4.5585,8.4723 -4.5585,15.3857 0,13.8201 9.9255,12.3368 16.2758,12.5686 6.4964,0.237 23.7359,-1.7582 30.4161,-0.2934 5.1455,1.1284 12.9427,0.786 16.6125,0.4633"
         stroke="#000000"
         id="path30" />
      <path
         d="m 285.789,162.9678 c 0.1958,-0.9533 0.7151,-2.4082 1.198,-3.0174 0.3402,1.0633 0.8947,2.0568 1.5295,2.7932 z"
         fill="#e5e5e5"
         stroke="#000000"
         id="path31" />
      <path
         d="m 282.3342,157.7332 c 0.6829,0.706 1.9457,1.907 2.6851,2.1722 -0.2333,-0.745 -0.4713,-2.6618 -0.4314,-3.3754 z"
         fill="#e5e5e5"
         stroke="#000000"
         id="path32" />
      <path
         d="m 296.1244,160.2126 c -0.932,-0.8697 -2.9022,-1.999 -5.1167,-1.999 -7.3536,-2e-4 -8.1051,4.2056 -12.1367,4.2056 -1.2308,0 -1.8431,-1.1177 -2.5476,-1.1177 -0.6554,0 -1.0704,0.4174 -1.0704,1.1353 0,1.108 1.524,2.6539 3.7519,2.6539 4.37,0 4.986,-5.3958 11.72,-5.3958 2.8754,0 4.005,1.4355 5.2669,1.7879 z"
         fill="#ed1c24"
         fill-rule="evenodd"
         stroke="#000000"
         id="path33" />
      <path
         d="m 316.793,162.0011 c -0.745,-0.1804 -1.4052,-0.3838 -2.0099,-0.7864 1.0212,1.6959 2.2976,3.6806 4.0256,5.6855 -1.4696,-0.5365 -2.4519,-1.1146 -3.4833,-2.0145 0.4822,1.2786 1.861,3.7376 3.0358,5.2972 -0.9651,-0.3627 -1.8372,-0.9416 -2.5533,-1.5055 0.2214,2.2873 3.0622,5.1096 5.3214,6.0405 -2.2228,0.903 -6.0441,0.8596 -7.9734,0.1324 0.3614,1.8755 1.484,4.73 2.6351,6.4291 -2.2866,-0.7593 -4.1943,-2.2914 -5.3336,-3.8112 0.7854,2.5122 -0.4358,6.8619 -1.9912,8.2313 -0.0325,-1.78 -0.4782,-3.4407 -1.0506,-4.69 -0.616,2.473 -2.4788,4.6159 -4.8573,5.3744 0.7292,-1.2387 0.5876,-3.2702 0.0936,-5.1134 -1.4454,2.7889 -5.0999,4.0155 -8.1727,4.5439 1.4961,-1.9241 3.4916,-5.6805 3.9197,-7.5894 -1.5961,1.4091 -3.2314,1.7733 -4.8562,1.4855 2.0996,-1.5006 4.0604,-3.6999 5.0733,-5.5506 -1.0166,0.3452 -2.6276,0.5454 -3.4625,0.4811 3.5263,-2.935 5.0601,-5.9934 5.4781,-11.0947 -3.1301,3.8325 -3.7114,1.1775 -11.1159,1.1775 -1.4829,0 -4.5376,0.9742 -4.5376,-1.2275 0,-0.7214 0.5006,-1.6502 1.0771,-1.6502 2.1171,0 6.0458,0.4321 7.3689,0.4321 1.225,0 1.8489,-0.4084 1.8489,-1.3671 0,-2.4107 -3.7886,-4.6587 -7.0459,-4.6587 -2.2008,0 -3.9527,1.993 -5.961,1.993 -1.2842,0 -2.2993,-1.4693 -2.8638,-2.8884 -0.2194,-0.5513 -0.3707,-1.0952 -0.4433,-1.5423 0.9707,-0.4214 1.8225,-0.8254 2.6211,-1.2031 2.1329,-1.0085 3.8864,-1.8287 6.5134,-2.2901 0.1852,-1.4288 4.2912,-2.869 8.7916,-2.869 9.4075,0 16.0483,7.5049 19.908,14.5486 z"
         stroke="#000000"
         id="path34" />
      <path
         d="m 294.6447,150.2058 c 0.1851,0.8979 -0.8363,2.2503 -2.2816,3.0211 -1.4452,0.7707 -2.7668,0.6676 -2.9519,-0.2304 -0.1851,-0.8977 0.8365,-2.25 2.2817,-3.0208 1.4452,-0.7708 2.7667,-0.6677 2.9518,0.2301 z"
         fill="#e5e5e5"
         stroke="#000000"
         id="path35" />
      <path
         d="m 290.675,152.0207 c 0.475,-0.2309 0.9091,-0.2 0.9701,0.069 0.0608,0.2689 -0.2748,0.6742 -0.7498,0.9051 -0.4749,0.231 -0.9218,0.1358 -0.9701,-0.069 -0.0632,-0.2684 0.2749,-0.6742 0.7498,-0.9051 z"
         stroke="#000000"
         id="path36" />
      <path
         d="m 298.64,149.2114 c 0.2969,-0.7954 0.6059,-1.2386 1.0063,-1.6024 1.2871,-1.1694 4.4112,-3.2247 7.1494,-5.3386 -0.7244,3.4897 -1.7388,5.3351 -1.6076,7.5853 0.0452,0.7734 0.1366,1.4759 -0.5032,1.9878"
         stroke="#000000"
         id="path37" />
      <path
         d="m 317.6937,197.9955 c -0.0234,2.178 -1.4532,4.0011 -0.6032,6.2022 1.6473,4.2658 3.5751,4.9677 4.6244,10.1905 -0.5345,-1.0255 -2.1658,-2.6975 -3.3593,-3.5323 0.0541,0.4955 0.3403,2.329 0.2211,2.8834 -0.5567,-0.7974 -1.2109,-1.8962 -2.0116,-2.2281 0.1887,2.9638 0.9023,9.5417 1.0474,10.2247 1.1855,5.5805 3.3936,5.8553 3.3396,9.3208 -0.399,-0.745 -0.8888,-1.4747 -1.4595,-2.1032 -0.0183,0.9249 -0.2518,2.0201 -0.6199,2.5761 -0.1103,-0.6824 -0.3409,-1.3334 -0.4457,-1.7154 -2.4435,3.363 -1.7051,8.9245 -3.9734,9.2381 -2.2682,0.3136 -4.9843,-0.2563 -6.5703,-0.1621 l -2.0205,0.056 c -0.6152,-0.01 -2.9716,2.2008 -3.7623,0.4759 l -0.1501,-2.101 0.0325,-2.1395 1.1498,-1.8416 c 1.1751,-0.9453 2.4612,0.1162 3.772,0.1435 2.7507,0.057 3.3752,0.1886 3.8842,-0.4144 1.923,-2.2776 2.1138,-6.2602 1.9152,-7.5625 -0.8548,-5.6045 -1.8686,-10.2818 -4.1346,-13.1556 -3.6177,-4.5882 -6.2354,-8.3632 -6.2211,-14.4734"
         fill-rule="evenodd"
         stroke="#000000"
         id="path38" />
      <path
         d="m 304.1964,241.3955 c 1.9549,0 3.6744,-1.7435 3.6867,-2.5054 -0.2817,-0.3259 -1.3889,-0.3998 -2.0205,0.056 0.0458,0.677 -0.7617,2.0016 -1.6662,2.4495 z"
         fill="#e5e5e5"
         fill-rule="evenodd"
         stroke="#000000"
         id="path39" />
      <path
         d="m 302.1003,239.4218 c -0.9786,0.091 -2.318,0.9287 -2.9197,1.9737 -0.2813,-1.9437 1.5372,-3.3724 2.7696,-4.0746 0.4885,0.6988 0.2908,1.6187 0.1501,2.1009 z"
         fill="#e5e5e5"
         fill-rule="evenodd"
         stroke="#000000"
         id="path40" />
      <path
         d="m 301.9831,235.1814 c 0.4384,0.7127 0.2602,1.5272 -0.0325,2.1395 -0.5987,-0.5643 -2.9561,-0.6245 -3.9073,0.1005 0.6639,-2.2217 3.2914,-2.2961 3.9398,-2.24 z"
         fill="#e5e5e5"
         fill-rule="evenodd"
         stroke="#000000"
         id="path41" />
      <path
         d="m 371.9642,202.1323 c -0.7567,3.7003 -0.1333,9.9344 2.8438,9.9344 2.6239,0 4.3259,-2.2317 6.8697,-3.3138 -0.0342,4.8877 5.074,9.0168 8.2509,12.2505 1.0352,1.0537 1.1549,2.4319 1.1549,3.8606 -0.309,-0.3802 -0.7309,-0.7465 -1.2524,-0.9938 -0.9958,0.6203 -1.6278,2.0376 -1.852,3.1468 -0.2726,1.349 0.7929,3.0152 -0.378,4.8055 -0.3025,-0.629 -0.6614,-1.1856 -0.9809,-1.6052 -2.4434,3.363 -1.3136,8.5214 -3.5818,8.835 -2.2683,0.3136 -4.9844,-0.2563 -6.5704,-0.1621 l -2.0205,0.056 c -0.6152,-0.01 -2.9716,2.2008 -3.7623,0.4759 l -0.1501,-2.101 0.0325,-2.1395 1.1498,-1.8416 c 1.1751,-0.9453 2.4612,0.1162 3.772,0.1435 2.7507,0.057 3.0536,-0.081 3.8966,-0.3462 1.3474,-0.4244 2.7172,-5.3307 2.7172,-9.7443 0,-2.3712 -3.1207,-5.0028 -5.5117,-5.0028 -2.7575,0 -4.755,2.1332 -8.3501,2.1332 -10.7601,0 -15.6273,-14.379 -16.4745,-22.3161"
         stroke="#000000"
         id="path42" />
      <path
         d="m 339.6247,233.3397 c -0.1767,0.7313 -0.7736,1.7243 -1.1498,1.8417 -0.4412,-0.5722 -2.1519,-1.8695 -3.718,-1.9009 1.0334,-1.2844 3.695,-0.6813 4.8678,0.059 z"
         fill="#e5e5e5"
         fill-rule="evenodd"
         stroke="#000000"
         id="path43" />
      <path
         d="m 303.1329,233.3397 c -0.1767,0.7313 -0.7736,1.7243 -1.1498,1.8417 -0.4412,-0.5722 -2.1519,-1.8695 -3.718,-1.9009 1.0334,-1.2844 3.695,-0.6813 4.8678,0.059 z"
         fill="#e5e5e5"
         fill-rule="evenodd"
         stroke="#000000"
         id="path44" />
      <path
         d="m 371.7178,233.3397 c -0.1768,0.7313 -0.7736,1.7243 -1.1498,1.8417 -0.4412,-0.5722 -2.1519,-1.8695 -3.718,-1.9009 1.0334,-1.2844 3.695,-0.6813 4.8678,0.059 z"
         fill="#e5e5e5"
         fill-rule="evenodd"
         stroke="#000000"
         id="path45" />
      <path
         d="m 370.5355,237.3209 c -0.5987,-0.5643 -2.9561,-0.6245 -3.9072,0.1005 0.6641,-2.2217 3.2917,-2.2961 3.9398,-2.24 0.4383,0.7127 0.2601,1.5272 -0.0326,2.1395 z"
         fill="#e5e5e5"
         fill-rule="evenodd"
         stroke="#000000"
         id="path46" />
      <path
         d="m 370.6852,239.4218 c -0.9785,0.091 -2.318,0.9287 -2.9197,1.9737 -0.2813,-1.9437 1.5373,-3.3724 2.7696,-4.0746 0.4886,0.6988 0.2909,1.6187 0.1501,2.1009 z"
         fill="#e5e5e5"
         fill-rule="evenodd"
         stroke="#000000"
         id="path47" />
      <path
         d="m 372.7814,241.3955 c 1.9549,0 3.6744,-1.7435 3.6867,-2.5054 -0.2817,-0.3259 -1.3889,-0.3998 -2.0205,0.056 0.045,0.677 -0.7617,2.0016 -1.6662,2.4495 z"
         fill="#e5e5e5"
         fill-rule="evenodd"
         stroke="#000000"
         id="path48" />
      <path
         d="m 279.4022,155.357 c -0.2194,-0.5513 -0.3707,-1.0952 -0.4433,-1.5423 0.9707,-0.4214 1.8225,-0.8254 2.6211,-1.2031 0.7226,0.8805 1.0624,1.9481 -2.1778,2.7454 z"
         fill="none"
         stroke="#000000"
         id="path49" />
      <path
         d="m 320.8093,175.8591 c -2.7412,0.8814 -5.7241,-0.2821 -7.6534,-1.0088 0.3614,1.8755 1.484,4.73 2.6351,6.4291 -2.2866,-0.7593 -4.1943,-2.2914 -5.3336,-3.8112 0.7854,2.5122 -0.4358,6.8619 -1.9912,8.2313 -0.0325,-1.78 -0.4782,-3.4407 -1.0506,-4.69 -0.616,2.473 -2.4788,4.6159 -4.8573,5.3744 0.7292,-1.2387 0.5876,-3.2702 0.0936,-5.1134 -1.4454,2.7889 -4.6085,4.9436 -7.6813,5.472"
         fill="none"
         stroke="#e5e5e5"
         id="path50" />
      <path
         d="m 298.64,149.2114 c -0.0503,-0.6473 -0.2106,-1.9055 0.6394,-2.5748"
         fill="none"
         stroke="#e5e5e5"
         id="path51" />
      <path
         d="m 304.685,151.8435 c 0.8533,-0.69 1.4464,-1.719 1.4961,-2.8701"
         fill="none"
         stroke="#e5e5e5"
         id="path52" />
      <path
         d="m 302.3483,197.8774 c 0.016,5.2373 0.5673,7.9851 2.708,11.3854"
         fill="none"
         stroke="#e5e5e5"
         id="path53" />
      <path
         d="m 317.6937,197.9955 c -0.0551,1.7897 -0.7534,4.101 -0.3374,5.544 0.2225,0.7718 1.374,2.2225 2.5835,4.0385"
         fill="none"
         stroke="#e5e5e5"
         id="path54" />
      <path
         d="m 293.9862,197.211 c 0.7162,5.7885 3.5354,9.5594 10.0544,10.3885"
         fill="none"
         stroke="#e5e5e5"
         id="path55" />
      <path
         d="m 351.7669,198.2071 c 0.5141,7.9984 3.5826,15.0352 7.751,19.8159"
         fill="none"
         stroke="#e5e5e5"
         id="path56" />
      <path
         d="m 342.4333,207.8987 c 3.1207,0.4991 9.2227,0.021 11.1146,-0.292"
         fill="none"
         stroke="#e5e5e5"
         id="path57" />
      <path
         d="m 281.1464,152.1266 c 0.1582,0.1508 0.2884,0.3082 0.4336,0.485 0.7229,0.8802 1.0614,1.9443 -2.1778,2.7454 -0.2419,0.06 -0.5435,0.1241 -0.6593,0.1626"
         fill="none"
         stroke="#e5e5e5"
         id="path58" />
      <path
         d="m 365.7155,184.4102 c 1.5404,0.9165 2.8198,2.0549 4.0243,3.3353"
         fill="none"
         stroke="#e5e5e5"
         id="path59" />
    </g>
    <g
       id="g100">
      <path
         d="m 306.7536,412.5547 c -2.5426,0.7878 -5.2673,1.7435 -8.4998,2.0431 -6.4658,0.5997 -15.8752,-2.7579 -21.4692,-0.4682 -1.5056,0.6162 -2.4433,2.4532 -4.6646,4.0758 -1.0586,0.7733 -3.6869,0.9013 -3.973,2.6636 l 1.1031,1.8996 1.5776,1.706 1.6151,1.3913 c 1.4596,0.4384 1.671,-2.3196 2.1651,-2.6863 0.4182,-0.3453 1.0097,-0.7894 1.5721,-1.2699 1.2035,-1.0369 2.5382,-2.5321 3.4727,-3.0574 0.8091,-0.4549 4.674,-0.414 7.0609,0.7057 -0.1576,0.5192 -0.4104,1.1865 -0.7736,1.8343 1.7755,-1.2846 4.3524,-0.2367 6.1404,0.1121 1.9409,0.3786 7.6321,2.0984 7.7751,2.0997 0.4507,1.3724 0.5413,2.9725 1.3228,4.3307 0.0878,-1.2578 0.4054,-2.7777 0.8641,-3.9257 0.4166,1.2019 1.3925,3.9238 2.7714,5.3088 -0.2956,-1.3572 -0.7383,-3.71 -0.529,-5.3256 1.7469,0.2527 3.6477,0.3424 5.4796,-0.033"
         fill-rule="evenodd"
         stroke="#000000"
         id="path60" />
      <path
         d="m 274.6078,423.1796 c 0.4472,0.5105 0.6098,2.053 0.1628,2.9576 1.5537,-1.1857 1.8621,-3.6145 1.4094,-4.2276 -0.4217,-0.088 -1.3466,0.5246 -1.5721,1.27 z"
         fill="#e5e5e5"
         fill-rule="evenodd"
         stroke="#000000"
         id="path61" />
      <path
         d="m 272.4428,425.8659 c -0.6023,0.7763 -0.7679,2.6617 -0.4162,3.8149 -1.6115,-1.1233 -1.8035,-3.8271 -1.1989,-5.2062 0.8442,0.1211 1.3592,0.9588 1.6151,1.3913 z"
         fill="#e5e5e5"
         fill-rule="evenodd"
         stroke="#000000"
         id="path62" />
      <path
         d="m 270.8277,424.4746 c -0.78,0.2624 -1.9808,2.64 -1.7888,3.8199 -1.2207,-1.8453 -0.5101,-4.1261 0.2112,-5.5259 0.6992,0.1546 1.3472,1.0056 1.5776,1.706 z"
         fill="#e5e5e5"
         fill-rule="evenodd"
         stroke="#000000"
         id="path63" />
      <path
         d="m 268.1471,420.869 c 0.6998,0.2772 1.1258,1.2736 1.1031,1.8996 -0.6286,0.3565 -1.6951,1.5371 -2.3331,3.4467 0,-2.1417 0.0924,-4.5921 1.23,-5.3463 z"
         fill="#e5e5e5"
         fill-rule="evenodd"
         stroke="#000000"
         id="path64" />
      <path
         d="m 363.8803,425.7033 c -1.278,1.1495 -2.8226,2.2721 -4.1795,3.5566 -4.2573,4.03 0.8403,7.5337 2.7011,11.6666 0.6063,1.3467 0.178,2.853 -0.2533,4.0216 -0.1582,-0.4636 -0.4272,-0.9533 -0.8308,-1.3657 -1.1491,0.2374 -2.2328,1.3485 -2.8272,2.3116 -0.7228,1.1714 -0.3001,3.1032 -2.0186,4.3778 -0.0658,-0.6949 -0.2099,-1.3413 -0.3644,-1.8454 -3.4569,2.3097 -3.4353,6.7059 -5.7429,7.0687 -2.262,0.3557 -4.4036,-0.3651 -5.9897,-0.2709 l -2.0205,0.056 c -0.6152,-0.01 -2.9716,2.2008 -3.7623,0.4759 l -0.1501,-2.101 0.0325,-2.1395 1.1499,-1.8416 c 1.1751,-0.9453 2.4623,0.081 3.772,0.1435 1.887,0.089 3.6849,0.013 4.3093,-0.2236 1.3207,-0.5013 5.1536,-6.0525 5.909,-8.6956 0.6304,-2.2056 -1.4399,-5.9432 -4.1301,-7.1507 -2.0229,-0.9081 -3.6277,-2.2952 -4.8665,-5.1923 -3.5432,-8.2858 4.6919,-18.1635 10.5873,-22.5113"
         stroke="#000000"
         id="path65" />
      <path
         d="m 340.6883,457.7295 c 1.9548,0 3.6743,-1.7435 3.6867,-2.5054 -0.2817,-0.3259 -1.3889,-0.3998 -2.0205,0.056 0.045,0.677 -0.7617,2.0016 -1.6661,2.4495 z"
         fill="#e5e5e5"
         fill-rule="evenodd"
         stroke="#000000"
         id="path66" />
      <path
         d="m 338.5921,455.7558 c -0.9786,0.091 -2.3181,0.9287 -2.9198,1.9737 -0.2813,-1.9437 1.5373,-3.3724 2.7696,-4.0746 0.4886,0.6988 0.2909,1.6187 0.1502,2.1009 z"
         fill="#e5e5e5"
         fill-rule="evenodd"
         stroke="#000000"
         id="path67" />
      <path
         d="m 338.4748,451.5154 c 0.4385,0.7127 0.2603,1.5272 -0.0325,2.1395 -0.5987,-0.5643 -2.9561,-0.6245 -3.9073,0.1005 0.6639,-2.2217 3.2915,-2.2961 3.9398,-2.24 z"
         fill="#e5e5e5"
         fill-rule="evenodd"
         stroke="#000000"
         id="path68" />
      <path
         d="m 366.2695,406.5662 c 1.0595,-1.5711 3.4816,-5.0025 6.3615,-3.2011 0.1131,-0.5109 0.3779,-1.0383 0.5932,-1.6029 1.465,0.2218 2.8923,1.0516 4.0159,3.075 0.1378,-0.3606 0.4108,-0.805 0.7382,-1.3509 1.2491,1.5577 2.8231,4.551 3.6847,6.1554 0.1097,-0.7643 0.4432,-2.0484 0.8504,-2.724 0.8812,1.9902 1.7209,4.9116 2.1552,7.2722 0.3237,-0.585 0.8221,-1.2231 1.2271,-1.8694 0.178,2.3233 0.3647,5.6765 1.3431,8.758 0.1984,-0.9974 0.6569,-2.3383 1.1041,-3.373 0.1364,2.4148 0.824,7.0546 1.5132,9.3401 0.3162,-1.214 0.838,-2.6022 1.396,-3.4 -0.148,1.8001 0.0708,6.3143 0.5022,8.1266 0.2357,-0.5899 0.5463,-1.3363 1.0721,-2.0685 0.0577,1.3373 0.3454,3.3176 1.1185,4.9643 0.1184,-0.9663 0.4483,-1.7702 0.8702,-2.3888 0.4269,1.0568 1.0889,2.42 2.0389,3.413 0.4412,-1.9529 0.2155,-4.6215 -0.0567,-6.3505 0.6425,1.1601 1.6044,2.4419 1.9373,3.0718 0.1378,-1.1724 -0.772,-5.1906 -0.9476,-5.8786 0.5188,0.2264 1.144,0.5929 1.6304,0.8245 -0.328,-1.6974 -2.0989,-4.8953 -3.1147,-6.4787 0.8172,0.3709 2.0525,0.9313 3.1147,1.6305 -0.4736,-1.3224 -3.2123,-5.3332 -4.3376,-6.6828 0.8389,0.077 1.7011,0.3698 2.285,0.6844 -1.724,-2.7825 -3.5892,-4.1515 -5.8368,-5.8489 1.1781,0.057 2.7041,0.2294 3.9108,0.442 -1.6117,-1.7432 -4.2724,-3.9431 -6.038,-4.7359 0.4627,-0.1651 1.335,-0.3538 2.216,-0.4192 -1.1375,-1.0846 -3.8316,-2.6665 -5.328,-3.1732 0.6375,-0.3306 1.1897,-0.5282 1.9222,-0.7236 -0.8059,-0.4368 -4.2983,-1.7902 -5.612,-1.8058 0.4871,-0.3395 1.2115,-0.6514 1.866,-0.854 -2.1857,-0.4315 -4.1734,-0.2952 -6.0944,0.1314 0.4614,-0.5117 1.134,-1.2657 1.9045,-1.6043 -2.0792,0.125 -4.3671,0.4135 -6.5771,0.8189 0.6696,-0.5267 1.2542,-1.1439 1.9884,-1.551 -6.2378,0.8734 -10.6707,4.9712 -11.918,7.3869 z"
         fill-rule="evenodd"
         stroke="#000000"
         id="path69" />
      <path
         d="m 356.5744,423.3599 -0.2134,1.5729 c -0.2168,0.8901 -2.9866,2.1333 -4.2482,2.1333 -0.8894,0 -0.8138,-0.9871 -0.3073,-1.3656 -4.5128,1.1773 -5.6731,-1.1432 -3.9932,-2.376 z"
         fill="none"
         stroke="#e5e5e5"
         id="path70" />
      <path
         d="m 371.9642,418.4663 c 0.4926,0.324 1.2371,0.7523 1.9713,1.7276 -0.1599,-2.155 -1.1688,-4.4277 -2.2631,-6.1348 0.6006,0.2842 1.534,0.6728 2.0481,0.9328 -2.1123,-10.9771 -9.5101,-16.6761 -22.0011,-16.6761 -12.9167,0 -25.0929,1.5412 -36.7801,-9.2935 l -15.5764,6.339 c -2.1647,5.1243 -4.5585,8.4723 -4.5585,15.3857 0,13.8201 9.9255,12.3368 16.2758,12.5686 6.4964,0.237 23.7359,-1.7582 30.4161,-0.2934 5.1455,1.1284 12.9427,0.786 16.6125,0.4633"
         stroke="#000000"
         id="path71" />
      <path
         d="m 285.789,379.3018 c 0.1958,-0.9533 0.7151,-2.4082 1.198,-3.0174 0.3402,1.0633 0.8947,2.0568 1.5295,2.7932 z"
         fill="#e5e5e5"
         stroke="#000000"
         id="path72" />
      <path
         d="m 282.3342,374.0672 c 0.6829,0.706 1.9457,1.907 2.6851,2.1722 -0.2333,-0.745 -0.4713,-2.6618 -0.4314,-3.3754 z"
         fill="#e5e5e5"
         stroke="#000000"
         id="path73" />
      <path
         d="m 296.1244,376.5466 c -0.932,-0.8697 -2.9022,-1.999 -5.1167,-1.999 -7.3536,-2e-4 -8.1051,4.2056 -12.1367,4.2056 -1.2308,0 -1.8431,-1.1177 -2.5476,-1.1177 -0.6554,0 -1.0704,0.4174 -1.0704,1.1353 0,1.108 1.524,2.6539 3.7519,2.6539 4.37,0 4.986,-5.3958 11.72,-5.3958 2.8754,0 4.005,1.4355 5.2669,1.7879 z"
         fill="#ed1c24"
         fill-rule="evenodd"
         stroke="#000000"
         id="path74" />
      <path
         d="m 316.793,378.3351 c -0.745,-0.1804 -1.4052,-0.3838 -2.0099,-0.7864 1.0212,1.6959 2.2976,3.6806 4.0256,5.6855 -1.4696,-0.5365 -2.4519,-1.1146 -3.4833,-2.0145 0.4822,1.2786 1.861,3.7376 3.0358,5.2972 -0.9651,-0.3627 -1.8372,-0.9416 -2.5533,-1.5055 0.2214,2.2873 3.0622,5.1096 5.3214,6.0405 -2.2228,0.903 -6.0441,0.8596 -7.9734,0.1324 0.3614,1.8755 1.484,4.73 2.6351,6.4291 -2.2866,-0.7593 -4.1943,-2.2914 -5.3336,-3.8112 0.7854,2.5122 -0.4358,6.8619 -1.9912,8.2313 -0.0325,-1.78 -0.4782,-3.4407 -1.0506,-4.69 -0.616,2.473 -2.4788,4.6159 -4.8573,5.3744 0.7292,-1.2387 0.5876,-3.2702 0.0936,-5.1134 -1.4454,2.7889 -5.0999,4.0155 -8.1727,4.5439 1.4961,-1.9241 3.4916,-5.6805 3.9197,-7.5894 -1.5961,1.4091 -3.2314,1.7733 -4.8562,1.4855 2.0996,-1.5006 4.0604,-3.6999 5.0733,-5.5506 -1.0166,0.3452 -2.6276,0.5454 -3.4625,0.4811 3.5263,-2.935 5.0601,-5.9934 5.4781,-11.0947 -3.1301,3.8325 -3.7114,1.1775 -11.1159,1.1775 -1.4829,0 -4.5376,0.9742 -4.5376,-1.2275 0,-0.7214 0.5006,-1.6502 1.0771,-1.6502 2.1171,0 6.0458,0.4321 7.3689,0.4321 1.225,0 1.8489,-0.4084 1.8489,-1.3671 0,-2.4107 -3.7886,-4.6587 -7.0459,-4.6587 -2.2008,0 -3.9527,1.993 -5.961,1.993 -1.2842,0 -2.2993,-1.4693 -2.8638,-2.8884 -0.2194,-0.5513 -0.3707,-1.0952 -0.4433,-1.5423 0.9707,-0.4214 1.8225,-0.8254 2.6211,-1.2031 2.1329,-1.0085 3.8864,-1.8287 6.5134,-2.2901 0.1852,-1.4288 4.2912,-2.869 8.7916,-2.869 9.4075,0 16.0483,7.5049 19.908,14.5486 z"
         stroke="#000000"
         id="path75" />
      <path
         d="m 294.6447,366.5398 c 0.1851,0.8979 -0.8363,2.2503 -2.2816,3.0211 -1.4452,0.7707 -2.7668,0.6676 -2.9519,-0.2304 -0.1851,-0.8977 0.8365,-2.25 2.2817,-3.0208 1.4452,-0.7708 2.7667,-0.6677 2.9518,0.2301 z"
         fill="#e5e5e5"
         stroke="#000000"
         id="path76" />
      <path
         d="m 290.675,368.3547 c 0.475,-0.2309 0.9091,-0.2 0.9701,0.069 0.0608,0.2689 -0.2748,0.6742 -0.7498,0.9051 -0.4749,0.231 -0.9218,0.1358 -0.9701,-0.069 -0.0632,-0.2684 0.2749,-0.6742 0.7498,-0.9051 z"
         stroke="#000000"
         id="path77" />
      <path
         d="m 298.64,365.5454 c 0.2969,-0.7954 0.6059,-1.2386 1.0063,-1.6024 1.2871,-1.1694 4.4112,-3.2247 7.1494,-5.3386 -0.7244,3.4897 -1.7388,5.3351 -1.6076,7.5853 0.0452,0.7734 0.1366,1.4759 -0.5032,1.9878"
         stroke="#000000"
         id="path78" />
      <path
         d="m 317.6937,414.3295 c -0.0234,2.178 -1.4532,4.0011 -0.6032,6.2022 1.6473,4.2658 3.5751,4.9677 4.6244,10.1905 -0.5345,-1.0255 -2.1658,-2.6975 -3.3593,-3.5323 0.0541,0.4955 0.3403,2.329 0.2211,2.8834 -0.5567,-0.7974 -1.2109,-1.8962 -2.0116,-2.2281 0.1887,2.9638 0.9023,9.5417 1.0474,10.2247 1.1855,5.5805 3.3936,5.8553 3.3396,9.3208 -0.399,-0.745 -0.8888,-1.4747 -1.4595,-2.1032 -0.0183,0.9249 -0.2518,2.0201 -0.6199,2.5761 -0.1103,-0.6824 -0.3409,-1.3334 -0.4457,-1.7154 -2.4435,3.363 -1.7051,8.9245 -3.9734,9.2381 -2.2682,0.3136 -4.9843,-0.2563 -6.5703,-0.1621 l -2.0205,0.056 c -0.6152,-0.01 -2.9716,2.2008 -3.7623,0.4759 l -0.1501,-2.101 0.0325,-2.1395 1.1498,-1.8416 c 1.1751,-0.9453 2.4612,0.1162 3.772,0.1435 2.7507,0.057 3.3752,0.1886 3.8842,-0.4144 1.923,-2.2776 2.1138,-6.2602 1.9152,-7.5625 -0.8548,-5.6045 -1.8686,-10.2818 -4.1346,-13.1556 -3.6177,-4.5882 -6.2354,-8.3632 -6.2211,-14.4734"
         fill-rule="evenodd"
         stroke="#000000"
         id="path79" />
      <path
         d="m 304.1964,457.7295 c 1.9549,0 3.6744,-1.7435 3.6867,-2.5054 -0.2817,-0.3259 -1.3889,-0.3998 -2.0205,0.056 0.0458,0.677 -0.7617,2.0016 -1.6662,2.4495 z"
         fill="#e5e5e5"
         fill-rule="evenodd"
         stroke="#000000"
         id="path80" />
      <path
         d="m 302.1003,455.7558 c -0.9786,0.091 -2.318,0.9287 -2.9197,1.9737 -0.2813,-1.9437 1.5372,-3.3724 2.7696,-4.0746 0.4885,0.6988 0.2908,1.6187 0.1501,2.1009 z"
         fill="#e5e5e5"
         fill-rule="evenodd"
         stroke="#000000"
         id="path81" />
      <path
         d="m 301.9831,451.5154 c 0.4384,0.7127 0.2602,1.5272 -0.0325,2.1395 -0.5987,-0.5643 -2.9561,-0.6245 -3.9073,0.1005 0.6639,-2.2217 3.2914,-2.2961 3.9398,-2.24 z"
         fill="#e5e5e5"
         fill-rule="evenodd"
         stroke="#000000"
         id="path82" />
      <path
         d="m 371.9642,418.4663 c -0.7567,3.7003 -0.1333,9.9344 2.8438,9.9344 2.6239,0 4.3259,-2.2317 6.8697,-3.3138 -0.0342,4.8877 5.074,9.0168 8.2509,12.2505 1.0352,1.0537 1.1549,2.4319 1.1549,3.8606 -0.309,-0.3802 -0.7309,-0.7465 -1.2524,-0.9938 -0.9958,0.6203 -1.6278,2.0376 -1.852,3.1468 -0.2726,1.349 0.7929,3.0152 -0.378,4.8055 -0.3025,-0.629 -0.6614,-1.1856 -0.9809,-1.6052 -2.4434,3.363 -1.3136,8.5214 -3.5818,8.835 -2.2683,0.3136 -4.9844,-0.2563 -6.5704,-0.1621 l -2.0205,0.056 c -0.6152,-0.01 -2.9716,2.2008 -3.7623,0.4759 l -0.1501,-2.101 0.0325,-2.1395 1.1498,-1.8416 c 1.1751,-0.9453 2.4612,0.1162 3.772,0.1435 2.7507,0.057 3.0536,-0.081 3.8966,-0.3462 1.3474,-0.4244 2.7172,-5.3307 2.7172,-9.7443 0,-2.3712 -3.1207,-5.0028 -5.5117,-5.0028 -2.7575,0 -4.755,2.1332 -8.3501,2.1332 -10.7601,0 -15.6273,-14.379 -16.4745,-22.3161"
         stroke="#000000"
         id="path83" />
      <path
         d="m 339.6247,449.6737 c -0.1767,0.7313 -0.7736,1.7243 -1.1498,1.8417 -0.4412,-0.5722 -2.1519,-1.8695 -3.718,-1.9009 1.0334,-1.2844 3.695,-0.6813 4.8678,0.059 z"
         fill="#e5e5e5"
         fill-rule="evenodd"
         stroke="#000000"
         id="path84" />
      <path
         d="m 303.1329,449.6737 c -0.1767,0.7313 -0.7736,1.7243 -1.1498,1.8417 -0.4412,-0.5722 -2.1519,-1.8695 -3.718,-1.9009 1.0334,-1.2844 3.695,-0.6813 4.8678,0.059 z"
         fill="#e5e5e5"
         fill-rule="evenodd"
         stroke="#000000"
         id="path85" />
      <path
         d="m 371.7178,449.6737 c -0.1768,0.7313 -0.7736,1.7243 -1.1498,1.8417 -0.4412,-0.5722 -2.1519,-1.8695 -3.718,-1.9009 1.0334,-1.2844 3.695,-0.6813 4.8678,0.059 z"
         fill="#e5e5e5"
         fill-rule="evenodd"
         stroke="#000000"
         id="path86" />
      <path
         d="m 370.5355,453.6549 c -0.5987,-0.5643 -2.9561,-0.6245 -3.9072,0.1005 0.6641,-2.2217 3.2917,-2.2961 3.9398,-2.24 0.4383,0.7127 0.2601,1.5272 -0.0326,2.1395 z"
         fill="#e5e5e5"
         fill-rule="evenodd"
         stroke="#000000"
         id="path87" />
      <path
         d="m 370.6852,455.7558 c -0.9785,0.091 -2.318,0.9287 -2.9197,1.9737 -0.2813,-1.9437 1.5373,-3.3724 2.7696,-4.0746 0.4886,0.6988 0.2909,1.6187 0.1501,2.1009 z"
         fill="#e5e5e5"
         fill-rule="evenodd"
         stroke="#000000"
         id="path88" />
      <path
         d="m 372.7814,457.7295 c 1.9549,0 3.6744,-1.7435 3.6867,-2.5054 -0.2817,-0.3259 -1.3889,-0.3998 -2.0205,0.056 0.045,0.677 -0.7617,2.0016 -1.6662,2.4495 z"
         fill="#e5e5e5"
         fill-rule="evenodd"
         stroke="#000000"
         id="path89" />
      <path
         d="m 279.4022,371.691 c -0.2194,-0.5513 -0.3707,-1.0952 -0.4433,-1.5423 0.9707,-0.4214 1.8225,-0.8254 2.6211,-1.2031 0.7226,0.8805 1.0624,1.9481 -2.1778,2.7454 z"
         fill="none"
         stroke="#000000"
         id="path90" />
      <path
         d="m 320.8093,392.1931 c -2.7412,0.8814 -5.7241,-0.2821 -7.6534,-1.0088 0.3614,1.8755 1.484,4.73 2.6351,6.4291 -2.2866,-0.7593 -4.1943,-2.2914 -5.3336,-3.8112 0.7854,2.5122 -0.4358,6.8619 -1.9912,8.2313 -0.0325,-1.78 -0.4782,-3.4407 -1.0506,-4.69 -0.616,2.473 -2.4788,4.6159 -4.8573,5.3744 0.7292,-1.2387 0.5876,-3.2702 0.0936,-5.1134 -1.4454,2.7889 -4.6085,4.9436 -7.6813,5.472"
         fill="none"
         stroke="#e5e5e5"
         id="path91" />
      <path
         d="m 298.64,365.5454 c -0.0503,-0.6473 -0.2106,-1.9055 0.6394,-2.5748"
         fill="none"
         stroke="#e5e5e5"
         id="path92" />
      <path
         d="m 304.685,368.1775 c 0.8533,-0.69 1.4464,-1.719 1.4961,-2.8701"
         fill="none"
         stroke="#e5e5e5"
         id="path93" />
      <path
         d="m 302.3483,414.2114 c 0.016,5.2373 0.5673,7.9851 2.708,11.3854"
         fill="none"
         stroke="#e5e5e5"
         id="path94" />
      <path
         d="m 317.6937,414.3295 c -0.0551,1.7897 -0.7534,4.101 -0.3374,5.544 0.2225,0.7718 1.374,2.2225 2.5835,4.0385"
         fill="none"
         stroke="#e5e5e5"
         id="path95" />
      <path
         d="m 293.9862,413.545 c 0.7162,5.7885 3.5354,9.5594 10.0544,10.3885"
         fill="none"
         stroke="#e5e5e5"
         id="path96" />
      <path
         d="m 351.7669,414.5411 c 0.5141,7.9984 3.5826,15.0352 7.751,19.8159"
         fill="none"
         stroke="#e5e5e5"
         id="path97" />
      <path
         d="m 342.4333,424.2327 c 3.1207,0.4991 9.2227,0.021 11.1146,-0.292"
         fill="none"
         stroke="#e5e5e5"
         id="path98" />
      <path
         d="m 281.1464,368.4606 c 0.1582,0.1508 0.2884,0.3082 0.4336,0.485 0.7229,0.8802 1.0614,1.9443 -2.1778,2.7454 -0.2419,0.06 -0.5435,0.1241 -0.6593,0.1626"
         fill="none"
         stroke="#e5e5e5"
         id="path99" />
      <path
         d="m 365.7155,400.7442 c 1.5404,0.9165 2.8198,2.0549 4.0243,3.3353"
         fill="none"
         stroke="#e5e5e5"
         id="path100" />
    </g>
    <path
       d="m 10.083,20.1895 21.895,21.894 -21.895,21.895 10.106,10.105 21.894,-21.894 21.895,21.894 L 74.083,63.9785 52.189,42.0835 74.083,20.1895 63.978,10.0835 42.083,31.9785 20.189,10.0835 Z"
       fill="#eac102"
       stroke="#000000"
       id="path101" />
    <path
       d="m 425.917,20.1895 21.895,21.894 -21.895,21.895 10.106,10.105 21.894,-21.894 21.895,21.894 10.105,-10.105 -21.894,-21.895 21.894,-21.894 -10.105,-10.106 -21.895,21.895 -21.894,-21.895 z"
       fill="#eac102"
       stroke="#000000"
       id="path102" />
    <path
       d="M 218,20.1895 239.895,42.0835 218,63.9785 228.106,74.0835 250,52.1895 271.895,74.0835 282,63.9785 260.106,42.0835 282,20.1895 271.895,10.0835 250,31.9785 228.106,10.0835 Z"
       fill="#eac102"
       stroke="#000000"
       id="path103" />
    <path
       d="m 10.083,248.0535 21.895,21.894 -21.895,21.895 10.106,10.105 21.894,-21.894 21.895,21.894 10.105,-10.105 -21.894,-21.895 21.894,-21.894 -10.105,-10.106 -21.895,21.895 -21.894,-21.895 z"
       fill="#eac102"
       stroke="#000000"
       id="path104" />
    <path
       d="m 425.917,248.0535 21.895,21.894 -21.895,21.895 10.106,10.105 21.894,-21.894 21.895,21.894 10.105,-10.105 -21.894,-21.895 21.894,-21.894 -10.105,-10.106 -21.895,21.895 -21.894,-21.895 z"
       fill="#eac102"
       stroke="#000000"
       id="path105" />
    <path
       d="m 16.396,472.538 21.895,21.894 -21.895,21.895 10.106,10.105 21.894,-21.894 21.895,21.894 L 80.396,516.327 58.502,494.432 80.396,472.538 70.291,462.432 48.396,484.327 26.502,462.432 Z"
       fill="#eac102"
       stroke="#000000"
       id="path106" />
    <path
       d="M 218,549.106 239.895,571 218,592.895 228.106,603 250,581.106 271.895,603 282,592.895 260.106,571 282,549.106 271.895,539 250,560.895 228.106,539 Z"
       fill="#eac102"
       stroke="#000000"
       id="path107" />
    <path
       d="m 483.604,472.538 -21.895,21.894 21.895,21.895 -10.106,10.105 -21.894,-21.894 -21.895,21.894 -10.105,-10.105 21.894,-21.895 -21.894,-21.894 10.105,-10.106 21.895,21.895 21.894,-21.895 z"
       fill="#eac102"
       stroke="#000000"
       id="path108" />
  </g>
  <path
     d="m 1.5,1.5 v 473.25 c 0,68.35 55.4,123.75 123.75,123.75 h 62.375 c 27.18,0 50.966,17.254 62.375,40 11.409,-22.746 35.195,-40 62.375,-40 h 62.375 c 68.35,0 123.75,-55.4 123.75,-123.75 V 1.5 Z"
     fill="none"
     stroke="#000000"
     stroke-linecap="round"
     stroke-linejoin="round"
     stroke-width="3"
     id="path109" />
</svg>
