<?xml version="1.0" encoding="UTF-8" standalone="no"?>
<!-- Created with Inkscape (http://www.inkscape.org/) -->

<svg
   version="1.0"
   width="820"
   height="820"
   id="svg1923"
   sodipodi:version="0.32"
   inkscape:version="1.3.2 (091e20ef0f, 2023-11-25)"
   sodipodi:docname="armarria_Solaruze.svg"
   inkscape:output_extension="org.inkscape.output.svg.inkscape"
   xmlns:inkscape="http://www.inkscape.org/namespaces/inkscape"
   xmlns:sodipodi="http://sodipodi.sourceforge.net/DTD/sodipodi-0.dtd"
   xmlns:xlink="http://www.w3.org/1999/xlink"
   xmlns="http://www.w3.org/2000/svg"
   xmlns:svg="http://www.w3.org/2000/svg"
   xmlns:rdf="http://www.w3.org/1999/02/22-rdf-syntax-ns#"
   xmlns:cc="http://creativecommons.org/ns#"
   xmlns:dc="http://purl.org/dc/elements/1.1/">
  <metadata
     id="metadata2691">
    <rdf:RDF>
      <cc:Work
         rdf:about="">
        <dc:format>image/svg+xml</dc:format>
        <dc:type
           rdf:resource="http://purl.org/dc/dcmitype/StillImage" />
      </cc:Work>
    </rdf:RDF>
  </metadata>
  <sodipodi:namedview
     inkscape:window-height="1008"
     inkscape:window-width="1920"
     inkscape:pageshadow="2"
     inkscape:pageopacity="0.0"
     guidetolerance="10.0"
     gridtolerance="10.0"
     objecttolerance="10.0"
     borderopacity="1.0"
     bordercolor="#666666"
     pagecolor="#ffffff"
     id="base"
     showgrid="false"
     inkscape:zoom="0.56341463"
     inkscape:cx="221.86147"
     inkscape:cy="375.38961"
     inkscape:window-x="0"
     inkscape:window-y="0"
     inkscape:current-layer="svg1923"
     inkscape:showpageshadow="2"
     inkscape:pagecheckerboard="0"
     inkscape:deskcolor="#d1d1d1"
     inkscape:window-maximized="1" />
  <defs
     id="defs1926">
    <linearGradient
       inkscape:collect="always"
       id="linearGradient5498">
      <stop
         style="stop-color: white; stop-opacity: 1;"
         offset="0"
         id="stop5500" />
      <stop
         style="stop-color: white; stop-opacity: 0;"
         offset="1"
         id="stop5502" />
    </linearGradient>
    <radialGradient
       inkscape:collect="always"
       xlink:href="#linearGradient5498"
       id="radialGradient5504"
       cx="254.48274"
       cy="265.4794"
       fx="254.48274"
       fy="265.4794"
       r="365.91113"
       gradientTransform="matrix(1.45771,0,0,1.49337,-114.8282,-145.8018)"
       gradientUnits="userSpaceOnUse" />
    <inkscape:perspective
       sodipodi:type="inkscape:persp3d"
       inkscape:vp_x="0 : 410 : 1"
       inkscape:vp_y="0 : 1000 : 0"
       inkscape:vp_z="741 : 410 : 1"
       inkscape:persp3d-origin="370.5 : 273.33333 : 1"
       id="perspective2693" />
    <pattern
       id="pattern3579"
       patternTransform="translate(600.886, -343.164)"
       height="333.40473"
       width="399.64485"
       patternUnits="userSpaceOnUse">
      <path
         id="rect2399"
         style="fill: rgb(255, 255, 255); fill-opacity: 1; fill-rule: nonzero; stroke: rgb(0, 0, 0); stroke-width: 4; stroke-linecap: round; stroke-linejoin: miter; stroke-miterlimit: 4; stroke-opacity: 1;"
         d="M 35.7669,2 L 88.85902,2 L 88.85902,31.34038 L 35.7669,31.34038 L 35.7669,2 z M 92.85901,2 L 145.95113,2 L 145.95113,31.34038 L 92.85901,31.34038 L 92.85901,2 z M 149.95111,2 L 203.04323,2 L 203.04323,31.34038 L 149.95111,31.34038 L 149.95111,2 z M 207.04327,2 L 260.13539,2 L 260.13539,31.34038 L 207.04327,31.34038 L 207.04327,2 z M 264.13537,2 L 317.22749,2 L 317.22749,31.34038 L 264.13537,31.34038 L 264.13537,2 z M 321.22754,2 L 374.31966,2 L 374.31966,31.34038 L 321.22754,31.34038 L 321.22754,2 z M 2,35.34048 L 55.09212,35.34048 L 55.09212,64.68086 L 2,64.68086 L 2,35.34048 z M 59.09216,35.34048 L 112.18428,35.34048 L 112.18428,64.68086 L 59.09216,64.68086 L 59.09216,35.34048 z M 116.18426,35.34048 L 169.27638,35.34048 L 169.27638,64.68086 L 116.18426,64.68086 L 116.18426,35.34048 z M 173.27636,35.34048 L 226.36848,35.34048 L 226.36848,64.68086 L 173.27636,64.68086 L 173.27636,35.34048 z M 230.36853,35.34048 L 283.46065,35.34048 L 283.46065,64.68086 L 230.36853,64.68086 L 230.36853,35.34048 z M 287.46063,35.34048 L 340.55275,35.34048 L 340.55275,64.68086 L 287.46063,64.68086 L 287.46063,35.34048 z M 344.55273,35.34048 L 397.64485,35.34048 L 397.64485,64.68086 L 344.55273,64.68086 L 344.55273,35.34048 z M 35.7669,68.68097 L 88.85902,68.68097 L 88.85902,98.02135 L 35.7669,98.02135 L 35.7669,68.68097 z M 92.85901,68.68097 L 145.95113,68.68097 L 145.95113,98.02135 L 92.85901,98.02135 L 92.85901,68.68097 z M 149.95111,68.68097 L 203.04323,68.68097 L 203.04323,98.02135 L 149.95111,98.02135 L 149.95111,68.68097 z M 207.04327,68.68097 L 260.13539,68.68097 L 260.13539,98.02135 L 207.04327,98.02135 L 207.04327,68.68097 z M 264.13537,68.68097 L 317.22749,68.68097 L 317.22749,98.02135 L 264.13537,98.02135 L 264.13537,68.68097 z M 321.22754,68.68097 L 374.31966,68.68097 L 374.31966,98.02135 L 321.22754,98.02135 L 321.22754,68.68097 z M 2,102.02145 L 55.09212,102.02145 L 55.09212,131.36183 L 2,131.36183 L 2,102.02145 z M 59.09216,102.02145 L 112.18428,102.02145 L 112.18428,131.36183 L 59.09216,131.36183 L 59.09216,102.02145 z M 116.18426,102.02145 L 169.27638,102.02145 L 169.27638,131.36183 L 116.18426,131.36183 L 116.18426,102.02145 z M 173.27636,102.02145 L 226.36848,102.02145 L 226.36848,131.36183 L 173.27636,131.36183 L 173.27636,102.02145 z M 230.36853,102.02145 L 283.46065,102.02145 L 283.46065,131.36183 L 230.36853,131.36183 L 230.36853,102.02145 z M 287.46063,102.02145 L 340.55275,102.02145 L 340.55275,131.36183 L 287.46063,131.36183 L 287.46063,102.02145 z M 344.55273,102.02145 L 397.64485,102.02145 L 397.64485,131.36183 L 344.55273,131.36183 L 344.55273,102.02145 z M 35.7669,135.36194 L 88.85902,135.36194 L 88.85902,164.70232 L 35.7669,164.70232 L 35.7669,135.36194 z M 92.85901,135.36194 L 145.95113,135.36194 L 145.95113,164.70232 L 92.85901,164.70232 L 92.85901,135.36194 z M 149.95111,135.36194 L 203.04323,135.36194 L 203.04323,164.70232 L 149.95111,164.70232 L 149.95111,135.36194 z M 207.04327,135.36194 L 260.13539,135.36194 L 260.13539,164.70232 L 207.04327,164.70232 L 207.04327,135.36194 z M 264.13537,135.36194 L 317.22749,135.36194 L 317.22749,164.70232 L 264.13537,164.70232 L 264.13537,135.36194 z M 321.22754,135.36194 L 374.31966,135.36194 L 374.31966,164.70232 L 321.22754,164.70232 L 321.22754,135.36194 z M 2,168.70242 L 55.09212,168.70242 L 55.09212,198.0428 L 2,198.0428 L 2,168.70242 z M 59.09216,168.70242 L 112.18428,168.70242 L 112.18428,198.0428 L 59.09216,198.0428 L 59.09216,168.70242 z M 116.18426,168.70242 L 169.27638,168.70242 L 169.27638,198.0428 L 116.18426,198.0428 L 116.18426,168.70242 z M 173.27636,168.70242 L 226.36848,168.70242 L 226.36848,198.0428 L 173.27636,198.0428 L 173.27636,168.70242 z M 230.36853,168.70242 L 283.46065,168.70242 L 283.46065,198.0428 L 230.36853,198.0428 L 230.36853,168.70242 z M 287.46063,168.70242 L 340.55275,168.70242 L 340.55275,198.0428 L 287.46063,198.0428 L 287.46063,168.70242 z M 344.55273,168.70242 L 397.64485,168.70242 L 397.64485,198.0428 L 344.55273,198.0428 L 344.55273,168.70242 z M 35.7669,202.04289 L 88.85902,202.04289 L 88.85902,231.38327 L 35.7669,231.38327 L 35.7669,202.04289 z M 92.85901,202.04289 L 145.95113,202.04289 L 145.95113,231.38327 L 92.85901,231.38327 L 92.85901,202.04289 z M 149.95111,202.04289 L 203.04323,202.04289 L 203.04323,231.38327 L 149.95111,231.38327 L 149.95111,202.04289 z M 207.04327,202.04289 L 260.13539,202.04289 L 260.13539,231.38327 L 207.04327,231.38327 L 207.04327,202.04289 z M 264.13537,202.04289 L 317.22749,202.04289 L 317.22749,231.38327 L 264.13537,231.38327 L 264.13537,202.04289 z M 321.22754,202.04289 L 374.31966,202.04289 L 374.31966,231.38327 L 321.22754,231.38327 L 321.22754,202.04289 z M 2,235.38338 L 55.09212,235.38338 L 55.09212,264.72376 L 2,264.72376 L 2,235.38338 z M 59.09216,235.38338 L 112.18428,235.38338 L 112.18428,264.72376 L 59.09216,264.72376 L 59.09216,235.38338 z M 116.18426,235.38338 L 169.27638,235.38338 L 169.27638,264.72376 L 116.18426,264.72376 L 116.18426,235.38338 z M 173.27636,235.38338 L 226.36848,235.38338 L 226.36848,264.72376 L 173.27636,264.72376 L 173.27636,235.38338 z M 230.36853,235.38338 L 283.46065,235.38338 L 283.46065,264.72376 L 230.36853,264.72376 L 230.36853,235.38338 z M 287.46063,235.38338 L 340.55275,235.38338 L 340.55275,264.72376 L 287.46063,264.72376 L 287.46063,235.38338 z M 344.55273,235.38338 L 397.64485,235.38338 L 397.64485,264.72376 L 344.55273,264.72376 L 344.55273,235.38338 z M 35.7669,268.72386 L 88.85902,268.72386 L 88.85902,298.06424 L 35.7669,298.06424 L 35.7669,268.72386 z M 92.85901,268.72386 L 145.95113,268.72386 L 145.95113,298.06424 L 92.85901,298.06424 L 92.85901,268.72386 z M 149.95111,268.72386 L 203.04323,268.72386 L 203.04323,298.06424 L 149.95111,298.06424 L 149.95111,268.72386 z M 207.04327,268.72386 L 260.13539,268.72386 L 260.13539,298.06424 L 207.04327,298.06424 L 207.04327,268.72386 z M 264.13537,268.72386 L 317.22749,268.72386 L 317.22749,298.06424 L 264.13537,298.06424 L 264.13537,268.72386 z M 321.22754,268.72386 L 374.31966,268.72386 L 374.31966,298.06424 L 321.22754,298.06424 L 321.22754,268.72386 z M 2,302.06435 L 55.09212,302.06435 L 55.09212,331.40473 L 2,331.40473 L 2,302.06435 z M 59.09216,302.06435 L 112.18428,302.06435 L 112.18428,331.40473 L 59.09216,331.40473 L 59.09216,302.06435 z M 116.18426,302.06435 L 169.27638,302.06435 L 169.27638,331.40473 L 116.18426,331.40473 L 116.18426,302.06435 z M 173.27636,302.06435 L 226.36848,302.06435 L 226.36848,331.40473 L 173.27636,331.40473 L 173.27636,302.06435 z M 230.36853,302.06435 L 283.46065,302.06435 L 283.46065,331.40473 L 230.36853,331.40473 L 230.36853,302.06435 z M 287.46063,302.06435 L 340.55275,302.06435 L 340.55275,331.40473 L 287.46063,331.40473 L 287.46063,302.06435 z M 344.55273,302.06435 L 397.64485,302.06435 L 397.64485,331.40473 L 344.55273,331.40473 L 344.55273,302.06435 z" />
    </pattern>
    <linearGradient
       id="linearGradient2823">
      <stop
         id="stop2825"
         style="stop-color:#000000;stop-opacity:1"
         offset="0" />
      <stop
         id="stop2827"
         style="stop-color:#000000;stop-opacity:0"
         offset="1" />
    </linearGradient>
    <radialGradient
       cx="504.61539"
       cy="564.13458"
       r="365.91113"
       fx="504.61539"
       fy="564.13458"
       id="radialGradient2829"
       xlink:href="#linearGradient2823"
       gradientUnits="userSpaceOnUse"
       gradientTransform="matrix(1.23795,0.50518,-0.896925,2.19793,388.088,-914.106)" />
  </defs>
  <path
     d="M 6.5251989,4.3501326 H 735.17242 V 348.01061 C 721.81182,551.1206 598.43967,705.33658 376.28648,815.64987 114.23371,692.35032 34.62311,524.55269 8.7002652,343.66048 Z"
     id="path1932"
     style="fill:#cccccc;fill-rule:evenodd;stroke:#000000;stroke-width:1px;stroke-linecap:butt;stroke-linejoin:miter;stroke-opacity:1" />
  <path
     d="M 6.5251989,4.3501326 735.17242,3.3220739 735.74592,346.63632 C 712.57452,600.03525 549.39315,727.75398 376.28648,814.27558 177.22785,722.76624 41.743208,586.13744 8.7002652,345.83554 Z"
     id="path1934"
     style="opacity:0.45;fill:url(#radialGradient2829);fill-opacity:1;fill-rule:evenodd;stroke:#000000;stroke-width:1px;stroke-linecap:butt;stroke-linejoin:miter;stroke-opacity:1" />
  <path
     d="M 6.5251989,4.3501326 735.17242,4.2181927 735.80948,343.66048 C 722.88132,539.7294 612.59304,693.81406 378.46154,813.4748 120.37968,702.30269 28.982391,515.26149 8.7002652,341.48541 Z"
     id="path2833"
     style="opacity:0.9;fill:#e20909;fill-opacity:1;fill-rule:evenodd;stroke:#000000;stroke-width:4;stroke-linecap:round;stroke-linejoin:round;stroke-miterlimit:4;stroke-dasharray:none;stroke-opacity:1" />
  <g
     transform="matrix(1.0972654,0,0,1.0972653,119.09727,101.09728)"
     id="g2415"
     style="fill:#fcef50;fill-opacity:1;stroke:#fcef00;stroke-opacity:1">
    <path
       d="M 172.53413,42.15445 H 278.30082 V 207.8088 H 172.53413 Z"
       id="path2403"
       style="fill:#fcef3c;fill-opacity:1;fill-rule:evenodd;stroke:#000000;stroke-width:5;stroke-linecap:butt;stroke-linejoin:miter;stroke-miterlimit:4;stroke-dasharray:none;stroke-opacity:1" />
    <path
       d="m 207.10173,114.32106 h 36.6315 v 51.22692 h -36.6315 z"
       id="path3917"
       style="fill:#fcef3c;fill-opacity:1;fill-rule:evenodd;stroke:#000000;stroke-width:5;stroke-linecap:butt;stroke-linejoin:miter;stroke-miterlimit:4;stroke-dasharray:none;stroke-opacity:1" />
    <path
       d="M 21.62121,334.749 1.5,406.61047 H 149.53462 L 127.97618,334.749 Z"
       id="path3909"
       style="fill:#fcef3c;fill-opacity:1;fill-rule:evenodd;stroke:#000000;stroke-width:5;stroke-linecap:butt;stroke-linejoin:miter;stroke-miterlimit:4;stroke-dasharray:none;stroke-opacity:1" />
    <path
       d="M 22.63394,132.09455 H 128.40068 V 331.7489 H 22.63394 Z"
       id="path2399"
       style="fill:#fcef3c;fill-opacity:1;fill-rule:evenodd;stroke:#000000;stroke-width:5;stroke-linecap:butt;stroke-linejoin:miter;stroke-miterlimit:4;stroke-dasharray:none;stroke-opacity:1" />
    <path
       d="m 57.20154,204.26116 h 36.63154 v 51.22692 H 57.20154 Z"
       id="path3911"
       style="fill:#fcef3c;fill-opacity:1;fill-rule:evenodd;stroke:#000000;stroke-width:5;stroke-linecap:butt;stroke-linejoin:miter;stroke-miterlimit:4;stroke-dasharray:none;stroke-opacity:1" />
    <path
       d="m 330.41552,334.749 -20.1212,71.86147 h 148.0347 L 436.77052,334.749 Z"
       id="path3901"
       style="fill:#fcef3c;fill-opacity:1;fill-rule:evenodd;stroke:#000000;stroke-width:5;stroke-linecap:butt;stroke-linejoin:miter;stroke-miterlimit:4;stroke-dasharray:none;stroke-opacity:1" />
    <path
       d="m 331.42832,132.09455 h 105.7667 V 331.7489 h -105.7667 z"
       id="path2413"
       style="fill:#fcef3c;fill-opacity:1;fill-rule:evenodd;stroke:#000000;stroke-width:5;stroke-linecap:butt;stroke-linejoin:miter;stroke-miterlimit:4;stroke-dasharray:none;stroke-opacity:1" />
    <path
       d="m 365.99592,204.26116 h 36.6315 v 51.22692 h -36.6315 z"
       id="path3903"
       style="fill:#fcef3c;fill-opacity:1;fill-rule:evenodd;stroke:#000000;stroke-width:5;stroke-linecap:butt;stroke-linejoin:miter;stroke-miterlimit:4;stroke-dasharray:none;stroke-opacity:1" />
    <path
       d="m 132.03137,179.25888 h 17.76286 l 0.10747,21.52619 h 17.68523 l -0.0298,-21.52619 H 185.32 l -0.0478,21.52619 h 17.68524 l 0.12546,-21.52619 h 17.76288 l -0.20309,21.52619 h 17.68524 l 0.28073,-21.52619 h 17.76291 l -0.3584,21.52619 h 17.6852 l 0.436,-21.52619 h 17.7629 l -0.5136,21.52619 h 17.6852 l 0.5913,-21.52619 h 17.7629 l 0.8278,149.02744 -16.2145,67.06234 h -59.1271 v -87.7606 c -13.52542,-19.30071 -28.73642,-26.80213 -48.84792,0 v 87.7606 H 147.55756 L 130.37551,333.2539 Z"
       id="path2409"
       style="fill:#fcef3c;fill-opacity:1;fill-rule:evenodd;stroke:#000000;stroke-width:5;stroke-linecap:butt;stroke-linejoin:miter;stroke-miterlimit:4;stroke-dasharray:none;stroke-opacity:1" />
    <path
       d="m 167.10459,226.73517 h 10.49301 v 61.45907 h -10.49301 z"
       id="path2407"
       style="fill:#fcef3c;fill-opacity:1;fill-rule:evenodd;stroke:#000000;stroke-width:5;stroke-linecap:butt;stroke-linejoin:miter;stroke-miterlimit:4;stroke-dasharray:none;stroke-opacity:1" />
    <path
       d="m 281.02872,226.73517 h 10.493 v 61.45907 h -10.493 z"
       id="path3895"
       style="fill:#fcef3c;fill-opacity:1;fill-rule:evenodd;stroke:#000000;stroke-width:5;stroke-linecap:butt;stroke-linejoin:miter;stroke-miterlimit:4;stroke-dasharray:none;stroke-opacity:1" />
    <path
       d="m 168.78663,1.5 h 15.6403 v 20.74458 h 16.4502 L 200.69713,1.5 h 16.2703 l 0.3598,20.74458 h 16.4502 L 233.23763,1.5 h 16.2703 l 0.7198,20.74458 h 16.45019 V 1.5 h 15.3704 V 39.15435 H 168.78663 Z M 18.88646,91.4401 h 15.64028 v 20.74458 H 50.97692 L 50.79701,91.4401 h 16.27028 l 0.35981,20.74458 H 83.87727 L 83.33745,91.4401 h 16.27028 l 0.71983,20.74458 h 16.45018 V 91.4401 h 15.37042 v 37.65435 H 18.88646 Z m 308.79436,0 h 15.6403 v 20.74458 h 16.4502 l -0.18,-20.74458 h 16.2703 l 0.3598,20.74458 h 16.4502 l -0.5398,-20.74458 h 16.2703 l 0.7198,20.74458 h 16.4502 V 91.4401 h 15.3704 v 37.65435 h -113.2617 z m -195.64944,87.81878 h 17.76286 l 0.10747,21.52619 h 17.68523 l -0.0298,-21.52619 h 17.76287 l -0.0478,21.52619 h 17.68524 l 0.12546,-21.52619 h 17.76288 l -0.20309,21.52619 h 17.68524 l 0.28073,-21.52619 h 17.76291 l -0.3584,21.52619 h 17.68518 l 0.436,-21.52619 h 17.7629 l -0.5136,21.52619 h 17.6852 l 0.5913,-21.52619 h 17.7629 l 0.8278,39.02744 H 130.37552 Z"
       id="path3913"
       style="fill:#fcef3c;fill-opacity:1;fill-rule:evenodd;stroke:#000000;stroke-width:5;stroke-linecap:butt;stroke-linejoin:miter;stroke-miterlimit:4;stroke-dasharray:none;stroke-opacity:1" />
  </g>
  <path
     d="m 342.55411,535.12987 h 54.1342 v -97.17532 c 0,0 -5.42944,-6.06492 -7.98701,-8.43074 -2.64024,-2.44229 -6.23244,-5.69561 -9.31818,-7.54329 -2.35446,-1.4098 -5.68849,-3.44446 -8.43074,-3.54978 -3.36514,-0.12924 -7.69116,1.94044 -10.64935,3.54978 -2.99494,1.62933 -6.45665,4.6957 -8.87446,7.09957 -2.55053,2.53583 -7.54329,9.31818 -7.54329,9.31818 z"
     id="path7640"
     style="fill:#fcef3c;fill-opacity:1;fill-rule:evenodd;stroke:#000000;stroke-width:4;stroke-linecap:butt;stroke-linejoin:miter;stroke-miterlimit:4;stroke-dasharray:none;stroke-opacity:1" />
  <g
     transform="matrix(0.4147117,0.4147117,-0.4147117,0.4147117,680.33217,37.322958)"
     id="layer1"
     style="stroke:#000000;stroke-opacity:1">
    <g
       transform="translate(-70.7143,-100)"
       id="g2343"
       style="stroke:#000000;stroke-opacity:1">
      <path
         d="m 83.698292,232.23532 v -60 h 89.999998 90 v 60 60 h -90 -89.999998 z"
         id="path2347"
         style="fill:#fdfbf9;stroke:#000000;stroke-width:5.11517;stroke-miterlimit:4;stroke-dasharray:none;stroke-opacity:1" />
      <path
         d="m 84.045626,290.69807 -0.589896,-1.53724 1.621281,-1.7915 1.621281,-1.79149 v -1.59868 -1.59868 l 2.687205,-2.11376 2.687205,-2.11375 0.883629,1.57896 0.883629,1.57895 3.679166,-2.19954 c 2.023541,-1.20976 4.691664,-3.1052 5.929164,-4.2121 l 2.25,-2.01255 v -1.75759 -1.75759 l 2.90437,-2.0681 c 3.49612,-2.48945 4.09563,-2.55694 4.09563,-0.4611 v 1.60699 l 1.32886,-0.50993 c 0.73087,-0.28046 3.88087,-2.14243 7,-4.13772 l 5.67114,-3.62779 v -2.41256 -2.41257 l 2.22251,-1.55671 c 2.75305,-1.92831 3.54139,-1.95305 3.95417,-0.12412 l 0.32332,1.43258 5.75,-3.58163 5.75,-3.58163 v -1.8987 -1.8987 l 2.64603,-2.45225 c 1.45531,-1.34874 3.03031,-2.45225 3.5,-2.45225 h 0.85397 v 1.5 1.5 l 0.75,-0.0248 c 0.4125,-0.0136 2.96988,-1.65279 5.68306,-3.64256 l 4.93306,-3.61778 -4.25032,-2.93774 4.25032,-2.93775 -8.8916,-5.18499 -5.57649,-3.84561 -2.45343,0.61577 -2.45343,0.61577 -2.51307,-1.64663 -2.51307,-1.64662 1.0879,-1.31084 1.08789,-1.31083 -6.27421,-4.5654 -6.27421,-4.56541 -1.86991,0.59349 -1.86992,0.59349 -2.90194,-1.20202 -2.90193,-1.20202 0.99257,-1.85463 0.99256,-1.85463 -2.76691,-1.69019 c -1.5218,-0.92961 -4.50087,-2.78209 -6.62014,-4.11664 l -3.85323,-2.42644 -2.50266,0.62813 -2.50267,0.62813 -2.44384,-1.60127 -2.443836,-1.60126 0.563368,-1.77502 0.563369,-1.77502 -7.013639,-4.40089 -7.01364,-4.40089 v -3.26846 -3.26845 h 5.013569 5.013569 l 2.117084,1.25 2.117085,1.25 0.45268,-1.25 0.45268,-1.25 h 1.405231 c 0.77288,0 2.31039,0.77501 3.41667,1.72224 l 2.01143,1.72224 v 1.60345 1.60344 l 2.25,2.03007 c 1.2375,1.11654 3.73153,2.87825 5.5423,3.91491 l 3.29228,1.88483 0.93261,-1.49059 0.93261,-1.49059 2.77158,1.53637 2.77158,1.53637 0.50352,2.67343 0.50352,2.67344 6.49033,4.50667 6.49033,4.50667 0.74307,-2.00869 0.74306,-2.00869 3.01661,2.23027 3.0166,2.23028 v 2.11975 2.11975 l 5.74499,4.2174 5.74498,4.2174 1.17192,-1.60271 1.17193,-1.6027 2.46571,1.61559 2.46571,1.6156 0.55987,2.79935 0.55987,2.79934 3.57972,2.73039 3.57973,2.73039 3.59252,-2.2203 3.59252,-2.2203 1.38362,-3.31147 1.38362,-3.31147 2.20837,-1.18188 2.20838,-1.18189 0.97683,1.5486 0.97683,1.5486 2.56644,-1.60451 c 1.41154,-0.88249 4.25394,-2.90155 6.31644,-4.48681 l 3.75,-2.8823 v -1.84787 -1.84788 l 2.93722,-2.09149 2.93722,-2.09148 0.95854,1.71281 0.95853,1.71281 7.59133,-4.93942 7.59133,-4.93942 0.0129,-2.18191 0.0129,-2.1819 3,-2.13619 3,-2.13619 v 1.5681 1.56809 l 1.25,-0.0278 c 0.6875,-0.0153 3.05,-1.38459 5.25,-3.04288 l 4,-3.01505 0.50352,-2.67076 0.50352,-2.67075 2.77158,-1.53637 2.77158,-1.53637 0.7513,1.19721 0.75129,1.19722 1.4736,-0.9319 1.47361,-0.9319 5.25,-0.0153 5.25,-0.0153 v 2.92164 2.92164 l -4.57257,2.82836 c -2.51492,1.5556 -5.77742,3.82664 -7.25,5.04676 l -2.67743,2.2184 1.25,0.0316 1.25,0.0316 v 1.13976 c 0,0.62686 -0.7875,1.73755 -1.75,2.46819 l -1.75,1.32844 -3.34105,0.0318 -3.34105,0.0318 -5.91034,4.14587 -5.91034,4.14586 1.14978,1.38539 1.14977,1.38539 -1.89839,1.48089 -1.89838,1.48089 -2.87063,-0.51127 -2.87063,-0.51127 -5.85652,3.55765 c -3.22109,1.95671 -6.13055,4.00103 -6.46546,4.54293 l -0.60894,0.98528 1.15685,1.39392 1.15686,1.39392 -3.06214,1.5835 -3.06213,1.58349 -2.33516,-0.58609 -2.33515,-0.58609 -6.16246,3.81487 -7.25592,5.42201 3.75,2.66999 c -3.67268,2.78074 -5e-5,0.0803 -3.75,2.93774 l 3.90898,4.18088 c 5.49512,3.52622 6.16245,3.69994 6.16245,1.60425 v -1.5 h 0.77749 c 0.42763,0 1.74821,0.67991 2.93463,1.51092 l 2.15714,1.51092 0.31537,2.57753 0.31537,2.57753 5.84413,3.61904 5.84413,3.61903 0.92378,-1.65069 0.92378,-1.6507 2.97577,1.69321 2.97576,1.69321 0.006,2.23853 0.006,2.23853 6.22202,4.52744 6.22202,4.52743 0.77241,-2.08802 0.77241,-2.08803 3.00557,2.14016 3.00557,2.14015 v 2.29032 2.29033 l 5.48462,3.64158 c 3.01653,2.00287 5.90854,3.64158 6.42667,3.64158 h 0.94206 l 0.32333,-1.45542 0.32332,-1.45541 2.26182,1.71863 2.26181,1.71863 0.59991,2.48678 c 0.32995,1.36774 0.82387,3.94929 1.09759,5.73679 l 0.49768,3.25 h -5.12297 -5.12298 l -1.96147,-1.22496 -1.96147,-1.22496 -1.12248,1.12248 -1.12248,1.12248 -2.86028,-1.64157 -2.86028,-1.64158 0.54243,-2.16121 0.54243,-2.16121 -6.25872,-4.25022 -6.25872,-4.25022 -3.4405,0.12934 -3.4405,0.12934 -1.86895,-1.00023 -1.86894,-1.00023 0.23353,-2.16107 0.23354,-2.16108 -6.87982,-4.26159 -6.87983,-4.26158 -2.62017,0.51113 -2.62018,0.51113 -1.96225,-1.45388 -1.96226,-1.45388 1.2541,-1.5111 1.2541,-1.51109 -7.4079,-4.61714 -7.40789,-4.61713 -1.70141,0.65289 -1.70141,0.65289 -2.49609,-1.33586 -2.49608,-1.33587 0.47189,-1.80451 0.47189,-1.8045 -2.10195,-1.47227 -1.96124,-1.47227 -1.96124,1.64755 -1.82053,1.64754 0.60483,1.90566 0.60484,1.90566 -1.8407,1.40843 -1.8407,1.40843 -2.62984,-0.53493 -2.62984,-0.53494 -5.87016,4.11583 -5.87016,4.11582 0.327,2.02069 0.327,2.0207 -1.827,1.33928 -1.827,1.33928 -2.7324,-0.54422 -2.7324,-0.54421 -6.04318,3.87148 -6.04318,3.87148 0.51715,2.14051 0.51716,2.14051 -2.48716,1.62965 -2.48716,1.62965 -2.45012,-0.61494 -2.45013,-0.61495 -6.1009,3.76569 c -3.35549,2.07113 -6.35571,4.17799 -6.66715,4.68192 l -0.56626,0.91622 1.03932,1.03932 1.03931,1.03932 -2.88743,2.42961 -2.88744,2.42962 -2.03901,-1.09125 -2.039018,-1.09125 -1.934259,1.03519 -1.934258,1.03518 h -5.597126 -5.597127 z"
         id="path2345"
         style="fill:#fd0707;stroke:#000000;stroke-width:5.11517;stroke-miterlimit:4;stroke-dasharray:none;stroke-opacity:1" />
    </g>
  </g>
  <path
     d="m 655.70832,72.992423 -50.14069,50.140697 -75.65477,75.65476"
     id="path7880"
     style="fill:none;fill-rule:evenodd;stroke:#000000;stroke-width:3;stroke-linecap:butt;stroke-linejoin:miter;stroke-miterlimit:4;stroke-dasharray:none;stroke-opacity:1" />
  <g
     transform="matrix(-0.4147117,0.4147117,0.4147117,0.4147117,60.532027,38.629371)"
     id="g7890"
     style="stroke:#000000;stroke-opacity:1">
    <g
       transform="translate(-70.7143,-100)"
       id="g7892"
       style="stroke:#000000;stroke-opacity:1">
      <path
         d="m 81.428574,234.50504 v -60 h 89.999996 90 v 60 60 h -90 -89.999996 z"
         id="path7894"
         style="fill:#fdfbf9;stroke:#000000;stroke-width:5.11517;stroke-miterlimit:4;stroke-dasharray:none;stroke-opacity:1" />
      <path
         d="m 81.775908,292.96779 -0.589896,-1.53724 1.621281,-1.7915 1.621281,-1.79149 v -1.59868 -1.59868 l 2.687205,-2.11376 2.687205,-2.11375 0.883629,1.57896 0.883629,1.57895 3.679166,-2.19954 c 2.023541,-1.20976 4.691666,-3.1052 5.929162,-4.2121 l 2.25,-2.01255 v -1.75759 -1.75759 l 2.90437,-2.0681 c 3.49612,-2.48945 4.09563,-2.55694 4.09563,-0.4611 v 1.60699 l 1.32886,-0.50993 c 0.73087,-0.28046 3.88087,-2.14243 7,-4.13772 l 5.67114,-3.62779 v -2.41256 -2.41257 l 2.22251,-1.55671 c 2.75305,-1.92831 3.54139,-1.95305 3.95417,-0.12412 l 0.32332,1.43258 5.75,-3.58163 5.75,-3.58163 v -1.8987 -1.8987 l 2.64603,-2.45225 c 1.45531,-1.34874 3.03031,-2.45225 3.5,-2.45225 h 0.85397 v 1.5 1.5 l 0.75,-0.0248 c 0.4125,-0.0136 2.96988,-1.65279 5.68306,-3.64256 l 4.93306,-3.61778 -4.25032,-2.93774 4.25032,-2.93775 -8.8916,-5.18499 -5.57649,-3.84561 -2.45343,0.61577 -2.45343,0.61577 -2.51307,-1.64663 -2.51307,-1.64662 1.0879,-1.31084 1.08789,-1.31083 -6.27421,-4.5654 -6.27421,-4.56541 -1.86991,0.59349 -1.86992,0.59349 -2.90194,-1.20202 -2.90193,-1.20202 0.99257,-1.85463 0.99256,-1.85463 -2.76691,-1.69019 c -1.5218,-0.92961 -4.50087,-2.78209 -6.62014,-4.11664 l -3.85323,-2.42644 -2.50266,0.62813 -2.50267,0.62813 -2.443835,-1.60127 -2.443839,-1.60126 0.563368,-1.77502 0.563369,-1.77502 -7.013639,-4.40089 -7.01364,-4.40089 v -3.26846 -3.26845 h 5.013569 5.013569 l 2.117084,1.25 2.117085,1.25 0.45268,-1.25 0.45268,-1.25 h 1.405235 c 0.77288,0 2.310384,0.77501 3.416664,1.72224 l 2.01143,1.72224 v 1.60345 1.60344 l 2.25,2.03007 c 1.2375,1.11654 3.73153,2.87825 5.5423,3.91491 l 3.29228,1.88483 0.93261,-1.49059 0.93261,-1.49059 2.77158,1.53637 2.77158,1.53637 0.50352,2.67343 0.50352,2.67344 6.49033,4.50667 6.49033,4.50667 0.74307,-2.00869 0.74306,-2.00869 3.01661,2.23027 3.0166,2.23028 v 2.11975 2.11975 l 5.74499,4.2174 5.74498,4.2174 1.17192,-1.60271 1.17193,-1.6027 2.46571,1.61559 2.46571,1.6156 0.55987,2.79935 0.55987,2.79934 3.57972,2.73039 3.57973,2.73039 3.59252,-2.2203 3.59252,-2.2203 1.38362,-3.31147 1.38362,-3.31147 2.20837,-1.18188 2.20838,-1.18189 0.97683,1.5486 0.97683,1.5486 2.56644,-1.60451 c 1.41154,-0.88249 4.25394,-2.90155 6.31644,-4.48681 l 3.75,-2.8823 v -1.84787 -1.84788 l 2.93722,-2.09149 2.93722,-2.09148 0.95854,1.71281 0.95853,1.71281 7.59133,-4.93942 7.59133,-4.93942 0.0129,-2.18191 0.0129,-2.1819 3,-2.13619 3,-2.13619 v 1.5681 1.56809 l 1.25,-0.0278 c 0.6875,-0.0153 3.05,-1.38459 5.25,-3.04288 l 4,-3.01505 0.50352,-2.67076 0.50352,-2.67075 2.77158,-1.53637 2.77158,-1.53637 0.7513,1.19721 0.75129,1.19722 1.4736,-0.9319 1.47361,-0.9319 5.25,-0.0153 5.25,-0.0153 v 2.92164 2.92164 l -4.57257,2.82836 c -2.51492,1.5556 -5.77742,3.82664 -7.25,5.04676 l -2.67743,2.2184 1.25,0.0316 1.25,0.0316 v 1.13976 c 0,0.62686 -0.7875,1.73755 -1.75,2.46819 l -1.75,1.32844 -3.34105,0.0318 -3.34105,0.0318 -5.91034,4.14587 -5.91034,4.14586 1.14978,1.38539 1.14977,1.38539 -1.89839,1.48089 -1.89838,1.48089 -2.87063,-0.51127 -2.87063,-0.51127 -5.85652,3.55765 c -3.22109,1.95671 -6.13055,4.00103 -6.46546,4.54293 l -0.60894,0.98528 1.15685,1.39392 1.15686,1.39392 -3.06214,1.5835 -3.06213,1.58349 -2.33516,-0.58609 -2.33515,-0.58609 -6.16246,3.81487 -7.25592,5.42201 3.75,2.66999 c -3.67268,2.78074 -5e-5,0.0803 -3.75,2.93774 l 3.90898,4.18088 c 5.49512,3.52622 6.16245,3.69994 6.16245,1.60425 v -1.5 h 0.77749 c 0.42763,0 1.74821,0.67991 2.93463,1.51092 l 2.15714,1.51092 0.31537,2.57753 0.31537,2.57753 5.84413,3.61904 5.84413,3.61903 0.92378,-1.65069 0.92378,-1.6507 2.97577,1.69321 2.97576,1.69321 0.006,2.23853 0.006,2.23853 6.22202,4.52744 6.22202,4.52743 0.77241,-2.08802 0.77241,-2.08803 3.00557,2.14016 3.00557,2.14015 v 2.29032 2.29033 l 5.48462,3.64158 c 3.01653,2.00287 5.90854,3.64158 6.42667,3.64158 h 0.94206 l 0.32333,-1.45542 0.32332,-1.45541 2.26182,1.71863 2.26181,1.71863 0.59991,2.48678 c 0.32995,1.36774 0.82387,3.94929 1.09759,5.73679 l 0.49768,3.25 h -5.12297 -5.12298 l -1.96147,-1.22496 -1.96147,-1.22496 -1.12248,1.12248 -1.12248,1.12248 -2.86028,-1.64157 -2.86028,-1.64158 0.54243,-2.16121 0.54243,-2.16121 -6.25872,-4.25022 -6.25872,-4.25022 -3.4405,0.12934 -3.4405,0.12934 -1.86895,-1.00023 -1.86894,-1.00023 0.23353,-2.16107 0.23354,-2.16108 -6.87982,-4.26159 -6.87983,-4.26158 -2.62017,0.51113 -2.62018,0.51113 -1.96225,-1.45388 -1.96226,-1.45388 1.2541,-1.5111 1.2541,-1.51109 -7.4079,-4.61714 -7.40789,-4.61713 -1.70141,0.65289 -1.70141,0.65289 -2.49609,-1.33586 -2.49608,-1.33587 0.47189,-1.80451 0.47189,-1.8045 -2.10195,-1.47227 -1.96124,-1.47227 -1.96124,1.64755 -1.82053,1.64754 0.60483,1.90566 0.60484,1.90566 -1.8407,1.40843 -1.8407,1.40843 -2.62984,-0.53493 -2.62984,-0.53494 -5.87016,4.11583 -5.87016,4.11582 0.327,2.02069 0.327,2.0207 -1.827,1.33928 -1.827,1.33928 -2.7324,-0.54422 -2.7324,-0.54421 -6.04318,3.87148 -6.04318,3.87148 0.51715,2.14051 0.51716,2.14051 -2.48716,1.62965 -2.48716,1.62965 -2.45012,-0.61494 -2.45013,-0.61495 -6.1009,3.76569 c -3.35549,2.07113 -6.35571,4.17799 -6.66715,4.68192 l -0.56626,0.91622 1.03932,1.03932 1.03931,1.03932 -2.88743,2.42961 -2.88744,2.42962 -2.03901,-1.09125 -2.039016,-1.09125 -1.934259,1.03519 -1.934258,1.03518 h -5.597126 -5.597127 z"
         id="path7896"
         style="fill:#fd0707;stroke:#000000;stroke-width:5.11517;stroke-miterlimit:4;stroke-dasharray:none;stroke-opacity:1" />
    </g>
  </g>
  <path
     d="m 86.911382,74.036781 49.573998,49.573999 74.98853,74.98852"
     id="path7898"
     style="fill:none;fill-rule:evenodd;stroke:#000000;stroke-width:3;stroke-linecap:butt;stroke-linejoin:miter;stroke-miterlimit:4;stroke-dasharray:none;stroke-opacity:1" />
  <path
     style="opacity:0.45;fill:url(#radialGradient5504);fill-opacity:1;fill-rule:evenodd;stroke:#000000;stroke-width:4;stroke-linecap:round;stroke-linejoin:round;stroke-miterlimit:4;stroke-dasharray:none;stroke-opacity:1"
     d="m 6,4.87533 728.64722,-0.13194 0.63706,339.44229 C 722.35612,540.2546 612.06784,694.33926 377.93634,814 119.85448,702.82789 28.457192,515.78669 8.175066,342.01061 Z"
     id="path3713"
     sodipodi:nodetypes="cccccc" />
</svg>
