<?xml version="1.0" encoding="UTF-8" standalone="no"?>
<svg
   viewBox="0 0 1150 1150"
   version="1.1"
   id="svg183"
   sodipodi:docname="armarria_Zumarraga.svg"
   width="1150"
   height="1150"
   inkscape:version="1.3.2 (091e20ef0f, 2023-11-25)"
   xmlns:inkscape="http://www.inkscape.org/namespaces/inkscape"
   xmlns:sodipodi="http://sodipodi.sourceforge.net/DTD/sodipodi-0.dtd"
   xmlns="http://www.w3.org/2000/svg"
   xmlns:svg="http://www.w3.org/2000/svg">
  <defs
     id="defs183" />
  <sodipodi:namedview
     id="namedview183"
     pagecolor="#ffffff"
     bordercolor="#000000"
     borderopacity="0.25"
     inkscape:showpageshadow="2"
     inkscape:pageopacity="0.0"
     inkscape:pagecheckerboard="0"
     inkscape:deskcolor="#d1d1d1"
     inkscape:zoom="0.70521739"
     inkscape:cx="400.5857"
     inkscape:cy="575"
     inkscape:window-width="1920"
     inkscape:window-height="1008"
     inkscape:window-x="0"
     inkscape:window-y="0"
     inkscape:window-maximized="1"
     inkscape:current-layer="svg183" />
  <g
     stroke="#000000"
     stroke-linecap="round"
     stroke-linejoin="round"
     id="g36">
    <path
       d="m 115.227,919.8351 c 2.5248,-3.7467 9.1809,-6.2584 15,-7.6336 20.4368,-3.4188 24.874,34.6846 7.2528,36.2714 -11.3706,1.0239 -25.231,2.5224 -33.5582,4.3724 z"
       fill="#e5e5e5"
       id="path1" />
    <path
       d="m 137.4798,948.4729 c -11.8165,1.1415 -11.2896,-17.7968 -5.7119,-22.2322 -5.9043,1.1303 -13.4047,2.354 -21.7895,3.5613"
       fill="none"
       id="path2" />
    <path
       d="m 76.7439,1143.1224 c 54.854,27.3029 91.3683,-37.5443 58.976,-108.8791 -18.1023,-39.8651 -31.6464,-93.0755 -17.1238,-114.6262 2.5248,-3.7467 5.8688,-6.0404 11.6308,-7.4156 -19.7492,4.5398 -44.3104,6.9281 -52.7208,14.6043 -16.3499,14.9228 -3.7384,74.9903 16.909,117.5247 25.4893,52.5087 10.5947,101.5966 -34.7352,89.1882 5.4311,3.3647 11.1942,6.608 17.064,9.6037 z"
       fill="#e5e5e5"
       id="path3" />
    <path
       d="m 684.7732,919.8351 c -2.5248,-3.7467 -9.1809,-6.2584 -15,-7.6336 -20.4368,-3.4188 -24.874,34.6846 -7.2528,36.2714 11.3706,1.0239 25.231,2.5224 33.5582,4.3724 z"
       fill="#e5e5e5"
       id="path4" />
    <path
       d="m 662.5204,948.4729 c 11.8165,1.1415 11.2896,-17.7968 5.7119,-22.2322 5.9043,1.1303 13.4047,2.354 21.7895,3.5613"
       fill="none"
       id="path5" />
    <path
       d="m 723.2562,1143.1224 c -54.854,27.3029 -91.3683,-37.5443 -58.976,-108.8791 18.1023,-39.8651 31.6464,-93.0755 17.1238,-114.6262 -2.5248,-3.7467 -5.8688,-6.0404 -11.6308,-7.4156 19.7492,4.5398 44.3104,6.9281 52.7208,14.6043 16.3499,14.9228 3.7384,74.9903 -16.909,117.5247 -25.4893,52.5087 -10.5947,101.5966 34.7352,89.1882 -5.4311,3.3647 -11.1942,6.608 -17.064,9.6037 z"
       fill="#e5e5e5"
       id="path6" />
    <path
       d="m 723.2562,1143.1224 c 8.5933,-4.3355 17.3306,-8.1837 26.4496,-12.8874 59.1049,-30.487 44.9916,-187.4102 -350.3135,-187.4102 -395.3051,0 -408.2027,156.9232 -349.0979,187.4102 9.119,4.7037 17.8563,8.5519 26.4496,12.8874 -56.1967,-28.2771 -15.0621,-156.6329 322.6483,-156.6329 337.7104,0 380.0606,128.3558 323.8639,156.6329 z"
       fill="#e5e5e5"
       id="path7" />
    <path
       d="m 51.9733,1086.1161 q 0.5563,0.083 0.8761,-0.1533 0.3406,-0.3756 0.4238,-0.9319 l 0.0833,-0.5563 0.8345,0.1249 -0.8949,5.9803 -0.8345,-0.1249 0.1041,-0.6954 q 0.1041,-0.6954 -0.1325,-1.0152 -0.2365,-0.3197 -0.7928,-0.403 l -18.219,-2.7264 -0.0416,0.2781 19.4584,7.7464 -0.1249,0.8345 -20.394,1.356 -0.0416,0.2781 17.8018,2.664 q 0.5563,0.083 0.8761,-0.1532 0.3406,-0.3756 0.4238,-0.932 l 0.0624,-0.4172 0.8345,0.1249 -0.6244,4.1723 -0.8345,-0.1249 0.0624,-0.4172 q 0.1041,-0.6954 -0.1325,-1.0152 -0.2365,-0.3198 -0.7928,-0.403 l -19.8879,-2.9762 q -0.5563,-0.083 -0.8761,0.1533 -0.3198,0.2365 -0.4238,0.9319 l -0.0833,0.5563 -0.8345,-0.1249 0.6036,-4.0332 19.2398,-1.2443 0.0416,-0.2782 -17.991,-7.1002 0.666,-4.4505 0.8345,0.1249 -0.0833,0.5563 q -0.0833,0.5563 0.1325,1.0152 0.2365,0.3197 0.7928,0.403 z"
       id="path8" />
    <path
       d="m 56.0963,1068.7375 0.1284,-0.2502 -14.6379,-7.5124 q -0.5004,-0.2569 -0.8791,-0.1351 -0.3786,0.1218 -0.6997,0.7474 l -0.5137,1.0009 -0.7507,-0.3853 2.5684,-5.0044 0.7507,0.3852 -0.5137,1.0009 q -0.2568,0.5005 -0.1992,1.0042 0.1218,0.3787 0.6222,0.6355 l 19.6423,10.0808 -0.3853,0.7506 -23.5213,-0.059 -0.1284,0.2502 16.8899,8.6682 q 0.5004,0.2569 0.8791,0.1351 0.4428,-0.2469 0.6997,-0.7474 l 0.5137,-1.0009 0.7507,0.3853 -2.5684,5.0044 -0.7507,-0.3853 0.5137,-1.0008 q 0.321,-0.6256 0.1992,-1.0042 -0.1218,-0.3787 -0.6222,-0.6355 l -17.8908,-9.1819 q -0.5004,-0.2568 -0.8791,-0.135 -0.3786,0.1218 -0.6997,0.7474 l -0.3853,0.7506 -0.7507,-0.3852 1.8621,-3.6282 z"
       id="path9" />
    <path
       d="m 66.3133,1064.6862 q -0.5422,0.6465 -1.425,0.8238 -0.7925,0.07 -1.5467,-0.5631 -0.7542,-0.6325 -0.8237,-1.425 0.0209,-0.9002 0.563,-1.5467 0.5422,-0.6464 1.4424,-0.6256 0.8828,-0.1773 1.5293,0.3649 0.7542,0.6326 0.7334,1.5328 0.0695,0.7925 -0.4727,1.4389 z"
       id="path10" />
    <path
       d="m 85.4421,1042.2524 q 0.3686,0.4249 0.7654,0.453 0.503,-0.064 0.9279,-0.4326 l 0.4249,-0.3686 0.5529,0.6373 -4.5675,3.9627 -0.5529,-0.6373 0.5311,-0.4608 q 0.5311,-0.4608 0.5592,-0.8575 0.0281,-0.3968 -0.3405,-0.8217 l -12.0724,-13.9148 -0.2124,0.1843 9.7511,18.5352 -0.6373,0.5529 -16.3789,-12.2264 -0.2124,0.1843 11.7959,13.5962 q 0.3686,0.4249 0.7654,0.453 0.503,-0.064 0.9279,-0.4326 l 0.3187,-0.2765 0.5529,0.6373 -3.1866,2.7647 -0.5529,-0.6373 0.3187,-0.2765 q 0.5311,-0.4608 0.5592,-0.8575 0.0281,-0.3968 -0.3405,-0.8217 l -13.1783,-15.1894 q -0.3686,-0.4249 -0.7654,-0.453 -0.3968,-0.028 -0.9279,0.4326 l -0.4249,0.3686 -0.5529,-0.6373 3.0804,-2.6725 15.4293,11.561 0.2124,-0.1843 -9.0561,-17.0904 3.399,-2.9489 0.5529,0.6373 -0.4249,0.3686 q -0.4249,0.3686 -0.5592,0.8575 -0.0281,0.3968 0.3405,0.8217 z"
       id="path11" />
    <path
       d="m 92.0887,1037.4789 q 0.3163,0.4652 0.707,0.5396 0.507,0 0.9722,-0.321 l 3.1397,-2.135 q 1.628,-1.1071 2.1582,-2.8282 0.4512,-1.8373 -0.3908,-4.3258 l 0.7396,-0.1628 2.0374,5.2468 -11.9774,8.1449 -0.4745,-0.6978 0.814,-0.5535 q 0.5814,-0.3954 0.6558,-0.7861 0.0744,-0.3907 -0.2419,-0.8559 l -11.3079,-16.6288 q -0.3163,-0.4651 -0.707,-0.5396 -0.3907,-0.074 -0.9722,0.321 l -0.6977,0.4745 -0.4745,-0.6978 5.4654,-3.7165 0.4745,0.6977 -0.814,0.5535 q -0.4651,0.3163 -0.6558,0.7861 -0.0744,0.3907 0.2419,0.8559 z"
       id="path12" />
    <path
       d="m 107.6482,1030.343 q -0.7379,0.4092 -1.6256,0.2582 -0.7647,-0.2192 -1.242,-1.0801 -0.4773,-0.8609 -0.2581,-1.6256 0.3422,-0.8329 1.0801,-1.2421 0.7379,-0.4091 1.5708,-0.067 0.8877,0.151 1.2968,0.8889 0.4773,0.8609 0.1352,1.6938 -0.2192,0.7647 -0.9571,1.1738 z"
       id="path13" />
    <path
       d="m 120.5936,999.0657 q -0.229,-0.8242 -0.7896,-1.0283 -0.4332,-0.2636 -1.3254,0.1523 l -0.2549,0.1188 -0.3565,-0.7648 4.9709,-2.317 0.3565,0.7648 -0.3824,0.1782 q -0.6373,0.2971 -0.9095,1.0445 -0.3316,0.62 -0.2981,1.6905 l 0.7422,11.9109 3.4458,7.3927 q 0.2377,0.5098 0.6114,0.6459 0.5012,0.077 1.011,-0.1609 l 1.1471,-0.5348 0.3565,0.7648 -6.6279,3.0893 -0.3565,-0.7647 1.1471,-0.5347 q 0.6373,-0.297 0.7734,-0.6708 0.1361,-0.3737 -0.1016,-0.8835 l -3.0893,-6.6279 -9.5617,-9.1965 q -0.552,-0.5184 -1.1126,-0.7226 -0.5606,-0.2041 -1.1979,0.093 l -0.2549,0.1188 -0.3565,-0.7648 5.6082,-2.6141 0.3565,0.7648 -0.7648,0.3565 q -0.7648,0.3564 -0.714,0.7982 0.0507,0.4418 0.6622,1.0877 l 7.8378,7.8279 0.2549,-0.1189 z"
       id="path14" />
    <path
       d="m 156.9266,1005.6948 q 0.1977,0.5265 0.5599,0.691 0.4938,0.1149 1.0204,-0.082 l 0.5266,-0.1978 0.2966,0.7898 -5.6609,2.1258 -0.2966,-0.79 0.6583,-0.2471 q 0.6583,-0.2471 0.8227,-0.6094 0.1644,-0.3621 -0.0333,-0.8887 l -6.476,-17.2461 -0.2633,0.0988 2.6921,20.7701 -0.7899,0.2966 -11.101,-17.1618 -0.2633,0.0988 6.3277,16.8511 q 0.1977,0.5265 0.5599,0.691 0.4938,0.115 1.0204,-0.083 l 0.395,-0.1483 0.2966,0.7899 -3.9495,1.4832 -0.2966,-0.7901 0.395,-0.1482 q 0.6583,-0.2472 0.8227,-0.6095 0.1644,-0.362 -0.0333,-0.8887 l -7.0693,-18.8258 q -0.1977,-0.5266 -0.5599,-0.691 -0.3622,-0.1644 -1.0204,0.0828 l -0.5266,0.1977 -0.2966,-0.7899 3.8178,-1.4336 10.4422,16.2072 0.2633,-0.099 -2.5432,-19.1735 4.2128,-1.5819 0.2966,0.7899 -0.5266,0.1977 q -0.5266,0.1977 -0.8227,0.6093 -0.1644,0.3622 0.0333,0.8888 z"
       id="path15" />
    <path
       d="m 164.1768,1005.789 q -0.8039,0.2563 -1.6447,-0.066 -0.7068,-0.365 -1.0057,-1.3029 -0.2989,-0.9379 0.0661,-1.6447 0.4991,-0.7494 1.303,-1.0057 0.8039,-0.2562 1.5534,0.2429 0.8408,0.3222 1.097,1.1262 0.299,0.9379 -0.2001,1.6873 -0.3651,0.7068 -1.169,0.9631 z"
       id="path16" />
    <path
       d="m 184.0491,998.4882 0.2211,0.8143 -6.5141,1.769 -0.2211,-0.8143 0.95,-0.2579 q 0.6786,-0.1843 0.8763,-0.5295 0.1977,-0.3451 0.0503,-0.888 l -5.2701,-19.4065 q -0.1474,-0.5429 -0.4925,-0.7406 -0.3451,-0.1977 -1.0237,-0.0134 l -0.8143,0.2211 -0.2211,-0.8143 14.1139,-3.8328 2.9553,4.4433 -0.6049,0.4557 q -1.6753,-1.8765 -3.463,-2.5568 -1.7876,-0.6803 -3.5519,-0.2012 l -3.7999,1.0319 q -0.5429,0.1474 -0.8763,0.5294 -0.1977,0.3451 -0.0503,0.888 l 2.3586,8.6855 4.4784,-1.2162 q 1.3571,-0.3685 1.7525,-1.0588 0.4943,-0.8628 0.1258,-2.2199 l -0.1843,-0.6786 0.8143,-0.2211 2.1375,7.8712 -0.8143,0.2211 -0.1474,-0.5429 q -0.4423,-1.6285 -1.3419,-2.2585 -0.764,-0.6668 -2.1211,-0.2983 l -4.4784,1.2162 2.6903,9.9069 q 0.1474,0.5428 0.4925,0.7405 0.4808,0.1609 1.0237,0.0134 z"
       id="path17" />
    <path
       d="m 192.3952,973.214 -0.1902,-0.822 10.9604,-2.5359 0.1902,0.822 -3.1511,0.7291 q -0.548,0.1268 -0.8956,0.4959 -0.2106,0.3374 -0.0838,0.8854 l 4.533,19.5918 q 0.1268,0.548 0.4642,0.7586 0.4744,0.1789 1.0224,0.0521 l 3.1511,-0.7291 0.1902,0.822 -10.9605,2.536 -0.1902,-0.8221 3.1511,-0.7291 q 0.685,-0.1585 0.8956,-0.4959 0.2106,-0.3374 0.0838,-0.8855 l -4.533,-19.5918 q -0.1268,-0.548 -0.4642,-0.7586 -0.3374,-0.2106 -1.0224,-0.0521 z"
       id="path18" />
    <path
       d="m 208.5253,969.5432 -0.1627,-0.8279 13.5226,-2.6578 2.4399,4.3932 -0.6357,0.4116 q -1.5107,-1.8528 -2.9424,-2.5746 -1.4588,-0.8598 -2.9767,-0.5615 l -3.8636,0.7594 q -0.552,0.1085 -0.9117,0.4658 -0.2217,0.3302 -0.1133,0.8821 l 1.6814,8.5551 4.0016,-0.7865 q 1.3799,-0.2712 1.7962,-1.0696 0.5543,-0.8255 0.2831,-2.2054 l -0.1627,-0.8279 0.8279,-0.1627 1.6001,8.1411 -0.8279,0.1627 -0.1085,-0.552 q -0.2983,-1.5178 -1.151,-2.2102 -0.7147,-0.7194 -2.0945,-0.4482 l -4.0016,0.7865 2.034,10.3489 q 0.1085,0.5519 0.4387,0.7737 0.4682,0.1946 1.0201,0.0861 l 3.5876,-0.7051 q 2.0698,-0.4068 3.2327,-1.7819 1.2738,-1.5402 1.6135,-4.1866 l 0.7442,0.1404 -0.4602,5.6798 -14.0745,2.7662 -0.1627,-0.8279 0.8279,-0.1627 q 0.6899,-0.1356 0.9117,-0.4658 0.2217,-0.3302 0.1133,-0.8822 l -3.8782,-19.7319 q -0.1085,-0.5519 -0.4387,-0.7737 -0.3302,-0.2218 -1.0201,-0.0861 z"
       id="path19" />
    <path
       d="m 234.8039,986.1977 q 0.0922,0.5549 0.4156,0.7863 0.4622,0.2084 1.0171,0.1163 l 3.7457,-0.6215 q 1.9422,-0.3223 3.1454,-1.6623 1.1801,-1.4787 1.4594,-4.0909 l 0.7397,0.1624 -0.3509,5.6176 -14.289,2.3708 -0.1381,-0.8324 0.9711,-0.1611 q 0.6936,-0.1151 0.9251,-0.4386 0.2314,-0.3235 0.1394,-0.8784 l -3.2915,-19.8382 q -0.0922,-0.5549 -0.4156,-0.7863 -0.3235,-0.2314 -1.0171,-0.1163 l -0.8324,0.1381 -0.1381,-0.8324 6.5203,-1.0818 0.1381,0.8324 -0.9711,0.1611 q -0.5549,0.0922 -0.9251,0.4386 -0.2314,0.3235 -0.1394,0.8784 z"
       id="path20" />
    <path
       d="m 266.2984,959.7887 -0.0989,-0.8379 5.0276,-0.5936 0.0989,0.8379 -0.5586,0.066 q -0.5586,0.066 -1.0678,0.5509 -0.3695,0.4684 -0.5169,1.6187 l -3.2361,21.7639 -0.8379,0.0989 -7.657,-20.4778 q -0.2551,-0.9611 -0.7235,-1.3306 -0.3453,-0.5256 -1.0435,-0.4432 l -0.6983,0.0824 -0.0989,-0.8379 6.0052,-0.709 0.0989,0.8379 -0.5586,0.066 q -0.6983,0.0824 -0.9281,0.5344 -0.0902,0.4355 0.1319,1.1172 l 5.8395,15.878 0.2793,-0.0329 2.31,-16.4153 q 0.0736,-0.5751 0.0407,-0.8544 -0.0495,-0.419 -0.3618,-0.6653 -0.1891,-0.4025 -1.0271,-0.3035 z"
       id="path21" />
    <path
       d="m 276.2349,958.7097 -0.0787,-0.8401 11.201,-1.0495 0.0787,0.8401 -3.2203,0.3017 q -0.5601,0.0525 -0.9538,0.3719 -0.2538,0.3063 -0.2013,0.8663 l 1.876,20.0217 q 0.0525,0.5601 0.3587,0.8138 0.4463,0.2407 1.0063,0.1882 l 3.2203,-0.3017 0.0787,0.8401 -11.2009,1.0495 -0.0787,-0.8401 3.2203,-0.3017 q 0.7001,-0.0656 0.9538,-0.3719 0.2538,-0.3063 0.2013,-0.8663 l -1.876,-20.0217 q -0.0524,-0.5601 -0.3587,-0.8138 -0.3063,-0.2538 -1.0063,-0.1882 z"
       id="path22" />
    <path
       d="m 515.6122,979.6344 q -0.0619,0.5591 0.1866,0.8696 0.3883,0.326 0.9474,0.388 l 3.7738,0.4182 q 1.9568,0.2168 3.4784,-0.7464 1.5371,-1.103 2.5147,-3.5415 l 0.6679,0.357 -1.862,5.3116 -14.3963,-1.5953 0.0929,-0.8386 0.9784,0.1084 q 0.6988,0.0774 1.0094,-0.1711 0.3105,-0.2486 0.3725,-0.8076 l 2.2148,-19.987 q 0.062,-0.5591 -0.1866,-0.8696 -0.2486,-0.3105 -0.9474,-0.388 l -0.8386,-0.0929 0.0929,-0.8386 6.5692,0.7279 -0.0929,0.8386 -0.9784,-0.1084 q -0.5591,-0.062 -1.0094,0.1711 -0.3105,0.2486 -0.3725,0.8076 z"
       id="path23" />
    <path
       d="m 533.5443,981.7431 q -0.0743,0.5576 0.1673,0.8735 0.381,0.3345 0.9386,0.4089 l 3.7636,0.5017 q 1.9515,0.2602 3.4941,-0.6691 1.5612,-1.0687 2.5926,-3.4848 l 0.6598,0.3717 -1.9793,5.269 -14.3574,-1.9141 0.1115,-0.8364 0.9757,0.1301 q 0.697,0.0929 1.0129,-0.1487 0.316,-0.2416 0.3903,-0.7992 l 2.6574,-19.933 q 0.0743,-0.5576 -0.1673,-0.8735 -0.2416,-0.316 -0.9386,-0.4089 l -0.8364,-0.1115 0.1115,-0.8364 6.5514,0.8734 -0.1115,0.8364 -0.9757,-0.1301 q -0.5576,-0.0743 -1.0129,0.1487 -0.316,0.2416 -0.3903,0.7992 z"
       id="path24" />
    <path
       d="m 558.2228,978.2167 -6.2504,-0.9885 -2.0848,5.0804 q -0.2487,0.6725 -0.3146,1.0892 -0.0879,0.5556 -0.0368,1.1332 0.1899,0.5995 1.1622,0.7533 l 0.4167,0.0659 -0.1318,0.8334 -5.1393,-0.8128 0.1318,-0.8334 0.4167,0.0659 q 0.5556,0.0879 1.0162,-0.124 0.4826,-0.3508 0.7533,-1.1622 l 8.778,-20.3948 2.1933,-0.365 1.8074,22.7807 q 0.146,0.8773 0.4968,1.3599 0.3728,0.3437 0.9284,0.4316 l 0.4167,0.0659 -0.1318,0.8334 -5.9727,-0.9446 0.1318,-0.8334 0.5556,0.0879 q 0.8334,0.1318 1.0162,-0.124 0.2048,-0.3947 0.2487,-0.6725 0.0879,-0.5556 0.0149,-0.9943 z m -0.9618,-12.8232 -0.1389,-0.022 -4.7401,11.0673 5.8337,0.9226 z"
       id="path25" />
    <path
       d="m 597.4147,982.4438 q 1.2817,-5.9095 0.002,-8.6333 -1.2501,-2.8612 -4.411,-3.5468 -0.962,-0.2086 -1.5713,-0.053 -0.4719,0.1855 -0.5911,0.7352 l -4.2623,19.6525 q -0.1192,0.5497 0.2335,0.914 0.3527,0.3643 1.0398,0.5133 3.0235,0.6557 5.5618,-1.0961 2.5682,-1.8892 3.9988,-8.4859 z m -8.7706,-11.9748 q 0.1192,-0.5497 -0.096,-0.8842 -0.2153,-0.3345 -0.9024,-0.4835 l -0.8246,-0.1788 0.1788,-0.8246 6.1843,1.3413 q 4.2603,0.924 6.138,4.2091 2.0151,3.3149 0.7632,9.087 -1.3711,6.3218 -4.5005,8.8087 -3.0997,2.3495 -7.9097,1.3063 l -5.9095,-1.2817 0.1788,-0.8246 0.962,0.2086 q 0.6872,0.149 1.0216,-0.0662 0.3345,-0.2152 0.4537,-0.765 z"
       id="path26" />
    <path
       d="m 605.4572,973.0073 0.2064,-0.8181 13.3626,3.3709 0.3304,5.0144 -0.7506,0.1007 q -0.5749,-2.3205 -1.5613,-3.5845 -0.952,-1.4004 -2.4519,-1.7788 l -3.8179,-0.9631 q -0.5454,-0.1376 -1.0233,0.0319 -0.3415,0.2039 -0.4791,0.7493 l -2.1326,8.4539 3.9543,0.9975 q 1.3635,0.344 2.0809,-0.2002 0.8538,-0.5098 1.1977,-1.8733 l 0.2064,-0.8181 0.8181,0.2064 -2.0294,8.0449 -0.8181,-0.2064 0.1376,-0.5454 q 0.3784,-1.4999 -0.097,-2.49 -0.339,-0.9557 -1.7026,-1.2997 l -3.9543,-0.9975 -2.5798,10.2265 q -0.1376,0.5454 0.0663,0.8869 0.3403,0.3759 0.8857,0.5135 l 3.5452,0.8943 q 2.0453,0.516 3.684,-0.2309 1.8095,-0.8488 3.2467,-3.0968 l 0.613,0.4447 -2.8414,4.9394 -13.9081,-3.5085 0.2064,-0.8181 0.8181,0.2064 q 0.6818,0.172 1.0233,-0.0319 0.3415,-0.2039 0.4791,-0.7493 l 4.9187,-19.4985 q 0.1376,-0.5454 -0.0663,-0.8869 -0.2039,-0.3415 -0.8857,-0.5135 z"
       id="path27" />
    <path
       d="m 643.3289,1007.1576 q 1.7302,0.5903 3.2913,-0.066 1.7396,-0.7437 3.3102,-2.7338 l 0.7531,0.4055 -3.235,4.6911 -12.7767,-4.3595 19.2048,-17.9639 -4.6582,-1.5894 q -1.7302,-0.5904 -3.5575,-0.0251 -1.6488,0.4775 -3.3947,2.1106 l -0.7077,-0.5386 3.1411,-3.9802 12.1113,4.1324 -19.2048,17.9638 z"
       id="path28" />
    <path
       d="m 659.3487,1013.0976 q 1.9591,0.7819 3.7864,0 1.9579,-0.7327 2.7398,-2.6918 l 6.0466,-15.1505 q 0.2085,-0.5224 0.0515,-0.8879 -0.157,-0.3655 -0.81,-0.6261 l -0.7836,-0.3128 0.3127,-0.7836 4.7019,1.8765 -0.3127,0.7837 -0.7837,-0.3128 q -0.5224,-0.2085 -1.0185,-0.1037 -0.3655,0.157 -0.574,0.6794 l -6.0466,15.1504 q -1.0425,2.6122 -3.4965,3.4497 -2.2713,0.759 -4.4916,-0.1271 -2.3509,-0.9383 -3.6582,-2.9741 -1.1766,-1.9837 -0.0299,-4.8571 l 6.0987,-15.281 q 0.2085,-0.5224 0.0515,-0.8879 -0.157,-0.3655 -0.81,-0.6261 l -0.653,-0.2606 0.3127,-0.7836 5.7467,2.2935 -0.3127,0.7836 -0.653,-0.2606 q -0.5224,-0.2085 -1.0185,-0.1037 -0.3655,0.157 -0.574,0.6794 l -6.0987,15.2811 q -1.0425,2.6121 -0.3625,3.9434 0.8106,1.3833 2.6391,2.1131 z"
       id="path29" />
    <path
       d="m 682.3981,1022.0885 q -0.2397,0.5089 -0.1051,0.8832 0.2618,0.4342 0.7707,0.6739 l 0.5089,0.2397 -0.3595,0.7633 -5.4704,-2.5766 0.3595,-0.7634 0.6361,0.2996 q 0.6361,0.2997 1.0104,0.1651 0.3743,-0.1346 0.614,-0.6435 l 7.8497,-16.6658 -0.2544,-0.1198 -13.014,16.4095 -0.7633,-0.3595 4.565,-19.9228 -0.2544,-0.1198 -7.6699,16.2841 q -0.2397,0.5089 -0.1051,0.8831 0.2618,0.4343 0.7707,0.6739 l 0.3817,0.1798 -0.3595,0.7633 -3.8166,-1.7976 0.3595,-0.7633 0.3817,0.1797 q 0.6361,0.2996 1.0104,0.165 0.3743,-0.1346 0.614,-0.6434 l 8.5687,-18.1925 q 0.2397,-0.5089 0.1051,-0.8832 -0.1346,-0.3743 -0.7707,-0.6739 l -0.5089,-0.2397 0.3595,-0.7633 3.6894,1.7377 -4.3401,18.7852 0.2544,0.1198 11.9733,-15.1899 4.071,1.9175 -0.3595,0.7633 -0.5089,-0.2397 q -0.5089,-0.2396 -1.0104,-0.165 -0.3743,0.1346 -0.614,0.6435 z"
       id="path30" />
    <path
       d="m 697.9972,1022.5784 -5.5116,-3.1092 -3.7279,4.0324 q -0.4679,0.5433 -0.6752,0.9108 -0.2764,0.4899 -0.4303,1.0489 -0.0314,0.6281 0.826,1.1118 l 0.3674,0.2073 -0.4146,0.7349 -4.5318,-2.5565 0.4146,-0.7349 0.3674,0.2073 q 0.4899,0.2764 0.9956,0.2387 0.5747,-0.1602 1.1118,-0.826 l 15.348,-16.0449 2.1827,0.424 -6.2624,21.9775 q -0.1696,0.8731 -0.009,1.4478 0.2293,0.4522 0.7192,0.7286 l 0.3674,0.2073 -0.4146,0.7349 -5.2667,-2.971 0.4146,-0.7349 0.4899,0.2764 q 0.7349,0.4145 0.9956,0.2387 0.3298,-0.2984 0.4679,-0.5434 0.2764,-0.4899 0.3612,-0.9264 z m 3.5772,-12.3517 -0.1225,-0.069 -8.3068,8.7149 5.1442,2.9019 z"
       id="path31" />
    <path
       d="m 722.9622,1027.5524 q -1.6006,2.3126 -3.7529,2.7042 -2.1523,0.3915 -3.9312,-0.4976 l -2.4534,10.9575 q -0.0889,0.6226 -0.0177,1.014 0.2669,0.3557 0.6138,0.5958 l 0.6938,0.4802 -0.4802,0.6937 -3.2377,-2.2408 3.0669,-12.5853 -2.6595,-1.8407 -5.7623,8.3254 q -0.3201,0.4625 -0.2489,0.8538 0.1868,0.4714 0.6494,0.7915 l 0.6938,0.4802 -0.4802,0.6938 -5.319,-3.6815 0.4802,-0.6938 0.6938,0.4802 q 0.5782,0.4002 0.9695,0.329 0.3913,-0.071 0.7115,-0.5337 l 11.4445,-16.5352 q 0.3201,-0.4625 0.2489,-0.8538 -0.0712,-0.3913 -0.6494,-0.7915 l -0.6938,-0.4802 0.4802,-0.6938 6.5909,4.5618 q 2.6595,1.8408 3.2468,3.9574 0.7029,2.1968 -0.8978,4.5094 z m -11.6779,-1.4128 2.5439,1.7607 q 1.7345,1.2005 3.611,0.9601 1.8766,-0.2403 3.3972,-2.4373 1.3605,-1.9657 1.0401,-3.7267 -0.2404,-1.8766 -2.4373,-3.3972 l -1.2719,-0.8803 q -0.4625,-0.3201 -0.9695,-0.329 -0.3913,0.071 -0.7115,0.5337 z"
       id="path32" />
    <path
       d="m 738.4371,1040.6338 q -1.8641,2.106 -4.0477,2.239 -2.1836,0.133 -3.8442,-0.9613 l -3.7383,10.5884 q -0.1622,0.6076 -0.138,1.0046 0.2227,0.3849 0.5386,0.6645 l 0.6318,0.5593 -0.5592,0.6318 -2.9484,-2.6098 4.5409,-12.1316 -2.4219,-2.1437 -6.7109,7.5816 q -0.3728,0.4211 -0.3486,0.8182 0.1295,0.4902 0.5507,0.863 l 0.6318,0.5592 -0.5592,0.6318 -4.8438,-4.2875 0.5592,-0.6317 0.6318,0.5592 q 0.5265,0.466 0.9235,0.4418 0.397,-0.024 0.7698,-0.4453 l 13.3285,-15.0579 q 0.3728,-0.4212 0.3486,-0.8182 -0.0242,-0.397 -0.5507,-0.863 l -0.6318,-0.5593 0.5592,-0.6318 6.0021,5.3128 q 2.4219,2.1438 2.7534,4.3152 0.4368,2.2647 -1.4273,4.3707 z m -11.4272,-2.7906 2.3166,2.0505 q 1.5795,1.3981 3.4713,1.3825 1.8919,-0.016 3.6628,-2.0163 1.5845,-1.7901 1.4757,-3.5767 -0.0156,-1.8918 -2.0163,-3.6627 l -1.1583,-1.0253 q -0.4212,-0.3728 -0.9235,-0.4419 -0.397,0.024 -0.7698,0.4454 z"
       id="path33" />
    <path
       d="m 742.1581,1058.9736 -4.0002,-4.9035 -4.9407,2.3973 q -0.6337,0.3355 -0.9606,0.6022 -0.4359,0.3556 -0.7828,0.8201 -0.2581,0.5735 0.3642,1.3363 l 0.2667,0.3268 -0.6538,0.5334 -3.2891,-4.0317 0.6538,-0.5334 0.2667,0.3269 q 0.3556,0.4359 0.8402,0.585 0.5936,0.06 1.3363,-0.3642 l 20.1385,-9.351 1.8782,1.19 -13.8386,18.1858 q -0.476,0.7513 -0.5362,1.3449 0.0487,0.5047 0.4043,0.9405 l 0.2667,0.3269 -0.6538,0.5334 -3.8224,-4.6855 0.6538,-0.5334 0.3556,0.4359 q 0.5334,0.6538 0.8402,0.5849 0.4158,-0.1577 0.6337,-0.3355 0.4359,-0.3555 0.6739,-0.7312 z m 7.8311,-10.1998 -0.0889,-0.1089 -10.9109,5.0898 3.7335,4.5766 z"
       id="path34" />
    <path
       d="m 764.6354,1067.8775 q -0.9216,-1.8974 -4.3767,-2.2515 -3.2671,-0.2892 -8.5799,2.2913 -3.5418,1.7203 -6.1512,4.3947 -2.5479,2.801 -1.1963,5.5838 0.6758,1.3914 1.5505,1.9046 1.0625,0.5783 2.2624,0.1518 l 4.3008,-2.0889 q 0.759,-0.3686 0.9541,-0.9324 0.1951,-0.5638 -0.1735,-1.3228 l -0.3686,-0.759 0.759,-0.3686 3.072,6.3247 -0.759,0.3686 -0.3072,-0.6325 q -0.3072,-0.6324 -0.871,-0.8276 -0.5638,-0.1952 -1.1963,0.112 l -6.3247,3.072 q 0.004,-0.3144 -0.1193,-0.5674 0.0651,-0.1879 -0.0578,-0.4409 -0.1229,-0.253 -0.3723,-0.4445 -0.1229,-0.253 -0.4987,-0.3831 -1.0011,-0.4518 -1.6842,-1.2144 -0.6216,-0.636 -1.1131,-1.648 -1.8432,-3.7948 0.5855,-7.1631 2.5552,-3.4298 6.6029,-5.3959 4.6803,-2.2732 8.9521,-1.8468 4.4598,0.4915 5.9958,3.6539 0.3686,0.7589 0.4807,1.9552 0.1121,1.1963 0.2349,1.4492 0.1843,0.3795 0.4951,0.6976 0.4373,0.2566 0.9397,0.3252 l -5.2007,3.7768 -0.6216,-0.6361 q 2.2877,-2.0492 2.8732,-3.7406 0.712,-1.7528 -0.0867,-3.3973 z"
       id="path35" />
    <path
       d="m 758.0771,1096.6632 -0.6865,-6.2908 -5.4495,-0.6785 q -0.7142,-0.063 -1.1336,-0.018 -0.5592,0.061 -1.1031,0.2619 -0.5287,0.3406 -0.4219,1.3192 l 0.0458,0.4193 -0.8388,0.092 -0.5644,-5.1725 0.8388,-0.091 0.0458,0.4194 q 0.061,0.5592 0.3864,0.9481 0.4652,0.3736 1.3192,0.4218 l 21.9836,3.1181 0.9278,2.0206 -21.508,7.7225 q -0.8083,0.3711 -1.1819,0.8363 -0.2338,0.4499 -0.1728,1.009 l 0.0458,0.4194 -0.8388,0.092 -0.656,-6.0112 0.8388,-0.092 0.061,0.5592 q 0.0915,0.8388 0.3864,0.9481 0.4346,0.094 0.7142,0.063 0.5592,-0.061 0.9633,-0.2466 z m 12.1215,-4.2934 -0.0153,-0.1398 -11.9233,-1.6696 0.6407,5.8714 z"
       id="path36" />
  </g>
  <g
     stroke="#000000"
     stroke-linecap="round"
     stroke-linejoin="round"
     id="g139">
    <path
       d="m 609.5516,207.4999 c 0,8.4147 -45.9425,25.5257 -209.5515,25.5257 -163.609,0 -209.5515,-17.111 -209.5515,-25.5257 0,-8.4147 45.9426,-25.5258 209.5515,-25.5258 163.6089,0 209.5515,17.1111 209.5515,25.5258 z"
       fill="#eac102"
       id="path37" />
    <g
       fill="none"
       id="g85">
      <path
         d="m 215.7539,196.4955 v 22.0089"
         stroke-width="6.6"
         id="path38" />
      <path
         d="m 223.5269,194.7087 v 25.5824"
         stroke-width="6.3"
         id="path39" />
      <path
         d="m 231.3,193.5363 v 27.9272"
         stroke-width="6"
         id="path40" />
      <path
         d="m 239.073,192.0849 v 30.8299"
         stroke-width="5.7"
         id="path41" />
      <path
         d="m 246.8472,190.801 v 33.3979"
         stroke-width="5.4"
         id="path42" />
      <path
         d="m 254.6202,189.6844 v 35.631"
         stroke-width="5.1"
         id="path43" />
      <path
         d="m 262.3933,188.5684 v 37.863"
         stroke-width="4.8"
         id="path44" />
      <path
         d="m 270.1663,187.6192 v 39.7614"
         stroke-width="4.5"
         id="path45" />
      <path
         d="M 277.9405,187.0048 V 227.995"
         stroke-width="4.2"
         id="path46" />
      <path
         d="m 285.7136,186.2794 v 42.441"
         stroke-width="3.9"
         id="path47" />
      <path
         d="m 293.4866,185.1628 v 44.6741"
         stroke-width="3.6"
         id="path48" />
      <path
         d="m 301.2608,184.5485 v 45.9029"
         stroke-width="3.3"
         id="path49" />
      <path
         d="m 309.0339,184.2695 v 46.4609"
         stroke-width="3"
         id="path50" />
      <path
         d="M 316.8069,183.5999 V 231.4"
         stroke-width="2.7"
         id="path51" />
      <path
         d="m 324.5799,183.0413 v 48.9172"
         stroke-width="2.4"
         id="path52" />
      <path
         d="m 332.3541,182.7065 v 49.5868"
         stroke-width="2.1"
         id="path53" />
      <path
         d="m 340.1272,182.2043 v 50.5912"
         stroke-width="1.8"
         id="path54" />
      <path
         d="m 347.9002,181.8689 v 51.262"
         stroke-width="1.5"
         id="path55" />
      <path
         d="m 355.6732,180.8639 v 53.272"
         stroke-width="1.2"
         id="path56" />
      <path
         d="m 363.4475,180.8639 v 53.272"
         stroke-width="0.9"
         id="path57" />
      <path
         d="m 371.2205,180.8639 v 53.272"
         stroke-width="0.6"
         id="path58" />
      <path
         d="m 378.9935,180.8639 v 53.272"
         stroke-width="0.3"
         id="path59" />
      <path
         d="M 200.2066,201.7988 V 213.201"
         stroke-width="7.2"
         id="path60" />
      <path
         d="m 207.9797,198.9512 v 17.0973"
         stroke-width="6.9"
         id="path61" />
      <path
         d="m 584.2463,196.4955 v 22.0089"
         stroke-width="6.6"
         id="path62" />
      <path
         d="m 576.4733,194.7087 v 25.5824"
         stroke-width="6.3"
         id="path63" />
      <path
         d="m 568.7003,193.5363 v 27.9272"
         stroke-width="6"
         id="path64" />
      <path
         d="m 560.9273,192.0849 v 30.8299"
         stroke-width="5.7"
         id="path65" />
      <path
         d="m 553.153,190.801 v 33.3979"
         stroke-width="5.4"
         id="path66" />
      <path
         d="m 545.38,189.6844 v 35.631"
         stroke-width="5.1"
         id="path67" />
      <path
         d="m 537.607,188.5684 v 37.863"
         stroke-width="4.8"
         id="path68" />
      <path
         d="m 529.8339,187.6192 v 39.7614"
         stroke-width="4.5"
         id="path69" />
      <path
         d="M 522.0597,187.0048 V 227.995"
         stroke-width="4.2"
         id="path70" />
      <path
         d="m 514.2867,186.2794 v 42.441"
         stroke-width="3.9"
         id="path71" />
      <path
         d="m 506.5137,185.1628 v 44.6741"
         stroke-width="3.6"
         id="path72" />
      <path
         d="m 498.7394,184.5485 v 45.9029"
         stroke-width="3.3"
         id="path73" />
      <path
         d="m 490.9664,184.2695 v 46.4609"
         stroke-width="3"
         id="path74" />
      <path
         d="M 483.1934,183.5999 V 231.4"
         stroke-width="2.7"
         id="path75" />
      <path
         d="m 475.4203,183.0413 v 48.9172"
         stroke-width="2.4"
         id="path76" />
      <path
         d="m 467.6461,182.7065 v 49.5868"
         stroke-width="2.1"
         id="path77" />
      <path
         d="m 459.8731,182.2043 v 50.5912"
         stroke-width="1.8"
         id="path78" />
      <path
         d="m 452.1001,181.8689 v 51.262"
         stroke-width="1.5"
         id="path79" />
      <path
         d="m 444.327,180.8639 v 53.272"
         stroke-width="1.2"
         id="path80" />
      <path
         d="m 436.5528,180.8639 v 53.272"
         stroke-width="0.9"
         id="path81" />
      <path
         d="m 428.7798,180.8639 v 53.272"
         stroke-width="0.6"
         id="path82" />
      <path
         d="m 421.0067,180.8639 v 53.272"
         stroke-width="0.3"
         id="path83" />
      <path
         d="M 599.7936,201.7988 V 213.201"
         stroke-width="7.2"
         id="path84" />
      <path
         d="m 592.0206,198.9512 v 17.0973"
         stroke-width="6.9"
         id="path85" />
    </g>
    <g
       id="g138">
      <path
         d="m 385.2704,47.975 7.1946,6.809 v 15.102 l -7.1946,6.8102 c -6.1372,5.8093 -12.2064,2.5752 -26.7845,8.6299 -0.5976,-4.5733 -0.337,-8.356 2.8108,-11.7229 -9.4454,-0.5662 -16.972,-5.4305 -23.1108,-11.2683 6.1389,-5.8366 13.6657,-10.7022 23.1108,-11.2684 -3.1477,-3.367 -3.4082,-7.1486 -2.8108,-11.7217 14.5783,6.0536 20.6462,2.8209 26.7845,8.6302 z"
         fill="#eac102"
         id="path86" />
      <path
         d="M 388.9538,62.3347 H 346.9124"
         fill="none"
         id="path87" />
      <path
         d="m 390.7779,67.1517 c -12.3263,7.6431 -17.3963,5.3904 -26.5069,11.7605"
         fill="none"
         id="path88" />
      <path
         d="M 390.7779,57.5179 C 378.4516,49.8748 373.3816,52.1274 364.271,45.7574"
         fill="none"
         id="path89" />
      <path
         d="m 407.5488,54.7972 6.808,-7.197 c 5.8073,-6.1392 2.5744,-12.2091 8.6272,-26.7921 -4.5717,-0.5977 -8.3533,-0.3371 -11.7191,2.8116 -0.5661,-9.4484 -5.429,-16.9776 -11.2648,-23.1197 -5.8358,6.1421 -10.6987,13.6713 -11.2648,23.1197 -3.3658,-3.1487 -7.1473,-3.4093 -11.7191,-2.8116 6.0529,14.5831 2.8199,20.653 8.6272,26.7921 l 6.808,7.197 z"
         fill="#eac102"
         id="path90" />
      <path
         d="M 400.0001,51.286 V 9.2306"
         fill="none"
         id="path91" />
      <path
         d="M 395.1847,53.1095 C 387.5429,40.7791 389.796,35.7075 383.4281,26.595"
         fill="none"
         id="path92" />
      <path
         d="m 188.724,147.3604 c -9.6698,-4.1099 -25.7718,-24.1795 -33.5203,-34.604 l -9.6635,7.206 c 12.5341,16.5507 22.1078,26.9679 29.7455,33.0652 3.8189,3.0487 7.1519,5.0912 10.645,6.1177 z"
         fill="#eac102"
         id="path93" />
      <path
         d="m 611.2764,147.3604 c 9.6698,-4.1099 25.7718,-24.1795 33.5203,-34.604 l 9.6635,7.206 c -12.5341,16.5507 -22.1078,26.9679 -29.7455,33.0652 -3.8189,3.0487 -7.1519,5.0912 -10.645,6.1177 z"
         fill="#eac102"
         id="path94" />
      <path
         d="m 324.8433,108.9282 c -11.0061,25.76 -47.6087,28.8679 -67.6446,6.1552 -7.9081,24.37 -35.579,26.5651 -56.056,11.8788 -1.5542,25.9673 -32.0906,24.3002 -55.603,-6.9997 0,0 -9.0596,-12.06 -13.5893,-18.0901 -1.8972,-2.5256 -1.3136,-6.5398 1.2264,-8.4264 2.54,-1.8867 6.5811,-1.3078 8.4749,1.2203 4.5171,6.0301 13.5516,18.0901 13.5516,18.0901 18.7428,25.0199 48.9833,32.659 25.631,-7.9567 -1.573,-2.7358 -0.642,-6.6359 2.0758,-8.2573 2.7177,-1.6213 6.6988,-0.6521 8.3048,2.0647 20.1752,34.1293 63.2458,36.4147 54.7726,-6.5681 l -3.6993,-18.7657 c -0.596,-3.0233 1.7694,-6.2652 4.8112,-6.8527 3.0418,-0.5876 6.4446,1.5401 7.0418,4.5633 l 3.6993,18.7282 c 7.9646,40.3217 63.2035,38.004 58.2076,-2.965 -0.3639,-2.9845 2.3115,-5.9069 5.3137,-6.2647 3.0021,-0.3578 6.3535,1.8469 6.6524,4.8385 4.1184,41.2143 65.946,39.9722 65.946,0.2628 V 65.8046 c 0,-3.1572 2.8392,-6.1177 6.0398,-6.1177 3.2006,0 6.0398,2.9605 6.0398,6.1177 v 19.7791 c 0,39.7094 61.8276,40.9515 65.946,-0.2628 0.2989,-2.9916 3.6503,-5.1963 6.6524,-4.8385 3.0022,0.3578 5.6776,3.2802 5.3137,6.2647 -4.9959,40.969 50.243,43.2867 58.2076,2.965 l 3.6993,-18.7282 c 0.5972,-3.0232 4,-5.1509 7.0418,-4.5633 3.0418,0.5875 5.4072,3.8294 4.8112,6.8527 l -3.6993,18.7657 c -8.4732,42.9828 34.5974,40.6974 54.7726,6.5681 1.606,-2.7168 5.5871,-3.686 8.3048,-2.0647 2.7178,1.6214 3.6488,5.5215 2.0758,8.2573 -23.3523,40.6157 6.8882,32.9766 25.631,7.9567 0,0 9.0345,-12.06 13.5516,-18.0901 1.8938,-2.5281 5.9349,-3.107 8.4749,-1.2203 2.54,1.8866 3.1236,5.9008 1.2264,8.4264 -4.5297,6.0301 -13.5893,18.0901 -13.5893,18.0901 -23.5124,31.2999 -54.0488,32.967 -55.603,6.9997 -20.477,14.6863 -48.1479,12.4912 -56.056,-11.8788 -20.0359,22.7127 -56.6385,19.6048 -67.6446,-6.1552 -21.0101,27.072 -60.1766,22.8874 -75.1567,-1.2916 -14.9801,24.179 -54.1466,28.3636 -75.1567,1.2916 z"
         fill="#eac102"
         id="path95" />
      <path
         d="M 121.2585,86.054 C 112.9151,74.2171 106.0069,66.6171 80.5001,64.4214 c 8.7264,-13.1233 26.9,-16.9218 38.7205,-4.9467 1.1182,-3.2772 1.8077,-4.3454 4.9332,-7.3729 2.7868,8.5465 15.1973,15.0038 10.2737,30.307 l -4.8385,15.0389 z"
         fill="#eac102"
         id="path96" />
      <path
         d="m 126.1831,92.8369 c -0.7432,-6.2586 1.4111,-11.9048 1.0269,-16.9291 -0.7029,-9.1926 -3.7144,-12.2213 -3.3163,-17.0358"
         fill="none"
         id="path97" />
      <path
         d="m 127.5243,95.0034 c 4.6018,-8.2106 5.5076,-12.7196 8.9558,-17.1887 3.4425,-4.4617 9.0727,-8.3815 13.1615,-11.8854 1.7943,4.1162 2.8197,7.7123 1.964,11.6478 5.9065,-1.8526 12.0053,0.822 17.5563,4.7212 -1.8976,6.9945 -4.9405,13.4312 -10.4927,16.34 2.963,2.3485 4.3052,5.8125 5.3734,10.2305 0,0 -12.7507,-1.026 -18.302,0.2425 -6.3395,1.4487 -11.1542,-1.2595 -12.1951,-2.2817 z"
         fill="#eac102"
         id="path98" />
      <path
         d="m 130.6656,100.3903 c 9.9213,-8.025 19.0042,-9.4896 30.9474,-16.2683"
         fill="none"
         id="path99" />
      <path
         d="m 128.9495,95.9456 c 4.3394,-7.2999 13.2693,-11.369 18.089,-22.7245"
         fill="none"
         id="path100" />
      <path
         d="m 132.0532,104.5186 c 8.5345,1.1676 13.71,-3.7804 23.9201,-0.0727"
         fill="none"
         id="path101" />
      <path
         d="m 133.5455,106.8297 c -1.5973,0.7632 -3.3493,1.208 -5.2398,1.208 -6.738,0 -12.2002,-5.4308 -12.2002,-12.1302 0,-4.0844 2.0412,-7.6555 5.1531,-9.8535 6.13,3.8736 11.3374,13.259 12.2869,20.7757 z"
         fill="#ed1c24"
         fill-rule="evenodd"
         id="path102" />
      <path
         d="m 678.7417,86.054 c 8.3434,-11.8369 15.2516,-19.4369 40.7584,-21.6326 -8.7264,-13.1233 -26.8999,-16.9218 -38.7205,-4.9467 -1.1182,-3.2772 -1.8077,-4.3454 -4.9332,-7.3729 -2.7868,8.5465 -15.1973,15.0038 -10.2736,30.307 l 4.8385,15.0389 z"
         fill="#eac102"
         id="path103" />
      <path
         d="m 672.476,95.0034 c -4.6018,-8.2106 -5.5076,-12.7196 -8.9558,-17.1887 -3.4425,-4.4617 -9.0727,-8.3815 -13.1615,-11.8854 -1.7943,4.1162 -2.8197,7.7123 -1.964,11.6478 -5.9065,-1.8526 -12.0055,0.822 -17.5563,4.7212 1.8976,6.9945 4.9405,13.4312 10.4927,16.34 -2.963,2.3485 -4.3052,5.8125 -5.3734,10.2305 0,0 12.7506,-1.026 18.302,0.2425 6.3395,1.4487 11.1542,-1.2595 12.1951,-2.2817 z"
         fill="#eac102"
         id="path104" />
      <path
         d="m 673.8171,92.8369 c 0.7432,-6.2586 -1.4111,-11.9048 -1.0269,-16.9291 0.7029,-9.1926 3.7144,-12.2213 3.3163,-17.0358"
         fill="none"
         id="path105" />
      <path
         d="M 669.3346,100.3903 C 659.4133,92.3653 650.3304,90.9007 638.3872,84.122"
         fill="none"
         id="path106" />
      <path
         d="m 671.0508,95.9456 c -4.3394,-7.2999 -13.2693,-11.369 -18.089,-22.7245"
         fill="none"
         id="path107" />
      <path
         d="m 667.9471,104.5186 c -8.5345,1.1676 -13.71,-3.7804 -23.9201,-0.0727"
         fill="none"
         id="path108" />
      <path
         d="m 666.4548,106.8297 c 1.5973,0.7632 3.3493,1.208 5.2398,1.208 6.738,0 12.2002,-5.4308 12.2002,-12.1302 0,-4.0844 -2.0412,-7.6555 -5.1531,-9.8535 -6.1301,3.8736 -11.3374,13.259 -12.2869,20.7757 z"
         fill="#ed1c24"
         fill-rule="evenodd"
         id="path109" />
      <path
         d="m 414.7299,47.975 -7.1946,6.809 v 15.102 l 7.1946,6.8102 c 6.1372,5.8093 12.2064,2.5752 26.7845,8.6299 0.5976,-4.5733 0.337,-8.356 -2.8108,-11.7229 9.4454,-0.5662 16.972,-5.4305 23.1108,-11.2683 -6.1389,-5.8366 -13.6657,-10.7022 -23.1108,-11.2684 3.1477,-3.367 3.4082,-7.1486 2.8108,-11.7217 -14.5783,6.0536 -20.6462,2.8209 -26.7845,8.6302 z"
         fill="#eac102"
         id="path110" />
      <path
         d="m 411.0465,62.3347 h 42.0414"
         fill="none"
         id="path111" />
      <path
         d="m 409.2224,67.1517 c 12.3263,7.6431 17.3962,5.3904 26.5069,11.7605"
         fill="none"
         id="path112" />
      <path
         d="m 409.2224,57.5179 c 12.3263,-7.6431 17.3962,-5.3905 26.5069,-11.7605"
         fill="none"
         id="path113" />
      <path
         d="m 404.8156,53.1095 c 7.6418,-12.3304 5.3887,-17.402 11.7566,-26.5145"
         fill="none"
         id="path114" />
      <path
         d="m 412.2001,62.3347 c 0,6.7379 -5.4621,12.2 -12.2,12.2 -6.7379,0 -12.2,-5.4621 -12.2,-12.2 0,-6.7379 5.4621,-12.2 12.2,-12.2 6.7379,0 12.2,5.4621 12.2,12.2 z"
         fill="#ed1c24"
         fill-rule="evenodd"
         id="path115" />
      <path
         d="m 400.0002,182.1503 c -168.5697,0 -220.1156,-19.2704 -220.1156,-22.1504 0,-2.8801 51.5459,-22.1506 220.1156,-22.1506 168.5697,0 220.1156,19.2705 220.1156,22.1506 0,2.88 -51.5459,22.1504 -220.1156,22.1504 z m -166.2428,3.8316 c -39.2511,-5.1822 -68.2573,-13.3333 -68.2573,-25.982 0,-29.3963 156.6683,-34.5 234.5,-34.5 77.8317,0 234.5,5.1037 234.5,34.5 0,12.6487 -29.0063,20.7998 -68.2573,25.982 z"
         fill="#eac102"
         fill-rule="evenodd"
         id="path116" />
      <path
         d="m 275.2107,185.9823 -83.2611,17.7122 c -3.1142,-14.9494 -6.0548,-28.5328 -13.1783,-42.5119 -3.7867,-7.4311 72.0672,-24.2995 221.2289,-24.2995 149.1617,0 225.0156,16.8685 221.2289,24.2995 -7.1235,13.9792 -10.0641,27.5624 -13.1783,42.5119 l -83.2611,-17.7122 z"
         fill="#eac102"
         id="path117" />
      <path
         d="m 252.6404,155.6147 43.2139,-4.0342 c 4.3226,-0.4035 8.1289,2.7352 8.5344,7.0375 0.4055,4.3024 -2.748,8.0908 -7.0707,8.4943 l -43.2139,4.0342 c -4.3226,0.4035 -8.1289,-2.7352 -8.5344,-7.0375 -0.4055,-4.3024 2.748,-8.0908 7.0707,-8.4943 z"
         fill="#008f4c"
         fill-rule="evenodd"
         id="path118" />
      <path
         d="m 229.7966,167.9607 c 0,5.2467 -4.2533,9.5 -9.5,9.5 -5.2467,0 -9.5,-4.2533 -9.5,-9.5 0,-5.2467 4.2533,-9.5 9.5,-9.5 5.2467,0 9.5,4.2533 9.5,9.5 z"
         fill="#e5e5e5"
         fill-rule="evenodd"
         id="path119" />
      <path
         d="m 343.882,157.6191 c 0,5.2467 -4.2533,9.5 -9.5,9.5 -5.2467,0 -9.5,-4.2533 -9.5,-9.5 0,-5.2467 4.2533,-9.5 9.5,-9.5 5.2467,0 9.5,4.2533 9.5,9.5 z"
         fill="#e5e5e5"
         fill-rule="evenodd"
         id="path120" />
      <path
         d="m 178.1379,181.4721 4.8212,-10.8194 15.6742,2.7078 -10.4478,13.9054 z"
         fill="#ed1c24"
         id="path121" />
      <path
         d="m 178.1379,181.4721 20.4954,-8.1118"
         fill="none"
         id="path122" />
      <path
         d="m 603.6891,207.4999 c 0,2.6713 -47.6993,20.5453 -203.689,20.5453 -155.9897,0 -203.689,-17.874 -203.689,-20.5453 0,-2.6715 47.6993,-20.5455 203.689,-20.5455 155.9898,0 203.689,17.8739 203.689,20.5455 z m 13.311,0 c 0,27.2662 -144.9766,32 -217,32 -72.0234,0 -217,-4.7338 -217,-32 0,-27.2662 144.9766,-32 217,-32 72.0235,0 217,4.7339 217,32 z"
         fill="#eac102"
         fill-rule="evenodd"
         id="path123" />
      <path
         d="m 376.597,148.2373 -12.16,8.1548 12.16,8.1537 h 46.8064 l 12.16,-8.1537 -12.16,-8.1548 z"
         fill="#ed1c24"
         id="path124" />
      <path
         d="m 376.597,148.2373 11.24,7.2984 -11.24,9.01"
         fill="none"
         id="path125" />
      <path
         d="m 364.4369,156.3921 23.4,-0.8563 h 24.3266 l 23.4,0.8563"
         fill="none"
         id="path126" />
      <path
         d="m 423.4035,148.2373 -11.24,7.2984 11.24,9.01"
         fill="none"
         id="path127" />
      <path
         d="m 546.8617,155.6147 -43.2139,-4.0342 c -4.3227,-0.4035 -8.1289,2.7352 -8.5344,7.0375 -0.4055,4.3024 2.7481,8.0908 7.0707,8.4943 l 43.2139,4.0342 c 4.3227,0.4035 8.1289,-2.7352 8.5344,-7.0375 0.4055,-4.3023 -2.7481,-8.0908 -7.0707,-8.4943 z"
         fill="#008f4c"
         fill-rule="evenodd"
         id="path128" />
      <path
         d="m 621.3643,181.4721 -4.8212,-10.8194 -15.6743,2.7078 10.4479,13.9054 z"
         fill="#ed1c24"
         id="path129" />
      <path
         d="m 621.3643,181.4721 -20.4954,-8.1118"
         fill="none"
         id="path130" />
      <path
         d="m 570.2037,167.9607 c 0,5.2467 4.2533,9.5 9.5,9.5 5.2467,0 9.5,-4.2533 9.5,-9.5 0,-5.2467 -4.2533,-9.5 -9.5,-9.5 -5.2467,0 -9.5,4.2533 -9.5,9.5 z"
         fill="#e5e5e5"
         fill-rule="evenodd"
         id="path131" />
      <path
         d="m 456.1183,157.6191 c 0,5.2467 4.2533,9.5 9.5,9.5 5.2467,0 9.5,-4.2533 9.5,-9.5 0,-5.2467 -4.2533,-9.5 -9.5,-9.5 -5.2467,0 -9.5,4.2533 -9.5,9.5 z"
         fill="#e5e5e5"
         fill-rule="evenodd"
         id="path132" />
      <path
         d="m 252.6818,80.8688 c 0,11.1838 -9.0662,20.25 -20.25,20.25 -11.1838,0 -20.25,-9.0662 -20.25,-20.25 0,-11.1838 9.0662,-20.25 20.25,-20.25 11.1838,0 20.25,9.0662 20.25,20.25 z"
         fill="#e5e5e5"
         fill-rule="evenodd"
         id="path133" />
      <path
         d="m 261.6972,48.4122 c 0,11.1838 -9.0662,20.25 -20.25,20.25 -11.1838,0 -20.25,-9.0662 -20.25,-20.25 0,-11.1838 9.0662,-20.25 20.25,-20.25 11.1838,0 20.25,9.0662 20.25,20.25 z"
         fill="#e5e5e5"
         fill-rule="evenodd"
         id="path134" />
      <path
         d="m 285.7656,73.7457 c 0,11.1838 -9.0662,20.25 -20.25,20.25 -11.1838,0 -20.25,-9.0662 -20.25,-20.25 0,-11.1838 9.0662,-20.25 20.25,-20.25 11.1838,0 20.25,9.0662 20.25,20.25 z"
         fill="#e5e5e5"
         fill-rule="evenodd"
         id="path135" />
      <path
         d="m 547.3184,80.8688 c 0,11.1838 9.0662,20.25 20.25,20.25 11.1838,0 20.25,-9.0662 20.25,-20.25 0,-11.1838 -9.0662,-20.25 -20.25,-20.25 -11.1838,0 -20.25,9.0662 -20.25,20.25 z"
         fill="#e5e5e5"
         fill-rule="evenodd"
         id="path136" />
      <path
         d="m 538.303,48.4122 c 0,11.1838 9.0662,20.25 20.25,20.25 11.1838,0 20.25,-9.0662 20.25,-20.25 0,-11.1838 -9.0662,-20.25 -20.25,-20.25 -11.1838,0 -20.25,9.0662 -20.25,20.25 z"
         fill="#e5e5e5"
         fill-rule="evenodd"
         id="path137" />
      <path
         d="m 514.2346,73.7457 c 0,11.1838 9.0662,20.25 20.25,20.25 11.1838,0 20.25,-9.0662 20.25,-20.25 0,-11.1838 -9.0662,-20.25 -20.25,-20.25 -11.1838,0 -20.25,9.0662 -20.25,20.25 z"
         fill="#e5e5e5"
         fill-rule="evenodd"
         id="path138" />
    </g>
  </g>
  <g
     stroke="#000000"
     stroke-linecap="round"
     stroke-linejoin="round"
     id="g165">
    <path
       d="m 415.7607,968.5093 c 0,22.9076 2.2256,43.2411 10.854,61.9601 7.0018,15.1899 18.7442,19.0305 32.4849,19.0305 0,0 17.8735,-1.5254 26.8335,-1.596 12.1932,-0.096 36.5459,1.596 36.5459,1.596 l 8.0737,-35.0976 c -11.2351,0.5894 -23.3106,0.4085 -33.2349,-0.3343 l -6.3192,-17.2815 c 1.539,-8.8651 2.138,-16.0667 7.492,-24.1177 17.1747,-18.8905 45.0376,-25.8829 70.4908,-28.9023 v -50.8103 h 60.0315 c 56.17,0 81.7352,-29.7678 90.5346,-39.8559 l 4.5907,-60.7815 -51.0183,-17.0595 v -64.0735 l 12.2564,-7.0693 c 0.4102,10.4908 -0.4419,21.5897 -1.3333,31.4189 l 33.1842,-8.9294 c 0.0109,-39.5032 -1.4731,-64.6216 2.8471,-103.9007 2.6534,-24.1246 -22.7092,-25.2026 -38.1442,-39.9403 -6.1358,-8.1207 -15.1488,-19.0976 -16.9692,-37.0014 l 12.5191,-34.6397 47.2942,-9.897 10.0848,-40.1879 -10.0848,-39.481 31.2976,20.9936 31.9931,-16.9664 -5.3902,-38.7046 -57.9006,-10.0738 V 343.581 c -6.5561,-3.7998 -14.1962,-9.8971 -18.7786,-14.3154 -3.6763,-7.5716 -7.6428,-12.7831 -10.7181,-25.2411 l 14.5491,-25.4499 c 7.415,5.4521 15.3528,12.6407 21.7796,18.9005 l 17.5105,-27.0616 c -27.9076,-21.4117 -42.0602,-36.3511 -55.0007,-49.0585 -7.3157,-7.1839 -18.83,-10.8552 -29.5263,-10.8552 -4.7879,0 -9.3992,1.059 -13.3737,2.5969 -23.4484,9.0727 -42.7034,33.4599 -49.1734,64.0327 -13.8861,-3.2261 -30.7995,-4.6606 -41.4071,-3.8881 L 543.2478,234.7135 500.8221,215.6263 400,251.5867 299.1779,215.6263 l -42.4257,19.0872 -17.3876,38.5278 c -10.6077,-0.7724 -27.521,0.662 -41.4071,3.8881 -6.47,-30.5728 -25.725,-54.9601 -49.1734,-64.0327 -3.9745,-1.5378 -8.5858,-2.5969 -13.3737,-2.5969 -10.6963,0 -22.2106,3.6713 -29.5263,10.8552 -12.9405,12.7074 -27.0931,27.6468 -55.0007,49.0585 l 17.5105,27.0616 c 6.4268,-6.2598 14.3647,-13.4484 21.7796,-18.9005 l 14.5491,25.4499 c -3.0753,12.458 -7.0418,17.6695 -10.7181,25.2411 -4.5824,4.4183 -12.2225,10.5156 -18.7786,14.3154 v 33.2258 l -57.9006,10.0738 -5.3902,38.7046 31.9931,16.9664 31.2976,-20.9936 -10.0848,39.481 10.0848,40.1879 47.2942,9.897 12.5191,34.6397 c -1.8205,17.9038 -10.8334,28.8807 -16.9692,37.0014 -15.435,14.7377 -40.7976,15.8157 -38.1442,39.9403 4.3202,39.2791 2.8362,64.3975 2.8471,103.9007 l 33.1842,8.9294 c -0.8914,-9.8293 -1.7436,-20.9282 -1.3333,-31.4189 l 12.2564,7.0693 v 64.0735 l -51.0183,17.0595 4.5907,60.7815 c 8.7994,10.0881 34.3646,39.8559 90.5346,39.8559 h 60.0315 v 50.8103 c 25.4532,3.0194 53.3161,10.0118 70.4908,28.9023 5.3541,8.0509 5.953,15.2526 7.492,24.1177 l -6.3192,17.2815 c -9.9243,0.7428 -21.9998,0.9237 -33.2349,0.3343 l 8.0737,35.0976 c 0,0 24.3527,-1.6921 36.5459,-1.596 8.96,0.071 26.8335,1.596 26.8335,1.596 13.7407,0 25.4831,-3.8406 32.4849,-19.0305 8.6285,-18.719 10.854,-39.1616 10.854,-61.9601 z"
       fill="#ed1c24"
       fill-rule="evenodd"
       id="path139" />
    <path
       d="m 94.0047,329.2657 c 29.0773,-29.4547 6.9089,-65.0378 -23.2993,-65.0378 -8.3459,0 -14.5473,2.1119 -19.8218,6.1857 -5.2163,4.0289 -7.8244,8.7484 -7.8244,16.3504 0,9.9306 8.652,15.4353 16.3443,15.0275 3.3105,-0.1755 6.2074,-1.6205 8.9906,-4.3163 4.1281,-3.9985 4.8916,-11.5961 0.6199,-18.4142 26.1024,-1.5614 37.0532,24.2914 24.9908,50.2048 z"
       fill="#eac102"
       id="path140" />
    <path
       d="m 118.0702,582.7651 c 27.1502,-40.0173 3.2565,-85.2837 -45.9828,-70.4826 l -0.1739,-18.0133 c 59.9069,-16.7459 88.9642,49.1282 46.1567,88.4959 z"
       fill="#eac102"
       id="path141" />
    <path
       d="m 126.8803,695.366 v 15.8199 c -8.967,0 -29.2169,5.3892 -28.9861,15.3418 5.9822,-6.233 17.3388,-2.4484 18.063,9.0078 0.5456,8.6307 -7.8543,14.2365 -15.4651,13.7366 -10.0413,-0.6595 -17.7191,-10.6893 -17.7191,-22.666 0,-19.0106 20.161,-30.8867 44.1072,-31.2401 z"
       fill="#eac102"
       id="path142" />
    <path
       d="m 109.8504,797.962 c 11.6387,2.294 21.1772,2.3397 30.3549,1.9995"
       fill="none"
       id="path143" />
    <path
       d="m 170.9873,892.9563 c -41.6109,0 -99.9281,-12.5323 -104.5511,-68.983 -2.8877,-35.2607 20.1539,-56.918 46.5534,-55.1684 23.935,1.5862 40.3483,20.7676 37.4898,42.8032 -4.6753,36.041 -50.9838,34.2418 -55.0756,5.506 -2.1126,-14.8363 7.439,-20.5209 14.4466,-19.1521 11.7623,2.2975 12.0783,19.657 7.1418,22.1692 3.7965,3.8655 15.9608,-0.1716 17.0151,-10.7578 1.1063,-11.1089 -5.9918,-21.5152 -22.2088,-23.376 -16.7759,-1.9249 -33.0905,14.8665 -30.1312,39.0614 5.8483,47.8143 55.6535,67.8975 89.3199,67.8975 z"
       fill="#eac102"
       id="path144" />
    <path
       d="m 301.5095,972.6689 c 31.2097,33.0511 2.3364,76.831 -23.9885,76.831 -11.963,0 -21.3879,-8.1421 -21.6338,-19.8451 -0.1754,-8.3494 5.4349,-15.4419 13.5602,-15.2525 10.7227,0.2499 12.974,10.3463 10.5378,15.2525 22.9322,-4.6975 31.0423,-38.9066 21.5243,-56.9859 z"
       fill="#eac102"
       fill-rule="evenodd"
       id="path145" />
    <path
       d="m 311.5913,297.1536 c 16.4057,-2.3328 39.5076,-0.9053 57.2941,-2.3175 24.8633,-1.974 31.1148,-20.6987 31.1148,-43.2494 0,-21.4064 -13.4006,-40.5382 -34.3985,-40.5382 -1.0985,0 -2.2169,-0.0118 -3.3555,0.0582 -20.193,1.2424 -43.767,-0.6069 -65.8924,-0.6069"
       fill="#ed1c24"
       fill-rule="evenodd"
       id="path146" />
    <path
       d="M 2.0118,415.1475 C 4.2627,457.5537 5.674,506.8446 3.3097,546.5241 1.494,576.9954 28.7223,583.197 43.4983,581.7832 64.8737,579.7379 77.9199,568.1171 76.5081,547.024 74.157,511.897 73.1526,463.7592 75.1492,419.8086 l -36.7213,19.773 z"
       fill="#ed1c24"
       fill-rule="evenodd"
       id="path147" />
    <path
       d="m 298.1652,251.4122 c 8.6459,1.2864 22.8694,2.0041 34.3274,1.6843"
       fill="none"
       id="path148" />
    <path
       d="m 239.3648,273.2414 c 0.9415,-16.282 11.1349,-62.7414 56.989,-62.7414 27.5009,0 44.7086,20.7473 44.7086,46.8355 0,17.8944 -7.807,36.7656 -29.4711,39.8183 -15.9639,2.2494 -31.0583,-8.6935 -31.0583,-28.8002 0,-9.9299 8.6634,-18.2401 17.6322,-16.9413 7.4578,1.0801 12.5815,5.7156 13.0134,13.3182 0.3076,5.4143 -1.2994,11.8676 -6.7554,14.2093 12.3796,0.7498 20.0718,-7.4989 19.2233,-22.6145 -1.0433,-18.5847 -10.8343,-32.1121 -31.8071,-32.3621 -27.8062,-0.3314 -41.0718,27.0898 -42.964,50.3601 -2.75,-0.4231 -6.0644,-0.7837 -9.5106,-1.0818 z"
       fill="#eac102"
       fill-rule="evenodd"
       id="path149" />
    <path
       d="m 43.7162,415.4359 c 1.0361,7.9459 1.2611,16.2172 0.9079,24.288"
       fill="none"
       id="path150" />
    <path
       d="m 54.4447,426.0538 c -4.9933,0.3987 -10.0345,-4.9931 -10.7285,-10.6179 -1.4733,-11.939 10.7712,-16.8816 17.9691,-14.8758 7.8689,2.1928 14.1181,9.7678 13.4639,19.2484 -0.7965,11.542 -10.3666,28.4898 -37.5764,28.4898 -15.2037,0 -34.4391,-13.6621 -35.561,-33.1508 -2.3361,-40.5817 37.3923,-46.8294 73.1372,-46.8294 v 14.7464 c -29.437,0 -58.0555,4.7134 -57.3035,28.8339 0.6642,21.304 28.6966,26.8579 36.5992,14.1555 z"
       fill="#eac102"
       id="path151" />
    <path
       d="m 5.8601,487.5823 c -3.5833,-3.132 -5.3601,2.0659 -5.3601,7.741 0,4.4854 1.1735,9.3108 3.4783,10.7293 8.9953,5.5362 19.8544,11.4851 35.5902,11.4851 15.7358,0 26.5946,-5.9489 35.59,-11.4851 5.2402,-3.2251 4.5152,-24.0615 -1.8818,-18.4703 -5.9766,5.2238 -20.6349,11.8087 -33.7082,11.8087 -13.0733,0 -27.7319,-6.5849 -33.7085,-11.8087 z"
       fill="#eac102"
       id="path152" />
    <path
       d="m 705.9954,329.2657 c -29.0773,-29.4547 -6.9089,-65.0378 23.2993,-65.0378 8.3459,0 14.5473,2.1119 19.8218,6.1857 5.2163,4.0289 7.8244,8.7484 7.8244,16.3504 0,9.9306 -8.652,15.4353 -16.3443,15.0275 -3.3105,-0.1755 -6.2074,-1.6205 -8.9906,-4.3163 -4.1281,-3.9985 -4.8916,-11.5961 -0.6199,-18.4142 -26.1024,-1.5614 -37.0532,24.2914 -24.9908,50.2048 z"
       fill="#eac102"
       id="path153" />
    <path
       d="m 681.93,582.7651 c -27.1502,-40.0173 -3.2565,-85.2837 45.9828,-70.4826 l 0.1739,-18.0133 c -59.9069,-16.7459 -88.9642,49.1282 -46.1567,88.4959 z"
       fill="#eac102"
       id="path154" />
    <path
       d="m 673.1199,695.366 v 15.8199 c 8.967,0 29.2169,5.3892 28.9861,15.3418 -5.9822,-6.233 -17.3388,-2.4484 -18.063,9.0078 -0.5456,8.6307 7.8543,14.2365 15.4651,13.7366 10.0413,-0.6595 17.7191,-10.6893 17.7191,-22.666 0,-19.0106 -20.161,-30.8867 -44.1072,-31.2401 z"
       fill="#eac102"
       id="path155" />
    <path
       d="m 690.1497,797.962 c -11.6387,2.294 -21.1772,2.3397 -30.3549,1.9995"
       fill="none"
       id="path156" />
    <path
       d="m 629.0129,892.9563 c 41.6109,0 99.9281,-12.5323 104.5511,-68.983 2.8877,-35.2607 -20.1539,-56.918 -46.5534,-55.1684 -23.935,1.5862 -40.3483,20.7676 -37.4898,42.8032 4.6753,36.041 50.9838,34.2418 55.0756,5.506 2.1126,-14.8363 -7.439,-20.5209 -14.4466,-19.1521 -11.7623,2.2975 -12.0783,19.657 -7.1418,22.1692 -3.7965,3.8655 -15.9608,-0.1716 -17.0151,-10.7578 -1.1063,-11.1089 5.9918,-21.5152 22.2088,-23.376 16.7759,-1.9249 33.0905,14.8665 30.1312,39.0614 -5.8483,47.8143 -55.6535,67.8975 -89.3199,67.8975 z"
       fill="#eac102"
       id="path157" />
    <path
       d="m 498.4906,972.6689 c -31.2097,33.0511 -2.3364,76.831 23.9885,76.831 11.963,0 21.3879,-8.1421 21.6338,-19.8451 0.1754,-8.3494 -5.4349,-15.4419 -13.5602,-15.2525 -10.7227,0.2499 -12.974,10.3463 -10.5378,15.2525 -22.9322,-4.6975 -31.0423,-38.9066 -21.5243,-56.9859 z"
       fill="#eac102"
       fill-rule="evenodd"
       id="path158" />
    <path
       d="m 488.4088,297.1536 c -16.4057,-2.3328 -39.5076,-0.9053 -57.2941,-2.3175 -24.8633,-1.974 -31.1148,-20.6987 -31.1148,-43.2494 0,-21.4064 13.4006,-40.5382 34.3985,-40.5382 1.0985,0 2.2169,-0.0118 3.3555,0.0582 20.193,1.2424 43.767,-0.6069 65.8924,-0.6069"
       fill="#ed1c24"
       fill-rule="evenodd"
       id="path159" />
    <path
       d="m 797.9884,415.1475 c -2.2509,42.4062 -3.6622,91.6971 -1.2979,131.3766 1.8157,30.4713 -25.4126,36.6729 -40.1886,35.2591 -21.3754,-2.0453 -34.4216,-13.6661 -33.0098,-34.7592 2.3511,-35.127 3.3555,-83.2648 1.3589,-127.2154 l 36.7213,19.773 z"
       fill="#ed1c24"
       fill-rule="evenodd"
       id="path160" />
    <path
       d="m 501.835,251.4122 c -8.6459,1.2864 -22.8694,2.0041 -34.3274,1.6843"
       fill="none"
       id="path161" />
    <path
       d="M 560.6354,273.2414 C 559.6939,256.9594 549.5005,210.5 503.6464,210.5 c -27.5009,0 -44.7086,20.7473 -44.7086,46.8355 0,17.8944 7.807,36.7656 29.4711,39.8183 15.9639,2.2494 31.0583,-8.6935 31.0583,-28.8002 0,-9.9299 -8.6634,-18.2401 -17.6322,-16.9413 -7.4578,1.0801 -12.5815,5.7156 -13.0134,13.3182 -0.3076,5.4143 1.2994,11.8676 6.7554,14.2093 -12.3796,0.7498 -20.0718,-7.4989 -19.2233,-22.6145 1.0433,-18.5847 10.8343,-32.1121 31.8071,-32.3621 27.8062,-0.3314 41.0718,27.0898 42.964,50.3601 2.75,-0.4231 6.0644,-0.7837 9.5106,-1.0818 z"
       fill="#eac102"
       fill-rule="evenodd"
       id="path162" />
    <path
       d="m 756.284,415.4359 c -1.0361,7.9459 -1.2611,16.2172 -0.9079,24.288"
       fill="none"
       id="path163" />
    <path
       d="m 745.5555,426.0538 c 4.9933,0.3987 10.0345,-4.9931 10.7285,-10.6179 1.4733,-11.939 -10.7712,-16.8816 -17.9691,-14.8758 -7.8689,2.1928 -14.1181,9.7678 -13.4639,19.2484 0.7965,11.542 10.3666,28.4898 37.5764,28.4898 15.2037,0 34.4391,-13.6621 35.561,-33.1508 2.3361,-40.5817 -37.3923,-46.8294 -73.1372,-46.8294 v 14.7464 c 29.437,0 58.0555,4.7134 57.3035,28.8339 -0.6642,21.304 -28.6966,26.8579 -36.5992,14.1555 z"
       fill="#eac102"
       id="path164" />
    <path
       d="m 794.1401,487.5823 c 3.5833,-3.132 5.3601,2.0659 5.3601,7.741 0,4.4854 -1.1735,9.3108 -3.4783,10.7293 -8.9953,5.5362 -19.8544,11.4851 -35.5902,11.4851 -15.7358,0 -26.5946,-5.9489 -35.59,-11.4851 -5.2402,-3.2251 -4.5152,-24.0615 1.8818,-18.4703 5.9766,5.2238 20.6349,11.8087 33.7082,11.8087 13.0733,0 27.7319,-6.5849 33.7085,-11.8087 z"
       fill="#eac102"
       id="path165" />
  </g>
  <path
     d="m 150.5001,310.4999 v 349.5 c 0,137.724 111.776,249.5 249.5,249.5 137.724,0 249.5,-111.776 249.5,-249.5 v -349.5 z"
     fill="#0071bc"
     stroke="#000000"
     stroke-linecap="round"
     stroke-linejoin="round"
     id="path166" />
  <g
     stroke="#000000"
     stroke-linecap="round"
     stroke-linejoin="round"
     id="g182">
    <path
       d="m 230.4278,842.9439 c 13.6888,12.6952 28.7945,23.8828 45.0664,33.278 h 249.0117 c 16.2719,-9.3952 31.3776,-20.5828 45.0664,-33.278 z"
       fill="#eac102"
       fill-rule="evenodd"
       id="path167" />
    <path
       d="m 179.3048,776.3886 c 6.1702,11.6681 13.2272,22.7969 21.1016,33.2783 h 399.1875 c 7.8744,-10.4814 14.9314,-21.6102 21.1016,-33.2783 z"
       fill="#eac102"
       fill-rule="evenodd"
       id="path168" />
    <path
       d="m 155.4903,709.8329 c 2.3129,11.3947 5.4149,22.5038 9.2246,33.2783 h 470.5703 c 3.8097,-10.7745 6.9118,-21.8836 9.2246,-33.2783 z"
       fill="#eac102"
       fill-rule="evenodd"
       id="path169" />
    <g
       fill="#008f4c"
       id="g180">
      <path
         d="m 311.6111,541.8981 33.8226,44.8054 45.1037,-6.1249 20.132,0.6003 37.5738,5.5246 40.1459,-52.805 -22.5358,-95.9531 -69.8855,-63.5749 -80.5252,82.5821 z"
         id="path170" />
      <path
         d="m 381.6523,578.6298 c -1.8358,1.304 -2.475,-0.5555 -1.6537,5.1224 0.7609,5.2607 -5.6439,7.4272 -6.2559,9.1996 -2.019,5.8474 -6.6455,3.3941 -7.9672,5.8817 -2.524,4.7503 -1.8255,4.578 -4.5466,4.573 -3.6231,-0.012 -5.6294,5.2649 -10.0836,3.9683 -2.7333,-0.7957 -2.7066,3.0328 -6.2467,3.0328 -1.5882,0 -2.9366,-0.7602 -6.1599,-1.9393 -3.7864,-1.3852 -6.9971,1.9904 -5.9633,-3.0035 1.68,-8.1157 -5.8505,1.752 -6.0111,-0.4317 -0.207,-2.8153 2.9029,-6.8345 -0.94,-4.2456 -1.9431,1.3091 -2.2702,-5.8701 -3.4144,0.6053 -0.9735,5.5095 -2.4553,-5.6064 -3.3971,-4.3993 -4.4515,5.7057 -6.0532,6.1238 -4.7094,-0.3641 0.4919,-2.3742 -0.9368,4.4454 -4.3818,-0.4638 -2.6563,-3.7851 -4.7932,5.11 -7.8289,2.9121 -4.0287,-2.9168 -0.2396,-4.2444 -1.1357,-6.0499 -1.2877,-2.5947 -3.8487,1.4435 -4.6271,-0.046 -1.4305,-2.7374 -0.17,-3.5762 -1.8162,-1.0949 -2.3526,3.5461 -2.075,0.7177 -2.3007,-2.5078 -0.3236,-4.6223 -8.4402,-0.7442 -3.5104,-7.893 5.4436,-7.894 -4.1817,-0.2461 -2.0625,-6.1435 1.0787,-3.0015 -4.6586,-6.2223 -4.6586,-7.9285 0,-2.8887 8.1558,-3.6738 1.6088,-6.8718 -1.4574,-0.7118 -1.6088,-2.9304 -1.6088,-4.7119 0,-5.6182 9.5291,-3.0614 3.9625,-11.238 -1.6743,-2.4595 0.6501,2.0209 0.022,-9.5197 -0.4056,-7.4588 6.8796,-0.9455 -0.012,-4.1048 -2.3577,-1.0818 -2.9736,-4.6854 -1.0115,-5.1203 6.1179,-1.3557 4.5803,1.7969 2.9333,-4.0589 -1.1036,-3.9248 9.2628,-2.8497 4.6595,-6.1842 -4.1857,-3.032 3.6993,-4.2664 4.367,-9.437 0.6653,-5.1527 10.2269,4.7883 11.7966,2.8518 0.88,-1.0856 -0.1978,-2.6837 -0.033,-4.1246"
         fill-rule="evenodd"
         id="path171" />
      <path
         d="m 316.3526,515.7713 c -0.8846,-1.7909 -2.6774,3.1795 -4.1852,-0.159 -1.9424,-4.3006 -2.9422,5.9397 -5.5654,3.4393 -1.8444,-1.758 -0.068,-4.8806 -3.2897,-2.6615 -3.3655,2.3176 1.9388,-3.4777 -2.0986,-1.722 -3.7931,1.6497 3.4546,-6.3374 -1.2837,-4.4912 -1.7226,0.6712 1.5911,-5.1625 -2.1806,-4.8556 -4.3244,0.3517 0.1174,-5.273 -3.7219,-5.3564 -4.7314,-0.1032 3.4792,-6.108 -1.4255,-4.7516 -3.4214,0.9464 -1.9236,-1.0537 -2.0198,-3.5121 -0.078,-2.0141 -2.717,-3.8536 0.3205,-4.2355 4.922,-0.6189 -4.2343,-2.101 -3.2884,-3.3748 2.2969,-3.0929 -0.3389,-3.0284 0,-4.7655 0.3395,-1.74 -0.2739,-0.582 3.1307,-1.4826 3.1803,-0.8411 -3.6103,-6.2135 -0.1541,-7.0966 2.9272,-0.748 0.8343,-0.8267 0.02,-2.3828 -1.4953,-2.8561 9.6986,-3.0025 5.4115,-5.3166 -1.6421,-0.8864 3.2399,-1.9664 5.7175,-0.4427 1.1328,0.6967 2.3383,-1.063 3.0316,-2.8491 0.2558,-0.6592 2.6449,-0.6585 0.7567,-2.6771 -1.8554,-1.9836 -0.1861,-1.5444 1.507,-2.3301 2.1807,-1.0121 -2.2534,-2.0697 -1.9467,-3.2114 0.5866,-2.1834 1.997,-1.0661 0.1151,-4.1725 -1.6824,-2.7776 -1.4602,-7.3415 3.3035,-6.6545 3.8733,0.5586 4.879,3.8364 7.7131,4.1707 3.9216,0.4626 -2.6165,-11.2587 -0.3017,-11.7826 1.9126,-0.4329 1.204,2.9833 4.2478,1.9245 2.3346,-0.8122 3.2248,-0.1535 3.0092,1.9538 -0.1409,1.3762 1.6578,3.4755 2.5755,1.0646 0.753,-1.9782 -1.0285,-3.3525 0.1381,-3.1259 3.6466,0.7082 1.0826,-2.524 2.5518,-3.1766 2.1572,-0.9583 2.4709,6.9055 3.9455,2.2828 1.2442,-3.9005 2.4455,2.0349 6.1977,1.0153 3.0781,-0.8365 -0.6794,6.6432 1.3013,6.7698 0.7721,0.05 1.2975,-0.8565 2.0504,-1.0726"
         fill-rule="evenodd"
         id="path172" />
      <path
         d="m 412.2337,399.2901 c -1.9782,-1.2242 3.4065,-4.606 -0.1586,-6.5979 -4.9325,-2.7557 7.0173,-4.6052 3.8307,-9.1271 -1.6197,-2.2983 -5.365,0.2901 -2.9297,-4.9413 2.6115,-5.6102 -4.322,4.6883 -2.3649,-1.8492 1.8452,-6.1639 -9.0145,9.4993 -7.034,2.1532 0.7305,-2.7098 -0.311,-7.0414 0.045,-13.0337 0.4079,-6.8631 -5.4495,-2.2824 -6.2851,-8.5275 -0.9907,-7.4043 -5.384,2.4514 -4.9662,-2.7234 0.1359,-1.6834 0.5846,-3.9766 -1.4304,-3.9766 -1.4284,0 -3.7122,1.6176 -5.8856,7.3658 -1.3961,3.6921 -4.3073,-1.6689 -5.164,0.3462 -1.0495,2.4681 -3.7092,2.9119 -4.9665,-0.5002 -0.69,-1.8725 -3.9425,5.4204 -2.891,-0.9939 0.8504,-5.1881 -5.8475,0.9727 -5.8842,0.6854 -0.859,-6.7132 -4.4984,-0.3198 -5.116,5.7912 -0.2171,2.1482 -1.3169,-10.5405 -3.4473,-4.7967 -1.6592,4.473 -0.5045,1.6641 -2.6375,0.2449 -2.9604,-1.9697 -1.9686,13.0423 -2.9961,5.4917 -0.9171,-6.7389 -5.1876,2.6461 -3.5916,6.233 0.8309,1.8674 0.5266,2.2227 -1.2933,3.994 -2.4385,2.3734 -0.4595,1.03 -2.9057,-2.0372 -1.9829,-2.4863 -2.9056,2.883 -2.3733,5.5566 0.227,1.1407 -4.9684,2.3212 -3.1444,6.3687 1.0882,2.4152 -1.2589,6.1177 -2.3987,5.2041 -8.2962,-6.6495 -1.8153,3.7413 -5.4779,3.5788 -1.7398,-0.077 -3.8328,-1.7411 -4.0282,0.2972 -0.8073,8.4218 -2.7638,3.2472 -2.2691,5.893 0.671,3.589 -2.8384,0.1541 -0.5178,4.4031 1.4424,2.6413 -2.298,-0.525 -3.2035,2.7726 -0.6539,2.3812 -3.2198,1.424 -4.3481,6.1001 -0.9143,3.7899 0.4325,3.0754 3.1469,3.1062 1.8171,0.02 0.4278,2.3149 -0.046,3.4252 -1.2655,2.9618 -4.1869,0.8311 -3.9927,2.2722 0.7313,5.4283 4.2398,3.1799 3.6786,5.0159 -1.0777,3.5259 3.5622,3.7359 1.8077,5.4229 -3.6746,3.5331 2.8071,4.9666 1.796,10.2882 -0.8645,4.5498 7.3574,-1.6312 7.4852,1.4028 0.05,1.1938 4.1827,11.565 3.9403,12.7751"
         fill-rule="evenodd"
         id="path173" />
      <path
         d="m 466.8124,443.6672 c -0.8279,-2.6324 4.5025,1.0473 2.8673,-3.7159 -2.1108,-6.1489 6.9359,3.2204 6.792,-1.1044 -0.1139,-3.4246 -3.9672,-5.1838 0.1844,-5.5863 4.2759,-0.4146 -2.2919,-2.0124 2.032,-3.5903 4.0628,-1.4827 -0.6682,-3.0862 0.1929,-5.2314 3.5823,-8.9246 -5.8785,-6.0822 -4.1399,-8.6319 1.3547,-1.9865 2.2378,-6.3377 0.077,-5.502 -6.6053,2.555 -1.6732,-3.6786 -0.3439,-5.3295 3.3089,-4.1095 -8.493,-1.0619 -3.8459,-3.8113 3.2031,-1.8951 -0.4263,-2.8046 -4.2494,-2.774 -2.7821,0.023 -0.7122,-7.1445 -3.6848,-4.1789 -3.8538,3.8448 0.066,-4.8668 -1.6375,-4.6037 -1.7717,0.2737 1.1828,-4.6932 -1.5975,-5.4788 -2.0357,-0.5753 0.6275,2.5869 -3.4834,3.8902 -3.6866,1.1689 -5.2229,-2.5408 -4.4167,-5.4951 1.3405,-4.9123 -1.8941,-7.7302 -5.1093,-5.0315 -1.1509,0.966 4.0865,-7.0587 -0.242,-6.0249 -3.1036,0.7413 -1.3238,-0.3584 -1.951,-2.4979 -1.2352,-4.2133 -7.1683,4.8985 -4.5686,-0.033 2.5011,-4.7445 -4.2791,-1.3416 -5.3192,-0.2184 -1.0691,1.1547 2.0011,-6.5961 -0.1068,-6.8091 -2.4041,-0.2428 -1.827,3.5638 -4.9198,1.8198 -4.6094,-2.5994 -4.1517,5.1531 -6.4228,1.97 -0.8345,-1.1696 -1.4723,0.8079 -3.3134,-1.6743 -1.27,-1.7121 -4.2488,-3.8855 -4.4937,-2.2082 -0.4348,2.9774 -4.0315,-2.4529 -2.8481,-3.9018 1.9876,-2.4336 -5.5872,4.2854 -1.9442,-3.4145 0.8002,-1.6912 -3.1147,-3.8333 -5.994,-3.8333 -4.2034,0 -10.2204,0.9937 -9.0944,6.7853 1.0179,2.4697 4.1333,5.5846 1.06,7.0674 -2.491,1.2017 2.6391,1.6255 4.0279,3.7097 0.7059,1.059 -0.9828,2.6904 -2.2613,3.0802 -2.1248,0.6478 -3.958,-4.1872 -4.7211,-2.7469 -2.1642,4.0844 -2.5299,-1.8426 -4.4191,-1.1749 -2.5523,0.9018 3.9705,9.4336 -0.9633,5.7456 -3.9618,-2.9614 0.09,4.1033 -3.6101,6.3214 -3.4526,2.0695 5.9793,6.309 4.5911,8.22 -0.4752,0.6541 -1.6279,0.2009 -2.3432,0.6116"
         fill-rule="evenodd"
         id="path174" />
      <path
         d="m 481.3288,522.029 c -1.8522,-5.7776 3.9509,-2.3509 4.6711,-9.0404 1.2289,-11.4163 10.7185,-4.5977 11.499,-4.5975 1.4262,4e-4 1.4614,2.0944 2.7429,4.3409 2.818,4.9401 2.1747,2.144 4.247,6.9218 1.2707,2.93 -7.08,7.6066 -1.5559,6.6373 11.1124,-1.95 -4.54,2.1563 0.8084,3.4759 5.8987,1.4555 -8.2345,5.9269 7.2303,6.3908 5.3213,0.1596 -1.9448,2.8514 2.4001,5.907 3.7314,2.6241 1.9023,6.7832 0.9538,7.996 -1.8904,2.417 0.6162,3.1653 1.7657,6.0076 0.9134,2.259 1.9274,4.7798 1.9274,7.0778 0,4.3349 -1.0841,7.2074 -3.8605,9.3692 -4.774,3.7171 3.8605,3.4496 3.8605,8.6846 0,2.7447 -6.3583,1.2509 -3.6629,4.3827 0.6494,0.7547 0.6011,4.466 -1.0255,3.4662 -4.9808,-3.0615 -7.0976,-4.2842 -6.0799,-2.6611 2.6913,4.2928 1.8716,7.4628 -3.4583,5.3737 -2.8083,-1.1006 1.7347,2.8095 -4.0058,3.173 -3.0973,0.196 -1.6521,0.2298 -2.9875,3.0708 -1.6848,3.5844 0.9383,1.1066 -1.9202,2.9243 -3.3383,2.1227 0.1793,7.0384 -3.0522,3.4535 -1.8966,-2.1043 -3.6675,-3.6345 -5.8716,-0.7354 -0.9866,1.2978 -2.1446,-1.9882 -2.079,1.6191 0.1008,5.5544 -6.1499,-4.1818 -8.0656,-0.9415 -2.2183,3.752 -2.0116,-2.5111 -4.0798,2.0966 -1.8259,4.0677 -4.169,-0.4526 -6.1228,0.9861 -2.4324,1.7912 -2.623,-2.5641 -4.3683,-1.9155 -1.8226,0.6774 -1.2039,-0.2908 -2.972,-0.2662 -2.8467,0.039 -5.9823,-0.149 -0.6354,2.9294 2.2275,1.2825 -1.8922,2.2519 -4.0424,2.2519 -1.7227,0 -4.6203,-0.9958 -6.382,-0.9958 -3.2664,0 -1.6002,-1.577 -4.8061,-2.5421 -2.4743,-0.745 -0.5731,1.7794 -4.4613,0.2648 -5.601,-2.182 2.3458,-4.0926 -2.5209,-5.8256 -2.1034,-0.7491 -2.2762,-0.4267 -2.7791,-1.4893 -0.6893,-1.4566 -1.9921,-5.4592 -3.5878,-4.2713 -1.755,1.3066 -5.2145,2.0495 -6.3787,-2.2612 -0.7476,-2.7683 2.7935,1.3999 2.115,-3.3445 -0.5657,-3.9555 -6.2809,-3.6594 -7.0865,-6.3356 -1.215,-4.0368 4.422,-5.8514 3.3638,-8.0575 -0.2428,-0.5065 -5.0408,0.5697 -6.5251,-1.7568 -1.6408,-2.5719 -0.281,-8.1984 -0.8823,-8.4173"
         fill-rule="evenodd"
         id="path175" />
      <path
         d="m 455.0094,539.1302 c -1.3218,-2.4724 3.656,-1.4062 1.0276,-5.6416 -3.6847,-5.938 7.2189,0.6072 4.7756,-4.8708 -1.3646,-3.0597 -3.9184,-3.8963 -1.1418,-6.3064 2.6678,-2.3158 -4.0279,0.2204 -1.3039,-3.7009 2.5977,-3.7396 -4.1492,-3.1969 -1.6423,-8.0307 1.2748,-2.4578 -9.7253,0.4976 -8.5782,-4.5429 1.2587,-5.5313 -3.861,-4.4934 -2.7942,-10.5159 0.6883,-3.8855 -6.8228,-3.6536 -3.6873,-9.359 2.8195,-5.1304 -0.059,-2.5948 -1.1166,-8.3003 -0.8268,-4.4608 -3.2388,7.5336 -4.7832,0.9121 -0.6974,-2.9903 -1.7253,-5.4482 -2.8069,-1.6051 -0.915,3.2511 -0.7195,2.0423 -1.8565,-0.9952 -0.4567,-1.2201 -3.8564,1.1286 -2.1915,-2.2223 2.047,-4.1197 -4.929,-3.9708 -4.9128,-4.1076 0.5735,-4.8253 -2.4359,-8.2221 -4.8419,-3.5134 -1.1348,2.2206 1.7465,-8.6342 -2.0188,-6.4371 -2.1612,1.261 -1.206,2.8986 -2.4484,-1.3648 -1.0972,-3.7656 -4.4573,4.7886 -4.2308,3.9383 1.4295,-5.3673 -2.9051,-6.9118 -3.6189,-1.9046 -0.3685,2.5849 1.7366,4.5202 -1.9832,5.0514 -3.474,0.4961 -0.3866,2.8028 -2.1003,-0.5957 -2.3867,-4.7332 -4.2173,8.1406 -5.174,0.7115 -0.7408,-5.753 -5.0434,2.1025 -4.1408,-4.9502 0.9105,-7.1154 -5.3014,0.2919 -4.9491,2.3128 2.8653,16.4356 -3.6521,8.2956 -3.1133,5.0302 0.4378,-2.6539 -4.0988,-5.3999 -4.2066,-0.8314 -0.097,4.1101 -4.0196,-2.812 -2.6861,2.8764 0.7066,3.0141 -0.3366,3.2931 -1.3928,5.7224 -1.2902,2.9671 2.3734,5.0339 1.0509,8.0842 -2.1809,5.0303 7.3367,4.1053 3.9554,7.9993 -2.0579,2.37 -3.6016,1.7617 -5.7854,-1.7494 -0.5538,-0.8904 0.032,5.0962 -2.764,1.5992 -3.1231,-3.9056 2.5995,7.0553 1.5168,6.3826 -2.0511,-1.2743 -4.732,-1.3706 -2.5558,3.0898 1.4245,2.9198 -0.2332,3.6069 -0.1637,5.7341 0.1461,4.4678 5.944,3.4611 6.1408,6.0876 0.071,0.9576 -1.3052,1.2452 -1.7976,2.1519"
         fill-rule="evenodd"
         id="path176" />
      <path
         d="m 455.268,442.2087 c 1.937,0.8656 1.0644,-5.1177 4.4846,-3.4066 4.5486,2.2758 -0.797,-7.8563 3.9086,-7.8225 2.6841,0.019 2.8363,4.302 4.9521,-0.3902 2.2464,-4.9816 -0.076,4.7773 3.1731,-0.2249 3.0586,-4.7091 3.5133,-1.8335 7.3542,-7.3824 1.3589,-1.9633 2.4198,6.9502 4.487,6.1558 3.1868,-1.2247 3.2361,-3.6894 4.7199,-2.7229 1.074,0.6994 2.2758,7.1096 3.9854,5.7719 5.0227,-3.9305 -0.2172,8.4617 4.1711,3.0764 3.0544,-3.7482 0.9747,0.9953 2.541,3.2483 1.2083,1.7381 5.9564,0.5584 2.0468,4.0922 -4.9875,4.5079 5.5977,0.8967 4.2523,2.3586 -4.3176,4.6914 -9.8113,10.9128 0.9521,5.4659 3.0519,-1.5444 1.2829,5.9676 -0.3098,8.0255 -1.1299,1.4599 6.0569,0.4785 1.1726,2.9424 -3.8998,1.9675 0.3856,1.7356 0.7653,4.5496 0.3282,2.4319 -5.1257,0.062 -5.1926,2.797 -0.084,3.4597 5.922,4.6418 2.8141,6.0205 -3.9305,1.7434 -0.7668,4.5184 1.62,4.8265 2.8681,0.3703 1.2253,3.9924 2.172,5.393 4.217,6.2393 -2.4055,4.0398 -3.5255,4.3977 -6.5825,2.103 1.1105,0.8947 1.52,3.4586 0.5086,3.185 -0.7209,3.3114 -0.7889,5.2506 -0.3377,9.6423 -3.4096,1.0636 -4.4165,2.7526 -1.6048,2.6921 -0.584,1.2146 0.12,5.2388 0.536,3.064 2.3222,3.5818 -1.8453,4.0721 -2.5591,0.301 3.4117,1.9274 2.8297,5.0781 -0.6505,3.5214 -4.5695,-0.8513 -7.1009,2.5903 -1.971,2.6797 -2.8708,0.5161 -3.9292,-1.782 -0.6201,-1.3465 -2.6117,-0.8044 -2.2557,1.8662 0.3752,2.8139 1.9495,4.6563 0.8268,5.308 -4.0383,2.3444 0.09,3.4947 -0.8925,5.0287 -1.6936,2.643 -6.458,-4.0134 -5.4279,1.2879 0.9132,4.7 -3.9548,0.5344 -7.0791,4.3415 -2.5097,3.0582 -3.0887,-6.5213 -5.1767,-5.0016 -0.8456,0.6154 -0.8807,1.8725 -1.5497,2.7058"
         fill-rule="evenodd"
         id="path177" />
      <path
         d="m 332.74,476.8292 c 0,0 0.7906,0.5701 0.6313,0.8934 -0.5041,1.0234 -2.9922,-0.4463 -3.6412,0.5066 -1.0135,1.4876 3.8718,6.2967 1.7311,5.0136 -2.9936,-1.7942 -9.6948,-2.0978 -7.6653,-0.423 1.2915,1.0657 4.0465,1.6144 3.8746,3.1972 -0.177,1.6287 -4.9203,0.8959 -4.617,2.509 0.2046,1.0889 3.1387,-0.3916 3.5561,0.6452 0.4797,1.1918 -2.6997,1.7212 -2.5864,2.9868 0.1426,1.5938 3.9407,1.629 3.883,3.2274 -0.036,0.9845 -2.5744,0.8551 -2.5301,1.8393 0.075,1.6533 3.7986,1.2402 4.513,2.7604 0.8447,1.7975 -1.6535,3.8992 -1.0836,5.7848 0.4262,1.4105 2.7183,1.9178 3.1254,3.333 0.4378,1.5223 -1.9445,3.3181 -0.9985,4.6334 1.0399,1.4455 4.8856,-0.5233 5.5494,1.097 0.6095,1.488 -3.4594,2.2619 -3.119,3.8201 0.3352,1.5341 3.3486,1.1709 4.4155,2.394 1.0234,1.173 -0.049,3.8049 1.5065,4.2854 1.7386,0.5371 2.7835,-3.4196 4.5192,-2.8747 1.943,0.6098 -0.1566,4.9001 1.8295,5.3801 1.6174,0.391 2.1215,-3.7283 3.6639,-3.1358 1.0074,0.3869 -0.644,2.2437 0.075,2.9961 0.8653,0.9058 3.5568,-0.5943 3.8973,0.5671 0.28,0.9558 -1.6812,1.2465 -2.5217,1.8696 -2.402,1.7808 4.1214,1.218 6.0674,2.9246 1.8747,1.6439 -0.9963,6.8107 1.1905,5.8169 1.5715,-0.7143 3.1431,-1.4286 4.7147,-2.1428 1.8937,-0.8606 -3.1539,3.099 -1.1127,5.7901 1.2215,1.6102 3.3832,-2.3917 4.5525,-1.3929 0.7533,0.6435 -1.2904,1.9169 -0.7806,2.7361 0.4851,0.7796 1.8882,1.0051 2.8277,0.7467 1.5839,-0.4356 1.8319,-4.2814 3.2165,-3.4541 0.9626,0.575 -1.4738,1.7857 -1.5083,2.8367 -0.025,0.7625 0.2087,1.7776 0.9572,2.1148 1.0972,0.4942 2.6378,-0.1201 3.5433,-0.8719 1.6068,-1.334 0.1311,-5.3576 2.2887,-5.5728 0.735,-0.074 0.4699,1.6859 1.2089,1.6996 1.1261,0.021 0.861,-2.7607 1.9558,-2.5188 1.1868,0.2622 -0.1963,2.4121 0.5224,3.3144 0.5545,0.6962 1.6579,1.4422 2.5384,1.1359 1.168,-0.4065 0.2033,-2.9073 1.4189,-3.1727 1.0355,-0.226 2.1348,0.9728 2.4138,1.9119 0.239,0.8048 -1.4032,1.6875 -0.878,2.3691 0.9436,1.2246 3.8507,-1.0637 4.9146,0.075 1.2841,1.3751 -2.4394,4.3171 -0.8321,5.3704 1.4284,0.9362 3.1837,-1.3706 4.7066,-2.1725 1.1233,-0.5914 2.9414,-0.7917 3.2582,-1.9408 0.3531,-1.2809 -1.8371,-2.1759 -2.0767,-3.4786 -0.2589,-1.4076 -0.4438,-3.3319 0.776,-4.2228 0.9986,-0.7296 3.2689,-0.8542 3.8288,0.1965 0.5716,1.0726 -2.7083,1.825 -2.2369,2.9377 0.541,1.2769 3.9181,-0.391 4.3821,0.9112 0.3226,0.9053 -2.1064,1.2017 -2.0537,2.1526 0.078,1.4198 1.8529,2.9783 3.4063,2.9141 1.4833,-0.062 1.4833,-2.9518 2.965,-3.0389 1.0624,-0.063 1.4369,2.2991 2.4137,1.912 2.0259,-0.8027 -1.445,-4.7658 0.2576,-6.0509 0.7099,-0.5357 2.1787,1.0554 2.73,0.3815 1.0974,-1.3416 -2.8006,-2.9312 -2.3327,-4.5509 0.2336,-0.8092 1.7806,-0.7278 2.2409,-1.4511 0.5626,-0.8842 0.9132,-2.179 0.3326,-3.0533 -0.549,-0.8267 -2.2533,-0.3468 -2.9467,-1.077 -0.8037,-0.8463 -0.5812,-2.1776 -0.8718,-3.2663 -0.5667,-2.1234 4.4383,-1.1896 5.4889,0.7572 0.498,0.9229 0.3683,2.7716 1.494,2.7687 1.1502,0 0.3681,-2.7 1.5084,-2.837 1.5921,-0.1915 3.6943,5.6861 3.1547,3.3285 -0.5021,-2.1938 0.2764,-4.2472 -2.9114,-6.7179 -2.0097,-1.5576 3.6005,2.5969 4.9189,1.5642 1.6473,-1.29 -2.259,-4.137 -1.1696,-5.852 0.3703,-0.5828 1.8312,-0.038 2.0869,-0.6701 0.3018,-0.7459 -0.8712,-1.3767 -1.3068,-2.0649 -1.4285,-2.257 -8.0229,-2.6601 -5.9053,-3.6751 1.1159,-0.5349 2.3669,-0.8502 3.3478,-1.6047 0.015,-0.012 -0.027,-0.028 -0.034,-0.033"
         fill-rule="evenodd"
         id="path178" />
      <path
         d="m 435.6517,458.9161 c -1.2213,-1.7275 5.3104,-0.4111 2.8483,-3.622 -2.9902,-3.8995 8.3084,0.9071 7.5754,-2.8177 -0.5686,-2.89 -5.0402,-2.7195 -0.3921,-4.2345 4.797,-1.5636 -5.0131,-0.2612 -0.2756,-2.715 4.4325,-2.2958 -5.8086,-2.1978 -0.3062,-5.2852 1.6802,-0.9427 -6.5204,-1.4613 -3.467,-4.499 3.4585,-3.4406 -4.1412,-4.7436 -1.4679,-8.0275 3.3033,-4.0579 -8.7931,-0.4356 -3.9022,-3.8042 3.4908,-2.4043 0.419,-2.1291 -2.1895,-3.6291 -1.8848,-1.0837 -1.5328,-5.1808 -4.624,-2.0464 -3.9078,3.9623 -2.9439,-3.2885 -4.7941,-2.6107 -1.9048,0.6978 -4.235,4.6249 -3.7437,0.8972 0.2069,-1.5701 -6.2583,0.9658 -2.1455,-2.0981 2.9373,-2.1881 -5.6914,-2.6449 -5.5951,-2.8174 2.2706,-4.0631 -3.0329,-5.1803 -6.3295,-2.2666 -1.1421,1.0094 3.8709,-6.4811 -0.9229,-4.4371 -3.2666,1.3929 -1.4874,0.1962 -2.479,-1.2969 -2.0176,-3.0383 -7.6924,5.9541 -5.1781,1.3208 2.2262,-4.1026 -5.849,-1.5204 -6.0498,1.3969 -0.096,1.399 -0.698,1.4739 -2.9711,1.4409 -2.3762,-0.034 -1.8424,2.6255 -2.574,-0.066 -0.7516,-2.7657 -2.9428,0.8544 -4.6492,1.6937 -2.7115,1.3338 -0.755,-3.0962 -1.9297,-3.4021 -2.7543,-0.7172 -6.3096,1.2529 -4.411,-2.1869 2.2675,-4.1078 -4.8153,0.7803 -6.8788,1.4714 -4.1697,1.3965 1.2651,3.3347 -0.6907,6.6335 -1.1943,2.0143 -7.0156,2.4323 -2.8513,-0.3624 2.616,-1.7557 -6.3594,0.9085 -2.216,-2.8759 1.7033,-1.5557 -4.2807,-3.37 -5.5165,-0.4692 -0.9889,2.3209 -4.1367,-2.317 -3.9743,1.3032 0.095,2.1264 -0.3631,2.131 -3.3456,3.7812 -1.7493,0.9679 2.9239,3.1035 -0.5054,5.1792 -2.3306,1.4107 0.047,2.4867 2.5063,3.5068 1.339,0.5557 1.2749,2.305 -1.5933,1.8107 -2.5682,-0.4425 -5.1113,-2.1633 -5.7027,-1.0821 -1.8224,3.3316 -3.366,-0.4821 -5.1327,0.4174 -2.2695,1.1556 5.315,5.8508 -0.4728,4.5812 -4.9965,-1.0959 0.6244,2.9886 -3.4094,5.7897 -2.6604,1.8473 7.329,3.1326 6.0859,4.8048 -0.5617,0.7555 -1.8226,0.6269 -2.5889,1.1447"
         fill-rule="evenodd"
         id="path179" />
      <path
         d="m 411.2051,631.787 c -1.0823,-7.5443 -0.3285,-21.4297 -0.7517,-25.1744 -0.275,-2.439 -0.7912,-8.5784 -0.231,-12.67 0.3247,-2.3723 -0.2069,-3.9477 1.4351,-5.7464 2.5158,-2.756 12.5781,-11.7188 20.3179,-15.0543 5.9511,-2.5645 23.0893,-2.4922 26.7837,-3.6391 l -0.9008,-2.5113 c -1.0127,-0.9314 -18.0993,0.6327 -21.35,-0.561 -4.1878,-1.5378 7.0335,-12.454 8.3636,-13.6947 l -3.3171,-1.1826 c -8.1866,3.5563 -14.6284,17.0087 -16.2377,18.2989 -4.6164,3.7012 -12.4037,8.0514 -14.8061,8.0364 0.2324,-4.148 -0.1775,-7.0389 0.5959,-9.4264 2.3868,-7.3692 13.6441,-21.7941 18.6436,-26.2848 l -3.1386,-2.5428 c -3.0256,1.7899 -5.7754,6.859 -10.1383,10.4091 -0.7948,-0.2592 -2.7976,-4.5423 -4.0758,-5.9058 l -3.1002,1.4618 c -0.012,1.2191 2.672,9.0071 2.5346,9.8859 -2.297,3.1244 -4.3616,6.1861 -5.6257,8.3936 -1.4437,2.5212 -4.3522,8.3352 -6.2064,12.7745 -1.2928,3.0958 -2.8391,6.2706 -2.629,10.3482 -0.2092,-4.0858 1.3439,-7.2511 2.629,-10.3482 -2.0045,-1.7645 -5.279,-4.3863 -7.1529,-6.8597 -0.6976,-0.9206 0.025,-10.2815 0.6992,-11.1895 1.2025,-1.6192 0.9116,-6.5422 1.5931,-12.0883 0.3415,-2.7799 10.9659,-9.4236 11.5539,-9.8552 l -1.643,-2.2903 c -3.0283,0.082 -11.784,5.1984 -14.5992,8.8619 -1.1433,0.1258 -11.0948,-6.6637 -13.4057,-8.8619 l -2.373,1.4235 c 1.7725,1.9481 3.7212,3.5183 5.5606,5.0343 1.6747,1.3804 9.0209,7.3236 8.2642,9.7159 -1.6876,5.3347 -2.5444,14.7588 -3.085,15.6495 -2.9791,-1.0194 -13.2573,-7.1082 -18.3228,-8.1118 -2.9243,-4.1573 -5.8612,-12.6024 -9.2268,-16.18 l -2.9992,0.9317 c 1.6172,5.4544 3.2945,10.3817 5.7788,15.6658 -2.1291,8.4688 -8.2523,9.9934 -19.4012,14.6008 l 0.7673,3.2328 c 10.1064,-2.6041 16.9786,-4.5017 23.7488,-11.7787 8.2622,2.8571 18.266,8.3785 19.4354,16.7052 0.6006,4.2781 1.1931,7.1479 1.0322,9.9782 0.6089,2.2096 1.4989,3.1889 2.3225,5.7766 0.6166,1.937 1.0764,5.9476 0.9139,9.5982 -0.2619,5.8854 0.6974,21.1488 0.1952,27.3139 -1.7733,4.1406 -0.5961,14.6911 -0.9331,18.5313 -0.9597,10.9382 -3.9922,14.8711 -13.0577,17.2088 h 13.3909 c 1.8508,0 3.6979,-1.5682 5.5471,-1.9569 0.3109,0.3427 1.0188,1.9569 2.2102,1.9569 h 9.2544 c 1.6284,0 2.2726,-1.5891 3.3877,-1.9569 1.3621,0.6115 4.0321,1.9569 6.4735,1.9569 h 8.4051 c -8.0472,-2.2189 -12.6004,-6.4564 -13.0573,-17.2088 -0.1805,-4.245 0.306,-18.0395 -0.072,-20.6708 z"
         id="path180" />
    </g>
    <path
       d="M 241.4392,449.6665 H 209.061 c 0,0 8.5959,-17.4492 9.8687,-43.1795 -25.7303,1.2729 -43.1796,9.8686 -43.1796,9.8686 v -32.3783 c 0,0 17.4493,8.5958 43.1796,9.8686 -1.2729,-25.7303 -9.8687,-43.1795 -9.8687,-43.1795 h 32.3782 c 0,0 -8.5956,17.4492 -9.8685,43.1795 25.7303,-1.2728 43.1794,-9.8686 43.1794,-9.8686 v 32.3783 c 0,0 -17.4491,-8.5958 -43.1794,-9.8686 1.2729,25.7302 9.8685,43.1794 9.8685,43.1794 z"
       fill="#e5e5e5"
       id="path181" />
    <path
       d="M 590.9392,449.6665 H 558.561 c 0,0 8.5959,-17.4492 9.8687,-43.1795 -25.7303,1.2729 -43.1796,9.8686 -43.1796,9.8686 v -32.3783 c 0,0 17.4493,8.5958 43.1796,9.8686 -1.2729,-25.7303 -9.8687,-43.1795 -9.8687,-43.1795 h 32.3782 c 0,0 -8.5956,17.4492 -9.8685,43.1795 25.7303,-1.2728 43.1794,-9.8686 43.1794,-9.8686 v 32.3783 c 0,0 -17.4491,-8.5958 -43.1794,-9.8686 1.2729,25.7302 9.8685,43.1794 9.8685,43.1794 z"
       fill="#e5e5e5"
       id="path182" />
  </g>
  <path
     d="m 151.5001,311.4999 v 348.5 c 0,137.172 111.328,248.5 248.5,248.5 137.172,0 248.5,-111.328 248.5,-248.5 v -348.5 z"
     fill="none"
     stroke="#000000"
     stroke-linecap="round"
     stroke-linejoin="round"
     stroke-width="3"
     id="path183" />
</svg>
