<?xml version="1.0" encoding="UTF-8" standalone="no"?>
<svg
   viewBox="0 0 640 640"
   version="1.1"
   id="svg8"
   sodipodi:docname="armarria_Urnieta.svg"
   width="640"
   height="640"
   inkscape:version="1.3.2 (091e20ef0f, 2023-11-25)"
   xmlns:inkscape="http://www.inkscape.org/namespaces/inkscape"
   xmlns:sodipodi="http://sodipodi.sourceforge.net/DTD/sodipodi-0.dtd"
   xmlns="http://www.w3.org/2000/svg"
   xmlns:svg="http://www.w3.org/2000/svg">
  <defs
     id="defs8" />
  <sodipodi:namedview
     id="namedview8"
     pagecolor="#ffffff"
     bordercolor="#000000"
     borderopacity="0.25"
     inkscape:showpageshadow="2"
     inkscape:pageopacity="0.0"
     inkscape:pagecheckerboard="0"
     inkscape:deskcolor="#d1d1d1"
     inkscape:zoom="1.2671875"
     inkscape:cx="249.76572"
     inkscape:cy="320"
     inkscape:window-width="1920"
     inkscape:window-height="1008"
     inkscape:window-x="0"
     inkscape:window-y="0"
     inkscape:window-maximized="1"
     inkscape:current-layer="svg8" />
  <g
     stroke="#000000"
     stroke-linecap="round"
     stroke-linejoin="round"
     id="g3">
    <path
       d="m 0.5,0.5 v 474.25 c 0,68.898 55.852,124.75 124.75,124.75 h 62.375 c 27.289,0 50.92,17.163 62.375,40 11.455,-22.837 35.086,-40 62.375,-40 h 62.375 c 68.898,0 124.75,-55.852 124.75,-124.75 V 0.5 Z"
       fill="#ed1c24"
       id="path1" />
    <path
       d="M 250,0.5 V 300 H 499.5 V 0.5 Z"
       fill="#0071bc"
       id="path2" />
    <path
       d="m 0.5,300 v 174.75 c 0,68.898 55.852,124.75 124.75,124.75 h 62.375 c 27.289,0 50.92,17.163 62.375,40 V 300 Z"
       fill="#0071bc"
       id="path3" />
  </g>
  <g
     fill="#e5e5e5"
     stroke="#000000"
     stroke-linecap="round"
     stroke-linejoin="round"
     id="g7">
    <path
       d="m 192.0266,196.0397 7.3931,-7.3931 c 5.7953,-5.7953 15.1917,-5.7953 20.9869,0 5.7953,5.7953 5.7953,15.1917 0,20.9869 l -7.3931,7.3931 7.3931,7.3931 c 5.7953,5.7953 5.7953,15.1917 0,20.9869 -5.7953,5.7953 -15.1917,5.7953 -20.9869,0 l -7.3931,-7.3931 -7.3931,7.3931 c -5.7953,5.7953 -15.1917,5.7953 -20.987,0 -5.7953,-5.7953 -5.7953,-15.1917 0,-20.9869 l 7.3931,-7.3931 -45.7897,-45.7897 -45.7897,45.7897 7.3931,7.3931 c 5.7953,5.7953 5.7953,15.1917 0,20.987 -5.7953,5.7953 -15.1917,5.7953 -20.9869,0 l -7.3931,-7.3931 -7.3931,7.3931 c -5.7953,5.7953 -15.1917,5.7953 -20.9869,0 -5.7953,-5.7953 -5.7953,-15.1917 0,-20.987 l 7.3931,-7.3931 -7.3931,-7.3931 c -5.7953,-5.7953 -5.7953,-15.1917 0,-20.9869 5.7953,-5.7953 15.1917,-5.7953 20.9869,0 l 7.3931,7.3931 45.7897,-45.7897 -45.7897,-45.7897 -7.3931,7.3931 c -5.7953,5.7953 -15.1917,5.7953 -20.9869,0 -5.7953,-5.7953 -5.7953,-15.1917 0,-20.9869 l 7.3931,-7.3931 -7.3931,-7.3931 c -5.7953,-5.7953 -5.7953,-15.1917 0,-20.9869 5.7953,-5.7953 15.1917,-5.7953 20.9869,0 l 7.3931,7.3931 7.3931,-7.3931 c 5.7953,-5.7953 15.1917,-5.7953 20.9869,0 5.7953,5.7953 5.7953,15.1917 0,20.9869 l -7.3931,7.3931 45.7897,45.7897 45.7897,-45.7897 -7.3931,-7.3931 c -5.7953,-5.7953 -5.7953,-15.1917 0,-20.9869 5.7953,-5.7953 15.1917,-5.7953 20.9869,0 l 7.3931,7.3931 7.3931,-7.3931 c 5.7953,-5.7953 15.1917,-5.7953 20.9869,0 5.7953,5.7953 5.7953,15.1917 0,20.9869 l -7.3931,7.3931 7.3931,7.3931 c 5.7953,5.7953 5.7953,15.1917 0,20.9869 -5.7953,5.7953 -15.1917,5.7953 -20.9869,0 l -7.3931,-7.3931 -45.7897,45.7897 z"
       fill-rule="evenodd"
       id="path4" />
    <path
       d="m 441.5266,495.5397 7.3931,-7.3931 c 5.7953,-5.7953 15.1917,-5.7953 20.9869,0 5.7953,5.7953 5.7953,15.1917 0,20.9869 l -7.3931,7.3931 7.3931,7.3931 c 5.7953,5.7953 5.7953,15.1917 0,20.9869 -5.7953,5.7953 -15.1917,5.7953 -20.9869,0 l -7.3931,-7.3931 -7.3931,7.3931 c -5.7953,5.7953 -15.1917,5.7953 -20.987,0 -5.7953,-5.7953 -5.7953,-15.1917 0,-20.9869 l 7.3931,-7.3931 -45.7897,-45.7897 -45.7897,45.7897 7.3931,7.3931 c 5.7953,5.7953 5.7953,15.1917 0,20.987 -5.7953,5.7953 -15.1917,5.7953 -20.9869,0 l -7.3931,-7.3931 -7.3931,7.3931 c -5.7953,5.7953 -15.1917,5.7953 -20.9869,0 -5.7953,-5.7953 -5.7953,-15.1917 0,-20.987 l 7.3931,-7.3931 -7.3931,-7.3931 c -5.7953,-5.7953 -5.7953,-15.1917 0,-20.9869 5.7953,-5.7953 15.1917,-5.7953 20.9869,0 l 7.3931,7.3931 45.7897,-45.7897 -45.7897,-45.7897 -7.3931,7.3931 c -5.7953,5.7953 -15.1917,5.7953 -20.9869,0 -5.7953,-5.7953 -5.7953,-15.1917 0,-20.9869 l 7.3931,-7.3931 -7.3931,-7.3931 c -5.7953,-5.7953 -5.7953,-15.1917 0,-20.9869 5.7953,-5.7953 15.1917,-5.7953 20.9869,0 l 7.3931,7.3931 7.3931,-7.3931 c 5.7953,-5.7953 15.1917,-5.7953 20.9869,0 5.7953,5.7953 5.7953,15.1917 0,20.9869 l -7.3931,7.3931 45.7897,45.7897 45.7897,-45.7897 -7.3931,-7.3931 c -5.7953,-5.7953 -5.7953,-15.1917 0,-20.9869 5.7953,-5.7953 15.1917,-5.7953 20.9869,0 l 7.3931,7.3931 7.3931,-7.3931 c 5.7953,-5.7953 15.1917,-5.7953 20.9869,0 5.7953,5.7953 5.7953,15.1917 0,20.9869 l -7.3931,7.3931 7.3931,7.3931 c 5.7953,5.7953 5.7953,15.1917 0,20.9869 -5.7953,5.7953 -15.1917,5.7953 -20.9869,0 l -7.3931,-7.3931 -45.7897,45.7897 z"
       fill-rule="evenodd"
       id="path5" />
    <path
       d="m 324.985,129.6073 -49.7351,20.6429 49.7351,20.6427 -20.5921,49.7143 49.7143,-20.5922 20.6428,49.7352 20.6428,-49.7352 49.7143,20.5922 L 424.515,170.8929 474.2502,150.2502 424.515,129.6073 445.1071,79.893 395.3928,100.485 374.75,50.7499 354.1072,100.485 304.3929,79.893 Z"
       id="path6" />
    <path
       d="M 75.485,429.1073 25.7499,449.7502 75.485,470.3929 54.8929,520.1072 104.6072,499.515 125.25,549.2502 145.8928,499.515 195.6071,520.1072 175.015,470.3929 224.7502,449.7502 175.015,429.1073 195.6071,379.393 145.8928,399.985 125.25,350.2499 104.6072,399.985 54.8929,379.393 Z"
       id="path7" />
  </g>
  <path
     d="m 1.5,1.5 v 473.25 c 0,68.35 55.4,123.75 123.75,123.75 h 62.375 c 27.18,0 50.966,17.254 62.375,40 11.409,-22.746 35.195,-40 62.375,-40 h 62.375 c 68.35,0 123.75,-55.4 123.75,-123.75 V 1.5 Z"
     fill="none"
     stroke="#000000"
     stroke-linecap="round"
     stroke-linejoin="round"
     stroke-width="3"
     id="path8" />
</svg>
