<?xml version="1.0" encoding="UTF-8" standalone="no"?>
<!-- Created with Inkscape (http://www.inkscape.org/) -->

<svg
   width="653"
   height="653"
   id="svg3194"
   sodipodi:version="0.32"
   inkscape:version="1.3.2 (091e20ef0f, 2023-11-25)"
   version="1.0"
   sodipodi:docname="armarria_Bakio.svg"
   inkscape:output_extension="org.inkscape.output.svg.inkscape"
   xmlns:inkscape="http://www.inkscape.org/namespaces/inkscape"
   xmlns:sodipodi="http://sodipodi.sourceforge.net/DTD/sodipodi-0.dtd"
   xmlns:xlink="http://www.w3.org/1999/xlink"
   xmlns="http://www.w3.org/2000/svg"
   xmlns:svg="http://www.w3.org/2000/svg"
   xmlns:rdf="http://www.w3.org/1999/02/22-rdf-syntax-ns#"
   xmlns:cc="http://creativecommons.org/ns#"
   xmlns:dc="http://purl.org/dc/elements/1.1/">
  <defs
     id="defs3196">
    <pattern
       patternUnits="userSpaceOnUse"
       width="65.215463"
       height="13.437431"
       patternTransform="translate(-933.82515,889.86576)"
       id="pattern18333">
      <g
         style="fill:#c8c4b7;fill-opacity:1"
         id="g18321"
         transform="matrix(0.6878384,0,0,0.3317462,499.87808,-497.24216)">
        <rect
           style="fill:#c8c4b7;fill-opacity:1;fill-rule:evenodd;stroke:none;stroke-width:0.97826427;stroke-miterlimit:4;stroke-dasharray:none;stroke-opacity:1"
           id="rect18323"
           width="94.812187"
           height="40.505154"
           x="-726.73767"
           y="1498.8632"
           ry="0.19331254" />
        <g
           style="fill:#c8c4b7;fill-opacity:1"
           transform="matrix(0.2476524,0,0,0.2476524,-375.1479,1126.8907)"
           id="g18325">
          <rect
             ry="0.22067831"
             y="1505.7567"
             x="-1418.7375"
             height="78.198135"
             width="189.90974"
             id="rect18327"
             style="fill:#c8c4b7;fill-opacity:1;fill-rule:evenodd;stroke:#000000;stroke-width:1;stroke-miterlimit:4;stroke-dasharray:none;stroke-opacity:1" />
          <rect
             ry="0.22067831"
             y="1505.7567"
             x="-1228.8276"
             height="78.198135"
             width="189.90974"
             id="rect18329"
             style="fill:#c8c4b7;fill-opacity:1;fill-rule:evenodd;stroke:#000000;stroke-width:1;stroke-miterlimit:4;stroke-dasharray:none;stroke-opacity:1" />
          <rect
             ry="0.22067831"
             y="1583.9548"
             x="-1323.7826"
             height="78.198135"
             width="189.90974"
             id="rect18331"
             style="fill:#c8c4b7;fill-opacity:1;fill-rule:evenodd;stroke:#000000;stroke-width:1;stroke-miterlimit:4;stroke-dasharray:none;stroke-opacity:1" />
        </g>
      </g>
    </pattern>
    <inkscape:perspective
       sodipodi:type="inkscape:persp3d"
       inkscape:vp_x="0 : 326.5 : 1"
       inkscape:vp_y="0 : 1000 : 0"
       inkscape:vp_z="503 : 326.5 : 1"
       inkscape:persp3d-origin="251.5 : 217.66667 : 1"
       id="perspective3791" />
    <linearGradient
       id="linearGradient8135">
      <stop
         style="stop-color:#5d070b;stop-opacity:1;"
         offset="0"
         id="stop8137" />
      <stop
         id="stop8139"
         offset="0.5"
         style="stop-color:#ed1c24;stop-opacity:1;" />
      <stop
         style="stop-color:#5d070a;stop-opacity:1;"
         offset="1"
         id="stop8141" />
    </linearGradient>
    <linearGradient
       inkscape:collect="always"
       xlink:href="#linearGradient8135"
       id="linearGradient11920"
       gradientUnits="userSpaceOnUse"
       gradientTransform="matrix(1.1773172,0,0,1.1773172,657.8819,-545.55183)"
       x1="-418.38882"
       y1="700.10571"
       x2="-136.18279"
       y2="700.10571" />
    <linearGradient
       y2="700.10571"
       x2="-136.18279"
       y1="700.10571"
       x1="-418.38882"
       gradientTransform="matrix(1.1773172,0,0,1.1773172,657.8819,-545.55183)"
       gradientUnits="userSpaceOnUse"
       id="linearGradient5484"
       xlink:href="#linearGradient8135"
       inkscape:collect="always" />
    <linearGradient
       id="linearGradient5476">
      <stop
         id="stop5478"
         offset="0"
         style="stop-color:#5d070b;stop-opacity:1;" />
      <stop
         style="stop-color:#ed1c24;stop-opacity:1;"
         offset="0.5"
         id="stop5480" />
      <stop
         id="stop5482"
         offset="1"
         style="stop-color:#5d070a;stop-opacity:1;" />
    </linearGradient>
    <clipPath
       id="id8">
      <path
         id="path12958"
         d="m 4900000,12100000 c -101120,-216290 -351940,-577050 -625300,-577050 -941580,0 -1883160,0 -2824750,0 -742420,0 -1349950,-604920 -1349950,-1344330 V 100020 h 4800000 4800000 v 10078600 c 0,739410 -607530,1344330 -1349950,1344330 -941590,0 -1883170,0 -2824750,0 -273360,0 -524180,360760 -625300,577050 z" />
    </clipPath>
    <clipPath
       id="id3">
      <path
         id="path12943"
         d="m 3178550,6435350 c 573250,0 1147180,-10 1720770,-10 573580,0 1147850,10 1722130,10 l 18810,117380 c 51780,29200 90690,297330 57010,355710 l 8130,50730 c 50190,33960 87460,289970 56450,352150 l 8380,52310 c 51360,30500 89850,295450 56880,354870 l 8250,51470 c 49980,34470 87060,289020 56410,351690 l 8470,52900 c 50900,31870 88910,293300 56720,353840 l 8160,50900 670,4170 c 22750,10520 38660,33620 38660,60220 v 181040 l 17690,110340 7850,48990 c 52720,26240 92610,301600 57310,357560 l 7550,47140 c 53890,22260 95070,307000 57680,359710 l 61540,383760 c -771960,0 -1543960,0 -2314990,0 -771040,0 -1542560,0 -2313150,0 l 62490,-389580 c -30390,-63030 6520,-316250 56320,-351260 l 7650,-47700 c -38170,-51440 3450,-339680 57780,-360440 l 7360,-45940 c -36590,-53950 4090,-335230 57540,-359000 l 7630,-47540 c -35020,-56380 4700,-330540 57260,-357260 l 7900,-49280 c -33470,-58690 5340,-326030 57010,-355490 l 7690,-47980 c -35800,-55190 4390,-332850 57390,-358140 l 45050,-281090 v -59100 c 0,-16630 6220,-31900 16450,-43580 l 10930,-68180 c -36520,-54060 4110,-334960 57520,-358910 z" />
    </clipPath>
    <linearGradient
       y2="343.1196"
       x2="416.20303"
       y1="343.1196"
       x1="133.79698"
       gradientTransform="matrix(1.1401119,0,0,1.1401119,-479.50036,1178.7304)"
       gradientUnits="userSpaceOnUse"
       id="linearGradient9130"
       xlink:href="#linearGradient8929"
       inkscape:collect="always" />
    <linearGradient
       y2="343.1196"
       x2="416.20303"
       y1="343.1196"
       x1="133.79698"
       gradientTransform="matrix(1.1401119,0,0,1.1401119,-479.50036,1178.7304)"
       gradientUnits="userSpaceOnUse"
       id="linearGradient9094"
       xlink:href="#linearGradient8929"
       inkscape:collect="always" />
    <linearGradient
       id="linearGradient8215">
      <stop
         id="stop8217"
         offset="0"
         style="stop-color:#5d070b;stop-opacity:1;" />
      <stop
         style="stop-color:#ed1c24;stop-opacity:1;"
         offset="0.5"
         id="stop8219" />
      <stop
         id="stop8221"
         offset="1"
         style="stop-color:#5d070a;stop-opacity:1;" />
    </linearGradient>
    <linearGradient
       gradientTransform="matrix(1.1401119,0,0,1.1401119,-508.53099,1753.7756)"
       y2="343.1196"
       x2="416.20303"
       y1="343.1196"
       x1="133.79698"
       gradientUnits="userSpaceOnUse"
       id="linearGradient7861"
       xlink:href="#linearGradient8929"
       inkscape:collect="always" />
    <linearGradient
       id="linearGradient8929">
      <stop
         style="stop-color:#776201;stop-opacity:1;"
         offset="0"
         id="stop8931" />
      <stop
         id="stop8933"
         offset="0.5"
         style="stop-color:#eac102;stop-opacity:1;" />
      <stop
         style="stop-color:#776201;stop-opacity:1;"
         offset="1"
         id="stop8935" />
    </linearGradient>
    <linearGradient
       inkscape:collect="always"
       xlink:href="#linearGradient8929"
       id="linearGradient8287"
       gradientUnits="userSpaceOnUse"
       gradientTransform="matrix(1.1401119,0,0,1.1401119,-479.50036,1178.7304)"
       x1="133.79698"
       y1="343.1196"
       x2="416.20303"
       y2="343.1196" />
    <linearGradient
       inkscape:collect="always"
       xlink:href="#linearGradient8929"
       id="linearGradient8315"
       gradientUnits="userSpaceOnUse"
       gradientTransform="matrix(1.1401119,0,0,1.1401119,614.12874,703.27798)"
       x1="133.79698"
       y1="343.1196"
       x2="416.20303"
       y2="343.1196" />
    <linearGradient
       inkscape:collect="always"
       xlink:href="#linearGradient8929"
       id="linearGradient8351"
       gradientUnits="userSpaceOnUse"
       gradientTransform="matrix(1.1401119,0,0,1.1401119,614.12874,703.27798)"
       x1="133.79698"
       y1="343.1196"
       x2="416.20303"
       y2="343.1196" />
    <linearGradient
       inkscape:collect="always"
       xlink:href="#linearGradient8929"
       id="linearGradient8379"
       gradientUnits="userSpaceOnUse"
       gradientTransform="matrix(1.1401119,0,0,1.1401119,614.12874,703.27798)"
       x1="133.79698"
       y1="343.1196"
       x2="416.20303"
       y2="343.1196" />
    <linearGradient
       inkscape:collect="always"
       xlink:href="#linearGradient8929"
       id="linearGradient9103"
       gradientUnits="userSpaceOnUse"
       gradientTransform="matrix(1.1401119,0,0,1.1401119,614.12874,703.27798)"
       x1="133.79698"
       y1="343.1196"
       x2="416.20303"
       y2="343.1196" />
    <linearGradient
       id="linearGradient5424">
      <stop
         id="stop5426"
         offset="0"
         style="stop-color:#5d070b;stop-opacity:1;" />
      <stop
         style="stop-color:#ed1c24;stop-opacity:1;"
         offset="0.5"
         id="stop5428" />
      <stop
         id="stop5430"
         offset="1"
         style="stop-color:#5d070a;stop-opacity:1;" />
    </linearGradient>
    <clipPath
       id="id0">
      <path
         id="path19584"
         d="m 14186300,5152250 c 0,0 192520,531420 469520,807850 276950,276430 478730,433880 662120,497520 183380,63600 243430,71380 468350,106740 224910,35370 538010,235520 538010,235520 0,0 -93220,-443930 -285140,-653670 -191920,-209780 -342300,-390000 -783210,-603570 -440870,-213570 -539180,-210470 -748800,-250180 -209620,-39660 -320850,-140210 -320850,-140210 z" />
    </clipPath>
    <clipPath
       id="id1">
      <path
         id="path19587"
         d="m 14186300,5152250 c 0,0 192520,531420 469520,807850 276950,276430 478730,433880 662120,497520 183380,63600 243430,71380 468350,106740 224910,35370 538010,235520 538010,235520 0,0 -93220,-443930 -285140,-653670 -191920,-209780 -342300,-390000 -783210,-603570 -440870,-213570 -539180,-210470 -748800,-250180 -209620,-39660 -320850,-140210 -320850,-140210 z" />
    </clipPath>
    <clipPath
       id="id2">
      <path
         id="path19590"
         d="m 17905000,7712850 c 168520,651560 60740,1647200 -524010,2079400 -361860,267500 -703730,314770 -1004210,391560 -300430,76830 -496090,173470 -496090,173470 0,0 -54450,-75370 -20210,-332640 34250,-257270 476240,-795050 889620,-1200870 413430,-405860 836590,-748460 955830,-881240 119200,-132780 199070,-229680 199070,-229680 z" />
    </clipPath>
    <clipPath
       id="clipPath5415">
      <path
         id="path19593"
         d="m 17905000,7712850 c 168520,651560 60740,1647200 -524010,2079400 -361860,267500 -703730,314770 -1004210,391560 -300430,76830 -496090,173470 -496090,173470 0,0 -54450,-75370 -20210,-332640 34250,-257270 476240,-795050 889620,-1200870 413430,-405860 836590,-748460 955830,-881240 119200,-132780 199070,-229680 199070,-229680 z" />
    </clipPath>
    <clipPath
       id="id4">
      <path
         id="path19596"
         d="m 13581500,896020 c 0,0 -73750,109400 -60270,321510 13530,212190 -380,450120 -126300,653580 -125920,203430 -215530,317730 -431820,471310 -216340,153580 -349200,298600 -349200,298600 0,0 14650,-73730 -13140,-307410 -27780,-233680 38260,-565710 187390,-810950 149100,-245230 300480,-352700 451900,-460220 151460,-107550 341440,-166420 341440,-166420 z" />
    </clipPath>
    <clipPath
       id="id5">
      <path
         id="path19599"
         d="m 13581500,896020 c 0,0 -73750,109400 -60270,321510 13530,212190 -380,450120 -126300,653580 -125920,203430 -215530,317730 -431820,471310 -216340,153580 -349200,298600 -349200,298600 0,0 14650,-73730 -13140,-307410 -27780,-233680 38260,-565710 187390,-810950 149100,-245230 300480,-352700 451900,-460220 151460,-107550 341440,-166420 341440,-166420 z" />
    </clipPath>
    <clipPath
       id="id6">
      <path
         id="path19602"
         d="m 12245000,694180 c 0,0 18490,95830 136440,200200 118030,104420 235080,236690 275310,409000 40190,172360 52860,279010 19560,472210 -33340,193150 -27310,338440 -27310,338440 0,0 -30850,-46410 -167580,-154700 -136770,-108280 -275660,-316990 -325500,-523380 -49890,-206310 -26580,-341540 -3230,-476770 23350,-135230 92310,-265000 92310,-265000 z" />
    </clipPath>
    <clipPath
       id="id7">
      <path
         id="path19605"
         d="m 12245000,694180 c 0,0 18490,95830 136440,200200 118030,104420 235080,236690 275310,409000 40190,172360 52860,279010 19560,472210 -33340,193150 -27310,338440 -27310,338440 0,0 -30850,-46410 -167580,-154700 -136770,-108280 -275660,-316990 -325500,-523380 -49890,-206310 -26580,-341540 -3230,-476770 23350,-135230 92310,-265000 92310,-265000 z" />
    </clipPath>
    <clipPath
       id="clipPath5404">
      <path
         id="path19608"
         d="m 13855800,1063560 c 0,0 288930,172830 540040,456700 251060,283820 613480,605590 506340,1079640 -107220,474100 -248560,480420 -287420,739830 -38850,259420 12070,430490 12070,430490 0,0 -243830,-246700 -420750,-500320 -176890,-253610 -391120,-485220 -350920,-952360 40190,-467180 70780,-600480 64830,-830540 -5940,-230070 -64190,-423440 -64190,-423440 z" />
    </clipPath>
    <clipPath
       id="id9">
      <path
         id="path19611"
         d="m 13855800,1063560 c 0,0 288930,172830 540040,456700 251060,283820 613480,605590 506340,1079640 -107220,474100 -248560,480420 -287420,739830 -38850,259420 12070,430490 12070,430490 0,0 -243830,-246700 -420750,-500320 -176890,-253610 -391120,-485220 -350920,-952360 40190,-467180 70780,-600480 64830,-830540 -5940,-230070 -64190,-423440 -64190,-423440 z" />
    </clipPath>
    <clipPath
       id="id10">
      <path
         id="path19614"
         d="m 12394500,3395680 c 0,0 417350,548740 639930,626900 222550,78210 494030,165230 757410,83370 263340,-81860 483000,-123110 666350,-130630 183250,-7440 475150,101360 475150,101360 0,0 -310160,-511520 -653460,-641470 -835120,-316090 -1143820,116800 -1885380,-39530 z" />
    </clipPath>
    <clipPath
       id="id11">
      <path
         id="path19617"
         d="m 12394500,3395680 c 0,0 417350,548740 639930,626900 222550,78210 494030,165230 757410,83370 263340,-81860 483000,-123110 666350,-130630 183250,-7440 475150,101360 475150,101360 0,0 -310160,-511520 -653460,-641470 -835120,-316090 -1143820,116800 -1885380,-39530 z" />
    </clipPath>
    <clipPath
       id="id12">
      <path
         id="path19620"
         d="m 15415100,2266750 c 0,0 -342600,800500 -374350,1331370 -31750,530820 81030,1008310 343420,1421350 262350,413120 606460,504610 680210,777900 73710,273250 120450,547450 120450,547450 0,0 251370,-775930 265280,-1354870 13960,-578910 25590,-892810 -165030,-1432610 -190580,-539800 -375000,-717570 -543350,-901230 -168400,-183750 -326630,-389360 -326630,-389360 z" />
    </clipPath>
    <clipPath
       id="id13">
      <path
         id="path19623"
         d="m 15415100,2266750 c 0,0 -342600,800500 -374350,1331370 -31750,530820 81030,1008310 343420,1421350 262350,413120 606460,504610 680210,777900 73710,273250 120450,547450 120450,547450 0,0 251370,-775930 265280,-1354870 13960,-578910 25590,-892810 -165030,-1432610 -190580,-539800 -375000,-717570 -543350,-901230 -168400,-183750 -326630,-389360 -326630,-389360 z" />
    </clipPath>
    <clipPath
       id="id14">
      <path
         id="path19626"
         d="m 14778300,5948840 c 0,0 -34250,633780 84740,1029460 119020,395680 156970,625100 395850,838580 238780,213480 333680,278020 581690,423740 248000,145670 335880,71280 471320,218980 135440,147730 96500,116620 96500,116620 0,0 47860,-416300 -139450,-881640 -187300,-465290 -250720,-698190 -727900,-1064650 -477180,-366450 -762750,-681090 -762750,-681090 z" />
    </clipPath>
    <clipPath
       id="id15">
      <path
         id="path19629"
         d="m 14778300,5948840 c 0,0 -34250,633780 84740,1029460 119020,395680 156970,625100 395850,838580 238780,213480 333680,278020 581690,423740 248000,145670 335880,71280 471320,218980 135440,147730 96500,116620 96500,116620 0,0 47860,-416300 -139450,-881640 -187300,-465290 -250720,-698190 -727900,-1064650 -477180,-366450 -762750,-681090 -762750,-681090 z" />
    </clipPath>
    <clipPath
       id="id16">
      <path
         id="path19632"
         d="m 14817100,7359190 c 0,0 -174940,385370 -194540,749590 -19650,364180 -5040,572500 175760,864790 180840,292330 279880,421120 505910,662700 226000,241540 329820,410930 329820,410930 0,0 288360,-134800 265660,-604690 -22660,-469930 -127300,-694580 -390550,-1119090 -263170,-424420 -476880,-536920 -575880,-665750 -99030,-128780 -116180,-298480 -116180,-298480 z" />
    </clipPath>
    <clipPath
       id="id17">
      <path
         id="path19635"
         d="m 14817100,7359190 c 0,0 -174940,385370 -194540,749590 -19650,364180 -5040,572500 175760,864790 180840,292330 279880,421120 505910,662700 226000,241540 329820,410930 329820,410930 0,0 288360,-134800 265660,-604690 -22660,-469930 -127300,-694580 -390550,-1119090 -263170,-424420 -476880,-536920 -575880,-665750 -99030,-128780 -116180,-298480 -116180,-298480 z" />
    </clipPath>
    <clipPath
       id="id18">
      <path
         id="path19638"
         d="m 16890700,8377910 c 160430,564380 234350,1467590 -95370,1986500 -178350,280730 -553650,675810 -553650,675810 l -283070,195040 -954800,184690 c 0,0 602240,-1346190 960060,-1836230 282680,-387090 591770,-860280 926830,-1205810 z" />
    </clipPath>
    <clipPath
       id="id19">
      <path
         id="path19641"
         d="m 16890700,8377910 c 160430,564380 234350,1467590 -95370,1986500 -178350,280730 -553650,675810 -553650,675810 l -283070,195040 -954800,184690 c 0,0 602240,-1346190 960060,-1836230 282680,-387090 591770,-860280 926830,-1205810 z" />
    </clipPath>
    <clipPath
       id="id20">
      <path
         id="path19644"
         d="m 14636800,8617900 c 0,0 -251150,401650 -273550,760590 -22360,358980 -4570,637600 81120,893660 194540,581490 399080,861830 476060,1534070 l 553350,-964190 c 103340,-401220 -109640,-1177360 -326150,-1548880 -216430,-371530 -510830,-675250 -510830,-675250 z" />
    </clipPath>
    <clipPath
       id="id21">
      <path
         id="path19647"
         d="m 14636800,8617900 c 0,0 -251150,401650 -273550,760590 -22360,358980 -4570,637600 81120,893660 194540,581490 399080,861830 476060,1534070 l 553350,-964190 c 103340,-401220 -109640,-1177360 -326150,-1548880 -216430,-371530 -510830,-675250 -510830,-675250 z" />
    </clipPath>
    <clipPath
       id="id22">
      <path
         id="path19650"
         d="m 13618500,13165000 c 0,0 187310,-399500 54190,-673220 -133110,-273730 -330930,-428300 -323220,-1023960 7710,-597170 97880,-1003460 413860,-1568140 79570,447890 485670,767380 590440,1234080 73140,325720 940,714310 -50710,969430 -51610,255080 -105580,543750 -105580,543750 l -177360,279960 -258860,234840 z" />
    </clipPath>
    <clipPath
       id="id23">
      <path
         id="path19653"
         d="m 13618500,13165000 c 0,0 187310,-399500 54190,-673220 -133110,-273730 -330930,-428300 -323220,-1023960 7710,-597170 97880,-1003460 413860,-1568140 79570,447890 485670,767380 590440,1234080 73140,325720 940,714310 -50710,969430 -51610,255080 -105580,543750 -105580,543750 l -177360,279960 -258860,234840 z" />
    </clipPath>
    <clipPath
       id="id24">
      <path
         id="path19656"
         d="m 16911800,4552070 c 433590,643710 547530,1439870 87670,2095870 -258350,368390 -571400,526870 -634380,622650 -63020,95740 -112310,142490 -112310,142490 0,0 -183510,-492280 -133280,-841630 50190,-349400 179940,-715170 347340,-1114240 167450,-399030 266190,-553120 320940,-688520 54790,-135450 124020,-216620 124020,-216620 z" />
    </clipPath>
    <clipPath
       id="id25">
      <path
         id="path19659"
         d="m 16911800,4552070 c 433590,643710 547530,1439870 87670,2095870 -258350,368390 -571400,526870 -634380,622650 -63020,95740 -112310,142490 -112310,142490 0,0 -183510,-492280 -133280,-841630 50190,-349400 179940,-715170 347340,-1114240 167450,-399030 266190,-553120 320940,-688520 54790,-135450 124020,-216620 124020,-216620 z" />
    </clipPath>
    <clipPath
       id="id26">
      <path
         id="path19662"
         d="m 17887700,5978240 c 0,0 1290,925810 -266960,1361400 -268250,435560 -637350,685300 -906810,897320 -269370,212020 -469810,375180 -469810,375180 0,0 -25850,-529310 118290,-1001440 144190,-472120 347860,-666860 624340,-870200 276480,-203300 480980,-405990 602200,-497390 121180,-91360 298750,-264870 298750,-264870 z" />
    </clipPath>
    <clipPath
       id="id27">
      <path
         id="path19665"
         d="m 17887700,5978240 c 0,0 1290,925810 -266960,1361400 -268250,435560 -637350,685300 -906810,897320 -269370,212020 -469810,375180 -469810,375180 0,0 -25850,-529310 118290,-1001440 144190,-472120 347860,-666860 624340,-870200 276480,-203300 480980,-405990 602200,-497390 121180,-91360 298750,-264870 298750,-264870 z" />
    </clipPath>
    <clipPath
       id="id28">
      <path
         id="path19668"
         d="m 16131400,10733900 c 361900,-208970 1045730,77950 1449170,2190 129790,-24410 317830,-56330 317830,-56330 0,0 -90380,380890 -465810,673650 -375430,292810 -755080,497480 -1190520,502810 -435400,5320 -576180,-109150 -817290,-144000 -241110,-34890 -583500,223880 -583500,223880 35320,-125180 216210,-553640 314520,-638980 283410,-246050 650400,-375480 975600,-563220 z" />
    </clipPath>
    <clipPath
       id="id29">
      <path
         id="path19671"
         d="m 16131400,10733900 c 361900,-208970 1045730,77950 1449170,2190 129790,-24410 317830,-56330 317830,-56330 0,0 -90380,380890 -465810,673650 -375430,292810 -755080,497480 -1190520,502810 -435400,5320 -576180,-109150 -817290,-144000 -241110,-34890 -583500,223880 -583500,223880 35320,-125180 216210,-553640 314520,-638980 283410,-246050 650400,-375480 975600,-563220 z" />
    </clipPath>
    <clipPath
       id="id30">
      <path
         id="path19674"
         d="m 10942800,1832570 c 0,0 127000,36610 325380,-40910 198330,-77690 429710,-137120 662420,-79710 232620,57540 369140,107730 581820,266250 212720,158560 391710,240460 391710,240460 0,0 -74910,8600 -289490,106360 -214570,97840 -551710,136470 -831330,69740 -279620,-66740 -428460,-177770 -577340,-288680 -148970,-110950 -263170,-273510 -263170,-273510 z" />
    </clipPath>
    <clipPath
       id="id31">
      <path
         id="path19677"
         d="m 10942800,1832570 c 0,0 127000,36610 325380,-40910 198330,-77690 429710,-137120 662420,-79710 232620,57540 369140,107730 581820,266250 212720,158560 391710,240460 391710,240460 0,0 -74910,8600 -289490,106360 -214570,97840 -551710,136470 -831330,69740 -279620,-66740 -428460,-177770 -577340,-288680 -148970,-110950 -263170,-273510 -263170,-273510 z" />
    </clipPath>
    <clipPath
       id="id32">
      <path
         id="path19680"
         d="m 11216900,2958840 c 0,0 127080,-36270 253820,-207250 126650,-170900 290870,-343900 518620,-418540 227850,-74720 370180,-104630 634720,-83100 264680,21650 460000,-3910 460000,-3910 0,0 -58930,47010 -188600,243550 -129710,196640 -394600,408100 -666990,499760 -272510,91830 -457710,76700 -643030,61620 -185160,-15040 -368540,-92130 -368540,-92130 z" />
    </clipPath>
    <clipPath
       id="id33">
      <path
         id="path19683"
         d="m 11216900,2958840 c 0,0 127080,-36270 253820,-207250 126650,-170900 290870,-343900 518620,-418540 227850,-74720 370180,-104630 634720,-83100 264680,21650 460000,-3910 460000,-3910 0,0 -58930,47010 -188600,243550 -129710,196640 -394600,408100 -666990,499760 -272510,91830 -457710,76700 -643030,61620 -185160,-15040 -368540,-92130 -368540,-92130 z" />
    </clipPath>
    <clipPath
       id="id34">
      <path
         id="path19686"
         d="m 13692900,11728500 c 0,0 -430870,25650 -730960,298990 -300000,273250 -391540,354850 -512030,850780 -120620,495930 -40580,550970 -113510,726940 -73060,175970 -32910,412610 -32910,412610 l 189460,-193370 180540,-208540 c 0,0 635800,-652690 750820,-808030 206650,-279220 122600,-605800 227060,-909480 31750,-92300 41530,-169900 41530,-169900 z" />
    </clipPath>
    <clipPath
       id="id35">
      <path
         id="path19689"
         d="m 13692900,11728500 c 0,0 -430870,25650 -730960,298990 -300000,273250 -391540,354850 -512030,850780 -120620,495930 -40580,550970 -113510,726940 -73060,175970 -32910,412610 -32910,412610 l 189460,-193370 180540,-208540 c 0,0 635800,-652690 750820,-808030 206650,-279220 122600,-605800 227060,-909480 31750,-92300 41530,-169900 41530,-169900 z" />
    </clipPath>
    <clipPath
       id="id36">
      <path
         id="path19692"
         d="m 14450300,12388500 c 327610,-259250 1045990,-74640 1434090,-208150 124920,-42980 306240,-101850 306240,-101850 0,0 -33810,389970 -362550,734080 -328730,344150 -674480,601760 -1104540,670260 -430010,68450 -585950,-24370 -829610,-23850 -243610,520 -766450,15300 -766450,15300 16670,-128960 354970,-288210 439830,-386960 244430,-284550 588630,-465890 882990,-698830 z" />
    </clipPath>
    <clipPath
       id="id37">
      <path
         id="path19695"
         d="m 14450300,12388500 c 327610,-259250 1045990,-74640 1434090,-208150 124920,-42980 306240,-101850 306240,-101850 0,0 -33810,389970 -362550,734080 -328730,344150 -674480,601760 -1104540,670260 -430010,68450 -585950,-24370 -829610,-23850 -243610,520 -766450,15300 -766450,15300 16670,-128960 354970,-288210 439830,-386960 244430,-284550 588630,-465890 882990,-698830 z" />
    </clipPath>
    <clipPath
       id="id38">
      <path
         id="path19698"
         d="m 14684500,13624900 c 0,0 -243780,425750 -674920,593300 -431130,167630 -560790,219540 -1129170,91960 -568300,-127540 -584190,-236860 -801180,-251380 -216950,-14490 -247190,-44950 -247190,-44950 l 6030,-37170 c 490020,-326240 1016750,-518060 1606280,-623120 390030,-69530 681810,180900 1045300,227830 110460,14260 194850,43530 194850,43530 z" />
    </clipPath>
    <clipPath
       id="id39">
      <path
         id="path19701"
         d="m 14684500,13624900 c 0,0 -243780,425750 -674920,593300 -431130,167630 -560790,219540 -1129170,91960 -568300,-127540 -584190,-236860 -801180,-251380 -216950,-14490 -247190,-44950 -247190,-44950 l 6030,-37170 c 490020,-326240 1016750,-518060 1606280,-623120 390030,-69530 681810,180900 1045300,227830 110460,14260 194850,43530 194850,43530 z" />
    </clipPath>
    <linearGradient
       id="linearGradient4476">
      <stop
         id="stop4478"
         offset="0"
         style="stop-color:#403800;stop-opacity:1;" />
      <stop
         style="stop-color:#c8af00;stop-opacity:1;"
         offset="0.5"
         id="stop3321" />
      <stop
         id="stop4480"
         offset="1"
         style="stop-color:#403900;stop-opacity:1;" />
    </linearGradient>
    <linearGradient
       y2="343.1196"
       x2="416.20303"
       y1="343.1196"
       x1="133.79698"
       gradientTransform="matrix(1.139822,0,0,1.139822,-148.07549,614.27196)"
       gradientUnits="userSpaceOnUse"
       id="linearGradient7738"
       xlink:href="#linearGradient4476"
       inkscape:collect="always" />
    <linearGradient
       id="linearGradient2892">
      <stop
         style="stop-color:#403800;stop-opacity:1;"
         offset="0"
         id="stop2894" />
      <stop
         id="stop2896"
         offset="0.5"
         style="stop-color:#c8af00;stop-opacity:1;" />
      <stop
         style="stop-color:#403900;stop-opacity:1;"
         offset="1"
         id="stop2898" />
    </linearGradient>
  </defs>
  <sodipodi:namedview
     id="base"
     pagecolor="#ffffff"
     bordercolor="#666666"
     borderopacity="1.0"
     gridtolerance="10000"
     guidetolerance="10"
     objecttolerance="10"
     inkscape:pageopacity="0.0"
     inkscape:pageshadow="2"
     inkscape:zoom="0.4855745"
     inkscape:cx="309.94214"
     inkscape:cy="536.47792"
     inkscape:document-units="px"
     inkscape:current-layer="layer2"
     inkscape:window-width="1446"
     inkscape:window-height="748"
     inkscape:window-x="50"
     inkscape:window-y="86"
     showgrid="false"
     height="650px"
     width="550px"
     showguides="true"
     inkscape:guide-bbox="true"
     inkscape:showpageshadow="2"
     inkscape:pagecheckerboard="0"
     inkscape:deskcolor="#d1d1d1"
     inkscape:window-maximized="0" />
  <metadata
     id="metadata3199">
    <rdf:RDF>
      <cc:Work
         rdf:about="">
        <dc:format>image/svg+xml</dc:format>
        <dc:type
           rdf:resource="http://purl.org/dc/dcmitype/StillImage" />
      </cc:Work>
    </rdf:RDF>
  </metadata>
  <g
     inkscape:groupmode="layer"
     id="layer3"
     inkscape:label="Timbre"
     transform="translate(-77.871057,28.109015)"
     style="display:inline" />
  <g
     inkscape:label="Escudo"
     inkscape:groupmode="layer"
     id="layer1"
     transform="translate(-77.871057,28.109015)"
     style="display:inline" />
  <g
     inkscape:groupmode="layer"
     id="layer4"
     inkscape:label="Piezas"
     style="display:inline"
     transform="translate(-21.442335,-48.531331)">
    <g
       id="g5818"
       inkscape:label="Piezas"
       transform="translate(873.00016,-55.320157)" />
    <g
       id="g5820"
       inkscape:label="Muebles"
       transform="translate(873.00016,-55.320157)" />
    <g
       id="g5822"
       inkscape:label="Ornamentos"
       transform="translate(873.00016,-55.320157)" />
  </g>
  <g
     inkscape:groupmode="layer"
     id="layer5"
     inkscape:label="Muebles"
     style="display:inline"
     transform="translate(-21.442335,-48.531331)">
    <g
       inkscape:label="Escudo"
       id="g5438"
       transform="translate(-582.73933,640.16742)"
       style="display:inline" />
    <g
       id="g5440"
       inkscape:label="Piezas"
       style="display:inline"
       transform="translate(-526.31061,563.52708)" />
    <g
       id="g5559"
       inkscape:label="Ornamento"
       transform="translate(-526.31061,563.52708)" />
    <g
       id="g5561"
       inkscape:label="Borde 3px"
       style="display:inline"
       transform="translate(-526.31061,563.52708)" />
  </g>
  <g
     inkscape:groupmode="layer"
     id="layer6"
     inkscape:label="Ornamentos"
     style="display:inline"
     transform="translate(-21.442335,-48.531331)" />
  <g
     inkscape:groupmode="layer"
     id="layer2"
     inkscape:label="Borde 3px"
     style="display:inline"
     transform="translate(-21.442335,-48.531331)">
    <path
       style="display:inline;fill:#008f4c;fill-opacity:1;fill-rule:evenodd;stroke:none;stroke-width:3;stroke-linecap:butt;stroke-linejoin:miter;stroke-miterlimit:4;stroke-dasharray:none;stroke-opacity:1"
       id="path4299"
       sodipodi:nodetypes="cccccccccc"
       d="m 26.942335,50.031331 c 0,0 0.72294,513.909359 0.53923,520.904829 -0.76054,29.40605 2.622995,58.59435 126.054685,70.65832 45.16727,3.55406 100.13357,24.77277 123.13647,58.05984 0.0967,0.12985 0.19032,0.25134 0.28547,0.37701 l 0.25376,-0.37701 c 23.00292,-33.28707 77.9692,-54.50578 123.13646,-58.05984 123.4317,-12.06397 126.81522,-41.25227 126.05468,-70.65832 -0.18368,-6.99549 0.53924,-520.904829 0.53924,-520.904829 z" />
    <g
       id="g13515"
       transform="matrix(1.151439,0,0,1.1201327,649.72841,-191.55989)">
      <path
         style="fill:#000000;fill-opacity:1;fill-rule:evenodd;stroke:#000000;stroke-width:0.994537;stroke-miterlimit:4;stroke-dasharray:none;stroke-opacity:1"
         id="rect3097"
         d="m -174.80994,261.73474 c 0.0137,0 0.026,0.0267 0.0259,0.0566 v 8.23441 h 6.58946 c 0.0137,0 0.026,0.0266 0.026,0.0566 v 3.73523 c 0,0.03 -0.0122,0.0566 -0.026,0.0566 h -6.58946 v 20.54361 c 0,0.0299 -0.0122,0.0566 -0.0259,0.0566 h -1.71221 c -0.0137,0 -0.0259,-0.0266 -0.0259,-0.0566 v -20.54361 h -6.58947 c -0.0137,0 -0.0259,-0.0266 -0.0259,-0.0566 v -3.73523 c 0,-0.0299 0.0122,-0.0566 0.0259,-0.0566 h 6.58947 v -8.23441 c 0,-0.0299 0.0122,-0.0566 0.0259,-0.0566 z" />
      <path
         style="fill:#c2beb1;fill-opacity:1;fill-rule:evenodd;stroke:#000000;stroke-width:1;stroke-miterlimit:4;stroke-dasharray:none;stroke-opacity:1"
         id="rect2270"
         sodipodi:nodetypes="csccccccccccccccccccccccsc"
         d="m -175.70961,311.47776 c 11.82886,1.02596 26.16907,16.3804 26.50528,24.67159 0.0518,1.27751 -0.13172,2.77958 -0.37511,4.11967 h 5.92295 c 0.0386,0 0.0691,0.0287 0.0691,0.0651 v 8.09056 c 0,0.0364 -0.0305,0.0744 -0.0691,0.0744 h -9.12135 c -0.25308,0.40607 -0.51315,0.80867 -0.78975,1.19964 h 8.80547 c 0.0386,0 0.0691,0.0287 0.0691,0.0651 v 59.70282 c 0,0.0364 -0.0305,0.0651 -0.0691,0.0651 h -63.38566 c -0.0387,0 -0.0691,-0.0287 -0.0691,-0.0651 v -59.70282 c 0,-0.0364 0.0305,-0.0651 0.0691,-0.0651 h 10.27634 c -0.27638,-0.39089 -0.53714,-0.79359 -0.78973,-1.19964 h -9.73343 c -0.0386,0 -0.0691,-0.038 -0.0691,-0.0744 v -8.09056 c 0,-0.0364 0.0305,-0.0651 0.0691,-0.0651 h 6.55479 c -0.24135,-1.34009 -0.32614,-2.8418 -0.37512,-4.11967 -0.38604,-10.06764 11.87463,-24.67159 26.50532,-24.67159 z" />
      <rect
         style="display:inline;fill:#c2beb1;fill-opacity:1;fill-rule:evenodd;stroke:#000000;stroke-width:1;stroke-miterlimit:4;stroke-dasharray:none;stroke-opacity:1"
         id="rect10660"
         width="50.666443"
         transform="matrix(0,-1,-1,0,0,0)"
         y="145.83215"
         ry="0.13432284"
         x="-401.0546"
         height="13.59936" />
      <rect
         style="fill:#c2beb1;fill-opacity:1;fill-rule:evenodd;stroke:#000000;stroke-width:1;stroke-miterlimit:4;stroke-dasharray:none;stroke-opacity:1"
         id="rect2257"
         width="96.17569"
         transform="scale(-1,1)"
         y="427.49582"
         ry="0.048308868"
         x="128.19414"
         height="141.8383" />
      <path
         style="fill:#c2beb1;fill-opacity:1;fill-rule:evenodd;stroke:#000000;stroke-width:1;stroke-linecap:butt;stroke-linejoin:miter;stroke-miterlimit:4;stroke-dasharray:none;stroke-opacity:1"
         id="path2183"
         d="m -128.19456,418.56148 -97.09625,1.70932 -0.55803,5.12797 97.09629,-2.39306 z" />
      <path
         style="fill:#c2beb1;fill-opacity:1;fill-rule:evenodd;stroke:#000000;stroke-width:1;stroke-linecap:butt;stroke-linejoin:miter;stroke-miterlimit:4;stroke-dasharray:none;stroke-opacity:1"
         id="path2207"
         d="m -203.80262,338.89087 h -4.85222 l 0.88224,10.38865 5.29333,-1.66217 z" />
      <rect
         style="fill:#c2beb1;fill-opacity:1;fill-rule:evenodd;stroke:#000000;stroke-width:1;stroke-miterlimit:4;stroke-dasharray:none;stroke-opacity:1"
         id="rect2259"
         width="98.212311"
         transform="scale(-1,1)"
         y="416.61865"
         ry="0.054026391"
         x="127.26717"
         height="11.623409" />
      <rect
         style="fill:#c2beb1;fill-opacity:1;fill-rule:evenodd;stroke:#000000;stroke-width:1;stroke-miterlimit:4;stroke-dasharray:none;stroke-opacity:1"
         id="rect2268"
         width="107.1407"
         transform="scale(-1,1)"
         y="418.21967"
         ry="0.054026391"
         x="122.61426"
         height="6.8372998" />
      <path
         style="fill:#c2beb1;fill-opacity:1;fill-rule:evenodd;stroke:#000000;stroke-width:1;stroke-linecap:butt;stroke-linejoin:miter;stroke-miterlimit:4;stroke-dasharray:none;stroke-opacity:1"
         id="path2360"
         sodipodi:nodetypes="ccccc"
         d="m -171.30382,307.81879 c -0.27706,-4.23328 -4.06167,-7.52479 -3.22819,-17.25234 -0.74755,-0.6784 -2.55471,-0.91526 -3.35191,-0.29596 1.24846,9.64344 -2.31419,14.94027 -2.86412,17.5483 1.83498,2.15876 7.63439,2.17989 9.44422,0 z" />
      <rect
         style="fill:#c2beb1;fill-opacity:1;fill-rule:evenodd;stroke:#000000;stroke-width:1;stroke-miterlimit:4;stroke-dasharray:none;stroke-opacity:1"
         id="rect2293"
         width="14.347948"
         transform="scale(-1,1)"
         y="306.74951"
         ry="0.065670386"
         x="168.8519"
         height="4.1136875" />
      <rect
         style="fill:#c2beb1;fill-opacity:1;fill-rule:evenodd;stroke:#000000;stroke-width:1;stroke-miterlimit:4;stroke-dasharray:none;stroke-opacity:1"
         id="rect2287"
         width="25.576777"
         transform="scale(-1,1)"
         y="310.29626"
         ry="0.065670386"
         x="162.92566"
         height="4.4075212" />
      <path
         style="fill:#c2beb1;fill-opacity:1;fill-rule:evenodd;stroke:#000000;stroke-width:1;stroke-miterlimit:4;stroke-dasharray:none;stroke-opacity:1"
         id="path2322"
         d="m -177.89743,356.96348 c 5.53647,0 10.02986,3.77974 10.02986,8.43846 0,0.681 -0.1102,1.34513 -0.29148,1.97958 v 33.7538 c 0,0.0565 -0.0529,0.10115 -0.11998,0.10117 h -19.25387 c -0.0671,0 -0.12002,-0.0446 -0.12002,-0.10117 v -33.79717 c -0.17334,-0.62122 -0.27432,-1.27069 -0.27432,-1.93621 0,-4.65872 4.49342,-8.43843 10.02981,-8.43846 z" />
      <path
         style="fill:#000000;fill-opacity:1;fill-rule:evenodd;stroke:#000000;stroke-width:1;stroke-miterlimit:4;stroke-dasharray:none;stroke-opacity:1"
         id="path2324"
         d="m -177.98778,362.22726 c 3.163,0 5.73009,3.33942 5.73009,7.45546 0,0.60166 -0.063,1.18842 -0.1665,1.74895 v 29.82175 c 0,0.0499 -0.0303,0.0894 -0.0686,0.0894 h -10.99978 c -0.0383,0 -0.0686,-0.0394 -0.0686,-0.0894 v -29.86005 c -0.099,-0.54886 -0.15669,-1.12267 -0.15669,-1.71065 0,-4.11602 2.56709,-7.45543 5.73005,-7.45546 z" />
      <rect
         style="fill:#c2beb1;fill-opacity:1;fill-rule:evenodd;stroke:#000000;stroke-width:1;stroke-miterlimit:4;stroke-dasharray:none;stroke-opacity:1"
         id="rect2354"
         width="64.438484"
         transform="scale(-1,1)"
         y="339.92261"
         ry="0.065816432"
         x="143.65068"
         height="8.3293877" />
      <rect
         style="fill:#c2beb1;fill-opacity:1;fill-rule:evenodd;stroke:#000000;stroke-width:1;stroke-miterlimit:4;stroke-dasharray:none;stroke-opacity:1"
         id="rect2299"
         width="9.7025948"
         transform="scale(-1,1)"
         y="338.82382"
         ry="0.060882606"
         x="162.53436"
         height="9.5344343" />
      <rect
         style="fill:#c2beb1;fill-opacity:1;fill-rule:evenodd;stroke:#000000;stroke-width:1;stroke-miterlimit:4;stroke-dasharray:none;stroke-opacity:1"
         id="rect2297"
         width="9.6692705"
         transform="scale(-1,1)"
         y="338.51184"
         ry="0.065670386"
         x="143.58713"
         height="10.284217" />
      <rect
         style="fill:#c2beb1;fill-opacity:1;fill-rule:evenodd;stroke:#000000;stroke-width:1;stroke-miterlimit:4;stroke-dasharray:none;stroke-opacity:1"
         id="rect2301"
         width="9.6692705"
         transform="scale(-1,1)"
         y="338.36502"
         ry="0.065670386"
         x="181.51512"
         height="10.284217" />
      <rect
         style="fill:#c2beb1;fill-opacity:1;fill-rule:evenodd;stroke:#000000;stroke-width:1;stroke-miterlimit:4;stroke-dasharray:none;stroke-opacity:1"
         id="rect2303"
         width="9.6692705"
         transform="scale(-1,1)"
         y="338.36502"
         ry="0.065670386"
         x="200.47922"
         height="10.284217" />
      <rect
         style="display:inline;fill:#c2beb1;fill-opacity:1;fill-rule:evenodd;stroke:#000000;stroke-width:1;stroke-miterlimit:4;stroke-dasharray:none;stroke-opacity:1"
         id="rect10658"
         width="50.666443"
         transform="matrix(0,-1,-1,0,0,0)"
         y="194.27487"
         ry="0.13432284"
         x="-402.55551"
         height="13.59936" />
      <rect
         style="fill:#c2beb1;fill-opacity:1;fill-rule:evenodd;stroke:#000000;stroke-width:1;stroke-miterlimit:4;stroke-dasharray:none;stroke-opacity:1"
         id="rect2283"
         width="67.996788"
         transform="scale(-1,1)"
         y="348.20093"
         ry="0.065670386"
         x="142.96324"
         height="5.2890272" />
      <ellipse
         style="fill:#c2beb1;fill-opacity:1;fill-rule:evenodd;stroke:#000000;stroke-width:2.48846;stroke-miterlimit:4;stroke-dasharray:none;stroke-opacity:1"
         id="path2358"
         transform="matrix(-0.4254244,0,0,0.3795908,22.39028,118.00425)"
         cx="466.396"
         cy="445.19458"
         rx="11.171162"
         ry="10.472964" />
      <rect
         style="fill:#c2beb1;fill-opacity:1;fill-rule:evenodd;stroke:#000000;stroke-width:1;stroke-miterlimit:4;stroke-dasharray:none;stroke-opacity:1"
         id="rect4664"
         width="32.311584"
         transform="scale(-1,1)"
         y="411.38757"
         ry="0.088840023"
         x="161.13139"
         height="2.3488853" />
      <path
         style="display:inline;fill:#c2beb1;fill-opacity:1;fill-rule:evenodd;stroke:#000000;stroke-width:1;stroke-miterlimit:4;stroke-dasharray:none;stroke-opacity:1"
         id="path3093"
         sodipodi:nodetypes="cccccccc"
         d="m -176.0238,514.68199 c -11.84465,0 -21.45785,7.68444 -21.45783,12.98601 l 0.62356,40.66418 c 0,0.0643 0.11329,0.11506 0.25675,0.11509 h 41.19174 c 0.14343,0 0.25677,-0.0508 0.25675,-0.11509 l 0.58688,-40.66418 c 0,-5.30155 -9.61319,-12.98601 -21.45785,-12.98601 z" />
      <path
         style="display:inline;fill:#000000;fill-opacity:1;fill-rule:evenodd;stroke:#000000;stroke-width:1;stroke-miterlimit:4;stroke-dasharray:none;stroke-opacity:1"
         id="path3095"
         sodipodi:nodetypes="cccccc"
         d="m -175.72276,522.06554 c -8.6169,0 -15.61048,7.21406 -15.61048,11.67358 l 0.45363,34.20541 30.15363,0.0968 0.61373,-34.30223 c 0,-4.45952 -6.99357,-11.67354 -15.61051,-11.67358 z" />
      <path
         style="display:inline;fill:#c2beb1;fill-opacity:1;fill-rule:evenodd;stroke:#000000;stroke-width:1;stroke-linecap:butt;stroke-linejoin:miter;stroke-miterlimit:4;stroke-dasharray:none;stroke-opacity:1"
         id="path5580"
         d="m -220.06127,409.50834 h -7.85009 l 1.4273,8.44808 8.56373,-1.35169 z" />
      <rect
         style="display:inline;fill:#c2beb1;fill-opacity:1;fill-rule:evenodd;stroke:#000000;stroke-width:1;stroke-miterlimit:4;stroke-dasharray:none;stroke-opacity:1"
         id="rect5582"
         width="104.25096"
         transform="scale(-1,1)"
         y="410.34735"
         ry="0.053522147"
         x="122.74511"
         height="6.7734861" />
      <path
         sodipodi:nodetypes="ccccccc"
         id="rect13487"
         d="m -143.06126,399.75069 6.02708,10.03257 c 0,0.0148 -0.0177,0.0268 -0.0396,0.0268 h -79.78969 c -0.0219,0 -0.0396,-0.0119 -0.0396,-0.0268 l 8.4379,-10.03257 c 23.80544,0.12744 41.60029,-0.29412 65.40387,0 z"
         style="fill:#c2beb1;fill-opacity:1;stroke:#000000;stroke-width:1;stroke-opacity:1" />
      <rect
         style="display:inline;fill:#c2beb1;fill-opacity:1;fill-rule:evenodd;stroke:#000000;stroke-width:1;stroke-miterlimit:4;stroke-dasharray:none;stroke-opacity:1"
         id="rect5584"
         width="15.697221"
         transform="scale(-1,1)"
         y="409.45383"
         ry="0.049509943"
         x="153.29601"
         height="7.7534347" />
      <rect
         style="display:inline;fill:#c2beb1;fill-opacity:1;fill-rule:evenodd;stroke:#000000;stroke-width:1;stroke-miterlimit:4;stroke-dasharray:none;stroke-opacity:1"
         id="rect5586"
         width="15.643304"
         transform="scale(-1,1)"
         y="409.20013"
         ry="0.053403374"
         x="122.64231"
         height="8.3631601" />
      <rect
         style="display:inline;fill:#c2beb1;fill-opacity:1;fill-rule:evenodd;stroke:#000000;stroke-width:1;stroke-miterlimit:4;stroke-dasharray:none;stroke-opacity:1"
         id="rect5588"
         width="15.643304"
         transform="scale(-1,1)"
         y="409.08075"
         ry="0.053403374"
         x="184.00354"
         height="8.3631601" />
      <rect
         style="display:inline;fill:#c2beb1;fill-opacity:1;fill-rule:evenodd;stroke:#000000;stroke-width:1;stroke-miterlimit:4;stroke-dasharray:none;stroke-opacity:1"
         id="rect5590"
         width="15.643304"
         transform="scale(-1,1)"
         y="409.08075"
         ry="0.053403374"
         x="214.68442"
         height="8.3631601" />
      <g
         style="fill:#c2beb1;fill-opacity:1;stroke-width:1"
         transform="translate(104.84836,37.133793)"
         id="g11903">
        <circle
           style="fill:#c2beb1;fill-opacity:1;stroke:#000000;stroke-width:1.31317;stroke-opacity:1"
           id="path11899"
           transform="matrix(0.7413784,0,0,0.7821947,-50.521942,108.68535)"
           cx="-313.45291"
           cy="304.59766"
           r="17.838783" />
        <path
           style="fill:#c2beb1;fill-opacity:1;fill-rule:evenodd;stroke:#000000;stroke-width:1;stroke-linecap:butt;stroke-linejoin:miter;stroke-opacity:1"
           d="m -288.57712,340.39047 5.39807,8.5429 7.01751,-9.11243"
           id="path11901" />
      </g>
      <path
         style="display:inline;fill:#c2beb1;fill-opacity:1;fill-rule:evenodd;stroke:#000000;stroke-width:1;stroke-linecap:butt;stroke-linejoin:miter;stroke-miterlimit:4;stroke-dasharray:none;stroke-opacity:1"
         id="path13475"
         sodipodi:nodetypes="ccccc"
         d="m -145.31788,336.09711 c -0.17492,-3.04159 -2.56433,-5.40653 -2.03811,-12.39574 -0.47197,-0.48743 -1.61291,-0.65762 -2.11623,-0.21265 0.78822,6.92878 -1.46106,10.73453 -1.80825,12.60839 1.15851,1.55106 4.81996,1.56625 5.96259,0 z" />
      <rect
         style="display:inline;fill:#c2beb1;fill-opacity:1;fill-rule:evenodd;stroke:#000000;stroke-width:1;stroke-miterlimit:4;stroke-dasharray:none;stroke-opacity:1"
         id="rect13477"
         width="9.0585537"
         transform="scale(-1,1)"
         y="335.32883"
         ry="0.04718395"
         x="143.76987"
         height="2.9556704" />
      <ellipse
         style="display:inline;fill:#c2beb1;fill-opacity:1;fill-rule:evenodd;stroke:#000000;stroke-width:3.69474;stroke-miterlimit:4;stroke-dasharray:none;stroke-opacity:1"
         id="path13479"
         transform="matrix(-0.268591,0,0,0.2727347,-23.029434,199.71601)"
         cx="466.396"
         cy="445.19458"
         rx="11.171162"
         ry="10.472964" />
      <path
         style="display:inline;fill:#c2beb1;fill-opacity:1;fill-rule:evenodd;stroke:#000000;stroke-width:1;stroke-linecap:butt;stroke-linejoin:miter;stroke-miterlimit:4;stroke-dasharray:none;stroke-opacity:1"
         id="path13481"
         sodipodi:nodetypes="ccccc"
         d="m -202.56581,336.00611 c -0.17492,-3.04159 -2.56433,-5.40653 -2.03811,-12.39574 -0.47197,-0.48743 -1.61291,-0.65762 -2.11623,-0.21265 0.78822,6.92878 -1.46106,10.73453 -1.80825,12.60839 1.15851,1.55106 4.81996,1.56625 5.96259,0 z" />
      <rect
         style="display:inline;fill:#c2beb1;fill-opacity:1;fill-rule:evenodd;stroke:#000000;stroke-width:1;stroke-miterlimit:4;stroke-dasharray:none;stroke-opacity:1"
         id="rect13483"
         width="9.0585537"
         transform="scale(-1,1)"
         y="335.23782"
         ry="0.04718395"
         x="201.01779"
         height="2.9556704" />
      <ellipse
         style="display:inline;fill:#c2beb1;fill-opacity:1;fill-rule:evenodd;stroke:#000000;stroke-width:3.69474;stroke-miterlimit:4;stroke-dasharray:none;stroke-opacity:1"
         id="path13485"
         transform="matrix(-0.268591,0,0,0.2727347,-80.277367,199.62501)"
         cx="466.396"
         cy="445.19458"
         rx="11.171162"
         ry="10.472964" />
      <g
         style="stroke-width:1"
         transform="translate(-26.212089,83.733062)"
         id="g13496">
        <path
           d="m -99.799263,322.13935 c -0.277057,-4.23328 -4.061667,-7.52479 -3.228187,-17.25234 -0.74755,-0.6784 -2.55471,-0.91526 -3.35191,-0.29596 1.24846,9.64344 -2.31419,14.94027 -2.86412,17.5483 1.83498,2.15876 7.63439,2.17989 9.444217,0 z"
           sodipodi:nodetypes="ccccc"
           id="path13490"
           style="display:inline;fill:#c2beb1;fill-opacity:1;fill-rule:evenodd;stroke:#000000;stroke-width:1;stroke-linecap:butt;stroke-linejoin:miter;stroke-miterlimit:4;stroke-dasharray:none;stroke-opacity:1" />
        <rect
           height="4.1136875"
           x="97.347343"
           ry="0.065670386"
           y="321.07007"
           transform="scale(-1,1)"
           width="14.347948"
           id="rect13492"
           style="display:inline;fill:#c2beb1;fill-opacity:1;fill-rule:evenodd;stroke:#000000;stroke-width:1;stroke-miterlimit:4;stroke-dasharray:none;stroke-opacity:1" />
        <ellipse
           transform="matrix(-0.4254244,0,0,0.3795908,93.894837,132.32481)"
           id="path13494"
           style="display:inline;fill:#c2beb1;fill-opacity:1;fill-rule:evenodd;stroke:#000000;stroke-width:2.48846;stroke-miterlimit:4;stroke-dasharray:none;stroke-opacity:1"
           cx="466.396"
           cy="445.19458"
           rx="11.171162"
           ry="10.472964" />
      </g>
      <path
         style="display:inline;fill:#c2beb1;fill-opacity:1;fill-rule:evenodd;stroke:#000000;stroke-width:1;stroke-linecap:butt;stroke-linejoin:miter;stroke-miterlimit:4;stroke-dasharray:none;stroke-opacity:1"
         id="path13501"
         sodipodi:nodetypes="ccccc"
         d="m -218.48178,405.87241 c -0.27706,-4.23328 -4.06167,-7.52479 -3.22819,-17.25234 -0.74755,-0.6784 -2.55471,-0.91526 -3.35191,-0.29596 1.24846,9.64344 -2.31418,14.94027 -2.86411,17.5483 1.83497,2.15876 7.63438,2.17989 9.44421,0 z" />
      <rect
         style="display:inline;fill:#c2beb1;fill-opacity:1;fill-rule:evenodd;stroke:#000000;stroke-width:1;stroke-miterlimit:4;stroke-dasharray:none;stroke-opacity:1"
         id="rect13503"
         width="14.347948"
         transform="scale(-1,1)"
         y="404.80313"
         ry="0.065670386"
         x="216.02985"
         height="4.1136875" />
      <ellipse
         style="display:inline;fill:#c2beb1;fill-opacity:1;fill-rule:evenodd;stroke:#000000;stroke-width:2.48846;stroke-miterlimit:4;stroke-dasharray:none;stroke-opacity:1"
         id="path13505"
         transform="matrix(-0.4254244,0,0,0.3795908,-24.787674,216.05787)"
         cx="466.396"
         cy="445.19458"
         rx="11.171162"
         ry="10.472964" />
      <path
         style="display:inline;fill:#c2beb1;fill-opacity:1;fill-rule:evenodd;stroke:#000000;stroke-width:1;stroke-miterlimit:4;stroke-dasharray:none;stroke-opacity:1"
         id="path13507"
         sodipodi:nodetypes="cccccccc"
         d="m -176.3913,433.4473 c -8.31529,0 -15.06404,5.54456 -15.06403,9.36981 l 0.43776,29.34046 c 0,0.0464 0.0795,0.083 0.18025,0.083 h 28.9178 c 0.10069,0 0.18026,-0.0366 0.18025,-0.083 l 0.412,-29.34046 c 0,-3.82523 -6.74874,-9.36981 -15.06403,-9.36981 z" />
      <path
         style="display:inline;fill:#000000;fill-opacity:1;fill-rule:evenodd;stroke:#000000;stroke-width:1;stroke-miterlimit:4;stroke-dasharray:none;stroke-opacity:1"
         id="path13509"
         sodipodi:nodetypes="cccccc"
         d="m -176.17997,436.67228 c -6.05006,0 -10.96037,5.1717 -10.96037,8.36868 l 0.3185,24.52157 21.17136,0.0694 0.43091,-24.59096 c 0,-3.19698 -4.9103,-8.36865 -10.9604,-8.36868 z" />
      <path
         style="display:inline;fill:#803300;fill-opacity:1;fill-rule:evenodd;stroke:#000000;stroke-width:1;stroke-miterlimit:4;stroke-dasharray:none;stroke-opacity:1"
         id="path13513"
         sodipodi:nodetypes="ccccc"
         d="m -190.99588,531.3075 c 5.37968,0 9.74589,5.7781 9.74589,9.34994 l -0.28321,27.3968 -10.08499,0.0775 c 0.22316,-13.99397 0.16364,-25.68523 0.62231,-36.82429 z" />
    </g>
    <path
       id="path4304"
       d="m 39.65137,86.756961 c 0.20427,120.744729 -0.41112,241.502829 0.31222,362.239099 3.84688,108.35657 86.78731,207.32615 192.69986,230.20965 97.98283,23.86998 207.6723,-19.0271 262.97739,-103.62122 33.12209,-47.31073 45.3201,-105.86015 42.58894,-162.85245 0,-108.65836 0,-217.31672 0,-325.975079 -166.19277,0 -332.38555,0 -498.57841,0 z"
       style="color:#000000;display:inline;overflow:visible;visibility:visible;fill:none;fill-opacity:1;fill-rule:evenodd;stroke:none;stroke-width:1;stroke-linecap:butt;stroke-linejoin:miter;stroke-miterlimit:4;stroke-dasharray:none;stroke-dashoffset:0;stroke-opacity:1;marker:none;marker-start:none;marker-mid:none;marker-end:none;enable-background:accumulate" />
    <path
       id="path4560"
       d="m 37.56729,86.80287 c 0.20428,120.74473 -0.41112,241.50283 0.31223,362.2391 3.84688,108.35657 86.78731,207.32615 192.69986,230.20965 97.98283,23.86998 207.6723,-19.0271 262.97739,-103.62122 33.12209,-47.31073 45.3201,-105.86015 42.58894,-162.85245 0,-108.65836 0,-217.31672 0,-325.97508 -166.19277,0 -332.38555,0 -498.57842,0 z"
       style="color:#000000;display:inline;overflow:visible;visibility:visible;fill:none;fill-opacity:1;fill-rule:evenodd;stroke:none;stroke-width:1;stroke-linecap:butt;stroke-linejoin:miter;stroke-miterlimit:4;stroke-dasharray:none;stroke-dashoffset:0;stroke-opacity:1;marker:none;marker-start:none;marker-mid:none;marker-end:none;enable-background:accumulate" />
    <path
       style="display:inline;fill:#0071bc;fill-opacity:1;fill-rule:evenodd;stroke:#000000;stroke-width:1.30368;stroke-linecap:butt;stroke-linejoin:miter;stroke-miterlimit:4;stroke-dasharray:none;stroke-opacity:1"
       d="m 28.09671,502.91702 c 0.0518,57.29339 0.0817,66.14023 0.0312,68.0625 -0.760499,29.40605 2.63057,58.59227 126.0625,70.65625 44.10189,3.47024 97.52735,23.80659 121.4375,55.75 v 1.40625 c 0.17205,-0.24118 0.35585,-0.47886 0.53125,-0.71875 0.1754,0.23989 0.3592,0.47757 0.53125,0.71875 v -1.40625 c 23.91011,-31.94341 77.33561,-52.27976 121.4375,-55.75 123.43187,-12.06398 126.82297,-41.2502 126.06247,-70.65625 -0.0504,-1.92227 -0.0205,-10.76911 0.0313,-68.0625 h -247.53127 -1.0625 z"
       id="path8445"
       sodipodi:nodetypes="cccccccccccccc" />
    <path
       style="display:inline;fill:#e3e4e5;fill-opacity:1;fill-rule:evenodd;stroke:#000000;stroke-width:1;stroke-linecap:butt;stroke-linejoin:miter;stroke-miterlimit:4;stroke-dasharray:none;stroke-opacity:1"
       d="m 46.76627,476.95804 c 18.06161,13.35861 8.06535,33.80193 -18.812501,23.65625 1.320301,11.23027 -0.38935,19.51874 0.906251,27.59375 22.36529,6.35539 45.51429,-9.03825 27.71875,-23.65625 24.86385,-1.15919 16.63915,22.24007 34.9375,24.46875 -0.007,-0.19786 -0.0218,-0.43826 -0.0312,-0.65625 22.20516,5.9804 44.87915,-9.30552 27.21875,-23.8125 24.86385,-1.15919 16.63923,22.24007 34.9375,24.46875 -0.006,-0.19781 -0.0218,-0.43832 -0.0312,-0.65625 22.20374,5.97713 44.87797,-9.30651 27.21875,-23.8125 24.86384,-1.15919 16.63913,22.24008 34.9375,24.46875 -0.007,-0.19786 -0.0218,-0.43826 -0.0312,-0.65625 22.20515,5.9804 44.87915,-9.30552 27.21875,-23.8125 24.86384,-1.15919 16.63915,22.24008 34.9375,24.46875 -0.007,-0.19786 -0.0217,-0.43826 -0.0312,-0.65625 22.20646,5.9835 44.88024,-9.3046 27.21875,-23.8125 24.86381,-1.15919 16.63915,22.24008 34.9375,24.46875 -0.007,-0.19781 -0.0218,-0.43832 -0.0312,-0.65625 22.20365,5.97713 44.90916,-9.30651 27.25,-23.8125 24.86375,-1.15919 16.60789,22.24007 34.90625,24.46875 -0.007,-0.19786 -0.0218,-0.43826 -0.0312,-0.65625 22.20516,5.9804 44.9104,-9.30552 27.25,-23.8125 24.86376,-1.15919 16.60789,22.24007 34.90625,24.46875 -0.007,-0.19786 -0.0218,-0.43826 -0.0312,-0.65625 22.20648,5.9835 44.9115,-9.3046 27.25,-23.8125 24.73077,-1.15299 16.73662,21.96538 34.65625,24.40625 6.9e-4,-1.48613 -8.3e-4,-3.38002 0,-4.9375 -0.42162,-6.73385 -1.05903,-16.43652 0,-22.21875 3.3e-4,-0.44518 0.0309,-0.73885 0.0312,-1.1875 -20.30387,-0.48253 -14.53796,-22.99447 -44.5,-23.65625 17.76171,13.13688 8.37769,33.11354 -17.5,24.125 0.0355,-0.15981 0.0551,-0.31653 0.0937,-0.46875 -20.60835,-0.29916 -14.63159,-22.99171 -44.71875,-23.65625 17.76181,13.13688 8.37767,33.11354 -17.5,24.125 0.0355,-0.15981 0.0551,-0.31653 0.0937,-0.46875 -20.60834,-0.29916 -14.6316,-22.99172 -44.71875,-23.65625 17.76357,13.1382 8.3837,33.12039 -17.5,24.125 0.0356,-0.15999 0.0551,-0.31636 0.0937,-0.46875 -20.60834,-0.29916 -14.66291,-22.99171 -44.75,-23.65625 17.7618,13.13688 8.40892,33.11354 -17.46875,24.125 0.0355,-0.15981 0.0551,-0.31653 0.0937,-0.46875 -20.60836,-0.29916 -14.66291,-22.99171 -44.75,-23.65625 17.76367,13.13828 8.38402,33.1208 -17.5,24.125 0.0356,-0.15999 0.0863,-0.31636 0.125,-0.46875 -20.60835,-0.29916 -14.66283,-22.99171 -44.75,-23.65625 17.76181,13.13688 8.37776,33.11354 -17.5,24.125 0.0356,-0.15999 0.0864,-0.31636 0.125,-0.46875 -20.60826,-0.29916 -14.6629,-22.99172 -44.75,-23.65625 17.76181,13.13688 8.37768,33.11354 -17.5,24.125 0.0356,-0.15981 0.0864,-0.31653 0.125,-0.46875 -20.60833,-0.29916 -14.66291,-22.9917 -44.75,-23.65625 z"
       id="path3823" />
    <g
       id="g3704"
       transform="matrix(-0.3405417,0.05736008,0.05863768,0.3900078,-8.31148,325.79238)"
       style="stroke:#000000;stroke-width:2.70986;stroke-opacity:1">
      <path
         id="path2404"
         d="m -209.21019,535.20373 -15.26926,36.21647 -4.36265,1.13179 -38.17324,98.46355 h 27.26659 l 23.99457,-87.14588 -4.36266,-10.18593 16.36,-33.95293 z"
         style="fill:#552200;fill-opacity:1;fill-rule:evenodd;stroke:#000000;stroke-width:2.70986;stroke-linecap:butt;stroke-linejoin:miter;stroke-opacity:1" />
      <path
         sodipodi:nodetypes="ccccccccccccccc"
         id="path2400"
         d="m -707.64327,544.25786 16.35995,70.16941 39.26388,32.8212 58.89584,12.4494 315.20166,3.39533 49.07984,-104.1224 28.35723,-19.24 23.99457,-47.53409 -113.42898,4.52702 -2.54687,32.0777 -61.34679,10.51419 -97.02436,9.78608 -19.11621,13.42664 -75.18095,3.23306 z"
         style="fill:#803300;fill-rule:evenodd;stroke:#000000;stroke-width:2.70986;stroke-linecap:butt;stroke-linejoin:miter;stroke-opacity:1" />
      <path
         id="path2443"
         d="M -845.92266,484.25818 -458.77255,135.33671"
         style="fill:none;fill-rule:evenodd;stroke:#000000;stroke-width:2.70986;stroke-linecap:butt;stroke-linejoin:miter;stroke-opacity:1" />
      <path
         id="path2419"
         d="m -474.24133,222.83666 205.04466,-88.27766 2.18133,4.52706 -210.49801,97.33178 z"
         style="fill:#552200;fill-opacity:1;fill-rule:evenodd;stroke:#000000;stroke-width:2.70986;stroke-linecap:butt;stroke-linejoin:miter;stroke-opacity:1" />
      <path
         id="path2413"
         d="m -551.67845,558.9708 94.8877,-460.628268 10.90665,3.395298 -90.52504,461.76003 z"
         style="fill:#552200;fill-opacity:1;fill-rule:evenodd;stroke:#000000;stroke-width:2.70986;stroke-linecap:butt;stroke-linejoin:miter;stroke-opacity:1" />
      <path
         sodipodi:nodetypes="ccccccccccccccccccc"
         id="path2402"
         d="m -714.18724,534.07199 c 0,0 1.52198,28.6133 3.27199,40.74354 1.14022,7.90352 2.96328,18.46826 5.45331,26.0306 2.46065,7.47308 6.35981,17.43417 10.90664,23.76707 8.16595,11.37367 21.902,24.72805 33.81056,31.6894 8.92886,5.21949 22.58035,8.64165 32.71989,10.18587 10.35939,1.57774 34.90125,0 34.90125,0 l 319.56427,5.65881 45.80786,-110.91295 h -7.63462 l -46.89851,93.93648 -315.20166,-2.26353 c 0,0 -30.19318,-3.80541 -42.53589,-7.92234 -7.24534,-2.41671 -17.01437,-6.31607 -22.90392,-11.31767 -8.8624,-7.52626 -16.40549,-21.90442 -22.90393,-31.6894 -4.17241,-6.28256 -10.23457,-14.47148 -13.08796,-21.50354 -2.74099,-6.75506 -5.12907,-16.44534 -5.45332,-23.76706 -0.21242,-4.79659 2.18133,-15.84468 2.18133,-15.84468 z"
         style="fill:#552200;fill-rule:evenodd;stroke:#000000;stroke-width:2.70986;stroke-linecap:butt;stroke-linejoin:miter;stroke-opacity:1" />
      <path
         id="path2392"
         d="m -1068.6528,416.36845 225.76731,64.5106 -2.18133,6.7906 -221.40468,-65.6424 z"
         style="fill:#552200;fill-opacity:1;fill-rule:evenodd;stroke:#000000;stroke-width:2.70986;stroke-linecap:butt;stroke-linejoin:miter;stroke-opacity:1" />
      <path
         id="path2394"
         d="m -935.59187,463.90258 -2.18133,5.65881 262.84983,80.35533 1.09066,-15.84473 z"
         style="fill:#552200;fill-opacity:1;fill-rule:evenodd;stroke:#000000;stroke-width:2.70986;stroke-linecap:butt;stroke-linejoin:miter;stroke-opacity:1" />
      <path
         id="path2396"
         d="m -926.86655,450.32138 6.54394,1.1318 -6.54394,28.29408 -3.27202,-2.26354 z"
         style="fill:#552200;fill-opacity:1;fill-rule:evenodd;stroke:#000000;stroke-width:2.70986;stroke-linecap:butt;stroke-linejoin:miter;stroke-opacity:1" />
      <path
         id="path2398"
         d="m -866.88012,468.42965 5.45335,2.26353 -6.54399,24.89881 -5.45329,-2.26354 z"
         style="fill:#552200;fill-opacity:1;fill-rule:evenodd;stroke:#000000;stroke-width:2.70986;stroke-linecap:butt;stroke-linejoin:miter;stroke-opacity:1" />
      <path
         sodipodi:nodetypes="cccccc"
         id="path2390"
         d="m -455.70006,233.02255 c 38.96902,-19.92632 114.24186,-45.5236 167.96211,-79.22354 57.26416,79.7446 142.0119,189.88612 207.226041,278.41417 -96.508881,38.11006 -169.655901,52.56079 -244.308591,65.64234 -55.6761,9.75623 -119.71081,19.04798 -187.59407,15.84468 19.32969,-69.05681 44.14065,-202.21528 56.71451,-280.67765 z"
         style="fill:#e3e4e5;fill-opacity:1;fill-rule:evenodd;stroke:#000000;stroke-width:2.70986;stroke-linecap:butt;stroke-linejoin:miter;stroke-opacity:1" />
      <path
         sodipodi:nodetypes="ccccc"
         id="path2421"
         d="m -530.24279,504.64612 480.269441,-66.77414 v 6.7906 l -480.628961,72.43294 z"
         style="fill:#552200;fill-opacity:1;fill-rule:evenodd;stroke:#000000;stroke-width:2.70986;stroke-linecap:butt;stroke-linejoin:miter;stroke-opacity:1" />
      <path
         sodipodi:nodetypes="cccc"
         id="path2388"
         d="m -494.96393,201.33313 c -54.66349,73.46751 -125.73453,238.00649 -189.77541,312.36707 35.6709,10.66481 119.08412,9.13824 152.69286,-11.31761 7.77796,-73.15717 21.50118,-195.57623 37.08255,-301.04946 z"
         style="fill:#e3e4e5;fill-opacity:1;fill-rule:evenodd;stroke:#000000;stroke-width:2.70986;stroke-linecap:butt;stroke-linejoin:miter;stroke-opacity:1" />
      <path
         sodipodi:nodetypes="ccccc"
         id="path2386"
         d="m -547.31579,228.49549 c -88.42321,72.20281 -222.92248,202.81768 -279.20976,246.7247 63.31827,16.16134 89.792,15.9311 128.69826,18.10826 24.18642,1.35348 61.63863,13.23248 80.70907,-2.26353 11.8285,-59.43253 46.77927,-180.18159 69.80243,-262.56943 z"
         style="fill:#e3e4e5;fill-opacity:1;fill-rule:evenodd;stroke:#000000;stroke-width:2.70986;stroke-linecap:butt;stroke-linejoin:miter;stroke-opacity:1" />
      <path
         sodipodi:nodetypes="ccccc"
         id="path2384"
         d="m -1031.5703,411.84139 c 93.4029,-47.0399 311.26309,-171.18354 431.90271,-258.04238 -54.88653,113.28894 -142.45712,252.22062 -165.78082,294.25884 -46.13815,16.57227 -99.59355,-0.83582 -141.78623,-6.7906 -37.90948,-5.35027 -64.11979,-19.59182 -124.33566,-29.42586 z"
         style="fill:#e3e4e5;fill-opacity:1;fill-rule:evenodd;stroke:#000000;stroke-width:2.70986;stroke-linecap:butt;stroke-linejoin:miter;stroke-opacity:1" />
      <path
         sodipodi:nodetypes="ccc"
         id="path2423"
         d="M -858.26213,481.05707 -424.83908,5.6915759 -601.19318,155.46111"
         style="fill:none;fill-rule:evenodd;stroke:#000000;stroke-width:2.70986;stroke-linecap:butt;stroke-linejoin:miter;stroke-opacity:1" />
      <path
         id="path2425"
         d="M -431.0088,8.89269 -1060.3206,420.2359"
         style="fill:none;fill-rule:evenodd;stroke:#000000;stroke-width:2.70986;stroke-linecap:butt;stroke-linejoin:miter;stroke-opacity:1" />
      <path
         id="path2427"
         d="m -865.97427,489.05985 157.32793,96.03342"
         style="fill:none;fill-rule:evenodd;stroke:#000000;stroke-width:2.70986;stroke-linecap:butt;stroke-linejoin:miter;stroke-opacity:1" />
      <path
         id="path2429"
         d="m -1058.7781,423.43701 132.64903,56.01951"
         style="fill:none;fill-rule:evenodd;stroke:#000000;stroke-width:2.70986;stroke-linecap:butt;stroke-linejoin:miter;stroke-opacity:1" />
      <path
         sodipodi:nodetypes="cc"
         id="path2431"
         d="M -696.3069,525.87265 -449.50304,106.39289"
         style="fill:none;fill-rule:evenodd;stroke:#000000;stroke-width:2.70986;stroke-linecap:butt;stroke-linejoin:miter;stroke-opacity:1" />
      <path
         sodipodi:nodetypes="cc"
         id="path2433"
         d="M -433.57885,545.94108 -423.29666,7.2921303"
         style="fill:none;fill-rule:evenodd;stroke:#000000;stroke-width:2.70986;stroke-linecap:butt;stroke-linejoin:miter;stroke-opacity:1" />
      <path
         id="path2435"
         d="m -443.34827,104.92612 120.30959,54.41894 -72.49422,380.93263"
         style="fill:none;fill-rule:evenodd;stroke:#000000;stroke-width:2.70986;stroke-linecap:butt;stroke-linejoin:miter;stroke-opacity:1" />
      <path
         id="path2437"
         d="M -421.75423,7.2921303 -53.113314,439.44255"
         style="fill:none;fill-rule:evenodd;stroke:#000000;stroke-width:2.70986;stroke-linecap:butt;stroke-linejoin:miter;stroke-opacity:1" />
      <path
         sodipodi:nodetypes="cc"
         id="path2439"
         d="M -270.59176,136.31042 -441.80584,108.12723"
         style="fill:none;fill-rule:evenodd;stroke:#000000;stroke-width:2.70986;stroke-linecap:butt;stroke-linejoin:miter;stroke-opacity:1" />
      <path
         sodipodi:nodetypes="cc"
         id="path2441"
         d="M -571.37,553.08213 -450.02857,106.17981"
         style="fill:none;fill-rule:evenodd;stroke:#000000;stroke-width:2.70986;stroke-linecap:butt;stroke-linejoin:miter;stroke-opacity:1" />
      <path
         id="path2415"
         d="m -454.60942,150.40371 8.72532,1.13177 35.99191,-209.376496 h -3.27202 z"
         style="fill:#552200;fill-opacity:1;fill-rule:evenodd;stroke:#000000;stroke-width:2.70986;stroke-linecap:butt;stroke-linejoin:miter;stroke-opacity:1" />
      <path
         id="path2417"
         d="m -461.15341,94.947233 28.35729,5.658827 -2.18133,7.92235 -26.17596,-4.52706 z"
         style="fill:#552200;fill-opacity:1;fill-rule:evenodd;stroke:#000000;stroke-width:2.70986;stroke-linecap:butt;stroke-linejoin:miter;stroke-opacity:1" />
      <ellipse
         transform="matrix(0.5150354,0,0,0.5344445,-1132.4566,-97.028384)"
         id="path2457"
         style="fill:#552200;fill-opacity:1;stroke:#000000;stroke-width:5.16509;stroke-opacity:1"
         cx="1172.1177"
         cy="1254.1765"
         rx="10.588235"
         ry="10.058824" />
      <ellipse
         transform="matrix(0.5150354,0,0,0.5344445,-1121.0047,-96.179585)"
         id="path2459"
         style="fill:#552200;fill-opacity:1;stroke:#000000;stroke-width:5.16509;stroke-opacity:1"
         cx="1172.1177"
         cy="1254.1765"
         rx="10.588235"
         ry="10.058824" />
      <ellipse
         transform="matrix(0.5150354,0,0,0.5344445,-1109.0073,-95.047819)"
         id="path2461"
         style="fill:#552200;fill-opacity:1;stroke:#000000;stroke-width:5.16509;stroke-opacity:1"
         cx="1172.1177"
         cy="1254.1765"
         rx="10.588235"
         ry="10.058824" />
      <ellipse
         transform="matrix(0.5150354,0,0,0.5344445,-1084.4674,-95.613699)"
         id="path2463"
         style="fill:#552200;fill-opacity:1;stroke:#000000;stroke-width:5.16509;stroke-opacity:1"
         cx="1172.1177"
         cy="1254.1765"
         rx="10.588235"
         ry="10.058824" />
      <path
         id="path2465"
         d="m -527.68382,572.55199 78.52775,-467.41887"
         style="fill:none;fill-rule:evenodd;stroke:#000000;stroke-width:2.70986;stroke-linecap:butt;stroke-linejoin:miter;stroke-opacity:1" />
      <path
         id="path2467"
         d="M -517.86787,573.68373 -445.8841,106.26489"
         style="fill:none;fill-rule:evenodd;stroke:#000000;stroke-width:2.70986;stroke-linecap:butt;stroke-linejoin:miter;stroke-opacity:1" />
      <path
         id="path3679"
         d="m -452.41574,561.71555 16.99265,0.42588 3.01578,25.31538 -19.04665,0.6146 z"
         style="display:inline;fill:#000000;fill-rule:evenodd;stroke:#000000;stroke-width:2.70986;stroke-linecap:butt;stroke-linejoin:miter;stroke-opacity:1" />
      <path
         id="path2469"
         d="M -503.68925,574.81553 -445.8841,105.13312"
         style="fill:none;fill-rule:evenodd;stroke:#000000;stroke-width:2.70986;stroke-linecap:butt;stroke-linejoin:miter;stroke-opacity:1" />
      <path
         id="path3681"
         d="m -454.46973,562.75602 5.86871,-0.13369 0.74829,24.91536 -5.2552,-0.6933 z"
         style="display:inline;fill:#552200;fill-opacity:1;fill-rule:evenodd;stroke:#000000;stroke-width:2.70986;stroke-linecap:butt;stroke-linejoin:miter;stroke-opacity:1" />
      <path
         id="path2471"
         d="m -479.69468,573.68373 35.99191,-467.41884"
         style="fill:none;fill-rule:evenodd;stroke:#000000;stroke-width:2.70986;stroke-linecap:butt;stroke-linejoin:miter;stroke-opacity:1" />
      <g
         transform="matrix(0.8918074,0.07724317,-0.4884911,1.0790078,-67.065956,-707.42667)"
         id="g3584"
         style="display:inline;fill:#000000;stroke:#000000;stroke-width:2.70986;stroke-opacity:1">
        <path
           sodipodi:nodetypes="ccccc"
           d="m -29.925397,656.07747 c -29.071429,3.41467 -46.510011,20.7433 -68.161203,33.72979 l -2.63049,-41.00527 c 1.098944,-10.2298 28.453175,-27.63597 52.56595,-23.37661 z"
           style="fill:#000000;fill-opacity:1;fill-rule:evenodd;stroke:#000000;stroke-width:2.70986;stroke-linecap:butt;stroke-linejoin:miter;stroke-miterlimit:4;stroke-dasharray:none;stroke-opacity:1"
           id="path3586" />
        <path
           sodipodi:nodetypes="ccccc"
           d="m -108.36612,687.00156 7.94937,-38.97307 c 1.430195,15.64554 33.927292,4.30691 32.304751,16.07461 l -6.070246,40.51212 c -0.734911,-11.12654 -33.307725,-3.355 -34.183875,-17.61366 z"
           style="fill:#000000;fill-opacity:1;fill-rule:evenodd;stroke:#000000;stroke-width:2.70986;stroke-linecap:butt;stroke-linejoin:miter;stroke-miterlimit:4;stroke-dasharray:none;stroke-opacity:1"
           id="path3588" />
        <path
           sodipodi:nodetypes="ccccccccccc"
           id="path3590"
           transform="rotate(-36.807011,807.12281,1959.12)"
           d="m 733.44049,345.37995 c -16.82423,-14.33409 -43.49335,-6.27152 -46.03797,1.49571 l -1.34375,14.46875 c 9.30268,-12.79348 53.74904,32.41967 100.03604,33.74302 -52.9807,3.23917 -106.61129,-37.36541 -111.09854,-17.86802 l -0.14954,23.69179 c 30.86022,-11.32231 97.14706,34.17933 173.84077,31.74505 L 866.03125,413.75 c -0.33498,0.41695 -0.85645,0.79322 -1.5625,1.15625 L 880,400.78125 c -7.49836,7.77635 -107.07665,-21.501 -146.55951,-55.4013 z"
           style="fill:#000000;fill-opacity:1;fill-rule:evenodd;stroke:#000000;stroke-width:2.70986;stroke-linecap:butt;stroke-linejoin:miter;stroke-miterlimit:4;stroke-dasharray:none;stroke-opacity:1" />
      </g>
      <path
         transform="translate(21.442335,48.531331)"
         id="path3666"
         d="m -678.60186,504.46483 16.74661,2.91245 -0.72811,25.48398 -18.93096,-2.18434 z"
         style="fill:#000000;fill-rule:evenodd;stroke:#000000;stroke-width:2.70986;stroke-linecap:butt;stroke-linejoin:miter;stroke-opacity:1" />
      <path
         transform="translate(21.442335,48.531331)"
         id="path3662"
         d="m -680.7862,505.19294 5.8249,0.72812 -2.91245,24.75586 -5.09679,-1.45623 z"
         style="fill:#552200;fill-opacity:1;fill-rule:evenodd;stroke:#000000;stroke-width:2.70986;stroke-linecap:butt;stroke-linejoin:miter;stroke-opacity:1" />
      <path
         transform="translate(21.442335,48.531331)"
         id="path3664"
         d="m -663.31148,506.64917 6.55302,1.45623 -2.91245,25.48397 -5.09679,-1.45623 z"
         style="fill:#552200;fill-opacity:1;fill-rule:evenodd;stroke:#000000;stroke-width:2.70986;stroke-linecap:butt;stroke-linejoin:miter;stroke-opacity:1" />
      <g
         transform="rotate(-2.9078808,-2084.2922,-3247.8553)"
         id="g3674"
         style="stroke:#000000;stroke-width:2.70986;stroke-opacity:1">
        <path
           style="display:inline;fill:#000000;fill-rule:evenodd;stroke:#000000;stroke-width:2.70986;stroke-linecap:butt;stroke-linejoin:miter;stroke-opacity:1"
           d="m -785.30752,631.63243 16.74661,2.91245 -0.72811,25.48398 -18.93096,-2.18434 z"
           id="path3668" />
        <path
           style="display:inline;fill:#552200;fill-opacity:1;fill-rule:evenodd;stroke:#000000;stroke-width:2.70986;stroke-linecap:butt;stroke-linejoin:miter;stroke-opacity:1"
           d="m -787.49186,632.36054 5.8249,0.72812 -2.91245,24.75586 -5.09679,-1.45623 z"
           id="path3670" />
        <path
           style="display:inline;fill:#552200;fill-opacity:1;fill-rule:evenodd;stroke:#000000;stroke-width:2.70986;stroke-linecap:butt;stroke-linejoin:miter;stroke-opacity:1"
           d="m -770.01714,633.81677 6.55302,1.45623 -2.91245,25.48397 -5.09679,-1.45623 z"
           id="path3672" />
      </g>
      <path
         id="path3683"
         d="m -436.97033,561.63468 6.6957,0.4798 0.85504,25.6356 -5.25521,-0.69329 z"
         style="display:inline;fill:#552200;fill-opacity:1;fill-rule:evenodd;stroke:#000000;stroke-width:2.70986;stroke-linecap:butt;stroke-linejoin:miter;stroke-opacity:1" />
      <g
         transform="rotate(-7.3902303,-325.54945,2547.3895)"
         id="g3691"
         style="stroke:#000000;stroke-width:2.70986;stroke-opacity:1">
        <path
           style="display:inline;fill:#000000;fill-rule:evenodd;stroke:#000000;stroke-width:2.70986;stroke-linecap:butt;stroke-linejoin:miter;stroke-opacity:1"
           d="m -123.83124,566.64643 16.98398,0.68992 2.62197,25.3592 -19.0539,0.3185 z"
           id="path3685" />
        <path
           style="display:inline;fill:#552200;fill-opacity:1;fill-rule:evenodd;stroke:#000000;stroke-width:2.70986;stroke-linecap:butt;stroke-linejoin:miter;stroke-opacity:1"
           d="m -125.90115,567.65486 5.87007,-0.0425 0.36098,24.92398 -5.2438,-0.77489 z"
           id="path3687" />
        <path
           style="display:inline;fill:#552200;fill-opacity:1;fill-rule:evenodd;stroke:#000000;stroke-width:2.70986;stroke-linecap:butt;stroke-linejoin:miter;stroke-opacity:1"
           d="m -108.38644,566.80561 6.68744,0.58381 0.45652,25.6458 -5.2438,-0.77489 z"
           id="path3689" />
      </g>
      <g
         transform="rotate(-7.3902303,-380.89548,1987.138)"
         id="g3696"
         style="display:inline;stroke:#000000;stroke-width:2.70986;stroke-opacity:1">
        <path
           style="display:inline;fill:#000000;fill-rule:evenodd;stroke:#000000;stroke-width:2.70986;stroke-linecap:butt;stroke-linejoin:miter;stroke-opacity:1"
           d="m -123.83124,566.64643 16.98398,0.68992 2.62197,25.3592 -19.0539,0.3185 z"
           id="path3698" />
        <path
           style="display:inline;fill:#552200;fill-opacity:1;fill-rule:evenodd;stroke:#000000;stroke-width:2.70986;stroke-linecap:butt;stroke-linejoin:miter;stroke-opacity:1"
           d="m -125.90115,567.65486 5.87007,-0.0425 0.36098,24.92398 -5.2438,-0.77489 z"
           id="path3700" />
        <path
           style="display:inline;fill:#552200;fill-opacity:1;fill-rule:evenodd;stroke:#000000;stroke-width:2.70986;stroke-linecap:butt;stroke-linejoin:miter;stroke-opacity:1"
           d="m -108.38644,566.80561 6.68744,0.58381 0.45652,25.6458 -5.2438,-0.77489 z"
           id="path3702" />
      </g>
      <path
         sodipodi:nodetypes="ccccccccccccccccccccccccccccccccsccccccccccccccccccc"
         id="path2406"
         d="m -179.7632,485.41199 -0.0644,0.23382 -105.72713,11.07305 -1.09445,26.03744 -5.45613,2.25467 -94.87921,14.71395 -67.63058,6.79744 -16.23902,12.24732 c -101.71438,0.5046 -119.90967,-3.75867 -176.80269,-12.24732 -18.02305,-2.57524 -59.63771,-11.23644 -59.63771,-11.23644 v 9.78021 c 0,0 27.17256,7.35963 38.90754,9.11802 20.20216,3.02713 47.29187,6.01183 67.63058,7.91646 19.26757,1.80432 44.27919,4.03106 63.61913,4.71039 20.59997,0.72359 48.60045,-1.73501 69.43702,-2.18434 10.47121,-0.22581 24.44857,0.10285 34.90977,-0.40758 18.36501,-0.89606 42.86125,-2.65794 61.06389,-5.25416 18.83159,-2.68593 43.46105,-5.02908 62.17445,-8.44256 20.55162,-3.74879 46.14718,-7.63062 66.70892,-11.32349 13.22684,-2.37553 45.97115,-12.55112 45.97115,-12.55112 l -0.33797,0.6346 -6.55063,10.18791 -14.17955,10.18779 -5.45618,6.78082 -49.07319,6.79744 c 0,0 -63.28127,11.58282 -90.51747,15.84964 -19.58063,3.0675 -45.70376,7.25687 -65.44174,9.0521 -15.33022,1.39433 -35.87231,1.91643 -51.26209,2.25472 -18.31957,0.40269 -61.08,0 -61.08,0 -40.81737,0 -82.74179,-5.3204 -122.88805,-13.1003 -12.76127,-2.473 -39.62169,-12.92047 -39.62169,-12.92047 v 9.05216 c 0,0 12.65165,7.14763 18.54127,9.05215 18.9577,6.13033 44.21474,9.58305 65.44169,11.32354 21.91298,1.79674 51.10047,4.79768 73.07065,5.64507 26.81181,1.03413 62.63491,1.21465 89.43914,0 18.70503,-0.84763 43.5727,-3.37066 62.15828,-5.64507 33.19367,-4.06208 110.16932,-16.98528 110.16932,-16.98528 l 59.9855,-10.18791 15.25792,-15.84959 17.46295,-5.64507 13.08514,-27.17314 9.81781,-30.54687 h -8.72336 z m -6.5667,21.32771 -6.85646,12.94355 c 0,0 -32.5358,7.18575 -46.56239,9.85382 -74.82764,13.94132 -144.66874,26.47608 -221.14333,28.09174 l 7.37145,-6.58035 c 62.12003,0.79668 123.6315,-12.07049 184.31829,-23.85315 25.00023,-4.81036 82.87244,-20.45561 82.87244,-20.45561 z"
         style="fill:#552200;fill-opacity:1;fill-rule:evenodd;stroke:#000000;stroke-width:2.70986;stroke-linecap:butt;stroke-linejoin:miter;stroke-opacity:1" />
      <path
         id="path2445"
         d="m -536.95446,576.51319 66.53042,1.13174 1.09069,6.22473 -69.25712,-1.13179 z"
         style="fill:#552200;fill-opacity:1;fill-rule:evenodd;stroke:#000000;stroke-width:2.70986;stroke-linecap:butt;stroke-linejoin:miter;stroke-opacity:1" />
      <ellipse
         transform="matrix(0.5150354,0,0,0.5344445,-1129.7299,-125.18102)"
         id="path2449"
         style="fill:#552200;fill-opacity:1;stroke:#000000;stroke-width:5.16509;stroke-opacity:1"
         cx="1172.1177"
         cy="1254.1765"
         rx="10.588235"
         ry="10.058824" />
      <ellipse
         transform="matrix(0.5150354,0,0,0.5344445,-1118.278,-124.33222)"
         id="path2451"
         style="fill:#552200;fill-opacity:1;stroke:#000000;stroke-width:5.16509;stroke-opacity:1"
         cx="1172.1177"
         cy="1254.1765"
         rx="10.588235"
         ry="10.058824" />
      <ellipse
         transform="matrix(0.5150354,0,0,0.5344445,-1106.2807,-123.20046)"
         id="path2453"
         style="fill:#552200;fill-opacity:1;stroke:#000000;stroke-width:5.16509;stroke-opacity:1"
         cx="1172.1177"
         cy="1254.1765"
         rx="10.588235"
         ry="10.058824" />
      <ellipse
         transform="matrix(0.5150354,0,0,0.5344445,-1081.7407,-123.76634)"
         id="path2455"
         style="fill:#552200;fill-opacity:1;stroke:#000000;stroke-width:5.16509;stroke-opacity:1"
         cx="1172.1177"
         cy="1254.1765"
         rx="10.588235"
         ry="10.058824" />
      <path
         transform="translate(21.442335,48.531331)"
         id="path3636"
         d="m -263.57712,539.41428 11.64982,3.64057 -4.36868,5.82491 -8.73737,-4.36868 z"
         style="fill:#000000;fill-rule:evenodd;stroke:#000000;stroke-width:2.70986;stroke-linecap:butt;stroke-linejoin:miter;stroke-opacity:1" />
      <path
         id="path3638"
         d="m -251.60026,611.60931 11.64982,3.64057 -4.36868,5.82491 -8.73737,-4.36868 z"
         style="display:inline;fill:#000000;fill-rule:evenodd;stroke:#000000;stroke-width:2.70986;stroke-linecap:butt;stroke-linejoin:miter;stroke-opacity:1" />
      <path
         id="path3640"
         d="m -261.06574,635.63705 11.64982,3.64057 -4.36868,5.82491 -8.73737,-4.36868 z"
         style="display:inline;fill:#000000;fill-rule:evenodd;stroke:#000000;stroke-width:2.70986;stroke-linecap:butt;stroke-linejoin:miter;stroke-opacity:1" />
      <path
         transform="translate(21.442335,48.531331)"
         id="path3642"
         d="m -543.17274,481.89331 9.46548,2.18434 13.83416,1.45623 21.84341,-1.45623"
         style="fill:none;fill-rule:evenodd;stroke:#000000;stroke-width:2.70986;stroke-linecap:butt;stroke-linejoin:miter;stroke-opacity:1" />
      <path
         transform="translate(21.442335,48.531331)"
         id="path3644"
         d="m -535.8916,439.66272 8.73736,1.45623 12.37793,0.72811 h 20.38718"
         style="fill:none;fill-rule:evenodd;stroke:#000000;stroke-width:2.70986;stroke-linecap:butt;stroke-linejoin:miter;stroke-opacity:1" />
      <path
         transform="translate(21.442335,48.531331)"
         id="path3646"
         d="m -530.7948,411.26629 h 9.46547 l 10.92171,1.45623 18.93095,1.45622"
         style="fill:none;fill-rule:evenodd;stroke:#000000;stroke-width:2.70986;stroke-linecap:butt;stroke-linejoin:miter;stroke-opacity:1" />
      <path
         transform="translate(21.442335,48.531331)"
         id="path3648"
         d="m -523.51367,375.58872 6.55302,0.72812 10.19359,0.72811 16.74662,-0.72811"
         style="fill:none;fill-rule:evenodd;stroke:#000000;stroke-width:2.70986;stroke-linecap:butt;stroke-linejoin:miter;stroke-opacity:1" />
      <path
         transform="translate(21.442335,48.531331)"
         id="path3650"
         d="m -519.14499,339.91116 h 7.28114 9.46548 16.01849"
         style="fill:none;fill-rule:evenodd;stroke:#000000;stroke-width:2.70986;stroke-linecap:butt;stroke-linejoin:miter;stroke-opacity:1" />
      <path
         transform="translate(21.442335,48.531331)"
         id="path3652"
         d="m -511.86385,295.49623 9.46548,1.45623 6.55302,-0.72812 h 12.37793"
         style="fill:none;fill-rule:evenodd;stroke:#000000;stroke-width:2.70986;stroke-linecap:butt;stroke-linejoin:miter;stroke-opacity:1" />
      <path
         transform="translate(21.442335,48.531331)"
         id="path3654"
         d="m -499.48592,227.05355 5.09679,1.45623 5.0968,0.72811 12.37793,-2.91245"
         style="fill:none;fill-rule:evenodd;stroke:#000000;stroke-width:2.70986;stroke-linecap:butt;stroke-linejoin:miter;stroke-opacity:1" />
      <g
         style="fill:#000000;stroke:#000000;stroke-width:2.70986;stroke-opacity:1"
         transform="rotate(18.897976,1081.8151,-419.00707)"
         id="g3579">
        <path
           sodipodi:nodetypes="cccccc"
           d="m -37.114857,716.48973 c 3.521681,29.05866 -44.450595,4.26796 -66.101783,17.25445 l 2.49955,-84.94219 c 1.098944,-10.2298 42.389927,-30.58736 52.56595,-23.37661 0,0 -3.441788,39.7603 -1.786345,53.41995 1.655442,13.65966 12.822628,37.6444 12.822628,37.6444 z"
           style="fill:#000000;fill-opacity:1;fill-rule:evenodd;stroke:#000000;stroke-width:2.70986;stroke-linecap:butt;stroke-linejoin:miter;stroke-miterlimit:4;stroke-dasharray:none;stroke-opacity:1"
           id="path6764" />
        <path
           sodipodi:nodetypes="ccccc"
           d="m -112.47365,713.77397 12.0569,-65.74548 c 1.430195,15.64554 33.927292,4.30691 32.304751,16.07461 l -6.058945,61.10628 c -0.734911,-11.12654 -37.426556,2.82325 -38.302706,-11.43541 z"
           style="fill:#000000;fill-opacity:1;fill-rule:evenodd;stroke:#000000;stroke-width:2.70986;stroke-linecap:butt;stroke-linejoin:miter;stroke-miterlimit:4;stroke-dasharray:none;stroke-opacity:1"
           id="path6766" />
        <path
           sodipodi:nodetypes="ccccc"
           d="m -70.956583,740.33297 2.785199,-72.56862 c -1.955822,15.59072 -84.678786,15.92528 -76.307106,40.70426 l -29.47224,92.70438 c -0.28231,-20.61683 101.736646,-52.49726 102.994147,-60.84002 z"
           style="fill:#000000;fill-opacity:1;fill-rule:evenodd;stroke:#000000;stroke-width:2.70986;stroke-linecap:butt;stroke-linejoin:miter;stroke-miterlimit:4;stroke-dasharray:none;stroke-opacity:1"
           id="path6768" />
      </g>
      <path
         transform="translate(21.442335,48.531331)"
         id="path3656"
         d="m -446.33363,-93.316427 4.36868,-1.456227 14.56227,46.59927 -10.9217,2.184341 z"
         style="fill:#552200;fill-opacity:1;fill-rule:evenodd;stroke:#000000;stroke-width:2.70986;stroke-linecap:butt;stroke-linejoin:miter;stroke-opacity:1" />
      <path
         transform="translate(21.442335,48.531331)"
         id="path3658"
         d="m -446.33363,-94.772654 12.37793,-11.649816 5.0968,55.336632"
         style="fill:none;fill-rule:evenodd;stroke:#000000;stroke-width:2.70986;stroke-linecap:butt;stroke-linejoin:miter;stroke-opacity:1" />
      <ellipse
         transform="translate(14.889313,52.171899)"
         id="path3660"
         style="fill:#552200;fill-opacity:1;stroke:#000000;stroke-width:2.70986;stroke-opacity:1"
         cx="-425.5824"
         cy="-112.97549"
         rx="6.1889653"
         ry="5.8249087" />
    </g>
    <path
       style="display:inline;fill:#e3e4e5;fill-opacity:1;fill-rule:evenodd;stroke:#000000;stroke-width:1;stroke-linecap:butt;stroke-linejoin:miter;stroke-miterlimit:4;stroke-dasharray:none;stroke-opacity:1"
       d="m 46.76627,539.55179 c 18.06161,13.35862 8.06535,33.80193 -18.812501,23.65625 1.320301,11.23028 -0.38935,19.51874 0.906251,27.59375 22.36529,6.35543 45.51429,-9.03825 27.71875,-23.65625 24.86385,-1.15918 16.63915,22.24007 34.9375,24.46875 -0.007,-0.19787 -0.0218,-0.43826 -0.0312,-0.65625 22.20516,5.98041 44.87915,-9.30552 27.21875,-23.8125 24.86385,-1.15918 16.63923,22.24007 34.9375,24.46875 -0.006,-0.19782 -0.0218,-0.43832 -0.0312,-0.65625 22.20374,5.97714 44.87797,-9.30651 27.21875,-23.8125 24.86384,-1.15918 16.63913,22.24008 34.9375,24.46875 -0.007,-0.19787 -0.0218,-0.43826 -0.0312,-0.65625 22.20515,5.98041 44.87915,-9.30552 27.21875,-23.8125 24.86384,-1.15918 16.63915,22.24008 34.9375,24.46875 -0.007,-0.19787 -0.0217,-0.43826 -0.0312,-0.65625 22.20646,5.98351 44.88024,-9.3046 27.21875,-23.8125 24.86381,-1.15918 16.63915,22.24008 34.9375,24.46875 -0.007,-0.19782 -0.0218,-0.43832 -0.0312,-0.65625 22.20365,5.97714 44.90916,-9.30651 27.25,-23.8125 24.86375,-1.15918 16.60789,22.24007 34.90625,24.46875 -0.007,-0.19787 -0.0218,-0.43826 -0.0312,-0.65625 22.20516,5.98041 44.9104,-9.30552 27.25,-23.8125 24.86376,-1.15918 16.60789,22.24007 34.90625,24.46875 -0.007,-0.19787 -0.0218,-0.43826 -0.0312,-0.65625 22.20648,5.98351 44.9115,-9.3046 27.25,-23.8125 23.95736,-1.11692 17.1872,20.54873 33.03125,24.125 0.71202,-2.72262 1.16362,-5.49728 1.40625,-8.28125 -0.3588,-6.22492 -0.63317,-13.66155 0.21875,-18.46875 -8.4e-4,-0.2663 7.6e-4,-1.00377 0,-1.3125 -20.2661,-0.50522 -14.52234,-22.99482 -44.46875,-23.65625 17.76171,13.13689 8.37769,33.11354 -17.5,24.125 0.0355,-0.15983 0.0551,-0.31653 0.0937,-0.46875 -20.60835,-0.29915 -14.63159,-22.99171 -44.71875,-23.65625 17.76181,13.13689 8.37767,33.11354 -17.5,24.125 0.0355,-0.15983 0.0551,-0.31653 0.0937,-0.46875 -20.60834,-0.29915 -14.6316,-22.99172 -44.71875,-23.65625 17.76357,13.13821 8.3837,33.12039 -17.5,24.125 0.0356,-0.16001 0.0551,-0.31636 0.0937,-0.46875 -20.60834,-0.29915 -14.66291,-22.99171 -44.75,-23.65625 17.7618,13.13689 8.40892,33.11354 -17.46875,24.125 0.0355,-0.15983 0.0551,-0.31653 0.0937,-0.46875 -20.60836,-0.29915 -14.66291,-22.99171 -44.75,-23.65625 17.76367,13.13829 8.38402,33.1208 -17.5,24.125 0.0356,-0.16001 0.0863,-0.31636 0.125,-0.46875 -20.60835,-0.29915 -14.66283,-22.99171 -44.75,-23.65625 17.76181,13.13689 8.37776,33.11354 -17.5,24.125 0.0356,-0.16001 0.0864,-0.31636 0.125,-0.46875 -20.60826,-0.29915 -14.6629,-22.99172 -44.75,-23.65625 17.76181,13.13689 8.37768,33.11354 -17.5,24.125 0.0356,-0.15983 0.0864,-0.31653 0.125,-0.46875 -20.60833,-0.29915 -14.66291,-22.9917 -44.75,-23.65625 z"
       id="path3821" />
    <path
       style="display:inline;fill:#e3e4e5;fill-opacity:1;fill-rule:evenodd;stroke:#000000;stroke-width:1;stroke-linecap:butt;stroke-linejoin:miter;stroke-miterlimit:4;stroke-dasharray:none;stroke-opacity:1"
       d="m 46.76627,602.14554 c 7.66507,5.6692 10.24352,12.59587 8.65625,17.9375 14.51854,7.27728 36.45101,13.50876 69.3125,18.1875 -0.65174,-2.76129 -2.53596,-5.66008 -6.03125,-8.53125 11.9476,-0.55701 16.21865,4.5709 19.5,10.28125 4.83725,0.57561 9.82862,1.14165 15.09375,1.65625 10.16682,0.79999 20.8165,2.50507 31.5,5.03125 3.71941,-4.72367 3.40448,-10.91208 -3.96875,-16.96875 24.86385,-1.15918 16.63913,22.24008 34.9375,24.46875 -0.007,-0.19782 -0.0218,-0.43826 -0.0312,-0.65625 22.20516,5.9804 44.87915,-9.30552 27.21875,-23.8125 24.86383,-1.15918 16.63915,22.24008 34.9375,24.46875 -0.007,-0.19782 -0.0217,-0.43826 -0.0312,-0.65625 22.20647,5.9835 44.88024,-9.3046 27.21875,-23.8125 24.86383,-1.15918 16.63915,22.24008 34.9375,24.46875 -0.007,-0.19777 -0.0218,-0.43832 -0.0312,-0.65625 1.09778,0.29552 2.18595,0.52451 3.28125,0.71875 9.30512,-3.40335 18.89907,-6.16954 28.4375,-8.28125 3.14298,-4.6225 2.5335,-10.49805 -4.46875,-16.25 14.00248,-0.65282 17.4723,6.49281 21.125,13.25 3.96529,-0.55592 7.90118,-1.00965 11.75,-1.3125 12.97952,-1.2686 24.54062,-2.74735 35,-4.375 -0.83809,-2.46656 -2.66176,-5.02569 -5.75,-7.5625 8.64107,-0.40286 13.2608,2.17121 16.40625,5.78125 11.67974,-2.11597 21.72792,-4.44056 30.28125,-7 -3.43715,-0.005 -7.3929,-0.69316 -11.875,-2.25 0.0355,-0.15984 0.0551,-0.31653 0.0937,-0.46875 -20.60835,-0.29916 -14.63159,-22.99171 -44.71875,-23.65625 17.76181,13.13691 8.37767,33.11354 -17.5,24.125 0.0355,-0.15984 0.0551,-0.31653 0.0937,-0.46875 -20.60834,-0.29916 -14.63159,-22.99172 -44.71875,-23.65625 17.76357,13.13823 8.38371,33.12039 -17.5,24.125 0.0356,-0.16002 0.0551,-0.31636 0.0937,-0.46875 -20.60835,-0.29916 -14.66291,-22.99171 -44.75,-23.65625 17.76179,13.13691 8.40892,33.11354 -17.46875,24.125 0.0355,-0.15984 0.0551,-0.31653 0.0937,-0.46875 -20.60835,-0.29916 -14.66291,-22.99171 -44.75,-23.65625 17.76368,13.13831 8.38402,33.1208 -17.5,24.125 0.0356,-0.16002 0.0863,-0.31636 0.125,-0.46875 -20.60834,-0.29916 -14.66283,-22.99171 -44.75,-23.65625 17.76182,13.13691 8.37776,33.11354 -17.5,24.125 0.0356,-0.16002 0.0864,-0.31636 0.125,-0.46875 -20.60825,-0.29916 -14.6629,-22.99172 -44.75,-23.65625 17.76181,13.13691 8.37767,33.11354 -17.5,24.125 0.0356,-0.15984 0.0864,-0.31653 0.125,-0.46875 -20.60833,-0.29916 -14.66292,-22.9917 -44.75,-23.65625 z"
       id="path3819" />
    <path
       style="display:inline;fill:#e3e4e5;fill-opacity:1;fill-rule:evenodd;stroke:#000000;stroke-width:1;stroke-linecap:butt;stroke-linejoin:miter;stroke-miterlimit:4;stroke-dasharray:none;stroke-opacity:1"
       d="m 481.67252,602.14554 c 10.11771,7.48326 11.40516,17.16484 5.875,22.46875 8.40311,-3.20682 15.01053,-6.65219 20.1875,-10.3125 -4.8783,-5.85512 -10.85486,-11.82036 -26.0625,-12.15625 z"
       id="path3812" />
    <path
       style="display:inline;fill:none;fill-opacity:1;fill-rule:evenodd;stroke:#000000;stroke-width:3;stroke-linecap:butt;stroke-linejoin:miter;stroke-miterlimit:4;stroke-dasharray:none;stroke-opacity:1"
       id="path6563"
       sodipodi:nodetypes="cccccccccc"
       d="m 26.942335,50.031331 c 0,0 0.72295,513.909369 0.53924,520.904839 -0.76055,29.40605 2.622985,58.59435 126.054675,70.65832 45.16727,3.55405 100.13356,24.77277 123.13647,58.05984 0.0967,0.12984 0.19032,0.25133 0.28548,0.37701 l 0.25376,-0.37701 c 23.00291,-33.28707 77.96919,-54.50579 123.13646,-58.05984 123.43169,-12.06397 126.81522,-41.25227 126.05467,-70.65832 -0.18368,-6.99549 0.53924,-520.904839 0.53924,-520.904839 z" />
  </g>
</svg>
